%TF.GenerationSoftware,KiCad,Pcbnew,5.1.10-88a1d61d58~88~ubuntu20.04.1*%
%TF.CreationDate,2021-05-09T11:34:52+02:00*%
%TF.ProjectId,osw-light-modifiedv2,6f73772d-6c69-4676-9874-2d6d6f646966,rev?*%
%TF.SameCoordinates,Original*%
%TF.FileFunction,Copper,L2,Inr*%
%TF.FilePolarity,Positive*%
%FSLAX46Y46*%
G04 Gerber Fmt 4.6, Leading zero omitted, Abs format (unit mm)*
G04 Created by KiCad (PCBNEW 5.1.10-88a1d61d58~88~ubuntu20.04.1) date 2021-05-09 11:34:52*
%MOMM*%
%LPD*%
G01*
G04 APERTURE LIST*
%TA.AperFunction,ComponentPad*%
%ADD10O,2.000000X1.500000*%
%TD*%
%TA.AperFunction,ComponentPad*%
%ADD11O,0.600000X1.524000*%
%TD*%
%TA.AperFunction,ComponentPad*%
%ADD12O,1.700000X1.700000*%
%TD*%
%TA.AperFunction,ComponentPad*%
%ADD13R,1.700000X1.700000*%
%TD*%
%TA.AperFunction,ViaPad*%
%ADD14C,0.800000*%
%TD*%
%TA.AperFunction,Conductor*%
%ADD15C,0.254000*%
%TD*%
%TA.AperFunction,Conductor*%
%ADD16C,0.100000*%
%TD*%
G04 APERTURE END LIST*
D10*
%TO.N,*%
%TO.C,U12*%
X169527000Y-91752000D03*
X169527000Y-97848000D03*
%TD*%
D11*
%TO.N,*%
%TO.C,SW4*%
X138055001Y-108886999D03*
X132975001Y-108886999D03*
%TD*%
%TO.N,*%
%TO.C,SW3*%
X163325001Y-108516999D03*
X158245001Y-108516999D03*
%TD*%
%TO.N,*%
%TO.C,SW2*%
X121575001Y-108866999D03*
X116495001Y-108866999D03*
%TD*%
%TO.N,*%
%TO.C,SW1*%
X129740000Y-108850000D03*
X124660000Y-108850000D03*
%TD*%
D12*
%TO.N,GND*%
%TO.C,J3*%
X113500000Y-82460000D03*
D13*
%TO.N,/VBAT*%
X113500000Y-85000000D03*
%TD*%
D14*
%TO.N,/VBUS*%
X125500000Y-97000000D03*
X164600000Y-99700000D03*
%TO.N,GND*%
X163300000Y-86800000D03*
X132800000Y-61900000D03*
X131600000Y-91400000D03*
X131600000Y-89000000D03*
X127000000Y-93600000D03*
X124000000Y-93700000D03*
X135800000Y-82000000D03*
X136800000Y-79000000D03*
X133300000Y-74300000D03*
X113500000Y-79500000D03*
X119000000Y-74500000D03*
X118900000Y-94800000D03*
X109500000Y-95700000D03*
X143600000Y-99100000D03*
X138400000Y-106900000D03*
X149800000Y-109200000D03*
X149100000Y-101300000D03*
X153400000Y-99200000D03*
X165100000Y-93500000D03*
X156500000Y-61300000D03*
X159500000Y-62700000D03*
X161600000Y-71900000D03*
X165700000Y-79900000D03*
X158100000Y-100500000D03*
X163600000Y-106500000D03*
X116000000Y-99000000D03*
X124900000Y-104800000D03*
X117100000Y-104800000D03*
X132600000Y-71300000D03*
X135500000Y-62000000D03*
X132800000Y-64400000D03*
X130000000Y-57000000D03*
X131500000Y-55500000D03*
X131500000Y-57000000D03*
X130000000Y-55500000D03*
X149300000Y-51500000D03*
X148200000Y-50500000D03*
X153000000Y-44300000D03*
X156400000Y-51000000D03*
X163800000Y-80100000D03*
X160700000Y-90600000D03*
X124500000Y-86500000D03*
X124500000Y-84500000D03*
X158300000Y-76000000D03*
%TO.N,+3V3*%
X135700000Y-86400000D03*
X160700000Y-97200000D03*
X155900000Y-78800000D03*
X135800000Y-91500000D03*
X135800000Y-89000000D03*
X153600000Y-94300000D03*
X150000000Y-94300000D03*
X148100000Y-103600000D03*
X150200000Y-96900000D03*
X146500000Y-70900000D03*
X164200000Y-69400000D03*
X167300000Y-79900000D03*
X171400000Y-74400000D03*
X162300000Y-100400000D03*
X162900000Y-104400000D03*
X118500000Y-106700000D03*
X126800000Y-106500000D03*
X138000000Y-104900000D03*
X161700000Y-86800000D03*
X164900000Y-83700000D03*
X161800000Y-81000000D03*
X156700000Y-73400000D03*
%TO.N,/VBAT*%
X116200000Y-91800000D03*
X116200000Y-87100000D03*
%TO.N,/VCC*%
X135800000Y-84300000D03*
X121100000Y-82950000D03*
X133200000Y-68900000D03*
X127400000Y-74280000D03*
X130300000Y-79000000D03*
X131100000Y-82000000D03*
X128300000Y-68900000D03*
X128200000Y-71200000D03*
X130700000Y-84300000D03*
X125600000Y-86500000D03*
%TO.N,/LEDK*%
X153000000Y-101700000D03*
%TO.N,/STAT_PWR*%
X138400000Y-87000000D03*
X121100000Y-87500000D03*
X128300000Y-82600000D03*
X130200000Y-87700000D03*
%TO.N,/B_MON*%
X148300000Y-75200000D03*
X121100000Y-77825000D03*
%TO.N,/PIN_LED*%
X144500000Y-104500000D03*
X138500000Y-82500000D03*
%TO.N,/EN*%
X158300000Y-93300000D03*
X157000014Y-72000000D03*
%TO.N,Net-(R14-Pad1)*%
X123400000Y-82700000D03*
X122400000Y-80000000D03*
%TO.N,/SDA*%
X160600000Y-84100000D03*
X162400000Y-80200000D03*
%TO.N,/SCL*%
X156000000Y-88100000D03*
X164700000Y-81500000D03*
X157400000Y-85600000D03*
X160225010Y-85600000D03*
%TO.N,/TFT_CS*%
X147700000Y-94200016D03*
%TO.N,/SCK*%
X146900000Y-95600000D03*
%TO.N,/MOSI*%
X146074990Y-97000000D03*
%TO.N,/RX*%
X161000000Y-99100000D03*
X152800000Y-92200000D03*
%TO.N,/TFT_RST*%
X148800000Y-78800000D03*
X146200000Y-92000000D03*
X144900006Y-95400000D03*
%TO.N,/TFT_DC*%
X143704000Y-78900000D03*
%TO.N,Net-(C2-Pad1)*%
X155000000Y-56400000D03*
X146760000Y-53600000D03*
X145270000Y-47780000D03*
%TO.N,/REF_OUT*%
X148400000Y-60300000D03*
X152300000Y-59300000D03*
%TO.N,+3.3VA*%
X141900000Y-65000000D03*
X161000000Y-65800000D03*
X119400000Y-42800000D03*
X140300000Y-44800000D03*
X151900000Y-49900000D03*
X149300000Y-42900000D03*
X149600000Y-47800000D03*
X128000000Y-64300000D03*
X127900000Y-61820000D03*
%TO.N,/SCL_2*%
X143900000Y-73800000D03*
X152000000Y-73800000D03*
%TO.N,Net-(R32-Pad1)*%
X164100000Y-94000000D03*
X164200000Y-96900000D03*
%TO.N,Net-(R33-Pad2)*%
X151300000Y-101700000D03*
%TO.N,/LO*%
X153400000Y-54700000D03*
X152600000Y-67900000D03*
%TD*%
D15*
%TO.N,GND*%
X174315001Y-111315000D02*
X105685000Y-111315000D01*
X105685000Y-106525701D01*
X107415000Y-106525701D01*
X107415000Y-107074299D01*
X107522026Y-107612354D01*
X107731965Y-108119192D01*
X108036750Y-108575334D01*
X108424666Y-108963250D01*
X108880808Y-109268035D01*
X109387646Y-109477974D01*
X109925701Y-109585000D01*
X110474299Y-109585000D01*
X111012354Y-109477974D01*
X111261124Y-109374930D01*
X115560001Y-109374930D01*
X115573530Y-109512290D01*
X115626994Y-109688538D01*
X115713815Y-109850970D01*
X115830657Y-109993343D01*
X115973029Y-110110185D01*
X116135461Y-110197006D01*
X116311709Y-110250470D01*
X116495001Y-110268523D01*
X116678292Y-110250470D01*
X116854540Y-110197006D01*
X117016972Y-110110185D01*
X117159345Y-109993343D01*
X117276187Y-109850971D01*
X117363008Y-109688539D01*
X117416472Y-109512291D01*
X117430001Y-109374931D01*
X117430001Y-109374930D01*
X120640001Y-109374930D01*
X120653530Y-109512290D01*
X120706994Y-109688538D01*
X120793815Y-109850970D01*
X120910657Y-109993343D01*
X121053029Y-110110185D01*
X121215461Y-110197006D01*
X121391709Y-110250470D01*
X121575001Y-110268523D01*
X121758292Y-110250470D01*
X121934540Y-110197006D01*
X122096972Y-110110185D01*
X122239345Y-109993343D01*
X122356187Y-109850971D01*
X122443008Y-109688539D01*
X122496472Y-109512291D01*
X122510001Y-109374931D01*
X122510001Y-109357931D01*
X123725000Y-109357931D01*
X123738529Y-109495291D01*
X123791993Y-109671539D01*
X123878814Y-109833971D01*
X123995656Y-109976344D01*
X124138028Y-110093186D01*
X124300460Y-110180007D01*
X124476708Y-110233471D01*
X124660000Y-110251524D01*
X124843291Y-110233471D01*
X125019539Y-110180007D01*
X125181971Y-110093186D01*
X125324344Y-109976344D01*
X125441186Y-109833972D01*
X125528007Y-109671540D01*
X125581471Y-109495292D01*
X125595000Y-109357932D01*
X125595000Y-109357931D01*
X128805000Y-109357931D01*
X128818529Y-109495291D01*
X128871993Y-109671539D01*
X128958814Y-109833971D01*
X129075656Y-109976344D01*
X129218028Y-110093186D01*
X129380460Y-110180007D01*
X129556708Y-110233471D01*
X129740000Y-110251524D01*
X129923291Y-110233471D01*
X130099539Y-110180007D01*
X130261971Y-110093186D01*
X130404344Y-109976344D01*
X130521186Y-109833972D01*
X130608007Y-109671540D01*
X130661471Y-109495292D01*
X130671355Y-109394930D01*
X132040001Y-109394930D01*
X132053530Y-109532290D01*
X132106994Y-109708538D01*
X132193815Y-109870970D01*
X132310657Y-110013343D01*
X132453029Y-110130185D01*
X132615461Y-110217006D01*
X132791709Y-110270470D01*
X132975001Y-110288523D01*
X133158292Y-110270470D01*
X133334540Y-110217006D01*
X133496972Y-110130185D01*
X133639345Y-110013343D01*
X133756187Y-109870971D01*
X133843008Y-109708539D01*
X133896472Y-109532291D01*
X133910001Y-109394931D01*
X133910001Y-109394930D01*
X137120001Y-109394930D01*
X137133530Y-109532290D01*
X137186994Y-109708538D01*
X137273815Y-109870970D01*
X137390657Y-110013343D01*
X137533029Y-110130185D01*
X137695461Y-110217006D01*
X137871709Y-110270470D01*
X138055001Y-110288523D01*
X138238292Y-110270470D01*
X138414540Y-110217006D01*
X138576972Y-110130185D01*
X138719345Y-110013343D01*
X138836187Y-109870971D01*
X138923008Y-109708539D01*
X138976472Y-109532291D01*
X138990001Y-109394931D01*
X138990001Y-109024930D01*
X157310001Y-109024930D01*
X157323530Y-109162290D01*
X157376994Y-109338538D01*
X157463815Y-109500970D01*
X157580657Y-109643343D01*
X157723029Y-109760185D01*
X157885461Y-109847006D01*
X158061709Y-109900470D01*
X158245001Y-109918523D01*
X158428292Y-109900470D01*
X158604540Y-109847006D01*
X158766972Y-109760185D01*
X158909345Y-109643343D01*
X159026187Y-109500971D01*
X159113008Y-109338539D01*
X159166472Y-109162291D01*
X159180001Y-109024931D01*
X159180001Y-109024930D01*
X162390001Y-109024930D01*
X162403530Y-109162290D01*
X162456994Y-109338538D01*
X162543815Y-109500970D01*
X162660657Y-109643343D01*
X162803029Y-109760185D01*
X162965461Y-109847006D01*
X163141709Y-109900470D01*
X163325001Y-109918523D01*
X163508292Y-109900470D01*
X163684540Y-109847006D01*
X163846972Y-109760185D01*
X163989345Y-109643343D01*
X164106187Y-109500971D01*
X164193008Y-109338539D01*
X164246472Y-109162291D01*
X164260001Y-109024931D01*
X164260001Y-108009067D01*
X164246472Y-107871707D01*
X164193008Y-107695459D01*
X164106187Y-107533027D01*
X163989345Y-107390655D01*
X163846973Y-107273813D01*
X163684541Y-107186992D01*
X163508293Y-107133528D01*
X163325001Y-107115475D01*
X163141710Y-107133528D01*
X162965462Y-107186992D01*
X162803030Y-107273813D01*
X162660658Y-107390655D01*
X162543816Y-107533027D01*
X162456995Y-107695459D01*
X162403531Y-107871707D01*
X162390002Y-108009067D01*
X162390001Y-109024930D01*
X159180001Y-109024930D01*
X159180001Y-108009067D01*
X159166472Y-107871707D01*
X159113008Y-107695459D01*
X159026187Y-107533027D01*
X158909345Y-107390655D01*
X158766973Y-107273813D01*
X158604541Y-107186992D01*
X158428293Y-107133528D01*
X158245001Y-107115475D01*
X158061710Y-107133528D01*
X157885462Y-107186992D01*
X157723030Y-107273813D01*
X157580658Y-107390655D01*
X157463816Y-107533027D01*
X157376995Y-107695459D01*
X157323531Y-107871707D01*
X157310002Y-108009067D01*
X157310001Y-109024930D01*
X138990001Y-109024930D01*
X138990001Y-108379067D01*
X138976472Y-108241707D01*
X138923008Y-108065459D01*
X138836187Y-107903027D01*
X138719345Y-107760655D01*
X138576973Y-107643813D01*
X138414541Y-107556992D01*
X138238293Y-107503528D01*
X138055001Y-107485475D01*
X137871710Y-107503528D01*
X137695462Y-107556992D01*
X137533030Y-107643813D01*
X137390658Y-107760655D01*
X137273816Y-107903027D01*
X137186995Y-108065459D01*
X137133531Y-108241707D01*
X137120002Y-108379067D01*
X137120001Y-109394930D01*
X133910001Y-109394930D01*
X133910001Y-108379067D01*
X133896472Y-108241707D01*
X133843008Y-108065459D01*
X133756187Y-107903027D01*
X133639345Y-107760655D01*
X133496973Y-107643813D01*
X133334541Y-107556992D01*
X133158293Y-107503528D01*
X132975001Y-107485475D01*
X132791710Y-107503528D01*
X132615462Y-107556992D01*
X132453030Y-107643813D01*
X132310658Y-107760655D01*
X132193816Y-107903027D01*
X132106995Y-108065459D01*
X132053531Y-108241707D01*
X132040002Y-108379067D01*
X132040001Y-109394930D01*
X130671355Y-109394930D01*
X130675000Y-109357932D01*
X130675000Y-108342068D01*
X130661471Y-108204708D01*
X130608007Y-108028460D01*
X130521186Y-107866028D01*
X130404344Y-107723656D01*
X130261972Y-107606814D01*
X130099540Y-107519993D01*
X129923292Y-107466529D01*
X129740000Y-107448476D01*
X129556709Y-107466529D01*
X129380461Y-107519993D01*
X129218029Y-107606814D01*
X129075657Y-107723656D01*
X128958815Y-107866028D01*
X128871994Y-108028460D01*
X128818530Y-108204708D01*
X128805001Y-108342068D01*
X128805000Y-109357931D01*
X125595000Y-109357931D01*
X125595000Y-108342068D01*
X125581471Y-108204708D01*
X125528007Y-108028460D01*
X125441186Y-107866028D01*
X125324344Y-107723656D01*
X125181972Y-107606814D01*
X125019540Y-107519993D01*
X124843292Y-107466529D01*
X124660000Y-107448476D01*
X124476709Y-107466529D01*
X124300461Y-107519993D01*
X124138029Y-107606814D01*
X123995657Y-107723656D01*
X123878815Y-107866028D01*
X123791994Y-108028460D01*
X123738530Y-108204708D01*
X123725001Y-108342068D01*
X123725000Y-109357931D01*
X122510001Y-109357931D01*
X122510001Y-108359067D01*
X122496472Y-108221707D01*
X122443008Y-108045459D01*
X122356187Y-107883027D01*
X122239345Y-107740655D01*
X122096973Y-107623813D01*
X121934541Y-107536992D01*
X121758293Y-107483528D01*
X121575001Y-107465475D01*
X121391710Y-107483528D01*
X121215462Y-107536992D01*
X121053030Y-107623813D01*
X120910658Y-107740655D01*
X120793816Y-107883027D01*
X120706995Y-108045459D01*
X120653531Y-108221707D01*
X120640002Y-108359067D01*
X120640001Y-109374930D01*
X117430001Y-109374930D01*
X117430001Y-108359067D01*
X117416472Y-108221707D01*
X117363008Y-108045459D01*
X117276187Y-107883027D01*
X117159345Y-107740655D01*
X117016973Y-107623813D01*
X116854541Y-107536992D01*
X116678293Y-107483528D01*
X116495001Y-107465475D01*
X116311710Y-107483528D01*
X116135462Y-107536992D01*
X115973030Y-107623813D01*
X115830658Y-107740655D01*
X115713816Y-107883027D01*
X115626995Y-108045459D01*
X115573531Y-108221707D01*
X115560002Y-108359067D01*
X115560001Y-109374930D01*
X111261124Y-109374930D01*
X111519192Y-109268035D01*
X111975334Y-108963250D01*
X112363250Y-108575334D01*
X112668035Y-108119192D01*
X112877974Y-107612354D01*
X112985000Y-107074299D01*
X112985000Y-106598061D01*
X117465000Y-106598061D01*
X117465000Y-106801939D01*
X117504774Y-107001898D01*
X117582795Y-107190256D01*
X117696063Y-107359774D01*
X117840226Y-107503937D01*
X118009744Y-107617205D01*
X118198102Y-107695226D01*
X118398061Y-107735000D01*
X118601939Y-107735000D01*
X118801898Y-107695226D01*
X118990256Y-107617205D01*
X119159774Y-107503937D01*
X119303937Y-107359774D01*
X119417205Y-107190256D01*
X119495226Y-107001898D01*
X119535000Y-106801939D01*
X119535000Y-106598061D01*
X119495226Y-106398102D01*
X119495210Y-106398061D01*
X125765000Y-106398061D01*
X125765000Y-106601939D01*
X125804774Y-106801898D01*
X125882795Y-106990256D01*
X125996063Y-107159774D01*
X126140226Y-107303937D01*
X126309744Y-107417205D01*
X126498102Y-107495226D01*
X126698061Y-107535000D01*
X126901939Y-107535000D01*
X127101898Y-107495226D01*
X127290256Y-107417205D01*
X127459774Y-107303937D01*
X127603937Y-107159774D01*
X127717205Y-106990256D01*
X127795226Y-106801898D01*
X127835000Y-106601939D01*
X127835000Y-106525701D01*
X167015000Y-106525701D01*
X167015000Y-107074299D01*
X167122026Y-107612354D01*
X167331965Y-108119192D01*
X167636750Y-108575334D01*
X168024666Y-108963250D01*
X168480808Y-109268035D01*
X168987646Y-109477974D01*
X169525701Y-109585000D01*
X170074299Y-109585000D01*
X170612354Y-109477974D01*
X171119192Y-109268035D01*
X171575334Y-108963250D01*
X171963250Y-108575334D01*
X172268035Y-108119192D01*
X172477974Y-107612354D01*
X172585000Y-107074299D01*
X172585000Y-106525701D01*
X172477974Y-105987646D01*
X172268035Y-105480808D01*
X171963250Y-105024666D01*
X171575334Y-104636750D01*
X171119192Y-104331965D01*
X170612354Y-104122026D01*
X170074299Y-104015000D01*
X169525701Y-104015000D01*
X168987646Y-104122026D01*
X168480808Y-104331965D01*
X168024666Y-104636750D01*
X167636750Y-105024666D01*
X167331965Y-105480808D01*
X167122026Y-105987646D01*
X167015000Y-106525701D01*
X127835000Y-106525701D01*
X127835000Y-106398061D01*
X127795226Y-106198102D01*
X127717205Y-106009744D01*
X127603937Y-105840226D01*
X127459774Y-105696063D01*
X127290256Y-105582795D01*
X127101898Y-105504774D01*
X126901939Y-105465000D01*
X126698061Y-105465000D01*
X126498102Y-105504774D01*
X126309744Y-105582795D01*
X126140226Y-105696063D01*
X125996063Y-105840226D01*
X125882795Y-106009744D01*
X125804774Y-106198102D01*
X125765000Y-106398061D01*
X119495210Y-106398061D01*
X119417205Y-106209744D01*
X119303937Y-106040226D01*
X119159774Y-105896063D01*
X118990256Y-105782795D01*
X118801898Y-105704774D01*
X118601939Y-105665000D01*
X118398061Y-105665000D01*
X118198102Y-105704774D01*
X118009744Y-105782795D01*
X117840226Y-105896063D01*
X117696063Y-106040226D01*
X117582795Y-106209744D01*
X117504774Y-106398102D01*
X117465000Y-106598061D01*
X112985000Y-106598061D01*
X112985000Y-106525701D01*
X112877974Y-105987646D01*
X112668035Y-105480808D01*
X112363250Y-105024666D01*
X112136645Y-104798061D01*
X136965000Y-104798061D01*
X136965000Y-105001939D01*
X137004774Y-105201898D01*
X137082795Y-105390256D01*
X137196063Y-105559774D01*
X137340226Y-105703937D01*
X137509744Y-105817205D01*
X137698102Y-105895226D01*
X137898061Y-105935000D01*
X138101939Y-105935000D01*
X138301898Y-105895226D01*
X138490256Y-105817205D01*
X138659774Y-105703937D01*
X138803937Y-105559774D01*
X138917205Y-105390256D01*
X138995226Y-105201898D01*
X139035000Y-105001939D01*
X139035000Y-104798061D01*
X138995226Y-104598102D01*
X138917205Y-104409744D01*
X138909399Y-104398061D01*
X143465000Y-104398061D01*
X143465000Y-104601939D01*
X143504774Y-104801898D01*
X143582795Y-104990256D01*
X143696063Y-105159774D01*
X143840226Y-105303937D01*
X144009744Y-105417205D01*
X144198102Y-105495226D01*
X144398061Y-105535000D01*
X144601939Y-105535000D01*
X144801898Y-105495226D01*
X144990256Y-105417205D01*
X145159774Y-105303937D01*
X145303937Y-105159774D01*
X145417205Y-104990256D01*
X145495226Y-104801898D01*
X145535000Y-104601939D01*
X145535000Y-104398061D01*
X145495226Y-104198102D01*
X145417205Y-104009744D01*
X145303937Y-103840226D01*
X145159774Y-103696063D01*
X144990256Y-103582795D01*
X144801898Y-103504774D01*
X144768150Y-103498061D01*
X147065000Y-103498061D01*
X147065000Y-103701939D01*
X147104774Y-103901898D01*
X147182795Y-104090256D01*
X147296063Y-104259774D01*
X147440226Y-104403937D01*
X147609744Y-104517205D01*
X147798102Y-104595226D01*
X147998061Y-104635000D01*
X148201939Y-104635000D01*
X148401898Y-104595226D01*
X148590256Y-104517205D01*
X148759774Y-104403937D01*
X148865650Y-104298061D01*
X161865000Y-104298061D01*
X161865000Y-104501939D01*
X161904774Y-104701898D01*
X161982795Y-104890256D01*
X162096063Y-105059774D01*
X162240226Y-105203937D01*
X162409744Y-105317205D01*
X162598102Y-105395226D01*
X162798061Y-105435000D01*
X163001939Y-105435000D01*
X163201898Y-105395226D01*
X163390256Y-105317205D01*
X163559774Y-105203937D01*
X163703937Y-105059774D01*
X163817205Y-104890256D01*
X163895226Y-104701898D01*
X163935000Y-104501939D01*
X163935000Y-104298061D01*
X163895226Y-104098102D01*
X163817205Y-103909744D01*
X163703937Y-103740226D01*
X163559774Y-103596063D01*
X163390256Y-103482795D01*
X163201898Y-103404774D01*
X163001939Y-103365000D01*
X162798061Y-103365000D01*
X162598102Y-103404774D01*
X162409744Y-103482795D01*
X162240226Y-103596063D01*
X162096063Y-103740226D01*
X161982795Y-103909744D01*
X161904774Y-104098102D01*
X161865000Y-104298061D01*
X148865650Y-104298061D01*
X148903937Y-104259774D01*
X149017205Y-104090256D01*
X149095226Y-103901898D01*
X149135000Y-103701939D01*
X149135000Y-103498061D01*
X149095226Y-103298102D01*
X149017205Y-103109744D01*
X148903937Y-102940226D01*
X148759774Y-102796063D01*
X148590256Y-102682795D01*
X148401898Y-102604774D01*
X148201939Y-102565000D01*
X147998061Y-102565000D01*
X147798102Y-102604774D01*
X147609744Y-102682795D01*
X147440226Y-102796063D01*
X147296063Y-102940226D01*
X147182795Y-103109744D01*
X147104774Y-103298102D01*
X147065000Y-103498061D01*
X144768150Y-103498061D01*
X144601939Y-103465000D01*
X144398061Y-103465000D01*
X144198102Y-103504774D01*
X144009744Y-103582795D01*
X143840226Y-103696063D01*
X143696063Y-103840226D01*
X143582795Y-104009744D01*
X143504774Y-104198102D01*
X143465000Y-104398061D01*
X138909399Y-104398061D01*
X138803937Y-104240226D01*
X138659774Y-104096063D01*
X138490256Y-103982795D01*
X138301898Y-103904774D01*
X138101939Y-103865000D01*
X137898061Y-103865000D01*
X137698102Y-103904774D01*
X137509744Y-103982795D01*
X137340226Y-104096063D01*
X137196063Y-104240226D01*
X137082795Y-104409744D01*
X137004774Y-104598102D01*
X136965000Y-104798061D01*
X112136645Y-104798061D01*
X111975334Y-104636750D01*
X111519192Y-104331965D01*
X111012354Y-104122026D01*
X110474299Y-104015000D01*
X109925701Y-104015000D01*
X109387646Y-104122026D01*
X108880808Y-104331965D01*
X108424666Y-104636750D01*
X108036750Y-105024666D01*
X107731965Y-105480808D01*
X107522026Y-105987646D01*
X107415000Y-106525701D01*
X105685000Y-106525701D01*
X105685000Y-101598061D01*
X150265000Y-101598061D01*
X150265000Y-101801939D01*
X150304774Y-102001898D01*
X150382795Y-102190256D01*
X150496063Y-102359774D01*
X150640226Y-102503937D01*
X150809744Y-102617205D01*
X150998102Y-102695226D01*
X151198061Y-102735000D01*
X151401939Y-102735000D01*
X151601898Y-102695226D01*
X151790256Y-102617205D01*
X151959774Y-102503937D01*
X152103937Y-102359774D01*
X152150000Y-102290836D01*
X152196063Y-102359774D01*
X152340226Y-102503937D01*
X152509744Y-102617205D01*
X152698102Y-102695226D01*
X152898061Y-102735000D01*
X153101939Y-102735000D01*
X153301898Y-102695226D01*
X153490256Y-102617205D01*
X153659774Y-102503937D01*
X153803937Y-102359774D01*
X153917205Y-102190256D01*
X153995226Y-102001898D01*
X154035000Y-101801939D01*
X154035000Y-101598061D01*
X153995226Y-101398102D01*
X153917205Y-101209744D01*
X153803937Y-101040226D01*
X153659774Y-100896063D01*
X153490256Y-100782795D01*
X153301898Y-100704774D01*
X153101939Y-100665000D01*
X152898061Y-100665000D01*
X152698102Y-100704774D01*
X152509744Y-100782795D01*
X152340226Y-100896063D01*
X152196063Y-101040226D01*
X152150000Y-101109164D01*
X152103937Y-101040226D01*
X151959774Y-100896063D01*
X151790256Y-100782795D01*
X151601898Y-100704774D01*
X151401939Y-100665000D01*
X151198061Y-100665000D01*
X150998102Y-100704774D01*
X150809744Y-100782795D01*
X150640226Y-100896063D01*
X150496063Y-101040226D01*
X150382795Y-101209744D01*
X150304774Y-101398102D01*
X150265000Y-101598061D01*
X105685000Y-101598061D01*
X105685000Y-96898061D01*
X124465000Y-96898061D01*
X124465000Y-97101939D01*
X124504774Y-97301898D01*
X124582795Y-97490256D01*
X124696063Y-97659774D01*
X124840226Y-97803937D01*
X125009744Y-97917205D01*
X125198102Y-97995226D01*
X125398061Y-98035000D01*
X125601939Y-98035000D01*
X125801898Y-97995226D01*
X125990256Y-97917205D01*
X126159774Y-97803937D01*
X126303937Y-97659774D01*
X126417205Y-97490256D01*
X126495226Y-97301898D01*
X126535000Y-97101939D01*
X126535000Y-96898061D01*
X126495226Y-96698102D01*
X126417205Y-96509744D01*
X126303937Y-96340226D01*
X126159774Y-96196063D01*
X125990256Y-96082795D01*
X125801898Y-96004774D01*
X125601939Y-95965000D01*
X125398061Y-95965000D01*
X125198102Y-96004774D01*
X125009744Y-96082795D01*
X124840226Y-96196063D01*
X124696063Y-96340226D01*
X124582795Y-96509744D01*
X124504774Y-96698102D01*
X124465000Y-96898061D01*
X105685000Y-96898061D01*
X105685000Y-95298061D01*
X143865006Y-95298061D01*
X143865006Y-95501939D01*
X143904780Y-95701898D01*
X143982801Y-95890256D01*
X144096069Y-96059774D01*
X144240232Y-96203937D01*
X144409750Y-96317205D01*
X144598108Y-96395226D01*
X144798067Y-96435000D01*
X145001945Y-96435000D01*
X145201904Y-96395226D01*
X145246702Y-96376670D01*
X145157785Y-96509744D01*
X145079764Y-96698102D01*
X145039990Y-96898061D01*
X145039990Y-97101939D01*
X145079764Y-97301898D01*
X145157785Y-97490256D01*
X145271053Y-97659774D01*
X145415216Y-97803937D01*
X145584734Y-97917205D01*
X145773092Y-97995226D01*
X145973051Y-98035000D01*
X146176929Y-98035000D01*
X146376888Y-97995226D01*
X146565246Y-97917205D01*
X146734764Y-97803937D01*
X146878927Y-97659774D01*
X146992195Y-97490256D01*
X147070216Y-97301898D01*
X147109990Y-97101939D01*
X147109990Y-96898061D01*
X147090099Y-96798061D01*
X149165000Y-96798061D01*
X149165000Y-97001939D01*
X149204774Y-97201898D01*
X149282795Y-97390256D01*
X149396063Y-97559774D01*
X149540226Y-97703937D01*
X149709744Y-97817205D01*
X149898102Y-97895226D01*
X150098061Y-97935000D01*
X150301939Y-97935000D01*
X150501898Y-97895226D01*
X150690256Y-97817205D01*
X150859774Y-97703937D01*
X151003937Y-97559774D01*
X151117205Y-97390256D01*
X151195226Y-97201898D01*
X151215880Y-97098061D01*
X159665000Y-97098061D01*
X159665000Y-97301939D01*
X159704774Y-97501898D01*
X159782795Y-97690256D01*
X159896063Y-97859774D01*
X160040226Y-98003937D01*
X160209744Y-98117205D01*
X160398102Y-98195226D01*
X160469797Y-98209487D01*
X160340226Y-98296063D01*
X160196063Y-98440226D01*
X160082795Y-98609744D01*
X160004774Y-98798102D01*
X159965000Y-98998061D01*
X159965000Y-99201939D01*
X160004774Y-99401898D01*
X160082795Y-99590256D01*
X160196063Y-99759774D01*
X160340226Y-99903937D01*
X160509744Y-100017205D01*
X160698102Y-100095226D01*
X160898061Y-100135000D01*
X161101939Y-100135000D01*
X161301898Y-100095226D01*
X161306808Y-100093192D01*
X161304774Y-100098102D01*
X161265000Y-100298061D01*
X161265000Y-100501939D01*
X161304774Y-100701898D01*
X161382795Y-100890256D01*
X161496063Y-101059774D01*
X161640226Y-101203937D01*
X161809744Y-101317205D01*
X161998102Y-101395226D01*
X162198061Y-101435000D01*
X162401939Y-101435000D01*
X162601898Y-101395226D01*
X162790256Y-101317205D01*
X162959774Y-101203937D01*
X163103937Y-101059774D01*
X163217205Y-100890256D01*
X163295226Y-100701898D01*
X163335000Y-100501939D01*
X163335000Y-100298061D01*
X163295226Y-100098102D01*
X163217205Y-99909744D01*
X163103937Y-99740226D01*
X162961772Y-99598061D01*
X163565000Y-99598061D01*
X163565000Y-99801939D01*
X163604774Y-100001898D01*
X163682795Y-100190256D01*
X163796063Y-100359774D01*
X163940226Y-100503937D01*
X164109744Y-100617205D01*
X164298102Y-100695226D01*
X164498061Y-100735000D01*
X164701939Y-100735000D01*
X164901898Y-100695226D01*
X165090256Y-100617205D01*
X165259774Y-100503937D01*
X165403937Y-100359774D01*
X165517205Y-100190256D01*
X165595226Y-100001898D01*
X165635000Y-99801939D01*
X165635000Y-99598061D01*
X165595226Y-99398102D01*
X165517205Y-99209744D01*
X165403937Y-99040226D01*
X165259774Y-98896063D01*
X165090256Y-98782795D01*
X164901898Y-98704774D01*
X164701939Y-98665000D01*
X164498061Y-98665000D01*
X164298102Y-98704774D01*
X164109744Y-98782795D01*
X163940226Y-98896063D01*
X163796063Y-99040226D01*
X163682795Y-99209744D01*
X163604774Y-99398102D01*
X163565000Y-99598061D01*
X162961772Y-99598061D01*
X162959774Y-99596063D01*
X162790256Y-99482795D01*
X162601898Y-99404774D01*
X162401939Y-99365000D01*
X162198061Y-99365000D01*
X161998102Y-99404774D01*
X161993192Y-99406808D01*
X161995226Y-99401898D01*
X162035000Y-99201939D01*
X162035000Y-98998061D01*
X161995226Y-98798102D01*
X161917205Y-98609744D01*
X161803937Y-98440226D01*
X161659774Y-98296063D01*
X161490256Y-98182795D01*
X161301898Y-98104774D01*
X161230203Y-98090513D01*
X161359774Y-98003937D01*
X161503937Y-97859774D01*
X161617205Y-97690256D01*
X161695226Y-97501898D01*
X161735000Y-97301939D01*
X161735000Y-97098061D01*
X161695226Y-96898102D01*
X161653788Y-96798061D01*
X163165000Y-96798061D01*
X163165000Y-97001939D01*
X163204774Y-97201898D01*
X163282795Y-97390256D01*
X163396063Y-97559774D01*
X163540226Y-97703937D01*
X163709744Y-97817205D01*
X163898102Y-97895226D01*
X164098061Y-97935000D01*
X164301939Y-97935000D01*
X164501898Y-97895226D01*
X164690256Y-97817205D01*
X164859774Y-97703937D01*
X165003937Y-97559774D01*
X165117205Y-97390256D01*
X165195226Y-97201898D01*
X165235000Y-97001939D01*
X165235000Y-96974212D01*
X166169500Y-96974212D01*
X166169500Y-97197788D01*
X166213117Y-97417067D01*
X166298676Y-97623624D01*
X166422888Y-97809520D01*
X166580980Y-97967612D01*
X166766876Y-98091824D01*
X166973433Y-98177383D01*
X167192712Y-98221000D01*
X167416288Y-98221000D01*
X167635567Y-98177383D01*
X167842124Y-98091824D01*
X167905165Y-98049701D01*
X167912040Y-98119507D01*
X167991236Y-98380581D01*
X168119843Y-98621188D01*
X168292919Y-98832081D01*
X168503812Y-99005157D01*
X168744419Y-99133764D01*
X169005493Y-99212960D01*
X169208963Y-99233000D01*
X169845037Y-99233000D01*
X170048507Y-99212960D01*
X170309581Y-99133764D01*
X170550188Y-99005157D01*
X170761081Y-98832081D01*
X170934157Y-98621188D01*
X171062764Y-98380581D01*
X171141960Y-98119507D01*
X171168701Y-97848000D01*
X171141960Y-97576493D01*
X171062764Y-97315419D01*
X170934157Y-97074812D01*
X170761081Y-96863919D01*
X170550188Y-96690843D01*
X170309581Y-96562236D01*
X170048507Y-96483040D01*
X169845037Y-96463000D01*
X169208963Y-96463000D01*
X169005493Y-96483040D01*
X168744419Y-96562236D01*
X168503812Y-96690843D01*
X168400070Y-96775982D01*
X168395883Y-96754933D01*
X168310324Y-96548376D01*
X168186112Y-96362480D01*
X168028020Y-96204388D01*
X167842124Y-96080176D01*
X167635567Y-95994617D01*
X167416288Y-95951000D01*
X167192712Y-95951000D01*
X166973433Y-95994617D01*
X166766876Y-96080176D01*
X166580980Y-96204388D01*
X166422888Y-96362480D01*
X166298676Y-96548376D01*
X166213117Y-96754933D01*
X166169500Y-96974212D01*
X165235000Y-96974212D01*
X165235000Y-96798061D01*
X165195226Y-96598102D01*
X165117205Y-96409744D01*
X165003937Y-96240226D01*
X164859774Y-96096063D01*
X164690256Y-95982795D01*
X164501898Y-95904774D01*
X164301939Y-95865000D01*
X164098061Y-95865000D01*
X163898102Y-95904774D01*
X163709744Y-95982795D01*
X163540226Y-96096063D01*
X163396063Y-96240226D01*
X163282795Y-96409744D01*
X163204774Y-96598102D01*
X163165000Y-96798061D01*
X161653788Y-96798061D01*
X161617205Y-96709744D01*
X161503937Y-96540226D01*
X161359774Y-96396063D01*
X161190256Y-96282795D01*
X161001898Y-96204774D01*
X160801939Y-96165000D01*
X160598061Y-96165000D01*
X160398102Y-96204774D01*
X160209744Y-96282795D01*
X160040226Y-96396063D01*
X159896063Y-96540226D01*
X159782795Y-96709744D01*
X159704774Y-96898102D01*
X159665000Y-97098061D01*
X151215880Y-97098061D01*
X151235000Y-97001939D01*
X151235000Y-96798061D01*
X151195226Y-96598102D01*
X151117205Y-96409744D01*
X151003937Y-96240226D01*
X150859774Y-96096063D01*
X150690256Y-95982795D01*
X150501898Y-95904774D01*
X150301939Y-95865000D01*
X150098061Y-95865000D01*
X149898102Y-95904774D01*
X149709744Y-95982795D01*
X149540226Y-96096063D01*
X149396063Y-96240226D01*
X149282795Y-96409744D01*
X149204774Y-96598102D01*
X149165000Y-96798061D01*
X147090099Y-96798061D01*
X147070216Y-96698102D01*
X147040870Y-96627256D01*
X147201898Y-96595226D01*
X147390256Y-96517205D01*
X147559774Y-96403937D01*
X147703937Y-96259774D01*
X147817205Y-96090256D01*
X147895226Y-95901898D01*
X147935000Y-95701939D01*
X147935000Y-95498061D01*
X147895226Y-95298102D01*
X147863983Y-95222675D01*
X148001898Y-95195242D01*
X148190256Y-95117221D01*
X148359774Y-95003953D01*
X148503937Y-94859790D01*
X148617205Y-94690272D01*
X148695226Y-94501914D01*
X148735000Y-94301955D01*
X148735000Y-94198061D01*
X148965000Y-94198061D01*
X148965000Y-94401939D01*
X149004774Y-94601898D01*
X149082795Y-94790256D01*
X149196063Y-94959774D01*
X149340226Y-95103937D01*
X149509744Y-95217205D01*
X149698102Y-95295226D01*
X149898061Y-95335000D01*
X150101939Y-95335000D01*
X150301898Y-95295226D01*
X150490256Y-95217205D01*
X150659774Y-95103937D01*
X150803937Y-94959774D01*
X150917205Y-94790256D01*
X150995226Y-94601898D01*
X151035000Y-94401939D01*
X151035000Y-94198061D01*
X152565000Y-94198061D01*
X152565000Y-94401939D01*
X152604774Y-94601898D01*
X152682795Y-94790256D01*
X152796063Y-94959774D01*
X152940226Y-95103937D01*
X153109744Y-95217205D01*
X153298102Y-95295226D01*
X153498061Y-95335000D01*
X153701939Y-95335000D01*
X153901898Y-95295226D01*
X154090256Y-95217205D01*
X154259774Y-95103937D01*
X154403937Y-94959774D01*
X154517205Y-94790256D01*
X154595226Y-94601898D01*
X154635000Y-94401939D01*
X154635000Y-94198061D01*
X154595226Y-93998102D01*
X154517205Y-93809744D01*
X154403937Y-93640226D01*
X154259774Y-93496063D01*
X154090256Y-93382795D01*
X153901898Y-93304774D01*
X153701939Y-93265000D01*
X153498061Y-93265000D01*
X153298102Y-93304774D01*
X153109744Y-93382795D01*
X152940226Y-93496063D01*
X152796063Y-93640226D01*
X152682795Y-93809744D01*
X152604774Y-93998102D01*
X152565000Y-94198061D01*
X151035000Y-94198061D01*
X150995226Y-93998102D01*
X150917205Y-93809744D01*
X150803937Y-93640226D01*
X150659774Y-93496063D01*
X150490256Y-93382795D01*
X150301898Y-93304774D01*
X150101939Y-93265000D01*
X149898061Y-93265000D01*
X149698102Y-93304774D01*
X149509744Y-93382795D01*
X149340226Y-93496063D01*
X149196063Y-93640226D01*
X149082795Y-93809744D01*
X149004774Y-93998102D01*
X148965000Y-94198061D01*
X148735000Y-94198061D01*
X148735000Y-94098077D01*
X148695226Y-93898118D01*
X148617205Y-93709760D01*
X148503937Y-93540242D01*
X148359774Y-93396079D01*
X148190256Y-93282811D01*
X148001898Y-93204790D01*
X147801939Y-93165016D01*
X147598061Y-93165016D01*
X147398102Y-93204790D01*
X147209744Y-93282811D01*
X147040226Y-93396079D01*
X146896063Y-93540242D01*
X146782795Y-93709760D01*
X146704774Y-93898118D01*
X146665000Y-94098077D01*
X146665000Y-94301955D01*
X146704774Y-94501914D01*
X146736017Y-94577341D01*
X146598102Y-94604774D01*
X146409744Y-94682795D01*
X146240226Y-94796063D01*
X146096063Y-94940226D01*
X145982795Y-95109744D01*
X145925204Y-95248781D01*
X145895232Y-95098102D01*
X145817211Y-94909744D01*
X145703943Y-94740226D01*
X145559780Y-94596063D01*
X145390262Y-94482795D01*
X145201904Y-94404774D01*
X145001945Y-94365000D01*
X144798067Y-94365000D01*
X144598108Y-94404774D01*
X144409750Y-94482795D01*
X144240232Y-94596063D01*
X144096069Y-94740226D01*
X143982801Y-94909744D01*
X143904780Y-95098102D01*
X143865006Y-95298061D01*
X105685000Y-95298061D01*
X105685000Y-91698061D01*
X115165000Y-91698061D01*
X115165000Y-91901939D01*
X115204774Y-92101898D01*
X115282795Y-92290256D01*
X115396063Y-92459774D01*
X115540226Y-92603937D01*
X115709744Y-92717205D01*
X115898102Y-92795226D01*
X116098061Y-92835000D01*
X116301939Y-92835000D01*
X116501898Y-92795226D01*
X116690256Y-92717205D01*
X116859774Y-92603937D01*
X117003937Y-92459774D01*
X117117205Y-92290256D01*
X117195226Y-92101898D01*
X117235000Y-91901939D01*
X117235000Y-91698061D01*
X117195226Y-91498102D01*
X117153788Y-91398061D01*
X134765000Y-91398061D01*
X134765000Y-91601939D01*
X134804774Y-91801898D01*
X134882795Y-91990256D01*
X134996063Y-92159774D01*
X135140226Y-92303937D01*
X135309744Y-92417205D01*
X135498102Y-92495226D01*
X135698061Y-92535000D01*
X135901939Y-92535000D01*
X136101898Y-92495226D01*
X136290256Y-92417205D01*
X136459774Y-92303937D01*
X136603937Y-92159774D01*
X136717205Y-91990256D01*
X136755393Y-91898061D01*
X145165000Y-91898061D01*
X145165000Y-92101939D01*
X145204774Y-92301898D01*
X145282795Y-92490256D01*
X145396063Y-92659774D01*
X145540226Y-92803937D01*
X145709744Y-92917205D01*
X145898102Y-92995226D01*
X146098061Y-93035000D01*
X146301939Y-93035000D01*
X146501898Y-92995226D01*
X146690256Y-92917205D01*
X146859774Y-92803937D01*
X147003937Y-92659774D01*
X147117205Y-92490256D01*
X147195226Y-92301898D01*
X147235000Y-92101939D01*
X147235000Y-92098061D01*
X151765000Y-92098061D01*
X151765000Y-92301939D01*
X151804774Y-92501898D01*
X151882795Y-92690256D01*
X151996063Y-92859774D01*
X152140226Y-93003937D01*
X152309744Y-93117205D01*
X152498102Y-93195226D01*
X152698061Y-93235000D01*
X152901939Y-93235000D01*
X153087645Y-93198061D01*
X157265000Y-93198061D01*
X157265000Y-93401939D01*
X157304774Y-93601898D01*
X157382795Y-93790256D01*
X157496063Y-93959774D01*
X157640226Y-94103937D01*
X157809744Y-94217205D01*
X157998102Y-94295226D01*
X158198061Y-94335000D01*
X158401939Y-94335000D01*
X158601898Y-94295226D01*
X158790256Y-94217205D01*
X158959774Y-94103937D01*
X159103937Y-93959774D01*
X159145172Y-93898061D01*
X163065000Y-93898061D01*
X163065000Y-94101939D01*
X163104774Y-94301898D01*
X163182795Y-94490256D01*
X163296063Y-94659774D01*
X163440226Y-94803937D01*
X163609744Y-94917205D01*
X163798102Y-94995226D01*
X163998061Y-95035000D01*
X164201939Y-95035000D01*
X164401898Y-94995226D01*
X164590256Y-94917205D01*
X164759774Y-94803937D01*
X164903937Y-94659774D01*
X165017205Y-94490256D01*
X165095226Y-94301898D01*
X165135000Y-94101939D01*
X165135000Y-93898061D01*
X165095226Y-93698102D01*
X165017205Y-93509744D01*
X164903937Y-93340226D01*
X164759774Y-93196063D01*
X164590256Y-93082795D01*
X164401898Y-93004774D01*
X164201939Y-92965000D01*
X163998061Y-92965000D01*
X163798102Y-93004774D01*
X163609744Y-93082795D01*
X163440226Y-93196063D01*
X163296063Y-93340226D01*
X163182795Y-93509744D01*
X163104774Y-93698102D01*
X163065000Y-93898061D01*
X159145172Y-93898061D01*
X159217205Y-93790256D01*
X159295226Y-93601898D01*
X159335000Y-93401939D01*
X159335000Y-93198061D01*
X159295226Y-92998102D01*
X159217205Y-92809744D01*
X159103937Y-92640226D01*
X158959774Y-92496063D01*
X158819316Y-92402212D01*
X166169500Y-92402212D01*
X166169500Y-92625788D01*
X166213117Y-92845067D01*
X166298676Y-93051624D01*
X166422888Y-93237520D01*
X166580980Y-93395612D01*
X166766876Y-93519824D01*
X166973433Y-93605383D01*
X167192712Y-93649000D01*
X167416288Y-93649000D01*
X167635567Y-93605383D01*
X167842124Y-93519824D01*
X168028020Y-93395612D01*
X168186112Y-93237520D01*
X168310324Y-93051624D01*
X168395883Y-92845067D01*
X168400070Y-92824018D01*
X168503812Y-92909157D01*
X168744419Y-93037764D01*
X169005493Y-93116960D01*
X169208963Y-93137000D01*
X169845037Y-93137000D01*
X170048507Y-93116960D01*
X170309581Y-93037764D01*
X170550188Y-92909157D01*
X170761081Y-92736081D01*
X170934157Y-92525188D01*
X171062764Y-92284581D01*
X171141960Y-92023507D01*
X171168701Y-91752000D01*
X171141960Y-91480493D01*
X171062764Y-91219419D01*
X170934157Y-90978812D01*
X170761081Y-90767919D01*
X170550188Y-90594843D01*
X170309581Y-90466236D01*
X170048507Y-90387040D01*
X169845037Y-90367000D01*
X169208963Y-90367000D01*
X169005493Y-90387040D01*
X168744419Y-90466236D01*
X168503812Y-90594843D01*
X168292919Y-90767919D01*
X168119843Y-90978812D01*
X167991236Y-91219419D01*
X167912040Y-91480493D01*
X167905165Y-91550299D01*
X167842124Y-91508176D01*
X167635567Y-91422617D01*
X167416288Y-91379000D01*
X167192712Y-91379000D01*
X166973433Y-91422617D01*
X166766876Y-91508176D01*
X166580980Y-91632388D01*
X166422888Y-91790480D01*
X166298676Y-91976376D01*
X166213117Y-92182933D01*
X166169500Y-92402212D01*
X158819316Y-92402212D01*
X158790256Y-92382795D01*
X158601898Y-92304774D01*
X158401939Y-92265000D01*
X158198061Y-92265000D01*
X157998102Y-92304774D01*
X157809744Y-92382795D01*
X157640226Y-92496063D01*
X157496063Y-92640226D01*
X157382795Y-92809744D01*
X157304774Y-92998102D01*
X157265000Y-93198061D01*
X153087645Y-93198061D01*
X153101898Y-93195226D01*
X153290256Y-93117205D01*
X153459774Y-93003937D01*
X153603937Y-92859774D01*
X153717205Y-92690256D01*
X153795226Y-92501898D01*
X153835000Y-92301939D01*
X153835000Y-92098061D01*
X153795226Y-91898102D01*
X153717205Y-91709744D01*
X153603937Y-91540226D01*
X153459774Y-91396063D01*
X153290256Y-91282795D01*
X153101898Y-91204774D01*
X152901939Y-91165000D01*
X152698061Y-91165000D01*
X152498102Y-91204774D01*
X152309744Y-91282795D01*
X152140226Y-91396063D01*
X151996063Y-91540226D01*
X151882795Y-91709744D01*
X151804774Y-91898102D01*
X151765000Y-92098061D01*
X147235000Y-92098061D01*
X147235000Y-91898061D01*
X147195226Y-91698102D01*
X147117205Y-91509744D01*
X147003937Y-91340226D01*
X146859774Y-91196063D01*
X146690256Y-91082795D01*
X146501898Y-91004774D01*
X146301939Y-90965000D01*
X146098061Y-90965000D01*
X145898102Y-91004774D01*
X145709744Y-91082795D01*
X145540226Y-91196063D01*
X145396063Y-91340226D01*
X145282795Y-91509744D01*
X145204774Y-91698102D01*
X145165000Y-91898061D01*
X136755393Y-91898061D01*
X136795226Y-91801898D01*
X136835000Y-91601939D01*
X136835000Y-91398061D01*
X136795226Y-91198102D01*
X136717205Y-91009744D01*
X136603937Y-90840226D01*
X136459774Y-90696063D01*
X136290256Y-90582795D01*
X136101898Y-90504774D01*
X135901939Y-90465000D01*
X135698061Y-90465000D01*
X135498102Y-90504774D01*
X135309744Y-90582795D01*
X135140226Y-90696063D01*
X134996063Y-90840226D01*
X134882795Y-91009744D01*
X134804774Y-91198102D01*
X134765000Y-91398061D01*
X117153788Y-91398061D01*
X117117205Y-91309744D01*
X117003937Y-91140226D01*
X116859774Y-90996063D01*
X116690256Y-90882795D01*
X116501898Y-90804774D01*
X116301939Y-90765000D01*
X116098061Y-90765000D01*
X115898102Y-90804774D01*
X115709744Y-90882795D01*
X115540226Y-90996063D01*
X115396063Y-91140226D01*
X115282795Y-91309744D01*
X115204774Y-91498102D01*
X115165000Y-91698061D01*
X105685000Y-91698061D01*
X105685000Y-88898061D01*
X134765000Y-88898061D01*
X134765000Y-89101939D01*
X134804774Y-89301898D01*
X134882795Y-89490256D01*
X134996063Y-89659774D01*
X135140226Y-89803937D01*
X135309744Y-89917205D01*
X135498102Y-89995226D01*
X135698061Y-90035000D01*
X135901939Y-90035000D01*
X136101898Y-89995226D01*
X136290256Y-89917205D01*
X136459774Y-89803937D01*
X136603937Y-89659774D01*
X136717205Y-89490256D01*
X136795226Y-89301898D01*
X136835000Y-89101939D01*
X136835000Y-88898061D01*
X136795226Y-88698102D01*
X136717205Y-88509744D01*
X136603937Y-88340226D01*
X136459774Y-88196063D01*
X136290256Y-88082795D01*
X136101898Y-88004774D01*
X135901939Y-87965000D01*
X135698061Y-87965000D01*
X135498102Y-88004774D01*
X135309744Y-88082795D01*
X135140226Y-88196063D01*
X134996063Y-88340226D01*
X134882795Y-88509744D01*
X134804774Y-88698102D01*
X134765000Y-88898061D01*
X105685000Y-88898061D01*
X105685000Y-86998061D01*
X115165000Y-86998061D01*
X115165000Y-87201939D01*
X115204774Y-87401898D01*
X115282795Y-87590256D01*
X115396063Y-87759774D01*
X115540226Y-87903937D01*
X115709744Y-88017205D01*
X115898102Y-88095226D01*
X116098061Y-88135000D01*
X116301939Y-88135000D01*
X116501898Y-88095226D01*
X116690256Y-88017205D01*
X116859774Y-87903937D01*
X117003937Y-87759774D01*
X117117205Y-87590256D01*
X117195226Y-87401898D01*
X117195989Y-87398061D01*
X120065000Y-87398061D01*
X120065000Y-87601939D01*
X120104774Y-87801898D01*
X120182795Y-87990256D01*
X120296063Y-88159774D01*
X120440226Y-88303937D01*
X120609744Y-88417205D01*
X120798102Y-88495226D01*
X120998061Y-88535000D01*
X121201939Y-88535000D01*
X121401898Y-88495226D01*
X121590256Y-88417205D01*
X121759774Y-88303937D01*
X121903937Y-88159774D01*
X122017205Y-87990256D01*
X122095226Y-87801898D01*
X122135000Y-87601939D01*
X122135000Y-87598061D01*
X129165000Y-87598061D01*
X129165000Y-87801939D01*
X129204774Y-88001898D01*
X129282795Y-88190256D01*
X129396063Y-88359774D01*
X129540226Y-88503937D01*
X129709744Y-88617205D01*
X129898102Y-88695226D01*
X130098061Y-88735000D01*
X130301939Y-88735000D01*
X130501898Y-88695226D01*
X130690256Y-88617205D01*
X130859774Y-88503937D01*
X131003937Y-88359774D01*
X131117205Y-88190256D01*
X131195226Y-88001898D01*
X131235000Y-87801939D01*
X131235000Y-87598061D01*
X131195226Y-87398102D01*
X131117205Y-87209744D01*
X131003937Y-87040226D01*
X130859774Y-86896063D01*
X130690256Y-86782795D01*
X130501898Y-86704774D01*
X130301939Y-86665000D01*
X130098061Y-86665000D01*
X129898102Y-86704774D01*
X129709744Y-86782795D01*
X129540226Y-86896063D01*
X129396063Y-87040226D01*
X129282795Y-87209744D01*
X129204774Y-87398102D01*
X129165000Y-87598061D01*
X122135000Y-87598061D01*
X122135000Y-87398061D01*
X122095226Y-87198102D01*
X122017205Y-87009744D01*
X121903937Y-86840226D01*
X121759774Y-86696063D01*
X121590256Y-86582795D01*
X121401898Y-86504774D01*
X121201939Y-86465000D01*
X120998061Y-86465000D01*
X120798102Y-86504774D01*
X120609744Y-86582795D01*
X120440226Y-86696063D01*
X120296063Y-86840226D01*
X120182795Y-87009744D01*
X120104774Y-87198102D01*
X120065000Y-87398061D01*
X117195989Y-87398061D01*
X117235000Y-87201939D01*
X117235000Y-86998061D01*
X117195226Y-86798102D01*
X117117205Y-86609744D01*
X117003937Y-86440226D01*
X116961772Y-86398061D01*
X124565000Y-86398061D01*
X124565000Y-86601939D01*
X124604774Y-86801898D01*
X124682795Y-86990256D01*
X124796063Y-87159774D01*
X124940226Y-87303937D01*
X125109744Y-87417205D01*
X125298102Y-87495226D01*
X125498061Y-87535000D01*
X125701939Y-87535000D01*
X125901898Y-87495226D01*
X126090256Y-87417205D01*
X126259774Y-87303937D01*
X126403937Y-87159774D01*
X126517205Y-86990256D01*
X126595226Y-86801898D01*
X126635000Y-86601939D01*
X126635000Y-86398061D01*
X126615109Y-86298061D01*
X134665000Y-86298061D01*
X134665000Y-86501939D01*
X134704774Y-86701898D01*
X134782795Y-86890256D01*
X134896063Y-87059774D01*
X135040226Y-87203937D01*
X135209744Y-87317205D01*
X135398102Y-87395226D01*
X135598061Y-87435000D01*
X135801939Y-87435000D01*
X136001898Y-87395226D01*
X136190256Y-87317205D01*
X136359774Y-87203937D01*
X136503937Y-87059774D01*
X136611989Y-86898061D01*
X137365000Y-86898061D01*
X137365000Y-87101939D01*
X137404774Y-87301898D01*
X137482795Y-87490256D01*
X137596063Y-87659774D01*
X137740226Y-87803937D01*
X137909744Y-87917205D01*
X138098102Y-87995226D01*
X138298061Y-88035000D01*
X138501939Y-88035000D01*
X138687645Y-87998061D01*
X154965000Y-87998061D01*
X154965000Y-88201939D01*
X155004774Y-88401898D01*
X155082795Y-88590256D01*
X155196063Y-88759774D01*
X155340226Y-88903937D01*
X155509744Y-89017205D01*
X155698102Y-89095226D01*
X155898061Y-89135000D01*
X156101939Y-89135000D01*
X156301898Y-89095226D01*
X156490256Y-89017205D01*
X156659774Y-88903937D01*
X156803937Y-88759774D01*
X156917205Y-88590256D01*
X156995226Y-88401898D01*
X157035000Y-88201939D01*
X157035000Y-87998061D01*
X156995226Y-87798102D01*
X156917205Y-87609744D01*
X156803937Y-87440226D01*
X156659774Y-87296063D01*
X156490256Y-87182795D01*
X156301898Y-87104774D01*
X156101939Y-87065000D01*
X155898061Y-87065000D01*
X155698102Y-87104774D01*
X155509744Y-87182795D01*
X155340226Y-87296063D01*
X155196063Y-87440226D01*
X155082795Y-87609744D01*
X155004774Y-87798102D01*
X154965000Y-87998061D01*
X138687645Y-87998061D01*
X138701898Y-87995226D01*
X138890256Y-87917205D01*
X139059774Y-87803937D01*
X139203937Y-87659774D01*
X139317205Y-87490256D01*
X139395226Y-87301898D01*
X139435000Y-87101939D01*
X139435000Y-86898061D01*
X139395226Y-86698102D01*
X139317205Y-86509744D01*
X139203937Y-86340226D01*
X139059774Y-86196063D01*
X138890256Y-86082795D01*
X138701898Y-86004774D01*
X138501939Y-85965000D01*
X138298061Y-85965000D01*
X138098102Y-86004774D01*
X137909744Y-86082795D01*
X137740226Y-86196063D01*
X137596063Y-86340226D01*
X137482795Y-86509744D01*
X137404774Y-86698102D01*
X137365000Y-86898061D01*
X136611989Y-86898061D01*
X136617205Y-86890256D01*
X136695226Y-86701898D01*
X136735000Y-86501939D01*
X136735000Y-86298061D01*
X136695226Y-86098102D01*
X136617205Y-85909744D01*
X136503937Y-85740226D01*
X136359774Y-85596063D01*
X136213104Y-85498061D01*
X156365000Y-85498061D01*
X156365000Y-85701939D01*
X156404774Y-85901898D01*
X156482795Y-86090256D01*
X156596063Y-86259774D01*
X156740226Y-86403937D01*
X156909744Y-86517205D01*
X157098102Y-86595226D01*
X157298061Y-86635000D01*
X157501939Y-86635000D01*
X157701898Y-86595226D01*
X157890256Y-86517205D01*
X158059774Y-86403937D01*
X158203937Y-86259774D01*
X158317205Y-86090256D01*
X158395226Y-85901898D01*
X158435000Y-85701939D01*
X158435000Y-85498061D01*
X159190010Y-85498061D01*
X159190010Y-85701939D01*
X159229784Y-85901898D01*
X159307805Y-86090256D01*
X159421073Y-86259774D01*
X159565236Y-86403937D01*
X159734754Y-86517205D01*
X159923112Y-86595226D01*
X160123071Y-86635000D01*
X160326949Y-86635000D01*
X160526908Y-86595226D01*
X160699691Y-86523656D01*
X160665000Y-86698061D01*
X160665000Y-86901939D01*
X160704774Y-87101898D01*
X160782795Y-87290256D01*
X160896063Y-87459774D01*
X161040226Y-87603937D01*
X161209744Y-87717205D01*
X161398102Y-87795226D01*
X161598061Y-87835000D01*
X161801939Y-87835000D01*
X162001898Y-87795226D01*
X162190256Y-87717205D01*
X162359774Y-87603937D01*
X162503937Y-87459774D01*
X162617205Y-87290256D01*
X162695226Y-87101898D01*
X162735000Y-86901939D01*
X162735000Y-86698061D01*
X162695226Y-86498102D01*
X162617205Y-86309744D01*
X162503937Y-86140226D01*
X162359774Y-85996063D01*
X162190256Y-85882795D01*
X162001898Y-85804774D01*
X161801939Y-85765000D01*
X161598061Y-85765000D01*
X161398102Y-85804774D01*
X161225319Y-85876344D01*
X161260010Y-85701939D01*
X161260010Y-85498061D01*
X161220236Y-85298102D01*
X161142215Y-85109744D01*
X161082523Y-85020408D01*
X161090256Y-85017205D01*
X161259774Y-84903937D01*
X161403937Y-84759774D01*
X161517205Y-84590256D01*
X161595226Y-84401898D01*
X161635000Y-84201939D01*
X161635000Y-83998061D01*
X161595226Y-83798102D01*
X161517205Y-83609744D01*
X161509399Y-83598061D01*
X163865000Y-83598061D01*
X163865000Y-83801939D01*
X163904774Y-84001898D01*
X163982795Y-84190256D01*
X164096063Y-84359774D01*
X164240226Y-84503937D01*
X164409744Y-84617205D01*
X164598102Y-84695226D01*
X164798061Y-84735000D01*
X165001939Y-84735000D01*
X165201898Y-84695226D01*
X165390256Y-84617205D01*
X165559774Y-84503937D01*
X165703937Y-84359774D01*
X165817205Y-84190256D01*
X165895226Y-84001898D01*
X165935000Y-83801939D01*
X165935000Y-83598061D01*
X165895226Y-83398102D01*
X165817205Y-83209744D01*
X165703937Y-83040226D01*
X165559774Y-82896063D01*
X165390256Y-82782795D01*
X165201898Y-82704774D01*
X165001939Y-82665000D01*
X164798061Y-82665000D01*
X164598102Y-82704774D01*
X164409744Y-82782795D01*
X164240226Y-82896063D01*
X164096063Y-83040226D01*
X163982795Y-83209744D01*
X163904774Y-83398102D01*
X163865000Y-83598061D01*
X161509399Y-83598061D01*
X161403937Y-83440226D01*
X161259774Y-83296063D01*
X161090256Y-83182795D01*
X160901898Y-83104774D01*
X160701939Y-83065000D01*
X160498061Y-83065000D01*
X160298102Y-83104774D01*
X160109744Y-83182795D01*
X159940226Y-83296063D01*
X159796063Y-83440226D01*
X159682795Y-83609744D01*
X159604774Y-83798102D01*
X159565000Y-83998061D01*
X159565000Y-84201939D01*
X159604774Y-84401898D01*
X159682795Y-84590256D01*
X159742487Y-84679592D01*
X159734754Y-84682795D01*
X159565236Y-84796063D01*
X159421073Y-84940226D01*
X159307805Y-85109744D01*
X159229784Y-85298102D01*
X159190010Y-85498061D01*
X158435000Y-85498061D01*
X158395226Y-85298102D01*
X158317205Y-85109744D01*
X158203937Y-84940226D01*
X158059774Y-84796063D01*
X157890256Y-84682795D01*
X157701898Y-84604774D01*
X157501939Y-84565000D01*
X157298061Y-84565000D01*
X157098102Y-84604774D01*
X156909744Y-84682795D01*
X156740226Y-84796063D01*
X156596063Y-84940226D01*
X156482795Y-85109744D01*
X156404774Y-85298102D01*
X156365000Y-85498061D01*
X136213104Y-85498061D01*
X136190256Y-85482795D01*
X136001898Y-85404774D01*
X135801939Y-85365000D01*
X135598061Y-85365000D01*
X135398102Y-85404774D01*
X135209744Y-85482795D01*
X135040226Y-85596063D01*
X134896063Y-85740226D01*
X134782795Y-85909744D01*
X134704774Y-86098102D01*
X134665000Y-86298061D01*
X126615109Y-86298061D01*
X126595226Y-86198102D01*
X126517205Y-86009744D01*
X126403937Y-85840226D01*
X126259774Y-85696063D01*
X126090256Y-85582795D01*
X125901898Y-85504774D01*
X125701939Y-85465000D01*
X125498061Y-85465000D01*
X125298102Y-85504774D01*
X125109744Y-85582795D01*
X124940226Y-85696063D01*
X124796063Y-85840226D01*
X124682795Y-86009744D01*
X124604774Y-86198102D01*
X124565000Y-86398061D01*
X116961772Y-86398061D01*
X116859774Y-86296063D01*
X116690256Y-86182795D01*
X116501898Y-86104774D01*
X116301939Y-86065000D01*
X116098061Y-86065000D01*
X115898102Y-86104774D01*
X115709744Y-86182795D01*
X115540226Y-86296063D01*
X115396063Y-86440226D01*
X115282795Y-86609744D01*
X115204774Y-86798102D01*
X115165000Y-86998061D01*
X105685000Y-86998061D01*
X105685000Y-84150000D01*
X112011928Y-84150000D01*
X112011928Y-85850000D01*
X112024188Y-85974482D01*
X112060498Y-86094180D01*
X112119463Y-86204494D01*
X112198815Y-86301185D01*
X112295506Y-86380537D01*
X112405820Y-86439502D01*
X112525518Y-86475812D01*
X112650000Y-86488072D01*
X114350000Y-86488072D01*
X114474482Y-86475812D01*
X114594180Y-86439502D01*
X114704494Y-86380537D01*
X114801185Y-86301185D01*
X114880537Y-86204494D01*
X114939502Y-86094180D01*
X114975812Y-85974482D01*
X114988072Y-85850000D01*
X114988072Y-84198061D01*
X129665000Y-84198061D01*
X129665000Y-84401939D01*
X129704774Y-84601898D01*
X129782795Y-84790256D01*
X129896063Y-84959774D01*
X130040226Y-85103937D01*
X130209744Y-85217205D01*
X130398102Y-85295226D01*
X130598061Y-85335000D01*
X130801939Y-85335000D01*
X131001898Y-85295226D01*
X131190256Y-85217205D01*
X131359774Y-85103937D01*
X131503937Y-84959774D01*
X131617205Y-84790256D01*
X131695226Y-84601898D01*
X131735000Y-84401939D01*
X131735000Y-84198061D01*
X134765000Y-84198061D01*
X134765000Y-84401939D01*
X134804774Y-84601898D01*
X134882795Y-84790256D01*
X134996063Y-84959774D01*
X135140226Y-85103937D01*
X135309744Y-85217205D01*
X135498102Y-85295226D01*
X135698061Y-85335000D01*
X135901939Y-85335000D01*
X136101898Y-85295226D01*
X136290256Y-85217205D01*
X136459774Y-85103937D01*
X136603937Y-84959774D01*
X136717205Y-84790256D01*
X136795226Y-84601898D01*
X136835000Y-84401939D01*
X136835000Y-84198061D01*
X136795226Y-83998102D01*
X136717205Y-83809744D01*
X136603937Y-83640226D01*
X136459774Y-83496063D01*
X136290256Y-83382795D01*
X136101898Y-83304774D01*
X135901939Y-83265000D01*
X135698061Y-83265000D01*
X135498102Y-83304774D01*
X135309744Y-83382795D01*
X135140226Y-83496063D01*
X134996063Y-83640226D01*
X134882795Y-83809744D01*
X134804774Y-83998102D01*
X134765000Y-84198061D01*
X131735000Y-84198061D01*
X131695226Y-83998102D01*
X131617205Y-83809744D01*
X131503937Y-83640226D01*
X131359774Y-83496063D01*
X131190256Y-83382795D01*
X131001898Y-83304774D01*
X130801939Y-83265000D01*
X130598061Y-83265000D01*
X130398102Y-83304774D01*
X130209744Y-83382795D01*
X130040226Y-83496063D01*
X129896063Y-83640226D01*
X129782795Y-83809744D01*
X129704774Y-83998102D01*
X129665000Y-84198061D01*
X114988072Y-84198061D01*
X114988072Y-84150000D01*
X114975812Y-84025518D01*
X114939502Y-83905820D01*
X114880537Y-83795506D01*
X114801185Y-83698815D01*
X114704494Y-83619463D01*
X114594180Y-83560498D01*
X114513534Y-83536034D01*
X114597588Y-83460269D01*
X114771641Y-83226920D01*
X114896825Y-82964099D01*
X114932021Y-82848061D01*
X120065000Y-82848061D01*
X120065000Y-83051939D01*
X120104774Y-83251898D01*
X120182795Y-83440256D01*
X120296063Y-83609774D01*
X120440226Y-83753937D01*
X120609744Y-83867205D01*
X120798102Y-83945226D01*
X120998061Y-83985000D01*
X121201939Y-83985000D01*
X121401898Y-83945226D01*
X121590256Y-83867205D01*
X121759774Y-83753937D01*
X121903937Y-83609774D01*
X122017205Y-83440256D01*
X122095226Y-83251898D01*
X122135000Y-83051939D01*
X122135000Y-82848061D01*
X122095226Y-82648102D01*
X122074499Y-82598061D01*
X122365000Y-82598061D01*
X122365000Y-82801939D01*
X122404774Y-83001898D01*
X122482795Y-83190256D01*
X122596063Y-83359774D01*
X122740226Y-83503937D01*
X122909744Y-83617205D01*
X123098102Y-83695226D01*
X123298061Y-83735000D01*
X123501939Y-83735000D01*
X123701898Y-83695226D01*
X123890256Y-83617205D01*
X124059774Y-83503937D01*
X124203937Y-83359774D01*
X124317205Y-83190256D01*
X124395226Y-83001898D01*
X124435000Y-82801939D01*
X124435000Y-82598061D01*
X124415109Y-82498061D01*
X127265000Y-82498061D01*
X127265000Y-82701939D01*
X127304774Y-82901898D01*
X127382795Y-83090256D01*
X127496063Y-83259774D01*
X127640226Y-83403937D01*
X127809744Y-83517205D01*
X127998102Y-83595226D01*
X128198061Y-83635000D01*
X128401939Y-83635000D01*
X128601898Y-83595226D01*
X128790256Y-83517205D01*
X128959774Y-83403937D01*
X129103937Y-83259774D01*
X129217205Y-83090256D01*
X129295226Y-82901898D01*
X129335000Y-82701939D01*
X129335000Y-82498061D01*
X129295226Y-82298102D01*
X129217205Y-82109744D01*
X129103937Y-81940226D01*
X129061772Y-81898061D01*
X130065000Y-81898061D01*
X130065000Y-82101939D01*
X130104774Y-82301898D01*
X130182795Y-82490256D01*
X130296063Y-82659774D01*
X130440226Y-82803937D01*
X130609744Y-82917205D01*
X130798102Y-82995226D01*
X130998061Y-83035000D01*
X131201939Y-83035000D01*
X131401898Y-82995226D01*
X131590256Y-82917205D01*
X131759774Y-82803937D01*
X131903937Y-82659774D01*
X132017205Y-82490256D01*
X132055393Y-82398061D01*
X137465000Y-82398061D01*
X137465000Y-82601939D01*
X137504774Y-82801898D01*
X137582795Y-82990256D01*
X137696063Y-83159774D01*
X137840226Y-83303937D01*
X138009744Y-83417205D01*
X138198102Y-83495226D01*
X138398061Y-83535000D01*
X138601939Y-83535000D01*
X138801898Y-83495226D01*
X138990256Y-83417205D01*
X139159774Y-83303937D01*
X139303937Y-83159774D01*
X139417205Y-82990256D01*
X139495226Y-82801898D01*
X139535000Y-82601939D01*
X139535000Y-82398061D01*
X139495226Y-82198102D01*
X139417205Y-82009744D01*
X139303937Y-81840226D01*
X139159774Y-81696063D01*
X138990256Y-81582795D01*
X138801898Y-81504774D01*
X138601939Y-81465000D01*
X138398061Y-81465000D01*
X138198102Y-81504774D01*
X138009744Y-81582795D01*
X137840226Y-81696063D01*
X137696063Y-81840226D01*
X137582795Y-82009744D01*
X137504774Y-82198102D01*
X137465000Y-82398061D01*
X132055393Y-82398061D01*
X132095226Y-82301898D01*
X132135000Y-82101939D01*
X132135000Y-81898061D01*
X132095226Y-81698102D01*
X132017205Y-81509744D01*
X131903937Y-81340226D01*
X131759774Y-81196063D01*
X131590256Y-81082795D01*
X131401898Y-81004774D01*
X131201939Y-80965000D01*
X130998061Y-80965000D01*
X130798102Y-81004774D01*
X130609744Y-81082795D01*
X130440226Y-81196063D01*
X130296063Y-81340226D01*
X130182795Y-81509744D01*
X130104774Y-81698102D01*
X130065000Y-81898061D01*
X129061772Y-81898061D01*
X128959774Y-81796063D01*
X128790256Y-81682795D01*
X128601898Y-81604774D01*
X128401939Y-81565000D01*
X128198061Y-81565000D01*
X127998102Y-81604774D01*
X127809744Y-81682795D01*
X127640226Y-81796063D01*
X127496063Y-81940226D01*
X127382795Y-82109744D01*
X127304774Y-82298102D01*
X127265000Y-82498061D01*
X124415109Y-82498061D01*
X124395226Y-82398102D01*
X124317205Y-82209744D01*
X124203937Y-82040226D01*
X124059774Y-81896063D01*
X123890256Y-81782795D01*
X123701898Y-81704774D01*
X123501939Y-81665000D01*
X123298061Y-81665000D01*
X123098102Y-81704774D01*
X122909744Y-81782795D01*
X122740226Y-81896063D01*
X122596063Y-82040226D01*
X122482795Y-82209744D01*
X122404774Y-82398102D01*
X122365000Y-82598061D01*
X122074499Y-82598061D01*
X122017205Y-82459744D01*
X121903937Y-82290226D01*
X121759774Y-82146063D01*
X121590256Y-82032795D01*
X121401898Y-81954774D01*
X121201939Y-81915000D01*
X120998061Y-81915000D01*
X120798102Y-81954774D01*
X120609744Y-82032795D01*
X120440226Y-82146063D01*
X120296063Y-82290226D01*
X120182795Y-82459744D01*
X120104774Y-82648102D01*
X120065000Y-82848061D01*
X114932021Y-82848061D01*
X114941476Y-82816890D01*
X114820155Y-82587000D01*
X113627000Y-82587000D01*
X113627000Y-82607000D01*
X113373000Y-82607000D01*
X113373000Y-82587000D01*
X112179845Y-82587000D01*
X112058524Y-82816890D01*
X112103175Y-82964099D01*
X112228359Y-83226920D01*
X112402412Y-83460269D01*
X112486466Y-83536034D01*
X112405820Y-83560498D01*
X112295506Y-83619463D01*
X112198815Y-83698815D01*
X112119463Y-83795506D01*
X112060498Y-83905820D01*
X112024188Y-84025518D01*
X112011928Y-84150000D01*
X105685000Y-84150000D01*
X105685000Y-82103110D01*
X112058524Y-82103110D01*
X112179845Y-82333000D01*
X113373000Y-82333000D01*
X113373000Y-81139186D01*
X113627000Y-81139186D01*
X113627000Y-82333000D01*
X114820155Y-82333000D01*
X114941476Y-82103110D01*
X114896825Y-81955901D01*
X114771641Y-81693080D01*
X114597588Y-81459731D01*
X114381355Y-81264822D01*
X114131252Y-81115843D01*
X113856891Y-81018519D01*
X113627000Y-81139186D01*
X113373000Y-81139186D01*
X113143109Y-81018519D01*
X112868748Y-81115843D01*
X112618645Y-81264822D01*
X112402412Y-81459731D01*
X112228359Y-81693080D01*
X112103175Y-81955901D01*
X112058524Y-82103110D01*
X105685000Y-82103110D01*
X105685000Y-79898061D01*
X121365000Y-79898061D01*
X121365000Y-80101939D01*
X121404774Y-80301898D01*
X121482795Y-80490256D01*
X121596063Y-80659774D01*
X121740226Y-80803937D01*
X121909744Y-80917205D01*
X122098102Y-80995226D01*
X122298061Y-81035000D01*
X122501939Y-81035000D01*
X122701898Y-80995226D01*
X122890256Y-80917205D01*
X122918907Y-80898061D01*
X160765000Y-80898061D01*
X160765000Y-81101939D01*
X160804774Y-81301898D01*
X160882795Y-81490256D01*
X160996063Y-81659774D01*
X161140226Y-81803937D01*
X161309744Y-81917205D01*
X161498102Y-81995226D01*
X161698061Y-82035000D01*
X161901939Y-82035000D01*
X162101898Y-81995226D01*
X162290256Y-81917205D01*
X162459774Y-81803937D01*
X162603937Y-81659774D01*
X162717205Y-81490256D01*
X162755393Y-81398061D01*
X163665000Y-81398061D01*
X163665000Y-81601939D01*
X163704774Y-81801898D01*
X163782795Y-81990256D01*
X163896063Y-82159774D01*
X164040226Y-82303937D01*
X164209744Y-82417205D01*
X164398102Y-82495226D01*
X164598061Y-82535000D01*
X164801939Y-82535000D01*
X165001898Y-82495226D01*
X165190256Y-82417205D01*
X165359774Y-82303937D01*
X165503937Y-82159774D01*
X165617205Y-81990256D01*
X165695226Y-81801898D01*
X165735000Y-81601939D01*
X165735000Y-81398061D01*
X165695226Y-81198102D01*
X165617205Y-81009744D01*
X165503937Y-80840226D01*
X165359774Y-80696063D01*
X165190256Y-80582795D01*
X165001898Y-80504774D01*
X164801939Y-80465000D01*
X164598061Y-80465000D01*
X164398102Y-80504774D01*
X164209744Y-80582795D01*
X164040226Y-80696063D01*
X163896063Y-80840226D01*
X163782795Y-81009744D01*
X163704774Y-81198102D01*
X163665000Y-81398061D01*
X162755393Y-81398061D01*
X162795226Y-81301898D01*
X162826729Y-81143519D01*
X162890256Y-81117205D01*
X163059774Y-81003937D01*
X163203937Y-80859774D01*
X163317205Y-80690256D01*
X163395226Y-80501898D01*
X163435000Y-80301939D01*
X163435000Y-80098061D01*
X163395226Y-79898102D01*
X163353788Y-79798061D01*
X166265000Y-79798061D01*
X166265000Y-80001939D01*
X166304774Y-80201898D01*
X166382795Y-80390256D01*
X166496063Y-80559774D01*
X166640226Y-80703937D01*
X166809744Y-80817205D01*
X166998102Y-80895226D01*
X167198061Y-80935000D01*
X167401939Y-80935000D01*
X167601898Y-80895226D01*
X167790256Y-80817205D01*
X167959774Y-80703937D01*
X168103937Y-80559774D01*
X168217205Y-80390256D01*
X168295226Y-80201898D01*
X168335000Y-80001939D01*
X168335000Y-79798061D01*
X168295226Y-79598102D01*
X168217205Y-79409744D01*
X168103937Y-79240226D01*
X167959774Y-79096063D01*
X167790256Y-78982795D01*
X167601898Y-78904774D01*
X167401939Y-78865000D01*
X167198061Y-78865000D01*
X166998102Y-78904774D01*
X166809744Y-78982795D01*
X166640226Y-79096063D01*
X166496063Y-79240226D01*
X166382795Y-79409744D01*
X166304774Y-79598102D01*
X166265000Y-79798061D01*
X163353788Y-79798061D01*
X163317205Y-79709744D01*
X163203937Y-79540226D01*
X163059774Y-79396063D01*
X162890256Y-79282795D01*
X162701898Y-79204774D01*
X162501939Y-79165000D01*
X162298061Y-79165000D01*
X162098102Y-79204774D01*
X161909744Y-79282795D01*
X161740226Y-79396063D01*
X161596063Y-79540226D01*
X161482795Y-79709744D01*
X161404774Y-79898102D01*
X161373271Y-80056481D01*
X161309744Y-80082795D01*
X161140226Y-80196063D01*
X160996063Y-80340226D01*
X160882795Y-80509744D01*
X160804774Y-80698102D01*
X160765000Y-80898061D01*
X122918907Y-80898061D01*
X123059774Y-80803937D01*
X123203937Y-80659774D01*
X123317205Y-80490256D01*
X123395226Y-80301898D01*
X123435000Y-80101939D01*
X123435000Y-79898061D01*
X123395226Y-79698102D01*
X123317205Y-79509744D01*
X123203937Y-79340226D01*
X123059774Y-79196063D01*
X122890256Y-79082795D01*
X122701898Y-79004774D01*
X122501939Y-78965000D01*
X122298061Y-78965000D01*
X122098102Y-79004774D01*
X121909744Y-79082795D01*
X121740226Y-79196063D01*
X121596063Y-79340226D01*
X121482795Y-79509744D01*
X121404774Y-79698102D01*
X121365000Y-79898061D01*
X105685000Y-79898061D01*
X105685000Y-78898061D01*
X129265000Y-78898061D01*
X129265000Y-79101939D01*
X129304774Y-79301898D01*
X129382795Y-79490256D01*
X129496063Y-79659774D01*
X129640226Y-79803937D01*
X129809744Y-79917205D01*
X129998102Y-79995226D01*
X130198061Y-80035000D01*
X130401939Y-80035000D01*
X130601898Y-79995226D01*
X130790256Y-79917205D01*
X130959774Y-79803937D01*
X131103937Y-79659774D01*
X131217205Y-79490256D01*
X131295226Y-79301898D01*
X131335000Y-79101939D01*
X131335000Y-78898061D01*
X131315109Y-78798061D01*
X142669000Y-78798061D01*
X142669000Y-79001939D01*
X142708774Y-79201898D01*
X142786795Y-79390256D01*
X142900063Y-79559774D01*
X143044226Y-79703937D01*
X143213744Y-79817205D01*
X143402102Y-79895226D01*
X143602061Y-79935000D01*
X143805939Y-79935000D01*
X144005898Y-79895226D01*
X144194256Y-79817205D01*
X144363774Y-79703937D01*
X144507937Y-79559774D01*
X144621205Y-79390256D01*
X144699226Y-79201898D01*
X144739000Y-79001939D01*
X144739000Y-78798061D01*
X144719109Y-78698061D01*
X147765000Y-78698061D01*
X147765000Y-78901939D01*
X147804774Y-79101898D01*
X147882795Y-79290256D01*
X147996063Y-79459774D01*
X148140226Y-79603937D01*
X148309744Y-79717205D01*
X148498102Y-79795226D01*
X148698061Y-79835000D01*
X148901939Y-79835000D01*
X149101898Y-79795226D01*
X149290256Y-79717205D01*
X149459774Y-79603937D01*
X149603937Y-79459774D01*
X149717205Y-79290256D01*
X149795226Y-79101898D01*
X149835000Y-78901939D01*
X149835000Y-78698061D01*
X154865000Y-78698061D01*
X154865000Y-78901939D01*
X154904774Y-79101898D01*
X154982795Y-79290256D01*
X155096063Y-79459774D01*
X155240226Y-79603937D01*
X155409744Y-79717205D01*
X155598102Y-79795226D01*
X155798061Y-79835000D01*
X156001939Y-79835000D01*
X156201898Y-79795226D01*
X156390256Y-79717205D01*
X156559774Y-79603937D01*
X156703937Y-79459774D01*
X156817205Y-79290256D01*
X156895226Y-79101898D01*
X156935000Y-78901939D01*
X156935000Y-78698061D01*
X156895226Y-78498102D01*
X156817205Y-78309744D01*
X156703937Y-78140226D01*
X156559774Y-77996063D01*
X156390256Y-77882795D01*
X156201898Y-77804774D01*
X156001939Y-77765000D01*
X155798061Y-77765000D01*
X155598102Y-77804774D01*
X155409744Y-77882795D01*
X155240226Y-77996063D01*
X155096063Y-78140226D01*
X154982795Y-78309744D01*
X154904774Y-78498102D01*
X154865000Y-78698061D01*
X149835000Y-78698061D01*
X149795226Y-78498102D01*
X149717205Y-78309744D01*
X149603937Y-78140226D01*
X149459774Y-77996063D01*
X149290256Y-77882795D01*
X149101898Y-77804774D01*
X148901939Y-77765000D01*
X148698061Y-77765000D01*
X148498102Y-77804774D01*
X148309744Y-77882795D01*
X148140226Y-77996063D01*
X147996063Y-78140226D01*
X147882795Y-78309744D01*
X147804774Y-78498102D01*
X147765000Y-78698061D01*
X144719109Y-78698061D01*
X144699226Y-78598102D01*
X144621205Y-78409744D01*
X144507937Y-78240226D01*
X144363774Y-78096063D01*
X144194256Y-77982795D01*
X144005898Y-77904774D01*
X143805939Y-77865000D01*
X143602061Y-77865000D01*
X143402102Y-77904774D01*
X143213744Y-77982795D01*
X143044226Y-78096063D01*
X142900063Y-78240226D01*
X142786795Y-78409744D01*
X142708774Y-78598102D01*
X142669000Y-78798061D01*
X131315109Y-78798061D01*
X131295226Y-78698102D01*
X131217205Y-78509744D01*
X131103937Y-78340226D01*
X130959774Y-78196063D01*
X130790256Y-78082795D01*
X130601898Y-78004774D01*
X130401939Y-77965000D01*
X130198061Y-77965000D01*
X129998102Y-78004774D01*
X129809744Y-78082795D01*
X129640226Y-78196063D01*
X129496063Y-78340226D01*
X129382795Y-78509744D01*
X129304774Y-78698102D01*
X129265000Y-78898061D01*
X105685000Y-78898061D01*
X105685000Y-77723061D01*
X120065000Y-77723061D01*
X120065000Y-77926939D01*
X120104774Y-78126898D01*
X120182795Y-78315256D01*
X120296063Y-78484774D01*
X120440226Y-78628937D01*
X120609744Y-78742205D01*
X120798102Y-78820226D01*
X120998061Y-78860000D01*
X121201939Y-78860000D01*
X121401898Y-78820226D01*
X121590256Y-78742205D01*
X121759774Y-78628937D01*
X121903937Y-78484774D01*
X122017205Y-78315256D01*
X122095226Y-78126898D01*
X122135000Y-77926939D01*
X122135000Y-77723061D01*
X122095226Y-77523102D01*
X122017205Y-77334744D01*
X121903937Y-77165226D01*
X121759774Y-77021063D01*
X121590256Y-76907795D01*
X121401898Y-76829774D01*
X121201939Y-76790000D01*
X120998061Y-76790000D01*
X120798102Y-76829774D01*
X120609744Y-76907795D01*
X120440226Y-77021063D01*
X120296063Y-77165226D01*
X120182795Y-77334744D01*
X120104774Y-77523102D01*
X120065000Y-77723061D01*
X105685000Y-77723061D01*
X105685000Y-74178061D01*
X126365000Y-74178061D01*
X126365000Y-74381939D01*
X126404774Y-74581898D01*
X126482795Y-74770256D01*
X126596063Y-74939774D01*
X126740226Y-75083937D01*
X126909744Y-75197205D01*
X127098102Y-75275226D01*
X127298061Y-75315000D01*
X127501939Y-75315000D01*
X127701898Y-75275226D01*
X127890256Y-75197205D01*
X128038635Y-75098061D01*
X147265000Y-75098061D01*
X147265000Y-75301939D01*
X147304774Y-75501898D01*
X147382795Y-75690256D01*
X147496063Y-75859774D01*
X147640226Y-76003937D01*
X147809744Y-76117205D01*
X147998102Y-76195226D01*
X148198061Y-76235000D01*
X148401939Y-76235000D01*
X148601898Y-76195226D01*
X148790256Y-76117205D01*
X148959774Y-76003937D01*
X149103937Y-75859774D01*
X149217205Y-75690256D01*
X149295226Y-75501898D01*
X149335000Y-75301939D01*
X149335000Y-75098061D01*
X149295226Y-74898102D01*
X149217205Y-74709744D01*
X149103937Y-74540226D01*
X148959774Y-74396063D01*
X148790256Y-74282795D01*
X148601898Y-74204774D01*
X148401939Y-74165000D01*
X148198061Y-74165000D01*
X147998102Y-74204774D01*
X147809744Y-74282795D01*
X147640226Y-74396063D01*
X147496063Y-74540226D01*
X147382795Y-74709744D01*
X147304774Y-74898102D01*
X147265000Y-75098061D01*
X128038635Y-75098061D01*
X128059774Y-75083937D01*
X128203937Y-74939774D01*
X128317205Y-74770256D01*
X128395226Y-74581898D01*
X128435000Y-74381939D01*
X128435000Y-74178061D01*
X128395226Y-73978102D01*
X128317205Y-73789744D01*
X128255945Y-73698061D01*
X142865000Y-73698061D01*
X142865000Y-73901939D01*
X142904774Y-74101898D01*
X142982795Y-74290256D01*
X143096063Y-74459774D01*
X143240226Y-74603937D01*
X143409744Y-74717205D01*
X143598102Y-74795226D01*
X143798061Y-74835000D01*
X144001939Y-74835000D01*
X144201898Y-74795226D01*
X144390256Y-74717205D01*
X144559774Y-74603937D01*
X144703937Y-74459774D01*
X144817205Y-74290256D01*
X144895226Y-74101898D01*
X144935000Y-73901939D01*
X144935000Y-73698061D01*
X150965000Y-73698061D01*
X150965000Y-73901939D01*
X151004774Y-74101898D01*
X151082795Y-74290256D01*
X151196063Y-74459774D01*
X151340226Y-74603937D01*
X151509744Y-74717205D01*
X151698102Y-74795226D01*
X151898061Y-74835000D01*
X152101939Y-74835000D01*
X152301898Y-74795226D01*
X152490256Y-74717205D01*
X152659774Y-74603937D01*
X152803937Y-74459774D01*
X152917205Y-74290256D01*
X152995226Y-74101898D01*
X153035000Y-73901939D01*
X153035000Y-73698061D01*
X152995226Y-73498102D01*
X152917205Y-73309744D01*
X152909399Y-73298061D01*
X155665000Y-73298061D01*
X155665000Y-73501939D01*
X155704774Y-73701898D01*
X155782795Y-73890256D01*
X155896063Y-74059774D01*
X156040226Y-74203937D01*
X156209744Y-74317205D01*
X156398102Y-74395226D01*
X156598061Y-74435000D01*
X156801939Y-74435000D01*
X157001898Y-74395226D01*
X157190256Y-74317205D01*
X157218907Y-74298061D01*
X170365000Y-74298061D01*
X170365000Y-74501939D01*
X170404774Y-74701898D01*
X170482795Y-74890256D01*
X170596063Y-75059774D01*
X170740226Y-75203937D01*
X170909744Y-75317205D01*
X171098102Y-75395226D01*
X171298061Y-75435000D01*
X171501939Y-75435000D01*
X171701898Y-75395226D01*
X171890256Y-75317205D01*
X172059774Y-75203937D01*
X172203937Y-75059774D01*
X172317205Y-74890256D01*
X172395226Y-74701898D01*
X172435000Y-74501939D01*
X172435000Y-74298061D01*
X172395226Y-74098102D01*
X172317205Y-73909744D01*
X172203937Y-73740226D01*
X172059774Y-73596063D01*
X171890256Y-73482795D01*
X171701898Y-73404774D01*
X171501939Y-73365000D01*
X171298061Y-73365000D01*
X171098102Y-73404774D01*
X170909744Y-73482795D01*
X170740226Y-73596063D01*
X170596063Y-73740226D01*
X170482795Y-73909744D01*
X170404774Y-74098102D01*
X170365000Y-74298061D01*
X157218907Y-74298061D01*
X157359774Y-74203937D01*
X157503937Y-74059774D01*
X157617205Y-73890256D01*
X157695226Y-73701898D01*
X157735000Y-73501939D01*
X157735000Y-73298061D01*
X157695226Y-73098102D01*
X157617205Y-72909744D01*
X157581472Y-72856266D01*
X157659788Y-72803937D01*
X157803951Y-72659774D01*
X157917219Y-72490256D01*
X157995240Y-72301898D01*
X158035014Y-72101939D01*
X158035014Y-71898061D01*
X157995240Y-71698102D01*
X157917219Y-71509744D01*
X157803951Y-71340226D01*
X157659788Y-71196063D01*
X157490270Y-71082795D01*
X157301912Y-71004774D01*
X157101953Y-70965000D01*
X156898075Y-70965000D01*
X156698116Y-71004774D01*
X156509758Y-71082795D01*
X156340240Y-71196063D01*
X156196077Y-71340226D01*
X156082809Y-71509744D01*
X156004788Y-71698102D01*
X155965014Y-71898061D01*
X155965014Y-72101939D01*
X156004788Y-72301898D01*
X156082809Y-72490256D01*
X156118542Y-72543734D01*
X156040226Y-72596063D01*
X155896063Y-72740226D01*
X155782795Y-72909744D01*
X155704774Y-73098102D01*
X155665000Y-73298061D01*
X152909399Y-73298061D01*
X152803937Y-73140226D01*
X152659774Y-72996063D01*
X152490256Y-72882795D01*
X152301898Y-72804774D01*
X152101939Y-72765000D01*
X151898061Y-72765000D01*
X151698102Y-72804774D01*
X151509744Y-72882795D01*
X151340226Y-72996063D01*
X151196063Y-73140226D01*
X151082795Y-73309744D01*
X151004774Y-73498102D01*
X150965000Y-73698061D01*
X144935000Y-73698061D01*
X144895226Y-73498102D01*
X144817205Y-73309744D01*
X144703937Y-73140226D01*
X144559774Y-72996063D01*
X144390256Y-72882795D01*
X144201898Y-72804774D01*
X144001939Y-72765000D01*
X143798061Y-72765000D01*
X143598102Y-72804774D01*
X143409744Y-72882795D01*
X143240226Y-72996063D01*
X143096063Y-73140226D01*
X142982795Y-73309744D01*
X142904774Y-73498102D01*
X142865000Y-73698061D01*
X128255945Y-73698061D01*
X128203937Y-73620226D01*
X128059774Y-73476063D01*
X127890256Y-73362795D01*
X127701898Y-73284774D01*
X127501939Y-73245000D01*
X127298061Y-73245000D01*
X127098102Y-73284774D01*
X126909744Y-73362795D01*
X126740226Y-73476063D01*
X126596063Y-73620226D01*
X126482795Y-73789744D01*
X126404774Y-73978102D01*
X126365000Y-74178061D01*
X105685000Y-74178061D01*
X105685000Y-71098061D01*
X127165000Y-71098061D01*
X127165000Y-71301939D01*
X127204774Y-71501898D01*
X127282795Y-71690256D01*
X127396063Y-71859774D01*
X127540226Y-72003937D01*
X127709744Y-72117205D01*
X127898102Y-72195226D01*
X128098061Y-72235000D01*
X128301939Y-72235000D01*
X128501898Y-72195226D01*
X128690256Y-72117205D01*
X128859774Y-72003937D01*
X129003937Y-71859774D01*
X129117205Y-71690256D01*
X129195226Y-71501898D01*
X129235000Y-71301939D01*
X129235000Y-71098061D01*
X129195226Y-70898102D01*
X129153788Y-70798061D01*
X145465000Y-70798061D01*
X145465000Y-71001939D01*
X145504774Y-71201898D01*
X145582795Y-71390256D01*
X145696063Y-71559774D01*
X145840226Y-71703937D01*
X146009744Y-71817205D01*
X146198102Y-71895226D01*
X146398061Y-71935000D01*
X146601939Y-71935000D01*
X146801898Y-71895226D01*
X146990256Y-71817205D01*
X147159774Y-71703937D01*
X147303937Y-71559774D01*
X147417205Y-71390256D01*
X147495226Y-71201898D01*
X147535000Y-71001939D01*
X147535000Y-70798061D01*
X147495226Y-70598102D01*
X147417205Y-70409744D01*
X147303937Y-70240226D01*
X147159774Y-70096063D01*
X146990256Y-69982795D01*
X146801898Y-69904774D01*
X146601939Y-69865000D01*
X146398061Y-69865000D01*
X146198102Y-69904774D01*
X146009744Y-69982795D01*
X145840226Y-70096063D01*
X145696063Y-70240226D01*
X145582795Y-70409744D01*
X145504774Y-70598102D01*
X145465000Y-70798061D01*
X129153788Y-70798061D01*
X129117205Y-70709744D01*
X129003937Y-70540226D01*
X128859774Y-70396063D01*
X128690256Y-70282795D01*
X128501898Y-70204774D01*
X128301939Y-70165000D01*
X128098061Y-70165000D01*
X127898102Y-70204774D01*
X127709744Y-70282795D01*
X127540226Y-70396063D01*
X127396063Y-70540226D01*
X127282795Y-70709744D01*
X127204774Y-70898102D01*
X127165000Y-71098061D01*
X105685000Y-71098061D01*
X105685000Y-68798061D01*
X127265000Y-68798061D01*
X127265000Y-69001939D01*
X127304774Y-69201898D01*
X127382795Y-69390256D01*
X127496063Y-69559774D01*
X127640226Y-69703937D01*
X127809744Y-69817205D01*
X127998102Y-69895226D01*
X128198061Y-69935000D01*
X128401939Y-69935000D01*
X128601898Y-69895226D01*
X128790256Y-69817205D01*
X128959774Y-69703937D01*
X129103937Y-69559774D01*
X129217205Y-69390256D01*
X129295226Y-69201898D01*
X129335000Y-69001939D01*
X129335000Y-68798061D01*
X132165000Y-68798061D01*
X132165000Y-69001939D01*
X132204774Y-69201898D01*
X132282795Y-69390256D01*
X132396063Y-69559774D01*
X132540226Y-69703937D01*
X132709744Y-69817205D01*
X132898102Y-69895226D01*
X133098061Y-69935000D01*
X133301939Y-69935000D01*
X133501898Y-69895226D01*
X133690256Y-69817205D01*
X133859774Y-69703937D01*
X134003937Y-69559774D01*
X134117205Y-69390256D01*
X134155393Y-69298061D01*
X163165000Y-69298061D01*
X163165000Y-69501939D01*
X163204774Y-69701898D01*
X163282795Y-69890256D01*
X163396063Y-70059774D01*
X163540226Y-70203937D01*
X163709744Y-70317205D01*
X163898102Y-70395226D01*
X164098061Y-70435000D01*
X164301939Y-70435000D01*
X164501898Y-70395226D01*
X164690256Y-70317205D01*
X164859774Y-70203937D01*
X165003937Y-70059774D01*
X165117205Y-69890256D01*
X165195226Y-69701898D01*
X165235000Y-69501939D01*
X165235000Y-69298061D01*
X165195226Y-69098102D01*
X165117205Y-68909744D01*
X165003937Y-68740226D01*
X164859774Y-68596063D01*
X164690256Y-68482795D01*
X164501898Y-68404774D01*
X164301939Y-68365000D01*
X164098061Y-68365000D01*
X163898102Y-68404774D01*
X163709744Y-68482795D01*
X163540226Y-68596063D01*
X163396063Y-68740226D01*
X163282795Y-68909744D01*
X163204774Y-69098102D01*
X163165000Y-69298061D01*
X134155393Y-69298061D01*
X134195226Y-69201898D01*
X134235000Y-69001939D01*
X134235000Y-68798061D01*
X134195226Y-68598102D01*
X134117205Y-68409744D01*
X134003937Y-68240226D01*
X133859774Y-68096063D01*
X133690256Y-67982795D01*
X133501898Y-67904774D01*
X133301939Y-67865000D01*
X133098061Y-67865000D01*
X132898102Y-67904774D01*
X132709744Y-67982795D01*
X132540226Y-68096063D01*
X132396063Y-68240226D01*
X132282795Y-68409744D01*
X132204774Y-68598102D01*
X132165000Y-68798061D01*
X129335000Y-68798061D01*
X129295226Y-68598102D01*
X129217205Y-68409744D01*
X129103937Y-68240226D01*
X128959774Y-68096063D01*
X128790256Y-67982795D01*
X128601898Y-67904774D01*
X128401939Y-67865000D01*
X128198061Y-67865000D01*
X127998102Y-67904774D01*
X127809744Y-67982795D01*
X127640226Y-68096063D01*
X127496063Y-68240226D01*
X127382795Y-68409744D01*
X127304774Y-68598102D01*
X127265000Y-68798061D01*
X105685000Y-68798061D01*
X105685000Y-67798061D01*
X151565000Y-67798061D01*
X151565000Y-68001939D01*
X151604774Y-68201898D01*
X151682795Y-68390256D01*
X151796063Y-68559774D01*
X151940226Y-68703937D01*
X152109744Y-68817205D01*
X152298102Y-68895226D01*
X152498061Y-68935000D01*
X152701939Y-68935000D01*
X152901898Y-68895226D01*
X153090256Y-68817205D01*
X153259774Y-68703937D01*
X153403937Y-68559774D01*
X153517205Y-68390256D01*
X153595226Y-68201898D01*
X153635000Y-68001939D01*
X153635000Y-67798061D01*
X153595226Y-67598102D01*
X153517205Y-67409744D01*
X153403937Y-67240226D01*
X153259774Y-67096063D01*
X153090256Y-66982795D01*
X152901898Y-66904774D01*
X152701939Y-66865000D01*
X152498061Y-66865000D01*
X152298102Y-66904774D01*
X152109744Y-66982795D01*
X151940226Y-67096063D01*
X151796063Y-67240226D01*
X151682795Y-67409744D01*
X151604774Y-67598102D01*
X151565000Y-67798061D01*
X105685000Y-67798061D01*
X105685000Y-64198061D01*
X126965000Y-64198061D01*
X126965000Y-64401939D01*
X127004774Y-64601898D01*
X127082795Y-64790256D01*
X127196063Y-64959774D01*
X127340226Y-65103937D01*
X127509744Y-65217205D01*
X127698102Y-65295226D01*
X127898061Y-65335000D01*
X128101939Y-65335000D01*
X128301898Y-65295226D01*
X128490256Y-65217205D01*
X128659774Y-65103937D01*
X128803937Y-64959774D01*
X128845172Y-64898061D01*
X140865000Y-64898061D01*
X140865000Y-65101939D01*
X140904774Y-65301898D01*
X140982795Y-65490256D01*
X141096063Y-65659774D01*
X141240226Y-65803937D01*
X141409744Y-65917205D01*
X141598102Y-65995226D01*
X141798061Y-66035000D01*
X142001939Y-66035000D01*
X142201898Y-65995226D01*
X142390256Y-65917205D01*
X142559774Y-65803937D01*
X142665650Y-65698061D01*
X159965000Y-65698061D01*
X159965000Y-65901939D01*
X160004774Y-66101898D01*
X160082795Y-66290256D01*
X160196063Y-66459774D01*
X160340226Y-66603937D01*
X160509744Y-66717205D01*
X160698102Y-66795226D01*
X160898061Y-66835000D01*
X161101939Y-66835000D01*
X161301898Y-66795226D01*
X161490256Y-66717205D01*
X161659774Y-66603937D01*
X161803937Y-66459774D01*
X161917205Y-66290256D01*
X161995226Y-66101898D01*
X162035000Y-65901939D01*
X162035000Y-65698061D01*
X161995226Y-65498102D01*
X161917205Y-65309744D01*
X161803937Y-65140226D01*
X161659774Y-64996063D01*
X161490256Y-64882795D01*
X161301898Y-64804774D01*
X161101939Y-64765000D01*
X160898061Y-64765000D01*
X160698102Y-64804774D01*
X160509744Y-64882795D01*
X160340226Y-64996063D01*
X160196063Y-65140226D01*
X160082795Y-65309744D01*
X160004774Y-65498102D01*
X159965000Y-65698061D01*
X142665650Y-65698061D01*
X142703937Y-65659774D01*
X142817205Y-65490256D01*
X142895226Y-65301898D01*
X142935000Y-65101939D01*
X142935000Y-64898061D01*
X142895226Y-64698102D01*
X142817205Y-64509744D01*
X142703937Y-64340226D01*
X142559774Y-64196063D01*
X142390256Y-64082795D01*
X142201898Y-64004774D01*
X142001939Y-63965000D01*
X141798061Y-63965000D01*
X141598102Y-64004774D01*
X141409744Y-64082795D01*
X141240226Y-64196063D01*
X141096063Y-64340226D01*
X140982795Y-64509744D01*
X140904774Y-64698102D01*
X140865000Y-64898061D01*
X128845172Y-64898061D01*
X128917205Y-64790256D01*
X128995226Y-64601898D01*
X129035000Y-64401939D01*
X129035000Y-64198061D01*
X128995226Y-63998102D01*
X128917205Y-63809744D01*
X128803937Y-63640226D01*
X128659774Y-63496063D01*
X128490256Y-63382795D01*
X128301898Y-63304774D01*
X128101939Y-63265000D01*
X127898061Y-63265000D01*
X127698102Y-63304774D01*
X127509744Y-63382795D01*
X127340226Y-63496063D01*
X127196063Y-63640226D01*
X127082795Y-63809744D01*
X127004774Y-63998102D01*
X126965000Y-64198061D01*
X105685000Y-64198061D01*
X105685000Y-61718061D01*
X126865000Y-61718061D01*
X126865000Y-61921939D01*
X126904774Y-62121898D01*
X126982795Y-62310256D01*
X127096063Y-62479774D01*
X127240226Y-62623937D01*
X127409744Y-62737205D01*
X127598102Y-62815226D01*
X127798061Y-62855000D01*
X128001939Y-62855000D01*
X128201898Y-62815226D01*
X128390256Y-62737205D01*
X128559774Y-62623937D01*
X128703937Y-62479774D01*
X128817205Y-62310256D01*
X128895226Y-62121898D01*
X128935000Y-61921939D01*
X128935000Y-61718061D01*
X128895226Y-61518102D01*
X128817205Y-61329744D01*
X128703937Y-61160226D01*
X128559774Y-61016063D01*
X128390256Y-60902795D01*
X128201898Y-60824774D01*
X128001939Y-60785000D01*
X127798061Y-60785000D01*
X127598102Y-60824774D01*
X127409744Y-60902795D01*
X127240226Y-61016063D01*
X127096063Y-61160226D01*
X126982795Y-61329744D01*
X126904774Y-61518102D01*
X126865000Y-61718061D01*
X105685000Y-61718061D01*
X105685000Y-60198061D01*
X147365000Y-60198061D01*
X147365000Y-60401939D01*
X147404774Y-60601898D01*
X147482795Y-60790256D01*
X147596063Y-60959774D01*
X147740226Y-61103937D01*
X147909744Y-61217205D01*
X148098102Y-61295226D01*
X148298061Y-61335000D01*
X148501939Y-61335000D01*
X148701898Y-61295226D01*
X148890256Y-61217205D01*
X149059774Y-61103937D01*
X149203937Y-60959774D01*
X149317205Y-60790256D01*
X149395226Y-60601898D01*
X149435000Y-60401939D01*
X149435000Y-60198061D01*
X149395226Y-59998102D01*
X149317205Y-59809744D01*
X149203937Y-59640226D01*
X149059774Y-59496063D01*
X148890256Y-59382795D01*
X148701898Y-59304774D01*
X148501939Y-59265000D01*
X148298061Y-59265000D01*
X148098102Y-59304774D01*
X147909744Y-59382795D01*
X147740226Y-59496063D01*
X147596063Y-59640226D01*
X147482795Y-59809744D01*
X147404774Y-59998102D01*
X147365000Y-60198061D01*
X105685000Y-60198061D01*
X105685000Y-59198061D01*
X151265000Y-59198061D01*
X151265000Y-59401939D01*
X151304774Y-59601898D01*
X151382795Y-59790256D01*
X151496063Y-59959774D01*
X151640226Y-60103937D01*
X151809744Y-60217205D01*
X151998102Y-60295226D01*
X152198061Y-60335000D01*
X152401939Y-60335000D01*
X152601898Y-60295226D01*
X152790256Y-60217205D01*
X152959774Y-60103937D01*
X153103937Y-59959774D01*
X153217205Y-59790256D01*
X153295226Y-59601898D01*
X153335000Y-59401939D01*
X153335000Y-59198061D01*
X153295226Y-58998102D01*
X153217205Y-58809744D01*
X153103937Y-58640226D01*
X152959774Y-58496063D01*
X152790256Y-58382795D01*
X152601898Y-58304774D01*
X152401939Y-58265000D01*
X152198061Y-58265000D01*
X151998102Y-58304774D01*
X151809744Y-58382795D01*
X151640226Y-58496063D01*
X151496063Y-58640226D01*
X151382795Y-58809744D01*
X151304774Y-58998102D01*
X151265000Y-59198061D01*
X105685000Y-59198061D01*
X105685000Y-56298061D01*
X153965000Y-56298061D01*
X153965000Y-56501939D01*
X154004774Y-56701898D01*
X154082795Y-56890256D01*
X154196063Y-57059774D01*
X154340226Y-57203937D01*
X154509744Y-57317205D01*
X154698102Y-57395226D01*
X154898061Y-57435000D01*
X155101939Y-57435000D01*
X155301898Y-57395226D01*
X155490256Y-57317205D01*
X155659774Y-57203937D01*
X155803937Y-57059774D01*
X155917205Y-56890256D01*
X155995226Y-56701898D01*
X156035000Y-56501939D01*
X156035000Y-56298061D01*
X155995226Y-56098102D01*
X155917205Y-55909744D01*
X155803937Y-55740226D01*
X155659774Y-55596063D01*
X155490256Y-55482795D01*
X155301898Y-55404774D01*
X155101939Y-55365000D01*
X154898061Y-55365000D01*
X154698102Y-55404774D01*
X154509744Y-55482795D01*
X154340226Y-55596063D01*
X154196063Y-55740226D01*
X154082795Y-55909744D01*
X154004774Y-56098102D01*
X153965000Y-56298061D01*
X105685000Y-56298061D01*
X105685000Y-53498061D01*
X145725000Y-53498061D01*
X145725000Y-53701939D01*
X145764774Y-53901898D01*
X145842795Y-54090256D01*
X145956063Y-54259774D01*
X146100226Y-54403937D01*
X146269744Y-54517205D01*
X146458102Y-54595226D01*
X146658061Y-54635000D01*
X146861939Y-54635000D01*
X147047645Y-54598061D01*
X152365000Y-54598061D01*
X152365000Y-54801939D01*
X152404774Y-55001898D01*
X152482795Y-55190256D01*
X152596063Y-55359774D01*
X152740226Y-55503937D01*
X152909744Y-55617205D01*
X153098102Y-55695226D01*
X153298061Y-55735000D01*
X153501939Y-55735000D01*
X153701898Y-55695226D01*
X153890256Y-55617205D01*
X154059774Y-55503937D01*
X154203937Y-55359774D01*
X154317205Y-55190256D01*
X154395226Y-55001898D01*
X154435000Y-54801939D01*
X154435000Y-54598061D01*
X154395226Y-54398102D01*
X154317205Y-54209744D01*
X154203937Y-54040226D01*
X154059774Y-53896063D01*
X153890256Y-53782795D01*
X153701898Y-53704774D01*
X153501939Y-53665000D01*
X153298061Y-53665000D01*
X153098102Y-53704774D01*
X152909744Y-53782795D01*
X152740226Y-53896063D01*
X152596063Y-54040226D01*
X152482795Y-54209744D01*
X152404774Y-54398102D01*
X152365000Y-54598061D01*
X147047645Y-54598061D01*
X147061898Y-54595226D01*
X147250256Y-54517205D01*
X147419774Y-54403937D01*
X147563937Y-54259774D01*
X147677205Y-54090256D01*
X147755226Y-53901898D01*
X147795000Y-53701939D01*
X147795000Y-53498061D01*
X147755226Y-53298102D01*
X147677205Y-53109744D01*
X147563937Y-52940226D01*
X147419774Y-52796063D01*
X147250256Y-52682795D01*
X147061898Y-52604774D01*
X146861939Y-52565000D01*
X146658061Y-52565000D01*
X146458102Y-52604774D01*
X146269744Y-52682795D01*
X146100226Y-52796063D01*
X145956063Y-52940226D01*
X145842795Y-53109744D01*
X145764774Y-53298102D01*
X145725000Y-53498061D01*
X105685000Y-53498061D01*
X105685000Y-50753740D01*
X128315000Y-50753740D01*
X128315000Y-51046260D01*
X128372068Y-51333158D01*
X128484010Y-51603411D01*
X128646525Y-51846632D01*
X128853368Y-52053475D01*
X129096589Y-52215990D01*
X129366842Y-52327932D01*
X129653740Y-52385000D01*
X129946260Y-52385000D01*
X130233158Y-52327932D01*
X130503411Y-52215990D01*
X130746632Y-52053475D01*
X130953475Y-51846632D01*
X131115990Y-51603411D01*
X131227932Y-51333158D01*
X131285000Y-51046260D01*
X131285000Y-50753740D01*
X131227932Y-50466842D01*
X131115990Y-50196589D01*
X130953475Y-49953368D01*
X130798168Y-49798061D01*
X150865000Y-49798061D01*
X150865000Y-50001939D01*
X150904774Y-50201898D01*
X150982795Y-50390256D01*
X151096063Y-50559774D01*
X151240226Y-50703937D01*
X151409744Y-50817205D01*
X151598102Y-50895226D01*
X151798061Y-50935000D01*
X152001939Y-50935000D01*
X152201898Y-50895226D01*
X152390256Y-50817205D01*
X152559774Y-50703937D01*
X152703937Y-50559774D01*
X152817205Y-50390256D01*
X152895226Y-50201898D01*
X152935000Y-50001939D01*
X152935000Y-49798061D01*
X152895226Y-49598102D01*
X152817205Y-49409744D01*
X152703937Y-49240226D01*
X152559774Y-49096063D01*
X152390256Y-48982795D01*
X152201898Y-48904774D01*
X152001939Y-48865000D01*
X151798061Y-48865000D01*
X151598102Y-48904774D01*
X151409744Y-48982795D01*
X151240226Y-49096063D01*
X151096063Y-49240226D01*
X150982795Y-49409744D01*
X150904774Y-49598102D01*
X150865000Y-49798061D01*
X130798168Y-49798061D01*
X130746632Y-49746525D01*
X130503411Y-49584010D01*
X130233158Y-49472068D01*
X129946260Y-49415000D01*
X129653740Y-49415000D01*
X129366842Y-49472068D01*
X129096589Y-49584010D01*
X128853368Y-49746525D01*
X128646525Y-49953368D01*
X128484010Y-50196589D01*
X128372068Y-50466842D01*
X128315000Y-50753740D01*
X105685000Y-50753740D01*
X105685000Y-47678061D01*
X144235000Y-47678061D01*
X144235000Y-47881939D01*
X144274774Y-48081898D01*
X144352795Y-48270256D01*
X144466063Y-48439774D01*
X144610226Y-48583937D01*
X144779744Y-48697205D01*
X144968102Y-48775226D01*
X145168061Y-48815000D01*
X145371939Y-48815000D01*
X145571898Y-48775226D01*
X145760256Y-48697205D01*
X145929774Y-48583937D01*
X146073937Y-48439774D01*
X146187205Y-48270256D01*
X146265226Y-48081898D01*
X146305000Y-47881939D01*
X146305000Y-47698061D01*
X148565000Y-47698061D01*
X148565000Y-47901939D01*
X148604774Y-48101898D01*
X148682795Y-48290256D01*
X148796063Y-48459774D01*
X148940226Y-48603937D01*
X149109744Y-48717205D01*
X149298102Y-48795226D01*
X149498061Y-48835000D01*
X149701939Y-48835000D01*
X149901898Y-48795226D01*
X150090256Y-48717205D01*
X150259774Y-48603937D01*
X150403937Y-48459774D01*
X150517205Y-48290256D01*
X150595226Y-48101898D01*
X150635000Y-47901939D01*
X150635000Y-47698061D01*
X150595226Y-47498102D01*
X150517205Y-47309744D01*
X150403937Y-47140226D01*
X150259774Y-46996063D01*
X150090256Y-46882795D01*
X149901898Y-46804774D01*
X149701939Y-46765000D01*
X149498061Y-46765000D01*
X149298102Y-46804774D01*
X149109744Y-46882795D01*
X148940226Y-46996063D01*
X148796063Y-47140226D01*
X148682795Y-47309744D01*
X148604774Y-47498102D01*
X148565000Y-47698061D01*
X146305000Y-47698061D01*
X146305000Y-47678061D01*
X146265226Y-47478102D01*
X146187205Y-47289744D01*
X146073937Y-47120226D01*
X145929774Y-46976063D01*
X145760256Y-46862795D01*
X145571898Y-46784774D01*
X145371939Y-46745000D01*
X145168061Y-46745000D01*
X144968102Y-46784774D01*
X144779744Y-46862795D01*
X144610226Y-46976063D01*
X144466063Y-47120226D01*
X144352795Y-47289744D01*
X144274774Y-47478102D01*
X144235000Y-47678061D01*
X105685000Y-47678061D01*
X105685000Y-42698061D01*
X118365000Y-42698061D01*
X118365000Y-42901939D01*
X118404774Y-43101898D01*
X118482795Y-43290256D01*
X118596063Y-43459774D01*
X118740226Y-43603937D01*
X118909744Y-43717205D01*
X119098102Y-43795226D01*
X119298061Y-43835000D01*
X119501939Y-43835000D01*
X119701898Y-43795226D01*
X119802053Y-43753740D01*
X128315000Y-43753740D01*
X128315000Y-44046260D01*
X128372068Y-44333158D01*
X128484010Y-44603411D01*
X128646525Y-44846632D01*
X128853368Y-45053475D01*
X129096589Y-45215990D01*
X129366842Y-45327932D01*
X129653740Y-45385000D01*
X129946260Y-45385000D01*
X130233158Y-45327932D01*
X130503411Y-45215990D01*
X130746632Y-45053475D01*
X130953475Y-44846632D01*
X131052746Y-44698061D01*
X139265000Y-44698061D01*
X139265000Y-44901939D01*
X139304774Y-45101898D01*
X139382795Y-45290256D01*
X139496063Y-45459774D01*
X139640226Y-45603937D01*
X139809744Y-45717205D01*
X139998102Y-45795226D01*
X140198061Y-45835000D01*
X140401939Y-45835000D01*
X140601898Y-45795226D01*
X140790256Y-45717205D01*
X140959774Y-45603937D01*
X141103937Y-45459774D01*
X141217205Y-45290256D01*
X141295226Y-45101898D01*
X141335000Y-44901939D01*
X141335000Y-44698061D01*
X141295226Y-44498102D01*
X141217205Y-44309744D01*
X141103937Y-44140226D01*
X140959774Y-43996063D01*
X140790256Y-43882795D01*
X140601898Y-43804774D01*
X140401939Y-43765000D01*
X140198061Y-43765000D01*
X139998102Y-43804774D01*
X139809744Y-43882795D01*
X139640226Y-43996063D01*
X139496063Y-44140226D01*
X139382795Y-44309744D01*
X139304774Y-44498102D01*
X139265000Y-44698061D01*
X131052746Y-44698061D01*
X131115990Y-44603411D01*
X131227932Y-44333158D01*
X131285000Y-44046260D01*
X131285000Y-43753740D01*
X131227932Y-43466842D01*
X131115990Y-43196589D01*
X130953475Y-42953368D01*
X130798168Y-42798061D01*
X148265000Y-42798061D01*
X148265000Y-43001939D01*
X148304774Y-43201898D01*
X148382795Y-43390256D01*
X148496063Y-43559774D01*
X148640226Y-43703937D01*
X148809744Y-43817205D01*
X148998102Y-43895226D01*
X149198061Y-43935000D01*
X149401939Y-43935000D01*
X149601898Y-43895226D01*
X149790256Y-43817205D01*
X149959774Y-43703937D01*
X150103937Y-43559774D01*
X150217205Y-43390256D01*
X150295226Y-43201898D01*
X150335000Y-43001939D01*
X150335000Y-42798061D01*
X150295226Y-42598102D01*
X150217205Y-42409744D01*
X150103937Y-42240226D01*
X149959774Y-42096063D01*
X149790256Y-41982795D01*
X149601898Y-41904774D01*
X149401939Y-41865000D01*
X149198061Y-41865000D01*
X148998102Y-41904774D01*
X148809744Y-41982795D01*
X148640226Y-42096063D01*
X148496063Y-42240226D01*
X148382795Y-42409744D01*
X148304774Y-42598102D01*
X148265000Y-42798061D01*
X130798168Y-42798061D01*
X130746632Y-42746525D01*
X130503411Y-42584010D01*
X130233158Y-42472068D01*
X129946260Y-42415000D01*
X129653740Y-42415000D01*
X129366842Y-42472068D01*
X129096589Y-42584010D01*
X128853368Y-42746525D01*
X128646525Y-42953368D01*
X128484010Y-43196589D01*
X128372068Y-43466842D01*
X128315000Y-43753740D01*
X119802053Y-43753740D01*
X119890256Y-43717205D01*
X120059774Y-43603937D01*
X120203937Y-43459774D01*
X120317205Y-43290256D01*
X120395226Y-43101898D01*
X120435000Y-42901939D01*
X120435000Y-42698061D01*
X120395226Y-42498102D01*
X120317205Y-42309744D01*
X120203937Y-42140226D01*
X120059774Y-41996063D01*
X119890256Y-41882795D01*
X119701898Y-41804774D01*
X119501939Y-41765000D01*
X119298061Y-41765000D01*
X119098102Y-41804774D01*
X118909744Y-41882795D01*
X118740226Y-41996063D01*
X118596063Y-42140226D01*
X118482795Y-42309744D01*
X118404774Y-42498102D01*
X118365000Y-42698061D01*
X105685000Y-42698061D01*
X105685000Y-38825701D01*
X107315000Y-38825701D01*
X107315000Y-39374299D01*
X107422026Y-39912354D01*
X107631965Y-40419192D01*
X107936750Y-40875334D01*
X108324666Y-41263250D01*
X108780808Y-41568035D01*
X109287646Y-41777974D01*
X109825701Y-41885000D01*
X110374299Y-41885000D01*
X110912354Y-41777974D01*
X111419192Y-41568035D01*
X111875334Y-41263250D01*
X112263250Y-40875334D01*
X112568035Y-40419192D01*
X112777974Y-39912354D01*
X112885000Y-39374299D01*
X112885000Y-38825701D01*
X167115000Y-38825701D01*
X167115000Y-39374299D01*
X167222026Y-39912354D01*
X167431965Y-40419192D01*
X167736750Y-40875334D01*
X168124666Y-41263250D01*
X168580808Y-41568035D01*
X169087646Y-41777974D01*
X169625701Y-41885000D01*
X170174299Y-41885000D01*
X170712354Y-41777974D01*
X171219192Y-41568035D01*
X171675334Y-41263250D01*
X172063250Y-40875334D01*
X172368035Y-40419192D01*
X172577974Y-39912354D01*
X172685000Y-39374299D01*
X172685000Y-38825701D01*
X172577974Y-38287646D01*
X172368035Y-37780808D01*
X172063250Y-37324666D01*
X171675334Y-36936750D01*
X171219192Y-36631965D01*
X170712354Y-36422026D01*
X170174299Y-36315000D01*
X169625701Y-36315000D01*
X169087646Y-36422026D01*
X168580808Y-36631965D01*
X168124666Y-36936750D01*
X167736750Y-37324666D01*
X167431965Y-37780808D01*
X167222026Y-38287646D01*
X167115000Y-38825701D01*
X112885000Y-38825701D01*
X112777974Y-38287646D01*
X112568035Y-37780808D01*
X112263250Y-37324666D01*
X111875334Y-36936750D01*
X111419192Y-36631965D01*
X110912354Y-36422026D01*
X110374299Y-36315000D01*
X109825701Y-36315000D01*
X109287646Y-36422026D01*
X108780808Y-36631965D01*
X108324666Y-36936750D01*
X107936750Y-37324666D01*
X107631965Y-37780808D01*
X107422026Y-38287646D01*
X107315000Y-38825701D01*
X105685000Y-38825701D01*
X105685000Y-34685000D01*
X174315000Y-34685000D01*
X174315001Y-111315000D01*
%TA.AperFunction,Conductor*%
D16*
G36*
X174315001Y-111315000D02*
G01*
X105685000Y-111315000D01*
X105685000Y-106525701D01*
X107415000Y-106525701D01*
X107415000Y-107074299D01*
X107522026Y-107612354D01*
X107731965Y-108119192D01*
X108036750Y-108575334D01*
X108424666Y-108963250D01*
X108880808Y-109268035D01*
X109387646Y-109477974D01*
X109925701Y-109585000D01*
X110474299Y-109585000D01*
X111012354Y-109477974D01*
X111261124Y-109374930D01*
X115560001Y-109374930D01*
X115573530Y-109512290D01*
X115626994Y-109688538D01*
X115713815Y-109850970D01*
X115830657Y-109993343D01*
X115973029Y-110110185D01*
X116135461Y-110197006D01*
X116311709Y-110250470D01*
X116495001Y-110268523D01*
X116678292Y-110250470D01*
X116854540Y-110197006D01*
X117016972Y-110110185D01*
X117159345Y-109993343D01*
X117276187Y-109850971D01*
X117363008Y-109688539D01*
X117416472Y-109512291D01*
X117430001Y-109374931D01*
X117430001Y-109374930D01*
X120640001Y-109374930D01*
X120653530Y-109512290D01*
X120706994Y-109688538D01*
X120793815Y-109850970D01*
X120910657Y-109993343D01*
X121053029Y-110110185D01*
X121215461Y-110197006D01*
X121391709Y-110250470D01*
X121575001Y-110268523D01*
X121758292Y-110250470D01*
X121934540Y-110197006D01*
X122096972Y-110110185D01*
X122239345Y-109993343D01*
X122356187Y-109850971D01*
X122443008Y-109688539D01*
X122496472Y-109512291D01*
X122510001Y-109374931D01*
X122510001Y-109357931D01*
X123725000Y-109357931D01*
X123738529Y-109495291D01*
X123791993Y-109671539D01*
X123878814Y-109833971D01*
X123995656Y-109976344D01*
X124138028Y-110093186D01*
X124300460Y-110180007D01*
X124476708Y-110233471D01*
X124660000Y-110251524D01*
X124843291Y-110233471D01*
X125019539Y-110180007D01*
X125181971Y-110093186D01*
X125324344Y-109976344D01*
X125441186Y-109833972D01*
X125528007Y-109671540D01*
X125581471Y-109495292D01*
X125595000Y-109357932D01*
X125595000Y-109357931D01*
X128805000Y-109357931D01*
X128818529Y-109495291D01*
X128871993Y-109671539D01*
X128958814Y-109833971D01*
X129075656Y-109976344D01*
X129218028Y-110093186D01*
X129380460Y-110180007D01*
X129556708Y-110233471D01*
X129740000Y-110251524D01*
X129923291Y-110233471D01*
X130099539Y-110180007D01*
X130261971Y-110093186D01*
X130404344Y-109976344D01*
X130521186Y-109833972D01*
X130608007Y-109671540D01*
X130661471Y-109495292D01*
X130671355Y-109394930D01*
X132040001Y-109394930D01*
X132053530Y-109532290D01*
X132106994Y-109708538D01*
X132193815Y-109870970D01*
X132310657Y-110013343D01*
X132453029Y-110130185D01*
X132615461Y-110217006D01*
X132791709Y-110270470D01*
X132975001Y-110288523D01*
X133158292Y-110270470D01*
X133334540Y-110217006D01*
X133496972Y-110130185D01*
X133639345Y-110013343D01*
X133756187Y-109870971D01*
X133843008Y-109708539D01*
X133896472Y-109532291D01*
X133910001Y-109394931D01*
X133910001Y-109394930D01*
X137120001Y-109394930D01*
X137133530Y-109532290D01*
X137186994Y-109708538D01*
X137273815Y-109870970D01*
X137390657Y-110013343D01*
X137533029Y-110130185D01*
X137695461Y-110217006D01*
X137871709Y-110270470D01*
X138055001Y-110288523D01*
X138238292Y-110270470D01*
X138414540Y-110217006D01*
X138576972Y-110130185D01*
X138719345Y-110013343D01*
X138836187Y-109870971D01*
X138923008Y-109708539D01*
X138976472Y-109532291D01*
X138990001Y-109394931D01*
X138990001Y-109024930D01*
X157310001Y-109024930D01*
X157323530Y-109162290D01*
X157376994Y-109338538D01*
X157463815Y-109500970D01*
X157580657Y-109643343D01*
X157723029Y-109760185D01*
X157885461Y-109847006D01*
X158061709Y-109900470D01*
X158245001Y-109918523D01*
X158428292Y-109900470D01*
X158604540Y-109847006D01*
X158766972Y-109760185D01*
X158909345Y-109643343D01*
X159026187Y-109500971D01*
X159113008Y-109338539D01*
X159166472Y-109162291D01*
X159180001Y-109024931D01*
X159180001Y-109024930D01*
X162390001Y-109024930D01*
X162403530Y-109162290D01*
X162456994Y-109338538D01*
X162543815Y-109500970D01*
X162660657Y-109643343D01*
X162803029Y-109760185D01*
X162965461Y-109847006D01*
X163141709Y-109900470D01*
X163325001Y-109918523D01*
X163508292Y-109900470D01*
X163684540Y-109847006D01*
X163846972Y-109760185D01*
X163989345Y-109643343D01*
X164106187Y-109500971D01*
X164193008Y-109338539D01*
X164246472Y-109162291D01*
X164260001Y-109024931D01*
X164260001Y-108009067D01*
X164246472Y-107871707D01*
X164193008Y-107695459D01*
X164106187Y-107533027D01*
X163989345Y-107390655D01*
X163846973Y-107273813D01*
X163684541Y-107186992D01*
X163508293Y-107133528D01*
X163325001Y-107115475D01*
X163141710Y-107133528D01*
X162965462Y-107186992D01*
X162803030Y-107273813D01*
X162660658Y-107390655D01*
X162543816Y-107533027D01*
X162456995Y-107695459D01*
X162403531Y-107871707D01*
X162390002Y-108009067D01*
X162390001Y-109024930D01*
X159180001Y-109024930D01*
X159180001Y-108009067D01*
X159166472Y-107871707D01*
X159113008Y-107695459D01*
X159026187Y-107533027D01*
X158909345Y-107390655D01*
X158766973Y-107273813D01*
X158604541Y-107186992D01*
X158428293Y-107133528D01*
X158245001Y-107115475D01*
X158061710Y-107133528D01*
X157885462Y-107186992D01*
X157723030Y-107273813D01*
X157580658Y-107390655D01*
X157463816Y-107533027D01*
X157376995Y-107695459D01*
X157323531Y-107871707D01*
X157310002Y-108009067D01*
X157310001Y-109024930D01*
X138990001Y-109024930D01*
X138990001Y-108379067D01*
X138976472Y-108241707D01*
X138923008Y-108065459D01*
X138836187Y-107903027D01*
X138719345Y-107760655D01*
X138576973Y-107643813D01*
X138414541Y-107556992D01*
X138238293Y-107503528D01*
X138055001Y-107485475D01*
X137871710Y-107503528D01*
X137695462Y-107556992D01*
X137533030Y-107643813D01*
X137390658Y-107760655D01*
X137273816Y-107903027D01*
X137186995Y-108065459D01*
X137133531Y-108241707D01*
X137120002Y-108379067D01*
X137120001Y-109394930D01*
X133910001Y-109394930D01*
X133910001Y-108379067D01*
X133896472Y-108241707D01*
X133843008Y-108065459D01*
X133756187Y-107903027D01*
X133639345Y-107760655D01*
X133496973Y-107643813D01*
X133334541Y-107556992D01*
X133158293Y-107503528D01*
X132975001Y-107485475D01*
X132791710Y-107503528D01*
X132615462Y-107556992D01*
X132453030Y-107643813D01*
X132310658Y-107760655D01*
X132193816Y-107903027D01*
X132106995Y-108065459D01*
X132053531Y-108241707D01*
X132040002Y-108379067D01*
X132040001Y-109394930D01*
X130671355Y-109394930D01*
X130675000Y-109357932D01*
X130675000Y-108342068D01*
X130661471Y-108204708D01*
X130608007Y-108028460D01*
X130521186Y-107866028D01*
X130404344Y-107723656D01*
X130261972Y-107606814D01*
X130099540Y-107519993D01*
X129923292Y-107466529D01*
X129740000Y-107448476D01*
X129556709Y-107466529D01*
X129380461Y-107519993D01*
X129218029Y-107606814D01*
X129075657Y-107723656D01*
X128958815Y-107866028D01*
X128871994Y-108028460D01*
X128818530Y-108204708D01*
X128805001Y-108342068D01*
X128805000Y-109357931D01*
X125595000Y-109357931D01*
X125595000Y-108342068D01*
X125581471Y-108204708D01*
X125528007Y-108028460D01*
X125441186Y-107866028D01*
X125324344Y-107723656D01*
X125181972Y-107606814D01*
X125019540Y-107519993D01*
X124843292Y-107466529D01*
X124660000Y-107448476D01*
X124476709Y-107466529D01*
X124300461Y-107519993D01*
X124138029Y-107606814D01*
X123995657Y-107723656D01*
X123878815Y-107866028D01*
X123791994Y-108028460D01*
X123738530Y-108204708D01*
X123725001Y-108342068D01*
X123725000Y-109357931D01*
X122510001Y-109357931D01*
X122510001Y-108359067D01*
X122496472Y-108221707D01*
X122443008Y-108045459D01*
X122356187Y-107883027D01*
X122239345Y-107740655D01*
X122096973Y-107623813D01*
X121934541Y-107536992D01*
X121758293Y-107483528D01*
X121575001Y-107465475D01*
X121391710Y-107483528D01*
X121215462Y-107536992D01*
X121053030Y-107623813D01*
X120910658Y-107740655D01*
X120793816Y-107883027D01*
X120706995Y-108045459D01*
X120653531Y-108221707D01*
X120640002Y-108359067D01*
X120640001Y-109374930D01*
X117430001Y-109374930D01*
X117430001Y-108359067D01*
X117416472Y-108221707D01*
X117363008Y-108045459D01*
X117276187Y-107883027D01*
X117159345Y-107740655D01*
X117016973Y-107623813D01*
X116854541Y-107536992D01*
X116678293Y-107483528D01*
X116495001Y-107465475D01*
X116311710Y-107483528D01*
X116135462Y-107536992D01*
X115973030Y-107623813D01*
X115830658Y-107740655D01*
X115713816Y-107883027D01*
X115626995Y-108045459D01*
X115573531Y-108221707D01*
X115560002Y-108359067D01*
X115560001Y-109374930D01*
X111261124Y-109374930D01*
X111519192Y-109268035D01*
X111975334Y-108963250D01*
X112363250Y-108575334D01*
X112668035Y-108119192D01*
X112877974Y-107612354D01*
X112985000Y-107074299D01*
X112985000Y-106598061D01*
X117465000Y-106598061D01*
X117465000Y-106801939D01*
X117504774Y-107001898D01*
X117582795Y-107190256D01*
X117696063Y-107359774D01*
X117840226Y-107503937D01*
X118009744Y-107617205D01*
X118198102Y-107695226D01*
X118398061Y-107735000D01*
X118601939Y-107735000D01*
X118801898Y-107695226D01*
X118990256Y-107617205D01*
X119159774Y-107503937D01*
X119303937Y-107359774D01*
X119417205Y-107190256D01*
X119495226Y-107001898D01*
X119535000Y-106801939D01*
X119535000Y-106598061D01*
X119495226Y-106398102D01*
X119495210Y-106398061D01*
X125765000Y-106398061D01*
X125765000Y-106601939D01*
X125804774Y-106801898D01*
X125882795Y-106990256D01*
X125996063Y-107159774D01*
X126140226Y-107303937D01*
X126309744Y-107417205D01*
X126498102Y-107495226D01*
X126698061Y-107535000D01*
X126901939Y-107535000D01*
X127101898Y-107495226D01*
X127290256Y-107417205D01*
X127459774Y-107303937D01*
X127603937Y-107159774D01*
X127717205Y-106990256D01*
X127795226Y-106801898D01*
X127835000Y-106601939D01*
X127835000Y-106525701D01*
X167015000Y-106525701D01*
X167015000Y-107074299D01*
X167122026Y-107612354D01*
X167331965Y-108119192D01*
X167636750Y-108575334D01*
X168024666Y-108963250D01*
X168480808Y-109268035D01*
X168987646Y-109477974D01*
X169525701Y-109585000D01*
X170074299Y-109585000D01*
X170612354Y-109477974D01*
X171119192Y-109268035D01*
X171575334Y-108963250D01*
X171963250Y-108575334D01*
X172268035Y-108119192D01*
X172477974Y-107612354D01*
X172585000Y-107074299D01*
X172585000Y-106525701D01*
X172477974Y-105987646D01*
X172268035Y-105480808D01*
X171963250Y-105024666D01*
X171575334Y-104636750D01*
X171119192Y-104331965D01*
X170612354Y-104122026D01*
X170074299Y-104015000D01*
X169525701Y-104015000D01*
X168987646Y-104122026D01*
X168480808Y-104331965D01*
X168024666Y-104636750D01*
X167636750Y-105024666D01*
X167331965Y-105480808D01*
X167122026Y-105987646D01*
X167015000Y-106525701D01*
X127835000Y-106525701D01*
X127835000Y-106398061D01*
X127795226Y-106198102D01*
X127717205Y-106009744D01*
X127603937Y-105840226D01*
X127459774Y-105696063D01*
X127290256Y-105582795D01*
X127101898Y-105504774D01*
X126901939Y-105465000D01*
X126698061Y-105465000D01*
X126498102Y-105504774D01*
X126309744Y-105582795D01*
X126140226Y-105696063D01*
X125996063Y-105840226D01*
X125882795Y-106009744D01*
X125804774Y-106198102D01*
X125765000Y-106398061D01*
X119495210Y-106398061D01*
X119417205Y-106209744D01*
X119303937Y-106040226D01*
X119159774Y-105896063D01*
X118990256Y-105782795D01*
X118801898Y-105704774D01*
X118601939Y-105665000D01*
X118398061Y-105665000D01*
X118198102Y-105704774D01*
X118009744Y-105782795D01*
X117840226Y-105896063D01*
X117696063Y-106040226D01*
X117582795Y-106209744D01*
X117504774Y-106398102D01*
X117465000Y-106598061D01*
X112985000Y-106598061D01*
X112985000Y-106525701D01*
X112877974Y-105987646D01*
X112668035Y-105480808D01*
X112363250Y-105024666D01*
X112136645Y-104798061D01*
X136965000Y-104798061D01*
X136965000Y-105001939D01*
X137004774Y-105201898D01*
X137082795Y-105390256D01*
X137196063Y-105559774D01*
X137340226Y-105703937D01*
X137509744Y-105817205D01*
X137698102Y-105895226D01*
X137898061Y-105935000D01*
X138101939Y-105935000D01*
X138301898Y-105895226D01*
X138490256Y-105817205D01*
X138659774Y-105703937D01*
X138803937Y-105559774D01*
X138917205Y-105390256D01*
X138995226Y-105201898D01*
X139035000Y-105001939D01*
X139035000Y-104798061D01*
X138995226Y-104598102D01*
X138917205Y-104409744D01*
X138909399Y-104398061D01*
X143465000Y-104398061D01*
X143465000Y-104601939D01*
X143504774Y-104801898D01*
X143582795Y-104990256D01*
X143696063Y-105159774D01*
X143840226Y-105303937D01*
X144009744Y-105417205D01*
X144198102Y-105495226D01*
X144398061Y-105535000D01*
X144601939Y-105535000D01*
X144801898Y-105495226D01*
X144990256Y-105417205D01*
X145159774Y-105303937D01*
X145303937Y-105159774D01*
X145417205Y-104990256D01*
X145495226Y-104801898D01*
X145535000Y-104601939D01*
X145535000Y-104398061D01*
X145495226Y-104198102D01*
X145417205Y-104009744D01*
X145303937Y-103840226D01*
X145159774Y-103696063D01*
X144990256Y-103582795D01*
X144801898Y-103504774D01*
X144768150Y-103498061D01*
X147065000Y-103498061D01*
X147065000Y-103701939D01*
X147104774Y-103901898D01*
X147182795Y-104090256D01*
X147296063Y-104259774D01*
X147440226Y-104403937D01*
X147609744Y-104517205D01*
X147798102Y-104595226D01*
X147998061Y-104635000D01*
X148201939Y-104635000D01*
X148401898Y-104595226D01*
X148590256Y-104517205D01*
X148759774Y-104403937D01*
X148865650Y-104298061D01*
X161865000Y-104298061D01*
X161865000Y-104501939D01*
X161904774Y-104701898D01*
X161982795Y-104890256D01*
X162096063Y-105059774D01*
X162240226Y-105203937D01*
X162409744Y-105317205D01*
X162598102Y-105395226D01*
X162798061Y-105435000D01*
X163001939Y-105435000D01*
X163201898Y-105395226D01*
X163390256Y-105317205D01*
X163559774Y-105203937D01*
X163703937Y-105059774D01*
X163817205Y-104890256D01*
X163895226Y-104701898D01*
X163935000Y-104501939D01*
X163935000Y-104298061D01*
X163895226Y-104098102D01*
X163817205Y-103909744D01*
X163703937Y-103740226D01*
X163559774Y-103596063D01*
X163390256Y-103482795D01*
X163201898Y-103404774D01*
X163001939Y-103365000D01*
X162798061Y-103365000D01*
X162598102Y-103404774D01*
X162409744Y-103482795D01*
X162240226Y-103596063D01*
X162096063Y-103740226D01*
X161982795Y-103909744D01*
X161904774Y-104098102D01*
X161865000Y-104298061D01*
X148865650Y-104298061D01*
X148903937Y-104259774D01*
X149017205Y-104090256D01*
X149095226Y-103901898D01*
X149135000Y-103701939D01*
X149135000Y-103498061D01*
X149095226Y-103298102D01*
X149017205Y-103109744D01*
X148903937Y-102940226D01*
X148759774Y-102796063D01*
X148590256Y-102682795D01*
X148401898Y-102604774D01*
X148201939Y-102565000D01*
X147998061Y-102565000D01*
X147798102Y-102604774D01*
X147609744Y-102682795D01*
X147440226Y-102796063D01*
X147296063Y-102940226D01*
X147182795Y-103109744D01*
X147104774Y-103298102D01*
X147065000Y-103498061D01*
X144768150Y-103498061D01*
X144601939Y-103465000D01*
X144398061Y-103465000D01*
X144198102Y-103504774D01*
X144009744Y-103582795D01*
X143840226Y-103696063D01*
X143696063Y-103840226D01*
X143582795Y-104009744D01*
X143504774Y-104198102D01*
X143465000Y-104398061D01*
X138909399Y-104398061D01*
X138803937Y-104240226D01*
X138659774Y-104096063D01*
X138490256Y-103982795D01*
X138301898Y-103904774D01*
X138101939Y-103865000D01*
X137898061Y-103865000D01*
X137698102Y-103904774D01*
X137509744Y-103982795D01*
X137340226Y-104096063D01*
X137196063Y-104240226D01*
X137082795Y-104409744D01*
X137004774Y-104598102D01*
X136965000Y-104798061D01*
X112136645Y-104798061D01*
X111975334Y-104636750D01*
X111519192Y-104331965D01*
X111012354Y-104122026D01*
X110474299Y-104015000D01*
X109925701Y-104015000D01*
X109387646Y-104122026D01*
X108880808Y-104331965D01*
X108424666Y-104636750D01*
X108036750Y-105024666D01*
X107731965Y-105480808D01*
X107522026Y-105987646D01*
X107415000Y-106525701D01*
X105685000Y-106525701D01*
X105685000Y-101598061D01*
X150265000Y-101598061D01*
X150265000Y-101801939D01*
X150304774Y-102001898D01*
X150382795Y-102190256D01*
X150496063Y-102359774D01*
X150640226Y-102503937D01*
X150809744Y-102617205D01*
X150998102Y-102695226D01*
X151198061Y-102735000D01*
X151401939Y-102735000D01*
X151601898Y-102695226D01*
X151790256Y-102617205D01*
X151959774Y-102503937D01*
X152103937Y-102359774D01*
X152150000Y-102290836D01*
X152196063Y-102359774D01*
X152340226Y-102503937D01*
X152509744Y-102617205D01*
X152698102Y-102695226D01*
X152898061Y-102735000D01*
X153101939Y-102735000D01*
X153301898Y-102695226D01*
X153490256Y-102617205D01*
X153659774Y-102503937D01*
X153803937Y-102359774D01*
X153917205Y-102190256D01*
X153995226Y-102001898D01*
X154035000Y-101801939D01*
X154035000Y-101598061D01*
X153995226Y-101398102D01*
X153917205Y-101209744D01*
X153803937Y-101040226D01*
X153659774Y-100896063D01*
X153490256Y-100782795D01*
X153301898Y-100704774D01*
X153101939Y-100665000D01*
X152898061Y-100665000D01*
X152698102Y-100704774D01*
X152509744Y-100782795D01*
X152340226Y-100896063D01*
X152196063Y-101040226D01*
X152150000Y-101109164D01*
X152103937Y-101040226D01*
X151959774Y-100896063D01*
X151790256Y-100782795D01*
X151601898Y-100704774D01*
X151401939Y-100665000D01*
X151198061Y-100665000D01*
X150998102Y-100704774D01*
X150809744Y-100782795D01*
X150640226Y-100896063D01*
X150496063Y-101040226D01*
X150382795Y-101209744D01*
X150304774Y-101398102D01*
X150265000Y-101598061D01*
X105685000Y-101598061D01*
X105685000Y-96898061D01*
X124465000Y-96898061D01*
X124465000Y-97101939D01*
X124504774Y-97301898D01*
X124582795Y-97490256D01*
X124696063Y-97659774D01*
X124840226Y-97803937D01*
X125009744Y-97917205D01*
X125198102Y-97995226D01*
X125398061Y-98035000D01*
X125601939Y-98035000D01*
X125801898Y-97995226D01*
X125990256Y-97917205D01*
X126159774Y-97803937D01*
X126303937Y-97659774D01*
X126417205Y-97490256D01*
X126495226Y-97301898D01*
X126535000Y-97101939D01*
X126535000Y-96898061D01*
X126495226Y-96698102D01*
X126417205Y-96509744D01*
X126303937Y-96340226D01*
X126159774Y-96196063D01*
X125990256Y-96082795D01*
X125801898Y-96004774D01*
X125601939Y-95965000D01*
X125398061Y-95965000D01*
X125198102Y-96004774D01*
X125009744Y-96082795D01*
X124840226Y-96196063D01*
X124696063Y-96340226D01*
X124582795Y-96509744D01*
X124504774Y-96698102D01*
X124465000Y-96898061D01*
X105685000Y-96898061D01*
X105685000Y-95298061D01*
X143865006Y-95298061D01*
X143865006Y-95501939D01*
X143904780Y-95701898D01*
X143982801Y-95890256D01*
X144096069Y-96059774D01*
X144240232Y-96203937D01*
X144409750Y-96317205D01*
X144598108Y-96395226D01*
X144798067Y-96435000D01*
X145001945Y-96435000D01*
X145201904Y-96395226D01*
X145246702Y-96376670D01*
X145157785Y-96509744D01*
X145079764Y-96698102D01*
X145039990Y-96898061D01*
X145039990Y-97101939D01*
X145079764Y-97301898D01*
X145157785Y-97490256D01*
X145271053Y-97659774D01*
X145415216Y-97803937D01*
X145584734Y-97917205D01*
X145773092Y-97995226D01*
X145973051Y-98035000D01*
X146176929Y-98035000D01*
X146376888Y-97995226D01*
X146565246Y-97917205D01*
X146734764Y-97803937D01*
X146878927Y-97659774D01*
X146992195Y-97490256D01*
X147070216Y-97301898D01*
X147109990Y-97101939D01*
X147109990Y-96898061D01*
X147090099Y-96798061D01*
X149165000Y-96798061D01*
X149165000Y-97001939D01*
X149204774Y-97201898D01*
X149282795Y-97390256D01*
X149396063Y-97559774D01*
X149540226Y-97703937D01*
X149709744Y-97817205D01*
X149898102Y-97895226D01*
X150098061Y-97935000D01*
X150301939Y-97935000D01*
X150501898Y-97895226D01*
X150690256Y-97817205D01*
X150859774Y-97703937D01*
X151003937Y-97559774D01*
X151117205Y-97390256D01*
X151195226Y-97201898D01*
X151215880Y-97098061D01*
X159665000Y-97098061D01*
X159665000Y-97301939D01*
X159704774Y-97501898D01*
X159782795Y-97690256D01*
X159896063Y-97859774D01*
X160040226Y-98003937D01*
X160209744Y-98117205D01*
X160398102Y-98195226D01*
X160469797Y-98209487D01*
X160340226Y-98296063D01*
X160196063Y-98440226D01*
X160082795Y-98609744D01*
X160004774Y-98798102D01*
X159965000Y-98998061D01*
X159965000Y-99201939D01*
X160004774Y-99401898D01*
X160082795Y-99590256D01*
X160196063Y-99759774D01*
X160340226Y-99903937D01*
X160509744Y-100017205D01*
X160698102Y-100095226D01*
X160898061Y-100135000D01*
X161101939Y-100135000D01*
X161301898Y-100095226D01*
X161306808Y-100093192D01*
X161304774Y-100098102D01*
X161265000Y-100298061D01*
X161265000Y-100501939D01*
X161304774Y-100701898D01*
X161382795Y-100890256D01*
X161496063Y-101059774D01*
X161640226Y-101203937D01*
X161809744Y-101317205D01*
X161998102Y-101395226D01*
X162198061Y-101435000D01*
X162401939Y-101435000D01*
X162601898Y-101395226D01*
X162790256Y-101317205D01*
X162959774Y-101203937D01*
X163103937Y-101059774D01*
X163217205Y-100890256D01*
X163295226Y-100701898D01*
X163335000Y-100501939D01*
X163335000Y-100298061D01*
X163295226Y-100098102D01*
X163217205Y-99909744D01*
X163103937Y-99740226D01*
X162961772Y-99598061D01*
X163565000Y-99598061D01*
X163565000Y-99801939D01*
X163604774Y-100001898D01*
X163682795Y-100190256D01*
X163796063Y-100359774D01*
X163940226Y-100503937D01*
X164109744Y-100617205D01*
X164298102Y-100695226D01*
X164498061Y-100735000D01*
X164701939Y-100735000D01*
X164901898Y-100695226D01*
X165090256Y-100617205D01*
X165259774Y-100503937D01*
X165403937Y-100359774D01*
X165517205Y-100190256D01*
X165595226Y-100001898D01*
X165635000Y-99801939D01*
X165635000Y-99598061D01*
X165595226Y-99398102D01*
X165517205Y-99209744D01*
X165403937Y-99040226D01*
X165259774Y-98896063D01*
X165090256Y-98782795D01*
X164901898Y-98704774D01*
X164701939Y-98665000D01*
X164498061Y-98665000D01*
X164298102Y-98704774D01*
X164109744Y-98782795D01*
X163940226Y-98896063D01*
X163796063Y-99040226D01*
X163682795Y-99209744D01*
X163604774Y-99398102D01*
X163565000Y-99598061D01*
X162961772Y-99598061D01*
X162959774Y-99596063D01*
X162790256Y-99482795D01*
X162601898Y-99404774D01*
X162401939Y-99365000D01*
X162198061Y-99365000D01*
X161998102Y-99404774D01*
X161993192Y-99406808D01*
X161995226Y-99401898D01*
X162035000Y-99201939D01*
X162035000Y-98998061D01*
X161995226Y-98798102D01*
X161917205Y-98609744D01*
X161803937Y-98440226D01*
X161659774Y-98296063D01*
X161490256Y-98182795D01*
X161301898Y-98104774D01*
X161230203Y-98090513D01*
X161359774Y-98003937D01*
X161503937Y-97859774D01*
X161617205Y-97690256D01*
X161695226Y-97501898D01*
X161735000Y-97301939D01*
X161735000Y-97098061D01*
X161695226Y-96898102D01*
X161653788Y-96798061D01*
X163165000Y-96798061D01*
X163165000Y-97001939D01*
X163204774Y-97201898D01*
X163282795Y-97390256D01*
X163396063Y-97559774D01*
X163540226Y-97703937D01*
X163709744Y-97817205D01*
X163898102Y-97895226D01*
X164098061Y-97935000D01*
X164301939Y-97935000D01*
X164501898Y-97895226D01*
X164690256Y-97817205D01*
X164859774Y-97703937D01*
X165003937Y-97559774D01*
X165117205Y-97390256D01*
X165195226Y-97201898D01*
X165235000Y-97001939D01*
X165235000Y-96974212D01*
X166169500Y-96974212D01*
X166169500Y-97197788D01*
X166213117Y-97417067D01*
X166298676Y-97623624D01*
X166422888Y-97809520D01*
X166580980Y-97967612D01*
X166766876Y-98091824D01*
X166973433Y-98177383D01*
X167192712Y-98221000D01*
X167416288Y-98221000D01*
X167635567Y-98177383D01*
X167842124Y-98091824D01*
X167905165Y-98049701D01*
X167912040Y-98119507D01*
X167991236Y-98380581D01*
X168119843Y-98621188D01*
X168292919Y-98832081D01*
X168503812Y-99005157D01*
X168744419Y-99133764D01*
X169005493Y-99212960D01*
X169208963Y-99233000D01*
X169845037Y-99233000D01*
X170048507Y-99212960D01*
X170309581Y-99133764D01*
X170550188Y-99005157D01*
X170761081Y-98832081D01*
X170934157Y-98621188D01*
X171062764Y-98380581D01*
X171141960Y-98119507D01*
X171168701Y-97848000D01*
X171141960Y-97576493D01*
X171062764Y-97315419D01*
X170934157Y-97074812D01*
X170761081Y-96863919D01*
X170550188Y-96690843D01*
X170309581Y-96562236D01*
X170048507Y-96483040D01*
X169845037Y-96463000D01*
X169208963Y-96463000D01*
X169005493Y-96483040D01*
X168744419Y-96562236D01*
X168503812Y-96690843D01*
X168400070Y-96775982D01*
X168395883Y-96754933D01*
X168310324Y-96548376D01*
X168186112Y-96362480D01*
X168028020Y-96204388D01*
X167842124Y-96080176D01*
X167635567Y-95994617D01*
X167416288Y-95951000D01*
X167192712Y-95951000D01*
X166973433Y-95994617D01*
X166766876Y-96080176D01*
X166580980Y-96204388D01*
X166422888Y-96362480D01*
X166298676Y-96548376D01*
X166213117Y-96754933D01*
X166169500Y-96974212D01*
X165235000Y-96974212D01*
X165235000Y-96798061D01*
X165195226Y-96598102D01*
X165117205Y-96409744D01*
X165003937Y-96240226D01*
X164859774Y-96096063D01*
X164690256Y-95982795D01*
X164501898Y-95904774D01*
X164301939Y-95865000D01*
X164098061Y-95865000D01*
X163898102Y-95904774D01*
X163709744Y-95982795D01*
X163540226Y-96096063D01*
X163396063Y-96240226D01*
X163282795Y-96409744D01*
X163204774Y-96598102D01*
X163165000Y-96798061D01*
X161653788Y-96798061D01*
X161617205Y-96709744D01*
X161503937Y-96540226D01*
X161359774Y-96396063D01*
X161190256Y-96282795D01*
X161001898Y-96204774D01*
X160801939Y-96165000D01*
X160598061Y-96165000D01*
X160398102Y-96204774D01*
X160209744Y-96282795D01*
X160040226Y-96396063D01*
X159896063Y-96540226D01*
X159782795Y-96709744D01*
X159704774Y-96898102D01*
X159665000Y-97098061D01*
X151215880Y-97098061D01*
X151235000Y-97001939D01*
X151235000Y-96798061D01*
X151195226Y-96598102D01*
X151117205Y-96409744D01*
X151003937Y-96240226D01*
X150859774Y-96096063D01*
X150690256Y-95982795D01*
X150501898Y-95904774D01*
X150301939Y-95865000D01*
X150098061Y-95865000D01*
X149898102Y-95904774D01*
X149709744Y-95982795D01*
X149540226Y-96096063D01*
X149396063Y-96240226D01*
X149282795Y-96409744D01*
X149204774Y-96598102D01*
X149165000Y-96798061D01*
X147090099Y-96798061D01*
X147070216Y-96698102D01*
X147040870Y-96627256D01*
X147201898Y-96595226D01*
X147390256Y-96517205D01*
X147559774Y-96403937D01*
X147703937Y-96259774D01*
X147817205Y-96090256D01*
X147895226Y-95901898D01*
X147935000Y-95701939D01*
X147935000Y-95498061D01*
X147895226Y-95298102D01*
X147863983Y-95222675D01*
X148001898Y-95195242D01*
X148190256Y-95117221D01*
X148359774Y-95003953D01*
X148503937Y-94859790D01*
X148617205Y-94690272D01*
X148695226Y-94501914D01*
X148735000Y-94301955D01*
X148735000Y-94198061D01*
X148965000Y-94198061D01*
X148965000Y-94401939D01*
X149004774Y-94601898D01*
X149082795Y-94790256D01*
X149196063Y-94959774D01*
X149340226Y-95103937D01*
X149509744Y-95217205D01*
X149698102Y-95295226D01*
X149898061Y-95335000D01*
X150101939Y-95335000D01*
X150301898Y-95295226D01*
X150490256Y-95217205D01*
X150659774Y-95103937D01*
X150803937Y-94959774D01*
X150917205Y-94790256D01*
X150995226Y-94601898D01*
X151035000Y-94401939D01*
X151035000Y-94198061D01*
X152565000Y-94198061D01*
X152565000Y-94401939D01*
X152604774Y-94601898D01*
X152682795Y-94790256D01*
X152796063Y-94959774D01*
X152940226Y-95103937D01*
X153109744Y-95217205D01*
X153298102Y-95295226D01*
X153498061Y-95335000D01*
X153701939Y-95335000D01*
X153901898Y-95295226D01*
X154090256Y-95217205D01*
X154259774Y-95103937D01*
X154403937Y-94959774D01*
X154517205Y-94790256D01*
X154595226Y-94601898D01*
X154635000Y-94401939D01*
X154635000Y-94198061D01*
X154595226Y-93998102D01*
X154517205Y-93809744D01*
X154403937Y-93640226D01*
X154259774Y-93496063D01*
X154090256Y-93382795D01*
X153901898Y-93304774D01*
X153701939Y-93265000D01*
X153498061Y-93265000D01*
X153298102Y-93304774D01*
X153109744Y-93382795D01*
X152940226Y-93496063D01*
X152796063Y-93640226D01*
X152682795Y-93809744D01*
X152604774Y-93998102D01*
X152565000Y-94198061D01*
X151035000Y-94198061D01*
X150995226Y-93998102D01*
X150917205Y-93809744D01*
X150803937Y-93640226D01*
X150659774Y-93496063D01*
X150490256Y-93382795D01*
X150301898Y-93304774D01*
X150101939Y-93265000D01*
X149898061Y-93265000D01*
X149698102Y-93304774D01*
X149509744Y-93382795D01*
X149340226Y-93496063D01*
X149196063Y-93640226D01*
X149082795Y-93809744D01*
X149004774Y-93998102D01*
X148965000Y-94198061D01*
X148735000Y-94198061D01*
X148735000Y-94098077D01*
X148695226Y-93898118D01*
X148617205Y-93709760D01*
X148503937Y-93540242D01*
X148359774Y-93396079D01*
X148190256Y-93282811D01*
X148001898Y-93204790D01*
X147801939Y-93165016D01*
X147598061Y-93165016D01*
X147398102Y-93204790D01*
X147209744Y-93282811D01*
X147040226Y-93396079D01*
X146896063Y-93540242D01*
X146782795Y-93709760D01*
X146704774Y-93898118D01*
X146665000Y-94098077D01*
X146665000Y-94301955D01*
X146704774Y-94501914D01*
X146736017Y-94577341D01*
X146598102Y-94604774D01*
X146409744Y-94682795D01*
X146240226Y-94796063D01*
X146096063Y-94940226D01*
X145982795Y-95109744D01*
X145925204Y-95248781D01*
X145895232Y-95098102D01*
X145817211Y-94909744D01*
X145703943Y-94740226D01*
X145559780Y-94596063D01*
X145390262Y-94482795D01*
X145201904Y-94404774D01*
X145001945Y-94365000D01*
X144798067Y-94365000D01*
X144598108Y-94404774D01*
X144409750Y-94482795D01*
X144240232Y-94596063D01*
X144096069Y-94740226D01*
X143982801Y-94909744D01*
X143904780Y-95098102D01*
X143865006Y-95298061D01*
X105685000Y-95298061D01*
X105685000Y-91698061D01*
X115165000Y-91698061D01*
X115165000Y-91901939D01*
X115204774Y-92101898D01*
X115282795Y-92290256D01*
X115396063Y-92459774D01*
X115540226Y-92603937D01*
X115709744Y-92717205D01*
X115898102Y-92795226D01*
X116098061Y-92835000D01*
X116301939Y-92835000D01*
X116501898Y-92795226D01*
X116690256Y-92717205D01*
X116859774Y-92603937D01*
X117003937Y-92459774D01*
X117117205Y-92290256D01*
X117195226Y-92101898D01*
X117235000Y-91901939D01*
X117235000Y-91698061D01*
X117195226Y-91498102D01*
X117153788Y-91398061D01*
X134765000Y-91398061D01*
X134765000Y-91601939D01*
X134804774Y-91801898D01*
X134882795Y-91990256D01*
X134996063Y-92159774D01*
X135140226Y-92303937D01*
X135309744Y-92417205D01*
X135498102Y-92495226D01*
X135698061Y-92535000D01*
X135901939Y-92535000D01*
X136101898Y-92495226D01*
X136290256Y-92417205D01*
X136459774Y-92303937D01*
X136603937Y-92159774D01*
X136717205Y-91990256D01*
X136755393Y-91898061D01*
X145165000Y-91898061D01*
X145165000Y-92101939D01*
X145204774Y-92301898D01*
X145282795Y-92490256D01*
X145396063Y-92659774D01*
X145540226Y-92803937D01*
X145709744Y-92917205D01*
X145898102Y-92995226D01*
X146098061Y-93035000D01*
X146301939Y-93035000D01*
X146501898Y-92995226D01*
X146690256Y-92917205D01*
X146859774Y-92803937D01*
X147003937Y-92659774D01*
X147117205Y-92490256D01*
X147195226Y-92301898D01*
X147235000Y-92101939D01*
X147235000Y-92098061D01*
X151765000Y-92098061D01*
X151765000Y-92301939D01*
X151804774Y-92501898D01*
X151882795Y-92690256D01*
X151996063Y-92859774D01*
X152140226Y-93003937D01*
X152309744Y-93117205D01*
X152498102Y-93195226D01*
X152698061Y-93235000D01*
X152901939Y-93235000D01*
X153087645Y-93198061D01*
X157265000Y-93198061D01*
X157265000Y-93401939D01*
X157304774Y-93601898D01*
X157382795Y-93790256D01*
X157496063Y-93959774D01*
X157640226Y-94103937D01*
X157809744Y-94217205D01*
X157998102Y-94295226D01*
X158198061Y-94335000D01*
X158401939Y-94335000D01*
X158601898Y-94295226D01*
X158790256Y-94217205D01*
X158959774Y-94103937D01*
X159103937Y-93959774D01*
X159145172Y-93898061D01*
X163065000Y-93898061D01*
X163065000Y-94101939D01*
X163104774Y-94301898D01*
X163182795Y-94490256D01*
X163296063Y-94659774D01*
X163440226Y-94803937D01*
X163609744Y-94917205D01*
X163798102Y-94995226D01*
X163998061Y-95035000D01*
X164201939Y-95035000D01*
X164401898Y-94995226D01*
X164590256Y-94917205D01*
X164759774Y-94803937D01*
X164903937Y-94659774D01*
X165017205Y-94490256D01*
X165095226Y-94301898D01*
X165135000Y-94101939D01*
X165135000Y-93898061D01*
X165095226Y-93698102D01*
X165017205Y-93509744D01*
X164903937Y-93340226D01*
X164759774Y-93196063D01*
X164590256Y-93082795D01*
X164401898Y-93004774D01*
X164201939Y-92965000D01*
X163998061Y-92965000D01*
X163798102Y-93004774D01*
X163609744Y-93082795D01*
X163440226Y-93196063D01*
X163296063Y-93340226D01*
X163182795Y-93509744D01*
X163104774Y-93698102D01*
X163065000Y-93898061D01*
X159145172Y-93898061D01*
X159217205Y-93790256D01*
X159295226Y-93601898D01*
X159335000Y-93401939D01*
X159335000Y-93198061D01*
X159295226Y-92998102D01*
X159217205Y-92809744D01*
X159103937Y-92640226D01*
X158959774Y-92496063D01*
X158819316Y-92402212D01*
X166169500Y-92402212D01*
X166169500Y-92625788D01*
X166213117Y-92845067D01*
X166298676Y-93051624D01*
X166422888Y-93237520D01*
X166580980Y-93395612D01*
X166766876Y-93519824D01*
X166973433Y-93605383D01*
X167192712Y-93649000D01*
X167416288Y-93649000D01*
X167635567Y-93605383D01*
X167842124Y-93519824D01*
X168028020Y-93395612D01*
X168186112Y-93237520D01*
X168310324Y-93051624D01*
X168395883Y-92845067D01*
X168400070Y-92824018D01*
X168503812Y-92909157D01*
X168744419Y-93037764D01*
X169005493Y-93116960D01*
X169208963Y-93137000D01*
X169845037Y-93137000D01*
X170048507Y-93116960D01*
X170309581Y-93037764D01*
X170550188Y-92909157D01*
X170761081Y-92736081D01*
X170934157Y-92525188D01*
X171062764Y-92284581D01*
X171141960Y-92023507D01*
X171168701Y-91752000D01*
X171141960Y-91480493D01*
X171062764Y-91219419D01*
X170934157Y-90978812D01*
X170761081Y-90767919D01*
X170550188Y-90594843D01*
X170309581Y-90466236D01*
X170048507Y-90387040D01*
X169845037Y-90367000D01*
X169208963Y-90367000D01*
X169005493Y-90387040D01*
X168744419Y-90466236D01*
X168503812Y-90594843D01*
X168292919Y-90767919D01*
X168119843Y-90978812D01*
X167991236Y-91219419D01*
X167912040Y-91480493D01*
X167905165Y-91550299D01*
X167842124Y-91508176D01*
X167635567Y-91422617D01*
X167416288Y-91379000D01*
X167192712Y-91379000D01*
X166973433Y-91422617D01*
X166766876Y-91508176D01*
X166580980Y-91632388D01*
X166422888Y-91790480D01*
X166298676Y-91976376D01*
X166213117Y-92182933D01*
X166169500Y-92402212D01*
X158819316Y-92402212D01*
X158790256Y-92382795D01*
X158601898Y-92304774D01*
X158401939Y-92265000D01*
X158198061Y-92265000D01*
X157998102Y-92304774D01*
X157809744Y-92382795D01*
X157640226Y-92496063D01*
X157496063Y-92640226D01*
X157382795Y-92809744D01*
X157304774Y-92998102D01*
X157265000Y-93198061D01*
X153087645Y-93198061D01*
X153101898Y-93195226D01*
X153290256Y-93117205D01*
X153459774Y-93003937D01*
X153603937Y-92859774D01*
X153717205Y-92690256D01*
X153795226Y-92501898D01*
X153835000Y-92301939D01*
X153835000Y-92098061D01*
X153795226Y-91898102D01*
X153717205Y-91709744D01*
X153603937Y-91540226D01*
X153459774Y-91396063D01*
X153290256Y-91282795D01*
X153101898Y-91204774D01*
X152901939Y-91165000D01*
X152698061Y-91165000D01*
X152498102Y-91204774D01*
X152309744Y-91282795D01*
X152140226Y-91396063D01*
X151996063Y-91540226D01*
X151882795Y-91709744D01*
X151804774Y-91898102D01*
X151765000Y-92098061D01*
X147235000Y-92098061D01*
X147235000Y-91898061D01*
X147195226Y-91698102D01*
X147117205Y-91509744D01*
X147003937Y-91340226D01*
X146859774Y-91196063D01*
X146690256Y-91082795D01*
X146501898Y-91004774D01*
X146301939Y-90965000D01*
X146098061Y-90965000D01*
X145898102Y-91004774D01*
X145709744Y-91082795D01*
X145540226Y-91196063D01*
X145396063Y-91340226D01*
X145282795Y-91509744D01*
X145204774Y-91698102D01*
X145165000Y-91898061D01*
X136755393Y-91898061D01*
X136795226Y-91801898D01*
X136835000Y-91601939D01*
X136835000Y-91398061D01*
X136795226Y-91198102D01*
X136717205Y-91009744D01*
X136603937Y-90840226D01*
X136459774Y-90696063D01*
X136290256Y-90582795D01*
X136101898Y-90504774D01*
X135901939Y-90465000D01*
X135698061Y-90465000D01*
X135498102Y-90504774D01*
X135309744Y-90582795D01*
X135140226Y-90696063D01*
X134996063Y-90840226D01*
X134882795Y-91009744D01*
X134804774Y-91198102D01*
X134765000Y-91398061D01*
X117153788Y-91398061D01*
X117117205Y-91309744D01*
X117003937Y-91140226D01*
X116859774Y-90996063D01*
X116690256Y-90882795D01*
X116501898Y-90804774D01*
X116301939Y-90765000D01*
X116098061Y-90765000D01*
X115898102Y-90804774D01*
X115709744Y-90882795D01*
X115540226Y-90996063D01*
X115396063Y-91140226D01*
X115282795Y-91309744D01*
X115204774Y-91498102D01*
X115165000Y-91698061D01*
X105685000Y-91698061D01*
X105685000Y-88898061D01*
X134765000Y-88898061D01*
X134765000Y-89101939D01*
X134804774Y-89301898D01*
X134882795Y-89490256D01*
X134996063Y-89659774D01*
X135140226Y-89803937D01*
X135309744Y-89917205D01*
X135498102Y-89995226D01*
X135698061Y-90035000D01*
X135901939Y-90035000D01*
X136101898Y-89995226D01*
X136290256Y-89917205D01*
X136459774Y-89803937D01*
X136603937Y-89659774D01*
X136717205Y-89490256D01*
X136795226Y-89301898D01*
X136835000Y-89101939D01*
X136835000Y-88898061D01*
X136795226Y-88698102D01*
X136717205Y-88509744D01*
X136603937Y-88340226D01*
X136459774Y-88196063D01*
X136290256Y-88082795D01*
X136101898Y-88004774D01*
X135901939Y-87965000D01*
X135698061Y-87965000D01*
X135498102Y-88004774D01*
X135309744Y-88082795D01*
X135140226Y-88196063D01*
X134996063Y-88340226D01*
X134882795Y-88509744D01*
X134804774Y-88698102D01*
X134765000Y-88898061D01*
X105685000Y-88898061D01*
X105685000Y-86998061D01*
X115165000Y-86998061D01*
X115165000Y-87201939D01*
X115204774Y-87401898D01*
X115282795Y-87590256D01*
X115396063Y-87759774D01*
X115540226Y-87903937D01*
X115709744Y-88017205D01*
X115898102Y-88095226D01*
X116098061Y-88135000D01*
X116301939Y-88135000D01*
X116501898Y-88095226D01*
X116690256Y-88017205D01*
X116859774Y-87903937D01*
X117003937Y-87759774D01*
X117117205Y-87590256D01*
X117195226Y-87401898D01*
X117195989Y-87398061D01*
X120065000Y-87398061D01*
X120065000Y-87601939D01*
X120104774Y-87801898D01*
X120182795Y-87990256D01*
X120296063Y-88159774D01*
X120440226Y-88303937D01*
X120609744Y-88417205D01*
X120798102Y-88495226D01*
X120998061Y-88535000D01*
X121201939Y-88535000D01*
X121401898Y-88495226D01*
X121590256Y-88417205D01*
X121759774Y-88303937D01*
X121903937Y-88159774D01*
X122017205Y-87990256D01*
X122095226Y-87801898D01*
X122135000Y-87601939D01*
X122135000Y-87598061D01*
X129165000Y-87598061D01*
X129165000Y-87801939D01*
X129204774Y-88001898D01*
X129282795Y-88190256D01*
X129396063Y-88359774D01*
X129540226Y-88503937D01*
X129709744Y-88617205D01*
X129898102Y-88695226D01*
X130098061Y-88735000D01*
X130301939Y-88735000D01*
X130501898Y-88695226D01*
X130690256Y-88617205D01*
X130859774Y-88503937D01*
X131003937Y-88359774D01*
X131117205Y-88190256D01*
X131195226Y-88001898D01*
X131235000Y-87801939D01*
X131235000Y-87598061D01*
X131195226Y-87398102D01*
X131117205Y-87209744D01*
X131003937Y-87040226D01*
X130859774Y-86896063D01*
X130690256Y-86782795D01*
X130501898Y-86704774D01*
X130301939Y-86665000D01*
X130098061Y-86665000D01*
X129898102Y-86704774D01*
X129709744Y-86782795D01*
X129540226Y-86896063D01*
X129396063Y-87040226D01*
X129282795Y-87209744D01*
X129204774Y-87398102D01*
X129165000Y-87598061D01*
X122135000Y-87598061D01*
X122135000Y-87398061D01*
X122095226Y-87198102D01*
X122017205Y-87009744D01*
X121903937Y-86840226D01*
X121759774Y-86696063D01*
X121590256Y-86582795D01*
X121401898Y-86504774D01*
X121201939Y-86465000D01*
X120998061Y-86465000D01*
X120798102Y-86504774D01*
X120609744Y-86582795D01*
X120440226Y-86696063D01*
X120296063Y-86840226D01*
X120182795Y-87009744D01*
X120104774Y-87198102D01*
X120065000Y-87398061D01*
X117195989Y-87398061D01*
X117235000Y-87201939D01*
X117235000Y-86998061D01*
X117195226Y-86798102D01*
X117117205Y-86609744D01*
X117003937Y-86440226D01*
X116961772Y-86398061D01*
X124565000Y-86398061D01*
X124565000Y-86601939D01*
X124604774Y-86801898D01*
X124682795Y-86990256D01*
X124796063Y-87159774D01*
X124940226Y-87303937D01*
X125109744Y-87417205D01*
X125298102Y-87495226D01*
X125498061Y-87535000D01*
X125701939Y-87535000D01*
X125901898Y-87495226D01*
X126090256Y-87417205D01*
X126259774Y-87303937D01*
X126403937Y-87159774D01*
X126517205Y-86990256D01*
X126595226Y-86801898D01*
X126635000Y-86601939D01*
X126635000Y-86398061D01*
X126615109Y-86298061D01*
X134665000Y-86298061D01*
X134665000Y-86501939D01*
X134704774Y-86701898D01*
X134782795Y-86890256D01*
X134896063Y-87059774D01*
X135040226Y-87203937D01*
X135209744Y-87317205D01*
X135398102Y-87395226D01*
X135598061Y-87435000D01*
X135801939Y-87435000D01*
X136001898Y-87395226D01*
X136190256Y-87317205D01*
X136359774Y-87203937D01*
X136503937Y-87059774D01*
X136611989Y-86898061D01*
X137365000Y-86898061D01*
X137365000Y-87101939D01*
X137404774Y-87301898D01*
X137482795Y-87490256D01*
X137596063Y-87659774D01*
X137740226Y-87803937D01*
X137909744Y-87917205D01*
X138098102Y-87995226D01*
X138298061Y-88035000D01*
X138501939Y-88035000D01*
X138687645Y-87998061D01*
X154965000Y-87998061D01*
X154965000Y-88201939D01*
X155004774Y-88401898D01*
X155082795Y-88590256D01*
X155196063Y-88759774D01*
X155340226Y-88903937D01*
X155509744Y-89017205D01*
X155698102Y-89095226D01*
X155898061Y-89135000D01*
X156101939Y-89135000D01*
X156301898Y-89095226D01*
X156490256Y-89017205D01*
X156659774Y-88903937D01*
X156803937Y-88759774D01*
X156917205Y-88590256D01*
X156995226Y-88401898D01*
X157035000Y-88201939D01*
X157035000Y-87998061D01*
X156995226Y-87798102D01*
X156917205Y-87609744D01*
X156803937Y-87440226D01*
X156659774Y-87296063D01*
X156490256Y-87182795D01*
X156301898Y-87104774D01*
X156101939Y-87065000D01*
X155898061Y-87065000D01*
X155698102Y-87104774D01*
X155509744Y-87182795D01*
X155340226Y-87296063D01*
X155196063Y-87440226D01*
X155082795Y-87609744D01*
X155004774Y-87798102D01*
X154965000Y-87998061D01*
X138687645Y-87998061D01*
X138701898Y-87995226D01*
X138890256Y-87917205D01*
X139059774Y-87803937D01*
X139203937Y-87659774D01*
X139317205Y-87490256D01*
X139395226Y-87301898D01*
X139435000Y-87101939D01*
X139435000Y-86898061D01*
X139395226Y-86698102D01*
X139317205Y-86509744D01*
X139203937Y-86340226D01*
X139059774Y-86196063D01*
X138890256Y-86082795D01*
X138701898Y-86004774D01*
X138501939Y-85965000D01*
X138298061Y-85965000D01*
X138098102Y-86004774D01*
X137909744Y-86082795D01*
X137740226Y-86196063D01*
X137596063Y-86340226D01*
X137482795Y-86509744D01*
X137404774Y-86698102D01*
X137365000Y-86898061D01*
X136611989Y-86898061D01*
X136617205Y-86890256D01*
X136695226Y-86701898D01*
X136735000Y-86501939D01*
X136735000Y-86298061D01*
X136695226Y-86098102D01*
X136617205Y-85909744D01*
X136503937Y-85740226D01*
X136359774Y-85596063D01*
X136213104Y-85498061D01*
X156365000Y-85498061D01*
X156365000Y-85701939D01*
X156404774Y-85901898D01*
X156482795Y-86090256D01*
X156596063Y-86259774D01*
X156740226Y-86403937D01*
X156909744Y-86517205D01*
X157098102Y-86595226D01*
X157298061Y-86635000D01*
X157501939Y-86635000D01*
X157701898Y-86595226D01*
X157890256Y-86517205D01*
X158059774Y-86403937D01*
X158203937Y-86259774D01*
X158317205Y-86090256D01*
X158395226Y-85901898D01*
X158435000Y-85701939D01*
X158435000Y-85498061D01*
X159190010Y-85498061D01*
X159190010Y-85701939D01*
X159229784Y-85901898D01*
X159307805Y-86090256D01*
X159421073Y-86259774D01*
X159565236Y-86403937D01*
X159734754Y-86517205D01*
X159923112Y-86595226D01*
X160123071Y-86635000D01*
X160326949Y-86635000D01*
X160526908Y-86595226D01*
X160699691Y-86523656D01*
X160665000Y-86698061D01*
X160665000Y-86901939D01*
X160704774Y-87101898D01*
X160782795Y-87290256D01*
X160896063Y-87459774D01*
X161040226Y-87603937D01*
X161209744Y-87717205D01*
X161398102Y-87795226D01*
X161598061Y-87835000D01*
X161801939Y-87835000D01*
X162001898Y-87795226D01*
X162190256Y-87717205D01*
X162359774Y-87603937D01*
X162503937Y-87459774D01*
X162617205Y-87290256D01*
X162695226Y-87101898D01*
X162735000Y-86901939D01*
X162735000Y-86698061D01*
X162695226Y-86498102D01*
X162617205Y-86309744D01*
X162503937Y-86140226D01*
X162359774Y-85996063D01*
X162190256Y-85882795D01*
X162001898Y-85804774D01*
X161801939Y-85765000D01*
X161598061Y-85765000D01*
X161398102Y-85804774D01*
X161225319Y-85876344D01*
X161260010Y-85701939D01*
X161260010Y-85498061D01*
X161220236Y-85298102D01*
X161142215Y-85109744D01*
X161082523Y-85020408D01*
X161090256Y-85017205D01*
X161259774Y-84903937D01*
X161403937Y-84759774D01*
X161517205Y-84590256D01*
X161595226Y-84401898D01*
X161635000Y-84201939D01*
X161635000Y-83998061D01*
X161595226Y-83798102D01*
X161517205Y-83609744D01*
X161509399Y-83598061D01*
X163865000Y-83598061D01*
X163865000Y-83801939D01*
X163904774Y-84001898D01*
X163982795Y-84190256D01*
X164096063Y-84359774D01*
X164240226Y-84503937D01*
X164409744Y-84617205D01*
X164598102Y-84695226D01*
X164798061Y-84735000D01*
X165001939Y-84735000D01*
X165201898Y-84695226D01*
X165390256Y-84617205D01*
X165559774Y-84503937D01*
X165703937Y-84359774D01*
X165817205Y-84190256D01*
X165895226Y-84001898D01*
X165935000Y-83801939D01*
X165935000Y-83598061D01*
X165895226Y-83398102D01*
X165817205Y-83209744D01*
X165703937Y-83040226D01*
X165559774Y-82896063D01*
X165390256Y-82782795D01*
X165201898Y-82704774D01*
X165001939Y-82665000D01*
X164798061Y-82665000D01*
X164598102Y-82704774D01*
X164409744Y-82782795D01*
X164240226Y-82896063D01*
X164096063Y-83040226D01*
X163982795Y-83209744D01*
X163904774Y-83398102D01*
X163865000Y-83598061D01*
X161509399Y-83598061D01*
X161403937Y-83440226D01*
X161259774Y-83296063D01*
X161090256Y-83182795D01*
X160901898Y-83104774D01*
X160701939Y-83065000D01*
X160498061Y-83065000D01*
X160298102Y-83104774D01*
X160109744Y-83182795D01*
X159940226Y-83296063D01*
X159796063Y-83440226D01*
X159682795Y-83609744D01*
X159604774Y-83798102D01*
X159565000Y-83998061D01*
X159565000Y-84201939D01*
X159604774Y-84401898D01*
X159682795Y-84590256D01*
X159742487Y-84679592D01*
X159734754Y-84682795D01*
X159565236Y-84796063D01*
X159421073Y-84940226D01*
X159307805Y-85109744D01*
X159229784Y-85298102D01*
X159190010Y-85498061D01*
X158435000Y-85498061D01*
X158395226Y-85298102D01*
X158317205Y-85109744D01*
X158203937Y-84940226D01*
X158059774Y-84796063D01*
X157890256Y-84682795D01*
X157701898Y-84604774D01*
X157501939Y-84565000D01*
X157298061Y-84565000D01*
X157098102Y-84604774D01*
X156909744Y-84682795D01*
X156740226Y-84796063D01*
X156596063Y-84940226D01*
X156482795Y-85109744D01*
X156404774Y-85298102D01*
X156365000Y-85498061D01*
X136213104Y-85498061D01*
X136190256Y-85482795D01*
X136001898Y-85404774D01*
X135801939Y-85365000D01*
X135598061Y-85365000D01*
X135398102Y-85404774D01*
X135209744Y-85482795D01*
X135040226Y-85596063D01*
X134896063Y-85740226D01*
X134782795Y-85909744D01*
X134704774Y-86098102D01*
X134665000Y-86298061D01*
X126615109Y-86298061D01*
X126595226Y-86198102D01*
X126517205Y-86009744D01*
X126403937Y-85840226D01*
X126259774Y-85696063D01*
X126090256Y-85582795D01*
X125901898Y-85504774D01*
X125701939Y-85465000D01*
X125498061Y-85465000D01*
X125298102Y-85504774D01*
X125109744Y-85582795D01*
X124940226Y-85696063D01*
X124796063Y-85840226D01*
X124682795Y-86009744D01*
X124604774Y-86198102D01*
X124565000Y-86398061D01*
X116961772Y-86398061D01*
X116859774Y-86296063D01*
X116690256Y-86182795D01*
X116501898Y-86104774D01*
X116301939Y-86065000D01*
X116098061Y-86065000D01*
X115898102Y-86104774D01*
X115709744Y-86182795D01*
X115540226Y-86296063D01*
X115396063Y-86440226D01*
X115282795Y-86609744D01*
X115204774Y-86798102D01*
X115165000Y-86998061D01*
X105685000Y-86998061D01*
X105685000Y-84150000D01*
X112011928Y-84150000D01*
X112011928Y-85850000D01*
X112024188Y-85974482D01*
X112060498Y-86094180D01*
X112119463Y-86204494D01*
X112198815Y-86301185D01*
X112295506Y-86380537D01*
X112405820Y-86439502D01*
X112525518Y-86475812D01*
X112650000Y-86488072D01*
X114350000Y-86488072D01*
X114474482Y-86475812D01*
X114594180Y-86439502D01*
X114704494Y-86380537D01*
X114801185Y-86301185D01*
X114880537Y-86204494D01*
X114939502Y-86094180D01*
X114975812Y-85974482D01*
X114988072Y-85850000D01*
X114988072Y-84198061D01*
X129665000Y-84198061D01*
X129665000Y-84401939D01*
X129704774Y-84601898D01*
X129782795Y-84790256D01*
X129896063Y-84959774D01*
X130040226Y-85103937D01*
X130209744Y-85217205D01*
X130398102Y-85295226D01*
X130598061Y-85335000D01*
X130801939Y-85335000D01*
X131001898Y-85295226D01*
X131190256Y-85217205D01*
X131359774Y-85103937D01*
X131503937Y-84959774D01*
X131617205Y-84790256D01*
X131695226Y-84601898D01*
X131735000Y-84401939D01*
X131735000Y-84198061D01*
X134765000Y-84198061D01*
X134765000Y-84401939D01*
X134804774Y-84601898D01*
X134882795Y-84790256D01*
X134996063Y-84959774D01*
X135140226Y-85103937D01*
X135309744Y-85217205D01*
X135498102Y-85295226D01*
X135698061Y-85335000D01*
X135901939Y-85335000D01*
X136101898Y-85295226D01*
X136290256Y-85217205D01*
X136459774Y-85103937D01*
X136603937Y-84959774D01*
X136717205Y-84790256D01*
X136795226Y-84601898D01*
X136835000Y-84401939D01*
X136835000Y-84198061D01*
X136795226Y-83998102D01*
X136717205Y-83809744D01*
X136603937Y-83640226D01*
X136459774Y-83496063D01*
X136290256Y-83382795D01*
X136101898Y-83304774D01*
X135901939Y-83265000D01*
X135698061Y-83265000D01*
X135498102Y-83304774D01*
X135309744Y-83382795D01*
X135140226Y-83496063D01*
X134996063Y-83640226D01*
X134882795Y-83809744D01*
X134804774Y-83998102D01*
X134765000Y-84198061D01*
X131735000Y-84198061D01*
X131695226Y-83998102D01*
X131617205Y-83809744D01*
X131503937Y-83640226D01*
X131359774Y-83496063D01*
X131190256Y-83382795D01*
X131001898Y-83304774D01*
X130801939Y-83265000D01*
X130598061Y-83265000D01*
X130398102Y-83304774D01*
X130209744Y-83382795D01*
X130040226Y-83496063D01*
X129896063Y-83640226D01*
X129782795Y-83809744D01*
X129704774Y-83998102D01*
X129665000Y-84198061D01*
X114988072Y-84198061D01*
X114988072Y-84150000D01*
X114975812Y-84025518D01*
X114939502Y-83905820D01*
X114880537Y-83795506D01*
X114801185Y-83698815D01*
X114704494Y-83619463D01*
X114594180Y-83560498D01*
X114513534Y-83536034D01*
X114597588Y-83460269D01*
X114771641Y-83226920D01*
X114896825Y-82964099D01*
X114932021Y-82848061D01*
X120065000Y-82848061D01*
X120065000Y-83051939D01*
X120104774Y-83251898D01*
X120182795Y-83440256D01*
X120296063Y-83609774D01*
X120440226Y-83753937D01*
X120609744Y-83867205D01*
X120798102Y-83945226D01*
X120998061Y-83985000D01*
X121201939Y-83985000D01*
X121401898Y-83945226D01*
X121590256Y-83867205D01*
X121759774Y-83753937D01*
X121903937Y-83609774D01*
X122017205Y-83440256D01*
X122095226Y-83251898D01*
X122135000Y-83051939D01*
X122135000Y-82848061D01*
X122095226Y-82648102D01*
X122074499Y-82598061D01*
X122365000Y-82598061D01*
X122365000Y-82801939D01*
X122404774Y-83001898D01*
X122482795Y-83190256D01*
X122596063Y-83359774D01*
X122740226Y-83503937D01*
X122909744Y-83617205D01*
X123098102Y-83695226D01*
X123298061Y-83735000D01*
X123501939Y-83735000D01*
X123701898Y-83695226D01*
X123890256Y-83617205D01*
X124059774Y-83503937D01*
X124203937Y-83359774D01*
X124317205Y-83190256D01*
X124395226Y-83001898D01*
X124435000Y-82801939D01*
X124435000Y-82598061D01*
X124415109Y-82498061D01*
X127265000Y-82498061D01*
X127265000Y-82701939D01*
X127304774Y-82901898D01*
X127382795Y-83090256D01*
X127496063Y-83259774D01*
X127640226Y-83403937D01*
X127809744Y-83517205D01*
X127998102Y-83595226D01*
X128198061Y-83635000D01*
X128401939Y-83635000D01*
X128601898Y-83595226D01*
X128790256Y-83517205D01*
X128959774Y-83403937D01*
X129103937Y-83259774D01*
X129217205Y-83090256D01*
X129295226Y-82901898D01*
X129335000Y-82701939D01*
X129335000Y-82498061D01*
X129295226Y-82298102D01*
X129217205Y-82109744D01*
X129103937Y-81940226D01*
X129061772Y-81898061D01*
X130065000Y-81898061D01*
X130065000Y-82101939D01*
X130104774Y-82301898D01*
X130182795Y-82490256D01*
X130296063Y-82659774D01*
X130440226Y-82803937D01*
X130609744Y-82917205D01*
X130798102Y-82995226D01*
X130998061Y-83035000D01*
X131201939Y-83035000D01*
X131401898Y-82995226D01*
X131590256Y-82917205D01*
X131759774Y-82803937D01*
X131903937Y-82659774D01*
X132017205Y-82490256D01*
X132055393Y-82398061D01*
X137465000Y-82398061D01*
X137465000Y-82601939D01*
X137504774Y-82801898D01*
X137582795Y-82990256D01*
X137696063Y-83159774D01*
X137840226Y-83303937D01*
X138009744Y-83417205D01*
X138198102Y-83495226D01*
X138398061Y-83535000D01*
X138601939Y-83535000D01*
X138801898Y-83495226D01*
X138990256Y-83417205D01*
X139159774Y-83303937D01*
X139303937Y-83159774D01*
X139417205Y-82990256D01*
X139495226Y-82801898D01*
X139535000Y-82601939D01*
X139535000Y-82398061D01*
X139495226Y-82198102D01*
X139417205Y-82009744D01*
X139303937Y-81840226D01*
X139159774Y-81696063D01*
X138990256Y-81582795D01*
X138801898Y-81504774D01*
X138601939Y-81465000D01*
X138398061Y-81465000D01*
X138198102Y-81504774D01*
X138009744Y-81582795D01*
X137840226Y-81696063D01*
X137696063Y-81840226D01*
X137582795Y-82009744D01*
X137504774Y-82198102D01*
X137465000Y-82398061D01*
X132055393Y-82398061D01*
X132095226Y-82301898D01*
X132135000Y-82101939D01*
X132135000Y-81898061D01*
X132095226Y-81698102D01*
X132017205Y-81509744D01*
X131903937Y-81340226D01*
X131759774Y-81196063D01*
X131590256Y-81082795D01*
X131401898Y-81004774D01*
X131201939Y-80965000D01*
X130998061Y-80965000D01*
X130798102Y-81004774D01*
X130609744Y-81082795D01*
X130440226Y-81196063D01*
X130296063Y-81340226D01*
X130182795Y-81509744D01*
X130104774Y-81698102D01*
X130065000Y-81898061D01*
X129061772Y-81898061D01*
X128959774Y-81796063D01*
X128790256Y-81682795D01*
X128601898Y-81604774D01*
X128401939Y-81565000D01*
X128198061Y-81565000D01*
X127998102Y-81604774D01*
X127809744Y-81682795D01*
X127640226Y-81796063D01*
X127496063Y-81940226D01*
X127382795Y-82109744D01*
X127304774Y-82298102D01*
X127265000Y-82498061D01*
X124415109Y-82498061D01*
X124395226Y-82398102D01*
X124317205Y-82209744D01*
X124203937Y-82040226D01*
X124059774Y-81896063D01*
X123890256Y-81782795D01*
X123701898Y-81704774D01*
X123501939Y-81665000D01*
X123298061Y-81665000D01*
X123098102Y-81704774D01*
X122909744Y-81782795D01*
X122740226Y-81896063D01*
X122596063Y-82040226D01*
X122482795Y-82209744D01*
X122404774Y-82398102D01*
X122365000Y-82598061D01*
X122074499Y-82598061D01*
X122017205Y-82459744D01*
X121903937Y-82290226D01*
X121759774Y-82146063D01*
X121590256Y-82032795D01*
X121401898Y-81954774D01*
X121201939Y-81915000D01*
X120998061Y-81915000D01*
X120798102Y-81954774D01*
X120609744Y-82032795D01*
X120440226Y-82146063D01*
X120296063Y-82290226D01*
X120182795Y-82459744D01*
X120104774Y-82648102D01*
X120065000Y-82848061D01*
X114932021Y-82848061D01*
X114941476Y-82816890D01*
X114820155Y-82587000D01*
X113627000Y-82587000D01*
X113627000Y-82607000D01*
X113373000Y-82607000D01*
X113373000Y-82587000D01*
X112179845Y-82587000D01*
X112058524Y-82816890D01*
X112103175Y-82964099D01*
X112228359Y-83226920D01*
X112402412Y-83460269D01*
X112486466Y-83536034D01*
X112405820Y-83560498D01*
X112295506Y-83619463D01*
X112198815Y-83698815D01*
X112119463Y-83795506D01*
X112060498Y-83905820D01*
X112024188Y-84025518D01*
X112011928Y-84150000D01*
X105685000Y-84150000D01*
X105685000Y-82103110D01*
X112058524Y-82103110D01*
X112179845Y-82333000D01*
X113373000Y-82333000D01*
X113373000Y-81139186D01*
X113627000Y-81139186D01*
X113627000Y-82333000D01*
X114820155Y-82333000D01*
X114941476Y-82103110D01*
X114896825Y-81955901D01*
X114771641Y-81693080D01*
X114597588Y-81459731D01*
X114381355Y-81264822D01*
X114131252Y-81115843D01*
X113856891Y-81018519D01*
X113627000Y-81139186D01*
X113373000Y-81139186D01*
X113143109Y-81018519D01*
X112868748Y-81115843D01*
X112618645Y-81264822D01*
X112402412Y-81459731D01*
X112228359Y-81693080D01*
X112103175Y-81955901D01*
X112058524Y-82103110D01*
X105685000Y-82103110D01*
X105685000Y-79898061D01*
X121365000Y-79898061D01*
X121365000Y-80101939D01*
X121404774Y-80301898D01*
X121482795Y-80490256D01*
X121596063Y-80659774D01*
X121740226Y-80803937D01*
X121909744Y-80917205D01*
X122098102Y-80995226D01*
X122298061Y-81035000D01*
X122501939Y-81035000D01*
X122701898Y-80995226D01*
X122890256Y-80917205D01*
X122918907Y-80898061D01*
X160765000Y-80898061D01*
X160765000Y-81101939D01*
X160804774Y-81301898D01*
X160882795Y-81490256D01*
X160996063Y-81659774D01*
X161140226Y-81803937D01*
X161309744Y-81917205D01*
X161498102Y-81995226D01*
X161698061Y-82035000D01*
X161901939Y-82035000D01*
X162101898Y-81995226D01*
X162290256Y-81917205D01*
X162459774Y-81803937D01*
X162603937Y-81659774D01*
X162717205Y-81490256D01*
X162755393Y-81398061D01*
X163665000Y-81398061D01*
X163665000Y-81601939D01*
X163704774Y-81801898D01*
X163782795Y-81990256D01*
X163896063Y-82159774D01*
X164040226Y-82303937D01*
X164209744Y-82417205D01*
X164398102Y-82495226D01*
X164598061Y-82535000D01*
X164801939Y-82535000D01*
X165001898Y-82495226D01*
X165190256Y-82417205D01*
X165359774Y-82303937D01*
X165503937Y-82159774D01*
X165617205Y-81990256D01*
X165695226Y-81801898D01*
X165735000Y-81601939D01*
X165735000Y-81398061D01*
X165695226Y-81198102D01*
X165617205Y-81009744D01*
X165503937Y-80840226D01*
X165359774Y-80696063D01*
X165190256Y-80582795D01*
X165001898Y-80504774D01*
X164801939Y-80465000D01*
X164598061Y-80465000D01*
X164398102Y-80504774D01*
X164209744Y-80582795D01*
X164040226Y-80696063D01*
X163896063Y-80840226D01*
X163782795Y-81009744D01*
X163704774Y-81198102D01*
X163665000Y-81398061D01*
X162755393Y-81398061D01*
X162795226Y-81301898D01*
X162826729Y-81143519D01*
X162890256Y-81117205D01*
X163059774Y-81003937D01*
X163203937Y-80859774D01*
X163317205Y-80690256D01*
X163395226Y-80501898D01*
X163435000Y-80301939D01*
X163435000Y-80098061D01*
X163395226Y-79898102D01*
X163353788Y-79798061D01*
X166265000Y-79798061D01*
X166265000Y-80001939D01*
X166304774Y-80201898D01*
X166382795Y-80390256D01*
X166496063Y-80559774D01*
X166640226Y-80703937D01*
X166809744Y-80817205D01*
X166998102Y-80895226D01*
X167198061Y-80935000D01*
X167401939Y-80935000D01*
X167601898Y-80895226D01*
X167790256Y-80817205D01*
X167959774Y-80703937D01*
X168103937Y-80559774D01*
X168217205Y-80390256D01*
X168295226Y-80201898D01*
X168335000Y-80001939D01*
X168335000Y-79798061D01*
X168295226Y-79598102D01*
X168217205Y-79409744D01*
X168103937Y-79240226D01*
X167959774Y-79096063D01*
X167790256Y-78982795D01*
X167601898Y-78904774D01*
X167401939Y-78865000D01*
X167198061Y-78865000D01*
X166998102Y-78904774D01*
X166809744Y-78982795D01*
X166640226Y-79096063D01*
X166496063Y-79240226D01*
X166382795Y-79409744D01*
X166304774Y-79598102D01*
X166265000Y-79798061D01*
X163353788Y-79798061D01*
X163317205Y-79709744D01*
X163203937Y-79540226D01*
X163059774Y-79396063D01*
X162890256Y-79282795D01*
X162701898Y-79204774D01*
X162501939Y-79165000D01*
X162298061Y-79165000D01*
X162098102Y-79204774D01*
X161909744Y-79282795D01*
X161740226Y-79396063D01*
X161596063Y-79540226D01*
X161482795Y-79709744D01*
X161404774Y-79898102D01*
X161373271Y-80056481D01*
X161309744Y-80082795D01*
X161140226Y-80196063D01*
X160996063Y-80340226D01*
X160882795Y-80509744D01*
X160804774Y-80698102D01*
X160765000Y-80898061D01*
X122918907Y-80898061D01*
X123059774Y-80803937D01*
X123203937Y-80659774D01*
X123317205Y-80490256D01*
X123395226Y-80301898D01*
X123435000Y-80101939D01*
X123435000Y-79898061D01*
X123395226Y-79698102D01*
X123317205Y-79509744D01*
X123203937Y-79340226D01*
X123059774Y-79196063D01*
X122890256Y-79082795D01*
X122701898Y-79004774D01*
X122501939Y-78965000D01*
X122298061Y-78965000D01*
X122098102Y-79004774D01*
X121909744Y-79082795D01*
X121740226Y-79196063D01*
X121596063Y-79340226D01*
X121482795Y-79509744D01*
X121404774Y-79698102D01*
X121365000Y-79898061D01*
X105685000Y-79898061D01*
X105685000Y-78898061D01*
X129265000Y-78898061D01*
X129265000Y-79101939D01*
X129304774Y-79301898D01*
X129382795Y-79490256D01*
X129496063Y-79659774D01*
X129640226Y-79803937D01*
X129809744Y-79917205D01*
X129998102Y-79995226D01*
X130198061Y-80035000D01*
X130401939Y-80035000D01*
X130601898Y-79995226D01*
X130790256Y-79917205D01*
X130959774Y-79803937D01*
X131103937Y-79659774D01*
X131217205Y-79490256D01*
X131295226Y-79301898D01*
X131335000Y-79101939D01*
X131335000Y-78898061D01*
X131315109Y-78798061D01*
X142669000Y-78798061D01*
X142669000Y-79001939D01*
X142708774Y-79201898D01*
X142786795Y-79390256D01*
X142900063Y-79559774D01*
X143044226Y-79703937D01*
X143213744Y-79817205D01*
X143402102Y-79895226D01*
X143602061Y-79935000D01*
X143805939Y-79935000D01*
X144005898Y-79895226D01*
X144194256Y-79817205D01*
X144363774Y-79703937D01*
X144507937Y-79559774D01*
X144621205Y-79390256D01*
X144699226Y-79201898D01*
X144739000Y-79001939D01*
X144739000Y-78798061D01*
X144719109Y-78698061D01*
X147765000Y-78698061D01*
X147765000Y-78901939D01*
X147804774Y-79101898D01*
X147882795Y-79290256D01*
X147996063Y-79459774D01*
X148140226Y-79603937D01*
X148309744Y-79717205D01*
X148498102Y-79795226D01*
X148698061Y-79835000D01*
X148901939Y-79835000D01*
X149101898Y-79795226D01*
X149290256Y-79717205D01*
X149459774Y-79603937D01*
X149603937Y-79459774D01*
X149717205Y-79290256D01*
X149795226Y-79101898D01*
X149835000Y-78901939D01*
X149835000Y-78698061D01*
X154865000Y-78698061D01*
X154865000Y-78901939D01*
X154904774Y-79101898D01*
X154982795Y-79290256D01*
X155096063Y-79459774D01*
X155240226Y-79603937D01*
X155409744Y-79717205D01*
X155598102Y-79795226D01*
X155798061Y-79835000D01*
X156001939Y-79835000D01*
X156201898Y-79795226D01*
X156390256Y-79717205D01*
X156559774Y-79603937D01*
X156703937Y-79459774D01*
X156817205Y-79290256D01*
X156895226Y-79101898D01*
X156935000Y-78901939D01*
X156935000Y-78698061D01*
X156895226Y-78498102D01*
X156817205Y-78309744D01*
X156703937Y-78140226D01*
X156559774Y-77996063D01*
X156390256Y-77882795D01*
X156201898Y-77804774D01*
X156001939Y-77765000D01*
X155798061Y-77765000D01*
X155598102Y-77804774D01*
X155409744Y-77882795D01*
X155240226Y-77996063D01*
X155096063Y-78140226D01*
X154982795Y-78309744D01*
X154904774Y-78498102D01*
X154865000Y-78698061D01*
X149835000Y-78698061D01*
X149795226Y-78498102D01*
X149717205Y-78309744D01*
X149603937Y-78140226D01*
X149459774Y-77996063D01*
X149290256Y-77882795D01*
X149101898Y-77804774D01*
X148901939Y-77765000D01*
X148698061Y-77765000D01*
X148498102Y-77804774D01*
X148309744Y-77882795D01*
X148140226Y-77996063D01*
X147996063Y-78140226D01*
X147882795Y-78309744D01*
X147804774Y-78498102D01*
X147765000Y-78698061D01*
X144719109Y-78698061D01*
X144699226Y-78598102D01*
X144621205Y-78409744D01*
X144507937Y-78240226D01*
X144363774Y-78096063D01*
X144194256Y-77982795D01*
X144005898Y-77904774D01*
X143805939Y-77865000D01*
X143602061Y-77865000D01*
X143402102Y-77904774D01*
X143213744Y-77982795D01*
X143044226Y-78096063D01*
X142900063Y-78240226D01*
X142786795Y-78409744D01*
X142708774Y-78598102D01*
X142669000Y-78798061D01*
X131315109Y-78798061D01*
X131295226Y-78698102D01*
X131217205Y-78509744D01*
X131103937Y-78340226D01*
X130959774Y-78196063D01*
X130790256Y-78082795D01*
X130601898Y-78004774D01*
X130401939Y-77965000D01*
X130198061Y-77965000D01*
X129998102Y-78004774D01*
X129809744Y-78082795D01*
X129640226Y-78196063D01*
X129496063Y-78340226D01*
X129382795Y-78509744D01*
X129304774Y-78698102D01*
X129265000Y-78898061D01*
X105685000Y-78898061D01*
X105685000Y-77723061D01*
X120065000Y-77723061D01*
X120065000Y-77926939D01*
X120104774Y-78126898D01*
X120182795Y-78315256D01*
X120296063Y-78484774D01*
X120440226Y-78628937D01*
X120609744Y-78742205D01*
X120798102Y-78820226D01*
X120998061Y-78860000D01*
X121201939Y-78860000D01*
X121401898Y-78820226D01*
X121590256Y-78742205D01*
X121759774Y-78628937D01*
X121903937Y-78484774D01*
X122017205Y-78315256D01*
X122095226Y-78126898D01*
X122135000Y-77926939D01*
X122135000Y-77723061D01*
X122095226Y-77523102D01*
X122017205Y-77334744D01*
X121903937Y-77165226D01*
X121759774Y-77021063D01*
X121590256Y-76907795D01*
X121401898Y-76829774D01*
X121201939Y-76790000D01*
X120998061Y-76790000D01*
X120798102Y-76829774D01*
X120609744Y-76907795D01*
X120440226Y-77021063D01*
X120296063Y-77165226D01*
X120182795Y-77334744D01*
X120104774Y-77523102D01*
X120065000Y-77723061D01*
X105685000Y-77723061D01*
X105685000Y-74178061D01*
X126365000Y-74178061D01*
X126365000Y-74381939D01*
X126404774Y-74581898D01*
X126482795Y-74770256D01*
X126596063Y-74939774D01*
X126740226Y-75083937D01*
X126909744Y-75197205D01*
X127098102Y-75275226D01*
X127298061Y-75315000D01*
X127501939Y-75315000D01*
X127701898Y-75275226D01*
X127890256Y-75197205D01*
X128038635Y-75098061D01*
X147265000Y-75098061D01*
X147265000Y-75301939D01*
X147304774Y-75501898D01*
X147382795Y-75690256D01*
X147496063Y-75859774D01*
X147640226Y-76003937D01*
X147809744Y-76117205D01*
X147998102Y-76195226D01*
X148198061Y-76235000D01*
X148401939Y-76235000D01*
X148601898Y-76195226D01*
X148790256Y-76117205D01*
X148959774Y-76003937D01*
X149103937Y-75859774D01*
X149217205Y-75690256D01*
X149295226Y-75501898D01*
X149335000Y-75301939D01*
X149335000Y-75098061D01*
X149295226Y-74898102D01*
X149217205Y-74709744D01*
X149103937Y-74540226D01*
X148959774Y-74396063D01*
X148790256Y-74282795D01*
X148601898Y-74204774D01*
X148401939Y-74165000D01*
X148198061Y-74165000D01*
X147998102Y-74204774D01*
X147809744Y-74282795D01*
X147640226Y-74396063D01*
X147496063Y-74540226D01*
X147382795Y-74709744D01*
X147304774Y-74898102D01*
X147265000Y-75098061D01*
X128038635Y-75098061D01*
X128059774Y-75083937D01*
X128203937Y-74939774D01*
X128317205Y-74770256D01*
X128395226Y-74581898D01*
X128435000Y-74381939D01*
X128435000Y-74178061D01*
X128395226Y-73978102D01*
X128317205Y-73789744D01*
X128255945Y-73698061D01*
X142865000Y-73698061D01*
X142865000Y-73901939D01*
X142904774Y-74101898D01*
X142982795Y-74290256D01*
X143096063Y-74459774D01*
X143240226Y-74603937D01*
X143409744Y-74717205D01*
X143598102Y-74795226D01*
X143798061Y-74835000D01*
X144001939Y-74835000D01*
X144201898Y-74795226D01*
X144390256Y-74717205D01*
X144559774Y-74603937D01*
X144703937Y-74459774D01*
X144817205Y-74290256D01*
X144895226Y-74101898D01*
X144935000Y-73901939D01*
X144935000Y-73698061D01*
X150965000Y-73698061D01*
X150965000Y-73901939D01*
X151004774Y-74101898D01*
X151082795Y-74290256D01*
X151196063Y-74459774D01*
X151340226Y-74603937D01*
X151509744Y-74717205D01*
X151698102Y-74795226D01*
X151898061Y-74835000D01*
X152101939Y-74835000D01*
X152301898Y-74795226D01*
X152490256Y-74717205D01*
X152659774Y-74603937D01*
X152803937Y-74459774D01*
X152917205Y-74290256D01*
X152995226Y-74101898D01*
X153035000Y-73901939D01*
X153035000Y-73698061D01*
X152995226Y-73498102D01*
X152917205Y-73309744D01*
X152909399Y-73298061D01*
X155665000Y-73298061D01*
X155665000Y-73501939D01*
X155704774Y-73701898D01*
X155782795Y-73890256D01*
X155896063Y-74059774D01*
X156040226Y-74203937D01*
X156209744Y-74317205D01*
X156398102Y-74395226D01*
X156598061Y-74435000D01*
X156801939Y-74435000D01*
X157001898Y-74395226D01*
X157190256Y-74317205D01*
X157218907Y-74298061D01*
X170365000Y-74298061D01*
X170365000Y-74501939D01*
X170404774Y-74701898D01*
X170482795Y-74890256D01*
X170596063Y-75059774D01*
X170740226Y-75203937D01*
X170909744Y-75317205D01*
X171098102Y-75395226D01*
X171298061Y-75435000D01*
X171501939Y-75435000D01*
X171701898Y-75395226D01*
X171890256Y-75317205D01*
X172059774Y-75203937D01*
X172203937Y-75059774D01*
X172317205Y-74890256D01*
X172395226Y-74701898D01*
X172435000Y-74501939D01*
X172435000Y-74298061D01*
X172395226Y-74098102D01*
X172317205Y-73909744D01*
X172203937Y-73740226D01*
X172059774Y-73596063D01*
X171890256Y-73482795D01*
X171701898Y-73404774D01*
X171501939Y-73365000D01*
X171298061Y-73365000D01*
X171098102Y-73404774D01*
X170909744Y-73482795D01*
X170740226Y-73596063D01*
X170596063Y-73740226D01*
X170482795Y-73909744D01*
X170404774Y-74098102D01*
X170365000Y-74298061D01*
X157218907Y-74298061D01*
X157359774Y-74203937D01*
X157503937Y-74059774D01*
X157617205Y-73890256D01*
X157695226Y-73701898D01*
X157735000Y-73501939D01*
X157735000Y-73298061D01*
X157695226Y-73098102D01*
X157617205Y-72909744D01*
X157581472Y-72856266D01*
X157659788Y-72803937D01*
X157803951Y-72659774D01*
X157917219Y-72490256D01*
X157995240Y-72301898D01*
X158035014Y-72101939D01*
X158035014Y-71898061D01*
X157995240Y-71698102D01*
X157917219Y-71509744D01*
X157803951Y-71340226D01*
X157659788Y-71196063D01*
X157490270Y-71082795D01*
X157301912Y-71004774D01*
X157101953Y-70965000D01*
X156898075Y-70965000D01*
X156698116Y-71004774D01*
X156509758Y-71082795D01*
X156340240Y-71196063D01*
X156196077Y-71340226D01*
X156082809Y-71509744D01*
X156004788Y-71698102D01*
X155965014Y-71898061D01*
X155965014Y-72101939D01*
X156004788Y-72301898D01*
X156082809Y-72490256D01*
X156118542Y-72543734D01*
X156040226Y-72596063D01*
X155896063Y-72740226D01*
X155782795Y-72909744D01*
X155704774Y-73098102D01*
X155665000Y-73298061D01*
X152909399Y-73298061D01*
X152803937Y-73140226D01*
X152659774Y-72996063D01*
X152490256Y-72882795D01*
X152301898Y-72804774D01*
X152101939Y-72765000D01*
X151898061Y-72765000D01*
X151698102Y-72804774D01*
X151509744Y-72882795D01*
X151340226Y-72996063D01*
X151196063Y-73140226D01*
X151082795Y-73309744D01*
X151004774Y-73498102D01*
X150965000Y-73698061D01*
X144935000Y-73698061D01*
X144895226Y-73498102D01*
X144817205Y-73309744D01*
X144703937Y-73140226D01*
X144559774Y-72996063D01*
X144390256Y-72882795D01*
X144201898Y-72804774D01*
X144001939Y-72765000D01*
X143798061Y-72765000D01*
X143598102Y-72804774D01*
X143409744Y-72882795D01*
X143240226Y-72996063D01*
X143096063Y-73140226D01*
X142982795Y-73309744D01*
X142904774Y-73498102D01*
X142865000Y-73698061D01*
X128255945Y-73698061D01*
X128203937Y-73620226D01*
X128059774Y-73476063D01*
X127890256Y-73362795D01*
X127701898Y-73284774D01*
X127501939Y-73245000D01*
X127298061Y-73245000D01*
X127098102Y-73284774D01*
X126909744Y-73362795D01*
X126740226Y-73476063D01*
X126596063Y-73620226D01*
X126482795Y-73789744D01*
X126404774Y-73978102D01*
X126365000Y-74178061D01*
X105685000Y-74178061D01*
X105685000Y-71098061D01*
X127165000Y-71098061D01*
X127165000Y-71301939D01*
X127204774Y-71501898D01*
X127282795Y-71690256D01*
X127396063Y-71859774D01*
X127540226Y-72003937D01*
X127709744Y-72117205D01*
X127898102Y-72195226D01*
X128098061Y-72235000D01*
X128301939Y-72235000D01*
X128501898Y-72195226D01*
X128690256Y-72117205D01*
X128859774Y-72003937D01*
X129003937Y-71859774D01*
X129117205Y-71690256D01*
X129195226Y-71501898D01*
X129235000Y-71301939D01*
X129235000Y-71098061D01*
X129195226Y-70898102D01*
X129153788Y-70798061D01*
X145465000Y-70798061D01*
X145465000Y-71001939D01*
X145504774Y-71201898D01*
X145582795Y-71390256D01*
X145696063Y-71559774D01*
X145840226Y-71703937D01*
X146009744Y-71817205D01*
X146198102Y-71895226D01*
X146398061Y-71935000D01*
X146601939Y-71935000D01*
X146801898Y-71895226D01*
X146990256Y-71817205D01*
X147159774Y-71703937D01*
X147303937Y-71559774D01*
X147417205Y-71390256D01*
X147495226Y-71201898D01*
X147535000Y-71001939D01*
X147535000Y-70798061D01*
X147495226Y-70598102D01*
X147417205Y-70409744D01*
X147303937Y-70240226D01*
X147159774Y-70096063D01*
X146990256Y-69982795D01*
X146801898Y-69904774D01*
X146601939Y-69865000D01*
X146398061Y-69865000D01*
X146198102Y-69904774D01*
X146009744Y-69982795D01*
X145840226Y-70096063D01*
X145696063Y-70240226D01*
X145582795Y-70409744D01*
X145504774Y-70598102D01*
X145465000Y-70798061D01*
X129153788Y-70798061D01*
X129117205Y-70709744D01*
X129003937Y-70540226D01*
X128859774Y-70396063D01*
X128690256Y-70282795D01*
X128501898Y-70204774D01*
X128301939Y-70165000D01*
X128098061Y-70165000D01*
X127898102Y-70204774D01*
X127709744Y-70282795D01*
X127540226Y-70396063D01*
X127396063Y-70540226D01*
X127282795Y-70709744D01*
X127204774Y-70898102D01*
X127165000Y-71098061D01*
X105685000Y-71098061D01*
X105685000Y-68798061D01*
X127265000Y-68798061D01*
X127265000Y-69001939D01*
X127304774Y-69201898D01*
X127382795Y-69390256D01*
X127496063Y-69559774D01*
X127640226Y-69703937D01*
X127809744Y-69817205D01*
X127998102Y-69895226D01*
X128198061Y-69935000D01*
X128401939Y-69935000D01*
X128601898Y-69895226D01*
X128790256Y-69817205D01*
X128959774Y-69703937D01*
X129103937Y-69559774D01*
X129217205Y-69390256D01*
X129295226Y-69201898D01*
X129335000Y-69001939D01*
X129335000Y-68798061D01*
X132165000Y-68798061D01*
X132165000Y-69001939D01*
X132204774Y-69201898D01*
X132282795Y-69390256D01*
X132396063Y-69559774D01*
X132540226Y-69703937D01*
X132709744Y-69817205D01*
X132898102Y-69895226D01*
X133098061Y-69935000D01*
X133301939Y-69935000D01*
X133501898Y-69895226D01*
X133690256Y-69817205D01*
X133859774Y-69703937D01*
X134003937Y-69559774D01*
X134117205Y-69390256D01*
X134155393Y-69298061D01*
X163165000Y-69298061D01*
X163165000Y-69501939D01*
X163204774Y-69701898D01*
X163282795Y-69890256D01*
X163396063Y-70059774D01*
X163540226Y-70203937D01*
X163709744Y-70317205D01*
X163898102Y-70395226D01*
X164098061Y-70435000D01*
X164301939Y-70435000D01*
X164501898Y-70395226D01*
X164690256Y-70317205D01*
X164859774Y-70203937D01*
X165003937Y-70059774D01*
X165117205Y-69890256D01*
X165195226Y-69701898D01*
X165235000Y-69501939D01*
X165235000Y-69298061D01*
X165195226Y-69098102D01*
X165117205Y-68909744D01*
X165003937Y-68740226D01*
X164859774Y-68596063D01*
X164690256Y-68482795D01*
X164501898Y-68404774D01*
X164301939Y-68365000D01*
X164098061Y-68365000D01*
X163898102Y-68404774D01*
X163709744Y-68482795D01*
X163540226Y-68596063D01*
X163396063Y-68740226D01*
X163282795Y-68909744D01*
X163204774Y-69098102D01*
X163165000Y-69298061D01*
X134155393Y-69298061D01*
X134195226Y-69201898D01*
X134235000Y-69001939D01*
X134235000Y-68798061D01*
X134195226Y-68598102D01*
X134117205Y-68409744D01*
X134003937Y-68240226D01*
X133859774Y-68096063D01*
X133690256Y-67982795D01*
X133501898Y-67904774D01*
X133301939Y-67865000D01*
X133098061Y-67865000D01*
X132898102Y-67904774D01*
X132709744Y-67982795D01*
X132540226Y-68096063D01*
X132396063Y-68240226D01*
X132282795Y-68409744D01*
X132204774Y-68598102D01*
X132165000Y-68798061D01*
X129335000Y-68798061D01*
X129295226Y-68598102D01*
X129217205Y-68409744D01*
X129103937Y-68240226D01*
X128959774Y-68096063D01*
X128790256Y-67982795D01*
X128601898Y-67904774D01*
X128401939Y-67865000D01*
X128198061Y-67865000D01*
X127998102Y-67904774D01*
X127809744Y-67982795D01*
X127640226Y-68096063D01*
X127496063Y-68240226D01*
X127382795Y-68409744D01*
X127304774Y-68598102D01*
X127265000Y-68798061D01*
X105685000Y-68798061D01*
X105685000Y-67798061D01*
X151565000Y-67798061D01*
X151565000Y-68001939D01*
X151604774Y-68201898D01*
X151682795Y-68390256D01*
X151796063Y-68559774D01*
X151940226Y-68703937D01*
X152109744Y-68817205D01*
X152298102Y-68895226D01*
X152498061Y-68935000D01*
X152701939Y-68935000D01*
X152901898Y-68895226D01*
X153090256Y-68817205D01*
X153259774Y-68703937D01*
X153403937Y-68559774D01*
X153517205Y-68390256D01*
X153595226Y-68201898D01*
X153635000Y-68001939D01*
X153635000Y-67798061D01*
X153595226Y-67598102D01*
X153517205Y-67409744D01*
X153403937Y-67240226D01*
X153259774Y-67096063D01*
X153090256Y-66982795D01*
X152901898Y-66904774D01*
X152701939Y-66865000D01*
X152498061Y-66865000D01*
X152298102Y-66904774D01*
X152109744Y-66982795D01*
X151940226Y-67096063D01*
X151796063Y-67240226D01*
X151682795Y-67409744D01*
X151604774Y-67598102D01*
X151565000Y-67798061D01*
X105685000Y-67798061D01*
X105685000Y-64198061D01*
X126965000Y-64198061D01*
X126965000Y-64401939D01*
X127004774Y-64601898D01*
X127082795Y-64790256D01*
X127196063Y-64959774D01*
X127340226Y-65103937D01*
X127509744Y-65217205D01*
X127698102Y-65295226D01*
X127898061Y-65335000D01*
X128101939Y-65335000D01*
X128301898Y-65295226D01*
X128490256Y-65217205D01*
X128659774Y-65103937D01*
X128803937Y-64959774D01*
X128845172Y-64898061D01*
X140865000Y-64898061D01*
X140865000Y-65101939D01*
X140904774Y-65301898D01*
X140982795Y-65490256D01*
X141096063Y-65659774D01*
X141240226Y-65803937D01*
X141409744Y-65917205D01*
X141598102Y-65995226D01*
X141798061Y-66035000D01*
X142001939Y-66035000D01*
X142201898Y-65995226D01*
X142390256Y-65917205D01*
X142559774Y-65803937D01*
X142665650Y-65698061D01*
X159965000Y-65698061D01*
X159965000Y-65901939D01*
X160004774Y-66101898D01*
X160082795Y-66290256D01*
X160196063Y-66459774D01*
X160340226Y-66603937D01*
X160509744Y-66717205D01*
X160698102Y-66795226D01*
X160898061Y-66835000D01*
X161101939Y-66835000D01*
X161301898Y-66795226D01*
X161490256Y-66717205D01*
X161659774Y-66603937D01*
X161803937Y-66459774D01*
X161917205Y-66290256D01*
X161995226Y-66101898D01*
X162035000Y-65901939D01*
X162035000Y-65698061D01*
X161995226Y-65498102D01*
X161917205Y-65309744D01*
X161803937Y-65140226D01*
X161659774Y-64996063D01*
X161490256Y-64882795D01*
X161301898Y-64804774D01*
X161101939Y-64765000D01*
X160898061Y-64765000D01*
X160698102Y-64804774D01*
X160509744Y-64882795D01*
X160340226Y-64996063D01*
X160196063Y-65140226D01*
X160082795Y-65309744D01*
X160004774Y-65498102D01*
X159965000Y-65698061D01*
X142665650Y-65698061D01*
X142703937Y-65659774D01*
X142817205Y-65490256D01*
X142895226Y-65301898D01*
X142935000Y-65101939D01*
X142935000Y-64898061D01*
X142895226Y-64698102D01*
X142817205Y-64509744D01*
X142703937Y-64340226D01*
X142559774Y-64196063D01*
X142390256Y-64082795D01*
X142201898Y-64004774D01*
X142001939Y-63965000D01*
X141798061Y-63965000D01*
X141598102Y-64004774D01*
X141409744Y-64082795D01*
X141240226Y-64196063D01*
X141096063Y-64340226D01*
X140982795Y-64509744D01*
X140904774Y-64698102D01*
X140865000Y-64898061D01*
X128845172Y-64898061D01*
X128917205Y-64790256D01*
X128995226Y-64601898D01*
X129035000Y-64401939D01*
X129035000Y-64198061D01*
X128995226Y-63998102D01*
X128917205Y-63809744D01*
X128803937Y-63640226D01*
X128659774Y-63496063D01*
X128490256Y-63382795D01*
X128301898Y-63304774D01*
X128101939Y-63265000D01*
X127898061Y-63265000D01*
X127698102Y-63304774D01*
X127509744Y-63382795D01*
X127340226Y-63496063D01*
X127196063Y-63640226D01*
X127082795Y-63809744D01*
X127004774Y-63998102D01*
X126965000Y-64198061D01*
X105685000Y-64198061D01*
X105685000Y-61718061D01*
X126865000Y-61718061D01*
X126865000Y-61921939D01*
X126904774Y-62121898D01*
X126982795Y-62310256D01*
X127096063Y-62479774D01*
X127240226Y-62623937D01*
X127409744Y-62737205D01*
X127598102Y-62815226D01*
X127798061Y-62855000D01*
X128001939Y-62855000D01*
X128201898Y-62815226D01*
X128390256Y-62737205D01*
X128559774Y-62623937D01*
X128703937Y-62479774D01*
X128817205Y-62310256D01*
X128895226Y-62121898D01*
X128935000Y-61921939D01*
X128935000Y-61718061D01*
X128895226Y-61518102D01*
X128817205Y-61329744D01*
X128703937Y-61160226D01*
X128559774Y-61016063D01*
X128390256Y-60902795D01*
X128201898Y-60824774D01*
X128001939Y-60785000D01*
X127798061Y-60785000D01*
X127598102Y-60824774D01*
X127409744Y-60902795D01*
X127240226Y-61016063D01*
X127096063Y-61160226D01*
X126982795Y-61329744D01*
X126904774Y-61518102D01*
X126865000Y-61718061D01*
X105685000Y-61718061D01*
X105685000Y-60198061D01*
X147365000Y-60198061D01*
X147365000Y-60401939D01*
X147404774Y-60601898D01*
X147482795Y-60790256D01*
X147596063Y-60959774D01*
X147740226Y-61103937D01*
X147909744Y-61217205D01*
X148098102Y-61295226D01*
X148298061Y-61335000D01*
X148501939Y-61335000D01*
X148701898Y-61295226D01*
X148890256Y-61217205D01*
X149059774Y-61103937D01*
X149203937Y-60959774D01*
X149317205Y-60790256D01*
X149395226Y-60601898D01*
X149435000Y-60401939D01*
X149435000Y-60198061D01*
X149395226Y-59998102D01*
X149317205Y-59809744D01*
X149203937Y-59640226D01*
X149059774Y-59496063D01*
X148890256Y-59382795D01*
X148701898Y-59304774D01*
X148501939Y-59265000D01*
X148298061Y-59265000D01*
X148098102Y-59304774D01*
X147909744Y-59382795D01*
X147740226Y-59496063D01*
X147596063Y-59640226D01*
X147482795Y-59809744D01*
X147404774Y-59998102D01*
X147365000Y-60198061D01*
X105685000Y-60198061D01*
X105685000Y-59198061D01*
X151265000Y-59198061D01*
X151265000Y-59401939D01*
X151304774Y-59601898D01*
X151382795Y-59790256D01*
X151496063Y-59959774D01*
X151640226Y-60103937D01*
X151809744Y-60217205D01*
X151998102Y-60295226D01*
X152198061Y-60335000D01*
X152401939Y-60335000D01*
X152601898Y-60295226D01*
X152790256Y-60217205D01*
X152959774Y-60103937D01*
X153103937Y-59959774D01*
X153217205Y-59790256D01*
X153295226Y-59601898D01*
X153335000Y-59401939D01*
X153335000Y-59198061D01*
X153295226Y-58998102D01*
X153217205Y-58809744D01*
X153103937Y-58640226D01*
X152959774Y-58496063D01*
X152790256Y-58382795D01*
X152601898Y-58304774D01*
X152401939Y-58265000D01*
X152198061Y-58265000D01*
X151998102Y-58304774D01*
X151809744Y-58382795D01*
X151640226Y-58496063D01*
X151496063Y-58640226D01*
X151382795Y-58809744D01*
X151304774Y-58998102D01*
X151265000Y-59198061D01*
X105685000Y-59198061D01*
X105685000Y-56298061D01*
X153965000Y-56298061D01*
X153965000Y-56501939D01*
X154004774Y-56701898D01*
X154082795Y-56890256D01*
X154196063Y-57059774D01*
X154340226Y-57203937D01*
X154509744Y-57317205D01*
X154698102Y-57395226D01*
X154898061Y-57435000D01*
X155101939Y-57435000D01*
X155301898Y-57395226D01*
X155490256Y-57317205D01*
X155659774Y-57203937D01*
X155803937Y-57059774D01*
X155917205Y-56890256D01*
X155995226Y-56701898D01*
X156035000Y-56501939D01*
X156035000Y-56298061D01*
X155995226Y-56098102D01*
X155917205Y-55909744D01*
X155803937Y-55740226D01*
X155659774Y-55596063D01*
X155490256Y-55482795D01*
X155301898Y-55404774D01*
X155101939Y-55365000D01*
X154898061Y-55365000D01*
X154698102Y-55404774D01*
X154509744Y-55482795D01*
X154340226Y-55596063D01*
X154196063Y-55740226D01*
X154082795Y-55909744D01*
X154004774Y-56098102D01*
X153965000Y-56298061D01*
X105685000Y-56298061D01*
X105685000Y-53498061D01*
X145725000Y-53498061D01*
X145725000Y-53701939D01*
X145764774Y-53901898D01*
X145842795Y-54090256D01*
X145956063Y-54259774D01*
X146100226Y-54403937D01*
X146269744Y-54517205D01*
X146458102Y-54595226D01*
X146658061Y-54635000D01*
X146861939Y-54635000D01*
X147047645Y-54598061D01*
X152365000Y-54598061D01*
X152365000Y-54801939D01*
X152404774Y-55001898D01*
X152482795Y-55190256D01*
X152596063Y-55359774D01*
X152740226Y-55503937D01*
X152909744Y-55617205D01*
X153098102Y-55695226D01*
X153298061Y-55735000D01*
X153501939Y-55735000D01*
X153701898Y-55695226D01*
X153890256Y-55617205D01*
X154059774Y-55503937D01*
X154203937Y-55359774D01*
X154317205Y-55190256D01*
X154395226Y-55001898D01*
X154435000Y-54801939D01*
X154435000Y-54598061D01*
X154395226Y-54398102D01*
X154317205Y-54209744D01*
X154203937Y-54040226D01*
X154059774Y-53896063D01*
X153890256Y-53782795D01*
X153701898Y-53704774D01*
X153501939Y-53665000D01*
X153298061Y-53665000D01*
X153098102Y-53704774D01*
X152909744Y-53782795D01*
X152740226Y-53896063D01*
X152596063Y-54040226D01*
X152482795Y-54209744D01*
X152404774Y-54398102D01*
X152365000Y-54598061D01*
X147047645Y-54598061D01*
X147061898Y-54595226D01*
X147250256Y-54517205D01*
X147419774Y-54403937D01*
X147563937Y-54259774D01*
X147677205Y-54090256D01*
X147755226Y-53901898D01*
X147795000Y-53701939D01*
X147795000Y-53498061D01*
X147755226Y-53298102D01*
X147677205Y-53109744D01*
X147563937Y-52940226D01*
X147419774Y-52796063D01*
X147250256Y-52682795D01*
X147061898Y-52604774D01*
X146861939Y-52565000D01*
X146658061Y-52565000D01*
X146458102Y-52604774D01*
X146269744Y-52682795D01*
X146100226Y-52796063D01*
X145956063Y-52940226D01*
X145842795Y-53109744D01*
X145764774Y-53298102D01*
X145725000Y-53498061D01*
X105685000Y-53498061D01*
X105685000Y-50753740D01*
X128315000Y-50753740D01*
X128315000Y-51046260D01*
X128372068Y-51333158D01*
X128484010Y-51603411D01*
X128646525Y-51846632D01*
X128853368Y-52053475D01*
X129096589Y-52215990D01*
X129366842Y-52327932D01*
X129653740Y-52385000D01*
X129946260Y-52385000D01*
X130233158Y-52327932D01*
X130503411Y-52215990D01*
X130746632Y-52053475D01*
X130953475Y-51846632D01*
X131115990Y-51603411D01*
X131227932Y-51333158D01*
X131285000Y-51046260D01*
X131285000Y-50753740D01*
X131227932Y-50466842D01*
X131115990Y-50196589D01*
X130953475Y-49953368D01*
X130798168Y-49798061D01*
X150865000Y-49798061D01*
X150865000Y-50001939D01*
X150904774Y-50201898D01*
X150982795Y-50390256D01*
X151096063Y-50559774D01*
X151240226Y-50703937D01*
X151409744Y-50817205D01*
X151598102Y-50895226D01*
X151798061Y-50935000D01*
X152001939Y-50935000D01*
X152201898Y-50895226D01*
X152390256Y-50817205D01*
X152559774Y-50703937D01*
X152703937Y-50559774D01*
X152817205Y-50390256D01*
X152895226Y-50201898D01*
X152935000Y-50001939D01*
X152935000Y-49798061D01*
X152895226Y-49598102D01*
X152817205Y-49409744D01*
X152703937Y-49240226D01*
X152559774Y-49096063D01*
X152390256Y-48982795D01*
X152201898Y-48904774D01*
X152001939Y-48865000D01*
X151798061Y-48865000D01*
X151598102Y-48904774D01*
X151409744Y-48982795D01*
X151240226Y-49096063D01*
X151096063Y-49240226D01*
X150982795Y-49409744D01*
X150904774Y-49598102D01*
X150865000Y-49798061D01*
X130798168Y-49798061D01*
X130746632Y-49746525D01*
X130503411Y-49584010D01*
X130233158Y-49472068D01*
X129946260Y-49415000D01*
X129653740Y-49415000D01*
X129366842Y-49472068D01*
X129096589Y-49584010D01*
X128853368Y-49746525D01*
X128646525Y-49953368D01*
X128484010Y-50196589D01*
X128372068Y-50466842D01*
X128315000Y-50753740D01*
X105685000Y-50753740D01*
X105685000Y-47678061D01*
X144235000Y-47678061D01*
X144235000Y-47881939D01*
X144274774Y-48081898D01*
X144352795Y-48270256D01*
X144466063Y-48439774D01*
X144610226Y-48583937D01*
X144779744Y-48697205D01*
X144968102Y-48775226D01*
X145168061Y-48815000D01*
X145371939Y-48815000D01*
X145571898Y-48775226D01*
X145760256Y-48697205D01*
X145929774Y-48583937D01*
X146073937Y-48439774D01*
X146187205Y-48270256D01*
X146265226Y-48081898D01*
X146305000Y-47881939D01*
X146305000Y-47698061D01*
X148565000Y-47698061D01*
X148565000Y-47901939D01*
X148604774Y-48101898D01*
X148682795Y-48290256D01*
X148796063Y-48459774D01*
X148940226Y-48603937D01*
X149109744Y-48717205D01*
X149298102Y-48795226D01*
X149498061Y-48835000D01*
X149701939Y-48835000D01*
X149901898Y-48795226D01*
X150090256Y-48717205D01*
X150259774Y-48603937D01*
X150403937Y-48459774D01*
X150517205Y-48290256D01*
X150595226Y-48101898D01*
X150635000Y-47901939D01*
X150635000Y-47698061D01*
X150595226Y-47498102D01*
X150517205Y-47309744D01*
X150403937Y-47140226D01*
X150259774Y-46996063D01*
X150090256Y-46882795D01*
X149901898Y-46804774D01*
X149701939Y-46765000D01*
X149498061Y-46765000D01*
X149298102Y-46804774D01*
X149109744Y-46882795D01*
X148940226Y-46996063D01*
X148796063Y-47140226D01*
X148682795Y-47309744D01*
X148604774Y-47498102D01*
X148565000Y-47698061D01*
X146305000Y-47698061D01*
X146305000Y-47678061D01*
X146265226Y-47478102D01*
X146187205Y-47289744D01*
X146073937Y-47120226D01*
X145929774Y-46976063D01*
X145760256Y-46862795D01*
X145571898Y-46784774D01*
X145371939Y-46745000D01*
X145168061Y-46745000D01*
X144968102Y-46784774D01*
X144779744Y-46862795D01*
X144610226Y-46976063D01*
X144466063Y-47120226D01*
X144352795Y-47289744D01*
X144274774Y-47478102D01*
X144235000Y-47678061D01*
X105685000Y-47678061D01*
X105685000Y-42698061D01*
X118365000Y-42698061D01*
X118365000Y-42901939D01*
X118404774Y-43101898D01*
X118482795Y-43290256D01*
X118596063Y-43459774D01*
X118740226Y-43603937D01*
X118909744Y-43717205D01*
X119098102Y-43795226D01*
X119298061Y-43835000D01*
X119501939Y-43835000D01*
X119701898Y-43795226D01*
X119802053Y-43753740D01*
X128315000Y-43753740D01*
X128315000Y-44046260D01*
X128372068Y-44333158D01*
X128484010Y-44603411D01*
X128646525Y-44846632D01*
X128853368Y-45053475D01*
X129096589Y-45215990D01*
X129366842Y-45327932D01*
X129653740Y-45385000D01*
X129946260Y-45385000D01*
X130233158Y-45327932D01*
X130503411Y-45215990D01*
X130746632Y-45053475D01*
X130953475Y-44846632D01*
X131052746Y-44698061D01*
X139265000Y-44698061D01*
X139265000Y-44901939D01*
X139304774Y-45101898D01*
X139382795Y-45290256D01*
X139496063Y-45459774D01*
X139640226Y-45603937D01*
X139809744Y-45717205D01*
X139998102Y-45795226D01*
X140198061Y-45835000D01*
X140401939Y-45835000D01*
X140601898Y-45795226D01*
X140790256Y-45717205D01*
X140959774Y-45603937D01*
X141103937Y-45459774D01*
X141217205Y-45290256D01*
X141295226Y-45101898D01*
X141335000Y-44901939D01*
X141335000Y-44698061D01*
X141295226Y-44498102D01*
X141217205Y-44309744D01*
X141103937Y-44140226D01*
X140959774Y-43996063D01*
X140790256Y-43882795D01*
X140601898Y-43804774D01*
X140401939Y-43765000D01*
X140198061Y-43765000D01*
X139998102Y-43804774D01*
X139809744Y-43882795D01*
X139640226Y-43996063D01*
X139496063Y-44140226D01*
X139382795Y-44309744D01*
X139304774Y-44498102D01*
X139265000Y-44698061D01*
X131052746Y-44698061D01*
X131115990Y-44603411D01*
X131227932Y-44333158D01*
X131285000Y-44046260D01*
X131285000Y-43753740D01*
X131227932Y-43466842D01*
X131115990Y-43196589D01*
X130953475Y-42953368D01*
X130798168Y-42798061D01*
X148265000Y-42798061D01*
X148265000Y-43001939D01*
X148304774Y-43201898D01*
X148382795Y-43390256D01*
X148496063Y-43559774D01*
X148640226Y-43703937D01*
X148809744Y-43817205D01*
X148998102Y-43895226D01*
X149198061Y-43935000D01*
X149401939Y-43935000D01*
X149601898Y-43895226D01*
X149790256Y-43817205D01*
X149959774Y-43703937D01*
X150103937Y-43559774D01*
X150217205Y-43390256D01*
X150295226Y-43201898D01*
X150335000Y-43001939D01*
X150335000Y-42798061D01*
X150295226Y-42598102D01*
X150217205Y-42409744D01*
X150103937Y-42240226D01*
X149959774Y-42096063D01*
X149790256Y-41982795D01*
X149601898Y-41904774D01*
X149401939Y-41865000D01*
X149198061Y-41865000D01*
X148998102Y-41904774D01*
X148809744Y-41982795D01*
X148640226Y-42096063D01*
X148496063Y-42240226D01*
X148382795Y-42409744D01*
X148304774Y-42598102D01*
X148265000Y-42798061D01*
X130798168Y-42798061D01*
X130746632Y-42746525D01*
X130503411Y-42584010D01*
X130233158Y-42472068D01*
X129946260Y-42415000D01*
X129653740Y-42415000D01*
X129366842Y-42472068D01*
X129096589Y-42584010D01*
X128853368Y-42746525D01*
X128646525Y-42953368D01*
X128484010Y-43196589D01*
X128372068Y-43466842D01*
X128315000Y-43753740D01*
X119802053Y-43753740D01*
X119890256Y-43717205D01*
X120059774Y-43603937D01*
X120203937Y-43459774D01*
X120317205Y-43290256D01*
X120395226Y-43101898D01*
X120435000Y-42901939D01*
X120435000Y-42698061D01*
X120395226Y-42498102D01*
X120317205Y-42309744D01*
X120203937Y-42140226D01*
X120059774Y-41996063D01*
X119890256Y-41882795D01*
X119701898Y-41804774D01*
X119501939Y-41765000D01*
X119298061Y-41765000D01*
X119098102Y-41804774D01*
X118909744Y-41882795D01*
X118740226Y-41996063D01*
X118596063Y-42140226D01*
X118482795Y-42309744D01*
X118404774Y-42498102D01*
X118365000Y-42698061D01*
X105685000Y-42698061D01*
X105685000Y-38825701D01*
X107315000Y-38825701D01*
X107315000Y-39374299D01*
X107422026Y-39912354D01*
X107631965Y-40419192D01*
X107936750Y-40875334D01*
X108324666Y-41263250D01*
X108780808Y-41568035D01*
X109287646Y-41777974D01*
X109825701Y-41885000D01*
X110374299Y-41885000D01*
X110912354Y-41777974D01*
X111419192Y-41568035D01*
X111875334Y-41263250D01*
X112263250Y-40875334D01*
X112568035Y-40419192D01*
X112777974Y-39912354D01*
X112885000Y-39374299D01*
X112885000Y-38825701D01*
X167115000Y-38825701D01*
X167115000Y-39374299D01*
X167222026Y-39912354D01*
X167431965Y-40419192D01*
X167736750Y-40875334D01*
X168124666Y-41263250D01*
X168580808Y-41568035D01*
X169087646Y-41777974D01*
X169625701Y-41885000D01*
X170174299Y-41885000D01*
X170712354Y-41777974D01*
X171219192Y-41568035D01*
X171675334Y-41263250D01*
X172063250Y-40875334D01*
X172368035Y-40419192D01*
X172577974Y-39912354D01*
X172685000Y-39374299D01*
X172685000Y-38825701D01*
X172577974Y-38287646D01*
X172368035Y-37780808D01*
X172063250Y-37324666D01*
X171675334Y-36936750D01*
X171219192Y-36631965D01*
X170712354Y-36422026D01*
X170174299Y-36315000D01*
X169625701Y-36315000D01*
X169087646Y-36422026D01*
X168580808Y-36631965D01*
X168124666Y-36936750D01*
X167736750Y-37324666D01*
X167431965Y-37780808D01*
X167222026Y-38287646D01*
X167115000Y-38825701D01*
X112885000Y-38825701D01*
X112777974Y-38287646D01*
X112568035Y-37780808D01*
X112263250Y-37324666D01*
X111875334Y-36936750D01*
X111419192Y-36631965D01*
X110912354Y-36422026D01*
X110374299Y-36315000D01*
X109825701Y-36315000D01*
X109287646Y-36422026D01*
X108780808Y-36631965D01*
X108324666Y-36936750D01*
X107936750Y-37324666D01*
X107631965Y-37780808D01*
X107422026Y-38287646D01*
X107315000Y-38825701D01*
X105685000Y-38825701D01*
X105685000Y-34685000D01*
X174315000Y-34685000D01*
X174315001Y-111315000D01*
G37*
%TD.AperFunction*%
%TD*%
M02*
