M48
; DRILL file {KiCad 5.1.10-88a1d61d58~88~ubuntu20.04.1} date Sun May  9 11:34:58 2021
; FORMAT={-:-/ absolute / inch / decimal}
; #@! TF.CreationDate,2021-05-09T11:34:58+02:00
; #@! TF.GenerationSoftware,Kicad,Pcbnew,5.1.10-88a1d61d58~88~ubuntu20.04.1
; #@! TF.FileFunction,Plated,1,4,PTH
FMAT,2
INCH
T1C0.0157
T2C0.0295
T3C0.0394
%
G90
G05
T1
X4.311Y-3.7677
X4.4685Y-3.1299
X4.5669Y-3.8976
X4.5748Y-3.4291
X4.5748Y-3.6142
X4.6102Y-4.126
X4.6654Y-4.2008
X4.6811Y-3.7323
X4.685Y-2.9331
X4.7008Y-1.685
X4.7677Y-3.064
X4.7677Y-3.2657
X4.7677Y-3.4449
X4.8189Y-3.1496
X4.8583Y-3.2559
X4.8819Y-3.689
X4.9016Y-3.3268
X4.9016Y-3.4055
X4.9173Y-4.126
X4.9409Y-3.8189
X4.9449Y-3.4055
X4.9921Y-4.1929
X5.0Y-3.685
X5.0157Y-2.9244
X5.0354Y-2.4339
X5.0394Y-2.5315
X5.0472Y-2.8031
X5.0512Y-2.7126
X5.0512Y-3.252
X5.1181Y-2.185
X5.1181Y-2.2441
X5.126Y-3.4528
X5.1299Y-3.1102
X5.1457Y-3.3189
X5.1614Y-3.2283
X5.1772Y-2.185
X5.1772Y-2.2441
X5.1811Y-3.5039
X5.1811Y-3.5984
X5.2205Y-2.8071
X5.2283Y-2.437
X5.2283Y-2.5354
X5.2441Y-2.7126
X5.248Y-2.9252
X5.3346Y-2.4409
X5.3425Y-3.4016
X5.3465Y-3.2283
X5.3465Y-3.3189
X5.3465Y-3.5039
X5.3465Y-3.6024
X5.3858Y-3.1102
X5.4331Y-4.1299
X5.4488Y-3.4252
X5.4488Y-4.2087
X5.4528Y-3.248
X5.5236Y-1.7638
X5.5866Y-2.5591
X5.6535Y-3.9016
X5.6576Y-3.1063
X5.6654Y-2.9055
X5.689Y-4.1142
X5.7047Y-3.7559
X5.7193Y-1.8811
X5.751Y-3.8189
X5.7559Y-3.622
X5.7677Y-2.7913
X5.778Y-2.1102
X5.7835Y-3.7638
X5.815Y-3.7087
X5.8307Y-4.0787
X5.8346Y-1.9882
X5.8386Y-2.9606
X5.8425Y-2.374
X5.8583Y-3.1024
X5.8701Y-3.9882
X5.878Y-1.689
X5.878Y-2.0276
X5.8898Y-1.8819
X5.8976Y-4.2992
X5.9055Y-3.7126
X5.9134Y-3.815
X5.9567Y-4.0039
X5.9803Y-1.9646
X5.9843Y-2.9055
X5.9961Y-2.3346
X6.0079Y-2.6732
X6.0157Y-3.6299
X6.0236Y-1.7441
X6.0236Y-4.0039
X6.0394Y-2.1535
X6.0394Y-3.9055
X6.0472Y-3.7126
X6.1024Y-2.2205
X6.1378Y-3.1024
X6.1417Y-3.4685
X6.1575Y-2.0079
X6.1614Y-2.4134
X6.1693Y-2.8898
X6.1811Y-2.8346
X6.1969Y-3.3701
X6.2244Y-3.9567
X6.2323Y-2.9921
X6.2323Y-3.6732
X6.2795Y-2.4685
X6.3081Y-3.3701
X6.3228Y-3.311
X6.3268Y-3.5669
X6.3268Y-3.8268
X6.3386Y-2.5906
X6.3386Y-3.9016
X6.3622Y-2.8307
X6.3661Y-3.4173
X6.3701Y-3.189
X6.3898Y-3.9528
X6.3937Y-3.1575
X6.4134Y-4.1102
X6.4291Y-3.4173
X6.4409Y-4.1929
X6.4488Y-3.1535
X6.4606Y-3.7008
X6.4646Y-2.7323
X6.4646Y-3.815
X6.4803Y-3.9252
X6.4843Y-3.2087
X6.4921Y-3.2953
X6.5Y-3.6811
X6.5236Y-3.1457
X6.5866Y-3.1457
X6.748Y-2.9291
T3
X4.4685Y-3.2465
X4.4685Y-3.3465
T1
G00X4.5864Y-4.2743
M15
G01X4.5864Y-4.2979
M16
G05
G00X4.7864Y-4.2743
M15
G01X4.7864Y-4.2979
M16
G05
G00X4.9079Y-4.2736
M15
G01X4.9079Y-4.2972
M16
G05
G00X5.1079Y-4.2736
M15
G01X5.1079Y-4.2972
M16
G05
G00X5.2352Y-4.2751
M15
G01X5.2352Y-4.2987
M16
G05
G00X5.4352Y-4.2751
M15
G01X5.4352Y-4.2987
M16
G05
G00X6.2301Y-4.2605
M15
G01X6.2301Y-4.2841
M16
G05
G00X6.4301Y-4.2605
M15
G01X6.4301Y-4.2841
M16
G05
T2
G00X6.6654Y-3.6123
M15
G01X6.6831Y-3.6123
M16
G05
G00X6.6654Y-3.8523
M15
G01X6.6831Y-3.8523
M16
G05
T0
M30
