%TF.GenerationSoftware,KiCad,Pcbnew,5.1.10-88a1d61d58~88~ubuntu20.04.1*%
%TF.CreationDate,2021-05-09T11:34:52+02:00*%
%TF.ProjectId,osw-light-modifiedv2,6f73772d-6c69-4676-9874-2d6d6f646966,rev?*%
%TF.SameCoordinates,Original*%
%TF.FileFunction,Paste,Top*%
%TF.FilePolarity,Positive*%
%FSLAX46Y46*%
G04 Gerber Fmt 4.6, Leading zero omitted, Abs format (unit mm)*
G04 Created by KiCad (PCBNEW 5.1.10-88a1d61d58~88~ubuntu20.04.1) date 2021-05-09 11:34:52*
%MOMM*%
%LPD*%
G01*
G04 APERTURE LIST*
%ADD10C,0.127000*%
%ADD11C,0.100000*%
%ADD12R,0.250000X0.500000*%
%ADD13R,0.500000X0.250000*%
%ADD14R,1.350000X0.400000*%
%ADD15O,2.000000X1.500000*%
%ADD16R,2.000000X2.000000*%
%ADD17R,1.400000X0.300000*%
%ADD18R,0.650000X1.060000*%
%ADD19R,0.250000X1.100000*%
%ADD20R,1.524000X0.600000*%
%ADD21R,0.600000X1.524000*%
%ADD22R,0.350000X0.375000*%
%ADD23R,0.375000X0.350000*%
%ADD24R,1.060000X0.650000*%
%ADD25R,0.500000X1.524000*%
%ADD26R,0.900000X0.800000*%
%ADD27R,2.800000X2.800000*%
%ADD28R,2.800000X2.600000*%
%ADD29R,2.800000X2.200000*%
%ADD30R,1.750000X0.600000*%
G04 APERTURE END LIST*
D10*
%TO.C,U3*%
G36*
X148700000Y-50392000D02*
G01*
X148726587Y-50392696D01*
X148753100Y-50394783D01*
X148779469Y-50398254D01*
X148805619Y-50403101D01*
X148831480Y-50409310D01*
X148856981Y-50416863D01*
X148882051Y-50425741D01*
X148906622Y-50435919D01*
X148930627Y-50447369D01*
X148954000Y-50460059D01*
X148976677Y-50473955D01*
X148998595Y-50489019D01*
X149019695Y-50505210D01*
X149039918Y-50522482D01*
X149059210Y-50540790D01*
X149077518Y-50560082D01*
X149094790Y-50580305D01*
X149110981Y-50601405D01*
X149126045Y-50623323D01*
X149139941Y-50646000D01*
X149152631Y-50669373D01*
X149164081Y-50693378D01*
X149174259Y-50717949D01*
X149183137Y-50743019D01*
X149190690Y-50768520D01*
X149196899Y-50794381D01*
X149201746Y-50820531D01*
X149205217Y-50846900D01*
X149207304Y-50873413D01*
X149208000Y-50900000D01*
X149207304Y-50926587D01*
X149205217Y-50953100D01*
X149201746Y-50979469D01*
X149196899Y-51005619D01*
X149190690Y-51031480D01*
X149183137Y-51056981D01*
X149174259Y-51082051D01*
X149164081Y-51106622D01*
X149152631Y-51130627D01*
X149139941Y-51154000D01*
X149126045Y-51176677D01*
X149110981Y-51198595D01*
X149094790Y-51219695D01*
X149077518Y-51239918D01*
X149059210Y-51259210D01*
X149039918Y-51277518D01*
X149019695Y-51294790D01*
X148998595Y-51310981D01*
X148976677Y-51326045D01*
X148954000Y-51339941D01*
X148930627Y-51352631D01*
X148906622Y-51364081D01*
X148882051Y-51374259D01*
X148856981Y-51383137D01*
X148831480Y-51390690D01*
X148805619Y-51396899D01*
X148779469Y-51401746D01*
X148753100Y-51405217D01*
X148726587Y-51407304D01*
X148700000Y-51408000D01*
X148673413Y-51407304D01*
X148646900Y-51405217D01*
X148620531Y-51401746D01*
X148594381Y-51396899D01*
X148568520Y-51390690D01*
X148543019Y-51383137D01*
X148517949Y-51374259D01*
X148493378Y-51364081D01*
X148469373Y-51352631D01*
X148446000Y-51339941D01*
X148423323Y-51326045D01*
X148401405Y-51310981D01*
X148380305Y-51294790D01*
X148360082Y-51277518D01*
X148340790Y-51259210D01*
X148322482Y-51239918D01*
X148305210Y-51219695D01*
X148289019Y-51198595D01*
X148273955Y-51176677D01*
X148260059Y-51154000D01*
X148247369Y-51130627D01*
X148235919Y-51106622D01*
X148225741Y-51082051D01*
X148216863Y-51056981D01*
X148209310Y-51031480D01*
X148203101Y-51005619D01*
X148198254Y-50979469D01*
X148194783Y-50953100D01*
X148192696Y-50926587D01*
X148192000Y-50900000D01*
X148192696Y-50873413D01*
X148194783Y-50846900D01*
X148198254Y-50820531D01*
X148203101Y-50794381D01*
X148209310Y-50768520D01*
X148216863Y-50743019D01*
X148225741Y-50717949D01*
X148235919Y-50693378D01*
X148247369Y-50669373D01*
X148260059Y-50646000D01*
X148273955Y-50623323D01*
X148289019Y-50601405D01*
X148305210Y-50580305D01*
X148322482Y-50560082D01*
X148340790Y-50540790D01*
X148360082Y-50522482D01*
X148380305Y-50505210D01*
X148401405Y-50489019D01*
X148423323Y-50473955D01*
X148446000Y-50460059D01*
X148469373Y-50447369D01*
X148493378Y-50435919D01*
X148517949Y-50425741D01*
X148543019Y-50416863D01*
X148568520Y-50409310D01*
X148594381Y-50403101D01*
X148620531Y-50398254D01*
X148646900Y-50394783D01*
X148673413Y-50392696D01*
X148700000Y-50392000D01*
G37*
X148700000Y-50392000D02*
X148726587Y-50392696D01*
X148753100Y-50394783D01*
X148779469Y-50398254D01*
X148805619Y-50403101D01*
X148831480Y-50409310D01*
X148856981Y-50416863D01*
X148882051Y-50425741D01*
X148906622Y-50435919D01*
X148930627Y-50447369D01*
X148954000Y-50460059D01*
X148976677Y-50473955D01*
X148998595Y-50489019D01*
X149019695Y-50505210D01*
X149039918Y-50522482D01*
X149059210Y-50540790D01*
X149077518Y-50560082D01*
X149094790Y-50580305D01*
X149110981Y-50601405D01*
X149126045Y-50623323D01*
X149139941Y-50646000D01*
X149152631Y-50669373D01*
X149164081Y-50693378D01*
X149174259Y-50717949D01*
X149183137Y-50743019D01*
X149190690Y-50768520D01*
X149196899Y-50794381D01*
X149201746Y-50820531D01*
X149205217Y-50846900D01*
X149207304Y-50873413D01*
X149208000Y-50900000D01*
X149207304Y-50926587D01*
X149205217Y-50953100D01*
X149201746Y-50979469D01*
X149196899Y-51005619D01*
X149190690Y-51031480D01*
X149183137Y-51056981D01*
X149174259Y-51082051D01*
X149164081Y-51106622D01*
X149152631Y-51130627D01*
X149139941Y-51154000D01*
X149126045Y-51176677D01*
X149110981Y-51198595D01*
X149094790Y-51219695D01*
X149077518Y-51239918D01*
X149059210Y-51259210D01*
X149039918Y-51277518D01*
X149019695Y-51294790D01*
X148998595Y-51310981D01*
X148976677Y-51326045D01*
X148954000Y-51339941D01*
X148930627Y-51352631D01*
X148906622Y-51364081D01*
X148882051Y-51374259D01*
X148856981Y-51383137D01*
X148831480Y-51390690D01*
X148805619Y-51396899D01*
X148779469Y-51401746D01*
X148753100Y-51405217D01*
X148726587Y-51407304D01*
X148700000Y-51408000D01*
X148673413Y-51407304D01*
X148646900Y-51405217D01*
X148620531Y-51401746D01*
X148594381Y-51396899D01*
X148568520Y-51390690D01*
X148543019Y-51383137D01*
X148517949Y-51374259D01*
X148493378Y-51364081D01*
X148469373Y-51352631D01*
X148446000Y-51339941D01*
X148423323Y-51326045D01*
X148401405Y-51310981D01*
X148380305Y-51294790D01*
X148360082Y-51277518D01*
X148340790Y-51259210D01*
X148322482Y-51239918D01*
X148305210Y-51219695D01*
X148289019Y-51198595D01*
X148273955Y-51176677D01*
X148260059Y-51154000D01*
X148247369Y-51130627D01*
X148235919Y-51106622D01*
X148225741Y-51082051D01*
X148216863Y-51056981D01*
X148209310Y-51031480D01*
X148203101Y-51005619D01*
X148198254Y-50979469D01*
X148194783Y-50953100D01*
X148192696Y-50926587D01*
X148192000Y-50900000D01*
X148192696Y-50873413D01*
X148194783Y-50846900D01*
X148198254Y-50820531D01*
X148203101Y-50794381D01*
X148209310Y-50768520D01*
X148216863Y-50743019D01*
X148225741Y-50717949D01*
X148235919Y-50693378D01*
X148247369Y-50669373D01*
X148260059Y-50646000D01*
X148273955Y-50623323D01*
X148289019Y-50601405D01*
X148305210Y-50580305D01*
X148322482Y-50560082D01*
X148340790Y-50540790D01*
X148360082Y-50522482D01*
X148380305Y-50505210D01*
X148401405Y-50489019D01*
X148423323Y-50473955D01*
X148446000Y-50460059D01*
X148469373Y-50447369D01*
X148493378Y-50435919D01*
X148517949Y-50425741D01*
X148543019Y-50416863D01*
X148568520Y-50409310D01*
X148594381Y-50403101D01*
X148620531Y-50398254D01*
X148646900Y-50394783D01*
X148673413Y-50392696D01*
X148700000Y-50392000D01*
D11*
%TO.C,U6*%
G36*
X145700000Y-83300000D02*
G01*
X145700000Y-81500000D01*
X147500000Y-81500000D01*
X147500000Y-83300000D01*
X145700000Y-83300000D01*
G37*
X145700000Y-83300000D02*
X145700000Y-81500000D01*
X147500000Y-81500000D01*
X147500000Y-83300000D01*
X145700000Y-83300000D01*
G36*
X145700000Y-85600000D02*
G01*
X145700000Y-83800000D01*
X147500000Y-83800000D01*
X147500000Y-85600000D01*
X145700000Y-85600000D01*
G37*
X145700000Y-85600000D02*
X145700000Y-83800000D01*
X147500000Y-83800000D01*
X147500000Y-85600000D01*
X145700000Y-85600000D01*
G36*
X148000000Y-85600000D02*
G01*
X148000000Y-83800000D01*
X149800000Y-83800000D01*
X149800000Y-85600000D01*
X148000000Y-85600000D01*
G37*
X148000000Y-85600000D02*
X148000000Y-83800000D01*
X149800000Y-83800000D01*
X149800000Y-85600000D01*
X148000000Y-85600000D01*
G36*
X148000000Y-83300000D02*
G01*
X148000000Y-81500000D01*
X149800000Y-81500000D01*
X149800000Y-83300000D01*
X148000000Y-83300000D01*
G37*
X148000000Y-83300000D02*
X148000000Y-81500000D01*
X149800000Y-81500000D01*
X149800000Y-83300000D01*
X148000000Y-83300000D01*
%TD*%
D12*
%TO.C,U3*%
X147700000Y-49050000D03*
X148200000Y-49050000D03*
X148700000Y-49050000D03*
X149200000Y-49050000D03*
X149700000Y-49050000D03*
D13*
X150550000Y-49900000D03*
X150550000Y-50400000D03*
X150550000Y-50900000D03*
X150550000Y-51400000D03*
X150550000Y-51900000D03*
D12*
X149700000Y-52750000D03*
X149200000Y-52750000D03*
X148700000Y-52750000D03*
X148200000Y-52750000D03*
X147700000Y-52750000D03*
D13*
X146850000Y-51900000D03*
X146850000Y-51400000D03*
X146850000Y-50900000D03*
X146850000Y-50400000D03*
X146850000Y-49900000D03*
%TD*%
D14*
%TO.C,U12*%
X166725000Y-93500000D03*
X166725000Y-94150000D03*
X166725000Y-94800000D03*
X166725000Y-95450000D03*
X166725000Y-96100000D03*
D15*
X169527000Y-91752000D03*
D16*
X169400000Y-94800000D03*
D15*
X169527000Y-97848000D03*
%TD*%
D17*
%TO.C,U11*%
X158100000Y-96300000D03*
X158100000Y-96800000D03*
X158100000Y-97300000D03*
X158100000Y-97800000D03*
X158100000Y-98300000D03*
X162500000Y-98300000D03*
X162500000Y-97800000D03*
X162500000Y-97300000D03*
X162500000Y-96800000D03*
X162500000Y-96300000D03*
%TD*%
D18*
%TO.C,U9*%
X129810000Y-66680000D03*
X131710000Y-66680000D03*
X131710000Y-68880000D03*
X130760000Y-68880000D03*
X129810000Y-68880000D03*
%TD*%
%TO.C,U8*%
X134390000Y-86600000D03*
X132490000Y-86600000D03*
X132490000Y-84400000D03*
X133440000Y-84400000D03*
X134390000Y-84400000D03*
%TD*%
D19*
%TO.C,U7*%
X157000000Y-67050000D03*
X156500000Y-67050000D03*
X156000000Y-67050000D03*
X155500000Y-67050000D03*
X155000000Y-67050000D03*
X155000000Y-62750000D03*
X155500000Y-62750000D03*
X156000000Y-62750000D03*
X156500000Y-62750000D03*
X157000000Y-62750000D03*
%TD*%
D20*
%TO.C,U6*%
X141300000Y-87056000D03*
X141300000Y-86040000D03*
X141300000Y-85024000D03*
X141300000Y-84008000D03*
X141300000Y-82992000D03*
X141300000Y-81976000D03*
X141300000Y-80960000D03*
X141300000Y-79944000D03*
D21*
X150816000Y-90000000D03*
X156912000Y-90000000D03*
X147768000Y-90000000D03*
X148784000Y-90000000D03*
X155896000Y-90000000D03*
X154880000Y-90000000D03*
X153864000Y-90000000D03*
X152848000Y-90000000D03*
X142688000Y-90000000D03*
X143704000Y-90000000D03*
X149800000Y-90000000D03*
X145736000Y-90000000D03*
X151832000Y-90000000D03*
X146752000Y-90000000D03*
X144720000Y-90000000D03*
X156912000Y-77000000D03*
X155896000Y-77000000D03*
X154880000Y-77000000D03*
X153864000Y-77000000D03*
X152848000Y-77000000D03*
X151832000Y-77000000D03*
X150816000Y-77000000D03*
X149800000Y-77000000D03*
X148800000Y-77000000D03*
X147768000Y-77000000D03*
X146752000Y-77000000D03*
X145736000Y-77000000D03*
X144720000Y-77000000D03*
X143704000Y-77000000D03*
X142688000Y-77000000D03*
%TD*%
%TO.C,U5*%
G36*
G01*
X126375000Y-81900000D02*
X126575000Y-81900000D01*
G75*
G02*
X126675000Y-82000000I0J-100000D01*
G01*
X126675000Y-83275000D01*
G75*
G02*
X126575000Y-83375000I-100000J0D01*
G01*
X126375000Y-83375000D01*
G75*
G02*
X126275000Y-83275000I0J100000D01*
G01*
X126275000Y-82000000D01*
G75*
G02*
X126375000Y-81900000I100000J0D01*
G01*
G37*
G36*
G01*
X125725000Y-81900000D02*
X125925000Y-81900000D01*
G75*
G02*
X126025000Y-82000000I0J-100000D01*
G01*
X126025000Y-83275000D01*
G75*
G02*
X125925000Y-83375000I-100000J0D01*
G01*
X125725000Y-83375000D01*
G75*
G02*
X125625000Y-83275000I0J100000D01*
G01*
X125625000Y-82000000D01*
G75*
G02*
X125725000Y-81900000I100000J0D01*
G01*
G37*
G36*
G01*
X125075000Y-81900000D02*
X125275000Y-81900000D01*
G75*
G02*
X125375000Y-82000000I0J-100000D01*
G01*
X125375000Y-83275000D01*
G75*
G02*
X125275000Y-83375000I-100000J0D01*
G01*
X125075000Y-83375000D01*
G75*
G02*
X124975000Y-83275000I0J100000D01*
G01*
X124975000Y-82000000D01*
G75*
G02*
X125075000Y-81900000I100000J0D01*
G01*
G37*
G36*
G01*
X124425000Y-81900000D02*
X124625000Y-81900000D01*
G75*
G02*
X124725000Y-82000000I0J-100000D01*
G01*
X124725000Y-83275000D01*
G75*
G02*
X124625000Y-83375000I-100000J0D01*
G01*
X124425000Y-83375000D01*
G75*
G02*
X124325000Y-83275000I0J100000D01*
G01*
X124325000Y-82000000D01*
G75*
G02*
X124425000Y-81900000I100000J0D01*
G01*
G37*
G36*
G01*
X124425000Y-87625000D02*
X124625000Y-87625000D01*
G75*
G02*
X124725000Y-87725000I0J-100000D01*
G01*
X124725000Y-89000000D01*
G75*
G02*
X124625000Y-89100000I-100000J0D01*
G01*
X124425000Y-89100000D01*
G75*
G02*
X124325000Y-89000000I0J100000D01*
G01*
X124325000Y-87725000D01*
G75*
G02*
X124425000Y-87625000I100000J0D01*
G01*
G37*
G36*
G01*
X125075000Y-87625000D02*
X125275000Y-87625000D01*
G75*
G02*
X125375000Y-87725000I0J-100000D01*
G01*
X125375000Y-89000000D01*
G75*
G02*
X125275000Y-89100000I-100000J0D01*
G01*
X125075000Y-89100000D01*
G75*
G02*
X124975000Y-89000000I0J100000D01*
G01*
X124975000Y-87725000D01*
G75*
G02*
X125075000Y-87625000I100000J0D01*
G01*
G37*
G36*
G01*
X125725000Y-87625000D02*
X125925000Y-87625000D01*
G75*
G02*
X126025000Y-87725000I0J-100000D01*
G01*
X126025000Y-89000000D01*
G75*
G02*
X125925000Y-89100000I-100000J0D01*
G01*
X125725000Y-89100000D01*
G75*
G02*
X125625000Y-89000000I0J100000D01*
G01*
X125625000Y-87725000D01*
G75*
G02*
X125725000Y-87625000I100000J0D01*
G01*
G37*
G36*
G01*
X126375000Y-87625000D02*
X126575000Y-87625000D01*
G75*
G02*
X126675000Y-87725000I0J-100000D01*
G01*
X126675000Y-89000000D01*
G75*
G02*
X126575000Y-89100000I-100000J0D01*
G01*
X126375000Y-89100000D01*
G75*
G02*
X126275000Y-89000000I0J100000D01*
G01*
X126275000Y-87725000D01*
G75*
G02*
X126375000Y-87625000I100000J0D01*
G01*
G37*
%TD*%
D22*
%TO.C,U4*%
X163100000Y-82167500D03*
X162600000Y-82167500D03*
X163100000Y-83692500D03*
X162600000Y-83692500D03*
X162100000Y-82167500D03*
X162100000Y-83692500D03*
X163600000Y-82167500D03*
X163600000Y-83692500D03*
D23*
X162087500Y-82680000D03*
X162087500Y-83180000D03*
X163612500Y-83180000D03*
X163612500Y-82680000D03*
%TD*%
D24*
%TO.C,U2*%
X114600000Y-95950000D03*
X114600000Y-95000000D03*
X114600000Y-94050000D03*
X112400000Y-94050000D03*
X112400000Y-95950000D03*
%TD*%
%TO.C,U1*%
G36*
G01*
X165000000Y-75555000D02*
X165000000Y-75855000D01*
G75*
G02*
X164850000Y-76005000I-150000J0D01*
G01*
X163200000Y-76005000D01*
G75*
G02*
X163050000Y-75855000I0J150000D01*
G01*
X163050000Y-75555000D01*
G75*
G02*
X163200000Y-75405000I150000J0D01*
G01*
X164850000Y-75405000D01*
G75*
G02*
X165000000Y-75555000I0J-150000D01*
G01*
G37*
G36*
G01*
X165000000Y-74285000D02*
X165000000Y-74585000D01*
G75*
G02*
X164850000Y-74735000I-150000J0D01*
G01*
X163200000Y-74735000D01*
G75*
G02*
X163050000Y-74585000I0J150000D01*
G01*
X163050000Y-74285000D01*
G75*
G02*
X163200000Y-74135000I150000J0D01*
G01*
X164850000Y-74135000D01*
G75*
G02*
X165000000Y-74285000I0J-150000D01*
G01*
G37*
G36*
G01*
X165000000Y-73015000D02*
X165000000Y-73315000D01*
G75*
G02*
X164850000Y-73465000I-150000J0D01*
G01*
X163200000Y-73465000D01*
G75*
G02*
X163050000Y-73315000I0J150000D01*
G01*
X163050000Y-73015000D01*
G75*
G02*
X163200000Y-72865000I150000J0D01*
G01*
X164850000Y-72865000D01*
G75*
G02*
X165000000Y-73015000I0J-150000D01*
G01*
G37*
G36*
G01*
X165000000Y-71745000D02*
X165000000Y-72045000D01*
G75*
G02*
X164850000Y-72195000I-150000J0D01*
G01*
X163200000Y-72195000D01*
G75*
G02*
X163050000Y-72045000I0J150000D01*
G01*
X163050000Y-71745000D01*
G75*
G02*
X163200000Y-71595000I150000J0D01*
G01*
X164850000Y-71595000D01*
G75*
G02*
X165000000Y-71745000I0J-150000D01*
G01*
G37*
G36*
G01*
X169950000Y-71745000D02*
X169950000Y-72045000D01*
G75*
G02*
X169800000Y-72195000I-150000J0D01*
G01*
X168150000Y-72195000D01*
G75*
G02*
X168000000Y-72045000I0J150000D01*
G01*
X168000000Y-71745000D01*
G75*
G02*
X168150000Y-71595000I150000J0D01*
G01*
X169800000Y-71595000D01*
G75*
G02*
X169950000Y-71745000I0J-150000D01*
G01*
G37*
G36*
G01*
X169950000Y-73015000D02*
X169950000Y-73315000D01*
G75*
G02*
X169800000Y-73465000I-150000J0D01*
G01*
X168150000Y-73465000D01*
G75*
G02*
X168000000Y-73315000I0J150000D01*
G01*
X168000000Y-73015000D01*
G75*
G02*
X168150000Y-72865000I150000J0D01*
G01*
X169800000Y-72865000D01*
G75*
G02*
X169950000Y-73015000I0J-150000D01*
G01*
G37*
G36*
G01*
X169950000Y-74285000D02*
X169950000Y-74585000D01*
G75*
G02*
X169800000Y-74735000I-150000J0D01*
G01*
X168150000Y-74735000D01*
G75*
G02*
X168000000Y-74585000I0J150000D01*
G01*
X168000000Y-74285000D01*
G75*
G02*
X168150000Y-74135000I150000J0D01*
G01*
X169800000Y-74135000D01*
G75*
G02*
X169950000Y-74285000I0J-150000D01*
G01*
G37*
G36*
G01*
X169950000Y-75555000D02*
X169950000Y-75855000D01*
G75*
G02*
X169800000Y-76005000I-150000J0D01*
G01*
X168150000Y-76005000D01*
G75*
G02*
X168000000Y-75855000I0J150000D01*
G01*
X168000000Y-75555000D01*
G75*
G02*
X168150000Y-75405000I150000J0D01*
G01*
X169800000Y-75405000D01*
G75*
G02*
X169950000Y-75555000I0J-150000D01*
G01*
G37*
%TD*%
D25*
%TO.C,SW4*%
X137190001Y-107366999D03*
X133840001Y-107366999D03*
%TD*%
%TO.C,SW3*%
X162460001Y-106996999D03*
X159110001Y-106996999D03*
%TD*%
%TO.C,SW2*%
X120710001Y-107346999D03*
X117360001Y-107346999D03*
%TD*%
%TO.C,SW1*%
X128875000Y-107330000D03*
X125525000Y-107330000D03*
%TD*%
%TO.C,R33*%
G36*
G01*
X150925000Y-103675000D02*
X150925000Y-103125000D01*
G75*
G02*
X151125000Y-102925000I200000J0D01*
G01*
X151525000Y-102925000D01*
G75*
G02*
X151725000Y-103125000I0J-200000D01*
G01*
X151725000Y-103675000D01*
G75*
G02*
X151525000Y-103875000I-200000J0D01*
G01*
X151125000Y-103875000D01*
G75*
G02*
X150925000Y-103675000I0J200000D01*
G01*
G37*
G36*
G01*
X149275000Y-103675000D02*
X149275000Y-103125000D01*
G75*
G02*
X149475000Y-102925000I200000J0D01*
G01*
X149875000Y-102925000D01*
G75*
G02*
X150075000Y-103125000I0J-200000D01*
G01*
X150075000Y-103675000D01*
G75*
G02*
X149875000Y-103875000I-200000J0D01*
G01*
X149475000Y-103875000D01*
G75*
G02*
X149275000Y-103675000I0J200000D01*
G01*
G37*
%TD*%
%TO.C,R32*%
G36*
G01*
X162775000Y-92575000D02*
X162225000Y-92575000D01*
G75*
G02*
X162025000Y-92375000I0J200000D01*
G01*
X162025000Y-91975000D01*
G75*
G02*
X162225000Y-91775000I200000J0D01*
G01*
X162775000Y-91775000D01*
G75*
G02*
X162975000Y-91975000I0J-200000D01*
G01*
X162975000Y-92375000D01*
G75*
G02*
X162775000Y-92575000I-200000J0D01*
G01*
G37*
G36*
G01*
X162775000Y-94225000D02*
X162225000Y-94225000D01*
G75*
G02*
X162025000Y-94025000I0J200000D01*
G01*
X162025000Y-93625000D01*
G75*
G02*
X162225000Y-93425000I200000J0D01*
G01*
X162775000Y-93425000D01*
G75*
G02*
X162975000Y-93625000I0J-200000D01*
G01*
X162975000Y-94025000D01*
G75*
G02*
X162775000Y-94225000I-200000J0D01*
G01*
G37*
%TD*%
%TO.C,R31*%
G36*
G01*
X135075000Y-104625000D02*
X135075000Y-105175000D01*
G75*
G02*
X134875000Y-105375000I-200000J0D01*
G01*
X134475000Y-105375000D01*
G75*
G02*
X134275000Y-105175000I0J200000D01*
G01*
X134275000Y-104625000D01*
G75*
G02*
X134475000Y-104425000I200000J0D01*
G01*
X134875000Y-104425000D01*
G75*
G02*
X135075000Y-104625000I0J-200000D01*
G01*
G37*
G36*
G01*
X136725000Y-104625000D02*
X136725000Y-105175000D01*
G75*
G02*
X136525000Y-105375000I-200000J0D01*
G01*
X136125000Y-105375000D01*
G75*
G02*
X135925000Y-105175000I0J200000D01*
G01*
X135925000Y-104625000D01*
G75*
G02*
X136125000Y-104425000I200000J0D01*
G01*
X136525000Y-104425000D01*
G75*
G02*
X136725000Y-104625000I0J-200000D01*
G01*
G37*
%TD*%
%TO.C,R30*%
G36*
G01*
X145225000Y-73425000D02*
X145775000Y-73425000D01*
G75*
G02*
X145975000Y-73625000I0J-200000D01*
G01*
X145975000Y-74025000D01*
G75*
G02*
X145775000Y-74225000I-200000J0D01*
G01*
X145225000Y-74225000D01*
G75*
G02*
X145025000Y-74025000I0J200000D01*
G01*
X145025000Y-73625000D01*
G75*
G02*
X145225000Y-73425000I200000J0D01*
G01*
G37*
G36*
G01*
X145225000Y-71775000D02*
X145775000Y-71775000D01*
G75*
G02*
X145975000Y-71975000I0J-200000D01*
G01*
X145975000Y-72375000D01*
G75*
G02*
X145775000Y-72575000I-200000J0D01*
G01*
X145225000Y-72575000D01*
G75*
G02*
X145025000Y-72375000I0J200000D01*
G01*
X145025000Y-71975000D01*
G75*
G02*
X145225000Y-71775000I200000J0D01*
G01*
G37*
%TD*%
%TO.C,R29*%
G36*
G01*
X155275000Y-93075000D02*
X154725000Y-93075000D01*
G75*
G02*
X154525000Y-92875000I0J200000D01*
G01*
X154525000Y-92475000D01*
G75*
G02*
X154725000Y-92275000I200000J0D01*
G01*
X155275000Y-92275000D01*
G75*
G02*
X155475000Y-92475000I0J-200000D01*
G01*
X155475000Y-92875000D01*
G75*
G02*
X155275000Y-93075000I-200000J0D01*
G01*
G37*
G36*
G01*
X155275000Y-94725000D02*
X154725000Y-94725000D01*
G75*
G02*
X154525000Y-94525000I0J200000D01*
G01*
X154525000Y-94125000D01*
G75*
G02*
X154725000Y-93925000I200000J0D01*
G01*
X155275000Y-93925000D01*
G75*
G02*
X155475000Y-94125000I0J-200000D01*
G01*
X155475000Y-94525000D01*
G75*
G02*
X155275000Y-94725000I-200000J0D01*
G01*
G37*
%TD*%
%TO.C,R28*%
G36*
G01*
X160250000Y-104125000D02*
X160250000Y-104675000D01*
G75*
G02*
X160050000Y-104875000I-200000J0D01*
G01*
X159650000Y-104875000D01*
G75*
G02*
X159450000Y-104675000I0J200000D01*
G01*
X159450000Y-104125000D01*
G75*
G02*
X159650000Y-103925000I200000J0D01*
G01*
X160050000Y-103925000D01*
G75*
G02*
X160250000Y-104125000I0J-200000D01*
G01*
G37*
G36*
G01*
X161900000Y-104125000D02*
X161900000Y-104675000D01*
G75*
G02*
X161700000Y-104875000I-200000J0D01*
G01*
X161300000Y-104875000D01*
G75*
G02*
X161100000Y-104675000I0J200000D01*
G01*
X161100000Y-104125000D01*
G75*
G02*
X161300000Y-103925000I200000J0D01*
G01*
X161700000Y-103925000D01*
G75*
G02*
X161900000Y-104125000I0J-200000D01*
G01*
G37*
%TD*%
%TO.C,R27*%
G36*
G01*
X147225000Y-73425000D02*
X147775000Y-73425000D01*
G75*
G02*
X147975000Y-73625000I0J-200000D01*
G01*
X147975000Y-74025000D01*
G75*
G02*
X147775000Y-74225000I-200000J0D01*
G01*
X147225000Y-74225000D01*
G75*
G02*
X147025000Y-74025000I0J200000D01*
G01*
X147025000Y-73625000D01*
G75*
G02*
X147225000Y-73425000I200000J0D01*
G01*
G37*
G36*
G01*
X147225000Y-71775000D02*
X147775000Y-71775000D01*
G75*
G02*
X147975000Y-71975000I0J-200000D01*
G01*
X147975000Y-72375000D01*
G75*
G02*
X147775000Y-72575000I-200000J0D01*
G01*
X147225000Y-72575000D01*
G75*
G02*
X147025000Y-72375000I0J200000D01*
G01*
X147025000Y-71975000D01*
G75*
G02*
X147225000Y-71775000I200000J0D01*
G01*
G37*
%TD*%
%TO.C,R26*%
G36*
G01*
X151775000Y-93075000D02*
X151225000Y-93075000D01*
G75*
G02*
X151025000Y-92875000I0J200000D01*
G01*
X151025000Y-92475000D01*
G75*
G02*
X151225000Y-92275000I200000J0D01*
G01*
X151775000Y-92275000D01*
G75*
G02*
X151975000Y-92475000I0J-200000D01*
G01*
X151975000Y-92875000D01*
G75*
G02*
X151775000Y-93075000I-200000J0D01*
G01*
G37*
G36*
G01*
X151775000Y-94725000D02*
X151225000Y-94725000D01*
G75*
G02*
X151025000Y-94525000I0J200000D01*
G01*
X151025000Y-94125000D01*
G75*
G02*
X151225000Y-93925000I200000J0D01*
G01*
X151775000Y-93925000D01*
G75*
G02*
X151975000Y-94125000I0J-200000D01*
G01*
X151975000Y-94525000D01*
G75*
G02*
X151775000Y-94725000I-200000J0D01*
G01*
G37*
%TD*%
%TO.C,R25*%
G36*
G01*
X118775000Y-104525000D02*
X118775000Y-105075000D01*
G75*
G02*
X118575000Y-105275000I-200000J0D01*
G01*
X118175000Y-105275000D01*
G75*
G02*
X117975000Y-105075000I0J200000D01*
G01*
X117975000Y-104525000D01*
G75*
G02*
X118175000Y-104325000I200000J0D01*
G01*
X118575000Y-104325000D01*
G75*
G02*
X118775000Y-104525000I0J-200000D01*
G01*
G37*
G36*
G01*
X120425000Y-104525000D02*
X120425000Y-105075000D01*
G75*
G02*
X120225000Y-105275000I-200000J0D01*
G01*
X119825000Y-105275000D01*
G75*
G02*
X119625000Y-105075000I0J200000D01*
G01*
X119625000Y-104525000D01*
G75*
G02*
X119825000Y-104325000I200000J0D01*
G01*
X120225000Y-104325000D01*
G75*
G02*
X120425000Y-104525000I0J-200000D01*
G01*
G37*
%TD*%
%TO.C,R24*%
G36*
G01*
X126675000Y-104525000D02*
X126675000Y-105075000D01*
G75*
G02*
X126475000Y-105275000I-200000J0D01*
G01*
X126075000Y-105275000D01*
G75*
G02*
X125875000Y-105075000I0J200000D01*
G01*
X125875000Y-104525000D01*
G75*
G02*
X126075000Y-104325000I200000J0D01*
G01*
X126475000Y-104325000D01*
G75*
G02*
X126675000Y-104525000I0J-200000D01*
G01*
G37*
G36*
G01*
X128325000Y-104525000D02*
X128325000Y-105075000D01*
G75*
G02*
X128125000Y-105275000I-200000J0D01*
G01*
X127725000Y-105275000D01*
G75*
G02*
X127525000Y-105075000I0J200000D01*
G01*
X127525000Y-104525000D01*
G75*
G02*
X127725000Y-104325000I200000J0D01*
G01*
X128125000Y-104325000D01*
G75*
G02*
X128325000Y-104525000I0J-200000D01*
G01*
G37*
%TD*%
%TO.C,R23*%
G36*
G01*
X148775000Y-106975000D02*
X148225000Y-106975000D01*
G75*
G02*
X148025000Y-106775000I0J200000D01*
G01*
X148025000Y-106375000D01*
G75*
G02*
X148225000Y-106175000I200000J0D01*
G01*
X148775000Y-106175000D01*
G75*
G02*
X148975000Y-106375000I0J-200000D01*
G01*
X148975000Y-106775000D01*
G75*
G02*
X148775000Y-106975000I-200000J0D01*
G01*
G37*
G36*
G01*
X148775000Y-108625000D02*
X148225000Y-108625000D01*
G75*
G02*
X148025000Y-108425000I0J200000D01*
G01*
X148025000Y-108025000D01*
G75*
G02*
X148225000Y-107825000I200000J0D01*
G01*
X148775000Y-107825000D01*
G75*
G02*
X148975000Y-108025000I0J-200000D01*
G01*
X148975000Y-108425000D01*
G75*
G02*
X148775000Y-108625000I-200000J0D01*
G01*
G37*
%TD*%
%TO.C,R22*%
G36*
G01*
X146275000Y-104975000D02*
X145725000Y-104975000D01*
G75*
G02*
X145525000Y-104775000I0J200000D01*
G01*
X145525000Y-104375000D01*
G75*
G02*
X145725000Y-104175000I200000J0D01*
G01*
X146275000Y-104175000D01*
G75*
G02*
X146475000Y-104375000I0J-200000D01*
G01*
X146475000Y-104775000D01*
G75*
G02*
X146275000Y-104975000I-200000J0D01*
G01*
G37*
G36*
G01*
X146275000Y-106625000D02*
X145725000Y-106625000D01*
G75*
G02*
X145525000Y-106425000I0J200000D01*
G01*
X145525000Y-106025000D01*
G75*
G02*
X145725000Y-105825000I200000J0D01*
G01*
X146275000Y-105825000D01*
G75*
G02*
X146475000Y-106025000I0J-200000D01*
G01*
X146475000Y-106425000D01*
G75*
G02*
X146275000Y-106625000I-200000J0D01*
G01*
G37*
%TD*%
%TO.C,R21*%
G36*
G01*
X119275000Y-76575000D02*
X118725000Y-76575000D01*
G75*
G02*
X118525000Y-76375000I0J200000D01*
G01*
X118525000Y-75975000D01*
G75*
G02*
X118725000Y-75775000I200000J0D01*
G01*
X119275000Y-75775000D01*
G75*
G02*
X119475000Y-75975000I0J-200000D01*
G01*
X119475000Y-76375000D01*
G75*
G02*
X119275000Y-76575000I-200000J0D01*
G01*
G37*
G36*
G01*
X119275000Y-78225000D02*
X118725000Y-78225000D01*
G75*
G02*
X118525000Y-78025000I0J200000D01*
G01*
X118525000Y-77625000D01*
G75*
G02*
X118725000Y-77425000I200000J0D01*
G01*
X119275000Y-77425000D01*
G75*
G02*
X119475000Y-77625000I0J-200000D01*
G01*
X119475000Y-78025000D01*
G75*
G02*
X119275000Y-78225000I-200000J0D01*
G01*
G37*
%TD*%
%TO.C,R20*%
G36*
G01*
X119275000Y-80575000D02*
X118725000Y-80575000D01*
G75*
G02*
X118525000Y-80375000I0J200000D01*
G01*
X118525000Y-79975000D01*
G75*
G02*
X118725000Y-79775000I200000J0D01*
G01*
X119275000Y-79775000D01*
G75*
G02*
X119475000Y-79975000I0J-200000D01*
G01*
X119475000Y-80375000D01*
G75*
G02*
X119275000Y-80575000I-200000J0D01*
G01*
G37*
G36*
G01*
X119275000Y-82225000D02*
X118725000Y-82225000D01*
G75*
G02*
X118525000Y-82025000I0J200000D01*
G01*
X118525000Y-81625000D01*
G75*
G02*
X118725000Y-81425000I200000J0D01*
G01*
X119275000Y-81425000D01*
G75*
G02*
X119475000Y-81625000I0J-200000D01*
G01*
X119475000Y-82025000D01*
G75*
G02*
X119275000Y-82225000I-200000J0D01*
G01*
G37*
%TD*%
%TO.C,R19*%
G36*
G01*
X154875000Y-52415000D02*
X154875000Y-51865000D01*
G75*
G02*
X155075000Y-51665000I200000J0D01*
G01*
X155475000Y-51665000D01*
G75*
G02*
X155675000Y-51865000I0J-200000D01*
G01*
X155675000Y-52415000D01*
G75*
G02*
X155475000Y-52615000I-200000J0D01*
G01*
X155075000Y-52615000D01*
G75*
G02*
X154875000Y-52415000I0J200000D01*
G01*
G37*
G36*
G01*
X153225000Y-52415000D02*
X153225000Y-51865000D01*
G75*
G02*
X153425000Y-51665000I200000J0D01*
G01*
X153825000Y-51665000D01*
G75*
G02*
X154025000Y-51865000I0J-200000D01*
G01*
X154025000Y-52415000D01*
G75*
G02*
X153825000Y-52615000I-200000J0D01*
G01*
X153425000Y-52615000D01*
G75*
G02*
X153225000Y-52415000I0J200000D01*
G01*
G37*
%TD*%
%TO.C,R18*%
G36*
G01*
X151995000Y-44675000D02*
X151445000Y-44675000D01*
G75*
G02*
X151245000Y-44475000I0J200000D01*
G01*
X151245000Y-44075000D01*
G75*
G02*
X151445000Y-43875000I200000J0D01*
G01*
X151995000Y-43875000D01*
G75*
G02*
X152195000Y-44075000I0J-200000D01*
G01*
X152195000Y-44475000D01*
G75*
G02*
X151995000Y-44675000I-200000J0D01*
G01*
G37*
G36*
G01*
X151995000Y-46325000D02*
X151445000Y-46325000D01*
G75*
G02*
X151245000Y-46125000I0J200000D01*
G01*
X151245000Y-45725000D01*
G75*
G02*
X151445000Y-45525000I200000J0D01*
G01*
X151995000Y-45525000D01*
G75*
G02*
X152195000Y-45725000I0J-200000D01*
G01*
X152195000Y-46125000D01*
G75*
G02*
X151995000Y-46325000I-200000J0D01*
G01*
G37*
%TD*%
%TO.C,R17*%
G36*
G01*
X147925000Y-41675000D02*
X147925000Y-41125000D01*
G75*
G02*
X148125000Y-40925000I200000J0D01*
G01*
X148525000Y-40925000D01*
G75*
G02*
X148725000Y-41125000I0J-200000D01*
G01*
X148725000Y-41675000D01*
G75*
G02*
X148525000Y-41875000I-200000J0D01*
G01*
X148125000Y-41875000D01*
G75*
G02*
X147925000Y-41675000I0J200000D01*
G01*
G37*
G36*
G01*
X146275000Y-41675000D02*
X146275000Y-41125000D01*
G75*
G02*
X146475000Y-40925000I200000J0D01*
G01*
X146875000Y-40925000D01*
G75*
G02*
X147075000Y-41125000I0J-200000D01*
G01*
X147075000Y-41675000D01*
G75*
G02*
X146875000Y-41875000I-200000J0D01*
G01*
X146475000Y-41875000D01*
G75*
G02*
X146275000Y-41675000I0J200000D01*
G01*
G37*
%TD*%
%TO.C,R16*%
G36*
G01*
X149535000Y-44675000D02*
X148985000Y-44675000D01*
G75*
G02*
X148785000Y-44475000I0J200000D01*
G01*
X148785000Y-44075000D01*
G75*
G02*
X148985000Y-43875000I200000J0D01*
G01*
X149535000Y-43875000D01*
G75*
G02*
X149735000Y-44075000I0J-200000D01*
G01*
X149735000Y-44475000D01*
G75*
G02*
X149535000Y-44675000I-200000J0D01*
G01*
G37*
G36*
G01*
X149535000Y-46325000D02*
X148985000Y-46325000D01*
G75*
G02*
X148785000Y-46125000I0J200000D01*
G01*
X148785000Y-45725000D01*
G75*
G02*
X148985000Y-45525000I200000J0D01*
G01*
X149535000Y-45525000D01*
G75*
G02*
X149735000Y-45725000I0J-200000D01*
G01*
X149735000Y-46125000D01*
G75*
G02*
X149535000Y-46325000I-200000J0D01*
G01*
G37*
%TD*%
%TO.C,R15*%
G36*
G01*
X120825000Y-85625000D02*
X121375000Y-85625000D01*
G75*
G02*
X121575000Y-85825000I0J-200000D01*
G01*
X121575000Y-86225000D01*
G75*
G02*
X121375000Y-86425000I-200000J0D01*
G01*
X120825000Y-86425000D01*
G75*
G02*
X120625000Y-86225000I0J200000D01*
G01*
X120625000Y-85825000D01*
G75*
G02*
X120825000Y-85625000I200000J0D01*
G01*
G37*
G36*
G01*
X120825000Y-83975000D02*
X121375000Y-83975000D01*
G75*
G02*
X121575000Y-84175000I0J-200000D01*
G01*
X121575000Y-84575000D01*
G75*
G02*
X121375000Y-84775000I-200000J0D01*
G01*
X120825000Y-84775000D01*
G75*
G02*
X120625000Y-84575000I0J200000D01*
G01*
X120625000Y-84175000D01*
G75*
G02*
X120825000Y-83975000I200000J0D01*
G01*
G37*
%TD*%
%TO.C,R14*%
G36*
G01*
X124925000Y-80275000D02*
X124925000Y-79725000D01*
G75*
G02*
X125125000Y-79525000I200000J0D01*
G01*
X125525000Y-79525000D01*
G75*
G02*
X125725000Y-79725000I0J-200000D01*
G01*
X125725000Y-80275000D01*
G75*
G02*
X125525000Y-80475000I-200000J0D01*
G01*
X125125000Y-80475000D01*
G75*
G02*
X124925000Y-80275000I0J200000D01*
G01*
G37*
G36*
G01*
X123275000Y-80275000D02*
X123275000Y-79725000D01*
G75*
G02*
X123475000Y-79525000I200000J0D01*
G01*
X123875000Y-79525000D01*
G75*
G02*
X124075000Y-79725000I0J-200000D01*
G01*
X124075000Y-80275000D01*
G75*
G02*
X123875000Y-80475000I-200000J0D01*
G01*
X123475000Y-80475000D01*
G75*
G02*
X123275000Y-80275000I0J200000D01*
G01*
G37*
%TD*%
%TO.C,R13*%
G36*
G01*
X166075000Y-69125000D02*
X166075000Y-69675000D01*
G75*
G02*
X165875000Y-69875000I-200000J0D01*
G01*
X165475000Y-69875000D01*
G75*
G02*
X165275000Y-69675000I0J200000D01*
G01*
X165275000Y-69125000D01*
G75*
G02*
X165475000Y-68925000I200000J0D01*
G01*
X165875000Y-68925000D01*
G75*
G02*
X166075000Y-69125000I0J-200000D01*
G01*
G37*
G36*
G01*
X167725000Y-69125000D02*
X167725000Y-69675000D01*
G75*
G02*
X167525000Y-69875000I-200000J0D01*
G01*
X167125000Y-69875000D01*
G75*
G02*
X166925000Y-69675000I0J200000D01*
G01*
X166925000Y-69125000D01*
G75*
G02*
X167125000Y-68925000I200000J0D01*
G01*
X167525000Y-68925000D01*
G75*
G02*
X167725000Y-69125000I0J-200000D01*
G01*
G37*
%TD*%
%TO.C,R12*%
G36*
G01*
X114100000Y-99275000D02*
X114100000Y-98725000D01*
G75*
G02*
X114300000Y-98525000I200000J0D01*
G01*
X114700000Y-98525000D01*
G75*
G02*
X114900000Y-98725000I0J-200000D01*
G01*
X114900000Y-99275000D01*
G75*
G02*
X114700000Y-99475000I-200000J0D01*
G01*
X114300000Y-99475000D01*
G75*
G02*
X114100000Y-99275000I0J200000D01*
G01*
G37*
G36*
G01*
X112450000Y-99275000D02*
X112450000Y-98725000D01*
G75*
G02*
X112650000Y-98525000I200000J0D01*
G01*
X113050000Y-98525000D01*
G75*
G02*
X113250000Y-98725000I0J-200000D01*
G01*
X113250000Y-99275000D01*
G75*
G02*
X113050000Y-99475000I-200000J0D01*
G01*
X112650000Y-99475000D01*
G75*
G02*
X112450000Y-99275000I0J200000D01*
G01*
G37*
%TD*%
%TO.C,R11*%
G36*
G01*
X139425000Y-51175000D02*
X139425000Y-50625000D01*
G75*
G02*
X139625000Y-50425000I200000J0D01*
G01*
X140025000Y-50425000D01*
G75*
G02*
X140225000Y-50625000I0J-200000D01*
G01*
X140225000Y-51175000D01*
G75*
G02*
X140025000Y-51375000I-200000J0D01*
G01*
X139625000Y-51375000D01*
G75*
G02*
X139425000Y-51175000I0J200000D01*
G01*
G37*
G36*
G01*
X137775000Y-51175000D02*
X137775000Y-50625000D01*
G75*
G02*
X137975000Y-50425000I200000J0D01*
G01*
X138375000Y-50425000D01*
G75*
G02*
X138575000Y-50625000I0J-200000D01*
G01*
X138575000Y-51175000D01*
G75*
G02*
X138375000Y-51375000I-200000J0D01*
G01*
X137975000Y-51375000D01*
G75*
G02*
X137775000Y-51175000I0J200000D01*
G01*
G37*
%TD*%
%TO.C,R10*%
G36*
G01*
X143495000Y-49975000D02*
X143495000Y-49425000D01*
G75*
G02*
X143695000Y-49225000I200000J0D01*
G01*
X144095000Y-49225000D01*
G75*
G02*
X144295000Y-49425000I0J-200000D01*
G01*
X144295000Y-49975000D01*
G75*
G02*
X144095000Y-50175000I-200000J0D01*
G01*
X143695000Y-50175000D01*
G75*
G02*
X143495000Y-49975000I0J200000D01*
G01*
G37*
G36*
G01*
X141845000Y-49975000D02*
X141845000Y-49425000D01*
G75*
G02*
X142045000Y-49225000I200000J0D01*
G01*
X142445000Y-49225000D01*
G75*
G02*
X142645000Y-49425000I0J-200000D01*
G01*
X142645000Y-49975000D01*
G75*
G02*
X142445000Y-50175000I-200000J0D01*
G01*
X142045000Y-50175000D01*
G75*
G02*
X141845000Y-49975000I0J200000D01*
G01*
G37*
%TD*%
%TO.C,R9*%
G36*
G01*
X145225000Y-57935000D02*
X145775000Y-57935000D01*
G75*
G02*
X145975000Y-58135000I0J-200000D01*
G01*
X145975000Y-58535000D01*
G75*
G02*
X145775000Y-58735000I-200000J0D01*
G01*
X145225000Y-58735000D01*
G75*
G02*
X145025000Y-58535000I0J200000D01*
G01*
X145025000Y-58135000D01*
G75*
G02*
X145225000Y-57935000I200000J0D01*
G01*
G37*
G36*
G01*
X145225000Y-56285000D02*
X145775000Y-56285000D01*
G75*
G02*
X145975000Y-56485000I0J-200000D01*
G01*
X145975000Y-56885000D01*
G75*
G02*
X145775000Y-57085000I-200000J0D01*
G01*
X145225000Y-57085000D01*
G75*
G02*
X145025000Y-56885000I0J200000D01*
G01*
X145025000Y-56485000D01*
G75*
G02*
X145225000Y-56285000I200000J0D01*
G01*
G37*
%TD*%
%TO.C,R8*%
G36*
G01*
X151655000Y-56905000D02*
X151655000Y-56355000D01*
G75*
G02*
X151855000Y-56155000I200000J0D01*
G01*
X152255000Y-56155000D01*
G75*
G02*
X152455000Y-56355000I0J-200000D01*
G01*
X152455000Y-56905000D01*
G75*
G02*
X152255000Y-57105000I-200000J0D01*
G01*
X151855000Y-57105000D01*
G75*
G02*
X151655000Y-56905000I0J200000D01*
G01*
G37*
G36*
G01*
X150005000Y-56905000D02*
X150005000Y-56355000D01*
G75*
G02*
X150205000Y-56155000I200000J0D01*
G01*
X150605000Y-56155000D01*
G75*
G02*
X150805000Y-56355000I0J-200000D01*
G01*
X150805000Y-56905000D01*
G75*
G02*
X150605000Y-57105000I-200000J0D01*
G01*
X150205000Y-57105000D01*
G75*
G02*
X150005000Y-56905000I0J200000D01*
G01*
G37*
%TD*%
%TO.C,R7*%
G36*
G01*
X150765000Y-59475000D02*
X150215000Y-59475000D01*
G75*
G02*
X150015000Y-59275000I0J200000D01*
G01*
X150015000Y-58875000D01*
G75*
G02*
X150215000Y-58675000I200000J0D01*
G01*
X150765000Y-58675000D01*
G75*
G02*
X150965000Y-58875000I0J-200000D01*
G01*
X150965000Y-59275000D01*
G75*
G02*
X150765000Y-59475000I-200000J0D01*
G01*
G37*
G36*
G01*
X150765000Y-61125000D02*
X150215000Y-61125000D01*
G75*
G02*
X150015000Y-60925000I0J200000D01*
G01*
X150015000Y-60525000D01*
G75*
G02*
X150215000Y-60325000I200000J0D01*
G01*
X150765000Y-60325000D01*
G75*
G02*
X150965000Y-60525000I0J-200000D01*
G01*
X150965000Y-60925000D01*
G75*
G02*
X150765000Y-61125000I-200000J0D01*
G01*
G37*
%TD*%
%TO.C,R6*%
G36*
G01*
X154715000Y-59825000D02*
X155265000Y-59825000D01*
G75*
G02*
X155465000Y-60025000I0J-200000D01*
G01*
X155465000Y-60425000D01*
G75*
G02*
X155265000Y-60625000I-200000J0D01*
G01*
X154715000Y-60625000D01*
G75*
G02*
X154515000Y-60425000I0J200000D01*
G01*
X154515000Y-60025000D01*
G75*
G02*
X154715000Y-59825000I200000J0D01*
G01*
G37*
G36*
G01*
X154715000Y-58175000D02*
X155265000Y-58175000D01*
G75*
G02*
X155465000Y-58375000I0J-200000D01*
G01*
X155465000Y-58775000D01*
G75*
G02*
X155265000Y-58975000I-200000J0D01*
G01*
X154715000Y-58975000D01*
G75*
G02*
X154515000Y-58775000I0J200000D01*
G01*
X154515000Y-58375000D01*
G75*
G02*
X154715000Y-58175000I200000J0D01*
G01*
G37*
%TD*%
%TO.C,R5*%
G36*
G01*
X137475000Y-44525000D02*
X137475000Y-45075000D01*
G75*
G02*
X137275000Y-45275000I-200000J0D01*
G01*
X136875000Y-45275000D01*
G75*
G02*
X136675000Y-45075000I0J200000D01*
G01*
X136675000Y-44525000D01*
G75*
G02*
X136875000Y-44325000I200000J0D01*
G01*
X137275000Y-44325000D01*
G75*
G02*
X137475000Y-44525000I0J-200000D01*
G01*
G37*
G36*
G01*
X139125000Y-44525000D02*
X139125000Y-45075000D01*
G75*
G02*
X138925000Y-45275000I-200000J0D01*
G01*
X138525000Y-45275000D01*
G75*
G02*
X138325000Y-45075000I0J200000D01*
G01*
X138325000Y-44525000D01*
G75*
G02*
X138525000Y-44325000I200000J0D01*
G01*
X138925000Y-44325000D01*
G75*
G02*
X139125000Y-44525000I0J-200000D01*
G01*
G37*
%TD*%
%TO.C,R4*%
G36*
G01*
X122325000Y-52475000D02*
X122325000Y-51925000D01*
G75*
G02*
X122525000Y-51725000I200000J0D01*
G01*
X122925000Y-51725000D01*
G75*
G02*
X123125000Y-51925000I0J-200000D01*
G01*
X123125000Y-52475000D01*
G75*
G02*
X122925000Y-52675000I-200000J0D01*
G01*
X122525000Y-52675000D01*
G75*
G02*
X122325000Y-52475000I0J200000D01*
G01*
G37*
G36*
G01*
X120675000Y-52475000D02*
X120675000Y-51925000D01*
G75*
G02*
X120875000Y-51725000I200000J0D01*
G01*
X121275000Y-51725000D01*
G75*
G02*
X121475000Y-51925000I0J-200000D01*
G01*
X121475000Y-52475000D01*
G75*
G02*
X121275000Y-52675000I-200000J0D01*
G01*
X120875000Y-52675000D01*
G75*
G02*
X120675000Y-52475000I0J200000D01*
G01*
G37*
%TD*%
%TO.C,R3*%
G36*
G01*
X142725000Y-57935000D02*
X143275000Y-57935000D01*
G75*
G02*
X143475000Y-58135000I0J-200000D01*
G01*
X143475000Y-58535000D01*
G75*
G02*
X143275000Y-58735000I-200000J0D01*
G01*
X142725000Y-58735000D01*
G75*
G02*
X142525000Y-58535000I0J200000D01*
G01*
X142525000Y-58135000D01*
G75*
G02*
X142725000Y-57935000I200000J0D01*
G01*
G37*
G36*
G01*
X142725000Y-56285000D02*
X143275000Y-56285000D01*
G75*
G02*
X143475000Y-56485000I0J-200000D01*
G01*
X143475000Y-56885000D01*
G75*
G02*
X143275000Y-57085000I-200000J0D01*
G01*
X142725000Y-57085000D01*
G75*
G02*
X142525000Y-56885000I0J200000D01*
G01*
X142525000Y-56485000D01*
G75*
G02*
X142725000Y-56285000I200000J0D01*
G01*
G37*
%TD*%
%TO.C,R2*%
G36*
G01*
X122325000Y-43075000D02*
X122325000Y-42525000D01*
G75*
G02*
X122525000Y-42325000I200000J0D01*
G01*
X122925000Y-42325000D01*
G75*
G02*
X123125000Y-42525000I0J-200000D01*
G01*
X123125000Y-43075000D01*
G75*
G02*
X122925000Y-43275000I-200000J0D01*
G01*
X122525000Y-43275000D01*
G75*
G02*
X122325000Y-43075000I0J200000D01*
G01*
G37*
G36*
G01*
X120675000Y-43075000D02*
X120675000Y-42525000D01*
G75*
G02*
X120875000Y-42325000I200000J0D01*
G01*
X121275000Y-42325000D01*
G75*
G02*
X121475000Y-42525000I0J-200000D01*
G01*
X121475000Y-43075000D01*
G75*
G02*
X121275000Y-43275000I-200000J0D01*
G01*
X120875000Y-43275000D01*
G75*
G02*
X120675000Y-43075000I0J200000D01*
G01*
G37*
%TD*%
%TO.C,R1*%
G36*
G01*
X113075000Y-90225000D02*
X113075000Y-90775000D01*
G75*
G02*
X112875000Y-90975000I-200000J0D01*
G01*
X112475000Y-90975000D01*
G75*
G02*
X112275000Y-90775000I0J200000D01*
G01*
X112275000Y-90225000D01*
G75*
G02*
X112475000Y-90025000I200000J0D01*
G01*
X112875000Y-90025000D01*
G75*
G02*
X113075000Y-90225000I0J-200000D01*
G01*
G37*
G36*
G01*
X114725000Y-90225000D02*
X114725000Y-90775000D01*
G75*
G02*
X114525000Y-90975000I-200000J0D01*
G01*
X114125000Y-90975000D01*
G75*
G02*
X113925000Y-90775000I0J200000D01*
G01*
X113925000Y-90225000D01*
G75*
G02*
X114125000Y-90025000I200000J0D01*
G01*
X114525000Y-90025000D01*
G75*
G02*
X114725000Y-90225000I0J-200000D01*
G01*
G37*
%TD*%
D26*
%TO.C,Q1*%
X153000000Y-107400000D03*
X151000000Y-108350000D03*
X151000000Y-106450000D03*
%TD*%
D27*
%TO.C,J2*%
X126100000Y-52200000D03*
D28*
X130550000Y-56200000D03*
D29*
X126100000Y-42800000D03*
X133500000Y-44800000D03*
%TD*%
D30*
%TO.C,J1*%
X137625000Y-62000000D03*
X137625000Y-64000000D03*
X139375000Y-63000000D03*
X139375000Y-65000000D03*
%TD*%
%TO.C,D1*%
G36*
G01*
X120956250Y-94550000D02*
X120043750Y-94550000D01*
G75*
G02*
X119800000Y-94306250I0J243750D01*
G01*
X119800000Y-93818750D01*
G75*
G02*
X120043750Y-93575000I243750J0D01*
G01*
X120956250Y-93575000D01*
G75*
G02*
X121200000Y-93818750I0J-243750D01*
G01*
X121200000Y-94306250D01*
G75*
G02*
X120956250Y-94550000I-243750J0D01*
G01*
G37*
G36*
G01*
X120956250Y-96425000D02*
X120043750Y-96425000D01*
G75*
G02*
X119800000Y-96181250I0J243750D01*
G01*
X119800000Y-95693750D01*
G75*
G02*
X120043750Y-95450000I243750J0D01*
G01*
X120956250Y-95450000D01*
G75*
G02*
X121200000Y-95693750I0J-243750D01*
G01*
X121200000Y-96181250D01*
G75*
G02*
X120956250Y-96425000I-243750J0D01*
G01*
G37*
%TD*%
%TO.C,C26*%
G36*
G01*
X159875000Y-100250000D02*
X159875000Y-100750000D01*
G75*
G02*
X159650000Y-100975000I-225000J0D01*
G01*
X159200000Y-100975000D01*
G75*
G02*
X158975000Y-100750000I0J225000D01*
G01*
X158975000Y-100250000D01*
G75*
G02*
X159200000Y-100025000I225000J0D01*
G01*
X159650000Y-100025000D01*
G75*
G02*
X159875000Y-100250000I0J-225000D01*
G01*
G37*
G36*
G01*
X161425000Y-100250000D02*
X161425000Y-100750000D01*
G75*
G02*
X161200000Y-100975000I-225000J0D01*
G01*
X160750000Y-100975000D01*
G75*
G02*
X160525000Y-100750000I0J225000D01*
G01*
X160525000Y-100250000D01*
G75*
G02*
X160750000Y-100025000I225000J0D01*
G01*
X161200000Y-100025000D01*
G75*
G02*
X161425000Y-100250000I0J-225000D01*
G01*
G37*
%TD*%
%TO.C,C24*%
G36*
G01*
X147750000Y-101075000D02*
X147250000Y-101075000D01*
G75*
G02*
X147025000Y-100850000I0J225000D01*
G01*
X147025000Y-100400000D01*
G75*
G02*
X147250000Y-100175000I225000J0D01*
G01*
X147750000Y-100175000D01*
G75*
G02*
X147975000Y-100400000I0J-225000D01*
G01*
X147975000Y-100850000D01*
G75*
G02*
X147750000Y-101075000I-225000J0D01*
G01*
G37*
G36*
G01*
X147750000Y-102625000D02*
X147250000Y-102625000D01*
G75*
G02*
X147025000Y-102400000I0J225000D01*
G01*
X147025000Y-101950000D01*
G75*
G02*
X147250000Y-101725000I225000J0D01*
G01*
X147750000Y-101725000D01*
G75*
G02*
X147975000Y-101950000I0J-225000D01*
G01*
X147975000Y-102400000D01*
G75*
G02*
X147750000Y-102625000I-225000J0D01*
G01*
G37*
%TD*%
%TO.C,C23*%
G36*
G01*
X130775000Y-62070000D02*
X130775000Y-61570000D01*
G75*
G02*
X131000000Y-61345000I225000J0D01*
G01*
X131450000Y-61345000D01*
G75*
G02*
X131675000Y-61570000I0J-225000D01*
G01*
X131675000Y-62070000D01*
G75*
G02*
X131450000Y-62295000I-225000J0D01*
G01*
X131000000Y-62295000D01*
G75*
G02*
X130775000Y-62070000I0J225000D01*
G01*
G37*
G36*
G01*
X129225000Y-62070000D02*
X129225000Y-61570000D01*
G75*
G02*
X129450000Y-61345000I225000J0D01*
G01*
X129900000Y-61345000D01*
G75*
G02*
X130125000Y-61570000I0J-225000D01*
G01*
X130125000Y-62070000D01*
G75*
G02*
X129900000Y-62295000I-225000J0D01*
G01*
X129450000Y-62295000D01*
G75*
G02*
X129225000Y-62070000I0J225000D01*
G01*
G37*
%TD*%
%TO.C,C22*%
G36*
G01*
X133435000Y-88750000D02*
X133435000Y-89250000D01*
G75*
G02*
X133210000Y-89475000I-225000J0D01*
G01*
X132760000Y-89475000D01*
G75*
G02*
X132535000Y-89250000I0J225000D01*
G01*
X132535000Y-88750000D01*
G75*
G02*
X132760000Y-88525000I225000J0D01*
G01*
X133210000Y-88525000D01*
G75*
G02*
X133435000Y-88750000I0J-225000D01*
G01*
G37*
G36*
G01*
X134985000Y-88750000D02*
X134985000Y-89250000D01*
G75*
G02*
X134760000Y-89475000I-225000J0D01*
G01*
X134310000Y-89475000D01*
G75*
G02*
X134085000Y-89250000I0J225000D01*
G01*
X134085000Y-88750000D01*
G75*
G02*
X134310000Y-88525000I225000J0D01*
G01*
X134760000Y-88525000D01*
G75*
G02*
X134985000Y-88750000I0J-225000D01*
G01*
G37*
%TD*%
%TO.C,C21*%
G36*
G01*
X130760000Y-64560000D02*
X130760000Y-64060000D01*
G75*
G02*
X130985000Y-63835000I225000J0D01*
G01*
X131435000Y-63835000D01*
G75*
G02*
X131660000Y-64060000I0J-225000D01*
G01*
X131660000Y-64560000D01*
G75*
G02*
X131435000Y-64785000I-225000J0D01*
G01*
X130985000Y-64785000D01*
G75*
G02*
X130760000Y-64560000I0J225000D01*
G01*
G37*
G36*
G01*
X129210000Y-64560000D02*
X129210000Y-64060000D01*
G75*
G02*
X129435000Y-63835000I225000J0D01*
G01*
X129885000Y-63835000D01*
G75*
G02*
X130110000Y-64060000I0J-225000D01*
G01*
X130110000Y-64560000D01*
G75*
G02*
X129885000Y-64785000I-225000J0D01*
G01*
X129435000Y-64785000D01*
G75*
G02*
X129210000Y-64560000I0J225000D01*
G01*
G37*
%TD*%
%TO.C,C20*%
G36*
G01*
X133415000Y-91250000D02*
X133415000Y-91750000D01*
G75*
G02*
X133190000Y-91975000I-225000J0D01*
G01*
X132740000Y-91975000D01*
G75*
G02*
X132515000Y-91750000I0J225000D01*
G01*
X132515000Y-91250000D01*
G75*
G02*
X132740000Y-91025000I225000J0D01*
G01*
X133190000Y-91025000D01*
G75*
G02*
X133415000Y-91250000I0J-225000D01*
G01*
G37*
G36*
G01*
X134965000Y-91250000D02*
X134965000Y-91750000D01*
G75*
G02*
X134740000Y-91975000I-225000J0D01*
G01*
X134290000Y-91975000D01*
G75*
G02*
X134065000Y-91750000I0J225000D01*
G01*
X134065000Y-91250000D01*
G75*
G02*
X134290000Y-91025000I225000J0D01*
G01*
X134740000Y-91025000D01*
G75*
G02*
X134965000Y-91250000I0J-225000D01*
G01*
G37*
%TD*%
%TO.C,C19*%
G36*
G01*
X159250000Y-65325000D02*
X159750000Y-65325000D01*
G75*
G02*
X159975000Y-65550000I0J-225000D01*
G01*
X159975000Y-66000000D01*
G75*
G02*
X159750000Y-66225000I-225000J0D01*
G01*
X159250000Y-66225000D01*
G75*
G02*
X159025000Y-66000000I0J225000D01*
G01*
X159025000Y-65550000D01*
G75*
G02*
X159250000Y-65325000I225000J0D01*
G01*
G37*
G36*
G01*
X159250000Y-63775000D02*
X159750000Y-63775000D01*
G75*
G02*
X159975000Y-64000000I0J-225000D01*
G01*
X159975000Y-64450000D01*
G75*
G02*
X159750000Y-64675000I-225000J0D01*
G01*
X159250000Y-64675000D01*
G75*
G02*
X159025000Y-64450000I0J225000D01*
G01*
X159025000Y-64000000D01*
G75*
G02*
X159250000Y-63775000I225000J0D01*
G01*
G37*
%TD*%
%TO.C,C18*%
G36*
G01*
X130725000Y-71530000D02*
X130725000Y-71030000D01*
G75*
G02*
X130950000Y-70805000I225000J0D01*
G01*
X131400000Y-70805000D01*
G75*
G02*
X131625000Y-71030000I0J-225000D01*
G01*
X131625000Y-71530000D01*
G75*
G02*
X131400000Y-71755000I-225000J0D01*
G01*
X130950000Y-71755000D01*
G75*
G02*
X130725000Y-71530000I0J225000D01*
G01*
G37*
G36*
G01*
X129175000Y-71530000D02*
X129175000Y-71030000D01*
G75*
G02*
X129400000Y-70805000I225000J0D01*
G01*
X129850000Y-70805000D01*
G75*
G02*
X130075000Y-71030000I0J-225000D01*
G01*
X130075000Y-71530000D01*
G75*
G02*
X129850000Y-71755000I-225000J0D01*
G01*
X129400000Y-71755000D01*
G75*
G02*
X129175000Y-71530000I0J225000D01*
G01*
G37*
%TD*%
%TO.C,C17*%
G36*
G01*
X133825000Y-82250000D02*
X133825000Y-81750000D01*
G75*
G02*
X134050000Y-81525000I225000J0D01*
G01*
X134500000Y-81525000D01*
G75*
G02*
X134725000Y-81750000I0J-225000D01*
G01*
X134725000Y-82250000D01*
G75*
G02*
X134500000Y-82475000I-225000J0D01*
G01*
X134050000Y-82475000D01*
G75*
G02*
X133825000Y-82250000I0J225000D01*
G01*
G37*
G36*
G01*
X132275000Y-82250000D02*
X132275000Y-81750000D01*
G75*
G02*
X132500000Y-81525000I225000J0D01*
G01*
X132950000Y-81525000D01*
G75*
G02*
X133175000Y-81750000I0J-225000D01*
G01*
X133175000Y-82250000D01*
G75*
G02*
X132950000Y-82475000I-225000J0D01*
G01*
X132500000Y-82475000D01*
G75*
G02*
X132275000Y-82250000I0J225000D01*
G01*
G37*
%TD*%
%TO.C,C16*%
G36*
G01*
X131300000Y-74930001D02*
X131300000Y-73629999D01*
G75*
G02*
X131549999Y-73380000I249999J0D01*
G01*
X132200001Y-73380000D01*
G75*
G02*
X132450000Y-73629999I0J-249999D01*
G01*
X132450000Y-74930001D01*
G75*
G02*
X132200001Y-75180000I-249999J0D01*
G01*
X131549999Y-75180000D01*
G75*
G02*
X131300000Y-74930001I0J249999D01*
G01*
G37*
G36*
G01*
X128350000Y-74930001D02*
X128350000Y-73629999D01*
G75*
G02*
X128599999Y-73380000I249999J0D01*
G01*
X129250001Y-73380000D01*
G75*
G02*
X129500000Y-73629999I0J-249999D01*
G01*
X129500000Y-74930001D01*
G75*
G02*
X129250001Y-75180000I-249999J0D01*
G01*
X128599999Y-75180000D01*
G75*
G02*
X128350000Y-74930001I0J249999D01*
G01*
G37*
%TD*%
%TO.C,C15*%
G36*
G01*
X134400000Y-79650001D02*
X134400000Y-78349999D01*
G75*
G02*
X134649999Y-78100000I249999J0D01*
G01*
X135300001Y-78100000D01*
G75*
G02*
X135550000Y-78349999I0J-249999D01*
G01*
X135550000Y-79650001D01*
G75*
G02*
X135300001Y-79900000I-249999J0D01*
G01*
X134649999Y-79900000D01*
G75*
G02*
X134400000Y-79650001I0J249999D01*
G01*
G37*
G36*
G01*
X131450000Y-79650001D02*
X131450000Y-78349999D01*
G75*
G02*
X131699999Y-78100000I249999J0D01*
G01*
X132350001Y-78100000D01*
G75*
G02*
X132600000Y-78349999I0J-249999D01*
G01*
X132600000Y-79650001D01*
G75*
G02*
X132350001Y-79900000I-249999J0D01*
G01*
X131699999Y-79900000D01*
G75*
G02*
X131450000Y-79650001I0J249999D01*
G01*
G37*
%TD*%
%TO.C,C14*%
G36*
G01*
X126750000Y-91825000D02*
X127250000Y-91825000D01*
G75*
G02*
X127475000Y-92050000I0J-225000D01*
G01*
X127475000Y-92500000D01*
G75*
G02*
X127250000Y-92725000I-225000J0D01*
G01*
X126750000Y-92725000D01*
G75*
G02*
X126525000Y-92500000I0J225000D01*
G01*
X126525000Y-92050000D01*
G75*
G02*
X126750000Y-91825000I225000J0D01*
G01*
G37*
G36*
G01*
X126750000Y-90275000D02*
X127250000Y-90275000D01*
G75*
G02*
X127475000Y-90500000I0J-225000D01*
G01*
X127475000Y-90950000D01*
G75*
G02*
X127250000Y-91175000I-225000J0D01*
G01*
X126750000Y-91175000D01*
G75*
G02*
X126525000Y-90950000I0J225000D01*
G01*
X126525000Y-90500000D01*
G75*
G02*
X126750000Y-90275000I225000J0D01*
G01*
G37*
%TD*%
%TO.C,C13*%
G36*
G01*
X154520000Y-44765000D02*
X154020000Y-44765000D01*
G75*
G02*
X153795000Y-44540000I0J225000D01*
G01*
X153795000Y-44090000D01*
G75*
G02*
X154020000Y-43865000I225000J0D01*
G01*
X154520000Y-43865000D01*
G75*
G02*
X154745000Y-44090000I0J-225000D01*
G01*
X154745000Y-44540000D01*
G75*
G02*
X154520000Y-44765000I-225000J0D01*
G01*
G37*
G36*
G01*
X154520000Y-46315000D02*
X154020000Y-46315000D01*
G75*
G02*
X153795000Y-46090000I0J225000D01*
G01*
X153795000Y-45640000D01*
G75*
G02*
X154020000Y-45415000I225000J0D01*
G01*
X154520000Y-45415000D01*
G75*
G02*
X154745000Y-45640000I0J-225000D01*
G01*
X154745000Y-46090000D01*
G75*
G02*
X154520000Y-46315000I-225000J0D01*
G01*
G37*
%TD*%
%TO.C,C12*%
G36*
G01*
X123750000Y-91825000D02*
X124250000Y-91825000D01*
G75*
G02*
X124475000Y-92050000I0J-225000D01*
G01*
X124475000Y-92500000D01*
G75*
G02*
X124250000Y-92725000I-225000J0D01*
G01*
X123750000Y-92725000D01*
G75*
G02*
X123525000Y-92500000I0J225000D01*
G01*
X123525000Y-92050000D01*
G75*
G02*
X123750000Y-91825000I225000J0D01*
G01*
G37*
G36*
G01*
X123750000Y-90275000D02*
X124250000Y-90275000D01*
G75*
G02*
X124475000Y-90500000I0J-225000D01*
G01*
X124475000Y-90950000D01*
G75*
G02*
X124250000Y-91175000I-225000J0D01*
G01*
X123750000Y-91175000D01*
G75*
G02*
X123525000Y-90950000I0J225000D01*
G01*
X123525000Y-90500000D01*
G75*
G02*
X123750000Y-90275000I225000J0D01*
G01*
G37*
%TD*%
%TO.C,C11*%
G36*
G01*
X162825000Y-85750000D02*
X162825000Y-85250000D01*
G75*
G02*
X163050000Y-85025000I225000J0D01*
G01*
X163500000Y-85025000D01*
G75*
G02*
X163725000Y-85250000I0J-225000D01*
G01*
X163725000Y-85750000D01*
G75*
G02*
X163500000Y-85975000I-225000J0D01*
G01*
X163050000Y-85975000D01*
G75*
G02*
X162825000Y-85750000I0J225000D01*
G01*
G37*
G36*
G01*
X161275000Y-85750000D02*
X161275000Y-85250000D01*
G75*
G02*
X161500000Y-85025000I225000J0D01*
G01*
X161950000Y-85025000D01*
G75*
G02*
X162175000Y-85250000I0J-225000D01*
G01*
X162175000Y-85750000D01*
G75*
G02*
X161950000Y-85975000I-225000J0D01*
G01*
X161500000Y-85975000D01*
G75*
G02*
X161275000Y-85750000I0J225000D01*
G01*
G37*
%TD*%
%TO.C,C10*%
G36*
G01*
X154775000Y-50110000D02*
X154775000Y-49610000D01*
G75*
G02*
X155000000Y-49385000I225000J0D01*
G01*
X155450000Y-49385000D01*
G75*
G02*
X155675000Y-49610000I0J-225000D01*
G01*
X155675000Y-50110000D01*
G75*
G02*
X155450000Y-50335000I-225000J0D01*
G01*
X155000000Y-50335000D01*
G75*
G02*
X154775000Y-50110000I0J225000D01*
G01*
G37*
G36*
G01*
X153225000Y-50110000D02*
X153225000Y-49610000D01*
G75*
G02*
X153450000Y-49385000I225000J0D01*
G01*
X153900000Y-49385000D01*
G75*
G02*
X154125000Y-49610000I0J-225000D01*
G01*
X154125000Y-50110000D01*
G75*
G02*
X153900000Y-50335000I-225000J0D01*
G01*
X153450000Y-50335000D01*
G75*
G02*
X153225000Y-50110000I0J225000D01*
G01*
G37*
%TD*%
%TO.C,C9*%
G36*
G01*
X157025000Y-75150000D02*
X157025000Y-74650000D01*
G75*
G02*
X157250000Y-74425000I225000J0D01*
G01*
X157700000Y-74425000D01*
G75*
G02*
X157925000Y-74650000I0J-225000D01*
G01*
X157925000Y-75150000D01*
G75*
G02*
X157700000Y-75375000I-225000J0D01*
G01*
X157250000Y-75375000D01*
G75*
G02*
X157025000Y-75150000I0J225000D01*
G01*
G37*
G36*
G01*
X155475000Y-75150000D02*
X155475000Y-74650000D01*
G75*
G02*
X155700000Y-74425000I225000J0D01*
G01*
X156150000Y-74425000D01*
G75*
G02*
X156375000Y-74650000I0J-225000D01*
G01*
X156375000Y-75150000D01*
G75*
G02*
X156150000Y-75375000I-225000J0D01*
G01*
X155700000Y-75375000D01*
G75*
G02*
X155475000Y-75150000I0J225000D01*
G01*
G37*
%TD*%
%TO.C,C8*%
G36*
G01*
X146430000Y-45455000D02*
X146930000Y-45455000D01*
G75*
G02*
X147155000Y-45680000I0J-225000D01*
G01*
X147155000Y-46130000D01*
G75*
G02*
X146930000Y-46355000I-225000J0D01*
G01*
X146430000Y-46355000D01*
G75*
G02*
X146205000Y-46130000I0J225000D01*
G01*
X146205000Y-45680000D01*
G75*
G02*
X146430000Y-45455000I225000J0D01*
G01*
G37*
G36*
G01*
X146430000Y-43905000D02*
X146930000Y-43905000D01*
G75*
G02*
X147155000Y-44130000I0J-225000D01*
G01*
X147155000Y-44580000D01*
G75*
G02*
X146930000Y-44805000I-225000J0D01*
G01*
X146430000Y-44805000D01*
G75*
G02*
X146205000Y-44580000I0J225000D01*
G01*
X146205000Y-44130000D01*
G75*
G02*
X146430000Y-43905000I225000J0D01*
G01*
G37*
%TD*%
%TO.C,C7*%
G36*
G01*
X117250000Y-94325000D02*
X117750000Y-94325000D01*
G75*
G02*
X117975000Y-94550000I0J-225000D01*
G01*
X117975000Y-95000000D01*
G75*
G02*
X117750000Y-95225000I-225000J0D01*
G01*
X117250000Y-95225000D01*
G75*
G02*
X117025000Y-95000000I0J225000D01*
G01*
X117025000Y-94550000D01*
G75*
G02*
X117250000Y-94325000I225000J0D01*
G01*
G37*
G36*
G01*
X117250000Y-92775000D02*
X117750000Y-92775000D01*
G75*
G02*
X117975000Y-93000000I0J-225000D01*
G01*
X117975000Y-93450000D01*
G75*
G02*
X117750000Y-93675000I-225000J0D01*
G01*
X117250000Y-93675000D01*
G75*
G02*
X117025000Y-93450000I0J225000D01*
G01*
X117025000Y-93000000D01*
G75*
G02*
X117250000Y-92775000I225000J0D01*
G01*
G37*
%TD*%
%TO.C,C6*%
G36*
G01*
X166175000Y-78150000D02*
X166175000Y-78650000D01*
G75*
G02*
X165950000Y-78875000I-225000J0D01*
G01*
X165500000Y-78875000D01*
G75*
G02*
X165275000Y-78650000I0J225000D01*
G01*
X165275000Y-78150000D01*
G75*
G02*
X165500000Y-77925000I225000J0D01*
G01*
X165950000Y-77925000D01*
G75*
G02*
X166175000Y-78150000I0J-225000D01*
G01*
G37*
G36*
G01*
X167725000Y-78150000D02*
X167725000Y-78650000D01*
G75*
G02*
X167500000Y-78875000I-225000J0D01*
G01*
X167050000Y-78875000D01*
G75*
G02*
X166825000Y-78650000I0J225000D01*
G01*
X166825000Y-78150000D01*
G75*
G02*
X167050000Y-77925000I225000J0D01*
G01*
X167500000Y-77925000D01*
G75*
G02*
X167725000Y-78150000I0J-225000D01*
G01*
G37*
%TD*%
%TO.C,C5*%
G36*
G01*
X147750000Y-57835000D02*
X148250000Y-57835000D01*
G75*
G02*
X148475000Y-58060000I0J-225000D01*
G01*
X148475000Y-58510000D01*
G75*
G02*
X148250000Y-58735000I-225000J0D01*
G01*
X147750000Y-58735000D01*
G75*
G02*
X147525000Y-58510000I0J225000D01*
G01*
X147525000Y-58060000D01*
G75*
G02*
X147750000Y-57835000I225000J0D01*
G01*
G37*
G36*
G01*
X147750000Y-56285000D02*
X148250000Y-56285000D01*
G75*
G02*
X148475000Y-56510000I0J-225000D01*
G01*
X148475000Y-56960000D01*
G75*
G02*
X148250000Y-57185000I-225000J0D01*
G01*
X147750000Y-57185000D01*
G75*
G02*
X147525000Y-56960000I0J225000D01*
G01*
X147525000Y-56510000D01*
G75*
G02*
X147750000Y-56285000I225000J0D01*
G01*
G37*
%TD*%
%TO.C,C4*%
G36*
G01*
X143400000Y-52650000D02*
X143400000Y-52150000D01*
G75*
G02*
X143625000Y-51925000I225000J0D01*
G01*
X144075000Y-51925000D01*
G75*
G02*
X144300000Y-52150000I0J-225000D01*
G01*
X144300000Y-52650000D01*
G75*
G02*
X144075000Y-52875000I-225000J0D01*
G01*
X143625000Y-52875000D01*
G75*
G02*
X143400000Y-52650000I0J225000D01*
G01*
G37*
G36*
G01*
X141850000Y-52650000D02*
X141850000Y-52150000D01*
G75*
G02*
X142075000Y-51925000I225000J0D01*
G01*
X142525000Y-51925000D01*
G75*
G02*
X142750000Y-52150000I0J-225000D01*
G01*
X142750000Y-52650000D01*
G75*
G02*
X142525000Y-52875000I-225000J0D01*
G01*
X142075000Y-52875000D01*
G75*
G02*
X141850000Y-52650000I0J225000D01*
G01*
G37*
%TD*%
%TO.C,C3*%
G36*
G01*
X109750000Y-94675000D02*
X109250000Y-94675000D01*
G75*
G02*
X109025000Y-94450000I0J225000D01*
G01*
X109025000Y-94000000D01*
G75*
G02*
X109250000Y-93775000I225000J0D01*
G01*
X109750000Y-93775000D01*
G75*
G02*
X109975000Y-94000000I0J-225000D01*
G01*
X109975000Y-94450000D01*
G75*
G02*
X109750000Y-94675000I-225000J0D01*
G01*
G37*
G36*
G01*
X109750000Y-96225000D02*
X109250000Y-96225000D01*
G75*
G02*
X109025000Y-96000000I0J225000D01*
G01*
X109025000Y-95550000D01*
G75*
G02*
X109250000Y-95325000I225000J0D01*
G01*
X109750000Y-95325000D01*
G75*
G02*
X109975000Y-95550000I0J-225000D01*
G01*
X109975000Y-96000000D01*
G75*
G02*
X109750000Y-96225000I-225000J0D01*
G01*
G37*
%TD*%
%TO.C,C2*%
G36*
G01*
X144250000Y-44805000D02*
X143750000Y-44805000D01*
G75*
G02*
X143525000Y-44580000I0J225000D01*
G01*
X143525000Y-44130000D01*
G75*
G02*
X143750000Y-43905000I225000J0D01*
G01*
X144250000Y-43905000D01*
G75*
G02*
X144475000Y-44130000I0J-225000D01*
G01*
X144475000Y-44580000D01*
G75*
G02*
X144250000Y-44805000I-225000J0D01*
G01*
G37*
G36*
G01*
X144250000Y-46355000D02*
X143750000Y-46355000D01*
G75*
G02*
X143525000Y-46130000I0J225000D01*
G01*
X143525000Y-45680000D01*
G75*
G02*
X143750000Y-45455000I225000J0D01*
G01*
X144250000Y-45455000D01*
G75*
G02*
X144475000Y-45680000I0J-225000D01*
G01*
X144475000Y-46130000D01*
G75*
G02*
X144250000Y-46355000I-225000J0D01*
G01*
G37*
%TD*%
%TO.C,C1*%
G36*
G01*
X151495000Y-62940000D02*
X151495000Y-62440000D01*
G75*
G02*
X151720000Y-62215000I225000J0D01*
G01*
X152170000Y-62215000D01*
G75*
G02*
X152395000Y-62440000I0J-225000D01*
G01*
X152395000Y-62940000D01*
G75*
G02*
X152170000Y-63165000I-225000J0D01*
G01*
X151720000Y-63165000D01*
G75*
G02*
X151495000Y-62940000I0J225000D01*
G01*
G37*
G36*
G01*
X149945000Y-62940000D02*
X149945000Y-62440000D01*
G75*
G02*
X150170000Y-62215000I225000J0D01*
G01*
X150620000Y-62215000D01*
G75*
G02*
X150845000Y-62440000I0J-225000D01*
G01*
X150845000Y-62940000D01*
G75*
G02*
X150620000Y-63165000I-225000J0D01*
G01*
X150170000Y-63165000D01*
G75*
G02*
X149945000Y-62940000I0J225000D01*
G01*
G37*
%TD*%
M02*
