%TF.GenerationSoftware,KiCad,Pcbnew,5.1.10-88a1d61d58~88~ubuntu20.04.1*%
%TF.CreationDate,2021-05-09T11:34:52+02:00*%
%TF.ProjectId,osw-light-modifiedv2,6f73772d-6c69-4676-9874-2d6d6f646966,rev?*%
%TF.SameCoordinates,Original*%
%TF.FileFunction,Legend,Bot*%
%TF.FilePolarity,Positive*%
%FSLAX46Y46*%
G04 Gerber Fmt 4.6, Leading zero omitted, Abs format (unit mm)*
G04 Created by KiCad (PCBNEW 5.1.10-88a1d61d58~88~ubuntu20.04.1) date 2021-05-09 11:34:52*
%MOMM*%
%LPD*%
G01*
G04 APERTURE LIST*
%ADD10C,0.150000*%
G04 APERTURE END LIST*
D10*
%TO.C,U10*%
X154200000Y-101150000D02*
X154200000Y-98550000D01*
X142800000Y-108200000D02*
X142800000Y-98600000D01*
X144300000Y-102450000D02*
G75*
G03*
X144300000Y-102450000I-500000J0D01*
G01*
X154300000Y-102450000D02*
G75*
G03*
X154300000Y-102450000I-500000J0D01*
G01*
X143200000Y-98200000D02*
X144200000Y-98200000D01*
X155000000Y-108200000D02*
X155000000Y-101950000D01*
X154600000Y-108600000D02*
X143200000Y-108600000D01*
X152800000Y-98200000D02*
X153800000Y-98200000D01*
X154600000Y-108600000D02*
G75*
G03*
X155000000Y-108200000I0J400000D01*
G01*
X142800000Y-108200000D02*
G75*
G03*
X143200000Y-108600000I400000J0D01*
G01*
X155000000Y-101950000D02*
G75*
G03*
X154600000Y-101550000I-400000J0D01*
G01*
X154200000Y-101150000D02*
G75*
G03*
X154600000Y-101550000I400000J0D01*
G01*
X143200000Y-98200000D02*
G75*
G03*
X142800000Y-98600000I0J-400000D01*
G01*
X154200000Y-98600000D02*
G75*
G03*
X153800000Y-98200000I-400000J0D01*
G01*
X149738095Y-104302380D02*
X149738095Y-105111904D01*
X149690476Y-105207142D01*
X149642857Y-105254761D01*
X149547619Y-105302380D01*
X149357142Y-105302380D01*
X149261904Y-105254761D01*
X149214285Y-105207142D01*
X149166666Y-105111904D01*
X149166666Y-104302380D01*
X148166666Y-105302380D02*
X148738095Y-105302380D01*
X148452380Y-105302380D02*
X148452380Y-104302380D01*
X148547619Y-104445238D01*
X148642857Y-104540476D01*
X148738095Y-104588095D01*
X147547619Y-104302380D02*
X147452380Y-104302380D01*
X147357142Y-104350000D01*
X147309523Y-104397619D01*
X147261904Y-104492857D01*
X147214285Y-104683333D01*
X147214285Y-104921428D01*
X147261904Y-105111904D01*
X147309523Y-105207142D01*
X147357142Y-105254761D01*
X147452380Y-105302380D01*
X147547619Y-105302380D01*
X147642857Y-105254761D01*
X147690476Y-105207142D01*
X147738095Y-105111904D01*
X147785714Y-104921428D01*
X147785714Y-104683333D01*
X147738095Y-104492857D01*
X147690476Y-104397619D01*
X147642857Y-104350000D01*
X147547619Y-104302380D01*
X145340476Y-101802380D02*
X145911904Y-101802380D01*
X145626190Y-101802380D02*
X145626190Y-100802380D01*
X145721428Y-100945238D01*
X145816666Y-101040476D01*
X145911904Y-101088095D01*
X144959523Y-100897619D02*
X144911904Y-100850000D01*
X144816666Y-100802380D01*
X144578571Y-100802380D01*
X144483333Y-100850000D01*
X144435714Y-100897619D01*
X144388095Y-100992857D01*
X144388095Y-101088095D01*
X144435714Y-101230952D01*
X145007142Y-101802380D01*
X144388095Y-101802380D01*
X152064285Y-101852380D02*
X152635714Y-101852380D01*
X152350000Y-101852380D02*
X152350000Y-100852380D01*
X152445238Y-100995238D01*
X152540476Y-101090476D01*
X152635714Y-101138095D01*
%TD*%
M02*
