%TF.GenerationSoftware,KiCad,Pcbnew,5.1.10-88a1d61d58~88~ubuntu20.04.1*%
%TF.CreationDate,2021-05-09T11:34:52+02:00*%
%TF.ProjectId,osw-light-modifiedv2,6f73772d-6c69-4676-9874-2d6d6f646966,rev?*%
%TF.SameCoordinates,Original*%
%TF.FileFunction,Copper,L3,Inr*%
%TF.FilePolarity,Positive*%
%FSLAX46Y46*%
G04 Gerber Fmt 4.6, Leading zero omitted, Abs format (unit mm)*
G04 Created by KiCad (PCBNEW 5.1.10-88a1d61d58~88~ubuntu20.04.1) date 2021-05-09 11:34:52*
%MOMM*%
%LPD*%
G01*
G04 APERTURE LIST*
%TA.AperFunction,ComponentPad*%
%ADD10O,2.000000X1.500000*%
%TD*%
%TA.AperFunction,ComponentPad*%
%ADD11O,0.600000X1.524000*%
%TD*%
%TA.AperFunction,ComponentPad*%
%ADD12O,1.700000X1.700000*%
%TD*%
%TA.AperFunction,ComponentPad*%
%ADD13R,1.700000X1.700000*%
%TD*%
%TA.AperFunction,ViaPad*%
%ADD14C,0.800000*%
%TD*%
%TA.AperFunction,Conductor*%
%ADD15C,0.254000*%
%TD*%
%TA.AperFunction,Conductor*%
%ADD16C,0.100000*%
%TD*%
G04 APERTURE END LIST*
D10*
%TO.N,*%
%TO.C,U12*%
X169527000Y-91752000D03*
X169527000Y-97848000D03*
%TD*%
D11*
%TO.N,*%
%TO.C,SW4*%
X138055001Y-108886999D03*
X132975001Y-108886999D03*
%TD*%
%TO.N,*%
%TO.C,SW3*%
X163325001Y-108516999D03*
X158245001Y-108516999D03*
%TD*%
%TO.N,*%
%TO.C,SW2*%
X121575001Y-108866999D03*
X116495001Y-108866999D03*
%TD*%
%TO.N,*%
%TO.C,SW1*%
X129740000Y-108850000D03*
X124660000Y-108850000D03*
%TD*%
D12*
%TO.N,GND*%
%TO.C,J3*%
X113500000Y-82460000D03*
D13*
%TO.N,/VBAT*%
X113500000Y-85000000D03*
%TD*%
D14*
%TO.N,/VBUS*%
X125500000Y-97000000D03*
X164600000Y-99700000D03*
%TO.N,GND*%
X163300000Y-86800000D03*
X132800000Y-61900000D03*
X131600000Y-91400000D03*
X131600000Y-89000000D03*
X127000000Y-93600000D03*
X124000000Y-93700000D03*
X135800000Y-82000000D03*
X136800000Y-79000000D03*
X133300000Y-74300000D03*
X113500000Y-79500000D03*
X119000000Y-74500000D03*
X118900000Y-94800000D03*
X109500000Y-95700000D03*
X143600000Y-99100000D03*
X138400000Y-106900000D03*
X149800000Y-109200000D03*
X149100000Y-101300000D03*
X153400000Y-99200000D03*
X165100000Y-93500000D03*
X156500000Y-61300000D03*
X159500000Y-62700000D03*
X161600000Y-71900000D03*
X165700000Y-79900000D03*
X158100000Y-100500000D03*
X163600000Y-106500000D03*
X116000000Y-99000000D03*
X124900000Y-104800000D03*
X117100000Y-104800000D03*
X132600000Y-71300000D03*
X135500000Y-62000000D03*
X132800000Y-64400000D03*
X130000000Y-57000000D03*
X131500000Y-55500000D03*
X131500000Y-57000000D03*
X130000000Y-55500000D03*
X149300000Y-51500000D03*
X148200000Y-50500000D03*
X153000000Y-44300000D03*
X156400000Y-51000000D03*
X163800000Y-80100000D03*
X160700000Y-90600000D03*
X124500000Y-86500000D03*
X124500000Y-84500000D03*
X158300000Y-76000000D03*
%TO.N,+3V3*%
X135700000Y-86400000D03*
X160700000Y-97200000D03*
X155900000Y-78800000D03*
X135800000Y-91500000D03*
X135800000Y-89000000D03*
X153600000Y-94300000D03*
X150000000Y-94300000D03*
X148100000Y-103600000D03*
X150200000Y-96900000D03*
X146500000Y-70900000D03*
X164200000Y-69400000D03*
X167300000Y-79900000D03*
X171400000Y-74400000D03*
X162300000Y-100400000D03*
X162900000Y-104400000D03*
X118500000Y-106700000D03*
X126800000Y-106500000D03*
X138000000Y-104900000D03*
X161700000Y-86800000D03*
X164900000Y-83700000D03*
X161800000Y-81000000D03*
X156700000Y-73400000D03*
%TO.N,/VBAT*%
X116200000Y-91800000D03*
X116200000Y-87100000D03*
%TO.N,/VCC*%
X135800000Y-84300000D03*
X121100000Y-82950000D03*
X133200000Y-68900000D03*
X127400000Y-74280000D03*
X130300000Y-79000000D03*
X131100000Y-82000000D03*
X128300000Y-68900000D03*
X128200000Y-71200000D03*
X130700000Y-84300000D03*
X125600000Y-86500000D03*
%TO.N,/LEDK*%
X153000000Y-101700000D03*
%TO.N,/STAT_PWR*%
X138400000Y-87000000D03*
X121100000Y-87500000D03*
X128300000Y-82600000D03*
X130200000Y-87700000D03*
%TO.N,/B_MON*%
X148300000Y-75200000D03*
X121100000Y-77825000D03*
%TO.N,/PIN_LED*%
X144500000Y-104500000D03*
X138500000Y-82500000D03*
%TO.N,/EN*%
X158300000Y-93300000D03*
X157000014Y-72000000D03*
%TO.N,Net-(R14-Pad1)*%
X123400000Y-82700000D03*
X122400000Y-80000000D03*
%TO.N,/SDA*%
X160600000Y-84100000D03*
X162400000Y-80200000D03*
%TO.N,/SCL*%
X156000000Y-88100000D03*
X164700000Y-81500000D03*
X157400000Y-85600000D03*
X160225010Y-85600000D03*
%TO.N,/TFT_CS*%
X147700000Y-94200016D03*
%TO.N,/SCK*%
X146900000Y-95600000D03*
%TO.N,/MOSI*%
X146074990Y-97000000D03*
%TO.N,/RX*%
X161000000Y-99100000D03*
X152800000Y-92200000D03*
%TO.N,/TFT_RST*%
X148800000Y-78800000D03*
X146200000Y-92000000D03*
X144900006Y-95400000D03*
%TO.N,/TFT_DC*%
X143704000Y-78900000D03*
%TO.N,Net-(C2-Pad1)*%
X155000000Y-56400000D03*
X146760000Y-53600000D03*
X145270000Y-47780000D03*
%TO.N,/REF_OUT*%
X148400000Y-60300000D03*
X152300000Y-59300000D03*
%TO.N,+3.3VA*%
X141900000Y-65000000D03*
X161000000Y-65800000D03*
X119400000Y-42800000D03*
X140300000Y-44800000D03*
X151900000Y-49900000D03*
X149300000Y-42900000D03*
X149600000Y-47800000D03*
X128000000Y-64300000D03*
X127900000Y-61820000D03*
%TO.N,/SCL_2*%
X143900000Y-73800000D03*
X152000000Y-73800000D03*
%TO.N,Net-(R32-Pad1)*%
X164100000Y-94000000D03*
X164200000Y-96900000D03*
%TO.N,Net-(R33-Pad2)*%
X151300000Y-101700000D03*
%TO.N,/LO*%
X153400000Y-54700000D03*
X152600000Y-67900000D03*
%TD*%
D15*
%TO.N,+3.3VA*%
X174315000Y-67373000D02*
X153492654Y-67373000D01*
X153403937Y-67240226D01*
X153259774Y-67096063D01*
X153090256Y-66982795D01*
X152901898Y-66904774D01*
X152701939Y-66865000D01*
X152498061Y-66865000D01*
X152298102Y-66904774D01*
X152109744Y-66982795D01*
X151940226Y-67096063D01*
X151796063Y-67240226D01*
X151707346Y-67373000D01*
X105685000Y-67373000D01*
X105685000Y-64298061D01*
X131765000Y-64298061D01*
X131765000Y-64501939D01*
X131804774Y-64701898D01*
X131882795Y-64890256D01*
X131996063Y-65059774D01*
X132140226Y-65203937D01*
X132309744Y-65317205D01*
X132498102Y-65395226D01*
X132698061Y-65435000D01*
X132901939Y-65435000D01*
X133101898Y-65395226D01*
X133290256Y-65317205D01*
X133459774Y-65203937D01*
X133603937Y-65059774D01*
X133717205Y-64890256D01*
X133795226Y-64701898D01*
X133835000Y-64501939D01*
X133835000Y-64298061D01*
X133795226Y-64098102D01*
X133717205Y-63909744D01*
X133603937Y-63740226D01*
X133459774Y-63596063D01*
X133290256Y-63482795D01*
X133101898Y-63404774D01*
X132901939Y-63365000D01*
X132698061Y-63365000D01*
X132498102Y-63404774D01*
X132309744Y-63482795D01*
X132140226Y-63596063D01*
X131996063Y-63740226D01*
X131882795Y-63909744D01*
X131804774Y-64098102D01*
X131765000Y-64298061D01*
X105685000Y-64298061D01*
X105685000Y-61798061D01*
X131765000Y-61798061D01*
X131765000Y-62001939D01*
X131804774Y-62201898D01*
X131882795Y-62390256D01*
X131996063Y-62559774D01*
X132140226Y-62703937D01*
X132309744Y-62817205D01*
X132498102Y-62895226D01*
X132698061Y-62935000D01*
X132901939Y-62935000D01*
X133101898Y-62895226D01*
X133290256Y-62817205D01*
X133459774Y-62703937D01*
X133603937Y-62559774D01*
X133717205Y-62390256D01*
X133795226Y-62201898D01*
X133835000Y-62001939D01*
X133835000Y-61898061D01*
X134465000Y-61898061D01*
X134465000Y-62101939D01*
X134504774Y-62301898D01*
X134582795Y-62490256D01*
X134696063Y-62659774D01*
X134840226Y-62803937D01*
X135009744Y-62917205D01*
X135198102Y-62995226D01*
X135398061Y-63035000D01*
X135601939Y-63035000D01*
X135801898Y-62995226D01*
X135990256Y-62917205D01*
X136159774Y-62803937D01*
X136303937Y-62659774D01*
X136345172Y-62598061D01*
X158465000Y-62598061D01*
X158465000Y-62801939D01*
X158504774Y-63001898D01*
X158582795Y-63190256D01*
X158696063Y-63359774D01*
X158840226Y-63503937D01*
X159009744Y-63617205D01*
X159198102Y-63695226D01*
X159398061Y-63735000D01*
X159601939Y-63735000D01*
X159801898Y-63695226D01*
X159990256Y-63617205D01*
X160159774Y-63503937D01*
X160303937Y-63359774D01*
X160417205Y-63190256D01*
X160495226Y-63001898D01*
X160535000Y-62801939D01*
X160535000Y-62598061D01*
X160495226Y-62398102D01*
X160417205Y-62209744D01*
X160303937Y-62040226D01*
X160159774Y-61896063D01*
X159990256Y-61782795D01*
X159801898Y-61704774D01*
X159601939Y-61665000D01*
X159398061Y-61665000D01*
X159198102Y-61704774D01*
X159009744Y-61782795D01*
X158840226Y-61896063D01*
X158696063Y-62040226D01*
X158582795Y-62209744D01*
X158504774Y-62398102D01*
X158465000Y-62598061D01*
X136345172Y-62598061D01*
X136417205Y-62490256D01*
X136495226Y-62301898D01*
X136535000Y-62101939D01*
X136535000Y-61898061D01*
X136495226Y-61698102D01*
X136417205Y-61509744D01*
X136303937Y-61340226D01*
X136159774Y-61196063D01*
X135990256Y-61082795D01*
X135801898Y-61004774D01*
X135601939Y-60965000D01*
X135398061Y-60965000D01*
X135198102Y-61004774D01*
X135009744Y-61082795D01*
X134840226Y-61196063D01*
X134696063Y-61340226D01*
X134582795Y-61509744D01*
X134504774Y-61698102D01*
X134465000Y-61898061D01*
X133835000Y-61898061D01*
X133835000Y-61798061D01*
X133795226Y-61598102D01*
X133717205Y-61409744D01*
X133603937Y-61240226D01*
X133459774Y-61096063D01*
X133290256Y-60982795D01*
X133101898Y-60904774D01*
X132901939Y-60865000D01*
X132698061Y-60865000D01*
X132498102Y-60904774D01*
X132309744Y-60982795D01*
X132140226Y-61096063D01*
X131996063Y-61240226D01*
X131882795Y-61409744D01*
X131804774Y-61598102D01*
X131765000Y-61798061D01*
X105685000Y-61798061D01*
X105685000Y-60198061D01*
X147365000Y-60198061D01*
X147365000Y-60401939D01*
X147404774Y-60601898D01*
X147482795Y-60790256D01*
X147596063Y-60959774D01*
X147740226Y-61103937D01*
X147909744Y-61217205D01*
X148098102Y-61295226D01*
X148298061Y-61335000D01*
X148501939Y-61335000D01*
X148701898Y-61295226D01*
X148890256Y-61217205D01*
X148918907Y-61198061D01*
X155465000Y-61198061D01*
X155465000Y-61401939D01*
X155504774Y-61601898D01*
X155582795Y-61790256D01*
X155696063Y-61959774D01*
X155840226Y-62103937D01*
X156009744Y-62217205D01*
X156198102Y-62295226D01*
X156398061Y-62335000D01*
X156601939Y-62335000D01*
X156801898Y-62295226D01*
X156990256Y-62217205D01*
X157159774Y-62103937D01*
X157303937Y-61959774D01*
X157417205Y-61790256D01*
X157495226Y-61601898D01*
X157535000Y-61401939D01*
X157535000Y-61198061D01*
X157495226Y-60998102D01*
X157417205Y-60809744D01*
X157303937Y-60640226D01*
X157159774Y-60496063D01*
X156990256Y-60382795D01*
X156801898Y-60304774D01*
X156601939Y-60265000D01*
X156398061Y-60265000D01*
X156198102Y-60304774D01*
X156009744Y-60382795D01*
X155840226Y-60496063D01*
X155696063Y-60640226D01*
X155582795Y-60809744D01*
X155504774Y-60998102D01*
X155465000Y-61198061D01*
X148918907Y-61198061D01*
X149059774Y-61103937D01*
X149203937Y-60959774D01*
X149317205Y-60790256D01*
X149395226Y-60601898D01*
X149435000Y-60401939D01*
X149435000Y-60198061D01*
X149395226Y-59998102D01*
X149317205Y-59809744D01*
X149203937Y-59640226D01*
X149059774Y-59496063D01*
X148890256Y-59382795D01*
X148701898Y-59304774D01*
X148501939Y-59265000D01*
X148298061Y-59265000D01*
X148098102Y-59304774D01*
X147909744Y-59382795D01*
X147740226Y-59496063D01*
X147596063Y-59640226D01*
X147482795Y-59809744D01*
X147404774Y-59998102D01*
X147365000Y-60198061D01*
X105685000Y-60198061D01*
X105685000Y-59198061D01*
X151265000Y-59198061D01*
X151265000Y-59401939D01*
X151304774Y-59601898D01*
X151382795Y-59790256D01*
X151496063Y-59959774D01*
X151640226Y-60103937D01*
X151809744Y-60217205D01*
X151998102Y-60295226D01*
X152198061Y-60335000D01*
X152401939Y-60335000D01*
X152601898Y-60295226D01*
X152790256Y-60217205D01*
X152959774Y-60103937D01*
X153103937Y-59959774D01*
X153217205Y-59790256D01*
X153295226Y-59601898D01*
X153335000Y-59401939D01*
X153335000Y-59198061D01*
X153295226Y-58998102D01*
X153217205Y-58809744D01*
X153103937Y-58640226D01*
X152959774Y-58496063D01*
X152790256Y-58382795D01*
X152601898Y-58304774D01*
X152401939Y-58265000D01*
X152198061Y-58265000D01*
X151998102Y-58304774D01*
X151809744Y-58382795D01*
X151640226Y-58496063D01*
X151496063Y-58640226D01*
X151382795Y-58809744D01*
X151304774Y-58998102D01*
X151265000Y-59198061D01*
X105685000Y-59198061D01*
X105685000Y-55398061D01*
X128965000Y-55398061D01*
X128965000Y-55601939D01*
X129004774Y-55801898D01*
X129082795Y-55990256D01*
X129196063Y-56159774D01*
X129286289Y-56250000D01*
X129196063Y-56340226D01*
X129082795Y-56509744D01*
X129004774Y-56698102D01*
X128965000Y-56898061D01*
X128965000Y-57101939D01*
X129004774Y-57301898D01*
X129082795Y-57490256D01*
X129196063Y-57659774D01*
X129340226Y-57803937D01*
X129509744Y-57917205D01*
X129698102Y-57995226D01*
X129898061Y-58035000D01*
X130101939Y-58035000D01*
X130301898Y-57995226D01*
X130490256Y-57917205D01*
X130659774Y-57803937D01*
X130750000Y-57713711D01*
X130840226Y-57803937D01*
X131009744Y-57917205D01*
X131198102Y-57995226D01*
X131398061Y-58035000D01*
X131601939Y-58035000D01*
X131801898Y-57995226D01*
X131990256Y-57917205D01*
X132159774Y-57803937D01*
X132303937Y-57659774D01*
X132417205Y-57490256D01*
X132495226Y-57301898D01*
X132535000Y-57101939D01*
X132535000Y-56898061D01*
X132495226Y-56698102D01*
X132417205Y-56509744D01*
X132303937Y-56340226D01*
X132261772Y-56298061D01*
X153965000Y-56298061D01*
X153965000Y-56501939D01*
X154004774Y-56701898D01*
X154082795Y-56890256D01*
X154196063Y-57059774D01*
X154340226Y-57203937D01*
X154509744Y-57317205D01*
X154698102Y-57395226D01*
X154898061Y-57435000D01*
X155101939Y-57435000D01*
X155301898Y-57395226D01*
X155490256Y-57317205D01*
X155659774Y-57203937D01*
X155803937Y-57059774D01*
X155917205Y-56890256D01*
X155995226Y-56701898D01*
X156035000Y-56501939D01*
X156035000Y-56298061D01*
X155995226Y-56098102D01*
X155917205Y-55909744D01*
X155803937Y-55740226D01*
X155659774Y-55596063D01*
X155490256Y-55482795D01*
X155301898Y-55404774D01*
X155101939Y-55365000D01*
X154898061Y-55365000D01*
X154698102Y-55404774D01*
X154509744Y-55482795D01*
X154340226Y-55596063D01*
X154196063Y-55740226D01*
X154082795Y-55909744D01*
X154004774Y-56098102D01*
X153965000Y-56298061D01*
X132261772Y-56298061D01*
X132213711Y-56250000D01*
X132303937Y-56159774D01*
X132417205Y-55990256D01*
X132495226Y-55801898D01*
X132535000Y-55601939D01*
X132535000Y-55398061D01*
X132495226Y-55198102D01*
X132417205Y-55009744D01*
X132303937Y-54840226D01*
X132159774Y-54696063D01*
X131990256Y-54582795D01*
X131801898Y-54504774D01*
X131601939Y-54465000D01*
X131398061Y-54465000D01*
X131198102Y-54504774D01*
X131009744Y-54582795D01*
X130840226Y-54696063D01*
X130750000Y-54786289D01*
X130659774Y-54696063D01*
X130490256Y-54582795D01*
X130301898Y-54504774D01*
X130101939Y-54465000D01*
X129898061Y-54465000D01*
X129698102Y-54504774D01*
X129509744Y-54582795D01*
X129340226Y-54696063D01*
X129196063Y-54840226D01*
X129082795Y-55009744D01*
X129004774Y-55198102D01*
X128965000Y-55398061D01*
X105685000Y-55398061D01*
X105685000Y-53498061D01*
X145725000Y-53498061D01*
X145725000Y-53701939D01*
X145764774Y-53901898D01*
X145842795Y-54090256D01*
X145956063Y-54259774D01*
X146100226Y-54403937D01*
X146269744Y-54517205D01*
X146458102Y-54595226D01*
X146658061Y-54635000D01*
X146861939Y-54635000D01*
X147047645Y-54598061D01*
X152365000Y-54598061D01*
X152365000Y-54801939D01*
X152404774Y-55001898D01*
X152482795Y-55190256D01*
X152596063Y-55359774D01*
X152740226Y-55503937D01*
X152909744Y-55617205D01*
X153098102Y-55695226D01*
X153298061Y-55735000D01*
X153501939Y-55735000D01*
X153701898Y-55695226D01*
X153890256Y-55617205D01*
X154059774Y-55503937D01*
X154203937Y-55359774D01*
X154317205Y-55190256D01*
X154395226Y-55001898D01*
X154435000Y-54801939D01*
X154435000Y-54598061D01*
X154395226Y-54398102D01*
X154317205Y-54209744D01*
X154203937Y-54040226D01*
X154059774Y-53896063D01*
X153890256Y-53782795D01*
X153701898Y-53704774D01*
X153501939Y-53665000D01*
X153298061Y-53665000D01*
X153098102Y-53704774D01*
X152909744Y-53782795D01*
X152740226Y-53896063D01*
X152596063Y-54040226D01*
X152482795Y-54209744D01*
X152404774Y-54398102D01*
X152365000Y-54598061D01*
X147047645Y-54598061D01*
X147061898Y-54595226D01*
X147250256Y-54517205D01*
X147419774Y-54403937D01*
X147563937Y-54259774D01*
X147677205Y-54090256D01*
X147755226Y-53901898D01*
X147795000Y-53701939D01*
X147795000Y-53498061D01*
X147755226Y-53298102D01*
X147677205Y-53109744D01*
X147563937Y-52940226D01*
X147419774Y-52796063D01*
X147250256Y-52682795D01*
X147061898Y-52604774D01*
X146861939Y-52565000D01*
X146658061Y-52565000D01*
X146458102Y-52604774D01*
X146269744Y-52682795D01*
X146100226Y-52796063D01*
X145956063Y-52940226D01*
X145842795Y-53109744D01*
X145764774Y-53298102D01*
X145725000Y-53498061D01*
X105685000Y-53498061D01*
X105685000Y-50753740D01*
X128315000Y-50753740D01*
X128315000Y-51046260D01*
X128372068Y-51333158D01*
X128484010Y-51603411D01*
X128646525Y-51846632D01*
X128853368Y-52053475D01*
X129096589Y-52215990D01*
X129366842Y-52327932D01*
X129653740Y-52385000D01*
X129946260Y-52385000D01*
X130233158Y-52327932D01*
X130503411Y-52215990D01*
X130746632Y-52053475D01*
X130953475Y-51846632D01*
X131115990Y-51603411D01*
X131227932Y-51333158D01*
X131285000Y-51046260D01*
X131285000Y-50753740D01*
X131227932Y-50466842D01*
X131199443Y-50398061D01*
X147165000Y-50398061D01*
X147165000Y-50601939D01*
X147204774Y-50801898D01*
X147282795Y-50990256D01*
X147396063Y-51159774D01*
X147540226Y-51303937D01*
X147709744Y-51417205D01*
X147898102Y-51495226D01*
X148098061Y-51535000D01*
X148265000Y-51535000D01*
X148265000Y-51601939D01*
X148304774Y-51801898D01*
X148382795Y-51990256D01*
X148496063Y-52159774D01*
X148640226Y-52303937D01*
X148809744Y-52417205D01*
X148998102Y-52495226D01*
X149198061Y-52535000D01*
X149401939Y-52535000D01*
X149601898Y-52495226D01*
X149790256Y-52417205D01*
X149959774Y-52303937D01*
X150103937Y-52159774D01*
X150217205Y-51990256D01*
X150295226Y-51801898D01*
X150335000Y-51601939D01*
X150335000Y-51398061D01*
X150295226Y-51198102D01*
X150217205Y-51009744D01*
X150142582Y-50898061D01*
X155365000Y-50898061D01*
X155365000Y-51101939D01*
X155404774Y-51301898D01*
X155482795Y-51490256D01*
X155596063Y-51659774D01*
X155740226Y-51803937D01*
X155909744Y-51917205D01*
X156098102Y-51995226D01*
X156298061Y-52035000D01*
X156501939Y-52035000D01*
X156701898Y-51995226D01*
X156890256Y-51917205D01*
X157059774Y-51803937D01*
X157203937Y-51659774D01*
X157317205Y-51490256D01*
X157395226Y-51301898D01*
X157435000Y-51101939D01*
X157435000Y-50898061D01*
X157395226Y-50698102D01*
X157317205Y-50509744D01*
X157203937Y-50340226D01*
X157059774Y-50196063D01*
X156890256Y-50082795D01*
X156701898Y-50004774D01*
X156501939Y-49965000D01*
X156298061Y-49965000D01*
X156098102Y-50004774D01*
X155909744Y-50082795D01*
X155740226Y-50196063D01*
X155596063Y-50340226D01*
X155482795Y-50509744D01*
X155404774Y-50698102D01*
X155365000Y-50898061D01*
X150142582Y-50898061D01*
X150103937Y-50840226D01*
X149959774Y-50696063D01*
X149790256Y-50582795D01*
X149601898Y-50504774D01*
X149401939Y-50465000D01*
X149235000Y-50465000D01*
X149235000Y-50398061D01*
X149195226Y-50198102D01*
X149117205Y-50009744D01*
X149003937Y-49840226D01*
X148859774Y-49696063D01*
X148690256Y-49582795D01*
X148501898Y-49504774D01*
X148301939Y-49465000D01*
X148098061Y-49465000D01*
X147898102Y-49504774D01*
X147709744Y-49582795D01*
X147540226Y-49696063D01*
X147396063Y-49840226D01*
X147282795Y-50009744D01*
X147204774Y-50198102D01*
X147165000Y-50398061D01*
X131199443Y-50398061D01*
X131115990Y-50196589D01*
X130953475Y-49953368D01*
X130746632Y-49746525D01*
X130503411Y-49584010D01*
X130233158Y-49472068D01*
X129946260Y-49415000D01*
X129653740Y-49415000D01*
X129366842Y-49472068D01*
X129096589Y-49584010D01*
X128853368Y-49746525D01*
X128646525Y-49953368D01*
X128484010Y-50196589D01*
X128372068Y-50466842D01*
X128315000Y-50753740D01*
X105685000Y-50753740D01*
X105685000Y-47678061D01*
X144235000Y-47678061D01*
X144235000Y-47881939D01*
X144274774Y-48081898D01*
X144352795Y-48270256D01*
X144466063Y-48439774D01*
X144610226Y-48583937D01*
X144779744Y-48697205D01*
X144968102Y-48775226D01*
X145168061Y-48815000D01*
X145371939Y-48815000D01*
X145571898Y-48775226D01*
X145760256Y-48697205D01*
X145929774Y-48583937D01*
X146073937Y-48439774D01*
X146187205Y-48270256D01*
X146265226Y-48081898D01*
X146305000Y-47881939D01*
X146305000Y-47678061D01*
X146265226Y-47478102D01*
X146187205Y-47289744D01*
X146073937Y-47120226D01*
X145929774Y-46976063D01*
X145760256Y-46862795D01*
X145571898Y-46784774D01*
X145371939Y-46745000D01*
X145168061Y-46745000D01*
X144968102Y-46784774D01*
X144779744Y-46862795D01*
X144610226Y-46976063D01*
X144466063Y-47120226D01*
X144352795Y-47289744D01*
X144274774Y-47478102D01*
X144235000Y-47678061D01*
X105685000Y-47678061D01*
X105685000Y-43753740D01*
X128315000Y-43753740D01*
X128315000Y-44046260D01*
X128372068Y-44333158D01*
X128484010Y-44603411D01*
X128646525Y-44846632D01*
X128853368Y-45053475D01*
X129096589Y-45215990D01*
X129366842Y-45327932D01*
X129653740Y-45385000D01*
X129946260Y-45385000D01*
X130233158Y-45327932D01*
X130503411Y-45215990D01*
X130746632Y-45053475D01*
X130953475Y-44846632D01*
X131115990Y-44603411D01*
X131227932Y-44333158D01*
X131254804Y-44198061D01*
X151965000Y-44198061D01*
X151965000Y-44401939D01*
X152004774Y-44601898D01*
X152082795Y-44790256D01*
X152196063Y-44959774D01*
X152340226Y-45103937D01*
X152509744Y-45217205D01*
X152698102Y-45295226D01*
X152898061Y-45335000D01*
X153101939Y-45335000D01*
X153301898Y-45295226D01*
X153490256Y-45217205D01*
X153659774Y-45103937D01*
X153803937Y-44959774D01*
X153917205Y-44790256D01*
X153995226Y-44601898D01*
X154035000Y-44401939D01*
X154035000Y-44198061D01*
X153995226Y-43998102D01*
X153917205Y-43809744D01*
X153803937Y-43640226D01*
X153659774Y-43496063D01*
X153490256Y-43382795D01*
X153301898Y-43304774D01*
X153101939Y-43265000D01*
X152898061Y-43265000D01*
X152698102Y-43304774D01*
X152509744Y-43382795D01*
X152340226Y-43496063D01*
X152196063Y-43640226D01*
X152082795Y-43809744D01*
X152004774Y-43998102D01*
X151965000Y-44198061D01*
X131254804Y-44198061D01*
X131285000Y-44046260D01*
X131285000Y-43753740D01*
X131227932Y-43466842D01*
X131115990Y-43196589D01*
X130953475Y-42953368D01*
X130746632Y-42746525D01*
X130503411Y-42584010D01*
X130233158Y-42472068D01*
X129946260Y-42415000D01*
X129653740Y-42415000D01*
X129366842Y-42472068D01*
X129096589Y-42584010D01*
X128853368Y-42746525D01*
X128646525Y-42953368D01*
X128484010Y-43196589D01*
X128372068Y-43466842D01*
X128315000Y-43753740D01*
X105685000Y-43753740D01*
X105685000Y-38825701D01*
X107315000Y-38825701D01*
X107315000Y-39374299D01*
X107422026Y-39912354D01*
X107631965Y-40419192D01*
X107936750Y-40875334D01*
X108324666Y-41263250D01*
X108780808Y-41568035D01*
X109287646Y-41777974D01*
X109825701Y-41885000D01*
X110374299Y-41885000D01*
X110912354Y-41777974D01*
X111419192Y-41568035D01*
X111875334Y-41263250D01*
X112263250Y-40875334D01*
X112568035Y-40419192D01*
X112777974Y-39912354D01*
X112885000Y-39374299D01*
X112885000Y-38825701D01*
X167115000Y-38825701D01*
X167115000Y-39374299D01*
X167222026Y-39912354D01*
X167431965Y-40419192D01*
X167736750Y-40875334D01*
X168124666Y-41263250D01*
X168580808Y-41568035D01*
X169087646Y-41777974D01*
X169625701Y-41885000D01*
X170174299Y-41885000D01*
X170712354Y-41777974D01*
X171219192Y-41568035D01*
X171675334Y-41263250D01*
X172063250Y-40875334D01*
X172368035Y-40419192D01*
X172577974Y-39912354D01*
X172685000Y-39374299D01*
X172685000Y-38825701D01*
X172577974Y-38287646D01*
X172368035Y-37780808D01*
X172063250Y-37324666D01*
X171675334Y-36936750D01*
X171219192Y-36631965D01*
X170712354Y-36422026D01*
X170174299Y-36315000D01*
X169625701Y-36315000D01*
X169087646Y-36422026D01*
X168580808Y-36631965D01*
X168124666Y-36936750D01*
X167736750Y-37324666D01*
X167431965Y-37780808D01*
X167222026Y-38287646D01*
X167115000Y-38825701D01*
X112885000Y-38825701D01*
X112777974Y-38287646D01*
X112568035Y-37780808D01*
X112263250Y-37324666D01*
X111875334Y-36936750D01*
X111419192Y-36631965D01*
X110912354Y-36422026D01*
X110374299Y-36315000D01*
X109825701Y-36315000D01*
X109287646Y-36422026D01*
X108780808Y-36631965D01*
X108324666Y-36936750D01*
X107936750Y-37324666D01*
X107631965Y-37780808D01*
X107422026Y-38287646D01*
X107315000Y-38825701D01*
X105685000Y-38825701D01*
X105685000Y-34685000D01*
X174315000Y-34685000D01*
X174315000Y-67373000D01*
%TA.AperFunction,Conductor*%
D16*
G36*
X174315000Y-67373000D02*
G01*
X153492654Y-67373000D01*
X153403937Y-67240226D01*
X153259774Y-67096063D01*
X153090256Y-66982795D01*
X152901898Y-66904774D01*
X152701939Y-66865000D01*
X152498061Y-66865000D01*
X152298102Y-66904774D01*
X152109744Y-66982795D01*
X151940226Y-67096063D01*
X151796063Y-67240226D01*
X151707346Y-67373000D01*
X105685000Y-67373000D01*
X105685000Y-64298061D01*
X131765000Y-64298061D01*
X131765000Y-64501939D01*
X131804774Y-64701898D01*
X131882795Y-64890256D01*
X131996063Y-65059774D01*
X132140226Y-65203937D01*
X132309744Y-65317205D01*
X132498102Y-65395226D01*
X132698061Y-65435000D01*
X132901939Y-65435000D01*
X133101898Y-65395226D01*
X133290256Y-65317205D01*
X133459774Y-65203937D01*
X133603937Y-65059774D01*
X133717205Y-64890256D01*
X133795226Y-64701898D01*
X133835000Y-64501939D01*
X133835000Y-64298061D01*
X133795226Y-64098102D01*
X133717205Y-63909744D01*
X133603937Y-63740226D01*
X133459774Y-63596063D01*
X133290256Y-63482795D01*
X133101898Y-63404774D01*
X132901939Y-63365000D01*
X132698061Y-63365000D01*
X132498102Y-63404774D01*
X132309744Y-63482795D01*
X132140226Y-63596063D01*
X131996063Y-63740226D01*
X131882795Y-63909744D01*
X131804774Y-64098102D01*
X131765000Y-64298061D01*
X105685000Y-64298061D01*
X105685000Y-61798061D01*
X131765000Y-61798061D01*
X131765000Y-62001939D01*
X131804774Y-62201898D01*
X131882795Y-62390256D01*
X131996063Y-62559774D01*
X132140226Y-62703937D01*
X132309744Y-62817205D01*
X132498102Y-62895226D01*
X132698061Y-62935000D01*
X132901939Y-62935000D01*
X133101898Y-62895226D01*
X133290256Y-62817205D01*
X133459774Y-62703937D01*
X133603937Y-62559774D01*
X133717205Y-62390256D01*
X133795226Y-62201898D01*
X133835000Y-62001939D01*
X133835000Y-61898061D01*
X134465000Y-61898061D01*
X134465000Y-62101939D01*
X134504774Y-62301898D01*
X134582795Y-62490256D01*
X134696063Y-62659774D01*
X134840226Y-62803937D01*
X135009744Y-62917205D01*
X135198102Y-62995226D01*
X135398061Y-63035000D01*
X135601939Y-63035000D01*
X135801898Y-62995226D01*
X135990256Y-62917205D01*
X136159774Y-62803937D01*
X136303937Y-62659774D01*
X136345172Y-62598061D01*
X158465000Y-62598061D01*
X158465000Y-62801939D01*
X158504774Y-63001898D01*
X158582795Y-63190256D01*
X158696063Y-63359774D01*
X158840226Y-63503937D01*
X159009744Y-63617205D01*
X159198102Y-63695226D01*
X159398061Y-63735000D01*
X159601939Y-63735000D01*
X159801898Y-63695226D01*
X159990256Y-63617205D01*
X160159774Y-63503937D01*
X160303937Y-63359774D01*
X160417205Y-63190256D01*
X160495226Y-63001898D01*
X160535000Y-62801939D01*
X160535000Y-62598061D01*
X160495226Y-62398102D01*
X160417205Y-62209744D01*
X160303937Y-62040226D01*
X160159774Y-61896063D01*
X159990256Y-61782795D01*
X159801898Y-61704774D01*
X159601939Y-61665000D01*
X159398061Y-61665000D01*
X159198102Y-61704774D01*
X159009744Y-61782795D01*
X158840226Y-61896063D01*
X158696063Y-62040226D01*
X158582795Y-62209744D01*
X158504774Y-62398102D01*
X158465000Y-62598061D01*
X136345172Y-62598061D01*
X136417205Y-62490256D01*
X136495226Y-62301898D01*
X136535000Y-62101939D01*
X136535000Y-61898061D01*
X136495226Y-61698102D01*
X136417205Y-61509744D01*
X136303937Y-61340226D01*
X136159774Y-61196063D01*
X135990256Y-61082795D01*
X135801898Y-61004774D01*
X135601939Y-60965000D01*
X135398061Y-60965000D01*
X135198102Y-61004774D01*
X135009744Y-61082795D01*
X134840226Y-61196063D01*
X134696063Y-61340226D01*
X134582795Y-61509744D01*
X134504774Y-61698102D01*
X134465000Y-61898061D01*
X133835000Y-61898061D01*
X133835000Y-61798061D01*
X133795226Y-61598102D01*
X133717205Y-61409744D01*
X133603937Y-61240226D01*
X133459774Y-61096063D01*
X133290256Y-60982795D01*
X133101898Y-60904774D01*
X132901939Y-60865000D01*
X132698061Y-60865000D01*
X132498102Y-60904774D01*
X132309744Y-60982795D01*
X132140226Y-61096063D01*
X131996063Y-61240226D01*
X131882795Y-61409744D01*
X131804774Y-61598102D01*
X131765000Y-61798061D01*
X105685000Y-61798061D01*
X105685000Y-60198061D01*
X147365000Y-60198061D01*
X147365000Y-60401939D01*
X147404774Y-60601898D01*
X147482795Y-60790256D01*
X147596063Y-60959774D01*
X147740226Y-61103937D01*
X147909744Y-61217205D01*
X148098102Y-61295226D01*
X148298061Y-61335000D01*
X148501939Y-61335000D01*
X148701898Y-61295226D01*
X148890256Y-61217205D01*
X148918907Y-61198061D01*
X155465000Y-61198061D01*
X155465000Y-61401939D01*
X155504774Y-61601898D01*
X155582795Y-61790256D01*
X155696063Y-61959774D01*
X155840226Y-62103937D01*
X156009744Y-62217205D01*
X156198102Y-62295226D01*
X156398061Y-62335000D01*
X156601939Y-62335000D01*
X156801898Y-62295226D01*
X156990256Y-62217205D01*
X157159774Y-62103937D01*
X157303937Y-61959774D01*
X157417205Y-61790256D01*
X157495226Y-61601898D01*
X157535000Y-61401939D01*
X157535000Y-61198061D01*
X157495226Y-60998102D01*
X157417205Y-60809744D01*
X157303937Y-60640226D01*
X157159774Y-60496063D01*
X156990256Y-60382795D01*
X156801898Y-60304774D01*
X156601939Y-60265000D01*
X156398061Y-60265000D01*
X156198102Y-60304774D01*
X156009744Y-60382795D01*
X155840226Y-60496063D01*
X155696063Y-60640226D01*
X155582795Y-60809744D01*
X155504774Y-60998102D01*
X155465000Y-61198061D01*
X148918907Y-61198061D01*
X149059774Y-61103937D01*
X149203937Y-60959774D01*
X149317205Y-60790256D01*
X149395226Y-60601898D01*
X149435000Y-60401939D01*
X149435000Y-60198061D01*
X149395226Y-59998102D01*
X149317205Y-59809744D01*
X149203937Y-59640226D01*
X149059774Y-59496063D01*
X148890256Y-59382795D01*
X148701898Y-59304774D01*
X148501939Y-59265000D01*
X148298061Y-59265000D01*
X148098102Y-59304774D01*
X147909744Y-59382795D01*
X147740226Y-59496063D01*
X147596063Y-59640226D01*
X147482795Y-59809744D01*
X147404774Y-59998102D01*
X147365000Y-60198061D01*
X105685000Y-60198061D01*
X105685000Y-59198061D01*
X151265000Y-59198061D01*
X151265000Y-59401939D01*
X151304774Y-59601898D01*
X151382795Y-59790256D01*
X151496063Y-59959774D01*
X151640226Y-60103937D01*
X151809744Y-60217205D01*
X151998102Y-60295226D01*
X152198061Y-60335000D01*
X152401939Y-60335000D01*
X152601898Y-60295226D01*
X152790256Y-60217205D01*
X152959774Y-60103937D01*
X153103937Y-59959774D01*
X153217205Y-59790256D01*
X153295226Y-59601898D01*
X153335000Y-59401939D01*
X153335000Y-59198061D01*
X153295226Y-58998102D01*
X153217205Y-58809744D01*
X153103937Y-58640226D01*
X152959774Y-58496063D01*
X152790256Y-58382795D01*
X152601898Y-58304774D01*
X152401939Y-58265000D01*
X152198061Y-58265000D01*
X151998102Y-58304774D01*
X151809744Y-58382795D01*
X151640226Y-58496063D01*
X151496063Y-58640226D01*
X151382795Y-58809744D01*
X151304774Y-58998102D01*
X151265000Y-59198061D01*
X105685000Y-59198061D01*
X105685000Y-55398061D01*
X128965000Y-55398061D01*
X128965000Y-55601939D01*
X129004774Y-55801898D01*
X129082795Y-55990256D01*
X129196063Y-56159774D01*
X129286289Y-56250000D01*
X129196063Y-56340226D01*
X129082795Y-56509744D01*
X129004774Y-56698102D01*
X128965000Y-56898061D01*
X128965000Y-57101939D01*
X129004774Y-57301898D01*
X129082795Y-57490256D01*
X129196063Y-57659774D01*
X129340226Y-57803937D01*
X129509744Y-57917205D01*
X129698102Y-57995226D01*
X129898061Y-58035000D01*
X130101939Y-58035000D01*
X130301898Y-57995226D01*
X130490256Y-57917205D01*
X130659774Y-57803937D01*
X130750000Y-57713711D01*
X130840226Y-57803937D01*
X131009744Y-57917205D01*
X131198102Y-57995226D01*
X131398061Y-58035000D01*
X131601939Y-58035000D01*
X131801898Y-57995226D01*
X131990256Y-57917205D01*
X132159774Y-57803937D01*
X132303937Y-57659774D01*
X132417205Y-57490256D01*
X132495226Y-57301898D01*
X132535000Y-57101939D01*
X132535000Y-56898061D01*
X132495226Y-56698102D01*
X132417205Y-56509744D01*
X132303937Y-56340226D01*
X132261772Y-56298061D01*
X153965000Y-56298061D01*
X153965000Y-56501939D01*
X154004774Y-56701898D01*
X154082795Y-56890256D01*
X154196063Y-57059774D01*
X154340226Y-57203937D01*
X154509744Y-57317205D01*
X154698102Y-57395226D01*
X154898061Y-57435000D01*
X155101939Y-57435000D01*
X155301898Y-57395226D01*
X155490256Y-57317205D01*
X155659774Y-57203937D01*
X155803937Y-57059774D01*
X155917205Y-56890256D01*
X155995226Y-56701898D01*
X156035000Y-56501939D01*
X156035000Y-56298061D01*
X155995226Y-56098102D01*
X155917205Y-55909744D01*
X155803937Y-55740226D01*
X155659774Y-55596063D01*
X155490256Y-55482795D01*
X155301898Y-55404774D01*
X155101939Y-55365000D01*
X154898061Y-55365000D01*
X154698102Y-55404774D01*
X154509744Y-55482795D01*
X154340226Y-55596063D01*
X154196063Y-55740226D01*
X154082795Y-55909744D01*
X154004774Y-56098102D01*
X153965000Y-56298061D01*
X132261772Y-56298061D01*
X132213711Y-56250000D01*
X132303937Y-56159774D01*
X132417205Y-55990256D01*
X132495226Y-55801898D01*
X132535000Y-55601939D01*
X132535000Y-55398061D01*
X132495226Y-55198102D01*
X132417205Y-55009744D01*
X132303937Y-54840226D01*
X132159774Y-54696063D01*
X131990256Y-54582795D01*
X131801898Y-54504774D01*
X131601939Y-54465000D01*
X131398061Y-54465000D01*
X131198102Y-54504774D01*
X131009744Y-54582795D01*
X130840226Y-54696063D01*
X130750000Y-54786289D01*
X130659774Y-54696063D01*
X130490256Y-54582795D01*
X130301898Y-54504774D01*
X130101939Y-54465000D01*
X129898061Y-54465000D01*
X129698102Y-54504774D01*
X129509744Y-54582795D01*
X129340226Y-54696063D01*
X129196063Y-54840226D01*
X129082795Y-55009744D01*
X129004774Y-55198102D01*
X128965000Y-55398061D01*
X105685000Y-55398061D01*
X105685000Y-53498061D01*
X145725000Y-53498061D01*
X145725000Y-53701939D01*
X145764774Y-53901898D01*
X145842795Y-54090256D01*
X145956063Y-54259774D01*
X146100226Y-54403937D01*
X146269744Y-54517205D01*
X146458102Y-54595226D01*
X146658061Y-54635000D01*
X146861939Y-54635000D01*
X147047645Y-54598061D01*
X152365000Y-54598061D01*
X152365000Y-54801939D01*
X152404774Y-55001898D01*
X152482795Y-55190256D01*
X152596063Y-55359774D01*
X152740226Y-55503937D01*
X152909744Y-55617205D01*
X153098102Y-55695226D01*
X153298061Y-55735000D01*
X153501939Y-55735000D01*
X153701898Y-55695226D01*
X153890256Y-55617205D01*
X154059774Y-55503937D01*
X154203937Y-55359774D01*
X154317205Y-55190256D01*
X154395226Y-55001898D01*
X154435000Y-54801939D01*
X154435000Y-54598061D01*
X154395226Y-54398102D01*
X154317205Y-54209744D01*
X154203937Y-54040226D01*
X154059774Y-53896063D01*
X153890256Y-53782795D01*
X153701898Y-53704774D01*
X153501939Y-53665000D01*
X153298061Y-53665000D01*
X153098102Y-53704774D01*
X152909744Y-53782795D01*
X152740226Y-53896063D01*
X152596063Y-54040226D01*
X152482795Y-54209744D01*
X152404774Y-54398102D01*
X152365000Y-54598061D01*
X147047645Y-54598061D01*
X147061898Y-54595226D01*
X147250256Y-54517205D01*
X147419774Y-54403937D01*
X147563937Y-54259774D01*
X147677205Y-54090256D01*
X147755226Y-53901898D01*
X147795000Y-53701939D01*
X147795000Y-53498061D01*
X147755226Y-53298102D01*
X147677205Y-53109744D01*
X147563937Y-52940226D01*
X147419774Y-52796063D01*
X147250256Y-52682795D01*
X147061898Y-52604774D01*
X146861939Y-52565000D01*
X146658061Y-52565000D01*
X146458102Y-52604774D01*
X146269744Y-52682795D01*
X146100226Y-52796063D01*
X145956063Y-52940226D01*
X145842795Y-53109744D01*
X145764774Y-53298102D01*
X145725000Y-53498061D01*
X105685000Y-53498061D01*
X105685000Y-50753740D01*
X128315000Y-50753740D01*
X128315000Y-51046260D01*
X128372068Y-51333158D01*
X128484010Y-51603411D01*
X128646525Y-51846632D01*
X128853368Y-52053475D01*
X129096589Y-52215990D01*
X129366842Y-52327932D01*
X129653740Y-52385000D01*
X129946260Y-52385000D01*
X130233158Y-52327932D01*
X130503411Y-52215990D01*
X130746632Y-52053475D01*
X130953475Y-51846632D01*
X131115990Y-51603411D01*
X131227932Y-51333158D01*
X131285000Y-51046260D01*
X131285000Y-50753740D01*
X131227932Y-50466842D01*
X131199443Y-50398061D01*
X147165000Y-50398061D01*
X147165000Y-50601939D01*
X147204774Y-50801898D01*
X147282795Y-50990256D01*
X147396063Y-51159774D01*
X147540226Y-51303937D01*
X147709744Y-51417205D01*
X147898102Y-51495226D01*
X148098061Y-51535000D01*
X148265000Y-51535000D01*
X148265000Y-51601939D01*
X148304774Y-51801898D01*
X148382795Y-51990256D01*
X148496063Y-52159774D01*
X148640226Y-52303937D01*
X148809744Y-52417205D01*
X148998102Y-52495226D01*
X149198061Y-52535000D01*
X149401939Y-52535000D01*
X149601898Y-52495226D01*
X149790256Y-52417205D01*
X149959774Y-52303937D01*
X150103937Y-52159774D01*
X150217205Y-51990256D01*
X150295226Y-51801898D01*
X150335000Y-51601939D01*
X150335000Y-51398061D01*
X150295226Y-51198102D01*
X150217205Y-51009744D01*
X150142582Y-50898061D01*
X155365000Y-50898061D01*
X155365000Y-51101939D01*
X155404774Y-51301898D01*
X155482795Y-51490256D01*
X155596063Y-51659774D01*
X155740226Y-51803937D01*
X155909744Y-51917205D01*
X156098102Y-51995226D01*
X156298061Y-52035000D01*
X156501939Y-52035000D01*
X156701898Y-51995226D01*
X156890256Y-51917205D01*
X157059774Y-51803937D01*
X157203937Y-51659774D01*
X157317205Y-51490256D01*
X157395226Y-51301898D01*
X157435000Y-51101939D01*
X157435000Y-50898061D01*
X157395226Y-50698102D01*
X157317205Y-50509744D01*
X157203937Y-50340226D01*
X157059774Y-50196063D01*
X156890256Y-50082795D01*
X156701898Y-50004774D01*
X156501939Y-49965000D01*
X156298061Y-49965000D01*
X156098102Y-50004774D01*
X155909744Y-50082795D01*
X155740226Y-50196063D01*
X155596063Y-50340226D01*
X155482795Y-50509744D01*
X155404774Y-50698102D01*
X155365000Y-50898061D01*
X150142582Y-50898061D01*
X150103937Y-50840226D01*
X149959774Y-50696063D01*
X149790256Y-50582795D01*
X149601898Y-50504774D01*
X149401939Y-50465000D01*
X149235000Y-50465000D01*
X149235000Y-50398061D01*
X149195226Y-50198102D01*
X149117205Y-50009744D01*
X149003937Y-49840226D01*
X148859774Y-49696063D01*
X148690256Y-49582795D01*
X148501898Y-49504774D01*
X148301939Y-49465000D01*
X148098061Y-49465000D01*
X147898102Y-49504774D01*
X147709744Y-49582795D01*
X147540226Y-49696063D01*
X147396063Y-49840226D01*
X147282795Y-50009744D01*
X147204774Y-50198102D01*
X147165000Y-50398061D01*
X131199443Y-50398061D01*
X131115990Y-50196589D01*
X130953475Y-49953368D01*
X130746632Y-49746525D01*
X130503411Y-49584010D01*
X130233158Y-49472068D01*
X129946260Y-49415000D01*
X129653740Y-49415000D01*
X129366842Y-49472068D01*
X129096589Y-49584010D01*
X128853368Y-49746525D01*
X128646525Y-49953368D01*
X128484010Y-50196589D01*
X128372068Y-50466842D01*
X128315000Y-50753740D01*
X105685000Y-50753740D01*
X105685000Y-47678061D01*
X144235000Y-47678061D01*
X144235000Y-47881939D01*
X144274774Y-48081898D01*
X144352795Y-48270256D01*
X144466063Y-48439774D01*
X144610226Y-48583937D01*
X144779744Y-48697205D01*
X144968102Y-48775226D01*
X145168061Y-48815000D01*
X145371939Y-48815000D01*
X145571898Y-48775226D01*
X145760256Y-48697205D01*
X145929774Y-48583937D01*
X146073937Y-48439774D01*
X146187205Y-48270256D01*
X146265226Y-48081898D01*
X146305000Y-47881939D01*
X146305000Y-47678061D01*
X146265226Y-47478102D01*
X146187205Y-47289744D01*
X146073937Y-47120226D01*
X145929774Y-46976063D01*
X145760256Y-46862795D01*
X145571898Y-46784774D01*
X145371939Y-46745000D01*
X145168061Y-46745000D01*
X144968102Y-46784774D01*
X144779744Y-46862795D01*
X144610226Y-46976063D01*
X144466063Y-47120226D01*
X144352795Y-47289744D01*
X144274774Y-47478102D01*
X144235000Y-47678061D01*
X105685000Y-47678061D01*
X105685000Y-43753740D01*
X128315000Y-43753740D01*
X128315000Y-44046260D01*
X128372068Y-44333158D01*
X128484010Y-44603411D01*
X128646525Y-44846632D01*
X128853368Y-45053475D01*
X129096589Y-45215990D01*
X129366842Y-45327932D01*
X129653740Y-45385000D01*
X129946260Y-45385000D01*
X130233158Y-45327932D01*
X130503411Y-45215990D01*
X130746632Y-45053475D01*
X130953475Y-44846632D01*
X131115990Y-44603411D01*
X131227932Y-44333158D01*
X131254804Y-44198061D01*
X151965000Y-44198061D01*
X151965000Y-44401939D01*
X152004774Y-44601898D01*
X152082795Y-44790256D01*
X152196063Y-44959774D01*
X152340226Y-45103937D01*
X152509744Y-45217205D01*
X152698102Y-45295226D01*
X152898061Y-45335000D01*
X153101939Y-45335000D01*
X153301898Y-45295226D01*
X153490256Y-45217205D01*
X153659774Y-45103937D01*
X153803937Y-44959774D01*
X153917205Y-44790256D01*
X153995226Y-44601898D01*
X154035000Y-44401939D01*
X154035000Y-44198061D01*
X153995226Y-43998102D01*
X153917205Y-43809744D01*
X153803937Y-43640226D01*
X153659774Y-43496063D01*
X153490256Y-43382795D01*
X153301898Y-43304774D01*
X153101939Y-43265000D01*
X152898061Y-43265000D01*
X152698102Y-43304774D01*
X152509744Y-43382795D01*
X152340226Y-43496063D01*
X152196063Y-43640226D01*
X152082795Y-43809744D01*
X152004774Y-43998102D01*
X151965000Y-44198061D01*
X131254804Y-44198061D01*
X131285000Y-44046260D01*
X131285000Y-43753740D01*
X131227932Y-43466842D01*
X131115990Y-43196589D01*
X130953475Y-42953368D01*
X130746632Y-42746525D01*
X130503411Y-42584010D01*
X130233158Y-42472068D01*
X129946260Y-42415000D01*
X129653740Y-42415000D01*
X129366842Y-42472068D01*
X129096589Y-42584010D01*
X128853368Y-42746525D01*
X128646525Y-42953368D01*
X128484010Y-43196589D01*
X128372068Y-43466842D01*
X128315000Y-43753740D01*
X105685000Y-43753740D01*
X105685000Y-38825701D01*
X107315000Y-38825701D01*
X107315000Y-39374299D01*
X107422026Y-39912354D01*
X107631965Y-40419192D01*
X107936750Y-40875334D01*
X108324666Y-41263250D01*
X108780808Y-41568035D01*
X109287646Y-41777974D01*
X109825701Y-41885000D01*
X110374299Y-41885000D01*
X110912354Y-41777974D01*
X111419192Y-41568035D01*
X111875334Y-41263250D01*
X112263250Y-40875334D01*
X112568035Y-40419192D01*
X112777974Y-39912354D01*
X112885000Y-39374299D01*
X112885000Y-38825701D01*
X167115000Y-38825701D01*
X167115000Y-39374299D01*
X167222026Y-39912354D01*
X167431965Y-40419192D01*
X167736750Y-40875334D01*
X168124666Y-41263250D01*
X168580808Y-41568035D01*
X169087646Y-41777974D01*
X169625701Y-41885000D01*
X170174299Y-41885000D01*
X170712354Y-41777974D01*
X171219192Y-41568035D01*
X171675334Y-41263250D01*
X172063250Y-40875334D01*
X172368035Y-40419192D01*
X172577974Y-39912354D01*
X172685000Y-39374299D01*
X172685000Y-38825701D01*
X172577974Y-38287646D01*
X172368035Y-37780808D01*
X172063250Y-37324666D01*
X171675334Y-36936750D01*
X171219192Y-36631965D01*
X170712354Y-36422026D01*
X170174299Y-36315000D01*
X169625701Y-36315000D01*
X169087646Y-36422026D01*
X168580808Y-36631965D01*
X168124666Y-36936750D01*
X167736750Y-37324666D01*
X167431965Y-37780808D01*
X167222026Y-38287646D01*
X167115000Y-38825701D01*
X112885000Y-38825701D01*
X112777974Y-38287646D01*
X112568035Y-37780808D01*
X112263250Y-37324666D01*
X111875334Y-36936750D01*
X111419192Y-36631965D01*
X110912354Y-36422026D01*
X110374299Y-36315000D01*
X109825701Y-36315000D01*
X109287646Y-36422026D01*
X108780808Y-36631965D01*
X108324666Y-36936750D01*
X107936750Y-37324666D01*
X107631965Y-37780808D01*
X107422026Y-38287646D01*
X107315000Y-38825701D01*
X105685000Y-38825701D01*
X105685000Y-34685000D01*
X174315000Y-34685000D01*
X174315000Y-67373000D01*
G37*
%TD.AperFunction*%
%TD*%
D15*
%TO.N,/VCC*%
X135873000Y-68626220D02*
X135873000Y-78533391D01*
X135804774Y-78698102D01*
X135765000Y-78898061D01*
X135765000Y-79101939D01*
X135804774Y-79301898D01*
X135873000Y-79466609D01*
X135873000Y-80965000D01*
X135698061Y-80965000D01*
X135498102Y-81004774D01*
X135309744Y-81082795D01*
X135140226Y-81196063D01*
X134996063Y-81340226D01*
X134882795Y-81509744D01*
X134804774Y-81698102D01*
X134765000Y-81898061D01*
X134765000Y-82101939D01*
X134804774Y-82301898D01*
X134882795Y-82490256D01*
X134996063Y-82659774D01*
X135140226Y-82803937D01*
X135309744Y-82917205D01*
X135498102Y-82995226D01*
X135698061Y-83035000D01*
X135873000Y-83035000D01*
X135873000Y-85375209D01*
X135854863Y-85375527D01*
X135801939Y-85365000D01*
X135598061Y-85365000D01*
X135515177Y-85381487D01*
X130297772Y-85473020D01*
X130273042Y-85475894D01*
X130249349Y-85483538D01*
X130227601Y-85495657D01*
X130208636Y-85511786D01*
X130193182Y-85531306D01*
X130181833Y-85553465D01*
X130175025Y-85577412D01*
X130173002Y-85600789D01*
X130179612Y-86665000D01*
X130098061Y-86665000D01*
X129898102Y-86704774D01*
X129709744Y-86782795D01*
X129540226Y-86896063D01*
X129396063Y-87040226D01*
X129282795Y-87209744D01*
X129204774Y-87398102D01*
X129165000Y-87598061D01*
X129165000Y-87801939D01*
X129204774Y-88001898D01*
X129282795Y-88190256D01*
X129396063Y-88359774D01*
X129540226Y-88503937D01*
X129709744Y-88617205D01*
X129898102Y-88695226D01*
X130098061Y-88735000D01*
X130192469Y-88735000D01*
X130272208Y-101572936D01*
X105727000Y-101560564D01*
X105727000Y-98898061D01*
X114965000Y-98898061D01*
X114965000Y-99101939D01*
X115004774Y-99301898D01*
X115082795Y-99490256D01*
X115196063Y-99659774D01*
X115340226Y-99803937D01*
X115509744Y-99917205D01*
X115698102Y-99995226D01*
X115898061Y-100035000D01*
X116101939Y-100035000D01*
X116301898Y-99995226D01*
X116490256Y-99917205D01*
X116659774Y-99803937D01*
X116803937Y-99659774D01*
X116917205Y-99490256D01*
X116995226Y-99301898D01*
X117035000Y-99101939D01*
X117035000Y-98898061D01*
X116995226Y-98698102D01*
X116917205Y-98509744D01*
X116803937Y-98340226D01*
X116659774Y-98196063D01*
X116490256Y-98082795D01*
X116301898Y-98004774D01*
X116101939Y-97965000D01*
X115898061Y-97965000D01*
X115698102Y-98004774D01*
X115509744Y-98082795D01*
X115340226Y-98196063D01*
X115196063Y-98340226D01*
X115082795Y-98509744D01*
X115004774Y-98698102D01*
X114965000Y-98898061D01*
X105727000Y-98898061D01*
X105727000Y-96898061D01*
X124465000Y-96898061D01*
X124465000Y-97101939D01*
X124504774Y-97301898D01*
X124582795Y-97490256D01*
X124696063Y-97659774D01*
X124840226Y-97803937D01*
X125009744Y-97917205D01*
X125198102Y-97995226D01*
X125398061Y-98035000D01*
X125601939Y-98035000D01*
X125801898Y-97995226D01*
X125990256Y-97917205D01*
X126159774Y-97803937D01*
X126303937Y-97659774D01*
X126417205Y-97490256D01*
X126495226Y-97301898D01*
X126535000Y-97101939D01*
X126535000Y-96898061D01*
X126495226Y-96698102D01*
X126417205Y-96509744D01*
X126303937Y-96340226D01*
X126159774Y-96196063D01*
X125990256Y-96082795D01*
X125801898Y-96004774D01*
X125601939Y-95965000D01*
X125398061Y-95965000D01*
X125198102Y-96004774D01*
X125009744Y-96082795D01*
X124840226Y-96196063D01*
X124696063Y-96340226D01*
X124582795Y-96509744D01*
X124504774Y-96698102D01*
X124465000Y-96898061D01*
X105727000Y-96898061D01*
X105727000Y-95598061D01*
X108465000Y-95598061D01*
X108465000Y-95801939D01*
X108504774Y-96001898D01*
X108582795Y-96190256D01*
X108696063Y-96359774D01*
X108840226Y-96503937D01*
X109009744Y-96617205D01*
X109198102Y-96695226D01*
X109398061Y-96735000D01*
X109601939Y-96735000D01*
X109801898Y-96695226D01*
X109990256Y-96617205D01*
X110159774Y-96503937D01*
X110303937Y-96359774D01*
X110417205Y-96190256D01*
X110495226Y-96001898D01*
X110535000Y-95801939D01*
X110535000Y-95598061D01*
X110495226Y-95398102D01*
X110417205Y-95209744D01*
X110303937Y-95040226D01*
X110159774Y-94896063D01*
X109990256Y-94782795D01*
X109801898Y-94704774D01*
X109768150Y-94698061D01*
X117865000Y-94698061D01*
X117865000Y-94901939D01*
X117904774Y-95101898D01*
X117982795Y-95290256D01*
X118096063Y-95459774D01*
X118240226Y-95603937D01*
X118409744Y-95717205D01*
X118598102Y-95795226D01*
X118798061Y-95835000D01*
X119001939Y-95835000D01*
X119201898Y-95795226D01*
X119390256Y-95717205D01*
X119559774Y-95603937D01*
X119703937Y-95459774D01*
X119817205Y-95290256D01*
X119895226Y-95101898D01*
X119935000Y-94901939D01*
X119935000Y-94698061D01*
X119895226Y-94498102D01*
X119817205Y-94309744D01*
X119703937Y-94140226D01*
X119559774Y-93996063D01*
X119390256Y-93882795D01*
X119201898Y-93804774D01*
X119001939Y-93765000D01*
X118798061Y-93765000D01*
X118598102Y-93804774D01*
X118409744Y-93882795D01*
X118240226Y-93996063D01*
X118096063Y-94140226D01*
X117982795Y-94309744D01*
X117904774Y-94498102D01*
X117865000Y-94698061D01*
X109768150Y-94698061D01*
X109601939Y-94665000D01*
X109398061Y-94665000D01*
X109198102Y-94704774D01*
X109009744Y-94782795D01*
X108840226Y-94896063D01*
X108696063Y-95040226D01*
X108582795Y-95209744D01*
X108504774Y-95398102D01*
X108465000Y-95598061D01*
X105727000Y-95598061D01*
X105727000Y-93598061D01*
X122965000Y-93598061D01*
X122965000Y-93801939D01*
X123004774Y-94001898D01*
X123082795Y-94190256D01*
X123196063Y-94359774D01*
X123340226Y-94503937D01*
X123509744Y-94617205D01*
X123698102Y-94695226D01*
X123898061Y-94735000D01*
X124101939Y-94735000D01*
X124301898Y-94695226D01*
X124490256Y-94617205D01*
X124659774Y-94503937D01*
X124803937Y-94359774D01*
X124917205Y-94190256D01*
X124995226Y-94001898D01*
X125035000Y-93801939D01*
X125035000Y-93598061D01*
X125015109Y-93498061D01*
X125965000Y-93498061D01*
X125965000Y-93701939D01*
X126004774Y-93901898D01*
X126082795Y-94090256D01*
X126196063Y-94259774D01*
X126340226Y-94403937D01*
X126509744Y-94517205D01*
X126698102Y-94595226D01*
X126898061Y-94635000D01*
X127101939Y-94635000D01*
X127301898Y-94595226D01*
X127490256Y-94517205D01*
X127659774Y-94403937D01*
X127803937Y-94259774D01*
X127917205Y-94090256D01*
X127995226Y-93901898D01*
X128035000Y-93701939D01*
X128035000Y-93498061D01*
X127995226Y-93298102D01*
X127917205Y-93109744D01*
X127803937Y-92940226D01*
X127659774Y-92796063D01*
X127490256Y-92682795D01*
X127301898Y-92604774D01*
X127101939Y-92565000D01*
X126898061Y-92565000D01*
X126698102Y-92604774D01*
X126509744Y-92682795D01*
X126340226Y-92796063D01*
X126196063Y-92940226D01*
X126082795Y-93109744D01*
X126004774Y-93298102D01*
X125965000Y-93498061D01*
X125015109Y-93498061D01*
X124995226Y-93398102D01*
X124917205Y-93209744D01*
X124803937Y-93040226D01*
X124659774Y-92896063D01*
X124490256Y-92782795D01*
X124301898Y-92704774D01*
X124101939Y-92665000D01*
X123898061Y-92665000D01*
X123698102Y-92704774D01*
X123509744Y-92782795D01*
X123340226Y-92896063D01*
X123196063Y-93040226D01*
X123082795Y-93209744D01*
X123004774Y-93398102D01*
X122965000Y-93598061D01*
X105727000Y-93598061D01*
X105727000Y-91698061D01*
X115165000Y-91698061D01*
X115165000Y-91901939D01*
X115204774Y-92101898D01*
X115282795Y-92290256D01*
X115396063Y-92459774D01*
X115540226Y-92603937D01*
X115709744Y-92717205D01*
X115898102Y-92795226D01*
X116098061Y-92835000D01*
X116301939Y-92835000D01*
X116501898Y-92795226D01*
X116690256Y-92717205D01*
X116859774Y-92603937D01*
X117003937Y-92459774D01*
X117117205Y-92290256D01*
X117195226Y-92101898D01*
X117235000Y-91901939D01*
X117235000Y-91698061D01*
X117195226Y-91498102D01*
X117117205Y-91309744D01*
X117003937Y-91140226D01*
X116859774Y-90996063D01*
X116690256Y-90882795D01*
X116501898Y-90804774D01*
X116301939Y-90765000D01*
X116098061Y-90765000D01*
X115898102Y-90804774D01*
X115709744Y-90882795D01*
X115540226Y-90996063D01*
X115396063Y-91140226D01*
X115282795Y-91309744D01*
X115204774Y-91498102D01*
X115165000Y-91698061D01*
X105727000Y-91698061D01*
X105727000Y-86998061D01*
X115165000Y-86998061D01*
X115165000Y-87201939D01*
X115204774Y-87401898D01*
X115282795Y-87590256D01*
X115396063Y-87759774D01*
X115540226Y-87903937D01*
X115709744Y-88017205D01*
X115898102Y-88095226D01*
X116098061Y-88135000D01*
X116301939Y-88135000D01*
X116501898Y-88095226D01*
X116690256Y-88017205D01*
X116859774Y-87903937D01*
X117003937Y-87759774D01*
X117117205Y-87590256D01*
X117195226Y-87401898D01*
X117195989Y-87398061D01*
X120065000Y-87398061D01*
X120065000Y-87601939D01*
X120104774Y-87801898D01*
X120182795Y-87990256D01*
X120296063Y-88159774D01*
X120440226Y-88303937D01*
X120609744Y-88417205D01*
X120798102Y-88495226D01*
X120998061Y-88535000D01*
X121201939Y-88535000D01*
X121401898Y-88495226D01*
X121590256Y-88417205D01*
X121759774Y-88303937D01*
X121903937Y-88159774D01*
X122017205Y-87990256D01*
X122095226Y-87801898D01*
X122135000Y-87601939D01*
X122135000Y-87398061D01*
X122095226Y-87198102D01*
X122017205Y-87009744D01*
X121903937Y-86840226D01*
X121759774Y-86696063D01*
X121590256Y-86582795D01*
X121401898Y-86504774D01*
X121201939Y-86465000D01*
X120998061Y-86465000D01*
X120798102Y-86504774D01*
X120609744Y-86582795D01*
X120440226Y-86696063D01*
X120296063Y-86840226D01*
X120182795Y-87009744D01*
X120104774Y-87198102D01*
X120065000Y-87398061D01*
X117195989Y-87398061D01*
X117235000Y-87201939D01*
X117235000Y-86998061D01*
X117195226Y-86798102D01*
X117117205Y-86609744D01*
X117003937Y-86440226D01*
X116859774Y-86296063D01*
X116690256Y-86182795D01*
X116501898Y-86104774D01*
X116301939Y-86065000D01*
X116098061Y-86065000D01*
X115898102Y-86104774D01*
X115709744Y-86182795D01*
X115540226Y-86296063D01*
X115396063Y-86440226D01*
X115282795Y-86609744D01*
X115204774Y-86798102D01*
X115165000Y-86998061D01*
X105727000Y-86998061D01*
X105727000Y-84150000D01*
X112011928Y-84150000D01*
X112011928Y-85850000D01*
X112024188Y-85974482D01*
X112060498Y-86094180D01*
X112119463Y-86204494D01*
X112198815Y-86301185D01*
X112295506Y-86380537D01*
X112405820Y-86439502D01*
X112525518Y-86475812D01*
X112650000Y-86488072D01*
X114350000Y-86488072D01*
X114474482Y-86475812D01*
X114594180Y-86439502D01*
X114704494Y-86380537D01*
X114801185Y-86301185D01*
X114880537Y-86204494D01*
X114939502Y-86094180D01*
X114975812Y-85974482D01*
X114988072Y-85850000D01*
X114988072Y-84398061D01*
X123465000Y-84398061D01*
X123465000Y-84601939D01*
X123504774Y-84801898D01*
X123582795Y-84990256D01*
X123696063Y-85159774D01*
X123840226Y-85303937D01*
X124009744Y-85417205D01*
X124198102Y-85495226D01*
X124222103Y-85500000D01*
X124198102Y-85504774D01*
X124009744Y-85582795D01*
X123840226Y-85696063D01*
X123696063Y-85840226D01*
X123582795Y-86009744D01*
X123504774Y-86198102D01*
X123465000Y-86398061D01*
X123465000Y-86601939D01*
X123504774Y-86801898D01*
X123582795Y-86990256D01*
X123696063Y-87159774D01*
X123840226Y-87303937D01*
X124009744Y-87417205D01*
X124198102Y-87495226D01*
X124398061Y-87535000D01*
X124601939Y-87535000D01*
X124801898Y-87495226D01*
X124990256Y-87417205D01*
X125159774Y-87303937D01*
X125303937Y-87159774D01*
X125417205Y-86990256D01*
X125495226Y-86801898D01*
X125535000Y-86601939D01*
X125535000Y-86398061D01*
X125495226Y-86198102D01*
X125417205Y-86009744D01*
X125303937Y-85840226D01*
X125159774Y-85696063D01*
X124990256Y-85582795D01*
X124801898Y-85504774D01*
X124777897Y-85500000D01*
X124801898Y-85495226D01*
X124990256Y-85417205D01*
X125159774Y-85303937D01*
X125303937Y-85159774D01*
X125417205Y-84990256D01*
X125495226Y-84801898D01*
X125535000Y-84601939D01*
X125535000Y-84398061D01*
X125495226Y-84198102D01*
X125417205Y-84009744D01*
X125303937Y-83840226D01*
X125159774Y-83696063D01*
X124990256Y-83582795D01*
X124801898Y-83504774D01*
X124601939Y-83465000D01*
X124398061Y-83465000D01*
X124198102Y-83504774D01*
X124009744Y-83582795D01*
X123840226Y-83696063D01*
X123696063Y-83840226D01*
X123582795Y-84009744D01*
X123504774Y-84198102D01*
X123465000Y-84398061D01*
X114988072Y-84398061D01*
X114988072Y-84150000D01*
X114975812Y-84025518D01*
X114939502Y-83905820D01*
X114880537Y-83795506D01*
X114801185Y-83698815D01*
X114704494Y-83619463D01*
X114594180Y-83560498D01*
X114521620Y-83538487D01*
X114653475Y-83406632D01*
X114815990Y-83163411D01*
X114927932Y-82893158D01*
X114985000Y-82606260D01*
X114985000Y-82598061D01*
X122365000Y-82598061D01*
X122365000Y-82801939D01*
X122404774Y-83001898D01*
X122482795Y-83190256D01*
X122596063Y-83359774D01*
X122740226Y-83503937D01*
X122909744Y-83617205D01*
X123098102Y-83695226D01*
X123298061Y-83735000D01*
X123501939Y-83735000D01*
X123701898Y-83695226D01*
X123890256Y-83617205D01*
X124059774Y-83503937D01*
X124203937Y-83359774D01*
X124317205Y-83190256D01*
X124395226Y-83001898D01*
X124435000Y-82801939D01*
X124435000Y-82598061D01*
X124415109Y-82498061D01*
X127265000Y-82498061D01*
X127265000Y-82701939D01*
X127304774Y-82901898D01*
X127382795Y-83090256D01*
X127496063Y-83259774D01*
X127640226Y-83403937D01*
X127809744Y-83517205D01*
X127998102Y-83595226D01*
X128198061Y-83635000D01*
X128401939Y-83635000D01*
X128601898Y-83595226D01*
X128790256Y-83517205D01*
X128959774Y-83403937D01*
X129103937Y-83259774D01*
X129217205Y-83090256D01*
X129295226Y-82901898D01*
X129335000Y-82701939D01*
X129335000Y-82498061D01*
X129295226Y-82298102D01*
X129217205Y-82109744D01*
X129103937Y-81940226D01*
X128959774Y-81796063D01*
X128790256Y-81682795D01*
X128601898Y-81604774D01*
X128401939Y-81565000D01*
X128198061Y-81565000D01*
X127998102Y-81604774D01*
X127809744Y-81682795D01*
X127640226Y-81796063D01*
X127496063Y-81940226D01*
X127382795Y-82109744D01*
X127304774Y-82298102D01*
X127265000Y-82498061D01*
X124415109Y-82498061D01*
X124395226Y-82398102D01*
X124317205Y-82209744D01*
X124203937Y-82040226D01*
X124059774Y-81896063D01*
X123890256Y-81782795D01*
X123701898Y-81704774D01*
X123501939Y-81665000D01*
X123298061Y-81665000D01*
X123098102Y-81704774D01*
X122909744Y-81782795D01*
X122740226Y-81896063D01*
X122596063Y-82040226D01*
X122482795Y-82209744D01*
X122404774Y-82398102D01*
X122365000Y-82598061D01*
X114985000Y-82598061D01*
X114985000Y-82313740D01*
X114927932Y-82026842D01*
X114815990Y-81756589D01*
X114653475Y-81513368D01*
X114446632Y-81306525D01*
X114203411Y-81144010D01*
X113933158Y-81032068D01*
X113646260Y-80975000D01*
X113353740Y-80975000D01*
X113066842Y-81032068D01*
X112796589Y-81144010D01*
X112553368Y-81306525D01*
X112346525Y-81513368D01*
X112184010Y-81756589D01*
X112072068Y-82026842D01*
X112015000Y-82313740D01*
X112015000Y-82606260D01*
X112072068Y-82893158D01*
X112184010Y-83163411D01*
X112346525Y-83406632D01*
X112478380Y-83538487D01*
X112405820Y-83560498D01*
X112295506Y-83619463D01*
X112198815Y-83698815D01*
X112119463Y-83795506D01*
X112060498Y-83905820D01*
X112024188Y-84025518D01*
X112011928Y-84150000D01*
X105727000Y-84150000D01*
X105727000Y-79398061D01*
X112465000Y-79398061D01*
X112465000Y-79601939D01*
X112504774Y-79801898D01*
X112582795Y-79990256D01*
X112696063Y-80159774D01*
X112840226Y-80303937D01*
X113009744Y-80417205D01*
X113198102Y-80495226D01*
X113398061Y-80535000D01*
X113601939Y-80535000D01*
X113801898Y-80495226D01*
X113990256Y-80417205D01*
X114159774Y-80303937D01*
X114303937Y-80159774D01*
X114417205Y-79990256D01*
X114455393Y-79898061D01*
X121365000Y-79898061D01*
X121365000Y-80101939D01*
X121404774Y-80301898D01*
X121482795Y-80490256D01*
X121596063Y-80659774D01*
X121740226Y-80803937D01*
X121909744Y-80917205D01*
X122098102Y-80995226D01*
X122298061Y-81035000D01*
X122501939Y-81035000D01*
X122701898Y-80995226D01*
X122890256Y-80917205D01*
X123059774Y-80803937D01*
X123203937Y-80659774D01*
X123317205Y-80490256D01*
X123395226Y-80301898D01*
X123435000Y-80101939D01*
X123435000Y-79898061D01*
X123395226Y-79698102D01*
X123317205Y-79509744D01*
X123203937Y-79340226D01*
X123059774Y-79196063D01*
X122890256Y-79082795D01*
X122701898Y-79004774D01*
X122501939Y-78965000D01*
X122298061Y-78965000D01*
X122098102Y-79004774D01*
X121909744Y-79082795D01*
X121740226Y-79196063D01*
X121596063Y-79340226D01*
X121482795Y-79509744D01*
X121404774Y-79698102D01*
X121365000Y-79898061D01*
X114455393Y-79898061D01*
X114495226Y-79801898D01*
X114535000Y-79601939D01*
X114535000Y-79398061D01*
X114495226Y-79198102D01*
X114417205Y-79009744D01*
X114303937Y-78840226D01*
X114159774Y-78696063D01*
X113990256Y-78582795D01*
X113801898Y-78504774D01*
X113601939Y-78465000D01*
X113398061Y-78465000D01*
X113198102Y-78504774D01*
X113009744Y-78582795D01*
X112840226Y-78696063D01*
X112696063Y-78840226D01*
X112582795Y-79009744D01*
X112504774Y-79198102D01*
X112465000Y-79398061D01*
X105727000Y-79398061D01*
X105727000Y-77723061D01*
X120065000Y-77723061D01*
X120065000Y-77926939D01*
X120104774Y-78126898D01*
X120182795Y-78315256D01*
X120296063Y-78484774D01*
X120440226Y-78628937D01*
X120609744Y-78742205D01*
X120798102Y-78820226D01*
X120998061Y-78860000D01*
X121201939Y-78860000D01*
X121401898Y-78820226D01*
X121590256Y-78742205D01*
X121759774Y-78628937D01*
X121903937Y-78484774D01*
X122017205Y-78315256D01*
X122095226Y-78126898D01*
X122135000Y-77926939D01*
X122135000Y-77723061D01*
X122095226Y-77523102D01*
X122017205Y-77334744D01*
X121903937Y-77165226D01*
X121759774Y-77021063D01*
X121590256Y-76907795D01*
X121401898Y-76829774D01*
X121201939Y-76790000D01*
X120998061Y-76790000D01*
X120798102Y-76829774D01*
X120609744Y-76907795D01*
X120440226Y-77021063D01*
X120296063Y-77165226D01*
X120182795Y-77334744D01*
X120104774Y-77523102D01*
X120065000Y-77723061D01*
X105727000Y-77723061D01*
X105727000Y-74398061D01*
X117965000Y-74398061D01*
X117965000Y-74601939D01*
X118004774Y-74801898D01*
X118082795Y-74990256D01*
X118196063Y-75159774D01*
X118340226Y-75303937D01*
X118509744Y-75417205D01*
X118698102Y-75495226D01*
X118898061Y-75535000D01*
X119101939Y-75535000D01*
X119301898Y-75495226D01*
X119490256Y-75417205D01*
X119659774Y-75303937D01*
X119803937Y-75159774D01*
X119917205Y-74990256D01*
X119995226Y-74801898D01*
X120035000Y-74601939D01*
X120035000Y-74398061D01*
X119995226Y-74198102D01*
X119995210Y-74198061D01*
X132265000Y-74198061D01*
X132265000Y-74401939D01*
X132304774Y-74601898D01*
X132382795Y-74790256D01*
X132496063Y-74959774D01*
X132640226Y-75103937D01*
X132809744Y-75217205D01*
X132998102Y-75295226D01*
X133198061Y-75335000D01*
X133401939Y-75335000D01*
X133601898Y-75295226D01*
X133790256Y-75217205D01*
X133959774Y-75103937D01*
X134103937Y-74959774D01*
X134217205Y-74790256D01*
X134295226Y-74601898D01*
X134335000Y-74401939D01*
X134335000Y-74198061D01*
X134295226Y-73998102D01*
X134217205Y-73809744D01*
X134103937Y-73640226D01*
X133959774Y-73496063D01*
X133790256Y-73382795D01*
X133601898Y-73304774D01*
X133401939Y-73265000D01*
X133198061Y-73265000D01*
X132998102Y-73304774D01*
X132809744Y-73382795D01*
X132640226Y-73496063D01*
X132496063Y-73640226D01*
X132382795Y-73809744D01*
X132304774Y-73998102D01*
X132265000Y-74198061D01*
X119995210Y-74198061D01*
X119917205Y-74009744D01*
X119803937Y-73840226D01*
X119659774Y-73696063D01*
X119490256Y-73582795D01*
X119301898Y-73504774D01*
X119101939Y-73465000D01*
X118898061Y-73465000D01*
X118698102Y-73504774D01*
X118509744Y-73582795D01*
X118340226Y-73696063D01*
X118196063Y-73840226D01*
X118082795Y-74009744D01*
X118004774Y-74198102D01*
X117965000Y-74398061D01*
X105727000Y-74398061D01*
X105727000Y-71198061D01*
X131565000Y-71198061D01*
X131565000Y-71401939D01*
X131604774Y-71601898D01*
X131682795Y-71790256D01*
X131796063Y-71959774D01*
X131940226Y-72103937D01*
X132109744Y-72217205D01*
X132298102Y-72295226D01*
X132498061Y-72335000D01*
X132701939Y-72335000D01*
X132901898Y-72295226D01*
X133090256Y-72217205D01*
X133259774Y-72103937D01*
X133403937Y-71959774D01*
X133517205Y-71790256D01*
X133595226Y-71601898D01*
X133635000Y-71401939D01*
X133635000Y-71198061D01*
X133595226Y-70998102D01*
X133517205Y-70809744D01*
X133403937Y-70640226D01*
X133259774Y-70496063D01*
X133090256Y-70382795D01*
X132901898Y-70304774D01*
X132701939Y-70265000D01*
X132498061Y-70265000D01*
X132298102Y-70304774D01*
X132109744Y-70382795D01*
X131940226Y-70496063D01*
X131796063Y-70640226D01*
X131682795Y-70809744D01*
X131604774Y-70998102D01*
X131565000Y-71198061D01*
X105727000Y-71198061D01*
X105727000Y-68440286D01*
X135873000Y-68626220D01*
%TA.AperFunction,Conductor*%
D16*
G36*
X135873000Y-68626220D02*
G01*
X135873000Y-78533391D01*
X135804774Y-78698102D01*
X135765000Y-78898061D01*
X135765000Y-79101939D01*
X135804774Y-79301898D01*
X135873000Y-79466609D01*
X135873000Y-80965000D01*
X135698061Y-80965000D01*
X135498102Y-81004774D01*
X135309744Y-81082795D01*
X135140226Y-81196063D01*
X134996063Y-81340226D01*
X134882795Y-81509744D01*
X134804774Y-81698102D01*
X134765000Y-81898061D01*
X134765000Y-82101939D01*
X134804774Y-82301898D01*
X134882795Y-82490256D01*
X134996063Y-82659774D01*
X135140226Y-82803937D01*
X135309744Y-82917205D01*
X135498102Y-82995226D01*
X135698061Y-83035000D01*
X135873000Y-83035000D01*
X135873000Y-85375209D01*
X135854863Y-85375527D01*
X135801939Y-85365000D01*
X135598061Y-85365000D01*
X135515177Y-85381487D01*
X130297772Y-85473020D01*
X130273042Y-85475894D01*
X130249349Y-85483538D01*
X130227601Y-85495657D01*
X130208636Y-85511786D01*
X130193182Y-85531306D01*
X130181833Y-85553465D01*
X130175025Y-85577412D01*
X130173002Y-85600789D01*
X130179612Y-86665000D01*
X130098061Y-86665000D01*
X129898102Y-86704774D01*
X129709744Y-86782795D01*
X129540226Y-86896063D01*
X129396063Y-87040226D01*
X129282795Y-87209744D01*
X129204774Y-87398102D01*
X129165000Y-87598061D01*
X129165000Y-87801939D01*
X129204774Y-88001898D01*
X129282795Y-88190256D01*
X129396063Y-88359774D01*
X129540226Y-88503937D01*
X129709744Y-88617205D01*
X129898102Y-88695226D01*
X130098061Y-88735000D01*
X130192469Y-88735000D01*
X130272208Y-101572936D01*
X105727000Y-101560564D01*
X105727000Y-98898061D01*
X114965000Y-98898061D01*
X114965000Y-99101939D01*
X115004774Y-99301898D01*
X115082795Y-99490256D01*
X115196063Y-99659774D01*
X115340226Y-99803937D01*
X115509744Y-99917205D01*
X115698102Y-99995226D01*
X115898061Y-100035000D01*
X116101939Y-100035000D01*
X116301898Y-99995226D01*
X116490256Y-99917205D01*
X116659774Y-99803937D01*
X116803937Y-99659774D01*
X116917205Y-99490256D01*
X116995226Y-99301898D01*
X117035000Y-99101939D01*
X117035000Y-98898061D01*
X116995226Y-98698102D01*
X116917205Y-98509744D01*
X116803937Y-98340226D01*
X116659774Y-98196063D01*
X116490256Y-98082795D01*
X116301898Y-98004774D01*
X116101939Y-97965000D01*
X115898061Y-97965000D01*
X115698102Y-98004774D01*
X115509744Y-98082795D01*
X115340226Y-98196063D01*
X115196063Y-98340226D01*
X115082795Y-98509744D01*
X115004774Y-98698102D01*
X114965000Y-98898061D01*
X105727000Y-98898061D01*
X105727000Y-96898061D01*
X124465000Y-96898061D01*
X124465000Y-97101939D01*
X124504774Y-97301898D01*
X124582795Y-97490256D01*
X124696063Y-97659774D01*
X124840226Y-97803937D01*
X125009744Y-97917205D01*
X125198102Y-97995226D01*
X125398061Y-98035000D01*
X125601939Y-98035000D01*
X125801898Y-97995226D01*
X125990256Y-97917205D01*
X126159774Y-97803937D01*
X126303937Y-97659774D01*
X126417205Y-97490256D01*
X126495226Y-97301898D01*
X126535000Y-97101939D01*
X126535000Y-96898061D01*
X126495226Y-96698102D01*
X126417205Y-96509744D01*
X126303937Y-96340226D01*
X126159774Y-96196063D01*
X125990256Y-96082795D01*
X125801898Y-96004774D01*
X125601939Y-95965000D01*
X125398061Y-95965000D01*
X125198102Y-96004774D01*
X125009744Y-96082795D01*
X124840226Y-96196063D01*
X124696063Y-96340226D01*
X124582795Y-96509744D01*
X124504774Y-96698102D01*
X124465000Y-96898061D01*
X105727000Y-96898061D01*
X105727000Y-95598061D01*
X108465000Y-95598061D01*
X108465000Y-95801939D01*
X108504774Y-96001898D01*
X108582795Y-96190256D01*
X108696063Y-96359774D01*
X108840226Y-96503937D01*
X109009744Y-96617205D01*
X109198102Y-96695226D01*
X109398061Y-96735000D01*
X109601939Y-96735000D01*
X109801898Y-96695226D01*
X109990256Y-96617205D01*
X110159774Y-96503937D01*
X110303937Y-96359774D01*
X110417205Y-96190256D01*
X110495226Y-96001898D01*
X110535000Y-95801939D01*
X110535000Y-95598061D01*
X110495226Y-95398102D01*
X110417205Y-95209744D01*
X110303937Y-95040226D01*
X110159774Y-94896063D01*
X109990256Y-94782795D01*
X109801898Y-94704774D01*
X109768150Y-94698061D01*
X117865000Y-94698061D01*
X117865000Y-94901939D01*
X117904774Y-95101898D01*
X117982795Y-95290256D01*
X118096063Y-95459774D01*
X118240226Y-95603937D01*
X118409744Y-95717205D01*
X118598102Y-95795226D01*
X118798061Y-95835000D01*
X119001939Y-95835000D01*
X119201898Y-95795226D01*
X119390256Y-95717205D01*
X119559774Y-95603937D01*
X119703937Y-95459774D01*
X119817205Y-95290256D01*
X119895226Y-95101898D01*
X119935000Y-94901939D01*
X119935000Y-94698061D01*
X119895226Y-94498102D01*
X119817205Y-94309744D01*
X119703937Y-94140226D01*
X119559774Y-93996063D01*
X119390256Y-93882795D01*
X119201898Y-93804774D01*
X119001939Y-93765000D01*
X118798061Y-93765000D01*
X118598102Y-93804774D01*
X118409744Y-93882795D01*
X118240226Y-93996063D01*
X118096063Y-94140226D01*
X117982795Y-94309744D01*
X117904774Y-94498102D01*
X117865000Y-94698061D01*
X109768150Y-94698061D01*
X109601939Y-94665000D01*
X109398061Y-94665000D01*
X109198102Y-94704774D01*
X109009744Y-94782795D01*
X108840226Y-94896063D01*
X108696063Y-95040226D01*
X108582795Y-95209744D01*
X108504774Y-95398102D01*
X108465000Y-95598061D01*
X105727000Y-95598061D01*
X105727000Y-93598061D01*
X122965000Y-93598061D01*
X122965000Y-93801939D01*
X123004774Y-94001898D01*
X123082795Y-94190256D01*
X123196063Y-94359774D01*
X123340226Y-94503937D01*
X123509744Y-94617205D01*
X123698102Y-94695226D01*
X123898061Y-94735000D01*
X124101939Y-94735000D01*
X124301898Y-94695226D01*
X124490256Y-94617205D01*
X124659774Y-94503937D01*
X124803937Y-94359774D01*
X124917205Y-94190256D01*
X124995226Y-94001898D01*
X125035000Y-93801939D01*
X125035000Y-93598061D01*
X125015109Y-93498061D01*
X125965000Y-93498061D01*
X125965000Y-93701939D01*
X126004774Y-93901898D01*
X126082795Y-94090256D01*
X126196063Y-94259774D01*
X126340226Y-94403937D01*
X126509744Y-94517205D01*
X126698102Y-94595226D01*
X126898061Y-94635000D01*
X127101939Y-94635000D01*
X127301898Y-94595226D01*
X127490256Y-94517205D01*
X127659774Y-94403937D01*
X127803937Y-94259774D01*
X127917205Y-94090256D01*
X127995226Y-93901898D01*
X128035000Y-93701939D01*
X128035000Y-93498061D01*
X127995226Y-93298102D01*
X127917205Y-93109744D01*
X127803937Y-92940226D01*
X127659774Y-92796063D01*
X127490256Y-92682795D01*
X127301898Y-92604774D01*
X127101939Y-92565000D01*
X126898061Y-92565000D01*
X126698102Y-92604774D01*
X126509744Y-92682795D01*
X126340226Y-92796063D01*
X126196063Y-92940226D01*
X126082795Y-93109744D01*
X126004774Y-93298102D01*
X125965000Y-93498061D01*
X125015109Y-93498061D01*
X124995226Y-93398102D01*
X124917205Y-93209744D01*
X124803937Y-93040226D01*
X124659774Y-92896063D01*
X124490256Y-92782795D01*
X124301898Y-92704774D01*
X124101939Y-92665000D01*
X123898061Y-92665000D01*
X123698102Y-92704774D01*
X123509744Y-92782795D01*
X123340226Y-92896063D01*
X123196063Y-93040226D01*
X123082795Y-93209744D01*
X123004774Y-93398102D01*
X122965000Y-93598061D01*
X105727000Y-93598061D01*
X105727000Y-91698061D01*
X115165000Y-91698061D01*
X115165000Y-91901939D01*
X115204774Y-92101898D01*
X115282795Y-92290256D01*
X115396063Y-92459774D01*
X115540226Y-92603937D01*
X115709744Y-92717205D01*
X115898102Y-92795226D01*
X116098061Y-92835000D01*
X116301939Y-92835000D01*
X116501898Y-92795226D01*
X116690256Y-92717205D01*
X116859774Y-92603937D01*
X117003937Y-92459774D01*
X117117205Y-92290256D01*
X117195226Y-92101898D01*
X117235000Y-91901939D01*
X117235000Y-91698061D01*
X117195226Y-91498102D01*
X117117205Y-91309744D01*
X117003937Y-91140226D01*
X116859774Y-90996063D01*
X116690256Y-90882795D01*
X116501898Y-90804774D01*
X116301939Y-90765000D01*
X116098061Y-90765000D01*
X115898102Y-90804774D01*
X115709744Y-90882795D01*
X115540226Y-90996063D01*
X115396063Y-91140226D01*
X115282795Y-91309744D01*
X115204774Y-91498102D01*
X115165000Y-91698061D01*
X105727000Y-91698061D01*
X105727000Y-86998061D01*
X115165000Y-86998061D01*
X115165000Y-87201939D01*
X115204774Y-87401898D01*
X115282795Y-87590256D01*
X115396063Y-87759774D01*
X115540226Y-87903937D01*
X115709744Y-88017205D01*
X115898102Y-88095226D01*
X116098061Y-88135000D01*
X116301939Y-88135000D01*
X116501898Y-88095226D01*
X116690256Y-88017205D01*
X116859774Y-87903937D01*
X117003937Y-87759774D01*
X117117205Y-87590256D01*
X117195226Y-87401898D01*
X117195989Y-87398061D01*
X120065000Y-87398061D01*
X120065000Y-87601939D01*
X120104774Y-87801898D01*
X120182795Y-87990256D01*
X120296063Y-88159774D01*
X120440226Y-88303937D01*
X120609744Y-88417205D01*
X120798102Y-88495226D01*
X120998061Y-88535000D01*
X121201939Y-88535000D01*
X121401898Y-88495226D01*
X121590256Y-88417205D01*
X121759774Y-88303937D01*
X121903937Y-88159774D01*
X122017205Y-87990256D01*
X122095226Y-87801898D01*
X122135000Y-87601939D01*
X122135000Y-87398061D01*
X122095226Y-87198102D01*
X122017205Y-87009744D01*
X121903937Y-86840226D01*
X121759774Y-86696063D01*
X121590256Y-86582795D01*
X121401898Y-86504774D01*
X121201939Y-86465000D01*
X120998061Y-86465000D01*
X120798102Y-86504774D01*
X120609744Y-86582795D01*
X120440226Y-86696063D01*
X120296063Y-86840226D01*
X120182795Y-87009744D01*
X120104774Y-87198102D01*
X120065000Y-87398061D01*
X117195989Y-87398061D01*
X117235000Y-87201939D01*
X117235000Y-86998061D01*
X117195226Y-86798102D01*
X117117205Y-86609744D01*
X117003937Y-86440226D01*
X116859774Y-86296063D01*
X116690256Y-86182795D01*
X116501898Y-86104774D01*
X116301939Y-86065000D01*
X116098061Y-86065000D01*
X115898102Y-86104774D01*
X115709744Y-86182795D01*
X115540226Y-86296063D01*
X115396063Y-86440226D01*
X115282795Y-86609744D01*
X115204774Y-86798102D01*
X115165000Y-86998061D01*
X105727000Y-86998061D01*
X105727000Y-84150000D01*
X112011928Y-84150000D01*
X112011928Y-85850000D01*
X112024188Y-85974482D01*
X112060498Y-86094180D01*
X112119463Y-86204494D01*
X112198815Y-86301185D01*
X112295506Y-86380537D01*
X112405820Y-86439502D01*
X112525518Y-86475812D01*
X112650000Y-86488072D01*
X114350000Y-86488072D01*
X114474482Y-86475812D01*
X114594180Y-86439502D01*
X114704494Y-86380537D01*
X114801185Y-86301185D01*
X114880537Y-86204494D01*
X114939502Y-86094180D01*
X114975812Y-85974482D01*
X114988072Y-85850000D01*
X114988072Y-84398061D01*
X123465000Y-84398061D01*
X123465000Y-84601939D01*
X123504774Y-84801898D01*
X123582795Y-84990256D01*
X123696063Y-85159774D01*
X123840226Y-85303937D01*
X124009744Y-85417205D01*
X124198102Y-85495226D01*
X124222103Y-85500000D01*
X124198102Y-85504774D01*
X124009744Y-85582795D01*
X123840226Y-85696063D01*
X123696063Y-85840226D01*
X123582795Y-86009744D01*
X123504774Y-86198102D01*
X123465000Y-86398061D01*
X123465000Y-86601939D01*
X123504774Y-86801898D01*
X123582795Y-86990256D01*
X123696063Y-87159774D01*
X123840226Y-87303937D01*
X124009744Y-87417205D01*
X124198102Y-87495226D01*
X124398061Y-87535000D01*
X124601939Y-87535000D01*
X124801898Y-87495226D01*
X124990256Y-87417205D01*
X125159774Y-87303937D01*
X125303937Y-87159774D01*
X125417205Y-86990256D01*
X125495226Y-86801898D01*
X125535000Y-86601939D01*
X125535000Y-86398061D01*
X125495226Y-86198102D01*
X125417205Y-86009744D01*
X125303937Y-85840226D01*
X125159774Y-85696063D01*
X124990256Y-85582795D01*
X124801898Y-85504774D01*
X124777897Y-85500000D01*
X124801898Y-85495226D01*
X124990256Y-85417205D01*
X125159774Y-85303937D01*
X125303937Y-85159774D01*
X125417205Y-84990256D01*
X125495226Y-84801898D01*
X125535000Y-84601939D01*
X125535000Y-84398061D01*
X125495226Y-84198102D01*
X125417205Y-84009744D01*
X125303937Y-83840226D01*
X125159774Y-83696063D01*
X124990256Y-83582795D01*
X124801898Y-83504774D01*
X124601939Y-83465000D01*
X124398061Y-83465000D01*
X124198102Y-83504774D01*
X124009744Y-83582795D01*
X123840226Y-83696063D01*
X123696063Y-83840226D01*
X123582795Y-84009744D01*
X123504774Y-84198102D01*
X123465000Y-84398061D01*
X114988072Y-84398061D01*
X114988072Y-84150000D01*
X114975812Y-84025518D01*
X114939502Y-83905820D01*
X114880537Y-83795506D01*
X114801185Y-83698815D01*
X114704494Y-83619463D01*
X114594180Y-83560498D01*
X114521620Y-83538487D01*
X114653475Y-83406632D01*
X114815990Y-83163411D01*
X114927932Y-82893158D01*
X114985000Y-82606260D01*
X114985000Y-82598061D01*
X122365000Y-82598061D01*
X122365000Y-82801939D01*
X122404774Y-83001898D01*
X122482795Y-83190256D01*
X122596063Y-83359774D01*
X122740226Y-83503937D01*
X122909744Y-83617205D01*
X123098102Y-83695226D01*
X123298061Y-83735000D01*
X123501939Y-83735000D01*
X123701898Y-83695226D01*
X123890256Y-83617205D01*
X124059774Y-83503937D01*
X124203937Y-83359774D01*
X124317205Y-83190256D01*
X124395226Y-83001898D01*
X124435000Y-82801939D01*
X124435000Y-82598061D01*
X124415109Y-82498061D01*
X127265000Y-82498061D01*
X127265000Y-82701939D01*
X127304774Y-82901898D01*
X127382795Y-83090256D01*
X127496063Y-83259774D01*
X127640226Y-83403937D01*
X127809744Y-83517205D01*
X127998102Y-83595226D01*
X128198061Y-83635000D01*
X128401939Y-83635000D01*
X128601898Y-83595226D01*
X128790256Y-83517205D01*
X128959774Y-83403937D01*
X129103937Y-83259774D01*
X129217205Y-83090256D01*
X129295226Y-82901898D01*
X129335000Y-82701939D01*
X129335000Y-82498061D01*
X129295226Y-82298102D01*
X129217205Y-82109744D01*
X129103937Y-81940226D01*
X128959774Y-81796063D01*
X128790256Y-81682795D01*
X128601898Y-81604774D01*
X128401939Y-81565000D01*
X128198061Y-81565000D01*
X127998102Y-81604774D01*
X127809744Y-81682795D01*
X127640226Y-81796063D01*
X127496063Y-81940226D01*
X127382795Y-82109744D01*
X127304774Y-82298102D01*
X127265000Y-82498061D01*
X124415109Y-82498061D01*
X124395226Y-82398102D01*
X124317205Y-82209744D01*
X124203937Y-82040226D01*
X124059774Y-81896063D01*
X123890256Y-81782795D01*
X123701898Y-81704774D01*
X123501939Y-81665000D01*
X123298061Y-81665000D01*
X123098102Y-81704774D01*
X122909744Y-81782795D01*
X122740226Y-81896063D01*
X122596063Y-82040226D01*
X122482795Y-82209744D01*
X122404774Y-82398102D01*
X122365000Y-82598061D01*
X114985000Y-82598061D01*
X114985000Y-82313740D01*
X114927932Y-82026842D01*
X114815990Y-81756589D01*
X114653475Y-81513368D01*
X114446632Y-81306525D01*
X114203411Y-81144010D01*
X113933158Y-81032068D01*
X113646260Y-80975000D01*
X113353740Y-80975000D01*
X113066842Y-81032068D01*
X112796589Y-81144010D01*
X112553368Y-81306525D01*
X112346525Y-81513368D01*
X112184010Y-81756589D01*
X112072068Y-82026842D01*
X112015000Y-82313740D01*
X112015000Y-82606260D01*
X112072068Y-82893158D01*
X112184010Y-83163411D01*
X112346525Y-83406632D01*
X112478380Y-83538487D01*
X112405820Y-83560498D01*
X112295506Y-83619463D01*
X112198815Y-83698815D01*
X112119463Y-83795506D01*
X112060498Y-83905820D01*
X112024188Y-84025518D01*
X112011928Y-84150000D01*
X105727000Y-84150000D01*
X105727000Y-79398061D01*
X112465000Y-79398061D01*
X112465000Y-79601939D01*
X112504774Y-79801898D01*
X112582795Y-79990256D01*
X112696063Y-80159774D01*
X112840226Y-80303937D01*
X113009744Y-80417205D01*
X113198102Y-80495226D01*
X113398061Y-80535000D01*
X113601939Y-80535000D01*
X113801898Y-80495226D01*
X113990256Y-80417205D01*
X114159774Y-80303937D01*
X114303937Y-80159774D01*
X114417205Y-79990256D01*
X114455393Y-79898061D01*
X121365000Y-79898061D01*
X121365000Y-80101939D01*
X121404774Y-80301898D01*
X121482795Y-80490256D01*
X121596063Y-80659774D01*
X121740226Y-80803937D01*
X121909744Y-80917205D01*
X122098102Y-80995226D01*
X122298061Y-81035000D01*
X122501939Y-81035000D01*
X122701898Y-80995226D01*
X122890256Y-80917205D01*
X123059774Y-80803937D01*
X123203937Y-80659774D01*
X123317205Y-80490256D01*
X123395226Y-80301898D01*
X123435000Y-80101939D01*
X123435000Y-79898061D01*
X123395226Y-79698102D01*
X123317205Y-79509744D01*
X123203937Y-79340226D01*
X123059774Y-79196063D01*
X122890256Y-79082795D01*
X122701898Y-79004774D01*
X122501939Y-78965000D01*
X122298061Y-78965000D01*
X122098102Y-79004774D01*
X121909744Y-79082795D01*
X121740226Y-79196063D01*
X121596063Y-79340226D01*
X121482795Y-79509744D01*
X121404774Y-79698102D01*
X121365000Y-79898061D01*
X114455393Y-79898061D01*
X114495226Y-79801898D01*
X114535000Y-79601939D01*
X114535000Y-79398061D01*
X114495226Y-79198102D01*
X114417205Y-79009744D01*
X114303937Y-78840226D01*
X114159774Y-78696063D01*
X113990256Y-78582795D01*
X113801898Y-78504774D01*
X113601939Y-78465000D01*
X113398061Y-78465000D01*
X113198102Y-78504774D01*
X113009744Y-78582795D01*
X112840226Y-78696063D01*
X112696063Y-78840226D01*
X112582795Y-79009744D01*
X112504774Y-79198102D01*
X112465000Y-79398061D01*
X105727000Y-79398061D01*
X105727000Y-77723061D01*
X120065000Y-77723061D01*
X120065000Y-77926939D01*
X120104774Y-78126898D01*
X120182795Y-78315256D01*
X120296063Y-78484774D01*
X120440226Y-78628937D01*
X120609744Y-78742205D01*
X120798102Y-78820226D01*
X120998061Y-78860000D01*
X121201939Y-78860000D01*
X121401898Y-78820226D01*
X121590256Y-78742205D01*
X121759774Y-78628937D01*
X121903937Y-78484774D01*
X122017205Y-78315256D01*
X122095226Y-78126898D01*
X122135000Y-77926939D01*
X122135000Y-77723061D01*
X122095226Y-77523102D01*
X122017205Y-77334744D01*
X121903937Y-77165226D01*
X121759774Y-77021063D01*
X121590256Y-76907795D01*
X121401898Y-76829774D01*
X121201939Y-76790000D01*
X120998061Y-76790000D01*
X120798102Y-76829774D01*
X120609744Y-76907795D01*
X120440226Y-77021063D01*
X120296063Y-77165226D01*
X120182795Y-77334744D01*
X120104774Y-77523102D01*
X120065000Y-77723061D01*
X105727000Y-77723061D01*
X105727000Y-74398061D01*
X117965000Y-74398061D01*
X117965000Y-74601939D01*
X118004774Y-74801898D01*
X118082795Y-74990256D01*
X118196063Y-75159774D01*
X118340226Y-75303937D01*
X118509744Y-75417205D01*
X118698102Y-75495226D01*
X118898061Y-75535000D01*
X119101939Y-75535000D01*
X119301898Y-75495226D01*
X119490256Y-75417205D01*
X119659774Y-75303937D01*
X119803937Y-75159774D01*
X119917205Y-74990256D01*
X119995226Y-74801898D01*
X120035000Y-74601939D01*
X120035000Y-74398061D01*
X119995226Y-74198102D01*
X119995210Y-74198061D01*
X132265000Y-74198061D01*
X132265000Y-74401939D01*
X132304774Y-74601898D01*
X132382795Y-74790256D01*
X132496063Y-74959774D01*
X132640226Y-75103937D01*
X132809744Y-75217205D01*
X132998102Y-75295226D01*
X133198061Y-75335000D01*
X133401939Y-75335000D01*
X133601898Y-75295226D01*
X133790256Y-75217205D01*
X133959774Y-75103937D01*
X134103937Y-74959774D01*
X134217205Y-74790256D01*
X134295226Y-74601898D01*
X134335000Y-74401939D01*
X134335000Y-74198061D01*
X134295226Y-73998102D01*
X134217205Y-73809744D01*
X134103937Y-73640226D01*
X133959774Y-73496063D01*
X133790256Y-73382795D01*
X133601898Y-73304774D01*
X133401939Y-73265000D01*
X133198061Y-73265000D01*
X132998102Y-73304774D01*
X132809744Y-73382795D01*
X132640226Y-73496063D01*
X132496063Y-73640226D01*
X132382795Y-73809744D01*
X132304774Y-73998102D01*
X132265000Y-74198061D01*
X119995210Y-74198061D01*
X119917205Y-74009744D01*
X119803937Y-73840226D01*
X119659774Y-73696063D01*
X119490256Y-73582795D01*
X119301898Y-73504774D01*
X119101939Y-73465000D01*
X118898061Y-73465000D01*
X118698102Y-73504774D01*
X118509744Y-73582795D01*
X118340226Y-73696063D01*
X118196063Y-73840226D01*
X118082795Y-74009744D01*
X118004774Y-74198102D01*
X117965000Y-74398061D01*
X105727000Y-74398061D01*
X105727000Y-71198061D01*
X131565000Y-71198061D01*
X131565000Y-71401939D01*
X131604774Y-71601898D01*
X131682795Y-71790256D01*
X131796063Y-71959774D01*
X131940226Y-72103937D01*
X132109744Y-72217205D01*
X132298102Y-72295226D01*
X132498061Y-72335000D01*
X132701939Y-72335000D01*
X132901898Y-72295226D01*
X133090256Y-72217205D01*
X133259774Y-72103937D01*
X133403937Y-71959774D01*
X133517205Y-71790256D01*
X133595226Y-71601898D01*
X133635000Y-71401939D01*
X133635000Y-71198061D01*
X133595226Y-70998102D01*
X133517205Y-70809744D01*
X133403937Y-70640226D01*
X133259774Y-70496063D01*
X133090256Y-70382795D01*
X132901898Y-70304774D01*
X132701939Y-70265000D01*
X132498061Y-70265000D01*
X132298102Y-70304774D01*
X132109744Y-70382795D01*
X131940226Y-70496063D01*
X131796063Y-70640226D01*
X131682795Y-70809744D01*
X131604774Y-70998102D01*
X131565000Y-71198061D01*
X105727000Y-71198061D01*
X105727000Y-68440286D01*
X135873000Y-68626220D01*
G37*
%TD.AperFunction*%
%TD*%
D15*
%TO.N,+3V3*%
X152109744Y-68817205D02*
X152298102Y-68895226D01*
X152498061Y-68935000D01*
X152701939Y-68935000D01*
X152901898Y-68895226D01*
X153090256Y-68817205D01*
X153225258Y-68727000D01*
X174315000Y-68727000D01*
X174315001Y-93655199D01*
X174274122Y-111315000D01*
X105727000Y-111315000D01*
X105727000Y-106525701D01*
X107415000Y-106525701D01*
X107415000Y-107074299D01*
X107522026Y-107612354D01*
X107731965Y-108119192D01*
X108036750Y-108575334D01*
X108424666Y-108963250D01*
X108880808Y-109268035D01*
X109387646Y-109477974D01*
X109925701Y-109585000D01*
X110474299Y-109585000D01*
X111012354Y-109477974D01*
X111261124Y-109374930D01*
X115560001Y-109374930D01*
X115573530Y-109512290D01*
X115626994Y-109688538D01*
X115713815Y-109850970D01*
X115830657Y-109993343D01*
X115973029Y-110110185D01*
X116135461Y-110197006D01*
X116311709Y-110250470D01*
X116495001Y-110268523D01*
X116678292Y-110250470D01*
X116854540Y-110197006D01*
X117016972Y-110110185D01*
X117159345Y-109993343D01*
X117276187Y-109850971D01*
X117363008Y-109688539D01*
X117416472Y-109512291D01*
X117430001Y-109374931D01*
X117430001Y-109374930D01*
X120640001Y-109374930D01*
X120653530Y-109512290D01*
X120706994Y-109688538D01*
X120793815Y-109850970D01*
X120910657Y-109993343D01*
X121053029Y-110110185D01*
X121215461Y-110197006D01*
X121391709Y-110250470D01*
X121575001Y-110268523D01*
X121758292Y-110250470D01*
X121934540Y-110197006D01*
X122096972Y-110110185D01*
X122239345Y-109993343D01*
X122356187Y-109850971D01*
X122443008Y-109688539D01*
X122496472Y-109512291D01*
X122510001Y-109374931D01*
X122510001Y-109357931D01*
X123725000Y-109357931D01*
X123738529Y-109495291D01*
X123791993Y-109671539D01*
X123878814Y-109833971D01*
X123995656Y-109976344D01*
X124138028Y-110093186D01*
X124300460Y-110180007D01*
X124476708Y-110233471D01*
X124660000Y-110251524D01*
X124843291Y-110233471D01*
X125019539Y-110180007D01*
X125181971Y-110093186D01*
X125324344Y-109976344D01*
X125441186Y-109833972D01*
X125528007Y-109671540D01*
X125581471Y-109495292D01*
X125595000Y-109357932D01*
X125595000Y-109357931D01*
X128805000Y-109357931D01*
X128818529Y-109495291D01*
X128871993Y-109671539D01*
X128958814Y-109833971D01*
X129075656Y-109976344D01*
X129218028Y-110093186D01*
X129380460Y-110180007D01*
X129556708Y-110233471D01*
X129740000Y-110251524D01*
X129923291Y-110233471D01*
X130099539Y-110180007D01*
X130261971Y-110093186D01*
X130404344Y-109976344D01*
X130521186Y-109833972D01*
X130608007Y-109671540D01*
X130661471Y-109495292D01*
X130671355Y-109394930D01*
X132040001Y-109394930D01*
X132053530Y-109532290D01*
X132106994Y-109708538D01*
X132193815Y-109870970D01*
X132310657Y-110013343D01*
X132453029Y-110130185D01*
X132615461Y-110217006D01*
X132791709Y-110270470D01*
X132975001Y-110288523D01*
X133158292Y-110270470D01*
X133334540Y-110217006D01*
X133496972Y-110130185D01*
X133639345Y-110013343D01*
X133756187Y-109870971D01*
X133843008Y-109708539D01*
X133896472Y-109532291D01*
X133910001Y-109394931D01*
X133910001Y-109394930D01*
X137120001Y-109394930D01*
X137133530Y-109532290D01*
X137186994Y-109708538D01*
X137273815Y-109870970D01*
X137390657Y-110013343D01*
X137533029Y-110130185D01*
X137695461Y-110217006D01*
X137871709Y-110270470D01*
X138055001Y-110288523D01*
X138238292Y-110270470D01*
X138414540Y-110217006D01*
X138576972Y-110130185D01*
X138719345Y-110013343D01*
X138836187Y-109870971D01*
X138923008Y-109708539D01*
X138976472Y-109532291D01*
X138990001Y-109394931D01*
X138990001Y-109098061D01*
X148765000Y-109098061D01*
X148765000Y-109301939D01*
X148804774Y-109501898D01*
X148882795Y-109690256D01*
X148996063Y-109859774D01*
X149140226Y-110003937D01*
X149309744Y-110117205D01*
X149498102Y-110195226D01*
X149698061Y-110235000D01*
X149901939Y-110235000D01*
X150101898Y-110195226D01*
X150290256Y-110117205D01*
X150459774Y-110003937D01*
X150603937Y-109859774D01*
X150717205Y-109690256D01*
X150795226Y-109501898D01*
X150835000Y-109301939D01*
X150835000Y-109098061D01*
X150820454Y-109024930D01*
X157310001Y-109024930D01*
X157323530Y-109162290D01*
X157376994Y-109338538D01*
X157463815Y-109500970D01*
X157580657Y-109643343D01*
X157723029Y-109760185D01*
X157885461Y-109847006D01*
X158061709Y-109900470D01*
X158245001Y-109918523D01*
X158428292Y-109900470D01*
X158604540Y-109847006D01*
X158766972Y-109760185D01*
X158909345Y-109643343D01*
X159026187Y-109500971D01*
X159113008Y-109338539D01*
X159166472Y-109162291D01*
X159180001Y-109024931D01*
X159180001Y-109024930D01*
X162390001Y-109024930D01*
X162403530Y-109162290D01*
X162456994Y-109338538D01*
X162543815Y-109500970D01*
X162660657Y-109643343D01*
X162803029Y-109760185D01*
X162965461Y-109847006D01*
X163141709Y-109900470D01*
X163325001Y-109918523D01*
X163508292Y-109900470D01*
X163684540Y-109847006D01*
X163846972Y-109760185D01*
X163989345Y-109643343D01*
X164106187Y-109500971D01*
X164193008Y-109338539D01*
X164246472Y-109162291D01*
X164260001Y-109024931D01*
X164260001Y-108009067D01*
X164246472Y-107871707D01*
X164193008Y-107695459D01*
X164106187Y-107533027D01*
X164031207Y-107441664D01*
X164090256Y-107417205D01*
X164259774Y-107303937D01*
X164403937Y-107159774D01*
X164517205Y-106990256D01*
X164595226Y-106801898D01*
X164635000Y-106601939D01*
X164635000Y-106525701D01*
X167015000Y-106525701D01*
X167015000Y-107074299D01*
X167122026Y-107612354D01*
X167331965Y-108119192D01*
X167636750Y-108575334D01*
X168024666Y-108963250D01*
X168480808Y-109268035D01*
X168987646Y-109477974D01*
X169525701Y-109585000D01*
X170074299Y-109585000D01*
X170612354Y-109477974D01*
X171119192Y-109268035D01*
X171575334Y-108963250D01*
X171963250Y-108575334D01*
X172268035Y-108119192D01*
X172477974Y-107612354D01*
X172585000Y-107074299D01*
X172585000Y-106525701D01*
X172477974Y-105987646D01*
X172268035Y-105480808D01*
X171963250Y-105024666D01*
X171575334Y-104636750D01*
X171119192Y-104331965D01*
X170612354Y-104122026D01*
X170074299Y-104015000D01*
X169525701Y-104015000D01*
X168987646Y-104122026D01*
X168480808Y-104331965D01*
X168024666Y-104636750D01*
X167636750Y-105024666D01*
X167331965Y-105480808D01*
X167122026Y-105987646D01*
X167015000Y-106525701D01*
X164635000Y-106525701D01*
X164635000Y-106398061D01*
X164595226Y-106198102D01*
X164517205Y-106009744D01*
X164403937Y-105840226D01*
X164259774Y-105696063D01*
X164090256Y-105582795D01*
X163901898Y-105504774D01*
X163701939Y-105465000D01*
X163498061Y-105465000D01*
X163298102Y-105504774D01*
X163109744Y-105582795D01*
X162940226Y-105696063D01*
X162796063Y-105840226D01*
X162682795Y-106009744D01*
X162604774Y-106198102D01*
X162565000Y-106398061D01*
X162565000Y-106601939D01*
X162604774Y-106801898D01*
X162682795Y-106990256D01*
X162796063Y-107159774D01*
X162872806Y-107236517D01*
X162803030Y-107273813D01*
X162660658Y-107390655D01*
X162543816Y-107533027D01*
X162456995Y-107695459D01*
X162403531Y-107871707D01*
X162390002Y-108009067D01*
X162390001Y-109024930D01*
X159180001Y-109024930D01*
X159180001Y-108009067D01*
X159166472Y-107871707D01*
X159113008Y-107695459D01*
X159026187Y-107533027D01*
X158909345Y-107390655D01*
X158766973Y-107273813D01*
X158604541Y-107186992D01*
X158428293Y-107133528D01*
X158245001Y-107115475D01*
X158061710Y-107133528D01*
X157885462Y-107186992D01*
X157723030Y-107273813D01*
X157580658Y-107390655D01*
X157463816Y-107533027D01*
X157376995Y-107695459D01*
X157323531Y-107871707D01*
X157310002Y-108009067D01*
X157310001Y-109024930D01*
X150820454Y-109024930D01*
X150795226Y-108898102D01*
X150717205Y-108709744D01*
X150603937Y-108540226D01*
X150459774Y-108396063D01*
X150290256Y-108282795D01*
X150101898Y-108204774D01*
X149901939Y-108165000D01*
X149698061Y-108165000D01*
X149498102Y-108204774D01*
X149309744Y-108282795D01*
X149140226Y-108396063D01*
X148996063Y-108540226D01*
X148882795Y-108709744D01*
X148804774Y-108898102D01*
X148765000Y-109098061D01*
X138990001Y-109098061D01*
X138990001Y-108379067D01*
X138976472Y-108241707D01*
X138923008Y-108065459D01*
X138836187Y-107903027D01*
X138797340Y-107855692D01*
X138890256Y-107817205D01*
X139059774Y-107703937D01*
X139203937Y-107559774D01*
X139317205Y-107390256D01*
X139395226Y-107201898D01*
X139435000Y-107001939D01*
X139435000Y-106798061D01*
X139395226Y-106598102D01*
X139317205Y-106409744D01*
X139203937Y-106240226D01*
X139059774Y-106096063D01*
X138890256Y-105982795D01*
X138701898Y-105904774D01*
X138501939Y-105865000D01*
X138298061Y-105865000D01*
X138098102Y-105904774D01*
X137909744Y-105982795D01*
X137740226Y-106096063D01*
X137596063Y-106240226D01*
X137482795Y-106409744D01*
X137404774Y-106598102D01*
X137365000Y-106798061D01*
X137365000Y-107001939D01*
X137404774Y-107201898D01*
X137482795Y-107390256D01*
X137596063Y-107559774D01*
X137628873Y-107592584D01*
X137533030Y-107643813D01*
X137390658Y-107760655D01*
X137273816Y-107903027D01*
X137186995Y-108065459D01*
X137133531Y-108241707D01*
X137120002Y-108379067D01*
X137120001Y-109394930D01*
X133910001Y-109394930D01*
X133910001Y-108379067D01*
X133896472Y-108241707D01*
X133843008Y-108065459D01*
X133756187Y-107903027D01*
X133639345Y-107760655D01*
X133496973Y-107643813D01*
X133334541Y-107556992D01*
X133158293Y-107503528D01*
X132975001Y-107485475D01*
X132791710Y-107503528D01*
X132615462Y-107556992D01*
X132453030Y-107643813D01*
X132310658Y-107760655D01*
X132193816Y-107903027D01*
X132106995Y-108065459D01*
X132053531Y-108241707D01*
X132040002Y-108379067D01*
X132040001Y-109394930D01*
X130671355Y-109394930D01*
X130675000Y-109357932D01*
X130675000Y-108342068D01*
X130661471Y-108204708D01*
X130608007Y-108028460D01*
X130521186Y-107866028D01*
X130404344Y-107723656D01*
X130261972Y-107606814D01*
X130099540Y-107519993D01*
X129923292Y-107466529D01*
X129740000Y-107448476D01*
X129556709Y-107466529D01*
X129380461Y-107519993D01*
X129218029Y-107606814D01*
X129075657Y-107723656D01*
X128958815Y-107866028D01*
X128871994Y-108028460D01*
X128818530Y-108204708D01*
X128805001Y-108342068D01*
X128805000Y-109357931D01*
X125595000Y-109357931D01*
X125595000Y-108342068D01*
X125581471Y-108204708D01*
X125528007Y-108028460D01*
X125441186Y-107866028D01*
X125324344Y-107723656D01*
X125181972Y-107606814D01*
X125019540Y-107519993D01*
X124843292Y-107466529D01*
X124660000Y-107448476D01*
X124476709Y-107466529D01*
X124300461Y-107519993D01*
X124138029Y-107606814D01*
X123995657Y-107723656D01*
X123878815Y-107866028D01*
X123791994Y-108028460D01*
X123738530Y-108204708D01*
X123725001Y-108342068D01*
X123725000Y-109357931D01*
X122510001Y-109357931D01*
X122510001Y-108359067D01*
X122496472Y-108221707D01*
X122443008Y-108045459D01*
X122356187Y-107883027D01*
X122239345Y-107740655D01*
X122096973Y-107623813D01*
X121934541Y-107536992D01*
X121758293Y-107483528D01*
X121575001Y-107465475D01*
X121391710Y-107483528D01*
X121215462Y-107536992D01*
X121053030Y-107623813D01*
X120910658Y-107740655D01*
X120793816Y-107883027D01*
X120706995Y-108045459D01*
X120653531Y-108221707D01*
X120640002Y-108359067D01*
X120640001Y-109374930D01*
X117430001Y-109374930D01*
X117430001Y-108359067D01*
X117416472Y-108221707D01*
X117363008Y-108045459D01*
X117276187Y-107883027D01*
X117159345Y-107740655D01*
X117016973Y-107623813D01*
X116854541Y-107536992D01*
X116678293Y-107483528D01*
X116495001Y-107465475D01*
X116311710Y-107483528D01*
X116135462Y-107536992D01*
X115973030Y-107623813D01*
X115830658Y-107740655D01*
X115713816Y-107883027D01*
X115626995Y-108045459D01*
X115573531Y-108221707D01*
X115560002Y-108359067D01*
X115560001Y-109374930D01*
X111261124Y-109374930D01*
X111519192Y-109268035D01*
X111975334Y-108963250D01*
X112363250Y-108575334D01*
X112668035Y-108119192D01*
X112877974Y-107612354D01*
X112985000Y-107074299D01*
X112985000Y-106525701D01*
X112877974Y-105987646D01*
X112668035Y-105480808D01*
X112363250Y-105024666D01*
X112036645Y-104698061D01*
X116065000Y-104698061D01*
X116065000Y-104901939D01*
X116104774Y-105101898D01*
X116182795Y-105290256D01*
X116296063Y-105459774D01*
X116440226Y-105603937D01*
X116609744Y-105717205D01*
X116798102Y-105795226D01*
X116998061Y-105835000D01*
X117201939Y-105835000D01*
X117401898Y-105795226D01*
X117590256Y-105717205D01*
X117759774Y-105603937D01*
X117903937Y-105459774D01*
X118017205Y-105290256D01*
X118095226Y-105101898D01*
X118135000Y-104901939D01*
X118135000Y-104698061D01*
X123865000Y-104698061D01*
X123865000Y-104901939D01*
X123904774Y-105101898D01*
X123982795Y-105290256D01*
X124096063Y-105459774D01*
X124240226Y-105603937D01*
X124409744Y-105717205D01*
X124598102Y-105795226D01*
X124798061Y-105835000D01*
X125001939Y-105835000D01*
X125201898Y-105795226D01*
X125390256Y-105717205D01*
X125559774Y-105603937D01*
X125703937Y-105459774D01*
X125817205Y-105290256D01*
X125895226Y-105101898D01*
X125935000Y-104901939D01*
X125935000Y-104698061D01*
X125895226Y-104498102D01*
X125853788Y-104398061D01*
X143465000Y-104398061D01*
X143465000Y-104601939D01*
X143504774Y-104801898D01*
X143582795Y-104990256D01*
X143696063Y-105159774D01*
X143840226Y-105303937D01*
X144009744Y-105417205D01*
X144198102Y-105495226D01*
X144398061Y-105535000D01*
X144601939Y-105535000D01*
X144801898Y-105495226D01*
X144990256Y-105417205D01*
X145159774Y-105303937D01*
X145303937Y-105159774D01*
X145417205Y-104990256D01*
X145495226Y-104801898D01*
X145535000Y-104601939D01*
X145535000Y-104398061D01*
X145495226Y-104198102D01*
X145417205Y-104009744D01*
X145303937Y-103840226D01*
X145159774Y-103696063D01*
X144990256Y-103582795D01*
X144801898Y-103504774D01*
X144601939Y-103465000D01*
X144398061Y-103465000D01*
X144198102Y-103504774D01*
X144009744Y-103582795D01*
X143840226Y-103696063D01*
X143696063Y-103840226D01*
X143582795Y-104009744D01*
X143504774Y-104198102D01*
X143465000Y-104398061D01*
X125853788Y-104398061D01*
X125817205Y-104309744D01*
X125703937Y-104140226D01*
X125559774Y-103996063D01*
X125390256Y-103882795D01*
X125201898Y-103804774D01*
X125001939Y-103765000D01*
X124798061Y-103765000D01*
X124598102Y-103804774D01*
X124409744Y-103882795D01*
X124240226Y-103996063D01*
X124096063Y-104140226D01*
X123982795Y-104309744D01*
X123904774Y-104498102D01*
X123865000Y-104698061D01*
X118135000Y-104698061D01*
X118095226Y-104498102D01*
X118017205Y-104309744D01*
X117903937Y-104140226D01*
X117759774Y-103996063D01*
X117590256Y-103882795D01*
X117401898Y-103804774D01*
X117201939Y-103765000D01*
X116998061Y-103765000D01*
X116798102Y-103804774D01*
X116609744Y-103882795D01*
X116440226Y-103996063D01*
X116296063Y-104140226D01*
X116182795Y-104309744D01*
X116104774Y-104498102D01*
X116065000Y-104698061D01*
X112036645Y-104698061D01*
X111975334Y-104636750D01*
X111519192Y-104331965D01*
X111012354Y-104122026D01*
X110474299Y-104015000D01*
X109925701Y-104015000D01*
X109387646Y-104122026D01*
X108880808Y-104331965D01*
X108424666Y-104636750D01*
X108036750Y-105024666D01*
X107731965Y-105480808D01*
X107522026Y-105987646D01*
X107415000Y-106525701D01*
X105727000Y-106525701D01*
X105727000Y-102477501D01*
X130999500Y-102576999D01*
X131024286Y-102574656D01*
X131048138Y-102567523D01*
X131070141Y-102555874D01*
X131089448Y-102540155D01*
X131105318Y-102520973D01*
X131117140Y-102499062D01*
X131124461Y-102475267D01*
X131127000Y-102450000D01*
X131127000Y-101198061D01*
X148065000Y-101198061D01*
X148065000Y-101401939D01*
X148104774Y-101601898D01*
X148182795Y-101790256D01*
X148296063Y-101959774D01*
X148440226Y-102103937D01*
X148609744Y-102217205D01*
X148798102Y-102295226D01*
X148998061Y-102335000D01*
X149201939Y-102335000D01*
X149401898Y-102295226D01*
X149590256Y-102217205D01*
X149759774Y-102103937D01*
X149903937Y-101959774D01*
X150017205Y-101790256D01*
X150095226Y-101601898D01*
X150095989Y-101598061D01*
X150265000Y-101598061D01*
X150265000Y-101801939D01*
X150304774Y-102001898D01*
X150382795Y-102190256D01*
X150496063Y-102359774D01*
X150640226Y-102503937D01*
X150809744Y-102617205D01*
X150998102Y-102695226D01*
X151198061Y-102735000D01*
X151401939Y-102735000D01*
X151601898Y-102695226D01*
X151790256Y-102617205D01*
X151959774Y-102503937D01*
X152103937Y-102359774D01*
X152150000Y-102290836D01*
X152196063Y-102359774D01*
X152340226Y-102503937D01*
X152509744Y-102617205D01*
X152698102Y-102695226D01*
X152898061Y-102735000D01*
X153101939Y-102735000D01*
X153301898Y-102695226D01*
X153490256Y-102617205D01*
X153659774Y-102503937D01*
X153803937Y-102359774D01*
X153917205Y-102190256D01*
X153995226Y-102001898D01*
X154035000Y-101801939D01*
X154035000Y-101598061D01*
X153995226Y-101398102D01*
X153917205Y-101209744D01*
X153803937Y-101040226D01*
X153659774Y-100896063D01*
X153490256Y-100782795D01*
X153301898Y-100704774D01*
X153101939Y-100665000D01*
X152898061Y-100665000D01*
X152698102Y-100704774D01*
X152509744Y-100782795D01*
X152340226Y-100896063D01*
X152196063Y-101040226D01*
X152150000Y-101109164D01*
X152103937Y-101040226D01*
X151959774Y-100896063D01*
X151790256Y-100782795D01*
X151601898Y-100704774D01*
X151401939Y-100665000D01*
X151198061Y-100665000D01*
X150998102Y-100704774D01*
X150809744Y-100782795D01*
X150640226Y-100896063D01*
X150496063Y-101040226D01*
X150382795Y-101209744D01*
X150304774Y-101398102D01*
X150265000Y-101598061D01*
X150095989Y-101598061D01*
X150135000Y-101401939D01*
X150135000Y-101198061D01*
X150095226Y-100998102D01*
X150017205Y-100809744D01*
X149903937Y-100640226D01*
X149759774Y-100496063D01*
X149613104Y-100398061D01*
X157065000Y-100398061D01*
X157065000Y-100601939D01*
X157104774Y-100801898D01*
X157182795Y-100990256D01*
X157296063Y-101159774D01*
X157440226Y-101303937D01*
X157609744Y-101417205D01*
X157798102Y-101495226D01*
X157998061Y-101535000D01*
X158201939Y-101535000D01*
X158401898Y-101495226D01*
X158590256Y-101417205D01*
X158759774Y-101303937D01*
X158903937Y-101159774D01*
X159017205Y-100990256D01*
X159095226Y-100801898D01*
X159135000Y-100601939D01*
X159135000Y-100398061D01*
X159095226Y-100198102D01*
X159017205Y-100009744D01*
X158903937Y-99840226D01*
X158759774Y-99696063D01*
X158590256Y-99582795D01*
X158401898Y-99504774D01*
X158201939Y-99465000D01*
X157998061Y-99465000D01*
X157798102Y-99504774D01*
X157609744Y-99582795D01*
X157440226Y-99696063D01*
X157296063Y-99840226D01*
X157182795Y-100009744D01*
X157104774Y-100198102D01*
X157065000Y-100398061D01*
X149613104Y-100398061D01*
X149590256Y-100382795D01*
X149401898Y-100304774D01*
X149201939Y-100265000D01*
X148998061Y-100265000D01*
X148798102Y-100304774D01*
X148609744Y-100382795D01*
X148440226Y-100496063D01*
X148296063Y-100640226D01*
X148182795Y-100809744D01*
X148104774Y-100998102D01*
X148065000Y-101198061D01*
X131127000Y-101198061D01*
X131127000Y-98998061D01*
X142565000Y-98998061D01*
X142565000Y-99201939D01*
X142604774Y-99401898D01*
X142682795Y-99590256D01*
X142796063Y-99759774D01*
X142940226Y-99903937D01*
X143109744Y-100017205D01*
X143298102Y-100095226D01*
X143498061Y-100135000D01*
X143701939Y-100135000D01*
X143901898Y-100095226D01*
X144090256Y-100017205D01*
X144259774Y-99903937D01*
X144403937Y-99759774D01*
X144517205Y-99590256D01*
X144595226Y-99401898D01*
X144635000Y-99201939D01*
X144635000Y-99098061D01*
X152365000Y-99098061D01*
X152365000Y-99301939D01*
X152404774Y-99501898D01*
X152482795Y-99690256D01*
X152596063Y-99859774D01*
X152740226Y-100003937D01*
X152909744Y-100117205D01*
X153098102Y-100195226D01*
X153298061Y-100235000D01*
X153501939Y-100235000D01*
X153701898Y-100195226D01*
X153890256Y-100117205D01*
X154059774Y-100003937D01*
X154203937Y-99859774D01*
X154317205Y-99690256D01*
X154395226Y-99501898D01*
X154435000Y-99301939D01*
X154435000Y-99098061D01*
X154415109Y-98998061D01*
X159965000Y-98998061D01*
X159965000Y-99201939D01*
X160004774Y-99401898D01*
X160082795Y-99590256D01*
X160196063Y-99759774D01*
X160340226Y-99903937D01*
X160509744Y-100017205D01*
X160698102Y-100095226D01*
X160898061Y-100135000D01*
X161101939Y-100135000D01*
X161301898Y-100095226D01*
X161490256Y-100017205D01*
X161659774Y-99903937D01*
X161803937Y-99759774D01*
X161911989Y-99598061D01*
X163565000Y-99598061D01*
X163565000Y-99801939D01*
X163604774Y-100001898D01*
X163682795Y-100190256D01*
X163796063Y-100359774D01*
X163940226Y-100503937D01*
X164109744Y-100617205D01*
X164298102Y-100695226D01*
X164498061Y-100735000D01*
X164701939Y-100735000D01*
X164901898Y-100695226D01*
X165090256Y-100617205D01*
X165259774Y-100503937D01*
X165403937Y-100359774D01*
X165517205Y-100190256D01*
X165595226Y-100001898D01*
X165635000Y-99801939D01*
X165635000Y-99598061D01*
X165595226Y-99398102D01*
X165517205Y-99209744D01*
X165403937Y-99040226D01*
X165259774Y-98896063D01*
X165090256Y-98782795D01*
X164901898Y-98704774D01*
X164701939Y-98665000D01*
X164498061Y-98665000D01*
X164298102Y-98704774D01*
X164109744Y-98782795D01*
X163940226Y-98896063D01*
X163796063Y-99040226D01*
X163682795Y-99209744D01*
X163604774Y-99398102D01*
X163565000Y-99598061D01*
X161911989Y-99598061D01*
X161917205Y-99590256D01*
X161995226Y-99401898D01*
X162035000Y-99201939D01*
X162035000Y-98998061D01*
X161995226Y-98798102D01*
X161917205Y-98609744D01*
X161803937Y-98440226D01*
X161659774Y-98296063D01*
X161490256Y-98182795D01*
X161301898Y-98104774D01*
X161101939Y-98065000D01*
X160898061Y-98065000D01*
X160698102Y-98104774D01*
X160509744Y-98182795D01*
X160340226Y-98296063D01*
X160196063Y-98440226D01*
X160082795Y-98609744D01*
X160004774Y-98798102D01*
X159965000Y-98998061D01*
X154415109Y-98998061D01*
X154395226Y-98898102D01*
X154317205Y-98709744D01*
X154203937Y-98540226D01*
X154059774Y-98396063D01*
X153890256Y-98282795D01*
X153701898Y-98204774D01*
X153501939Y-98165000D01*
X153298061Y-98165000D01*
X153098102Y-98204774D01*
X152909744Y-98282795D01*
X152740226Y-98396063D01*
X152596063Y-98540226D01*
X152482795Y-98709744D01*
X152404774Y-98898102D01*
X152365000Y-99098061D01*
X144635000Y-99098061D01*
X144635000Y-98998061D01*
X144595226Y-98798102D01*
X144517205Y-98609744D01*
X144403937Y-98440226D01*
X144259774Y-98296063D01*
X144090256Y-98182795D01*
X143901898Y-98104774D01*
X143701939Y-98065000D01*
X143498061Y-98065000D01*
X143298102Y-98104774D01*
X143109744Y-98182795D01*
X142940226Y-98296063D01*
X142796063Y-98440226D01*
X142682795Y-98609744D01*
X142604774Y-98798102D01*
X142565000Y-98998061D01*
X131127000Y-98998061D01*
X131127000Y-95298061D01*
X143865006Y-95298061D01*
X143865006Y-95501939D01*
X143904780Y-95701898D01*
X143982801Y-95890256D01*
X144096069Y-96059774D01*
X144240232Y-96203937D01*
X144409750Y-96317205D01*
X144598108Y-96395226D01*
X144798067Y-96435000D01*
X145001945Y-96435000D01*
X145201904Y-96395226D01*
X145246702Y-96376670D01*
X145157785Y-96509744D01*
X145079764Y-96698102D01*
X145039990Y-96898061D01*
X145039990Y-97101939D01*
X145079764Y-97301898D01*
X145157785Y-97490256D01*
X145271053Y-97659774D01*
X145415216Y-97803937D01*
X145584734Y-97917205D01*
X145773092Y-97995226D01*
X145973051Y-98035000D01*
X146176929Y-98035000D01*
X146376888Y-97995226D01*
X146565246Y-97917205D01*
X146734764Y-97803937D01*
X146878927Y-97659774D01*
X146992195Y-97490256D01*
X147070216Y-97301898D01*
X147109990Y-97101939D01*
X147109990Y-96898061D01*
X147090099Y-96798061D01*
X163165000Y-96798061D01*
X163165000Y-97001939D01*
X163204774Y-97201898D01*
X163282795Y-97390256D01*
X163396063Y-97559774D01*
X163540226Y-97703937D01*
X163709744Y-97817205D01*
X163898102Y-97895226D01*
X164098061Y-97935000D01*
X164301939Y-97935000D01*
X164501898Y-97895226D01*
X164690256Y-97817205D01*
X164859774Y-97703937D01*
X165003937Y-97559774D01*
X165117205Y-97390256D01*
X165195226Y-97201898D01*
X165235000Y-97001939D01*
X165235000Y-96974212D01*
X166169500Y-96974212D01*
X166169500Y-97197788D01*
X166213117Y-97417067D01*
X166298676Y-97623624D01*
X166422888Y-97809520D01*
X166580980Y-97967612D01*
X166766876Y-98091824D01*
X166973433Y-98177383D01*
X167192712Y-98221000D01*
X167416288Y-98221000D01*
X167635567Y-98177383D01*
X167842124Y-98091824D01*
X167905165Y-98049701D01*
X167912040Y-98119507D01*
X167991236Y-98380581D01*
X168119843Y-98621188D01*
X168292919Y-98832081D01*
X168503812Y-99005157D01*
X168744419Y-99133764D01*
X169005493Y-99212960D01*
X169208963Y-99233000D01*
X169845037Y-99233000D01*
X170048507Y-99212960D01*
X170309581Y-99133764D01*
X170550188Y-99005157D01*
X170761081Y-98832081D01*
X170934157Y-98621188D01*
X171062764Y-98380581D01*
X171141960Y-98119507D01*
X171168701Y-97848000D01*
X171141960Y-97576493D01*
X171062764Y-97315419D01*
X170934157Y-97074812D01*
X170761081Y-96863919D01*
X170550188Y-96690843D01*
X170309581Y-96562236D01*
X170048507Y-96483040D01*
X169845037Y-96463000D01*
X169208963Y-96463000D01*
X169005493Y-96483040D01*
X168744419Y-96562236D01*
X168503812Y-96690843D01*
X168400070Y-96775982D01*
X168395883Y-96754933D01*
X168310324Y-96548376D01*
X168186112Y-96362480D01*
X168028020Y-96204388D01*
X167842124Y-96080176D01*
X167635567Y-95994617D01*
X167416288Y-95951000D01*
X167192712Y-95951000D01*
X166973433Y-95994617D01*
X166766876Y-96080176D01*
X166580980Y-96204388D01*
X166422888Y-96362480D01*
X166298676Y-96548376D01*
X166213117Y-96754933D01*
X166169500Y-96974212D01*
X165235000Y-96974212D01*
X165235000Y-96798061D01*
X165195226Y-96598102D01*
X165117205Y-96409744D01*
X165003937Y-96240226D01*
X164859774Y-96096063D01*
X164690256Y-95982795D01*
X164501898Y-95904774D01*
X164301939Y-95865000D01*
X164098061Y-95865000D01*
X163898102Y-95904774D01*
X163709744Y-95982795D01*
X163540226Y-96096063D01*
X163396063Y-96240226D01*
X163282795Y-96409744D01*
X163204774Y-96598102D01*
X163165000Y-96798061D01*
X147090099Y-96798061D01*
X147070216Y-96698102D01*
X147040870Y-96627256D01*
X147201898Y-96595226D01*
X147390256Y-96517205D01*
X147559774Y-96403937D01*
X147703937Y-96259774D01*
X147817205Y-96090256D01*
X147895226Y-95901898D01*
X147935000Y-95701939D01*
X147935000Y-95498061D01*
X147895226Y-95298102D01*
X147863983Y-95222675D01*
X148001898Y-95195242D01*
X148190256Y-95117221D01*
X148359774Y-95003953D01*
X148503937Y-94859790D01*
X148617205Y-94690272D01*
X148695226Y-94501914D01*
X148735000Y-94301955D01*
X148735000Y-94098077D01*
X148695226Y-93898118D01*
X148617205Y-93709760D01*
X148503937Y-93540242D01*
X148359774Y-93396079D01*
X148190256Y-93282811D01*
X148001898Y-93204790D01*
X147801939Y-93165016D01*
X147598061Y-93165016D01*
X147398102Y-93204790D01*
X147209744Y-93282811D01*
X147040226Y-93396079D01*
X146896063Y-93540242D01*
X146782795Y-93709760D01*
X146704774Y-93898118D01*
X146665000Y-94098077D01*
X146665000Y-94301955D01*
X146704774Y-94501914D01*
X146736017Y-94577341D01*
X146598102Y-94604774D01*
X146409744Y-94682795D01*
X146240226Y-94796063D01*
X146096063Y-94940226D01*
X145982795Y-95109744D01*
X145925204Y-95248781D01*
X145895232Y-95098102D01*
X145817211Y-94909744D01*
X145703943Y-94740226D01*
X145559780Y-94596063D01*
X145390262Y-94482795D01*
X145201904Y-94404774D01*
X145001945Y-94365000D01*
X144798067Y-94365000D01*
X144598108Y-94404774D01*
X144409750Y-94482795D01*
X144240232Y-94596063D01*
X144096069Y-94740226D01*
X143982801Y-94909744D01*
X143904780Y-95098102D01*
X143865006Y-95298061D01*
X131127000Y-95298061D01*
X131127000Y-92324353D01*
X131298102Y-92395226D01*
X131498061Y-92435000D01*
X131701939Y-92435000D01*
X131901898Y-92395226D01*
X132090256Y-92317205D01*
X132259774Y-92203937D01*
X132403937Y-92059774D01*
X132511989Y-91898061D01*
X145165000Y-91898061D01*
X145165000Y-92101939D01*
X145204774Y-92301898D01*
X145282795Y-92490256D01*
X145396063Y-92659774D01*
X145540226Y-92803937D01*
X145709744Y-92917205D01*
X145898102Y-92995226D01*
X146098061Y-93035000D01*
X146301939Y-93035000D01*
X146501898Y-92995226D01*
X146690256Y-92917205D01*
X146859774Y-92803937D01*
X147003937Y-92659774D01*
X147117205Y-92490256D01*
X147195226Y-92301898D01*
X147235000Y-92101939D01*
X147235000Y-92098061D01*
X151765000Y-92098061D01*
X151765000Y-92301939D01*
X151804774Y-92501898D01*
X151882795Y-92690256D01*
X151996063Y-92859774D01*
X152140226Y-93003937D01*
X152309744Y-93117205D01*
X152498102Y-93195226D01*
X152698061Y-93235000D01*
X152901939Y-93235000D01*
X153087645Y-93198061D01*
X157265000Y-93198061D01*
X157265000Y-93401939D01*
X157304774Y-93601898D01*
X157382795Y-93790256D01*
X157496063Y-93959774D01*
X157640226Y-94103937D01*
X157809744Y-94217205D01*
X157998102Y-94295226D01*
X158198061Y-94335000D01*
X158401939Y-94335000D01*
X158601898Y-94295226D01*
X158790256Y-94217205D01*
X158959774Y-94103937D01*
X159103937Y-93959774D01*
X159145172Y-93898061D01*
X163065000Y-93898061D01*
X163065000Y-94101939D01*
X163104774Y-94301898D01*
X163182795Y-94490256D01*
X163296063Y-94659774D01*
X163440226Y-94803937D01*
X163609744Y-94917205D01*
X163798102Y-94995226D01*
X163998061Y-95035000D01*
X164201939Y-95035000D01*
X164401898Y-94995226D01*
X164590256Y-94917205D01*
X164759774Y-94803937D01*
X164903937Y-94659774D01*
X164988570Y-94533112D01*
X164998061Y-94535000D01*
X165201939Y-94535000D01*
X165401898Y-94495226D01*
X165590256Y-94417205D01*
X165759774Y-94303937D01*
X165903937Y-94159774D01*
X166017205Y-93990256D01*
X166095226Y-93801898D01*
X166135000Y-93601939D01*
X166135000Y-93398061D01*
X166095226Y-93198102D01*
X166017205Y-93009744D01*
X165903937Y-92840226D01*
X165759774Y-92696063D01*
X165590256Y-92582795D01*
X165401898Y-92504774D01*
X165201939Y-92465000D01*
X164998061Y-92465000D01*
X164798102Y-92504774D01*
X164609744Y-92582795D01*
X164440226Y-92696063D01*
X164296063Y-92840226D01*
X164211430Y-92966888D01*
X164201939Y-92965000D01*
X163998061Y-92965000D01*
X163798102Y-93004774D01*
X163609744Y-93082795D01*
X163440226Y-93196063D01*
X163296063Y-93340226D01*
X163182795Y-93509744D01*
X163104774Y-93698102D01*
X163065000Y-93898061D01*
X159145172Y-93898061D01*
X159217205Y-93790256D01*
X159295226Y-93601898D01*
X159335000Y-93401939D01*
X159335000Y-93198061D01*
X159295226Y-92998102D01*
X159217205Y-92809744D01*
X159103937Y-92640226D01*
X158959774Y-92496063D01*
X158819316Y-92402212D01*
X166169500Y-92402212D01*
X166169500Y-92625788D01*
X166213117Y-92845067D01*
X166298676Y-93051624D01*
X166422888Y-93237520D01*
X166580980Y-93395612D01*
X166766876Y-93519824D01*
X166973433Y-93605383D01*
X167192712Y-93649000D01*
X167416288Y-93649000D01*
X167635567Y-93605383D01*
X167842124Y-93519824D01*
X168028020Y-93395612D01*
X168186112Y-93237520D01*
X168310324Y-93051624D01*
X168395883Y-92845067D01*
X168400070Y-92824018D01*
X168503812Y-92909157D01*
X168744419Y-93037764D01*
X169005493Y-93116960D01*
X169208963Y-93137000D01*
X169845037Y-93137000D01*
X170048507Y-93116960D01*
X170309581Y-93037764D01*
X170550188Y-92909157D01*
X170761081Y-92736081D01*
X170934157Y-92525188D01*
X171062764Y-92284581D01*
X171141960Y-92023507D01*
X171168701Y-91752000D01*
X171141960Y-91480493D01*
X171062764Y-91219419D01*
X170934157Y-90978812D01*
X170761081Y-90767919D01*
X170550188Y-90594843D01*
X170309581Y-90466236D01*
X170048507Y-90387040D01*
X169845037Y-90367000D01*
X169208963Y-90367000D01*
X169005493Y-90387040D01*
X168744419Y-90466236D01*
X168503812Y-90594843D01*
X168292919Y-90767919D01*
X168119843Y-90978812D01*
X167991236Y-91219419D01*
X167912040Y-91480493D01*
X167905165Y-91550299D01*
X167842124Y-91508176D01*
X167635567Y-91422617D01*
X167416288Y-91379000D01*
X167192712Y-91379000D01*
X166973433Y-91422617D01*
X166766876Y-91508176D01*
X166580980Y-91632388D01*
X166422888Y-91790480D01*
X166298676Y-91976376D01*
X166213117Y-92182933D01*
X166169500Y-92402212D01*
X158819316Y-92402212D01*
X158790256Y-92382795D01*
X158601898Y-92304774D01*
X158401939Y-92265000D01*
X158198061Y-92265000D01*
X157998102Y-92304774D01*
X157809744Y-92382795D01*
X157640226Y-92496063D01*
X157496063Y-92640226D01*
X157382795Y-92809744D01*
X157304774Y-92998102D01*
X157265000Y-93198061D01*
X153087645Y-93198061D01*
X153101898Y-93195226D01*
X153290256Y-93117205D01*
X153459774Y-93003937D01*
X153603937Y-92859774D01*
X153717205Y-92690256D01*
X153795226Y-92501898D01*
X153835000Y-92301939D01*
X153835000Y-92098061D01*
X153795226Y-91898102D01*
X153717205Y-91709744D01*
X153603937Y-91540226D01*
X153459774Y-91396063D01*
X153290256Y-91282795D01*
X153101898Y-91204774D01*
X152901939Y-91165000D01*
X152698061Y-91165000D01*
X152498102Y-91204774D01*
X152309744Y-91282795D01*
X152140226Y-91396063D01*
X151996063Y-91540226D01*
X151882795Y-91709744D01*
X151804774Y-91898102D01*
X151765000Y-92098061D01*
X147235000Y-92098061D01*
X147235000Y-91898061D01*
X147195226Y-91698102D01*
X147117205Y-91509744D01*
X147003937Y-91340226D01*
X146859774Y-91196063D01*
X146690256Y-91082795D01*
X146501898Y-91004774D01*
X146301939Y-90965000D01*
X146098061Y-90965000D01*
X145898102Y-91004774D01*
X145709744Y-91082795D01*
X145540226Y-91196063D01*
X145396063Y-91340226D01*
X145282795Y-91509744D01*
X145204774Y-91698102D01*
X145165000Y-91898061D01*
X132511989Y-91898061D01*
X132517205Y-91890256D01*
X132595226Y-91701898D01*
X132635000Y-91501939D01*
X132635000Y-91298061D01*
X132595226Y-91098102D01*
X132517205Y-90909744D01*
X132403937Y-90740226D01*
X132259774Y-90596063D01*
X132113104Y-90498061D01*
X159665000Y-90498061D01*
X159665000Y-90701939D01*
X159704774Y-90901898D01*
X159782795Y-91090256D01*
X159896063Y-91259774D01*
X160040226Y-91403937D01*
X160209744Y-91517205D01*
X160398102Y-91595226D01*
X160598061Y-91635000D01*
X160801939Y-91635000D01*
X161001898Y-91595226D01*
X161190256Y-91517205D01*
X161359774Y-91403937D01*
X161503937Y-91259774D01*
X161617205Y-91090256D01*
X161695226Y-90901898D01*
X161735000Y-90701939D01*
X161735000Y-90498061D01*
X161695226Y-90298102D01*
X161617205Y-90109744D01*
X161503937Y-89940226D01*
X161359774Y-89796063D01*
X161190256Y-89682795D01*
X161001898Y-89604774D01*
X160801939Y-89565000D01*
X160598061Y-89565000D01*
X160398102Y-89604774D01*
X160209744Y-89682795D01*
X160040226Y-89796063D01*
X159896063Y-89940226D01*
X159782795Y-90109744D01*
X159704774Y-90298102D01*
X159665000Y-90498061D01*
X132113104Y-90498061D01*
X132090256Y-90482795D01*
X131901898Y-90404774D01*
X131701939Y-90365000D01*
X131498061Y-90365000D01*
X131298102Y-90404774D01*
X131127000Y-90475647D01*
X131127000Y-89924353D01*
X131298102Y-89995226D01*
X131498061Y-90035000D01*
X131701939Y-90035000D01*
X131901898Y-89995226D01*
X132090256Y-89917205D01*
X132259774Y-89803937D01*
X132403937Y-89659774D01*
X132517205Y-89490256D01*
X132595226Y-89301898D01*
X132635000Y-89101939D01*
X132635000Y-88898061D01*
X132595226Y-88698102D01*
X132517205Y-88509744D01*
X132403937Y-88340226D01*
X132259774Y-88196063D01*
X132090256Y-88082795D01*
X131901898Y-88004774D01*
X131701939Y-87965000D01*
X131498061Y-87965000D01*
X131298102Y-88004774D01*
X131172481Y-88056808D01*
X131195226Y-88001898D01*
X131235000Y-87801939D01*
X131235000Y-87598061D01*
X131195226Y-87398102D01*
X131127000Y-87233391D01*
X131127000Y-86898061D01*
X137365000Y-86898061D01*
X137365000Y-87101939D01*
X137404774Y-87301898D01*
X137482795Y-87490256D01*
X137596063Y-87659774D01*
X137740226Y-87803937D01*
X137909744Y-87917205D01*
X138098102Y-87995226D01*
X138298061Y-88035000D01*
X138501939Y-88035000D01*
X138687645Y-87998061D01*
X154965000Y-87998061D01*
X154965000Y-88201939D01*
X155004774Y-88401898D01*
X155082795Y-88590256D01*
X155196063Y-88759774D01*
X155340226Y-88903937D01*
X155509744Y-89017205D01*
X155698102Y-89095226D01*
X155898061Y-89135000D01*
X156101939Y-89135000D01*
X156301898Y-89095226D01*
X156490256Y-89017205D01*
X156659774Y-88903937D01*
X156803937Y-88759774D01*
X156917205Y-88590256D01*
X156995226Y-88401898D01*
X157035000Y-88201939D01*
X157035000Y-87998061D01*
X156995226Y-87798102D01*
X156917205Y-87609744D01*
X156803937Y-87440226D01*
X156659774Y-87296063D01*
X156490256Y-87182795D01*
X156301898Y-87104774D01*
X156101939Y-87065000D01*
X155898061Y-87065000D01*
X155698102Y-87104774D01*
X155509744Y-87182795D01*
X155340226Y-87296063D01*
X155196063Y-87440226D01*
X155082795Y-87609744D01*
X155004774Y-87798102D01*
X154965000Y-87998061D01*
X138687645Y-87998061D01*
X138701898Y-87995226D01*
X138890256Y-87917205D01*
X139059774Y-87803937D01*
X139203937Y-87659774D01*
X139317205Y-87490256D01*
X139395226Y-87301898D01*
X139435000Y-87101939D01*
X139435000Y-86898061D01*
X139395226Y-86698102D01*
X139395210Y-86698061D01*
X162265000Y-86698061D01*
X162265000Y-86901939D01*
X162304774Y-87101898D01*
X162382795Y-87290256D01*
X162496063Y-87459774D01*
X162640226Y-87603937D01*
X162809744Y-87717205D01*
X162998102Y-87795226D01*
X163198061Y-87835000D01*
X163401939Y-87835000D01*
X163601898Y-87795226D01*
X163790256Y-87717205D01*
X163959774Y-87603937D01*
X164103937Y-87459774D01*
X164217205Y-87290256D01*
X164295226Y-87101898D01*
X164335000Y-86901939D01*
X164335000Y-86698061D01*
X164295226Y-86498102D01*
X164217205Y-86309744D01*
X164103937Y-86140226D01*
X163959774Y-85996063D01*
X163790256Y-85882795D01*
X163601898Y-85804774D01*
X163401939Y-85765000D01*
X163198061Y-85765000D01*
X162998102Y-85804774D01*
X162809744Y-85882795D01*
X162640226Y-85996063D01*
X162496063Y-86140226D01*
X162382795Y-86309744D01*
X162304774Y-86498102D01*
X162265000Y-86698061D01*
X139395210Y-86698061D01*
X139317205Y-86509744D01*
X139203937Y-86340226D01*
X139059774Y-86196063D01*
X138890256Y-86082795D01*
X138701898Y-86004774D01*
X138501939Y-85965000D01*
X138298061Y-85965000D01*
X138098102Y-86004774D01*
X137909744Y-86082795D01*
X137740226Y-86196063D01*
X137596063Y-86340226D01*
X137482795Y-86509744D01*
X137404774Y-86698102D01*
X137365000Y-86898061D01*
X131127000Y-86898061D01*
X131127000Y-86227000D01*
X136700000Y-86227000D01*
X136724776Y-86224560D01*
X136748601Y-86217333D01*
X136770557Y-86205597D01*
X136789803Y-86189803D01*
X136805597Y-86170557D01*
X136817333Y-86148601D01*
X136824560Y-86124776D01*
X136827000Y-86100000D01*
X136827000Y-85498061D01*
X156365000Y-85498061D01*
X156365000Y-85701939D01*
X156404774Y-85901898D01*
X156482795Y-86090256D01*
X156596063Y-86259774D01*
X156740226Y-86403937D01*
X156909744Y-86517205D01*
X157098102Y-86595226D01*
X157298061Y-86635000D01*
X157501939Y-86635000D01*
X157701898Y-86595226D01*
X157890256Y-86517205D01*
X158059774Y-86403937D01*
X158203937Y-86259774D01*
X158317205Y-86090256D01*
X158395226Y-85901898D01*
X158435000Y-85701939D01*
X158435000Y-85498061D01*
X159190010Y-85498061D01*
X159190010Y-85701939D01*
X159229784Y-85901898D01*
X159307805Y-86090256D01*
X159421073Y-86259774D01*
X159565236Y-86403937D01*
X159734754Y-86517205D01*
X159923112Y-86595226D01*
X160123071Y-86635000D01*
X160326949Y-86635000D01*
X160526908Y-86595226D01*
X160715266Y-86517205D01*
X160884784Y-86403937D01*
X161028947Y-86259774D01*
X161142215Y-86090256D01*
X161220236Y-85901898D01*
X161260010Y-85701939D01*
X161260010Y-85498061D01*
X161220236Y-85298102D01*
X161142215Y-85109744D01*
X161082523Y-85020408D01*
X161090256Y-85017205D01*
X161259774Y-84903937D01*
X161403937Y-84759774D01*
X161517205Y-84590256D01*
X161595226Y-84401898D01*
X161635000Y-84201939D01*
X161635000Y-83998061D01*
X161595226Y-83798102D01*
X161517205Y-83609744D01*
X161403937Y-83440226D01*
X161259774Y-83296063D01*
X161090256Y-83182795D01*
X160901898Y-83104774D01*
X160701939Y-83065000D01*
X160498061Y-83065000D01*
X160298102Y-83104774D01*
X160109744Y-83182795D01*
X159940226Y-83296063D01*
X159796063Y-83440226D01*
X159682795Y-83609744D01*
X159604774Y-83798102D01*
X159565000Y-83998061D01*
X159565000Y-84201939D01*
X159604774Y-84401898D01*
X159682795Y-84590256D01*
X159742487Y-84679592D01*
X159734754Y-84682795D01*
X159565236Y-84796063D01*
X159421073Y-84940226D01*
X159307805Y-85109744D01*
X159229784Y-85298102D01*
X159190010Y-85498061D01*
X158435000Y-85498061D01*
X158395226Y-85298102D01*
X158317205Y-85109744D01*
X158203937Y-84940226D01*
X158059774Y-84796063D01*
X157890256Y-84682795D01*
X157701898Y-84604774D01*
X157501939Y-84565000D01*
X157298061Y-84565000D01*
X157098102Y-84604774D01*
X156909744Y-84682795D01*
X156740226Y-84796063D01*
X156596063Y-84940226D01*
X156482795Y-85109744D01*
X156404774Y-85298102D01*
X156365000Y-85498061D01*
X136827000Y-85498061D01*
X136827000Y-84442158D01*
X136835000Y-84401939D01*
X136835000Y-84198061D01*
X136827000Y-84157842D01*
X136827000Y-82398061D01*
X137465000Y-82398061D01*
X137465000Y-82601939D01*
X137504774Y-82801898D01*
X137582795Y-82990256D01*
X137696063Y-83159774D01*
X137840226Y-83303937D01*
X138009744Y-83417205D01*
X138198102Y-83495226D01*
X138398061Y-83535000D01*
X138601939Y-83535000D01*
X138801898Y-83495226D01*
X138990256Y-83417205D01*
X139159774Y-83303937D01*
X139303937Y-83159774D01*
X139417205Y-82990256D01*
X139495226Y-82801898D01*
X139535000Y-82601939D01*
X139535000Y-82398061D01*
X139495226Y-82198102D01*
X139417205Y-82009744D01*
X139303937Y-81840226D01*
X139159774Y-81696063D01*
X138990256Y-81582795D01*
X138801898Y-81504774D01*
X138601939Y-81465000D01*
X138398061Y-81465000D01*
X138198102Y-81504774D01*
X138009744Y-81582795D01*
X137840226Y-81696063D01*
X137696063Y-81840226D01*
X137582795Y-82009744D01*
X137504774Y-82198102D01*
X137465000Y-82398061D01*
X136827000Y-82398061D01*
X136827000Y-82142158D01*
X136835000Y-82101939D01*
X136835000Y-81898061D01*
X136827000Y-81857842D01*
X136827000Y-80098061D01*
X161365000Y-80098061D01*
X161365000Y-80301939D01*
X161404774Y-80501898D01*
X161482795Y-80690256D01*
X161596063Y-80859774D01*
X161740226Y-81003937D01*
X161909744Y-81117205D01*
X162098102Y-81195226D01*
X162298061Y-81235000D01*
X162501939Y-81235000D01*
X162701898Y-81195226D01*
X162890256Y-81117205D01*
X163059774Y-81003937D01*
X163151944Y-80911767D01*
X163309744Y-81017205D01*
X163498102Y-81095226D01*
X163698061Y-81135000D01*
X163730912Y-81135000D01*
X163704774Y-81198102D01*
X163665000Y-81398061D01*
X163665000Y-81601939D01*
X163704774Y-81801898D01*
X163782795Y-81990256D01*
X163896063Y-82159774D01*
X164040226Y-82303937D01*
X164209744Y-82417205D01*
X164398102Y-82495226D01*
X164598061Y-82535000D01*
X164801939Y-82535000D01*
X165001898Y-82495226D01*
X165190256Y-82417205D01*
X165359774Y-82303937D01*
X165503937Y-82159774D01*
X165617205Y-81990256D01*
X165695226Y-81801898D01*
X165735000Y-81601939D01*
X165735000Y-81398061D01*
X165695226Y-81198102D01*
X165617205Y-81009744D01*
X165562542Y-80927935D01*
X165598061Y-80935000D01*
X165801939Y-80935000D01*
X166001898Y-80895226D01*
X166190256Y-80817205D01*
X166359774Y-80703937D01*
X166503937Y-80559774D01*
X166617205Y-80390256D01*
X166695226Y-80201898D01*
X166735000Y-80001939D01*
X166735000Y-79798061D01*
X166695226Y-79598102D01*
X166617205Y-79409744D01*
X166503937Y-79240226D01*
X166359774Y-79096063D01*
X166190256Y-78982795D01*
X166001898Y-78904774D01*
X165801939Y-78865000D01*
X165598061Y-78865000D01*
X165398102Y-78904774D01*
X165209744Y-78982795D01*
X165040226Y-79096063D01*
X164896063Y-79240226D01*
X164782795Y-79409744D01*
X164706554Y-79593804D01*
X164603937Y-79440226D01*
X164459774Y-79296063D01*
X164290256Y-79182795D01*
X164101898Y-79104774D01*
X163901939Y-79065000D01*
X163698061Y-79065000D01*
X163498102Y-79104774D01*
X163309744Y-79182795D01*
X163140226Y-79296063D01*
X163048056Y-79388233D01*
X162890256Y-79282795D01*
X162701898Y-79204774D01*
X162501939Y-79165000D01*
X162298061Y-79165000D01*
X162098102Y-79204774D01*
X161909744Y-79282795D01*
X161740226Y-79396063D01*
X161596063Y-79540226D01*
X161482795Y-79709744D01*
X161404774Y-79898102D01*
X161365000Y-80098061D01*
X136827000Y-80098061D01*
X136827000Y-80035000D01*
X136901939Y-80035000D01*
X137101898Y-79995226D01*
X137290256Y-79917205D01*
X137459774Y-79803937D01*
X137603937Y-79659774D01*
X137717205Y-79490256D01*
X137795226Y-79301898D01*
X137835000Y-79101939D01*
X137835000Y-78898061D01*
X137815109Y-78798061D01*
X142669000Y-78798061D01*
X142669000Y-79001939D01*
X142708774Y-79201898D01*
X142786795Y-79390256D01*
X142900063Y-79559774D01*
X143044226Y-79703937D01*
X143213744Y-79817205D01*
X143402102Y-79895226D01*
X143602061Y-79935000D01*
X143805939Y-79935000D01*
X144005898Y-79895226D01*
X144194256Y-79817205D01*
X144363774Y-79703937D01*
X144507937Y-79559774D01*
X144621205Y-79390256D01*
X144699226Y-79201898D01*
X144739000Y-79001939D01*
X144739000Y-78798061D01*
X144719109Y-78698061D01*
X147765000Y-78698061D01*
X147765000Y-78901939D01*
X147804774Y-79101898D01*
X147882795Y-79290256D01*
X147996063Y-79459774D01*
X148140226Y-79603937D01*
X148309744Y-79717205D01*
X148498102Y-79795226D01*
X148698061Y-79835000D01*
X148901939Y-79835000D01*
X149101898Y-79795226D01*
X149290256Y-79717205D01*
X149459774Y-79603937D01*
X149603937Y-79459774D01*
X149717205Y-79290256D01*
X149795226Y-79101898D01*
X149835000Y-78901939D01*
X149835000Y-78698061D01*
X149795226Y-78498102D01*
X149717205Y-78309744D01*
X149603937Y-78140226D01*
X149459774Y-77996063D01*
X149290256Y-77882795D01*
X149101898Y-77804774D01*
X148901939Y-77765000D01*
X148698061Y-77765000D01*
X148498102Y-77804774D01*
X148309744Y-77882795D01*
X148140226Y-77996063D01*
X147996063Y-78140226D01*
X147882795Y-78309744D01*
X147804774Y-78498102D01*
X147765000Y-78698061D01*
X144719109Y-78698061D01*
X144699226Y-78598102D01*
X144621205Y-78409744D01*
X144507937Y-78240226D01*
X144363774Y-78096063D01*
X144194256Y-77982795D01*
X144005898Y-77904774D01*
X143805939Y-77865000D01*
X143602061Y-77865000D01*
X143402102Y-77904774D01*
X143213744Y-77982795D01*
X143044226Y-78096063D01*
X142900063Y-78240226D01*
X142786795Y-78409744D01*
X142708774Y-78598102D01*
X142669000Y-78798061D01*
X137815109Y-78798061D01*
X137795226Y-78698102D01*
X137717205Y-78509744D01*
X137603937Y-78340226D01*
X137459774Y-78196063D01*
X137290256Y-78082795D01*
X137101898Y-78004774D01*
X136901939Y-77965000D01*
X136827000Y-77965000D01*
X136827000Y-75098061D01*
X147265000Y-75098061D01*
X147265000Y-75301939D01*
X147304774Y-75501898D01*
X147382795Y-75690256D01*
X147496063Y-75859774D01*
X147640226Y-76003937D01*
X147809744Y-76117205D01*
X147998102Y-76195226D01*
X148198061Y-76235000D01*
X148401939Y-76235000D01*
X148601898Y-76195226D01*
X148790256Y-76117205D01*
X148959774Y-76003937D01*
X149065650Y-75898061D01*
X157265000Y-75898061D01*
X157265000Y-76101939D01*
X157304774Y-76301898D01*
X157382795Y-76490256D01*
X157496063Y-76659774D01*
X157640226Y-76803937D01*
X157809744Y-76917205D01*
X157998102Y-76995226D01*
X158198061Y-77035000D01*
X158401939Y-77035000D01*
X158601898Y-76995226D01*
X158790256Y-76917205D01*
X158959774Y-76803937D01*
X159103937Y-76659774D01*
X159217205Y-76490256D01*
X159295226Y-76301898D01*
X159335000Y-76101939D01*
X159335000Y-75898061D01*
X159295226Y-75698102D01*
X159217205Y-75509744D01*
X159103937Y-75340226D01*
X158959774Y-75196063D01*
X158790256Y-75082795D01*
X158601898Y-75004774D01*
X158401939Y-74965000D01*
X158198061Y-74965000D01*
X157998102Y-75004774D01*
X157809744Y-75082795D01*
X157640226Y-75196063D01*
X157496063Y-75340226D01*
X157382795Y-75509744D01*
X157304774Y-75698102D01*
X157265000Y-75898061D01*
X149065650Y-75898061D01*
X149103937Y-75859774D01*
X149217205Y-75690256D01*
X149295226Y-75501898D01*
X149335000Y-75301939D01*
X149335000Y-75098061D01*
X149295226Y-74898102D01*
X149217205Y-74709744D01*
X149103937Y-74540226D01*
X148959774Y-74396063D01*
X148790256Y-74282795D01*
X148601898Y-74204774D01*
X148401939Y-74165000D01*
X148198061Y-74165000D01*
X147998102Y-74204774D01*
X147809744Y-74282795D01*
X147640226Y-74396063D01*
X147496063Y-74540226D01*
X147382795Y-74709744D01*
X147304774Y-74898102D01*
X147265000Y-75098061D01*
X136827000Y-75098061D01*
X136827000Y-73698061D01*
X142865000Y-73698061D01*
X142865000Y-73901939D01*
X142904774Y-74101898D01*
X142982795Y-74290256D01*
X143096063Y-74459774D01*
X143240226Y-74603937D01*
X143409744Y-74717205D01*
X143598102Y-74795226D01*
X143798061Y-74835000D01*
X144001939Y-74835000D01*
X144201898Y-74795226D01*
X144390256Y-74717205D01*
X144559774Y-74603937D01*
X144703937Y-74459774D01*
X144817205Y-74290256D01*
X144895226Y-74101898D01*
X144935000Y-73901939D01*
X144935000Y-73698061D01*
X150965000Y-73698061D01*
X150965000Y-73901939D01*
X151004774Y-74101898D01*
X151082795Y-74290256D01*
X151196063Y-74459774D01*
X151340226Y-74603937D01*
X151509744Y-74717205D01*
X151698102Y-74795226D01*
X151898061Y-74835000D01*
X152101939Y-74835000D01*
X152301898Y-74795226D01*
X152490256Y-74717205D01*
X152659774Y-74603937D01*
X152803937Y-74459774D01*
X152917205Y-74290256D01*
X152995226Y-74101898D01*
X153035000Y-73901939D01*
X153035000Y-73698061D01*
X152995226Y-73498102D01*
X152917205Y-73309744D01*
X152803937Y-73140226D01*
X152659774Y-72996063D01*
X152490256Y-72882795D01*
X152301898Y-72804774D01*
X152101939Y-72765000D01*
X151898061Y-72765000D01*
X151698102Y-72804774D01*
X151509744Y-72882795D01*
X151340226Y-72996063D01*
X151196063Y-73140226D01*
X151082795Y-73309744D01*
X151004774Y-73498102D01*
X150965000Y-73698061D01*
X144935000Y-73698061D01*
X144895226Y-73498102D01*
X144817205Y-73309744D01*
X144703937Y-73140226D01*
X144559774Y-72996063D01*
X144390256Y-72882795D01*
X144201898Y-72804774D01*
X144001939Y-72765000D01*
X143798061Y-72765000D01*
X143598102Y-72804774D01*
X143409744Y-72882795D01*
X143240226Y-72996063D01*
X143096063Y-73140226D01*
X142982795Y-73309744D01*
X142904774Y-73498102D01*
X142865000Y-73698061D01*
X136827000Y-73698061D01*
X136827000Y-71898061D01*
X155965014Y-71898061D01*
X155965014Y-72101939D01*
X156004788Y-72301898D01*
X156082809Y-72490256D01*
X156196077Y-72659774D01*
X156340240Y-72803937D01*
X156509758Y-72917205D01*
X156698116Y-72995226D01*
X156898075Y-73035000D01*
X157101953Y-73035000D01*
X157301912Y-72995226D01*
X157490270Y-72917205D01*
X157659788Y-72803937D01*
X157803951Y-72659774D01*
X157917219Y-72490256D01*
X157995240Y-72301898D01*
X158035014Y-72101939D01*
X158035014Y-71898061D01*
X158015123Y-71798061D01*
X160565000Y-71798061D01*
X160565000Y-72001939D01*
X160604774Y-72201898D01*
X160682795Y-72390256D01*
X160796063Y-72559774D01*
X160940226Y-72703937D01*
X161109744Y-72817205D01*
X161298102Y-72895226D01*
X161498061Y-72935000D01*
X161701939Y-72935000D01*
X161901898Y-72895226D01*
X162090256Y-72817205D01*
X162259774Y-72703937D01*
X162403937Y-72559774D01*
X162517205Y-72390256D01*
X162595226Y-72201898D01*
X162635000Y-72001939D01*
X162635000Y-71798061D01*
X162595226Y-71598102D01*
X162517205Y-71409744D01*
X162403937Y-71240226D01*
X162259774Y-71096063D01*
X162090256Y-70982795D01*
X161901898Y-70904774D01*
X161701939Y-70865000D01*
X161498061Y-70865000D01*
X161298102Y-70904774D01*
X161109744Y-70982795D01*
X160940226Y-71096063D01*
X160796063Y-71240226D01*
X160682795Y-71409744D01*
X160604774Y-71598102D01*
X160565000Y-71798061D01*
X158015123Y-71798061D01*
X157995240Y-71698102D01*
X157917219Y-71509744D01*
X157803951Y-71340226D01*
X157659788Y-71196063D01*
X157490270Y-71082795D01*
X157301912Y-71004774D01*
X157101953Y-70965000D01*
X156898075Y-70965000D01*
X156698116Y-71004774D01*
X156509758Y-71082795D01*
X156340240Y-71196063D01*
X156196077Y-71340226D01*
X156082809Y-71509744D01*
X156004788Y-71698102D01*
X155965014Y-71898061D01*
X136827000Y-71898061D01*
X136827000Y-68727000D01*
X151974742Y-68727000D01*
X152109744Y-68817205D01*
%TA.AperFunction,Conductor*%
D16*
G36*
X152109744Y-68817205D02*
G01*
X152298102Y-68895226D01*
X152498061Y-68935000D01*
X152701939Y-68935000D01*
X152901898Y-68895226D01*
X153090256Y-68817205D01*
X153225258Y-68727000D01*
X174315000Y-68727000D01*
X174315001Y-93655199D01*
X174274122Y-111315000D01*
X105727000Y-111315000D01*
X105727000Y-106525701D01*
X107415000Y-106525701D01*
X107415000Y-107074299D01*
X107522026Y-107612354D01*
X107731965Y-108119192D01*
X108036750Y-108575334D01*
X108424666Y-108963250D01*
X108880808Y-109268035D01*
X109387646Y-109477974D01*
X109925701Y-109585000D01*
X110474299Y-109585000D01*
X111012354Y-109477974D01*
X111261124Y-109374930D01*
X115560001Y-109374930D01*
X115573530Y-109512290D01*
X115626994Y-109688538D01*
X115713815Y-109850970D01*
X115830657Y-109993343D01*
X115973029Y-110110185D01*
X116135461Y-110197006D01*
X116311709Y-110250470D01*
X116495001Y-110268523D01*
X116678292Y-110250470D01*
X116854540Y-110197006D01*
X117016972Y-110110185D01*
X117159345Y-109993343D01*
X117276187Y-109850971D01*
X117363008Y-109688539D01*
X117416472Y-109512291D01*
X117430001Y-109374931D01*
X117430001Y-109374930D01*
X120640001Y-109374930D01*
X120653530Y-109512290D01*
X120706994Y-109688538D01*
X120793815Y-109850970D01*
X120910657Y-109993343D01*
X121053029Y-110110185D01*
X121215461Y-110197006D01*
X121391709Y-110250470D01*
X121575001Y-110268523D01*
X121758292Y-110250470D01*
X121934540Y-110197006D01*
X122096972Y-110110185D01*
X122239345Y-109993343D01*
X122356187Y-109850971D01*
X122443008Y-109688539D01*
X122496472Y-109512291D01*
X122510001Y-109374931D01*
X122510001Y-109357931D01*
X123725000Y-109357931D01*
X123738529Y-109495291D01*
X123791993Y-109671539D01*
X123878814Y-109833971D01*
X123995656Y-109976344D01*
X124138028Y-110093186D01*
X124300460Y-110180007D01*
X124476708Y-110233471D01*
X124660000Y-110251524D01*
X124843291Y-110233471D01*
X125019539Y-110180007D01*
X125181971Y-110093186D01*
X125324344Y-109976344D01*
X125441186Y-109833972D01*
X125528007Y-109671540D01*
X125581471Y-109495292D01*
X125595000Y-109357932D01*
X125595000Y-109357931D01*
X128805000Y-109357931D01*
X128818529Y-109495291D01*
X128871993Y-109671539D01*
X128958814Y-109833971D01*
X129075656Y-109976344D01*
X129218028Y-110093186D01*
X129380460Y-110180007D01*
X129556708Y-110233471D01*
X129740000Y-110251524D01*
X129923291Y-110233471D01*
X130099539Y-110180007D01*
X130261971Y-110093186D01*
X130404344Y-109976344D01*
X130521186Y-109833972D01*
X130608007Y-109671540D01*
X130661471Y-109495292D01*
X130671355Y-109394930D01*
X132040001Y-109394930D01*
X132053530Y-109532290D01*
X132106994Y-109708538D01*
X132193815Y-109870970D01*
X132310657Y-110013343D01*
X132453029Y-110130185D01*
X132615461Y-110217006D01*
X132791709Y-110270470D01*
X132975001Y-110288523D01*
X133158292Y-110270470D01*
X133334540Y-110217006D01*
X133496972Y-110130185D01*
X133639345Y-110013343D01*
X133756187Y-109870971D01*
X133843008Y-109708539D01*
X133896472Y-109532291D01*
X133910001Y-109394931D01*
X133910001Y-109394930D01*
X137120001Y-109394930D01*
X137133530Y-109532290D01*
X137186994Y-109708538D01*
X137273815Y-109870970D01*
X137390657Y-110013343D01*
X137533029Y-110130185D01*
X137695461Y-110217006D01*
X137871709Y-110270470D01*
X138055001Y-110288523D01*
X138238292Y-110270470D01*
X138414540Y-110217006D01*
X138576972Y-110130185D01*
X138719345Y-110013343D01*
X138836187Y-109870971D01*
X138923008Y-109708539D01*
X138976472Y-109532291D01*
X138990001Y-109394931D01*
X138990001Y-109098061D01*
X148765000Y-109098061D01*
X148765000Y-109301939D01*
X148804774Y-109501898D01*
X148882795Y-109690256D01*
X148996063Y-109859774D01*
X149140226Y-110003937D01*
X149309744Y-110117205D01*
X149498102Y-110195226D01*
X149698061Y-110235000D01*
X149901939Y-110235000D01*
X150101898Y-110195226D01*
X150290256Y-110117205D01*
X150459774Y-110003937D01*
X150603937Y-109859774D01*
X150717205Y-109690256D01*
X150795226Y-109501898D01*
X150835000Y-109301939D01*
X150835000Y-109098061D01*
X150820454Y-109024930D01*
X157310001Y-109024930D01*
X157323530Y-109162290D01*
X157376994Y-109338538D01*
X157463815Y-109500970D01*
X157580657Y-109643343D01*
X157723029Y-109760185D01*
X157885461Y-109847006D01*
X158061709Y-109900470D01*
X158245001Y-109918523D01*
X158428292Y-109900470D01*
X158604540Y-109847006D01*
X158766972Y-109760185D01*
X158909345Y-109643343D01*
X159026187Y-109500971D01*
X159113008Y-109338539D01*
X159166472Y-109162291D01*
X159180001Y-109024931D01*
X159180001Y-109024930D01*
X162390001Y-109024930D01*
X162403530Y-109162290D01*
X162456994Y-109338538D01*
X162543815Y-109500970D01*
X162660657Y-109643343D01*
X162803029Y-109760185D01*
X162965461Y-109847006D01*
X163141709Y-109900470D01*
X163325001Y-109918523D01*
X163508292Y-109900470D01*
X163684540Y-109847006D01*
X163846972Y-109760185D01*
X163989345Y-109643343D01*
X164106187Y-109500971D01*
X164193008Y-109338539D01*
X164246472Y-109162291D01*
X164260001Y-109024931D01*
X164260001Y-108009067D01*
X164246472Y-107871707D01*
X164193008Y-107695459D01*
X164106187Y-107533027D01*
X164031207Y-107441664D01*
X164090256Y-107417205D01*
X164259774Y-107303937D01*
X164403937Y-107159774D01*
X164517205Y-106990256D01*
X164595226Y-106801898D01*
X164635000Y-106601939D01*
X164635000Y-106525701D01*
X167015000Y-106525701D01*
X167015000Y-107074299D01*
X167122026Y-107612354D01*
X167331965Y-108119192D01*
X167636750Y-108575334D01*
X168024666Y-108963250D01*
X168480808Y-109268035D01*
X168987646Y-109477974D01*
X169525701Y-109585000D01*
X170074299Y-109585000D01*
X170612354Y-109477974D01*
X171119192Y-109268035D01*
X171575334Y-108963250D01*
X171963250Y-108575334D01*
X172268035Y-108119192D01*
X172477974Y-107612354D01*
X172585000Y-107074299D01*
X172585000Y-106525701D01*
X172477974Y-105987646D01*
X172268035Y-105480808D01*
X171963250Y-105024666D01*
X171575334Y-104636750D01*
X171119192Y-104331965D01*
X170612354Y-104122026D01*
X170074299Y-104015000D01*
X169525701Y-104015000D01*
X168987646Y-104122026D01*
X168480808Y-104331965D01*
X168024666Y-104636750D01*
X167636750Y-105024666D01*
X167331965Y-105480808D01*
X167122026Y-105987646D01*
X167015000Y-106525701D01*
X164635000Y-106525701D01*
X164635000Y-106398061D01*
X164595226Y-106198102D01*
X164517205Y-106009744D01*
X164403937Y-105840226D01*
X164259774Y-105696063D01*
X164090256Y-105582795D01*
X163901898Y-105504774D01*
X163701939Y-105465000D01*
X163498061Y-105465000D01*
X163298102Y-105504774D01*
X163109744Y-105582795D01*
X162940226Y-105696063D01*
X162796063Y-105840226D01*
X162682795Y-106009744D01*
X162604774Y-106198102D01*
X162565000Y-106398061D01*
X162565000Y-106601939D01*
X162604774Y-106801898D01*
X162682795Y-106990256D01*
X162796063Y-107159774D01*
X162872806Y-107236517D01*
X162803030Y-107273813D01*
X162660658Y-107390655D01*
X162543816Y-107533027D01*
X162456995Y-107695459D01*
X162403531Y-107871707D01*
X162390002Y-108009067D01*
X162390001Y-109024930D01*
X159180001Y-109024930D01*
X159180001Y-108009067D01*
X159166472Y-107871707D01*
X159113008Y-107695459D01*
X159026187Y-107533027D01*
X158909345Y-107390655D01*
X158766973Y-107273813D01*
X158604541Y-107186992D01*
X158428293Y-107133528D01*
X158245001Y-107115475D01*
X158061710Y-107133528D01*
X157885462Y-107186992D01*
X157723030Y-107273813D01*
X157580658Y-107390655D01*
X157463816Y-107533027D01*
X157376995Y-107695459D01*
X157323531Y-107871707D01*
X157310002Y-108009067D01*
X157310001Y-109024930D01*
X150820454Y-109024930D01*
X150795226Y-108898102D01*
X150717205Y-108709744D01*
X150603937Y-108540226D01*
X150459774Y-108396063D01*
X150290256Y-108282795D01*
X150101898Y-108204774D01*
X149901939Y-108165000D01*
X149698061Y-108165000D01*
X149498102Y-108204774D01*
X149309744Y-108282795D01*
X149140226Y-108396063D01*
X148996063Y-108540226D01*
X148882795Y-108709744D01*
X148804774Y-108898102D01*
X148765000Y-109098061D01*
X138990001Y-109098061D01*
X138990001Y-108379067D01*
X138976472Y-108241707D01*
X138923008Y-108065459D01*
X138836187Y-107903027D01*
X138797340Y-107855692D01*
X138890256Y-107817205D01*
X139059774Y-107703937D01*
X139203937Y-107559774D01*
X139317205Y-107390256D01*
X139395226Y-107201898D01*
X139435000Y-107001939D01*
X139435000Y-106798061D01*
X139395226Y-106598102D01*
X139317205Y-106409744D01*
X139203937Y-106240226D01*
X139059774Y-106096063D01*
X138890256Y-105982795D01*
X138701898Y-105904774D01*
X138501939Y-105865000D01*
X138298061Y-105865000D01*
X138098102Y-105904774D01*
X137909744Y-105982795D01*
X137740226Y-106096063D01*
X137596063Y-106240226D01*
X137482795Y-106409744D01*
X137404774Y-106598102D01*
X137365000Y-106798061D01*
X137365000Y-107001939D01*
X137404774Y-107201898D01*
X137482795Y-107390256D01*
X137596063Y-107559774D01*
X137628873Y-107592584D01*
X137533030Y-107643813D01*
X137390658Y-107760655D01*
X137273816Y-107903027D01*
X137186995Y-108065459D01*
X137133531Y-108241707D01*
X137120002Y-108379067D01*
X137120001Y-109394930D01*
X133910001Y-109394930D01*
X133910001Y-108379067D01*
X133896472Y-108241707D01*
X133843008Y-108065459D01*
X133756187Y-107903027D01*
X133639345Y-107760655D01*
X133496973Y-107643813D01*
X133334541Y-107556992D01*
X133158293Y-107503528D01*
X132975001Y-107485475D01*
X132791710Y-107503528D01*
X132615462Y-107556992D01*
X132453030Y-107643813D01*
X132310658Y-107760655D01*
X132193816Y-107903027D01*
X132106995Y-108065459D01*
X132053531Y-108241707D01*
X132040002Y-108379067D01*
X132040001Y-109394930D01*
X130671355Y-109394930D01*
X130675000Y-109357932D01*
X130675000Y-108342068D01*
X130661471Y-108204708D01*
X130608007Y-108028460D01*
X130521186Y-107866028D01*
X130404344Y-107723656D01*
X130261972Y-107606814D01*
X130099540Y-107519993D01*
X129923292Y-107466529D01*
X129740000Y-107448476D01*
X129556709Y-107466529D01*
X129380461Y-107519993D01*
X129218029Y-107606814D01*
X129075657Y-107723656D01*
X128958815Y-107866028D01*
X128871994Y-108028460D01*
X128818530Y-108204708D01*
X128805001Y-108342068D01*
X128805000Y-109357931D01*
X125595000Y-109357931D01*
X125595000Y-108342068D01*
X125581471Y-108204708D01*
X125528007Y-108028460D01*
X125441186Y-107866028D01*
X125324344Y-107723656D01*
X125181972Y-107606814D01*
X125019540Y-107519993D01*
X124843292Y-107466529D01*
X124660000Y-107448476D01*
X124476709Y-107466529D01*
X124300461Y-107519993D01*
X124138029Y-107606814D01*
X123995657Y-107723656D01*
X123878815Y-107866028D01*
X123791994Y-108028460D01*
X123738530Y-108204708D01*
X123725001Y-108342068D01*
X123725000Y-109357931D01*
X122510001Y-109357931D01*
X122510001Y-108359067D01*
X122496472Y-108221707D01*
X122443008Y-108045459D01*
X122356187Y-107883027D01*
X122239345Y-107740655D01*
X122096973Y-107623813D01*
X121934541Y-107536992D01*
X121758293Y-107483528D01*
X121575001Y-107465475D01*
X121391710Y-107483528D01*
X121215462Y-107536992D01*
X121053030Y-107623813D01*
X120910658Y-107740655D01*
X120793816Y-107883027D01*
X120706995Y-108045459D01*
X120653531Y-108221707D01*
X120640002Y-108359067D01*
X120640001Y-109374930D01*
X117430001Y-109374930D01*
X117430001Y-108359067D01*
X117416472Y-108221707D01*
X117363008Y-108045459D01*
X117276187Y-107883027D01*
X117159345Y-107740655D01*
X117016973Y-107623813D01*
X116854541Y-107536992D01*
X116678293Y-107483528D01*
X116495001Y-107465475D01*
X116311710Y-107483528D01*
X116135462Y-107536992D01*
X115973030Y-107623813D01*
X115830658Y-107740655D01*
X115713816Y-107883027D01*
X115626995Y-108045459D01*
X115573531Y-108221707D01*
X115560002Y-108359067D01*
X115560001Y-109374930D01*
X111261124Y-109374930D01*
X111519192Y-109268035D01*
X111975334Y-108963250D01*
X112363250Y-108575334D01*
X112668035Y-108119192D01*
X112877974Y-107612354D01*
X112985000Y-107074299D01*
X112985000Y-106525701D01*
X112877974Y-105987646D01*
X112668035Y-105480808D01*
X112363250Y-105024666D01*
X112036645Y-104698061D01*
X116065000Y-104698061D01*
X116065000Y-104901939D01*
X116104774Y-105101898D01*
X116182795Y-105290256D01*
X116296063Y-105459774D01*
X116440226Y-105603937D01*
X116609744Y-105717205D01*
X116798102Y-105795226D01*
X116998061Y-105835000D01*
X117201939Y-105835000D01*
X117401898Y-105795226D01*
X117590256Y-105717205D01*
X117759774Y-105603937D01*
X117903937Y-105459774D01*
X118017205Y-105290256D01*
X118095226Y-105101898D01*
X118135000Y-104901939D01*
X118135000Y-104698061D01*
X123865000Y-104698061D01*
X123865000Y-104901939D01*
X123904774Y-105101898D01*
X123982795Y-105290256D01*
X124096063Y-105459774D01*
X124240226Y-105603937D01*
X124409744Y-105717205D01*
X124598102Y-105795226D01*
X124798061Y-105835000D01*
X125001939Y-105835000D01*
X125201898Y-105795226D01*
X125390256Y-105717205D01*
X125559774Y-105603937D01*
X125703937Y-105459774D01*
X125817205Y-105290256D01*
X125895226Y-105101898D01*
X125935000Y-104901939D01*
X125935000Y-104698061D01*
X125895226Y-104498102D01*
X125853788Y-104398061D01*
X143465000Y-104398061D01*
X143465000Y-104601939D01*
X143504774Y-104801898D01*
X143582795Y-104990256D01*
X143696063Y-105159774D01*
X143840226Y-105303937D01*
X144009744Y-105417205D01*
X144198102Y-105495226D01*
X144398061Y-105535000D01*
X144601939Y-105535000D01*
X144801898Y-105495226D01*
X144990256Y-105417205D01*
X145159774Y-105303937D01*
X145303937Y-105159774D01*
X145417205Y-104990256D01*
X145495226Y-104801898D01*
X145535000Y-104601939D01*
X145535000Y-104398061D01*
X145495226Y-104198102D01*
X145417205Y-104009744D01*
X145303937Y-103840226D01*
X145159774Y-103696063D01*
X144990256Y-103582795D01*
X144801898Y-103504774D01*
X144601939Y-103465000D01*
X144398061Y-103465000D01*
X144198102Y-103504774D01*
X144009744Y-103582795D01*
X143840226Y-103696063D01*
X143696063Y-103840226D01*
X143582795Y-104009744D01*
X143504774Y-104198102D01*
X143465000Y-104398061D01*
X125853788Y-104398061D01*
X125817205Y-104309744D01*
X125703937Y-104140226D01*
X125559774Y-103996063D01*
X125390256Y-103882795D01*
X125201898Y-103804774D01*
X125001939Y-103765000D01*
X124798061Y-103765000D01*
X124598102Y-103804774D01*
X124409744Y-103882795D01*
X124240226Y-103996063D01*
X124096063Y-104140226D01*
X123982795Y-104309744D01*
X123904774Y-104498102D01*
X123865000Y-104698061D01*
X118135000Y-104698061D01*
X118095226Y-104498102D01*
X118017205Y-104309744D01*
X117903937Y-104140226D01*
X117759774Y-103996063D01*
X117590256Y-103882795D01*
X117401898Y-103804774D01*
X117201939Y-103765000D01*
X116998061Y-103765000D01*
X116798102Y-103804774D01*
X116609744Y-103882795D01*
X116440226Y-103996063D01*
X116296063Y-104140226D01*
X116182795Y-104309744D01*
X116104774Y-104498102D01*
X116065000Y-104698061D01*
X112036645Y-104698061D01*
X111975334Y-104636750D01*
X111519192Y-104331965D01*
X111012354Y-104122026D01*
X110474299Y-104015000D01*
X109925701Y-104015000D01*
X109387646Y-104122026D01*
X108880808Y-104331965D01*
X108424666Y-104636750D01*
X108036750Y-105024666D01*
X107731965Y-105480808D01*
X107522026Y-105987646D01*
X107415000Y-106525701D01*
X105727000Y-106525701D01*
X105727000Y-102477501D01*
X130999500Y-102576999D01*
X131024286Y-102574656D01*
X131048138Y-102567523D01*
X131070141Y-102555874D01*
X131089448Y-102540155D01*
X131105318Y-102520973D01*
X131117140Y-102499062D01*
X131124461Y-102475267D01*
X131127000Y-102450000D01*
X131127000Y-101198061D01*
X148065000Y-101198061D01*
X148065000Y-101401939D01*
X148104774Y-101601898D01*
X148182795Y-101790256D01*
X148296063Y-101959774D01*
X148440226Y-102103937D01*
X148609744Y-102217205D01*
X148798102Y-102295226D01*
X148998061Y-102335000D01*
X149201939Y-102335000D01*
X149401898Y-102295226D01*
X149590256Y-102217205D01*
X149759774Y-102103937D01*
X149903937Y-101959774D01*
X150017205Y-101790256D01*
X150095226Y-101601898D01*
X150095989Y-101598061D01*
X150265000Y-101598061D01*
X150265000Y-101801939D01*
X150304774Y-102001898D01*
X150382795Y-102190256D01*
X150496063Y-102359774D01*
X150640226Y-102503937D01*
X150809744Y-102617205D01*
X150998102Y-102695226D01*
X151198061Y-102735000D01*
X151401939Y-102735000D01*
X151601898Y-102695226D01*
X151790256Y-102617205D01*
X151959774Y-102503937D01*
X152103937Y-102359774D01*
X152150000Y-102290836D01*
X152196063Y-102359774D01*
X152340226Y-102503937D01*
X152509744Y-102617205D01*
X152698102Y-102695226D01*
X152898061Y-102735000D01*
X153101939Y-102735000D01*
X153301898Y-102695226D01*
X153490256Y-102617205D01*
X153659774Y-102503937D01*
X153803937Y-102359774D01*
X153917205Y-102190256D01*
X153995226Y-102001898D01*
X154035000Y-101801939D01*
X154035000Y-101598061D01*
X153995226Y-101398102D01*
X153917205Y-101209744D01*
X153803937Y-101040226D01*
X153659774Y-100896063D01*
X153490256Y-100782795D01*
X153301898Y-100704774D01*
X153101939Y-100665000D01*
X152898061Y-100665000D01*
X152698102Y-100704774D01*
X152509744Y-100782795D01*
X152340226Y-100896063D01*
X152196063Y-101040226D01*
X152150000Y-101109164D01*
X152103937Y-101040226D01*
X151959774Y-100896063D01*
X151790256Y-100782795D01*
X151601898Y-100704774D01*
X151401939Y-100665000D01*
X151198061Y-100665000D01*
X150998102Y-100704774D01*
X150809744Y-100782795D01*
X150640226Y-100896063D01*
X150496063Y-101040226D01*
X150382795Y-101209744D01*
X150304774Y-101398102D01*
X150265000Y-101598061D01*
X150095989Y-101598061D01*
X150135000Y-101401939D01*
X150135000Y-101198061D01*
X150095226Y-100998102D01*
X150017205Y-100809744D01*
X149903937Y-100640226D01*
X149759774Y-100496063D01*
X149613104Y-100398061D01*
X157065000Y-100398061D01*
X157065000Y-100601939D01*
X157104774Y-100801898D01*
X157182795Y-100990256D01*
X157296063Y-101159774D01*
X157440226Y-101303937D01*
X157609744Y-101417205D01*
X157798102Y-101495226D01*
X157998061Y-101535000D01*
X158201939Y-101535000D01*
X158401898Y-101495226D01*
X158590256Y-101417205D01*
X158759774Y-101303937D01*
X158903937Y-101159774D01*
X159017205Y-100990256D01*
X159095226Y-100801898D01*
X159135000Y-100601939D01*
X159135000Y-100398061D01*
X159095226Y-100198102D01*
X159017205Y-100009744D01*
X158903937Y-99840226D01*
X158759774Y-99696063D01*
X158590256Y-99582795D01*
X158401898Y-99504774D01*
X158201939Y-99465000D01*
X157998061Y-99465000D01*
X157798102Y-99504774D01*
X157609744Y-99582795D01*
X157440226Y-99696063D01*
X157296063Y-99840226D01*
X157182795Y-100009744D01*
X157104774Y-100198102D01*
X157065000Y-100398061D01*
X149613104Y-100398061D01*
X149590256Y-100382795D01*
X149401898Y-100304774D01*
X149201939Y-100265000D01*
X148998061Y-100265000D01*
X148798102Y-100304774D01*
X148609744Y-100382795D01*
X148440226Y-100496063D01*
X148296063Y-100640226D01*
X148182795Y-100809744D01*
X148104774Y-100998102D01*
X148065000Y-101198061D01*
X131127000Y-101198061D01*
X131127000Y-98998061D01*
X142565000Y-98998061D01*
X142565000Y-99201939D01*
X142604774Y-99401898D01*
X142682795Y-99590256D01*
X142796063Y-99759774D01*
X142940226Y-99903937D01*
X143109744Y-100017205D01*
X143298102Y-100095226D01*
X143498061Y-100135000D01*
X143701939Y-100135000D01*
X143901898Y-100095226D01*
X144090256Y-100017205D01*
X144259774Y-99903937D01*
X144403937Y-99759774D01*
X144517205Y-99590256D01*
X144595226Y-99401898D01*
X144635000Y-99201939D01*
X144635000Y-99098061D01*
X152365000Y-99098061D01*
X152365000Y-99301939D01*
X152404774Y-99501898D01*
X152482795Y-99690256D01*
X152596063Y-99859774D01*
X152740226Y-100003937D01*
X152909744Y-100117205D01*
X153098102Y-100195226D01*
X153298061Y-100235000D01*
X153501939Y-100235000D01*
X153701898Y-100195226D01*
X153890256Y-100117205D01*
X154059774Y-100003937D01*
X154203937Y-99859774D01*
X154317205Y-99690256D01*
X154395226Y-99501898D01*
X154435000Y-99301939D01*
X154435000Y-99098061D01*
X154415109Y-98998061D01*
X159965000Y-98998061D01*
X159965000Y-99201939D01*
X160004774Y-99401898D01*
X160082795Y-99590256D01*
X160196063Y-99759774D01*
X160340226Y-99903937D01*
X160509744Y-100017205D01*
X160698102Y-100095226D01*
X160898061Y-100135000D01*
X161101939Y-100135000D01*
X161301898Y-100095226D01*
X161490256Y-100017205D01*
X161659774Y-99903937D01*
X161803937Y-99759774D01*
X161911989Y-99598061D01*
X163565000Y-99598061D01*
X163565000Y-99801939D01*
X163604774Y-100001898D01*
X163682795Y-100190256D01*
X163796063Y-100359774D01*
X163940226Y-100503937D01*
X164109744Y-100617205D01*
X164298102Y-100695226D01*
X164498061Y-100735000D01*
X164701939Y-100735000D01*
X164901898Y-100695226D01*
X165090256Y-100617205D01*
X165259774Y-100503937D01*
X165403937Y-100359774D01*
X165517205Y-100190256D01*
X165595226Y-100001898D01*
X165635000Y-99801939D01*
X165635000Y-99598061D01*
X165595226Y-99398102D01*
X165517205Y-99209744D01*
X165403937Y-99040226D01*
X165259774Y-98896063D01*
X165090256Y-98782795D01*
X164901898Y-98704774D01*
X164701939Y-98665000D01*
X164498061Y-98665000D01*
X164298102Y-98704774D01*
X164109744Y-98782795D01*
X163940226Y-98896063D01*
X163796063Y-99040226D01*
X163682795Y-99209744D01*
X163604774Y-99398102D01*
X163565000Y-99598061D01*
X161911989Y-99598061D01*
X161917205Y-99590256D01*
X161995226Y-99401898D01*
X162035000Y-99201939D01*
X162035000Y-98998061D01*
X161995226Y-98798102D01*
X161917205Y-98609744D01*
X161803937Y-98440226D01*
X161659774Y-98296063D01*
X161490256Y-98182795D01*
X161301898Y-98104774D01*
X161101939Y-98065000D01*
X160898061Y-98065000D01*
X160698102Y-98104774D01*
X160509744Y-98182795D01*
X160340226Y-98296063D01*
X160196063Y-98440226D01*
X160082795Y-98609744D01*
X160004774Y-98798102D01*
X159965000Y-98998061D01*
X154415109Y-98998061D01*
X154395226Y-98898102D01*
X154317205Y-98709744D01*
X154203937Y-98540226D01*
X154059774Y-98396063D01*
X153890256Y-98282795D01*
X153701898Y-98204774D01*
X153501939Y-98165000D01*
X153298061Y-98165000D01*
X153098102Y-98204774D01*
X152909744Y-98282795D01*
X152740226Y-98396063D01*
X152596063Y-98540226D01*
X152482795Y-98709744D01*
X152404774Y-98898102D01*
X152365000Y-99098061D01*
X144635000Y-99098061D01*
X144635000Y-98998061D01*
X144595226Y-98798102D01*
X144517205Y-98609744D01*
X144403937Y-98440226D01*
X144259774Y-98296063D01*
X144090256Y-98182795D01*
X143901898Y-98104774D01*
X143701939Y-98065000D01*
X143498061Y-98065000D01*
X143298102Y-98104774D01*
X143109744Y-98182795D01*
X142940226Y-98296063D01*
X142796063Y-98440226D01*
X142682795Y-98609744D01*
X142604774Y-98798102D01*
X142565000Y-98998061D01*
X131127000Y-98998061D01*
X131127000Y-95298061D01*
X143865006Y-95298061D01*
X143865006Y-95501939D01*
X143904780Y-95701898D01*
X143982801Y-95890256D01*
X144096069Y-96059774D01*
X144240232Y-96203937D01*
X144409750Y-96317205D01*
X144598108Y-96395226D01*
X144798067Y-96435000D01*
X145001945Y-96435000D01*
X145201904Y-96395226D01*
X145246702Y-96376670D01*
X145157785Y-96509744D01*
X145079764Y-96698102D01*
X145039990Y-96898061D01*
X145039990Y-97101939D01*
X145079764Y-97301898D01*
X145157785Y-97490256D01*
X145271053Y-97659774D01*
X145415216Y-97803937D01*
X145584734Y-97917205D01*
X145773092Y-97995226D01*
X145973051Y-98035000D01*
X146176929Y-98035000D01*
X146376888Y-97995226D01*
X146565246Y-97917205D01*
X146734764Y-97803937D01*
X146878927Y-97659774D01*
X146992195Y-97490256D01*
X147070216Y-97301898D01*
X147109990Y-97101939D01*
X147109990Y-96898061D01*
X147090099Y-96798061D01*
X163165000Y-96798061D01*
X163165000Y-97001939D01*
X163204774Y-97201898D01*
X163282795Y-97390256D01*
X163396063Y-97559774D01*
X163540226Y-97703937D01*
X163709744Y-97817205D01*
X163898102Y-97895226D01*
X164098061Y-97935000D01*
X164301939Y-97935000D01*
X164501898Y-97895226D01*
X164690256Y-97817205D01*
X164859774Y-97703937D01*
X165003937Y-97559774D01*
X165117205Y-97390256D01*
X165195226Y-97201898D01*
X165235000Y-97001939D01*
X165235000Y-96974212D01*
X166169500Y-96974212D01*
X166169500Y-97197788D01*
X166213117Y-97417067D01*
X166298676Y-97623624D01*
X166422888Y-97809520D01*
X166580980Y-97967612D01*
X166766876Y-98091824D01*
X166973433Y-98177383D01*
X167192712Y-98221000D01*
X167416288Y-98221000D01*
X167635567Y-98177383D01*
X167842124Y-98091824D01*
X167905165Y-98049701D01*
X167912040Y-98119507D01*
X167991236Y-98380581D01*
X168119843Y-98621188D01*
X168292919Y-98832081D01*
X168503812Y-99005157D01*
X168744419Y-99133764D01*
X169005493Y-99212960D01*
X169208963Y-99233000D01*
X169845037Y-99233000D01*
X170048507Y-99212960D01*
X170309581Y-99133764D01*
X170550188Y-99005157D01*
X170761081Y-98832081D01*
X170934157Y-98621188D01*
X171062764Y-98380581D01*
X171141960Y-98119507D01*
X171168701Y-97848000D01*
X171141960Y-97576493D01*
X171062764Y-97315419D01*
X170934157Y-97074812D01*
X170761081Y-96863919D01*
X170550188Y-96690843D01*
X170309581Y-96562236D01*
X170048507Y-96483040D01*
X169845037Y-96463000D01*
X169208963Y-96463000D01*
X169005493Y-96483040D01*
X168744419Y-96562236D01*
X168503812Y-96690843D01*
X168400070Y-96775982D01*
X168395883Y-96754933D01*
X168310324Y-96548376D01*
X168186112Y-96362480D01*
X168028020Y-96204388D01*
X167842124Y-96080176D01*
X167635567Y-95994617D01*
X167416288Y-95951000D01*
X167192712Y-95951000D01*
X166973433Y-95994617D01*
X166766876Y-96080176D01*
X166580980Y-96204388D01*
X166422888Y-96362480D01*
X166298676Y-96548376D01*
X166213117Y-96754933D01*
X166169500Y-96974212D01*
X165235000Y-96974212D01*
X165235000Y-96798061D01*
X165195226Y-96598102D01*
X165117205Y-96409744D01*
X165003937Y-96240226D01*
X164859774Y-96096063D01*
X164690256Y-95982795D01*
X164501898Y-95904774D01*
X164301939Y-95865000D01*
X164098061Y-95865000D01*
X163898102Y-95904774D01*
X163709744Y-95982795D01*
X163540226Y-96096063D01*
X163396063Y-96240226D01*
X163282795Y-96409744D01*
X163204774Y-96598102D01*
X163165000Y-96798061D01*
X147090099Y-96798061D01*
X147070216Y-96698102D01*
X147040870Y-96627256D01*
X147201898Y-96595226D01*
X147390256Y-96517205D01*
X147559774Y-96403937D01*
X147703937Y-96259774D01*
X147817205Y-96090256D01*
X147895226Y-95901898D01*
X147935000Y-95701939D01*
X147935000Y-95498061D01*
X147895226Y-95298102D01*
X147863983Y-95222675D01*
X148001898Y-95195242D01*
X148190256Y-95117221D01*
X148359774Y-95003953D01*
X148503937Y-94859790D01*
X148617205Y-94690272D01*
X148695226Y-94501914D01*
X148735000Y-94301955D01*
X148735000Y-94098077D01*
X148695226Y-93898118D01*
X148617205Y-93709760D01*
X148503937Y-93540242D01*
X148359774Y-93396079D01*
X148190256Y-93282811D01*
X148001898Y-93204790D01*
X147801939Y-93165016D01*
X147598061Y-93165016D01*
X147398102Y-93204790D01*
X147209744Y-93282811D01*
X147040226Y-93396079D01*
X146896063Y-93540242D01*
X146782795Y-93709760D01*
X146704774Y-93898118D01*
X146665000Y-94098077D01*
X146665000Y-94301955D01*
X146704774Y-94501914D01*
X146736017Y-94577341D01*
X146598102Y-94604774D01*
X146409744Y-94682795D01*
X146240226Y-94796063D01*
X146096063Y-94940226D01*
X145982795Y-95109744D01*
X145925204Y-95248781D01*
X145895232Y-95098102D01*
X145817211Y-94909744D01*
X145703943Y-94740226D01*
X145559780Y-94596063D01*
X145390262Y-94482795D01*
X145201904Y-94404774D01*
X145001945Y-94365000D01*
X144798067Y-94365000D01*
X144598108Y-94404774D01*
X144409750Y-94482795D01*
X144240232Y-94596063D01*
X144096069Y-94740226D01*
X143982801Y-94909744D01*
X143904780Y-95098102D01*
X143865006Y-95298061D01*
X131127000Y-95298061D01*
X131127000Y-92324353D01*
X131298102Y-92395226D01*
X131498061Y-92435000D01*
X131701939Y-92435000D01*
X131901898Y-92395226D01*
X132090256Y-92317205D01*
X132259774Y-92203937D01*
X132403937Y-92059774D01*
X132511989Y-91898061D01*
X145165000Y-91898061D01*
X145165000Y-92101939D01*
X145204774Y-92301898D01*
X145282795Y-92490256D01*
X145396063Y-92659774D01*
X145540226Y-92803937D01*
X145709744Y-92917205D01*
X145898102Y-92995226D01*
X146098061Y-93035000D01*
X146301939Y-93035000D01*
X146501898Y-92995226D01*
X146690256Y-92917205D01*
X146859774Y-92803937D01*
X147003937Y-92659774D01*
X147117205Y-92490256D01*
X147195226Y-92301898D01*
X147235000Y-92101939D01*
X147235000Y-92098061D01*
X151765000Y-92098061D01*
X151765000Y-92301939D01*
X151804774Y-92501898D01*
X151882795Y-92690256D01*
X151996063Y-92859774D01*
X152140226Y-93003937D01*
X152309744Y-93117205D01*
X152498102Y-93195226D01*
X152698061Y-93235000D01*
X152901939Y-93235000D01*
X153087645Y-93198061D01*
X157265000Y-93198061D01*
X157265000Y-93401939D01*
X157304774Y-93601898D01*
X157382795Y-93790256D01*
X157496063Y-93959774D01*
X157640226Y-94103937D01*
X157809744Y-94217205D01*
X157998102Y-94295226D01*
X158198061Y-94335000D01*
X158401939Y-94335000D01*
X158601898Y-94295226D01*
X158790256Y-94217205D01*
X158959774Y-94103937D01*
X159103937Y-93959774D01*
X159145172Y-93898061D01*
X163065000Y-93898061D01*
X163065000Y-94101939D01*
X163104774Y-94301898D01*
X163182795Y-94490256D01*
X163296063Y-94659774D01*
X163440226Y-94803937D01*
X163609744Y-94917205D01*
X163798102Y-94995226D01*
X163998061Y-95035000D01*
X164201939Y-95035000D01*
X164401898Y-94995226D01*
X164590256Y-94917205D01*
X164759774Y-94803937D01*
X164903937Y-94659774D01*
X164988570Y-94533112D01*
X164998061Y-94535000D01*
X165201939Y-94535000D01*
X165401898Y-94495226D01*
X165590256Y-94417205D01*
X165759774Y-94303937D01*
X165903937Y-94159774D01*
X166017205Y-93990256D01*
X166095226Y-93801898D01*
X166135000Y-93601939D01*
X166135000Y-93398061D01*
X166095226Y-93198102D01*
X166017205Y-93009744D01*
X165903937Y-92840226D01*
X165759774Y-92696063D01*
X165590256Y-92582795D01*
X165401898Y-92504774D01*
X165201939Y-92465000D01*
X164998061Y-92465000D01*
X164798102Y-92504774D01*
X164609744Y-92582795D01*
X164440226Y-92696063D01*
X164296063Y-92840226D01*
X164211430Y-92966888D01*
X164201939Y-92965000D01*
X163998061Y-92965000D01*
X163798102Y-93004774D01*
X163609744Y-93082795D01*
X163440226Y-93196063D01*
X163296063Y-93340226D01*
X163182795Y-93509744D01*
X163104774Y-93698102D01*
X163065000Y-93898061D01*
X159145172Y-93898061D01*
X159217205Y-93790256D01*
X159295226Y-93601898D01*
X159335000Y-93401939D01*
X159335000Y-93198061D01*
X159295226Y-92998102D01*
X159217205Y-92809744D01*
X159103937Y-92640226D01*
X158959774Y-92496063D01*
X158819316Y-92402212D01*
X166169500Y-92402212D01*
X166169500Y-92625788D01*
X166213117Y-92845067D01*
X166298676Y-93051624D01*
X166422888Y-93237520D01*
X166580980Y-93395612D01*
X166766876Y-93519824D01*
X166973433Y-93605383D01*
X167192712Y-93649000D01*
X167416288Y-93649000D01*
X167635567Y-93605383D01*
X167842124Y-93519824D01*
X168028020Y-93395612D01*
X168186112Y-93237520D01*
X168310324Y-93051624D01*
X168395883Y-92845067D01*
X168400070Y-92824018D01*
X168503812Y-92909157D01*
X168744419Y-93037764D01*
X169005493Y-93116960D01*
X169208963Y-93137000D01*
X169845037Y-93137000D01*
X170048507Y-93116960D01*
X170309581Y-93037764D01*
X170550188Y-92909157D01*
X170761081Y-92736081D01*
X170934157Y-92525188D01*
X171062764Y-92284581D01*
X171141960Y-92023507D01*
X171168701Y-91752000D01*
X171141960Y-91480493D01*
X171062764Y-91219419D01*
X170934157Y-90978812D01*
X170761081Y-90767919D01*
X170550188Y-90594843D01*
X170309581Y-90466236D01*
X170048507Y-90387040D01*
X169845037Y-90367000D01*
X169208963Y-90367000D01*
X169005493Y-90387040D01*
X168744419Y-90466236D01*
X168503812Y-90594843D01*
X168292919Y-90767919D01*
X168119843Y-90978812D01*
X167991236Y-91219419D01*
X167912040Y-91480493D01*
X167905165Y-91550299D01*
X167842124Y-91508176D01*
X167635567Y-91422617D01*
X167416288Y-91379000D01*
X167192712Y-91379000D01*
X166973433Y-91422617D01*
X166766876Y-91508176D01*
X166580980Y-91632388D01*
X166422888Y-91790480D01*
X166298676Y-91976376D01*
X166213117Y-92182933D01*
X166169500Y-92402212D01*
X158819316Y-92402212D01*
X158790256Y-92382795D01*
X158601898Y-92304774D01*
X158401939Y-92265000D01*
X158198061Y-92265000D01*
X157998102Y-92304774D01*
X157809744Y-92382795D01*
X157640226Y-92496063D01*
X157496063Y-92640226D01*
X157382795Y-92809744D01*
X157304774Y-92998102D01*
X157265000Y-93198061D01*
X153087645Y-93198061D01*
X153101898Y-93195226D01*
X153290256Y-93117205D01*
X153459774Y-93003937D01*
X153603937Y-92859774D01*
X153717205Y-92690256D01*
X153795226Y-92501898D01*
X153835000Y-92301939D01*
X153835000Y-92098061D01*
X153795226Y-91898102D01*
X153717205Y-91709744D01*
X153603937Y-91540226D01*
X153459774Y-91396063D01*
X153290256Y-91282795D01*
X153101898Y-91204774D01*
X152901939Y-91165000D01*
X152698061Y-91165000D01*
X152498102Y-91204774D01*
X152309744Y-91282795D01*
X152140226Y-91396063D01*
X151996063Y-91540226D01*
X151882795Y-91709744D01*
X151804774Y-91898102D01*
X151765000Y-92098061D01*
X147235000Y-92098061D01*
X147235000Y-91898061D01*
X147195226Y-91698102D01*
X147117205Y-91509744D01*
X147003937Y-91340226D01*
X146859774Y-91196063D01*
X146690256Y-91082795D01*
X146501898Y-91004774D01*
X146301939Y-90965000D01*
X146098061Y-90965000D01*
X145898102Y-91004774D01*
X145709744Y-91082795D01*
X145540226Y-91196063D01*
X145396063Y-91340226D01*
X145282795Y-91509744D01*
X145204774Y-91698102D01*
X145165000Y-91898061D01*
X132511989Y-91898061D01*
X132517205Y-91890256D01*
X132595226Y-91701898D01*
X132635000Y-91501939D01*
X132635000Y-91298061D01*
X132595226Y-91098102D01*
X132517205Y-90909744D01*
X132403937Y-90740226D01*
X132259774Y-90596063D01*
X132113104Y-90498061D01*
X159665000Y-90498061D01*
X159665000Y-90701939D01*
X159704774Y-90901898D01*
X159782795Y-91090256D01*
X159896063Y-91259774D01*
X160040226Y-91403937D01*
X160209744Y-91517205D01*
X160398102Y-91595226D01*
X160598061Y-91635000D01*
X160801939Y-91635000D01*
X161001898Y-91595226D01*
X161190256Y-91517205D01*
X161359774Y-91403937D01*
X161503937Y-91259774D01*
X161617205Y-91090256D01*
X161695226Y-90901898D01*
X161735000Y-90701939D01*
X161735000Y-90498061D01*
X161695226Y-90298102D01*
X161617205Y-90109744D01*
X161503937Y-89940226D01*
X161359774Y-89796063D01*
X161190256Y-89682795D01*
X161001898Y-89604774D01*
X160801939Y-89565000D01*
X160598061Y-89565000D01*
X160398102Y-89604774D01*
X160209744Y-89682795D01*
X160040226Y-89796063D01*
X159896063Y-89940226D01*
X159782795Y-90109744D01*
X159704774Y-90298102D01*
X159665000Y-90498061D01*
X132113104Y-90498061D01*
X132090256Y-90482795D01*
X131901898Y-90404774D01*
X131701939Y-90365000D01*
X131498061Y-90365000D01*
X131298102Y-90404774D01*
X131127000Y-90475647D01*
X131127000Y-89924353D01*
X131298102Y-89995226D01*
X131498061Y-90035000D01*
X131701939Y-90035000D01*
X131901898Y-89995226D01*
X132090256Y-89917205D01*
X132259774Y-89803937D01*
X132403937Y-89659774D01*
X132517205Y-89490256D01*
X132595226Y-89301898D01*
X132635000Y-89101939D01*
X132635000Y-88898061D01*
X132595226Y-88698102D01*
X132517205Y-88509744D01*
X132403937Y-88340226D01*
X132259774Y-88196063D01*
X132090256Y-88082795D01*
X131901898Y-88004774D01*
X131701939Y-87965000D01*
X131498061Y-87965000D01*
X131298102Y-88004774D01*
X131172481Y-88056808D01*
X131195226Y-88001898D01*
X131235000Y-87801939D01*
X131235000Y-87598061D01*
X131195226Y-87398102D01*
X131127000Y-87233391D01*
X131127000Y-86898061D01*
X137365000Y-86898061D01*
X137365000Y-87101939D01*
X137404774Y-87301898D01*
X137482795Y-87490256D01*
X137596063Y-87659774D01*
X137740226Y-87803937D01*
X137909744Y-87917205D01*
X138098102Y-87995226D01*
X138298061Y-88035000D01*
X138501939Y-88035000D01*
X138687645Y-87998061D01*
X154965000Y-87998061D01*
X154965000Y-88201939D01*
X155004774Y-88401898D01*
X155082795Y-88590256D01*
X155196063Y-88759774D01*
X155340226Y-88903937D01*
X155509744Y-89017205D01*
X155698102Y-89095226D01*
X155898061Y-89135000D01*
X156101939Y-89135000D01*
X156301898Y-89095226D01*
X156490256Y-89017205D01*
X156659774Y-88903937D01*
X156803937Y-88759774D01*
X156917205Y-88590256D01*
X156995226Y-88401898D01*
X157035000Y-88201939D01*
X157035000Y-87998061D01*
X156995226Y-87798102D01*
X156917205Y-87609744D01*
X156803937Y-87440226D01*
X156659774Y-87296063D01*
X156490256Y-87182795D01*
X156301898Y-87104774D01*
X156101939Y-87065000D01*
X155898061Y-87065000D01*
X155698102Y-87104774D01*
X155509744Y-87182795D01*
X155340226Y-87296063D01*
X155196063Y-87440226D01*
X155082795Y-87609744D01*
X155004774Y-87798102D01*
X154965000Y-87998061D01*
X138687645Y-87998061D01*
X138701898Y-87995226D01*
X138890256Y-87917205D01*
X139059774Y-87803937D01*
X139203937Y-87659774D01*
X139317205Y-87490256D01*
X139395226Y-87301898D01*
X139435000Y-87101939D01*
X139435000Y-86898061D01*
X139395226Y-86698102D01*
X139395210Y-86698061D01*
X162265000Y-86698061D01*
X162265000Y-86901939D01*
X162304774Y-87101898D01*
X162382795Y-87290256D01*
X162496063Y-87459774D01*
X162640226Y-87603937D01*
X162809744Y-87717205D01*
X162998102Y-87795226D01*
X163198061Y-87835000D01*
X163401939Y-87835000D01*
X163601898Y-87795226D01*
X163790256Y-87717205D01*
X163959774Y-87603937D01*
X164103937Y-87459774D01*
X164217205Y-87290256D01*
X164295226Y-87101898D01*
X164335000Y-86901939D01*
X164335000Y-86698061D01*
X164295226Y-86498102D01*
X164217205Y-86309744D01*
X164103937Y-86140226D01*
X163959774Y-85996063D01*
X163790256Y-85882795D01*
X163601898Y-85804774D01*
X163401939Y-85765000D01*
X163198061Y-85765000D01*
X162998102Y-85804774D01*
X162809744Y-85882795D01*
X162640226Y-85996063D01*
X162496063Y-86140226D01*
X162382795Y-86309744D01*
X162304774Y-86498102D01*
X162265000Y-86698061D01*
X139395210Y-86698061D01*
X139317205Y-86509744D01*
X139203937Y-86340226D01*
X139059774Y-86196063D01*
X138890256Y-86082795D01*
X138701898Y-86004774D01*
X138501939Y-85965000D01*
X138298061Y-85965000D01*
X138098102Y-86004774D01*
X137909744Y-86082795D01*
X137740226Y-86196063D01*
X137596063Y-86340226D01*
X137482795Y-86509744D01*
X137404774Y-86698102D01*
X137365000Y-86898061D01*
X131127000Y-86898061D01*
X131127000Y-86227000D01*
X136700000Y-86227000D01*
X136724776Y-86224560D01*
X136748601Y-86217333D01*
X136770557Y-86205597D01*
X136789803Y-86189803D01*
X136805597Y-86170557D01*
X136817333Y-86148601D01*
X136824560Y-86124776D01*
X136827000Y-86100000D01*
X136827000Y-85498061D01*
X156365000Y-85498061D01*
X156365000Y-85701939D01*
X156404774Y-85901898D01*
X156482795Y-86090256D01*
X156596063Y-86259774D01*
X156740226Y-86403937D01*
X156909744Y-86517205D01*
X157098102Y-86595226D01*
X157298061Y-86635000D01*
X157501939Y-86635000D01*
X157701898Y-86595226D01*
X157890256Y-86517205D01*
X158059774Y-86403937D01*
X158203937Y-86259774D01*
X158317205Y-86090256D01*
X158395226Y-85901898D01*
X158435000Y-85701939D01*
X158435000Y-85498061D01*
X159190010Y-85498061D01*
X159190010Y-85701939D01*
X159229784Y-85901898D01*
X159307805Y-86090256D01*
X159421073Y-86259774D01*
X159565236Y-86403937D01*
X159734754Y-86517205D01*
X159923112Y-86595226D01*
X160123071Y-86635000D01*
X160326949Y-86635000D01*
X160526908Y-86595226D01*
X160715266Y-86517205D01*
X160884784Y-86403937D01*
X161028947Y-86259774D01*
X161142215Y-86090256D01*
X161220236Y-85901898D01*
X161260010Y-85701939D01*
X161260010Y-85498061D01*
X161220236Y-85298102D01*
X161142215Y-85109744D01*
X161082523Y-85020408D01*
X161090256Y-85017205D01*
X161259774Y-84903937D01*
X161403937Y-84759774D01*
X161517205Y-84590256D01*
X161595226Y-84401898D01*
X161635000Y-84201939D01*
X161635000Y-83998061D01*
X161595226Y-83798102D01*
X161517205Y-83609744D01*
X161403937Y-83440226D01*
X161259774Y-83296063D01*
X161090256Y-83182795D01*
X160901898Y-83104774D01*
X160701939Y-83065000D01*
X160498061Y-83065000D01*
X160298102Y-83104774D01*
X160109744Y-83182795D01*
X159940226Y-83296063D01*
X159796063Y-83440226D01*
X159682795Y-83609744D01*
X159604774Y-83798102D01*
X159565000Y-83998061D01*
X159565000Y-84201939D01*
X159604774Y-84401898D01*
X159682795Y-84590256D01*
X159742487Y-84679592D01*
X159734754Y-84682795D01*
X159565236Y-84796063D01*
X159421073Y-84940226D01*
X159307805Y-85109744D01*
X159229784Y-85298102D01*
X159190010Y-85498061D01*
X158435000Y-85498061D01*
X158395226Y-85298102D01*
X158317205Y-85109744D01*
X158203937Y-84940226D01*
X158059774Y-84796063D01*
X157890256Y-84682795D01*
X157701898Y-84604774D01*
X157501939Y-84565000D01*
X157298061Y-84565000D01*
X157098102Y-84604774D01*
X156909744Y-84682795D01*
X156740226Y-84796063D01*
X156596063Y-84940226D01*
X156482795Y-85109744D01*
X156404774Y-85298102D01*
X156365000Y-85498061D01*
X136827000Y-85498061D01*
X136827000Y-84442158D01*
X136835000Y-84401939D01*
X136835000Y-84198061D01*
X136827000Y-84157842D01*
X136827000Y-82398061D01*
X137465000Y-82398061D01*
X137465000Y-82601939D01*
X137504774Y-82801898D01*
X137582795Y-82990256D01*
X137696063Y-83159774D01*
X137840226Y-83303937D01*
X138009744Y-83417205D01*
X138198102Y-83495226D01*
X138398061Y-83535000D01*
X138601939Y-83535000D01*
X138801898Y-83495226D01*
X138990256Y-83417205D01*
X139159774Y-83303937D01*
X139303937Y-83159774D01*
X139417205Y-82990256D01*
X139495226Y-82801898D01*
X139535000Y-82601939D01*
X139535000Y-82398061D01*
X139495226Y-82198102D01*
X139417205Y-82009744D01*
X139303937Y-81840226D01*
X139159774Y-81696063D01*
X138990256Y-81582795D01*
X138801898Y-81504774D01*
X138601939Y-81465000D01*
X138398061Y-81465000D01*
X138198102Y-81504774D01*
X138009744Y-81582795D01*
X137840226Y-81696063D01*
X137696063Y-81840226D01*
X137582795Y-82009744D01*
X137504774Y-82198102D01*
X137465000Y-82398061D01*
X136827000Y-82398061D01*
X136827000Y-82142158D01*
X136835000Y-82101939D01*
X136835000Y-81898061D01*
X136827000Y-81857842D01*
X136827000Y-80098061D01*
X161365000Y-80098061D01*
X161365000Y-80301939D01*
X161404774Y-80501898D01*
X161482795Y-80690256D01*
X161596063Y-80859774D01*
X161740226Y-81003937D01*
X161909744Y-81117205D01*
X162098102Y-81195226D01*
X162298061Y-81235000D01*
X162501939Y-81235000D01*
X162701898Y-81195226D01*
X162890256Y-81117205D01*
X163059774Y-81003937D01*
X163151944Y-80911767D01*
X163309744Y-81017205D01*
X163498102Y-81095226D01*
X163698061Y-81135000D01*
X163730912Y-81135000D01*
X163704774Y-81198102D01*
X163665000Y-81398061D01*
X163665000Y-81601939D01*
X163704774Y-81801898D01*
X163782795Y-81990256D01*
X163896063Y-82159774D01*
X164040226Y-82303937D01*
X164209744Y-82417205D01*
X164398102Y-82495226D01*
X164598061Y-82535000D01*
X164801939Y-82535000D01*
X165001898Y-82495226D01*
X165190256Y-82417205D01*
X165359774Y-82303937D01*
X165503937Y-82159774D01*
X165617205Y-81990256D01*
X165695226Y-81801898D01*
X165735000Y-81601939D01*
X165735000Y-81398061D01*
X165695226Y-81198102D01*
X165617205Y-81009744D01*
X165562542Y-80927935D01*
X165598061Y-80935000D01*
X165801939Y-80935000D01*
X166001898Y-80895226D01*
X166190256Y-80817205D01*
X166359774Y-80703937D01*
X166503937Y-80559774D01*
X166617205Y-80390256D01*
X166695226Y-80201898D01*
X166735000Y-80001939D01*
X166735000Y-79798061D01*
X166695226Y-79598102D01*
X166617205Y-79409744D01*
X166503937Y-79240226D01*
X166359774Y-79096063D01*
X166190256Y-78982795D01*
X166001898Y-78904774D01*
X165801939Y-78865000D01*
X165598061Y-78865000D01*
X165398102Y-78904774D01*
X165209744Y-78982795D01*
X165040226Y-79096063D01*
X164896063Y-79240226D01*
X164782795Y-79409744D01*
X164706554Y-79593804D01*
X164603937Y-79440226D01*
X164459774Y-79296063D01*
X164290256Y-79182795D01*
X164101898Y-79104774D01*
X163901939Y-79065000D01*
X163698061Y-79065000D01*
X163498102Y-79104774D01*
X163309744Y-79182795D01*
X163140226Y-79296063D01*
X163048056Y-79388233D01*
X162890256Y-79282795D01*
X162701898Y-79204774D01*
X162501939Y-79165000D01*
X162298061Y-79165000D01*
X162098102Y-79204774D01*
X161909744Y-79282795D01*
X161740226Y-79396063D01*
X161596063Y-79540226D01*
X161482795Y-79709744D01*
X161404774Y-79898102D01*
X161365000Y-80098061D01*
X136827000Y-80098061D01*
X136827000Y-80035000D01*
X136901939Y-80035000D01*
X137101898Y-79995226D01*
X137290256Y-79917205D01*
X137459774Y-79803937D01*
X137603937Y-79659774D01*
X137717205Y-79490256D01*
X137795226Y-79301898D01*
X137835000Y-79101939D01*
X137835000Y-78898061D01*
X137815109Y-78798061D01*
X142669000Y-78798061D01*
X142669000Y-79001939D01*
X142708774Y-79201898D01*
X142786795Y-79390256D01*
X142900063Y-79559774D01*
X143044226Y-79703937D01*
X143213744Y-79817205D01*
X143402102Y-79895226D01*
X143602061Y-79935000D01*
X143805939Y-79935000D01*
X144005898Y-79895226D01*
X144194256Y-79817205D01*
X144363774Y-79703937D01*
X144507937Y-79559774D01*
X144621205Y-79390256D01*
X144699226Y-79201898D01*
X144739000Y-79001939D01*
X144739000Y-78798061D01*
X144719109Y-78698061D01*
X147765000Y-78698061D01*
X147765000Y-78901939D01*
X147804774Y-79101898D01*
X147882795Y-79290256D01*
X147996063Y-79459774D01*
X148140226Y-79603937D01*
X148309744Y-79717205D01*
X148498102Y-79795226D01*
X148698061Y-79835000D01*
X148901939Y-79835000D01*
X149101898Y-79795226D01*
X149290256Y-79717205D01*
X149459774Y-79603937D01*
X149603937Y-79459774D01*
X149717205Y-79290256D01*
X149795226Y-79101898D01*
X149835000Y-78901939D01*
X149835000Y-78698061D01*
X149795226Y-78498102D01*
X149717205Y-78309744D01*
X149603937Y-78140226D01*
X149459774Y-77996063D01*
X149290256Y-77882795D01*
X149101898Y-77804774D01*
X148901939Y-77765000D01*
X148698061Y-77765000D01*
X148498102Y-77804774D01*
X148309744Y-77882795D01*
X148140226Y-77996063D01*
X147996063Y-78140226D01*
X147882795Y-78309744D01*
X147804774Y-78498102D01*
X147765000Y-78698061D01*
X144719109Y-78698061D01*
X144699226Y-78598102D01*
X144621205Y-78409744D01*
X144507937Y-78240226D01*
X144363774Y-78096063D01*
X144194256Y-77982795D01*
X144005898Y-77904774D01*
X143805939Y-77865000D01*
X143602061Y-77865000D01*
X143402102Y-77904774D01*
X143213744Y-77982795D01*
X143044226Y-78096063D01*
X142900063Y-78240226D01*
X142786795Y-78409744D01*
X142708774Y-78598102D01*
X142669000Y-78798061D01*
X137815109Y-78798061D01*
X137795226Y-78698102D01*
X137717205Y-78509744D01*
X137603937Y-78340226D01*
X137459774Y-78196063D01*
X137290256Y-78082795D01*
X137101898Y-78004774D01*
X136901939Y-77965000D01*
X136827000Y-77965000D01*
X136827000Y-75098061D01*
X147265000Y-75098061D01*
X147265000Y-75301939D01*
X147304774Y-75501898D01*
X147382795Y-75690256D01*
X147496063Y-75859774D01*
X147640226Y-76003937D01*
X147809744Y-76117205D01*
X147998102Y-76195226D01*
X148198061Y-76235000D01*
X148401939Y-76235000D01*
X148601898Y-76195226D01*
X148790256Y-76117205D01*
X148959774Y-76003937D01*
X149065650Y-75898061D01*
X157265000Y-75898061D01*
X157265000Y-76101939D01*
X157304774Y-76301898D01*
X157382795Y-76490256D01*
X157496063Y-76659774D01*
X157640226Y-76803937D01*
X157809744Y-76917205D01*
X157998102Y-76995226D01*
X158198061Y-77035000D01*
X158401939Y-77035000D01*
X158601898Y-76995226D01*
X158790256Y-76917205D01*
X158959774Y-76803937D01*
X159103937Y-76659774D01*
X159217205Y-76490256D01*
X159295226Y-76301898D01*
X159335000Y-76101939D01*
X159335000Y-75898061D01*
X159295226Y-75698102D01*
X159217205Y-75509744D01*
X159103937Y-75340226D01*
X158959774Y-75196063D01*
X158790256Y-75082795D01*
X158601898Y-75004774D01*
X158401939Y-74965000D01*
X158198061Y-74965000D01*
X157998102Y-75004774D01*
X157809744Y-75082795D01*
X157640226Y-75196063D01*
X157496063Y-75340226D01*
X157382795Y-75509744D01*
X157304774Y-75698102D01*
X157265000Y-75898061D01*
X149065650Y-75898061D01*
X149103937Y-75859774D01*
X149217205Y-75690256D01*
X149295226Y-75501898D01*
X149335000Y-75301939D01*
X149335000Y-75098061D01*
X149295226Y-74898102D01*
X149217205Y-74709744D01*
X149103937Y-74540226D01*
X148959774Y-74396063D01*
X148790256Y-74282795D01*
X148601898Y-74204774D01*
X148401939Y-74165000D01*
X148198061Y-74165000D01*
X147998102Y-74204774D01*
X147809744Y-74282795D01*
X147640226Y-74396063D01*
X147496063Y-74540226D01*
X147382795Y-74709744D01*
X147304774Y-74898102D01*
X147265000Y-75098061D01*
X136827000Y-75098061D01*
X136827000Y-73698061D01*
X142865000Y-73698061D01*
X142865000Y-73901939D01*
X142904774Y-74101898D01*
X142982795Y-74290256D01*
X143096063Y-74459774D01*
X143240226Y-74603937D01*
X143409744Y-74717205D01*
X143598102Y-74795226D01*
X143798061Y-74835000D01*
X144001939Y-74835000D01*
X144201898Y-74795226D01*
X144390256Y-74717205D01*
X144559774Y-74603937D01*
X144703937Y-74459774D01*
X144817205Y-74290256D01*
X144895226Y-74101898D01*
X144935000Y-73901939D01*
X144935000Y-73698061D01*
X150965000Y-73698061D01*
X150965000Y-73901939D01*
X151004774Y-74101898D01*
X151082795Y-74290256D01*
X151196063Y-74459774D01*
X151340226Y-74603937D01*
X151509744Y-74717205D01*
X151698102Y-74795226D01*
X151898061Y-74835000D01*
X152101939Y-74835000D01*
X152301898Y-74795226D01*
X152490256Y-74717205D01*
X152659774Y-74603937D01*
X152803937Y-74459774D01*
X152917205Y-74290256D01*
X152995226Y-74101898D01*
X153035000Y-73901939D01*
X153035000Y-73698061D01*
X152995226Y-73498102D01*
X152917205Y-73309744D01*
X152803937Y-73140226D01*
X152659774Y-72996063D01*
X152490256Y-72882795D01*
X152301898Y-72804774D01*
X152101939Y-72765000D01*
X151898061Y-72765000D01*
X151698102Y-72804774D01*
X151509744Y-72882795D01*
X151340226Y-72996063D01*
X151196063Y-73140226D01*
X151082795Y-73309744D01*
X151004774Y-73498102D01*
X150965000Y-73698061D01*
X144935000Y-73698061D01*
X144895226Y-73498102D01*
X144817205Y-73309744D01*
X144703937Y-73140226D01*
X144559774Y-72996063D01*
X144390256Y-72882795D01*
X144201898Y-72804774D01*
X144001939Y-72765000D01*
X143798061Y-72765000D01*
X143598102Y-72804774D01*
X143409744Y-72882795D01*
X143240226Y-72996063D01*
X143096063Y-73140226D01*
X142982795Y-73309744D01*
X142904774Y-73498102D01*
X142865000Y-73698061D01*
X136827000Y-73698061D01*
X136827000Y-71898061D01*
X155965014Y-71898061D01*
X155965014Y-72101939D01*
X156004788Y-72301898D01*
X156082809Y-72490256D01*
X156196077Y-72659774D01*
X156340240Y-72803937D01*
X156509758Y-72917205D01*
X156698116Y-72995226D01*
X156898075Y-73035000D01*
X157101953Y-73035000D01*
X157301912Y-72995226D01*
X157490270Y-72917205D01*
X157659788Y-72803937D01*
X157803951Y-72659774D01*
X157917219Y-72490256D01*
X157995240Y-72301898D01*
X158035014Y-72101939D01*
X158035014Y-71898061D01*
X158015123Y-71798061D01*
X160565000Y-71798061D01*
X160565000Y-72001939D01*
X160604774Y-72201898D01*
X160682795Y-72390256D01*
X160796063Y-72559774D01*
X160940226Y-72703937D01*
X161109744Y-72817205D01*
X161298102Y-72895226D01*
X161498061Y-72935000D01*
X161701939Y-72935000D01*
X161901898Y-72895226D01*
X162090256Y-72817205D01*
X162259774Y-72703937D01*
X162403937Y-72559774D01*
X162517205Y-72390256D01*
X162595226Y-72201898D01*
X162635000Y-72001939D01*
X162635000Y-71798061D01*
X162595226Y-71598102D01*
X162517205Y-71409744D01*
X162403937Y-71240226D01*
X162259774Y-71096063D01*
X162090256Y-70982795D01*
X161901898Y-70904774D01*
X161701939Y-70865000D01*
X161498061Y-70865000D01*
X161298102Y-70904774D01*
X161109744Y-70982795D01*
X160940226Y-71096063D01*
X160796063Y-71240226D01*
X160682795Y-71409744D01*
X160604774Y-71598102D01*
X160565000Y-71798061D01*
X158015123Y-71798061D01*
X157995240Y-71698102D01*
X157917219Y-71509744D01*
X157803951Y-71340226D01*
X157659788Y-71196063D01*
X157490270Y-71082795D01*
X157301912Y-71004774D01*
X157101953Y-70965000D01*
X156898075Y-70965000D01*
X156698116Y-71004774D01*
X156509758Y-71082795D01*
X156340240Y-71196063D01*
X156196077Y-71340226D01*
X156082809Y-71509744D01*
X156004788Y-71698102D01*
X155965014Y-71898061D01*
X136827000Y-71898061D01*
X136827000Y-68727000D01*
X151974742Y-68727000D01*
X152109744Y-68817205D01*
G37*
%TD.AperFunction*%
%TD*%
M02*
