G04 #@! TF.GenerationSoftware,KiCad,Pcbnew,5.1.10-88a1d61d58~88~ubuntu20.04.1*
G04 #@! TF.CreationDate,2021-05-21T15:29:45+02:00*
G04 #@! TF.ProjectId,osw-light-modifiedv3,6f73772d-6c69-4676-9874-2d6d6f646966,rev?*
G04 #@! TF.SameCoordinates,Original*
G04 #@! TF.FileFunction,Legend,Top*
G04 #@! TF.FilePolarity,Positive*
%FSLAX46Y46*%
G04 Gerber Fmt 4.6, Leading zero omitted, Abs format (unit mm)*
G04 Created by KiCad (PCBNEW 5.1.10-88a1d61d58~88~ubuntu20.04.1) date 2021-05-21 15:29:45*
%MOMM*%
%LPD*%
G01*
G04 APERTURE LIST*
%ADD10C,0.120000*%
%ADD11C,0.150000*%
%ADD12C,0.050000*%
G04 APERTURE END LIST*
D10*
G04 #@! TO.C,U5*
X135070000Y-104650000D02*
X137270000Y-104650000D01*
X135070000Y-104650000D02*
X132870000Y-104650000D01*
X135070000Y-101430000D02*
X137270000Y-101430000D01*
X135070000Y-101430000D02*
X131470000Y-101430000D01*
G04 #@! TO.C,R34*
X138917500Y-95492742D02*
X138917500Y-95967258D01*
X139962500Y-95492742D02*
X139962500Y-95967258D01*
G04 #@! TO.C,D2*
X143100000Y-97352500D02*
X143100000Y-94667500D01*
X141180000Y-97352500D02*
X143100000Y-97352500D01*
X141180000Y-94667500D02*
X141180000Y-97352500D01*
G04 #@! TO.C,R32*
X145207258Y-99562500D02*
X144732742Y-99562500D01*
X145207258Y-98517500D02*
X144732742Y-98517500D01*
D11*
G04 #@! TO.C,U11*
X151799112Y-95719899D02*
X151640013Y-95560800D01*
X149430304Y-98088707D02*
X149218172Y-97876575D01*
X147061496Y-95719899D02*
X147273628Y-95932031D01*
X149430304Y-93351091D02*
X149642436Y-93563223D01*
X151799112Y-95719899D02*
X149430304Y-98088707D01*
X149430304Y-93351091D02*
X147061496Y-95719899D01*
X151640013Y-95560800D02*
X152506218Y-94694594D01*
D12*
G04 #@! TO.C,U12*
X155198400Y-106632000D02*
X145198400Y-106632000D01*
D11*
X146420000Y-101600000D02*
X147020000Y-101600000D01*
X146420000Y-103200000D02*
X146420000Y-101600000D01*
X154020000Y-101600000D02*
X153420000Y-101600000D01*
X154020000Y-103400000D02*
X154020000Y-101600000D01*
X148520000Y-101100000D02*
X148520000Y-101600000D01*
X149220000Y-101100000D02*
X148520000Y-101100000D01*
D10*
G04 #@! TO.C,R33*
X126393507Y-80560697D02*
X126868023Y-80560697D01*
X126393507Y-81605697D02*
X126868023Y-81605697D01*
G04 #@! TO.C,R25*
X119802742Y-65587500D02*
X120277258Y-65587500D01*
X119802742Y-66632500D02*
X120277258Y-66632500D01*
G04 #@! TO.C,R5*
X133392500Y-43002742D02*
X133392500Y-43477258D01*
X132347500Y-43002742D02*
X132347500Y-43477258D01*
G04 #@! TO.C,J2*
X121780000Y-41490000D02*
X121780000Y-40290000D01*
X121780000Y-40290000D02*
X122280000Y-40290000D01*
X122280000Y-40290000D02*
X122280000Y-37790000D01*
X122280000Y-37790000D02*
X127480000Y-37790000D01*
X127480000Y-37790000D02*
X127480000Y-40290000D01*
X127480000Y-40290000D02*
X127980000Y-40290000D01*
X127980000Y-40290000D02*
X127980000Y-43490000D01*
X127980000Y-46090000D02*
X127980000Y-54990000D01*
X127980000Y-54990000D02*
X127230000Y-54990000D01*
X124030000Y-54990000D02*
X121780000Y-54990000D01*
X121780000Y-54990000D02*
X121780000Y-53790000D01*
X121780000Y-50590000D02*
X121780000Y-44090000D01*
X121780000Y-41490000D02*
X119780000Y-41490000D01*
X121780000Y-44090000D02*
X119780000Y-44090000D01*
G04 #@! TO.C,R17*
X139532742Y-39217500D02*
X140007258Y-39217500D01*
X139532742Y-40262500D02*
X140007258Y-40262500D01*
G04 #@! TO.C,R18*
X142747500Y-41077258D02*
X142747500Y-40602742D01*
X143792500Y-41077258D02*
X143792500Y-40602742D01*
G04 #@! TO.C,R4*
X118202500Y-51152742D02*
X118202500Y-51627258D01*
X117157500Y-51152742D02*
X117157500Y-51627258D01*
G04 #@! TO.C,R22*
X124293507Y-74060697D02*
X124768023Y-74060697D01*
X124293507Y-75105697D02*
X124768023Y-75105697D01*
D11*
G04 #@! TO.C,SW3*
X156076999Y-64754999D02*
X154536999Y-64754999D01*
X156076999Y-62754999D02*
X156076999Y-64754999D01*
X154536999Y-62754999D02*
X156076999Y-62754999D01*
X154536999Y-61214999D02*
X152536999Y-61214999D01*
X154536999Y-66294999D02*
X154536999Y-61214999D01*
X152536999Y-66294999D02*
X154536999Y-66294999D01*
X152536999Y-61214999D02*
X152536999Y-66294999D01*
D10*
G04 #@! TO.C,U1*
X127630000Y-90240000D02*
X127630000Y-92190000D01*
X127630000Y-90240000D02*
X127630000Y-88290000D01*
X132750000Y-90240000D02*
X132750000Y-92190000D01*
X132750000Y-90240000D02*
X132750000Y-86790000D01*
G04 #@! TO.C,R13*
X126732500Y-89842742D02*
X126732500Y-90317258D01*
X125687500Y-89842742D02*
X125687500Y-90317258D01*
G04 #@! TO.C,R30*
X143392500Y-67402742D02*
X143392500Y-67877258D01*
X142347500Y-67402742D02*
X142347500Y-67877258D01*
G04 #@! TO.C,J1*
X142900000Y-62385000D02*
X142900000Y-60995000D01*
X147020000Y-62385000D02*
X147020000Y-60995000D01*
X142900000Y-62385000D02*
X142900000Y-63380000D01*
X142900000Y-62385000D02*
X142900000Y-62385000D01*
X147020000Y-60995000D02*
X147020000Y-60995000D01*
X142900000Y-60995000D02*
X143900000Y-60995000D01*
X145020000Y-60995000D02*
X145900000Y-60995000D01*
X144020000Y-62385000D02*
X144900000Y-62385000D01*
X146020000Y-62385000D02*
X147020000Y-62385000D01*
G04 #@! TO.C,R19*
X147262742Y-46107500D02*
X147737258Y-46107500D01*
X147262742Y-47152500D02*
X147737258Y-47152500D01*
G04 #@! TO.C,R20*
X124412742Y-95507500D02*
X124887258Y-95507500D01*
X124412742Y-96552500D02*
X124887258Y-96552500D01*
G04 #@! TO.C,R26*
X148347500Y-88377258D02*
X148347500Y-87902742D01*
X149392500Y-88377258D02*
X149392500Y-87902742D01*
G04 #@! TO.C,R10*
X137402742Y-44917500D02*
X137877258Y-44917500D01*
X137402742Y-45962500D02*
X137877258Y-45962500D01*
G04 #@! TO.C,R9*
X139892500Y-51312742D02*
X139892500Y-51787258D01*
X138847500Y-51312742D02*
X138847500Y-51787258D01*
G04 #@! TO.C,Q1*
X121350765Y-82043196D02*
X122280765Y-82043196D01*
X124510765Y-82043196D02*
X123580765Y-82043196D01*
X124510765Y-82043196D02*
X124510765Y-79883196D01*
X121350765Y-82043196D02*
X121350765Y-80583196D01*
G04 #@! TO.C,U2*
X121500000Y-100180000D02*
X119700000Y-100180000D01*
X119700000Y-103400000D02*
X122150000Y-103400000D01*
G04 #@! TO.C,R1*
X120387258Y-98802500D02*
X119912742Y-98802500D01*
X120387258Y-97757500D02*
X119912742Y-97757500D01*
G04 #@! TO.C,D1*
X126110000Y-98260000D02*
X126110000Y-100945000D01*
X126110000Y-100945000D02*
X128030000Y-100945000D01*
X128030000Y-100945000D02*
X128030000Y-98260000D01*
G04 #@! TO.C,R27*
X146022500Y-67402742D02*
X146022500Y-67877258D01*
X144977500Y-67402742D02*
X144977500Y-67877258D01*
G04 #@! TO.C,U4*
X138440000Y-89490000D02*
X138440000Y-89490000D01*
X137940000Y-89490000D02*
X138440000Y-89490000D01*
X138440000Y-87790000D02*
X138440000Y-87790000D01*
X138440000Y-87290000D02*
X138440000Y-87790000D01*
X137940000Y-87290000D02*
X138440000Y-87290000D01*
X136740000Y-87290000D02*
X136740000Y-87290000D01*
X136240000Y-87290000D02*
X136740000Y-87290000D01*
X136240000Y-87790000D02*
X136240000Y-87290000D01*
X136240000Y-88990000D02*
X136240000Y-88990000D01*
X136240000Y-89490000D02*
X136240000Y-88990000D01*
X136740000Y-89490000D02*
X136240000Y-89490000D01*
G04 #@! TO.C,R14*
X129147500Y-103977258D02*
X129147500Y-103502742D01*
X130192500Y-103977258D02*
X130192500Y-103502742D01*
D11*
G04 #@! TO.C,SW2*
X115400000Y-61170000D02*
X116940000Y-61170000D01*
X115400000Y-63170000D02*
X115400000Y-61170000D01*
X116940000Y-63170000D02*
X115400000Y-63170000D01*
X116940000Y-64710000D02*
X118940000Y-64710000D01*
X116940000Y-59630000D02*
X116940000Y-64710000D01*
X118940000Y-59630000D02*
X116940000Y-59630000D01*
X118940000Y-64710000D02*
X118940000Y-59630000D01*
D10*
G04 #@! TO.C,C20*
X132761573Y-66799319D02*
X132761573Y-67080479D01*
X131741573Y-66799319D02*
X131741573Y-67080479D01*
G04 #@! TO.C,R24*
X119772500Y-74802742D02*
X119772500Y-75277258D01*
X118727500Y-74802742D02*
X118727500Y-75277258D01*
G04 #@! TO.C,R11*
X133332742Y-46117500D02*
X133807258Y-46117500D01*
X133332742Y-47162500D02*
X133807258Y-47162500D01*
G04 #@! TO.C,R15*
X135537258Y-100402500D02*
X135062742Y-100402500D01*
X135537258Y-99357500D02*
X135062742Y-99357500D01*
G04 #@! TO.C,R21*
X124907258Y-94352500D02*
X124432742Y-94352500D01*
X124907258Y-93307500D02*
X124432742Y-93307500D01*
G04 #@! TO.C,R8*
X144932742Y-50217500D02*
X145407258Y-50217500D01*
X144932742Y-51262500D02*
X145407258Y-51262500D01*
G04 #@! TO.C,R23*
X122593506Y-77360695D02*
X123068022Y-77360695D01*
X122593506Y-78405695D02*
X123068022Y-78405695D01*
G04 #@! TO.C,R6*
X134692500Y-51302742D02*
X134692500Y-51777258D01*
X133647500Y-51302742D02*
X133647500Y-51777258D01*
G04 #@! TO.C,R29*
X151847500Y-88377258D02*
X151847500Y-87902742D01*
X152892500Y-88377258D02*
X152892500Y-87902742D01*
G04 #@! TO.C,R31*
X120787500Y-86197258D02*
X120787500Y-85722742D01*
X121832500Y-86197258D02*
X121832500Y-85722742D01*
G04 #@! TO.C,C26*
X146778243Y-93125227D02*
X146977054Y-92926416D01*
X147499492Y-93846476D02*
X147698303Y-93647665D01*
G04 #@! TO.C,C24*
X127320764Y-78423777D02*
X127320764Y-78142617D01*
X128340764Y-78423777D02*
X128340764Y-78142617D01*
G04 #@! TO.C,R2*
X117992500Y-41702742D02*
X117992500Y-42177258D01*
X116947500Y-41702742D02*
X116947500Y-42177258D01*
G04 #@! TO.C,J3*
X116280000Y-93540000D02*
X116280000Y-96200000D01*
X118880000Y-93540000D02*
X116280000Y-93540000D01*
X118880000Y-96200000D02*
X116280000Y-96200000D01*
X118880000Y-93540000D02*
X118880000Y-96200000D01*
X120150000Y-93540000D02*
X121480000Y-93540000D01*
X121480000Y-93540000D02*
X121480000Y-94870000D01*
G04 #@! TO.C,R28*
X149487500Y-66647258D02*
X149487500Y-66172742D01*
X150532500Y-66647258D02*
X150532500Y-66172742D01*
G04 #@! TO.C,R16*
X145147500Y-41077258D02*
X145147500Y-40602742D01*
X146192500Y-41077258D02*
X146192500Y-40602742D01*
G04 #@! TO.C,R3*
X137392500Y-51312742D02*
X137392500Y-51787258D01*
X136347500Y-51312742D02*
X136347500Y-51787258D01*
G04 #@! TO.C,R12*
X120402742Y-104677500D02*
X120877258Y-104677500D01*
X120402742Y-105722500D02*
X120877258Y-105722500D01*
D11*
G04 #@! TO.C,SW4*
X115033001Y-84975001D02*
X116573001Y-84975001D01*
X115033001Y-86975001D02*
X115033001Y-84975001D01*
X116573001Y-86975001D02*
X115033001Y-86975001D01*
X116573001Y-88515001D02*
X118573001Y-88515001D01*
X116573001Y-83435001D02*
X116573001Y-88515001D01*
X118573001Y-83435001D02*
X116573001Y-83435001D01*
X118573001Y-88515001D02*
X118573001Y-83435001D01*
D10*
G04 #@! TO.C,R7*
X143837500Y-54077258D02*
X143837500Y-53602742D01*
X144882500Y-54077258D02*
X144882500Y-53602742D01*
D11*
G04 #@! TO.C,U6*
X156620000Y-71640000D02*
X156620000Y-84640000D01*
X154920000Y-84640000D02*
X156620000Y-84640000D01*
X154920000Y-71640000D02*
X156620000Y-71640000D01*
X138670000Y-72340000D02*
X138670000Y-71640000D01*
X139370000Y-71640000D02*
X138670000Y-71640000D01*
X138670000Y-83940000D02*
X138670000Y-84640000D01*
X139370000Y-84640000D02*
X138670000Y-84640000D01*
X140121500Y-72870000D02*
X153266000Y-72870000D01*
X140121500Y-83410000D02*
X140121500Y-72870000D01*
X153266000Y-83410000D02*
X140121500Y-83410000D01*
X153266000Y-72870000D02*
X153266000Y-83410000D01*
X154863000Y-81946000D02*
X156387000Y-81946000D01*
X154863000Y-83470000D02*
X154863000Y-81946000D01*
X156387000Y-83470000D02*
X154863000Y-83470000D01*
X156387000Y-81946000D02*
X156387000Y-83470000D01*
X156260000Y-82708000D02*
G75*
G03*
X156260000Y-82708000I-635000J0D01*
G01*
X156170000Y-79202000D02*
X156170000Y-72471000D01*
X154970000Y-79202000D02*
X156170000Y-79202000D01*
X154970000Y-72471000D02*
X154970000Y-79202000D01*
X156170000Y-72471000D02*
X154970000Y-72471000D01*
D10*
G04 #@! TO.C,U8*
X125351573Y-68849899D02*
X127151573Y-68849899D01*
X127151573Y-65629899D02*
X124701573Y-65629899D01*
D11*
G04 #@! TO.C,U7*
X149160000Y-53615000D02*
X149160000Y-52540000D01*
X146085000Y-53615000D02*
X146085000Y-56865000D01*
X149335000Y-53615000D02*
X149335000Y-56865000D01*
X146085000Y-53615000D02*
X146360000Y-53615000D01*
X146085000Y-56865000D02*
X146360000Y-56865000D01*
X149335000Y-56865000D02*
X149060000Y-56865000D01*
X149335000Y-53615000D02*
X149160000Y-53615000D01*
D10*
G04 #@! TO.C,U9*
X140940000Y-62220000D02*
X140940000Y-60420000D01*
X137720000Y-60420000D02*
X137720000Y-62870000D01*
D11*
G04 #@! TO.C,SW1*
X115440000Y-69130000D02*
X116980000Y-69130000D01*
X115440000Y-71130000D02*
X115440000Y-69130000D01*
X116980000Y-71130000D02*
X115440000Y-71130000D01*
X116980000Y-72670000D02*
X118980000Y-72670000D01*
X116980000Y-67590000D02*
X116980000Y-72670000D01*
X118980000Y-67590000D02*
X116980000Y-67590000D01*
X118980000Y-72670000D02*
X118980000Y-67590000D01*
D10*
G04 #@! TO.C,C23*
X139079420Y-54850000D02*
X139360580Y-54850000D01*
X139079420Y-55870000D02*
X139360580Y-55870000D01*
G04 #@! TO.C,C22*
X130261573Y-66779319D02*
X130261573Y-67060479D01*
X129241573Y-66779319D02*
X129241573Y-67060479D01*
G04 #@! TO.C,C21*
X139064420Y-57340000D02*
X139345580Y-57340000D01*
X139064420Y-58360000D02*
X139345580Y-58360000D01*
G04 #@! TO.C,C19*
X151520000Y-55199420D02*
X151520000Y-55480580D01*
X150500000Y-55199420D02*
X150500000Y-55480580D01*
G04 #@! TO.C,C18*
X131760000Y-60880580D02*
X131760000Y-60599420D01*
X132780000Y-60880580D02*
X132780000Y-60599420D01*
G04 #@! TO.C,C17*
X126042153Y-60619899D02*
X125760993Y-60619899D01*
X126042153Y-59599899D02*
X125760993Y-59599899D01*
G04 #@! TO.C,C16*
X134340000Y-61551252D02*
X134340000Y-60128748D01*
X136160000Y-61551252D02*
X136160000Y-60128748D01*
G04 #@! TO.C,C15*
X126612825Y-64019899D02*
X125190321Y-64019899D01*
X126612825Y-62199899D02*
X125190321Y-62199899D01*
G04 #@! TO.C,C14*
X141049420Y-101040000D02*
X141330580Y-101040000D01*
X141049420Y-102060000D02*
X141330580Y-102060000D01*
G04 #@! TO.C,C13*
X147660000Y-40980580D02*
X147660000Y-40699420D01*
X148680000Y-40980580D02*
X148680000Y-40699420D01*
G04 #@! TO.C,C12*
X141049420Y-104040000D02*
X141330580Y-104040000D01*
X141049420Y-105060000D02*
X141330580Y-105060000D01*
G04 #@! TO.C,C11*
X135280000Y-87899420D02*
X135280000Y-88180580D01*
X134260000Y-87899420D02*
X134260000Y-88180580D01*
G04 #@! TO.C,C10*
X147570580Y-44390000D02*
X147289420Y-44390000D01*
X147570580Y-43370000D02*
X147289420Y-43370000D01*
G04 #@! TO.C,C9*
X153129420Y-68730000D02*
X153410580Y-68730000D01*
X153129420Y-69750000D02*
X153410580Y-69750000D01*
G04 #@! TO.C,C8*
X141080000Y-42599420D02*
X141080000Y-42880580D01*
X140060000Y-42599420D02*
X140060000Y-42880580D01*
G04 #@! TO.C,C7*
X124650000Y-100719420D02*
X124650000Y-101000580D01*
X123630000Y-100719420D02*
X123630000Y-101000580D01*
G04 #@! TO.C,C6*
X135280000Y-91999420D02*
X135280000Y-92280580D01*
X134260000Y-91999420D02*
X134260000Y-92280580D01*
G04 #@! TO.C,C5*
X142380000Y-51409420D02*
X142380000Y-51690580D01*
X141360000Y-51409420D02*
X141360000Y-51690580D01*
G04 #@! TO.C,C4*
X138810580Y-48450000D02*
X138529420Y-48450000D01*
X138810580Y-47430000D02*
X138529420Y-47430000D01*
G04 #@! TO.C,C3*
X116630000Y-101630580D02*
X116630000Y-101349420D01*
X117650000Y-101630580D02*
X117650000Y-101349420D01*
G04 #@! TO.C,C2*
X135960000Y-40680580D02*
X135960000Y-40399420D01*
X136980000Y-40680580D02*
X136980000Y-40399420D01*
G04 #@! TO.C,C1*
X143489420Y-56510000D02*
X143770580Y-56510000D01*
X143489420Y-57530000D02*
X143770580Y-57530000D01*
G04 #@! TO.C,U5*
D11*
X131038095Y-100052380D02*
X131038095Y-100861904D01*
X131085714Y-100957142D01*
X131133333Y-101004761D01*
X131228571Y-101052380D01*
X131419047Y-101052380D01*
X131514285Y-101004761D01*
X131561904Y-100957142D01*
X131609523Y-100861904D01*
X131609523Y-100052380D01*
X132561904Y-100052380D02*
X132085714Y-100052380D01*
X132038095Y-100528571D01*
X132085714Y-100480952D01*
X132180952Y-100433333D01*
X132419047Y-100433333D01*
X132514285Y-100480952D01*
X132561904Y-100528571D01*
X132609523Y-100623809D01*
X132609523Y-100861904D01*
X132561904Y-100957142D01*
X132514285Y-101004761D01*
X132419047Y-101052380D01*
X132180952Y-101052380D01*
X132085714Y-101004761D01*
X132038095Y-100957142D01*
G04 #@! TO.C,R34*
X140857142Y-98952380D02*
X140523809Y-98476190D01*
X140285714Y-98952380D02*
X140285714Y-97952380D01*
X140666666Y-97952380D01*
X140761904Y-98000000D01*
X140809523Y-98047619D01*
X140857142Y-98142857D01*
X140857142Y-98285714D01*
X140809523Y-98380952D01*
X140761904Y-98428571D01*
X140666666Y-98476190D01*
X140285714Y-98476190D01*
X141190476Y-97952380D02*
X141809523Y-97952380D01*
X141476190Y-98333333D01*
X141619047Y-98333333D01*
X141714285Y-98380952D01*
X141761904Y-98428571D01*
X141809523Y-98523809D01*
X141809523Y-98761904D01*
X141761904Y-98857142D01*
X141714285Y-98904761D01*
X141619047Y-98952380D01*
X141333333Y-98952380D01*
X141238095Y-98904761D01*
X141190476Y-98857142D01*
X142666666Y-98285714D02*
X142666666Y-98952380D01*
X142428571Y-97904761D02*
X142190476Y-98619047D01*
X142809523Y-98619047D01*
G04 #@! TO.C,D2*
X136761904Y-96952380D02*
X136761904Y-95952380D01*
X137000000Y-95952380D01*
X137142857Y-96000000D01*
X137238095Y-96095238D01*
X137285714Y-96190476D01*
X137333333Y-96380952D01*
X137333333Y-96523809D01*
X137285714Y-96714285D01*
X137238095Y-96809523D01*
X137142857Y-96904761D01*
X137000000Y-96952380D01*
X136761904Y-96952380D01*
X137714285Y-96047619D02*
X137761904Y-96000000D01*
X137857142Y-95952380D01*
X138095238Y-95952380D01*
X138190476Y-96000000D01*
X138238095Y-96047619D01*
X138285714Y-96142857D01*
X138285714Y-96238095D01*
X138238095Y-96380952D01*
X137666666Y-96952380D01*
X138285714Y-96952380D01*
G04 #@! TO.C,R32*
X144057142Y-100952380D02*
X143723809Y-100476190D01*
X143485714Y-100952380D02*
X143485714Y-99952380D01*
X143866666Y-99952380D01*
X143961904Y-100000000D01*
X144009523Y-100047619D01*
X144057142Y-100142857D01*
X144057142Y-100285714D01*
X144009523Y-100380952D01*
X143961904Y-100428571D01*
X143866666Y-100476190D01*
X143485714Y-100476190D01*
X144390476Y-99952380D02*
X145009523Y-99952380D01*
X144676190Y-100333333D01*
X144819047Y-100333333D01*
X144914285Y-100380952D01*
X144961904Y-100428571D01*
X145009523Y-100523809D01*
X145009523Y-100761904D01*
X144961904Y-100857142D01*
X144914285Y-100904761D01*
X144819047Y-100952380D01*
X144533333Y-100952380D01*
X144438095Y-100904761D01*
X144390476Y-100857142D01*
X145390476Y-100047619D02*
X145438095Y-100000000D01*
X145533333Y-99952380D01*
X145771428Y-99952380D01*
X145866666Y-100000000D01*
X145914285Y-100047619D01*
X145961904Y-100142857D01*
X145961904Y-100238095D01*
X145914285Y-100380952D01*
X145342857Y-100952380D01*
X145961904Y-100952380D01*
G04 #@! TO.C,U11*
X150006091Y-98046617D02*
X150578511Y-98619037D01*
X150679526Y-98652708D01*
X150746869Y-98652708D01*
X150847885Y-98619037D01*
X150982572Y-98484350D01*
X151016243Y-98383334D01*
X151016243Y-98315991D01*
X150982572Y-98214976D01*
X150410152Y-97642556D01*
X151824365Y-97642556D02*
X151420304Y-98046617D01*
X151622335Y-97844586D02*
X150915228Y-97137480D01*
X150948900Y-97305838D01*
X150948900Y-97440525D01*
X150915228Y-97541541D01*
X152497800Y-96969121D02*
X152093739Y-97373182D01*
X152295770Y-97171151D02*
X151588663Y-96464045D01*
X151622335Y-96632403D01*
X151622335Y-96767090D01*
X151588663Y-96868106D01*
G04 #@! TO.C,U12*
X143261904Y-104452380D02*
X143261904Y-105261904D01*
X143309523Y-105357142D01*
X143357142Y-105404761D01*
X143452380Y-105452380D01*
X143642857Y-105452380D01*
X143738095Y-105404761D01*
X143785714Y-105357142D01*
X143833333Y-105261904D01*
X143833333Y-104452380D01*
X144833333Y-105452380D02*
X144261904Y-105452380D01*
X144547619Y-105452380D02*
X144547619Y-104452380D01*
X144452380Y-104595238D01*
X144357142Y-104690476D01*
X144261904Y-104738095D01*
X145214285Y-104547619D02*
X145261904Y-104500000D01*
X145357142Y-104452380D01*
X145595238Y-104452380D01*
X145690476Y-104500000D01*
X145738095Y-104547619D01*
X145785714Y-104642857D01*
X145785714Y-104738095D01*
X145738095Y-104880952D01*
X145166666Y-105452380D01*
X145785714Y-105452380D01*
G04 #@! TO.C,R33*
X125987907Y-80105577D02*
X125654574Y-79629387D01*
X125416479Y-80105577D02*
X125416479Y-79105577D01*
X125797431Y-79105577D01*
X125892669Y-79153197D01*
X125940288Y-79200816D01*
X125987907Y-79296054D01*
X125987907Y-79438911D01*
X125940288Y-79534149D01*
X125892669Y-79581768D01*
X125797431Y-79629387D01*
X125416479Y-79629387D01*
X126321241Y-79105577D02*
X126940288Y-79105577D01*
X126606955Y-79486530D01*
X126749812Y-79486530D01*
X126845050Y-79534149D01*
X126892669Y-79581768D01*
X126940288Y-79677006D01*
X126940288Y-79915101D01*
X126892669Y-80010339D01*
X126845050Y-80057958D01*
X126749812Y-80105577D01*
X126464098Y-80105577D01*
X126368860Y-80057958D01*
X126321241Y-80010339D01*
X127273622Y-79105577D02*
X127892669Y-79105577D01*
X127559336Y-79486530D01*
X127702193Y-79486530D01*
X127797431Y-79534149D01*
X127845050Y-79581768D01*
X127892669Y-79677006D01*
X127892669Y-79915101D01*
X127845050Y-80010339D01*
X127797431Y-80057958D01*
X127702193Y-80105577D01*
X127416479Y-80105577D01*
X127321241Y-80057958D01*
X127273622Y-80010339D01*
G04 #@! TO.C,R25*
X119597142Y-68362380D02*
X119263809Y-67886190D01*
X119025714Y-68362380D02*
X119025714Y-67362380D01*
X119406666Y-67362380D01*
X119501904Y-67410000D01*
X119549523Y-67457619D01*
X119597142Y-67552857D01*
X119597142Y-67695714D01*
X119549523Y-67790952D01*
X119501904Y-67838571D01*
X119406666Y-67886190D01*
X119025714Y-67886190D01*
X119978095Y-67457619D02*
X120025714Y-67410000D01*
X120120952Y-67362380D01*
X120359047Y-67362380D01*
X120454285Y-67410000D01*
X120501904Y-67457619D01*
X120549523Y-67552857D01*
X120549523Y-67648095D01*
X120501904Y-67790952D01*
X119930476Y-68362380D01*
X120549523Y-68362380D01*
X121454285Y-67362380D02*
X120978095Y-67362380D01*
X120930476Y-67838571D01*
X120978095Y-67790952D01*
X121073333Y-67743333D01*
X121311428Y-67743333D01*
X121406666Y-67790952D01*
X121454285Y-67838571D01*
X121501904Y-67933809D01*
X121501904Y-68171904D01*
X121454285Y-68267142D01*
X121406666Y-68314761D01*
X121311428Y-68362380D01*
X121073333Y-68362380D01*
X120978095Y-68314761D01*
X120930476Y-68267142D01*
G04 #@! TO.C,R5*
X130733333Y-42252380D02*
X130400000Y-41776190D01*
X130161904Y-42252380D02*
X130161904Y-41252380D01*
X130542857Y-41252380D01*
X130638095Y-41300000D01*
X130685714Y-41347619D01*
X130733333Y-41442857D01*
X130733333Y-41585714D01*
X130685714Y-41680952D01*
X130638095Y-41728571D01*
X130542857Y-41776190D01*
X130161904Y-41776190D01*
X131638095Y-41252380D02*
X131161904Y-41252380D01*
X131114285Y-41728571D01*
X131161904Y-41680952D01*
X131257142Y-41633333D01*
X131495238Y-41633333D01*
X131590476Y-41680952D01*
X131638095Y-41728571D01*
X131685714Y-41823809D01*
X131685714Y-42061904D01*
X131638095Y-42157142D01*
X131590476Y-42204761D01*
X131495238Y-42252380D01*
X131257142Y-42252380D01*
X131161904Y-42204761D01*
X131114285Y-42157142D01*
G04 #@! TO.C,J2*
X129166666Y-38452380D02*
X129166666Y-39166666D01*
X129119047Y-39309523D01*
X129023809Y-39404761D01*
X128880952Y-39452380D01*
X128785714Y-39452380D01*
X129595238Y-38547619D02*
X129642857Y-38500000D01*
X129738095Y-38452380D01*
X129976190Y-38452380D01*
X130071428Y-38500000D01*
X130119047Y-38547619D01*
X130166666Y-38642857D01*
X130166666Y-38738095D01*
X130119047Y-38880952D01*
X129547619Y-39452380D01*
X130166666Y-39452380D01*
G04 #@! TO.C,R17*
X139457142Y-38652380D02*
X139123809Y-38176190D01*
X138885714Y-38652380D02*
X138885714Y-37652380D01*
X139266666Y-37652380D01*
X139361904Y-37700000D01*
X139409523Y-37747619D01*
X139457142Y-37842857D01*
X139457142Y-37985714D01*
X139409523Y-38080952D01*
X139361904Y-38128571D01*
X139266666Y-38176190D01*
X138885714Y-38176190D01*
X140409523Y-38652380D02*
X139838095Y-38652380D01*
X140123809Y-38652380D02*
X140123809Y-37652380D01*
X140028571Y-37795238D01*
X139933333Y-37890476D01*
X139838095Y-37938095D01*
X140742857Y-37652380D02*
X141409523Y-37652380D01*
X140980952Y-38652380D01*
G04 #@! TO.C,R18*
X142657142Y-38552380D02*
X142323809Y-38076190D01*
X142085714Y-38552380D02*
X142085714Y-37552380D01*
X142466666Y-37552380D01*
X142561904Y-37600000D01*
X142609523Y-37647619D01*
X142657142Y-37742857D01*
X142657142Y-37885714D01*
X142609523Y-37980952D01*
X142561904Y-38028571D01*
X142466666Y-38076190D01*
X142085714Y-38076190D01*
X143609523Y-38552380D02*
X143038095Y-38552380D01*
X143323809Y-38552380D02*
X143323809Y-37552380D01*
X143228571Y-37695238D01*
X143133333Y-37790476D01*
X143038095Y-37838095D01*
X144180952Y-37980952D02*
X144085714Y-37933333D01*
X144038095Y-37885714D01*
X143990476Y-37790476D01*
X143990476Y-37742857D01*
X144038095Y-37647619D01*
X144085714Y-37600000D01*
X144180952Y-37552380D01*
X144371428Y-37552380D01*
X144466666Y-37600000D01*
X144514285Y-37647619D01*
X144561904Y-37742857D01*
X144561904Y-37790476D01*
X144514285Y-37885714D01*
X144466666Y-37933333D01*
X144371428Y-37980952D01*
X144180952Y-37980952D01*
X144085714Y-38028571D01*
X144038095Y-38076190D01*
X143990476Y-38171428D01*
X143990476Y-38361904D01*
X144038095Y-38457142D01*
X144085714Y-38504761D01*
X144180952Y-38552380D01*
X144371428Y-38552380D01*
X144466666Y-38504761D01*
X144514285Y-38457142D01*
X144561904Y-38361904D01*
X144561904Y-38171428D01*
X144514285Y-38076190D01*
X144466666Y-38028571D01*
X144371428Y-37980952D01*
G04 #@! TO.C,R4*
X117433333Y-49352380D02*
X117100000Y-48876190D01*
X116861904Y-49352380D02*
X116861904Y-48352380D01*
X117242857Y-48352380D01*
X117338095Y-48400000D01*
X117385714Y-48447619D01*
X117433333Y-48542857D01*
X117433333Y-48685714D01*
X117385714Y-48780952D01*
X117338095Y-48828571D01*
X117242857Y-48876190D01*
X116861904Y-48876190D01*
X118290476Y-48685714D02*
X118290476Y-49352380D01*
X118052380Y-48304761D02*
X117814285Y-49019047D01*
X118433333Y-49019047D01*
G04 #@! TO.C,R22*
X123757142Y-73452380D02*
X123423809Y-72976190D01*
X123185714Y-73452380D02*
X123185714Y-72452380D01*
X123566666Y-72452380D01*
X123661904Y-72500000D01*
X123709523Y-72547619D01*
X123757142Y-72642857D01*
X123757142Y-72785714D01*
X123709523Y-72880952D01*
X123661904Y-72928571D01*
X123566666Y-72976190D01*
X123185714Y-72976190D01*
X124138095Y-72547619D02*
X124185714Y-72500000D01*
X124280952Y-72452380D01*
X124519047Y-72452380D01*
X124614285Y-72500000D01*
X124661904Y-72547619D01*
X124709523Y-72642857D01*
X124709523Y-72738095D01*
X124661904Y-72880952D01*
X124090476Y-73452380D01*
X124709523Y-73452380D01*
X125090476Y-72547619D02*
X125138095Y-72500000D01*
X125233333Y-72452380D01*
X125471428Y-72452380D01*
X125566666Y-72500000D01*
X125614285Y-72547619D01*
X125661904Y-72642857D01*
X125661904Y-72738095D01*
X125614285Y-72880952D01*
X125042857Y-73452380D01*
X125661904Y-73452380D01*
G04 #@! TO.C,SW3*
X154183333Y-59733333D02*
X154216666Y-59633333D01*
X154216666Y-59466666D01*
X154183333Y-59400000D01*
X154150000Y-59366666D01*
X154083333Y-59333333D01*
X154016666Y-59333333D01*
X153950000Y-59366666D01*
X153916666Y-59400000D01*
X153883333Y-59466666D01*
X153850000Y-59600000D01*
X153816666Y-59666666D01*
X153783333Y-59700000D01*
X153716666Y-59733333D01*
X153650000Y-59733333D01*
X153583333Y-59700000D01*
X153550000Y-59666666D01*
X153516666Y-59600000D01*
X153516666Y-59433333D01*
X153550000Y-59333333D01*
X153516666Y-59100000D02*
X154216666Y-58933333D01*
X153716666Y-58800000D01*
X154216666Y-58666666D01*
X153516666Y-58500000D01*
X153516666Y-58300000D02*
X153516666Y-57866666D01*
X153783333Y-58100000D01*
X153783333Y-58000000D01*
X153816666Y-57933333D01*
X153850000Y-57900000D01*
X153916666Y-57866666D01*
X154083333Y-57866666D01*
X154150000Y-57900000D01*
X154183333Y-57933333D01*
X154216666Y-58000000D01*
X154216666Y-58200000D01*
X154183333Y-58266666D01*
X154150000Y-58300000D01*
G04 #@! TO.C,U1*
X127438095Y-85152380D02*
X127438095Y-85961904D01*
X127485714Y-86057142D01*
X127533333Y-86104761D01*
X127628571Y-86152380D01*
X127819047Y-86152380D01*
X127914285Y-86104761D01*
X127961904Y-86057142D01*
X128009523Y-85961904D01*
X128009523Y-85152380D01*
X129009523Y-86152380D02*
X128438095Y-86152380D01*
X128723809Y-86152380D02*
X128723809Y-85152380D01*
X128628571Y-85295238D01*
X128533333Y-85390476D01*
X128438095Y-85438095D01*
G04 #@! TO.C,R13*
X123457142Y-90752380D02*
X123123809Y-90276190D01*
X122885714Y-90752380D02*
X122885714Y-89752380D01*
X123266666Y-89752380D01*
X123361904Y-89800000D01*
X123409523Y-89847619D01*
X123457142Y-89942857D01*
X123457142Y-90085714D01*
X123409523Y-90180952D01*
X123361904Y-90228571D01*
X123266666Y-90276190D01*
X122885714Y-90276190D01*
X124409523Y-90752380D02*
X123838095Y-90752380D01*
X124123809Y-90752380D02*
X124123809Y-89752380D01*
X124028571Y-89895238D01*
X123933333Y-89990476D01*
X123838095Y-90038095D01*
X124742857Y-89752380D02*
X125361904Y-89752380D01*
X125028571Y-90133333D01*
X125171428Y-90133333D01*
X125266666Y-90180952D01*
X125314285Y-90228571D01*
X125361904Y-90323809D01*
X125361904Y-90561904D01*
X125314285Y-90657142D01*
X125266666Y-90704761D01*
X125171428Y-90752380D01*
X124885714Y-90752380D01*
X124790476Y-90704761D01*
X124742857Y-90657142D01*
G04 #@! TO.C,R30*
X144752380Y-68282857D02*
X144276190Y-68616190D01*
X144752380Y-68854285D02*
X143752380Y-68854285D01*
X143752380Y-68473333D01*
X143800000Y-68378095D01*
X143847619Y-68330476D01*
X143942857Y-68282857D01*
X144085714Y-68282857D01*
X144180952Y-68330476D01*
X144228571Y-68378095D01*
X144276190Y-68473333D01*
X144276190Y-68854285D01*
X143752380Y-67949523D02*
X143752380Y-67330476D01*
X144133333Y-67663809D01*
X144133333Y-67520952D01*
X144180952Y-67425714D01*
X144228571Y-67378095D01*
X144323809Y-67330476D01*
X144561904Y-67330476D01*
X144657142Y-67378095D01*
X144704761Y-67425714D01*
X144752380Y-67520952D01*
X144752380Y-67806666D01*
X144704761Y-67901904D01*
X144657142Y-67949523D01*
X143752380Y-66711428D02*
X143752380Y-66616190D01*
X143800000Y-66520952D01*
X143847619Y-66473333D01*
X143942857Y-66425714D01*
X144133333Y-66378095D01*
X144371428Y-66378095D01*
X144561904Y-66425714D01*
X144657142Y-66473333D01*
X144704761Y-66520952D01*
X144752380Y-66616190D01*
X144752380Y-66711428D01*
X144704761Y-66806666D01*
X144657142Y-66854285D01*
X144561904Y-66901904D01*
X144371428Y-66949523D01*
X144133333Y-66949523D01*
X143942857Y-66901904D01*
X143847619Y-66854285D01*
X143800000Y-66806666D01*
X143752380Y-66711428D01*
G04 #@! TO.C,J1*
X147912380Y-62023333D02*
X148626666Y-62023333D01*
X148769523Y-62070952D01*
X148864761Y-62166190D01*
X148912380Y-62309047D01*
X148912380Y-62404285D01*
X148912380Y-61023333D02*
X148912380Y-61594761D01*
X148912380Y-61309047D02*
X147912380Y-61309047D01*
X148055238Y-61404285D01*
X148150476Y-61499523D01*
X148198095Y-61594761D01*
G04 #@! TO.C,R19*
X150557142Y-46952380D02*
X150223809Y-46476190D01*
X149985714Y-46952380D02*
X149985714Y-45952380D01*
X150366666Y-45952380D01*
X150461904Y-46000000D01*
X150509523Y-46047619D01*
X150557142Y-46142857D01*
X150557142Y-46285714D01*
X150509523Y-46380952D01*
X150461904Y-46428571D01*
X150366666Y-46476190D01*
X149985714Y-46476190D01*
X151509523Y-46952380D02*
X150938095Y-46952380D01*
X151223809Y-46952380D02*
X151223809Y-45952380D01*
X151128571Y-46095238D01*
X151033333Y-46190476D01*
X150938095Y-46238095D01*
X151985714Y-46952380D02*
X152176190Y-46952380D01*
X152271428Y-46904761D01*
X152319047Y-46857142D01*
X152414285Y-46714285D01*
X152461904Y-46523809D01*
X152461904Y-46142857D01*
X152414285Y-46047619D01*
X152366666Y-46000000D01*
X152271428Y-45952380D01*
X152080952Y-45952380D01*
X151985714Y-46000000D01*
X151938095Y-46047619D01*
X151890476Y-46142857D01*
X151890476Y-46380952D01*
X151938095Y-46476190D01*
X151985714Y-46523809D01*
X152080952Y-46571428D01*
X152271428Y-46571428D01*
X152366666Y-46523809D01*
X152414285Y-46476190D01*
X152461904Y-46380952D01*
G04 #@! TO.C,R20*
X123957142Y-97852380D02*
X123623809Y-97376190D01*
X123385714Y-97852380D02*
X123385714Y-96852380D01*
X123766666Y-96852380D01*
X123861904Y-96900000D01*
X123909523Y-96947619D01*
X123957142Y-97042857D01*
X123957142Y-97185714D01*
X123909523Y-97280952D01*
X123861904Y-97328571D01*
X123766666Y-97376190D01*
X123385714Y-97376190D01*
X124338095Y-96947619D02*
X124385714Y-96900000D01*
X124480952Y-96852380D01*
X124719047Y-96852380D01*
X124814285Y-96900000D01*
X124861904Y-96947619D01*
X124909523Y-97042857D01*
X124909523Y-97138095D01*
X124861904Y-97280952D01*
X124290476Y-97852380D01*
X124909523Y-97852380D01*
X125528571Y-96852380D02*
X125623809Y-96852380D01*
X125719047Y-96900000D01*
X125766666Y-96947619D01*
X125814285Y-97042857D01*
X125861904Y-97233333D01*
X125861904Y-97471428D01*
X125814285Y-97661904D01*
X125766666Y-97757142D01*
X125719047Y-97804761D01*
X125623809Y-97852380D01*
X125528571Y-97852380D01*
X125433333Y-97804761D01*
X125385714Y-97757142D01*
X125338095Y-97661904D01*
X125290476Y-97471428D01*
X125290476Y-97233333D01*
X125338095Y-97042857D01*
X125385714Y-96947619D01*
X125433333Y-96900000D01*
X125528571Y-96852380D01*
G04 #@! TO.C,R26*
X148157142Y-86052380D02*
X147823809Y-85576190D01*
X147585714Y-86052380D02*
X147585714Y-85052380D01*
X147966666Y-85052380D01*
X148061904Y-85100000D01*
X148109523Y-85147619D01*
X148157142Y-85242857D01*
X148157142Y-85385714D01*
X148109523Y-85480952D01*
X148061904Y-85528571D01*
X147966666Y-85576190D01*
X147585714Y-85576190D01*
X148538095Y-85147619D02*
X148585714Y-85100000D01*
X148680952Y-85052380D01*
X148919047Y-85052380D01*
X149014285Y-85100000D01*
X149061904Y-85147619D01*
X149109523Y-85242857D01*
X149109523Y-85338095D01*
X149061904Y-85480952D01*
X148490476Y-86052380D01*
X149109523Y-86052380D01*
X149966666Y-85052380D02*
X149776190Y-85052380D01*
X149680952Y-85100000D01*
X149633333Y-85147619D01*
X149538095Y-85290476D01*
X149490476Y-85480952D01*
X149490476Y-85861904D01*
X149538095Y-85957142D01*
X149585714Y-86004761D01*
X149680952Y-86052380D01*
X149871428Y-86052380D01*
X149966666Y-86004761D01*
X150014285Y-85957142D01*
X150061904Y-85861904D01*
X150061904Y-85623809D01*
X150014285Y-85528571D01*
X149966666Y-85480952D01*
X149871428Y-85433333D01*
X149680952Y-85433333D01*
X149585714Y-85480952D01*
X149538095Y-85528571D01*
X149490476Y-85623809D01*
G04 #@! TO.C,R10*
X136997142Y-44462380D02*
X136663809Y-43986190D01*
X136425714Y-44462380D02*
X136425714Y-43462380D01*
X136806666Y-43462380D01*
X136901904Y-43510000D01*
X136949523Y-43557619D01*
X136997142Y-43652857D01*
X136997142Y-43795714D01*
X136949523Y-43890952D01*
X136901904Y-43938571D01*
X136806666Y-43986190D01*
X136425714Y-43986190D01*
X137949523Y-44462380D02*
X137378095Y-44462380D01*
X137663809Y-44462380D02*
X137663809Y-43462380D01*
X137568571Y-43605238D01*
X137473333Y-43700476D01*
X137378095Y-43748095D01*
X138568571Y-43462380D02*
X138663809Y-43462380D01*
X138759047Y-43510000D01*
X138806666Y-43557619D01*
X138854285Y-43652857D01*
X138901904Y-43843333D01*
X138901904Y-44081428D01*
X138854285Y-44271904D01*
X138806666Y-44367142D01*
X138759047Y-44414761D01*
X138663809Y-44462380D01*
X138568571Y-44462380D01*
X138473333Y-44414761D01*
X138425714Y-44367142D01*
X138378095Y-44271904D01*
X138330476Y-44081428D01*
X138330476Y-43843333D01*
X138378095Y-43652857D01*
X138425714Y-43557619D01*
X138473333Y-43510000D01*
X138568571Y-43462380D01*
G04 #@! TO.C,R9*
X139203333Y-49992380D02*
X138870000Y-49516190D01*
X138631904Y-49992380D02*
X138631904Y-48992380D01*
X139012857Y-48992380D01*
X139108095Y-49040000D01*
X139155714Y-49087619D01*
X139203333Y-49182857D01*
X139203333Y-49325714D01*
X139155714Y-49420952D01*
X139108095Y-49468571D01*
X139012857Y-49516190D01*
X138631904Y-49516190D01*
X139679523Y-49992380D02*
X139870000Y-49992380D01*
X139965238Y-49944761D01*
X140012857Y-49897142D01*
X140108095Y-49754285D01*
X140155714Y-49563809D01*
X140155714Y-49182857D01*
X140108095Y-49087619D01*
X140060476Y-49040000D01*
X139965238Y-48992380D01*
X139774761Y-48992380D01*
X139679523Y-49040000D01*
X139631904Y-49087619D01*
X139584285Y-49182857D01*
X139584285Y-49420952D01*
X139631904Y-49516190D01*
X139679523Y-49563809D01*
X139774761Y-49611428D01*
X139965238Y-49611428D01*
X140060476Y-49563809D01*
X140108095Y-49516190D01*
X140155714Y-49420952D01*
G04 #@! TO.C,Q1*
X124904761Y-83547619D02*
X124809523Y-83500000D01*
X124714285Y-83404761D01*
X124571428Y-83261904D01*
X124476190Y-83214285D01*
X124380952Y-83214285D01*
X124428571Y-83452380D02*
X124333333Y-83404761D01*
X124238095Y-83309523D01*
X124190476Y-83119047D01*
X124190476Y-82785714D01*
X124238095Y-82595238D01*
X124333333Y-82500000D01*
X124428571Y-82452380D01*
X124619047Y-82452380D01*
X124714285Y-82500000D01*
X124809523Y-82595238D01*
X124857142Y-82785714D01*
X124857142Y-83119047D01*
X124809523Y-83309523D01*
X124714285Y-83404761D01*
X124619047Y-83452380D01*
X124428571Y-83452380D01*
X125809523Y-83452380D02*
X125238095Y-83452380D01*
X125523809Y-83452380D02*
X125523809Y-82452380D01*
X125428571Y-82595238D01*
X125333333Y-82690476D01*
X125238095Y-82738095D01*
G04 #@! TO.C,U2*
X116838095Y-104142380D02*
X116838095Y-104951904D01*
X116885714Y-105047142D01*
X116933333Y-105094761D01*
X117028571Y-105142380D01*
X117219047Y-105142380D01*
X117314285Y-105094761D01*
X117361904Y-105047142D01*
X117409523Y-104951904D01*
X117409523Y-104142380D01*
X117838095Y-104237619D02*
X117885714Y-104190000D01*
X117980952Y-104142380D01*
X118219047Y-104142380D01*
X118314285Y-104190000D01*
X118361904Y-104237619D01*
X118409523Y-104332857D01*
X118409523Y-104428095D01*
X118361904Y-104570952D01*
X117790476Y-105142380D01*
X118409523Y-105142380D01*
G04 #@! TO.C,R1*
X119983333Y-97232380D02*
X119650000Y-96756190D01*
X119411904Y-97232380D02*
X119411904Y-96232380D01*
X119792857Y-96232380D01*
X119888095Y-96280000D01*
X119935714Y-96327619D01*
X119983333Y-96422857D01*
X119983333Y-96565714D01*
X119935714Y-96660952D01*
X119888095Y-96708571D01*
X119792857Y-96756190D01*
X119411904Y-96756190D01*
X120935714Y-97232380D02*
X120364285Y-97232380D01*
X120650000Y-97232380D02*
X120650000Y-96232380D01*
X120554761Y-96375238D01*
X120459523Y-96470476D01*
X120364285Y-96518095D01*
G04 #@! TO.C,D1*
X126861904Y-97252380D02*
X126861904Y-96252380D01*
X127100000Y-96252380D01*
X127242857Y-96300000D01*
X127338095Y-96395238D01*
X127385714Y-96490476D01*
X127433333Y-96680952D01*
X127433333Y-96823809D01*
X127385714Y-97014285D01*
X127338095Y-97109523D01*
X127242857Y-97204761D01*
X127100000Y-97252380D01*
X126861904Y-97252380D01*
X128385714Y-97252380D02*
X127814285Y-97252380D01*
X128100000Y-97252380D02*
X128100000Y-96252380D01*
X128004761Y-96395238D01*
X127909523Y-96490476D01*
X127814285Y-96538095D01*
G04 #@! TO.C,R27*
X147382380Y-68282857D02*
X146906190Y-68616190D01*
X147382380Y-68854285D02*
X146382380Y-68854285D01*
X146382380Y-68473333D01*
X146430000Y-68378095D01*
X146477619Y-68330476D01*
X146572857Y-68282857D01*
X146715714Y-68282857D01*
X146810952Y-68330476D01*
X146858571Y-68378095D01*
X146906190Y-68473333D01*
X146906190Y-68854285D01*
X146477619Y-67901904D02*
X146430000Y-67854285D01*
X146382380Y-67759047D01*
X146382380Y-67520952D01*
X146430000Y-67425714D01*
X146477619Y-67378095D01*
X146572857Y-67330476D01*
X146668095Y-67330476D01*
X146810952Y-67378095D01*
X147382380Y-67949523D01*
X147382380Y-67330476D01*
X146382380Y-66997142D02*
X146382380Y-66330476D01*
X147382380Y-66759047D01*
G04 #@! TO.C,U4*
X137238095Y-85852380D02*
X137238095Y-86661904D01*
X137285714Y-86757142D01*
X137333333Y-86804761D01*
X137428571Y-86852380D01*
X137619047Y-86852380D01*
X137714285Y-86804761D01*
X137761904Y-86757142D01*
X137809523Y-86661904D01*
X137809523Y-85852380D01*
X138714285Y-86185714D02*
X138714285Y-86852380D01*
X138476190Y-85804761D02*
X138238095Y-86519047D01*
X138857142Y-86519047D01*
G04 #@! TO.C,R14*
X126957142Y-104052380D02*
X126623809Y-103576190D01*
X126385714Y-104052380D02*
X126385714Y-103052380D01*
X126766666Y-103052380D01*
X126861904Y-103100000D01*
X126909523Y-103147619D01*
X126957142Y-103242857D01*
X126957142Y-103385714D01*
X126909523Y-103480952D01*
X126861904Y-103528571D01*
X126766666Y-103576190D01*
X126385714Y-103576190D01*
X127909523Y-104052380D02*
X127338095Y-104052380D01*
X127623809Y-104052380D02*
X127623809Y-103052380D01*
X127528571Y-103195238D01*
X127433333Y-103290476D01*
X127338095Y-103338095D01*
X128766666Y-103385714D02*
X128766666Y-104052380D01*
X128528571Y-103004761D02*
X128290476Y-103719047D01*
X128909523Y-103719047D01*
G04 #@! TO.C,SW2*
X116340332Y-60568332D02*
X116373665Y-60468332D01*
X116373665Y-60301665D01*
X116340332Y-60234999D01*
X116306999Y-60201665D01*
X116240332Y-60168332D01*
X116173665Y-60168332D01*
X116106999Y-60201665D01*
X116073665Y-60234999D01*
X116040332Y-60301665D01*
X116006999Y-60434999D01*
X115973665Y-60501665D01*
X115940332Y-60534999D01*
X115873665Y-60568332D01*
X115806999Y-60568332D01*
X115740332Y-60534999D01*
X115706999Y-60501665D01*
X115673665Y-60434999D01*
X115673665Y-60268332D01*
X115706999Y-60168332D01*
X115673665Y-59934999D02*
X116373665Y-59768332D01*
X115873665Y-59634999D01*
X116373665Y-59501665D01*
X115673665Y-59334999D01*
X115740332Y-59101665D02*
X115706999Y-59068332D01*
X115673665Y-59001665D01*
X115673665Y-58834999D01*
X115706999Y-58768332D01*
X115740332Y-58734999D01*
X115806999Y-58701665D01*
X115873665Y-58701665D01*
X115973665Y-58734999D01*
X116373665Y-59134999D01*
X116373665Y-58701665D01*
G04 #@! TO.C,C20*
X134038715Y-67582756D02*
X134086334Y-67630375D01*
X134133953Y-67773232D01*
X134133953Y-67868470D01*
X134086334Y-68011327D01*
X133991096Y-68106565D01*
X133895858Y-68154184D01*
X133705382Y-68201803D01*
X133562525Y-68201803D01*
X133372049Y-68154184D01*
X133276811Y-68106565D01*
X133181573Y-68011327D01*
X133133953Y-67868470D01*
X133133953Y-67773232D01*
X133181573Y-67630375D01*
X133229192Y-67582756D01*
X133229192Y-67201803D02*
X133181573Y-67154184D01*
X133133953Y-67058946D01*
X133133953Y-66820851D01*
X133181573Y-66725613D01*
X133229192Y-66677994D01*
X133324430Y-66630375D01*
X133419668Y-66630375D01*
X133562525Y-66677994D01*
X134133953Y-67249422D01*
X134133953Y-66630375D01*
X133133953Y-66011327D02*
X133133953Y-65916089D01*
X133181573Y-65820851D01*
X133229192Y-65773232D01*
X133324430Y-65725613D01*
X133514906Y-65677994D01*
X133753001Y-65677994D01*
X133943477Y-65725613D01*
X134038715Y-65773232D01*
X134086334Y-65820851D01*
X134133953Y-65916089D01*
X134133953Y-66011327D01*
X134086334Y-66106565D01*
X134038715Y-66154184D01*
X133943477Y-66201803D01*
X133753001Y-66249422D01*
X133514906Y-66249422D01*
X133324430Y-66201803D01*
X133229192Y-66154184D01*
X133181573Y-66106565D01*
X133133953Y-66011327D01*
G04 #@! TO.C,R24*
X117902380Y-75782857D02*
X117426190Y-76116190D01*
X117902380Y-76354285D02*
X116902380Y-76354285D01*
X116902380Y-75973333D01*
X116950000Y-75878095D01*
X116997619Y-75830476D01*
X117092857Y-75782857D01*
X117235714Y-75782857D01*
X117330952Y-75830476D01*
X117378571Y-75878095D01*
X117426190Y-75973333D01*
X117426190Y-76354285D01*
X116997619Y-75401904D02*
X116950000Y-75354285D01*
X116902380Y-75259047D01*
X116902380Y-75020952D01*
X116950000Y-74925714D01*
X116997619Y-74878095D01*
X117092857Y-74830476D01*
X117188095Y-74830476D01*
X117330952Y-74878095D01*
X117902380Y-75449523D01*
X117902380Y-74830476D01*
X117235714Y-73973333D02*
X117902380Y-73973333D01*
X116854761Y-74211428D02*
X117569047Y-74449523D01*
X117569047Y-73830476D01*
G04 #@! TO.C,R11*
X130157142Y-47152380D02*
X129823809Y-46676190D01*
X129585714Y-47152380D02*
X129585714Y-46152380D01*
X129966666Y-46152380D01*
X130061904Y-46200000D01*
X130109523Y-46247619D01*
X130157142Y-46342857D01*
X130157142Y-46485714D01*
X130109523Y-46580952D01*
X130061904Y-46628571D01*
X129966666Y-46676190D01*
X129585714Y-46676190D01*
X131109523Y-47152380D02*
X130538095Y-47152380D01*
X130823809Y-47152380D02*
X130823809Y-46152380D01*
X130728571Y-46295238D01*
X130633333Y-46390476D01*
X130538095Y-46438095D01*
X132061904Y-47152380D02*
X131490476Y-47152380D01*
X131776190Y-47152380D02*
X131776190Y-46152380D01*
X131680952Y-46295238D01*
X131585714Y-46390476D01*
X131490476Y-46438095D01*
G04 #@! TO.C,R15*
X134657142Y-98852380D02*
X134323809Y-98376190D01*
X134085714Y-98852380D02*
X134085714Y-97852380D01*
X134466666Y-97852380D01*
X134561904Y-97900000D01*
X134609523Y-97947619D01*
X134657142Y-98042857D01*
X134657142Y-98185714D01*
X134609523Y-98280952D01*
X134561904Y-98328571D01*
X134466666Y-98376190D01*
X134085714Y-98376190D01*
X135609523Y-98852380D02*
X135038095Y-98852380D01*
X135323809Y-98852380D02*
X135323809Y-97852380D01*
X135228571Y-97995238D01*
X135133333Y-98090476D01*
X135038095Y-98138095D01*
X136514285Y-97852380D02*
X136038095Y-97852380D01*
X135990476Y-98328571D01*
X136038095Y-98280952D01*
X136133333Y-98233333D01*
X136371428Y-98233333D01*
X136466666Y-98280952D01*
X136514285Y-98328571D01*
X136561904Y-98423809D01*
X136561904Y-98661904D01*
X136514285Y-98757142D01*
X136466666Y-98804761D01*
X136371428Y-98852380D01*
X136133333Y-98852380D01*
X136038095Y-98804761D01*
X135990476Y-98757142D01*
G04 #@! TO.C,R21*
X123957142Y-92852380D02*
X123623809Y-92376190D01*
X123385714Y-92852380D02*
X123385714Y-91852380D01*
X123766666Y-91852380D01*
X123861904Y-91900000D01*
X123909523Y-91947619D01*
X123957142Y-92042857D01*
X123957142Y-92185714D01*
X123909523Y-92280952D01*
X123861904Y-92328571D01*
X123766666Y-92376190D01*
X123385714Y-92376190D01*
X124338095Y-91947619D02*
X124385714Y-91900000D01*
X124480952Y-91852380D01*
X124719047Y-91852380D01*
X124814285Y-91900000D01*
X124861904Y-91947619D01*
X124909523Y-92042857D01*
X124909523Y-92138095D01*
X124861904Y-92280952D01*
X124290476Y-92852380D01*
X124909523Y-92852380D01*
X125861904Y-92852380D02*
X125290476Y-92852380D01*
X125576190Y-92852380D02*
X125576190Y-91852380D01*
X125480952Y-91995238D01*
X125385714Y-92090476D01*
X125290476Y-92138095D01*
G04 #@! TO.C,R8*
X147533333Y-50152380D02*
X147200000Y-49676190D01*
X146961904Y-50152380D02*
X146961904Y-49152380D01*
X147342857Y-49152380D01*
X147438095Y-49200000D01*
X147485714Y-49247619D01*
X147533333Y-49342857D01*
X147533333Y-49485714D01*
X147485714Y-49580952D01*
X147438095Y-49628571D01*
X147342857Y-49676190D01*
X146961904Y-49676190D01*
X148104761Y-49580952D02*
X148009523Y-49533333D01*
X147961904Y-49485714D01*
X147914285Y-49390476D01*
X147914285Y-49342857D01*
X147961904Y-49247619D01*
X148009523Y-49200000D01*
X148104761Y-49152380D01*
X148295238Y-49152380D01*
X148390476Y-49200000D01*
X148438095Y-49247619D01*
X148485714Y-49342857D01*
X148485714Y-49390476D01*
X148438095Y-49485714D01*
X148390476Y-49533333D01*
X148295238Y-49580952D01*
X148104761Y-49580952D01*
X148009523Y-49628571D01*
X147961904Y-49676190D01*
X147914285Y-49771428D01*
X147914285Y-49961904D01*
X147961904Y-50057142D01*
X148009523Y-50104761D01*
X148104761Y-50152380D01*
X148295238Y-50152380D01*
X148390476Y-50104761D01*
X148438095Y-50057142D01*
X148485714Y-49961904D01*
X148485714Y-49771428D01*
X148438095Y-49676190D01*
X148390476Y-49628571D01*
X148295238Y-49580952D01*
G04 #@! TO.C,R23*
X119157142Y-78552380D02*
X118823809Y-78076190D01*
X118585714Y-78552380D02*
X118585714Y-77552380D01*
X118966666Y-77552380D01*
X119061904Y-77600000D01*
X119109523Y-77647619D01*
X119157142Y-77742857D01*
X119157142Y-77885714D01*
X119109523Y-77980952D01*
X119061904Y-78028571D01*
X118966666Y-78076190D01*
X118585714Y-78076190D01*
X119538095Y-77647619D02*
X119585714Y-77600000D01*
X119680952Y-77552380D01*
X119919047Y-77552380D01*
X120014285Y-77600000D01*
X120061904Y-77647619D01*
X120109523Y-77742857D01*
X120109523Y-77838095D01*
X120061904Y-77980952D01*
X119490476Y-78552380D01*
X120109523Y-78552380D01*
X120442857Y-77552380D02*
X121061904Y-77552380D01*
X120728571Y-77933333D01*
X120871428Y-77933333D01*
X120966666Y-77980952D01*
X121014285Y-78028571D01*
X121061904Y-78123809D01*
X121061904Y-78361904D01*
X121014285Y-78457142D01*
X120966666Y-78504761D01*
X120871428Y-78552380D01*
X120585714Y-78552380D01*
X120490476Y-78504761D01*
X120442857Y-78457142D01*
G04 #@! TO.C,R6*
X134133333Y-49852380D02*
X133800000Y-49376190D01*
X133561904Y-49852380D02*
X133561904Y-48852380D01*
X133942857Y-48852380D01*
X134038095Y-48900000D01*
X134085714Y-48947619D01*
X134133333Y-49042857D01*
X134133333Y-49185714D01*
X134085714Y-49280952D01*
X134038095Y-49328571D01*
X133942857Y-49376190D01*
X133561904Y-49376190D01*
X134990476Y-48852380D02*
X134800000Y-48852380D01*
X134704761Y-48900000D01*
X134657142Y-48947619D01*
X134561904Y-49090476D01*
X134514285Y-49280952D01*
X134514285Y-49661904D01*
X134561904Y-49757142D01*
X134609523Y-49804761D01*
X134704761Y-49852380D01*
X134895238Y-49852380D01*
X134990476Y-49804761D01*
X135038095Y-49757142D01*
X135085714Y-49661904D01*
X135085714Y-49423809D01*
X135038095Y-49328571D01*
X134990476Y-49280952D01*
X134895238Y-49233333D01*
X134704761Y-49233333D01*
X134609523Y-49280952D01*
X134561904Y-49328571D01*
X134514285Y-49423809D01*
G04 #@! TO.C,R29*
X151757142Y-86252380D02*
X151423809Y-85776190D01*
X151185714Y-86252380D02*
X151185714Y-85252380D01*
X151566666Y-85252380D01*
X151661904Y-85300000D01*
X151709523Y-85347619D01*
X151757142Y-85442857D01*
X151757142Y-85585714D01*
X151709523Y-85680952D01*
X151661904Y-85728571D01*
X151566666Y-85776190D01*
X151185714Y-85776190D01*
X152138095Y-85347619D02*
X152185714Y-85300000D01*
X152280952Y-85252380D01*
X152519047Y-85252380D01*
X152614285Y-85300000D01*
X152661904Y-85347619D01*
X152709523Y-85442857D01*
X152709523Y-85538095D01*
X152661904Y-85680952D01*
X152090476Y-86252380D01*
X152709523Y-86252380D01*
X153185714Y-86252380D02*
X153376190Y-86252380D01*
X153471428Y-86204761D01*
X153519047Y-86157142D01*
X153614285Y-86014285D01*
X153661904Y-85823809D01*
X153661904Y-85442857D01*
X153614285Y-85347619D01*
X153566666Y-85300000D01*
X153471428Y-85252380D01*
X153280952Y-85252380D01*
X153185714Y-85300000D01*
X153138095Y-85347619D01*
X153090476Y-85442857D01*
X153090476Y-85680952D01*
X153138095Y-85776190D01*
X153185714Y-85823809D01*
X153280952Y-85871428D01*
X153471428Y-85871428D01*
X153566666Y-85823809D01*
X153614285Y-85776190D01*
X153661904Y-85680952D01*
G04 #@! TO.C,R31*
X120657142Y-84352380D02*
X120323809Y-83876190D01*
X120085714Y-84352380D02*
X120085714Y-83352380D01*
X120466666Y-83352380D01*
X120561904Y-83400000D01*
X120609523Y-83447619D01*
X120657142Y-83542857D01*
X120657142Y-83685714D01*
X120609523Y-83780952D01*
X120561904Y-83828571D01*
X120466666Y-83876190D01*
X120085714Y-83876190D01*
X120990476Y-83352380D02*
X121609523Y-83352380D01*
X121276190Y-83733333D01*
X121419047Y-83733333D01*
X121514285Y-83780952D01*
X121561904Y-83828571D01*
X121609523Y-83923809D01*
X121609523Y-84161904D01*
X121561904Y-84257142D01*
X121514285Y-84304761D01*
X121419047Y-84352380D01*
X121133333Y-84352380D01*
X121038095Y-84304761D01*
X120990476Y-84257142D01*
X122561904Y-84352380D02*
X121990476Y-84352380D01*
X122276190Y-84352380D02*
X122276190Y-83352380D01*
X122180952Y-83495238D01*
X122085714Y-83590476D01*
X121990476Y-83638095D01*
G04 #@! TO.C,C26*
X146025079Y-93082389D02*
X146025079Y-93149733D01*
X145957735Y-93284420D01*
X145890392Y-93351763D01*
X145755705Y-93419107D01*
X145621018Y-93419107D01*
X145520003Y-93385435D01*
X145351644Y-93284420D01*
X145250629Y-93183405D01*
X145149613Y-93015046D01*
X145115942Y-92914031D01*
X145115942Y-92779344D01*
X145183285Y-92644657D01*
X145250629Y-92577313D01*
X145385316Y-92509970D01*
X145452659Y-92509970D01*
X145722033Y-92240595D02*
X145722033Y-92173252D01*
X145755705Y-92072237D01*
X145924064Y-91903878D01*
X146025079Y-91870206D01*
X146092422Y-91870206D01*
X146193438Y-91903878D01*
X146260781Y-91971221D01*
X146328125Y-92105908D01*
X146328125Y-92914031D01*
X146765858Y-92476298D01*
X146664842Y-91163099D02*
X146530155Y-91297786D01*
X146496484Y-91398802D01*
X146496484Y-91466145D01*
X146530155Y-91634504D01*
X146631171Y-91802863D01*
X146900545Y-92072237D01*
X147001560Y-92105908D01*
X147068903Y-92105908D01*
X147169919Y-92072237D01*
X147304606Y-91937550D01*
X147338277Y-91836534D01*
X147338277Y-91769191D01*
X147304606Y-91668176D01*
X147136247Y-91499817D01*
X147035232Y-91466145D01*
X146967888Y-91466145D01*
X146866873Y-91499817D01*
X146732186Y-91634504D01*
X146698514Y-91735519D01*
X146698514Y-91802863D01*
X146732186Y-91903878D01*
G04 #@! TO.C,C24*
X127357142Y-76257142D02*
X127309523Y-76304761D01*
X127166666Y-76352380D01*
X127071428Y-76352380D01*
X126928571Y-76304761D01*
X126833333Y-76209523D01*
X126785714Y-76114285D01*
X126738095Y-75923809D01*
X126738095Y-75780952D01*
X126785714Y-75590476D01*
X126833333Y-75495238D01*
X126928571Y-75400000D01*
X127071428Y-75352380D01*
X127166666Y-75352380D01*
X127309523Y-75400000D01*
X127357142Y-75447619D01*
X127738095Y-75447619D02*
X127785714Y-75400000D01*
X127880952Y-75352380D01*
X128119047Y-75352380D01*
X128214285Y-75400000D01*
X128261904Y-75447619D01*
X128309523Y-75542857D01*
X128309523Y-75638095D01*
X128261904Y-75780952D01*
X127690476Y-76352380D01*
X128309523Y-76352380D01*
X129166666Y-75685714D02*
X129166666Y-76352380D01*
X128928571Y-75304761D02*
X128690476Y-76019047D01*
X129309523Y-76019047D01*
G04 #@! TO.C,R2*
X117333333Y-45052380D02*
X117000000Y-44576190D01*
X116761904Y-45052380D02*
X116761904Y-44052380D01*
X117142857Y-44052380D01*
X117238095Y-44100000D01*
X117285714Y-44147619D01*
X117333333Y-44242857D01*
X117333333Y-44385714D01*
X117285714Y-44480952D01*
X117238095Y-44528571D01*
X117142857Y-44576190D01*
X116761904Y-44576190D01*
X117714285Y-44147619D02*
X117761904Y-44100000D01*
X117857142Y-44052380D01*
X118095238Y-44052380D01*
X118190476Y-44100000D01*
X118238095Y-44147619D01*
X118285714Y-44242857D01*
X118285714Y-44338095D01*
X118238095Y-44480952D01*
X117666666Y-45052380D01*
X118285714Y-45052380D01*
G04 #@! TO.C,J3*
X116566666Y-91652380D02*
X116566666Y-92366666D01*
X116519047Y-92509523D01*
X116423809Y-92604761D01*
X116280952Y-92652380D01*
X116185714Y-92652380D01*
X116947619Y-91652380D02*
X117566666Y-91652380D01*
X117233333Y-92033333D01*
X117376190Y-92033333D01*
X117471428Y-92080952D01*
X117519047Y-92128571D01*
X117566666Y-92223809D01*
X117566666Y-92461904D01*
X117519047Y-92557142D01*
X117471428Y-92604761D01*
X117376190Y-92652380D01*
X117090476Y-92652380D01*
X116995238Y-92604761D01*
X116947619Y-92557142D01*
G04 #@! TO.C,R28*
X149032380Y-67052857D02*
X148556190Y-67386190D01*
X149032380Y-67624285D02*
X148032380Y-67624285D01*
X148032380Y-67243333D01*
X148080000Y-67148095D01*
X148127619Y-67100476D01*
X148222857Y-67052857D01*
X148365714Y-67052857D01*
X148460952Y-67100476D01*
X148508571Y-67148095D01*
X148556190Y-67243333D01*
X148556190Y-67624285D01*
X148127619Y-66671904D02*
X148080000Y-66624285D01*
X148032380Y-66529047D01*
X148032380Y-66290952D01*
X148080000Y-66195714D01*
X148127619Y-66148095D01*
X148222857Y-66100476D01*
X148318095Y-66100476D01*
X148460952Y-66148095D01*
X149032380Y-66719523D01*
X149032380Y-66100476D01*
X148460952Y-65529047D02*
X148413333Y-65624285D01*
X148365714Y-65671904D01*
X148270476Y-65719523D01*
X148222857Y-65719523D01*
X148127619Y-65671904D01*
X148080000Y-65624285D01*
X148032380Y-65529047D01*
X148032380Y-65338571D01*
X148080000Y-65243333D01*
X148127619Y-65195714D01*
X148222857Y-65148095D01*
X148270476Y-65148095D01*
X148365714Y-65195714D01*
X148413333Y-65243333D01*
X148460952Y-65338571D01*
X148460952Y-65529047D01*
X148508571Y-65624285D01*
X148556190Y-65671904D01*
X148651428Y-65719523D01*
X148841904Y-65719523D01*
X148937142Y-65671904D01*
X148984761Y-65624285D01*
X149032380Y-65529047D01*
X149032380Y-65338571D01*
X148984761Y-65243333D01*
X148937142Y-65195714D01*
X148841904Y-65148095D01*
X148651428Y-65148095D01*
X148556190Y-65195714D01*
X148508571Y-65243333D01*
X148460952Y-65338571D01*
G04 #@! TO.C,R16*
X145457142Y-38552380D02*
X145123809Y-38076190D01*
X144885714Y-38552380D02*
X144885714Y-37552380D01*
X145266666Y-37552380D01*
X145361904Y-37600000D01*
X145409523Y-37647619D01*
X145457142Y-37742857D01*
X145457142Y-37885714D01*
X145409523Y-37980952D01*
X145361904Y-38028571D01*
X145266666Y-38076190D01*
X144885714Y-38076190D01*
X146409523Y-38552380D02*
X145838095Y-38552380D01*
X146123809Y-38552380D02*
X146123809Y-37552380D01*
X146028571Y-37695238D01*
X145933333Y-37790476D01*
X145838095Y-37838095D01*
X147266666Y-37552380D02*
X147076190Y-37552380D01*
X146980952Y-37600000D01*
X146933333Y-37647619D01*
X146838095Y-37790476D01*
X146790476Y-37980952D01*
X146790476Y-38361904D01*
X146838095Y-38457142D01*
X146885714Y-38504761D01*
X146980952Y-38552380D01*
X147171428Y-38552380D01*
X147266666Y-38504761D01*
X147314285Y-38457142D01*
X147361904Y-38361904D01*
X147361904Y-38123809D01*
X147314285Y-38028571D01*
X147266666Y-37980952D01*
X147171428Y-37933333D01*
X146980952Y-37933333D01*
X146885714Y-37980952D01*
X146838095Y-38028571D01*
X146790476Y-38123809D01*
G04 #@! TO.C,R3*
X136703333Y-49992380D02*
X136370000Y-49516190D01*
X136131904Y-49992380D02*
X136131904Y-48992380D01*
X136512857Y-48992380D01*
X136608095Y-49040000D01*
X136655714Y-49087619D01*
X136703333Y-49182857D01*
X136703333Y-49325714D01*
X136655714Y-49420952D01*
X136608095Y-49468571D01*
X136512857Y-49516190D01*
X136131904Y-49516190D01*
X137036666Y-48992380D02*
X137655714Y-48992380D01*
X137322380Y-49373333D01*
X137465238Y-49373333D01*
X137560476Y-49420952D01*
X137608095Y-49468571D01*
X137655714Y-49563809D01*
X137655714Y-49801904D01*
X137608095Y-49897142D01*
X137560476Y-49944761D01*
X137465238Y-49992380D01*
X137179523Y-49992380D01*
X137084285Y-49944761D01*
X137036666Y-49897142D01*
G04 #@! TO.C,R12*
X124357142Y-105952380D02*
X124023809Y-105476190D01*
X123785714Y-105952380D02*
X123785714Y-104952380D01*
X124166666Y-104952380D01*
X124261904Y-105000000D01*
X124309523Y-105047619D01*
X124357142Y-105142857D01*
X124357142Y-105285714D01*
X124309523Y-105380952D01*
X124261904Y-105428571D01*
X124166666Y-105476190D01*
X123785714Y-105476190D01*
X125309523Y-105952380D02*
X124738095Y-105952380D01*
X125023809Y-105952380D02*
X125023809Y-104952380D01*
X124928571Y-105095238D01*
X124833333Y-105190476D01*
X124738095Y-105238095D01*
X125690476Y-105047619D02*
X125738095Y-105000000D01*
X125833333Y-104952380D01*
X126071428Y-104952380D01*
X126166666Y-105000000D01*
X126214285Y-105047619D01*
X126261904Y-105142857D01*
X126261904Y-105238095D01*
X126214285Y-105380952D01*
X125642857Y-105952380D01*
X126261904Y-105952380D01*
G04 #@! TO.C,SW4*
X115993333Y-84393333D02*
X116026666Y-84293333D01*
X116026666Y-84126666D01*
X115993333Y-84060000D01*
X115960000Y-84026666D01*
X115893333Y-83993333D01*
X115826666Y-83993333D01*
X115760000Y-84026666D01*
X115726666Y-84060000D01*
X115693333Y-84126666D01*
X115660000Y-84260000D01*
X115626666Y-84326666D01*
X115593333Y-84360000D01*
X115526666Y-84393333D01*
X115460000Y-84393333D01*
X115393333Y-84360000D01*
X115360000Y-84326666D01*
X115326666Y-84260000D01*
X115326666Y-84093333D01*
X115360000Y-83993333D01*
X115326666Y-83760000D02*
X116026666Y-83593333D01*
X115526666Y-83460000D01*
X116026666Y-83326666D01*
X115326666Y-83160000D01*
X115560000Y-82593333D02*
X116026666Y-82593333D01*
X115293333Y-82760000D02*
X115793333Y-82926666D01*
X115793333Y-82493333D01*
G04 #@! TO.C,R7*
X142633333Y-54552380D02*
X142300000Y-54076190D01*
X142061904Y-54552380D02*
X142061904Y-53552380D01*
X142442857Y-53552380D01*
X142538095Y-53600000D01*
X142585714Y-53647619D01*
X142633333Y-53742857D01*
X142633333Y-53885714D01*
X142585714Y-53980952D01*
X142538095Y-54028571D01*
X142442857Y-54076190D01*
X142061904Y-54076190D01*
X142966666Y-53552380D02*
X143633333Y-53552380D01*
X143204761Y-54552380D01*
G04 #@! TO.C,U6*
X138138095Y-68452380D02*
X138138095Y-69261904D01*
X138185714Y-69357142D01*
X138233333Y-69404761D01*
X138328571Y-69452380D01*
X138519047Y-69452380D01*
X138614285Y-69404761D01*
X138661904Y-69357142D01*
X138709523Y-69261904D01*
X138709523Y-68452380D01*
X139614285Y-68452380D02*
X139423809Y-68452380D01*
X139328571Y-68500000D01*
X139280952Y-68547619D01*
X139185714Y-68690476D01*
X139138095Y-68880952D01*
X139138095Y-69261904D01*
X139185714Y-69357142D01*
X139233333Y-69404761D01*
X139328571Y-69452380D01*
X139519047Y-69452380D01*
X139614285Y-69404761D01*
X139661904Y-69357142D01*
X139709523Y-69261904D01*
X139709523Y-69023809D01*
X139661904Y-68928571D01*
X139614285Y-68880952D01*
X139519047Y-68833333D01*
X139328571Y-68833333D01*
X139233333Y-68880952D01*
X139185714Y-68928571D01*
X139138095Y-69023809D01*
G04 #@! TO.C,U8*
X122638095Y-64452380D02*
X122638095Y-65261904D01*
X122685714Y-65357142D01*
X122733333Y-65404761D01*
X122828571Y-65452380D01*
X123019047Y-65452380D01*
X123114285Y-65404761D01*
X123161904Y-65357142D01*
X123209523Y-65261904D01*
X123209523Y-64452380D01*
X123828571Y-64880952D02*
X123733333Y-64833333D01*
X123685714Y-64785714D01*
X123638095Y-64690476D01*
X123638095Y-64642857D01*
X123685714Y-64547619D01*
X123733333Y-64500000D01*
X123828571Y-64452380D01*
X124019047Y-64452380D01*
X124114285Y-64500000D01*
X124161904Y-64547619D01*
X124209523Y-64642857D01*
X124209523Y-64690476D01*
X124161904Y-64785714D01*
X124114285Y-64833333D01*
X124019047Y-64880952D01*
X123828571Y-64880952D01*
X123733333Y-64928571D01*
X123685714Y-64976190D01*
X123638095Y-65071428D01*
X123638095Y-65261904D01*
X123685714Y-65357142D01*
X123733333Y-65404761D01*
X123828571Y-65452380D01*
X124019047Y-65452380D01*
X124114285Y-65404761D01*
X124161904Y-65357142D01*
X124209523Y-65261904D01*
X124209523Y-65071428D01*
X124161904Y-64976190D01*
X124114285Y-64928571D01*
X124019047Y-64880952D01*
G04 #@! TO.C,U7*
X149948095Y-51292380D02*
X149948095Y-52101904D01*
X149995714Y-52197142D01*
X150043333Y-52244761D01*
X150138571Y-52292380D01*
X150329047Y-52292380D01*
X150424285Y-52244761D01*
X150471904Y-52197142D01*
X150519523Y-52101904D01*
X150519523Y-51292380D01*
X150900476Y-51292380D02*
X151567142Y-51292380D01*
X151138571Y-52292380D01*
G04 #@! TO.C,U9*
X135668095Y-60772380D02*
X135668095Y-61581904D01*
X135715714Y-61677142D01*
X135763333Y-61724761D01*
X135858571Y-61772380D01*
X136049047Y-61772380D01*
X136144285Y-61724761D01*
X136191904Y-61677142D01*
X136239523Y-61581904D01*
X136239523Y-60772380D01*
X136763333Y-61772380D02*
X136953809Y-61772380D01*
X137049047Y-61724761D01*
X137096666Y-61677142D01*
X137191904Y-61534285D01*
X137239523Y-61343809D01*
X137239523Y-60962857D01*
X137191904Y-60867619D01*
X137144285Y-60820000D01*
X137049047Y-60772380D01*
X136858571Y-60772380D01*
X136763333Y-60820000D01*
X136715714Y-60867619D01*
X136668095Y-60962857D01*
X136668095Y-61200952D01*
X136715714Y-61296190D01*
X136763333Y-61343809D01*
X136858571Y-61391428D01*
X137049047Y-61391428D01*
X137144285Y-61343809D01*
X137191904Y-61296190D01*
X137239523Y-61200952D01*
G04 #@! TO.C,SW1*
X116363333Y-68363333D02*
X116396666Y-68263333D01*
X116396666Y-68096666D01*
X116363333Y-68030000D01*
X116330000Y-67996666D01*
X116263333Y-67963333D01*
X116196666Y-67963333D01*
X116130000Y-67996666D01*
X116096666Y-68030000D01*
X116063333Y-68096666D01*
X116030000Y-68230000D01*
X115996666Y-68296666D01*
X115963333Y-68330000D01*
X115896666Y-68363333D01*
X115830000Y-68363333D01*
X115763333Y-68330000D01*
X115730000Y-68296666D01*
X115696666Y-68230000D01*
X115696666Y-68063333D01*
X115730000Y-67963333D01*
X115696666Y-67730000D02*
X116396666Y-67563333D01*
X115896666Y-67430000D01*
X116396666Y-67296666D01*
X115696666Y-67130000D01*
X116396666Y-66496666D02*
X116396666Y-66896666D01*
X116396666Y-66696666D02*
X115696666Y-66696666D01*
X115796666Y-66763333D01*
X115863333Y-66830000D01*
X115896666Y-66896666D01*
G04 #@! TO.C,C23*
X138557142Y-54457142D02*
X138509523Y-54504761D01*
X138366666Y-54552380D01*
X138271428Y-54552380D01*
X138128571Y-54504761D01*
X138033333Y-54409523D01*
X137985714Y-54314285D01*
X137938095Y-54123809D01*
X137938095Y-53980952D01*
X137985714Y-53790476D01*
X138033333Y-53695238D01*
X138128571Y-53600000D01*
X138271428Y-53552380D01*
X138366666Y-53552380D01*
X138509523Y-53600000D01*
X138557142Y-53647619D01*
X138938095Y-53647619D02*
X138985714Y-53600000D01*
X139080952Y-53552380D01*
X139319047Y-53552380D01*
X139414285Y-53600000D01*
X139461904Y-53647619D01*
X139509523Y-53742857D01*
X139509523Y-53838095D01*
X139461904Y-53980952D01*
X138890476Y-54552380D01*
X139509523Y-54552380D01*
X139842857Y-53552380D02*
X140461904Y-53552380D01*
X140128571Y-53933333D01*
X140271428Y-53933333D01*
X140366666Y-53980952D01*
X140414285Y-54028571D01*
X140461904Y-54123809D01*
X140461904Y-54361904D01*
X140414285Y-54457142D01*
X140366666Y-54504761D01*
X140271428Y-54552380D01*
X139985714Y-54552380D01*
X139890476Y-54504761D01*
X139842857Y-54457142D01*
G04 #@! TO.C,C22*
X131538715Y-67562756D02*
X131586334Y-67610375D01*
X131633953Y-67753232D01*
X131633953Y-67848470D01*
X131586334Y-67991327D01*
X131491096Y-68086565D01*
X131395858Y-68134184D01*
X131205382Y-68181803D01*
X131062525Y-68181803D01*
X130872049Y-68134184D01*
X130776811Y-68086565D01*
X130681573Y-67991327D01*
X130633953Y-67848470D01*
X130633953Y-67753232D01*
X130681573Y-67610375D01*
X130729192Y-67562756D01*
X130729192Y-67181803D02*
X130681573Y-67134184D01*
X130633953Y-67038946D01*
X130633953Y-66800851D01*
X130681573Y-66705613D01*
X130729192Y-66657994D01*
X130824430Y-66610375D01*
X130919668Y-66610375D01*
X131062525Y-66657994D01*
X131633953Y-67229422D01*
X131633953Y-66610375D01*
X130729192Y-66229422D02*
X130681573Y-66181803D01*
X130633953Y-66086565D01*
X130633953Y-65848470D01*
X130681573Y-65753232D01*
X130729192Y-65705613D01*
X130824430Y-65657994D01*
X130919668Y-65657994D01*
X131062525Y-65705613D01*
X131633953Y-66277041D01*
X131633953Y-65657994D01*
G04 #@! TO.C,C21*
X138657142Y-56957142D02*
X138609523Y-57004761D01*
X138466666Y-57052380D01*
X138371428Y-57052380D01*
X138228571Y-57004761D01*
X138133333Y-56909523D01*
X138085714Y-56814285D01*
X138038095Y-56623809D01*
X138038095Y-56480952D01*
X138085714Y-56290476D01*
X138133333Y-56195238D01*
X138228571Y-56100000D01*
X138371428Y-56052380D01*
X138466666Y-56052380D01*
X138609523Y-56100000D01*
X138657142Y-56147619D01*
X139038095Y-56147619D02*
X139085714Y-56100000D01*
X139180952Y-56052380D01*
X139419047Y-56052380D01*
X139514285Y-56100000D01*
X139561904Y-56147619D01*
X139609523Y-56242857D01*
X139609523Y-56338095D01*
X139561904Y-56480952D01*
X138990476Y-57052380D01*
X139609523Y-57052380D01*
X140561904Y-57052380D02*
X139990476Y-57052380D01*
X140276190Y-57052380D02*
X140276190Y-56052380D01*
X140180952Y-56195238D01*
X140085714Y-56290476D01*
X139990476Y-56338095D01*
G04 #@! TO.C,C19*
X152867142Y-55697142D02*
X152819523Y-55744761D01*
X152676666Y-55792380D01*
X152581428Y-55792380D01*
X152438571Y-55744761D01*
X152343333Y-55649523D01*
X152295714Y-55554285D01*
X152248095Y-55363809D01*
X152248095Y-55220952D01*
X152295714Y-55030476D01*
X152343333Y-54935238D01*
X152438571Y-54840000D01*
X152581428Y-54792380D01*
X152676666Y-54792380D01*
X152819523Y-54840000D01*
X152867142Y-54887619D01*
X153819523Y-55792380D02*
X153248095Y-55792380D01*
X153533809Y-55792380D02*
X153533809Y-54792380D01*
X153438571Y-54935238D01*
X153343333Y-55030476D01*
X153248095Y-55078095D01*
X154295714Y-55792380D02*
X154486190Y-55792380D01*
X154581428Y-55744761D01*
X154629047Y-55697142D01*
X154724285Y-55554285D01*
X154771904Y-55363809D01*
X154771904Y-54982857D01*
X154724285Y-54887619D01*
X154676666Y-54840000D01*
X154581428Y-54792380D01*
X154390952Y-54792380D01*
X154295714Y-54840000D01*
X154248095Y-54887619D01*
X154200476Y-54982857D01*
X154200476Y-55220952D01*
X154248095Y-55316190D01*
X154295714Y-55363809D01*
X154390952Y-55411428D01*
X154581428Y-55411428D01*
X154676666Y-55363809D01*
X154724285Y-55316190D01*
X154771904Y-55220952D01*
G04 #@! TO.C,C18*
X131457142Y-58957142D02*
X131409523Y-59004761D01*
X131266666Y-59052380D01*
X131171428Y-59052380D01*
X131028571Y-59004761D01*
X130933333Y-58909523D01*
X130885714Y-58814285D01*
X130838095Y-58623809D01*
X130838095Y-58480952D01*
X130885714Y-58290476D01*
X130933333Y-58195238D01*
X131028571Y-58100000D01*
X131171428Y-58052380D01*
X131266666Y-58052380D01*
X131409523Y-58100000D01*
X131457142Y-58147619D01*
X132409523Y-59052380D02*
X131838095Y-59052380D01*
X132123809Y-59052380D02*
X132123809Y-58052380D01*
X132028571Y-58195238D01*
X131933333Y-58290476D01*
X131838095Y-58338095D01*
X132980952Y-58480952D02*
X132885714Y-58433333D01*
X132838095Y-58385714D01*
X132790476Y-58290476D01*
X132790476Y-58242857D01*
X132838095Y-58147619D01*
X132885714Y-58100000D01*
X132980952Y-58052380D01*
X133171428Y-58052380D01*
X133266666Y-58100000D01*
X133314285Y-58147619D01*
X133361904Y-58242857D01*
X133361904Y-58290476D01*
X133314285Y-58385714D01*
X133266666Y-58433333D01*
X133171428Y-58480952D01*
X132980952Y-58480952D01*
X132885714Y-58528571D01*
X132838095Y-58576190D01*
X132790476Y-58671428D01*
X132790476Y-58861904D01*
X132838095Y-58957142D01*
X132885714Y-59004761D01*
X132980952Y-59052380D01*
X133171428Y-59052380D01*
X133266666Y-59004761D01*
X133314285Y-58957142D01*
X133361904Y-58861904D01*
X133361904Y-58671428D01*
X133314285Y-58576190D01*
X133266666Y-58528571D01*
X133171428Y-58480952D01*
G04 #@! TO.C,C17*
X125057142Y-59157142D02*
X125009523Y-59204761D01*
X124866666Y-59252380D01*
X124771428Y-59252380D01*
X124628571Y-59204761D01*
X124533333Y-59109523D01*
X124485714Y-59014285D01*
X124438095Y-58823809D01*
X124438095Y-58680952D01*
X124485714Y-58490476D01*
X124533333Y-58395238D01*
X124628571Y-58300000D01*
X124771428Y-58252380D01*
X124866666Y-58252380D01*
X125009523Y-58300000D01*
X125057142Y-58347619D01*
X126009523Y-59252380D02*
X125438095Y-59252380D01*
X125723809Y-59252380D02*
X125723809Y-58252380D01*
X125628571Y-58395238D01*
X125533333Y-58490476D01*
X125438095Y-58538095D01*
X126342857Y-58252380D02*
X127009523Y-58252380D01*
X126580952Y-59252380D01*
G04 #@! TO.C,C16*
X134557142Y-58157142D02*
X134509523Y-58204761D01*
X134366666Y-58252380D01*
X134271428Y-58252380D01*
X134128571Y-58204761D01*
X134033333Y-58109523D01*
X133985714Y-58014285D01*
X133938095Y-57823809D01*
X133938095Y-57680952D01*
X133985714Y-57490476D01*
X134033333Y-57395238D01*
X134128571Y-57300000D01*
X134271428Y-57252380D01*
X134366666Y-57252380D01*
X134509523Y-57300000D01*
X134557142Y-57347619D01*
X135509523Y-58252380D02*
X134938095Y-58252380D01*
X135223809Y-58252380D02*
X135223809Y-57252380D01*
X135128571Y-57395238D01*
X135033333Y-57490476D01*
X134938095Y-57538095D01*
X136366666Y-57252380D02*
X136176190Y-57252380D01*
X136080952Y-57300000D01*
X136033333Y-57347619D01*
X135938095Y-57490476D01*
X135890476Y-57680952D01*
X135890476Y-58061904D01*
X135938095Y-58157142D01*
X135985714Y-58204761D01*
X136080952Y-58252380D01*
X136271428Y-58252380D01*
X136366666Y-58204761D01*
X136414285Y-58157142D01*
X136461904Y-58061904D01*
X136461904Y-57823809D01*
X136414285Y-57728571D01*
X136366666Y-57680952D01*
X136271428Y-57633333D01*
X136080952Y-57633333D01*
X135985714Y-57680952D01*
X135938095Y-57728571D01*
X135890476Y-57823809D01*
G04 #@! TO.C,C15*
X125257142Y-61857142D02*
X125209523Y-61904761D01*
X125066666Y-61952380D01*
X124971428Y-61952380D01*
X124828571Y-61904761D01*
X124733333Y-61809523D01*
X124685714Y-61714285D01*
X124638095Y-61523809D01*
X124638095Y-61380952D01*
X124685714Y-61190476D01*
X124733333Y-61095238D01*
X124828571Y-61000000D01*
X124971428Y-60952380D01*
X125066666Y-60952380D01*
X125209523Y-61000000D01*
X125257142Y-61047619D01*
X126209523Y-61952380D02*
X125638095Y-61952380D01*
X125923809Y-61952380D02*
X125923809Y-60952380D01*
X125828571Y-61095238D01*
X125733333Y-61190476D01*
X125638095Y-61238095D01*
X127114285Y-60952380D02*
X126638095Y-60952380D01*
X126590476Y-61428571D01*
X126638095Y-61380952D01*
X126733333Y-61333333D01*
X126971428Y-61333333D01*
X127066666Y-61380952D01*
X127114285Y-61428571D01*
X127161904Y-61523809D01*
X127161904Y-61761904D01*
X127114285Y-61857142D01*
X127066666Y-61904761D01*
X126971428Y-61952380D01*
X126733333Y-61952380D01*
X126638095Y-61904761D01*
X126590476Y-61857142D01*
G04 #@! TO.C,C14*
X140547142Y-100477142D02*
X140499523Y-100524761D01*
X140356666Y-100572380D01*
X140261428Y-100572380D01*
X140118571Y-100524761D01*
X140023333Y-100429523D01*
X139975714Y-100334285D01*
X139928095Y-100143809D01*
X139928095Y-100000952D01*
X139975714Y-99810476D01*
X140023333Y-99715238D01*
X140118571Y-99620000D01*
X140261428Y-99572380D01*
X140356666Y-99572380D01*
X140499523Y-99620000D01*
X140547142Y-99667619D01*
X141499523Y-100572380D02*
X140928095Y-100572380D01*
X141213809Y-100572380D02*
X141213809Y-99572380D01*
X141118571Y-99715238D01*
X141023333Y-99810476D01*
X140928095Y-99858095D01*
X142356666Y-99905714D02*
X142356666Y-100572380D01*
X142118571Y-99524761D02*
X141880476Y-100239047D01*
X142499523Y-100239047D01*
G04 #@! TO.C,C13*
X150057142Y-41157142D02*
X150009523Y-41204761D01*
X149866666Y-41252380D01*
X149771428Y-41252380D01*
X149628571Y-41204761D01*
X149533333Y-41109523D01*
X149485714Y-41014285D01*
X149438095Y-40823809D01*
X149438095Y-40680952D01*
X149485714Y-40490476D01*
X149533333Y-40395238D01*
X149628571Y-40300000D01*
X149771428Y-40252380D01*
X149866666Y-40252380D01*
X150009523Y-40300000D01*
X150057142Y-40347619D01*
X151009523Y-41252380D02*
X150438095Y-41252380D01*
X150723809Y-41252380D02*
X150723809Y-40252380D01*
X150628571Y-40395238D01*
X150533333Y-40490476D01*
X150438095Y-40538095D01*
X151342857Y-40252380D02*
X151961904Y-40252380D01*
X151628571Y-40633333D01*
X151771428Y-40633333D01*
X151866666Y-40680952D01*
X151914285Y-40728571D01*
X151961904Y-40823809D01*
X151961904Y-41061904D01*
X151914285Y-41157142D01*
X151866666Y-41204761D01*
X151771428Y-41252380D01*
X151485714Y-41252380D01*
X151390476Y-41204761D01*
X151342857Y-41157142D01*
G04 #@! TO.C,C12*
X140547142Y-103477142D02*
X140499523Y-103524761D01*
X140356666Y-103572380D01*
X140261428Y-103572380D01*
X140118571Y-103524761D01*
X140023333Y-103429523D01*
X139975714Y-103334285D01*
X139928095Y-103143809D01*
X139928095Y-103000952D01*
X139975714Y-102810476D01*
X140023333Y-102715238D01*
X140118571Y-102620000D01*
X140261428Y-102572380D01*
X140356666Y-102572380D01*
X140499523Y-102620000D01*
X140547142Y-102667619D01*
X141499523Y-103572380D02*
X140928095Y-103572380D01*
X141213809Y-103572380D02*
X141213809Y-102572380D01*
X141118571Y-102715238D01*
X141023333Y-102810476D01*
X140928095Y-102858095D01*
X141880476Y-102667619D02*
X141928095Y-102620000D01*
X142023333Y-102572380D01*
X142261428Y-102572380D01*
X142356666Y-102620000D01*
X142404285Y-102667619D01*
X142451904Y-102762857D01*
X142451904Y-102858095D01*
X142404285Y-103000952D01*
X141832857Y-103572380D01*
X142451904Y-103572380D01*
G04 #@! TO.C,C11*
X134357142Y-85857142D02*
X134309523Y-85904761D01*
X134166666Y-85952380D01*
X134071428Y-85952380D01*
X133928571Y-85904761D01*
X133833333Y-85809523D01*
X133785714Y-85714285D01*
X133738095Y-85523809D01*
X133738095Y-85380952D01*
X133785714Y-85190476D01*
X133833333Y-85095238D01*
X133928571Y-85000000D01*
X134071428Y-84952380D01*
X134166666Y-84952380D01*
X134309523Y-85000000D01*
X134357142Y-85047619D01*
X135309523Y-85952380D02*
X134738095Y-85952380D01*
X135023809Y-85952380D02*
X135023809Y-84952380D01*
X134928571Y-85095238D01*
X134833333Y-85190476D01*
X134738095Y-85238095D01*
X136261904Y-85952380D02*
X135690476Y-85952380D01*
X135976190Y-85952380D02*
X135976190Y-84952380D01*
X135880952Y-85095238D01*
X135785714Y-85190476D01*
X135690476Y-85238095D01*
G04 #@! TO.C,C10*
X150957142Y-44157142D02*
X150909523Y-44204761D01*
X150766666Y-44252380D01*
X150671428Y-44252380D01*
X150528571Y-44204761D01*
X150433333Y-44109523D01*
X150385714Y-44014285D01*
X150338095Y-43823809D01*
X150338095Y-43680952D01*
X150385714Y-43490476D01*
X150433333Y-43395238D01*
X150528571Y-43300000D01*
X150671428Y-43252380D01*
X150766666Y-43252380D01*
X150909523Y-43300000D01*
X150957142Y-43347619D01*
X151909523Y-44252380D02*
X151338095Y-44252380D01*
X151623809Y-44252380D02*
X151623809Y-43252380D01*
X151528571Y-43395238D01*
X151433333Y-43490476D01*
X151338095Y-43538095D01*
X152528571Y-43252380D02*
X152623809Y-43252380D01*
X152719047Y-43300000D01*
X152766666Y-43347619D01*
X152814285Y-43442857D01*
X152861904Y-43633333D01*
X152861904Y-43871428D01*
X152814285Y-44061904D01*
X152766666Y-44157142D01*
X152719047Y-44204761D01*
X152623809Y-44252380D01*
X152528571Y-44252380D01*
X152433333Y-44204761D01*
X152385714Y-44157142D01*
X152338095Y-44061904D01*
X152290476Y-43871428D01*
X152290476Y-43633333D01*
X152338095Y-43442857D01*
X152385714Y-43347619D01*
X152433333Y-43300000D01*
X152528571Y-43252380D01*
G04 #@! TO.C,C9*
X153103333Y-68167142D02*
X153055714Y-68214761D01*
X152912857Y-68262380D01*
X152817619Y-68262380D01*
X152674761Y-68214761D01*
X152579523Y-68119523D01*
X152531904Y-68024285D01*
X152484285Y-67833809D01*
X152484285Y-67690952D01*
X152531904Y-67500476D01*
X152579523Y-67405238D01*
X152674761Y-67310000D01*
X152817619Y-67262380D01*
X152912857Y-67262380D01*
X153055714Y-67310000D01*
X153103333Y-67357619D01*
X153579523Y-68262380D02*
X153770000Y-68262380D01*
X153865238Y-68214761D01*
X153912857Y-68167142D01*
X154008095Y-68024285D01*
X154055714Y-67833809D01*
X154055714Y-67452857D01*
X154008095Y-67357619D01*
X153960476Y-67310000D01*
X153865238Y-67262380D01*
X153674761Y-67262380D01*
X153579523Y-67310000D01*
X153531904Y-67357619D01*
X153484285Y-67452857D01*
X153484285Y-67690952D01*
X153531904Y-67786190D01*
X153579523Y-67833809D01*
X153674761Y-67881428D01*
X153865238Y-67881428D01*
X153960476Y-67833809D01*
X154008095Y-67786190D01*
X154055714Y-67690952D01*
G04 #@! TO.C,C8*
X138533333Y-42957142D02*
X138485714Y-43004761D01*
X138342857Y-43052380D01*
X138247619Y-43052380D01*
X138104761Y-43004761D01*
X138009523Y-42909523D01*
X137961904Y-42814285D01*
X137914285Y-42623809D01*
X137914285Y-42480952D01*
X137961904Y-42290476D01*
X138009523Y-42195238D01*
X138104761Y-42100000D01*
X138247619Y-42052380D01*
X138342857Y-42052380D01*
X138485714Y-42100000D01*
X138533333Y-42147619D01*
X139104761Y-42480952D02*
X139009523Y-42433333D01*
X138961904Y-42385714D01*
X138914285Y-42290476D01*
X138914285Y-42242857D01*
X138961904Y-42147619D01*
X139009523Y-42100000D01*
X139104761Y-42052380D01*
X139295238Y-42052380D01*
X139390476Y-42100000D01*
X139438095Y-42147619D01*
X139485714Y-42242857D01*
X139485714Y-42290476D01*
X139438095Y-42385714D01*
X139390476Y-42433333D01*
X139295238Y-42480952D01*
X139104761Y-42480952D01*
X139009523Y-42528571D01*
X138961904Y-42576190D01*
X138914285Y-42671428D01*
X138914285Y-42861904D01*
X138961904Y-42957142D01*
X139009523Y-43004761D01*
X139104761Y-43052380D01*
X139295238Y-43052380D01*
X139390476Y-43004761D01*
X139438095Y-42957142D01*
X139485714Y-42861904D01*
X139485714Y-42671428D01*
X139438095Y-42576190D01*
X139390476Y-42528571D01*
X139295238Y-42480952D01*
G04 #@! TO.C,C7*
X123933333Y-103457142D02*
X123885714Y-103504761D01*
X123742857Y-103552380D01*
X123647619Y-103552380D01*
X123504761Y-103504761D01*
X123409523Y-103409523D01*
X123361904Y-103314285D01*
X123314285Y-103123809D01*
X123314285Y-102980952D01*
X123361904Y-102790476D01*
X123409523Y-102695238D01*
X123504761Y-102600000D01*
X123647619Y-102552380D01*
X123742857Y-102552380D01*
X123885714Y-102600000D01*
X123933333Y-102647619D01*
X124266666Y-102552380D02*
X124933333Y-102552380D01*
X124504761Y-103552380D01*
G04 #@! TO.C,C6*
X134633333Y-90457142D02*
X134585714Y-90504761D01*
X134442857Y-90552380D01*
X134347619Y-90552380D01*
X134204761Y-90504761D01*
X134109523Y-90409523D01*
X134061904Y-90314285D01*
X134014285Y-90123809D01*
X134014285Y-89980952D01*
X134061904Y-89790476D01*
X134109523Y-89695238D01*
X134204761Y-89600000D01*
X134347619Y-89552380D01*
X134442857Y-89552380D01*
X134585714Y-89600000D01*
X134633333Y-89647619D01*
X135490476Y-89552380D02*
X135300000Y-89552380D01*
X135204761Y-89600000D01*
X135157142Y-89647619D01*
X135061904Y-89790476D01*
X135014285Y-89980952D01*
X135014285Y-90361904D01*
X135061904Y-90457142D01*
X135109523Y-90504761D01*
X135204761Y-90552380D01*
X135395238Y-90552380D01*
X135490476Y-90504761D01*
X135538095Y-90457142D01*
X135585714Y-90361904D01*
X135585714Y-90123809D01*
X135538095Y-90028571D01*
X135490476Y-89980952D01*
X135395238Y-89933333D01*
X135204761Y-89933333D01*
X135109523Y-89980952D01*
X135061904Y-90028571D01*
X135014285Y-90123809D01*
G04 #@! TO.C,C5*
X141703333Y-49897142D02*
X141655714Y-49944761D01*
X141512857Y-49992380D01*
X141417619Y-49992380D01*
X141274761Y-49944761D01*
X141179523Y-49849523D01*
X141131904Y-49754285D01*
X141084285Y-49563809D01*
X141084285Y-49420952D01*
X141131904Y-49230476D01*
X141179523Y-49135238D01*
X141274761Y-49040000D01*
X141417619Y-48992380D01*
X141512857Y-48992380D01*
X141655714Y-49040000D01*
X141703333Y-49087619D01*
X142608095Y-48992380D02*
X142131904Y-48992380D01*
X142084285Y-49468571D01*
X142131904Y-49420952D01*
X142227142Y-49373333D01*
X142465238Y-49373333D01*
X142560476Y-49420952D01*
X142608095Y-49468571D01*
X142655714Y-49563809D01*
X142655714Y-49801904D01*
X142608095Y-49897142D01*
X142560476Y-49944761D01*
X142465238Y-49992380D01*
X142227142Y-49992380D01*
X142131904Y-49944761D01*
X142084285Y-49897142D01*
G04 #@! TO.C,C4*
X141078333Y-48197142D02*
X141030714Y-48244761D01*
X140887857Y-48292380D01*
X140792619Y-48292380D01*
X140649761Y-48244761D01*
X140554523Y-48149523D01*
X140506904Y-48054285D01*
X140459285Y-47863809D01*
X140459285Y-47720952D01*
X140506904Y-47530476D01*
X140554523Y-47435238D01*
X140649761Y-47340000D01*
X140792619Y-47292380D01*
X140887857Y-47292380D01*
X141030714Y-47340000D01*
X141078333Y-47387619D01*
X141935476Y-47625714D02*
X141935476Y-48292380D01*
X141697380Y-47244761D02*
X141459285Y-47959047D01*
X142078333Y-47959047D01*
G04 #@! TO.C,C3*
X117133333Y-99557142D02*
X117085714Y-99604761D01*
X116942857Y-99652380D01*
X116847619Y-99652380D01*
X116704761Y-99604761D01*
X116609523Y-99509523D01*
X116561904Y-99414285D01*
X116514285Y-99223809D01*
X116514285Y-99080952D01*
X116561904Y-98890476D01*
X116609523Y-98795238D01*
X116704761Y-98700000D01*
X116847619Y-98652380D01*
X116942857Y-98652380D01*
X117085714Y-98700000D01*
X117133333Y-98747619D01*
X117466666Y-98652380D02*
X118085714Y-98652380D01*
X117752380Y-99033333D01*
X117895238Y-99033333D01*
X117990476Y-99080952D01*
X118038095Y-99128571D01*
X118085714Y-99223809D01*
X118085714Y-99461904D01*
X118038095Y-99557142D01*
X117990476Y-99604761D01*
X117895238Y-99652380D01*
X117609523Y-99652380D01*
X117514285Y-99604761D01*
X117466666Y-99557142D01*
G04 #@! TO.C,C2*
X134433333Y-40057142D02*
X134385714Y-40104761D01*
X134242857Y-40152380D01*
X134147619Y-40152380D01*
X134004761Y-40104761D01*
X133909523Y-40009523D01*
X133861904Y-39914285D01*
X133814285Y-39723809D01*
X133814285Y-39580952D01*
X133861904Y-39390476D01*
X133909523Y-39295238D01*
X134004761Y-39200000D01*
X134147619Y-39152380D01*
X134242857Y-39152380D01*
X134385714Y-39200000D01*
X134433333Y-39247619D01*
X134814285Y-39247619D02*
X134861904Y-39200000D01*
X134957142Y-39152380D01*
X135195238Y-39152380D01*
X135290476Y-39200000D01*
X135338095Y-39247619D01*
X135385714Y-39342857D01*
X135385714Y-39438095D01*
X135338095Y-39580952D01*
X134766666Y-40152380D01*
X135385714Y-40152380D01*
G04 #@! TO.C,C1*
X143133333Y-56157142D02*
X143085714Y-56204761D01*
X142942857Y-56252380D01*
X142847619Y-56252380D01*
X142704761Y-56204761D01*
X142609523Y-56109523D01*
X142561904Y-56014285D01*
X142514285Y-55823809D01*
X142514285Y-55680952D01*
X142561904Y-55490476D01*
X142609523Y-55395238D01*
X142704761Y-55300000D01*
X142847619Y-55252380D01*
X142942857Y-55252380D01*
X143085714Y-55300000D01*
X143133333Y-55347619D01*
X144085714Y-56252380D02*
X143514285Y-56252380D01*
X143800000Y-56252380D02*
X143800000Y-55252380D01*
X143704761Y-55395238D01*
X143609523Y-55490476D01*
X143514285Y-55538095D01*
G04 #@! TO.C,U3*
X144738095Y-48452380D02*
X144738095Y-49261904D01*
X144785714Y-49357142D01*
X144833333Y-49404761D01*
X144928571Y-49452380D01*
X145119047Y-49452380D01*
X145214285Y-49404761D01*
X145261904Y-49357142D01*
X145309523Y-49261904D01*
X145309523Y-48452380D01*
X145690476Y-48452380D02*
X146309523Y-48452380D01*
X145976190Y-48833333D01*
X146119047Y-48833333D01*
X146214285Y-48880952D01*
X146261904Y-48928571D01*
X146309523Y-49023809D01*
X146309523Y-49261904D01*
X146261904Y-49357142D01*
X146214285Y-49404761D01*
X146119047Y-49452380D01*
X145833333Y-49452380D01*
X145738095Y-49404761D01*
X145690476Y-49357142D01*
G04 #@! TD*
M02*
