G04 #@! TF.GenerationSoftware,KiCad,Pcbnew,5.1.10-88a1d61d58~88~ubuntu20.04.1*
G04 #@! TF.CreationDate,2021-05-21T15:29:45+02:00*
G04 #@! TF.ProjectId,osw-light-modifiedv3,6f73772d-6c69-4676-9874-2d6d6f646966,rev?*
G04 #@! TF.SameCoordinates,Original*
G04 #@! TF.FileFunction,Copper,L4,Bot*
G04 #@! TF.FilePolarity,Positive*
%FSLAX46Y46*%
G04 Gerber Fmt 4.6, Leading zero omitted, Abs format (unit mm)*
G04 Created by KiCad (PCBNEW 5.1.10-88a1d61d58~88~ubuntu20.04.1) date 2021-05-21 15:29:45*
%MOMM*%
%LPD*%
G01*
G04 APERTURE LIST*
G04 #@! TA.AperFunction,ComponentPad*
%ADD10O,1.500000X2.000000*%
G04 #@! TD*
G04 #@! TA.AperFunction,ComponentPad*
%ADD11O,1.524000X0.600000*%
G04 #@! TD*
G04 #@! TA.AperFunction,ComponentPad*
%ADD12O,1.700000X1.700000*%
G04 #@! TD*
G04 #@! TA.AperFunction,ComponentPad*
%ADD13R,1.700000X1.700000*%
G04 #@! TD*
G04 #@! TA.AperFunction,SMDPad,CuDef*
%ADD14R,2.500000X0.350000*%
G04 #@! TD*
G04 #@! TA.AperFunction,ViaPad*
%ADD15C,0.500000*%
G04 #@! TD*
G04 #@! TA.AperFunction,Conductor*
%ADD16C,0.250000*%
G04 #@! TD*
G04 #@! TA.AperFunction,Conductor*
%ADD17C,0.400000*%
G04 #@! TD*
G04 #@! TA.AperFunction,Conductor*
%ADD18C,0.500000*%
G04 #@! TD*
G04 #@! TA.AperFunction,Conductor*
%ADD19C,0.254000*%
G04 #@! TD*
G04 #@! TA.AperFunction,Conductor*
%ADD20C,0.100000*%
G04 #@! TD*
G04 APERTURE END LIST*
D10*
G04 #@! TO.P,U12,*
G04 #@! TO.N,*
X153268000Y-104727000D03*
X147172000Y-104727000D03*
G04 #@! TD*
D11*
G04 #@! TO.P,SW3,*
G04 #@! TO.N,*
X153786999Y-61214999D03*
X153786999Y-66294999D03*
G04 #@! TD*
G04 #@! TO.P,SW2,*
G04 #@! TO.N,*
X117690000Y-64710000D03*
X117690000Y-59630000D03*
G04 #@! TD*
D12*
G04 #@! TO.P,J3,2*
G04 #@! TO.N,GND*
X117610000Y-94870000D03*
D13*
G04 #@! TO.P,J3,1*
G04 #@! TO.N,/VBAT*
X120150000Y-94870000D03*
G04 #@! TD*
D11*
G04 #@! TO.P,SW4,*
G04 #@! TO.N,*
X117323001Y-88515001D03*
X117323001Y-83435001D03*
G04 #@! TD*
D14*
G04 #@! TO.P,U10,6*
G04 #@! TO.N,GND*
X130680765Y-78133196D03*
G04 #@! TO.P,U10,5*
X130680765Y-78833196D03*
G04 #@! TO.P,U10,4*
G04 #@! TO.N,+3V3*
X130680765Y-79533196D03*
G04 #@! TO.P,U10,3*
G04 #@! TO.N,Net-(R33-Pad2)*
X130680765Y-80233196D03*
G04 #@! TO.P,U10,2*
G04 #@! TO.N,/LEDK*
X130680765Y-80933196D03*
G04 #@! TO.P,U10,1*
G04 #@! TO.N,GND*
X130680765Y-81633196D03*
G04 #@! TO.P,U10,7*
G04 #@! TO.N,/TFT_DC*
X130680765Y-77433196D03*
G04 #@! TO.P,U10,8*
G04 #@! TO.N,/TFT_CS*
X130680765Y-76733196D03*
G04 #@! TO.P,U10,9*
G04 #@! TO.N,/SCK*
X130680765Y-76033196D03*
G04 #@! TO.P,U10,10*
G04 #@! TO.N,/MOSI*
X130680765Y-75333196D03*
G04 #@! TO.P,U10,11*
G04 #@! TO.N,/TFT_RST*
X130680765Y-74633196D03*
G04 #@! TO.P,U10,12*
G04 #@! TO.N,GND*
X130680765Y-73933196D03*
G04 #@! TD*
D11*
G04 #@! TO.P,SW1,*
G04 #@! TO.N,*
X117730000Y-72670000D03*
X117730000Y-67590000D03*
G04 #@! TD*
D15*
G04 #@! TO.N,/VBUS*
X118285000Y-100715000D03*
X136525000Y-104850000D03*
G04 #@! TO.N,GND*
X143500000Y-96575000D03*
X142950000Y-46950000D03*
X143725000Y-46925000D03*
X143700000Y-46225000D03*
X142950000Y-46250000D03*
X123250000Y-56175000D03*
X127875000Y-56200000D03*
X130975000Y-67725000D03*
X126575000Y-67225000D03*
X152300000Y-63175000D03*
X148175000Y-38875000D03*
X143300000Y-38925000D03*
X145175000Y-43875000D03*
X149525000Y-46600000D03*
X148225000Y-51525000D03*
X151025000Y-53250000D03*
X132600000Y-81700000D03*
X132600000Y-78500000D03*
X120800000Y-80300000D03*
X120700000Y-77900000D03*
X127800000Y-76300000D03*
X118400000Y-86550000D03*
X120500000Y-75800000D03*
X122025000Y-66150000D03*
X123950000Y-60075000D03*
X123000000Y-63125000D03*
X133525000Y-59375000D03*
X136875000Y-59325000D03*
X139325000Y-61150000D03*
X147500000Y-60850000D03*
X154275000Y-70125000D03*
X138760000Y-70630000D03*
X154300000Y-84600000D03*
X152200000Y-92900000D03*
X151500000Y-100450000D03*
X141975000Y-103225000D03*
X141975000Y-100150000D03*
X122500000Y-93000000D03*
X117150000Y-103675000D03*
X122725000Y-105200000D03*
X129000000Y-91000000D03*
X136275000Y-91925000D03*
X137940000Y-105120000D03*
X130775000Y-103375000D03*
X122950000Y-101800000D03*
X139980000Y-56595000D03*
X133625000Y-88825002D03*
X138500000Y-90175000D03*
X128400000Y-74100000D03*
X148750000Y-92290000D03*
G04 #@! TO.N,+3V3*
X139025000Y-87825000D03*
X149000000Y-96300000D03*
X132600000Y-79600000D03*
X119725000Y-85500000D03*
X148625000Y-67225000D03*
X153275000Y-70150000D03*
X147575000Y-88975000D03*
X153300000Y-88150000D03*
X130800000Y-85950000D03*
X130000000Y-94500000D03*
X127500000Y-90500000D03*
X134775000Y-86000000D03*
X135917500Y-90217500D03*
X126700000Y-79100000D03*
X125805765Y-80000000D03*
X145800000Y-94800000D03*
X128560101Y-66289899D03*
X130980101Y-66144899D03*
X147000000Y-66000004D03*
X144000000Y-66000000D03*
X119200000Y-61600000D03*
X119250000Y-69425000D03*
G04 #@! TO.N,/VBAT*
X130060000Y-101300000D03*
G04 #@! TO.N,/VCC*
X126075000Y-64425000D03*
X137770000Y-99860000D03*
X140280000Y-102880000D03*
X140200000Y-63750000D03*
X137000000Y-62275000D03*
X133450000Y-62300000D03*
X127375000Y-61275000D03*
X123650000Y-66425000D03*
X123625000Y-68050000D03*
X138475000Y-63775000D03*
G04 #@! TO.N,Net-(D1-Pad2)*
X125560000Y-98280000D03*
X122250000Y-98290000D03*
G04 #@! TO.N,/LEDK*
X128730765Y-81383196D03*
G04 #@! TO.N,/RTC_INT*
X129600000Y-69100000D03*
X147200000Y-70000000D03*
G04 #@! TO.N,/B_MON*
X119100000Y-91300000D03*
X145200000Y-73300000D03*
G04 #@! TO.N,/PIN_LED*
X136770000Y-73329998D03*
X125355765Y-73355765D03*
G04 #@! TO.N,/BTN2*
X120670000Y-74215000D03*
X140270000Y-73670000D03*
G04 #@! TO.N,/BTN3*
X120070000Y-67340000D03*
X137599996Y-70700000D03*
G04 #@! TO.N,/FLASH*
X141100000Y-86100000D03*
X122549990Y-85200000D03*
G04 #@! TO.N,/TX*
X151234000Y-90776000D03*
X144370000Y-90840000D03*
G04 #@! TO.N,/SDA*
X145650002Y-88959998D03*
X140100000Y-88959998D03*
G04 #@! TO.N,/SCL*
X153870000Y-90140000D03*
X137590000Y-90810000D03*
G04 #@! TO.N,/IO34*
X149170000Y-70040000D03*
X135000000Y-67300000D03*
G04 #@! TO.N,/IO35*
X148170000Y-70040000D03*
X134100000Y-68100000D03*
G04 #@! TO.N,/TFT_CS*
X145130000Y-83020000D03*
X135920000Y-76720000D03*
X135900000Y-83080000D03*
G04 #@! TO.N,/SCK*
X146150000Y-83020000D03*
X136870000Y-76050000D03*
X136850000Y-82650000D03*
G04 #@! TO.N,/MOSI*
X153280000Y-83010000D03*
G04 #@! TO.N,/RX*
X145170000Y-91540000D03*
X150270000Y-91415010D03*
G04 #@! TO.N,/TFT_RST*
X146200000Y-73200000D03*
G04 #@! TO.N,/TFT_DC*
X141090000Y-69920000D03*
X133070000Y-77430000D03*
X133020000Y-69990000D03*
G04 #@! TO.N,Net-(C2-Pad1)*
X136470000Y-42740000D03*
X137470000Y-49440000D03*
G04 #@! TO.N,+3.3VA*
X147700000Y-58800000D03*
X117500000Y-39725000D03*
X145650000Y-38900000D03*
X132875000Y-41175000D03*
X149550000Y-43850000D03*
X150975000Y-57425000D03*
X145975000Y-45150000D03*
X138380000Y-58995000D03*
X138430000Y-56570000D03*
X142699996Y-62600000D03*
X144000000Y-43900002D03*
G04 #@! TO.N,Net-(R33-Pad2)*
X128730764Y-80233196D03*
G04 #@! TO.N,/LO*
X145970000Y-48540000D03*
X141270000Y-66540000D03*
G04 #@! TD*
D16*
G04 #@! TO.N,GND*
X132233196Y-78133196D02*
X132600000Y-78500000D01*
X130680765Y-78133196D02*
X132233196Y-78133196D01*
X132266804Y-78833196D02*
X132600000Y-78500000D01*
X130680765Y-78833196D02*
X132266804Y-78833196D01*
X132533196Y-81633196D02*
X132600000Y-81700000D01*
X130680765Y-81633196D02*
X132533196Y-81633196D01*
X130680765Y-73933196D02*
X128566804Y-73933196D01*
X128566804Y-73933196D02*
X128400000Y-74100000D01*
G04 #@! TO.N,+3V3*
X132533196Y-79533196D02*
X132600000Y-79600000D01*
X130680765Y-79533196D02*
X132533196Y-79533196D01*
D17*
G04 #@! TO.N,/VBAT*
X120150000Y-94870000D02*
X123630000Y-94870000D01*
X123630000Y-94870000D02*
X130060000Y-101300000D01*
D16*
G04 #@! TO.N,Net-(D1-Pad2)*
X125550000Y-98290000D02*
X125560000Y-98280000D01*
D18*
X122260000Y-98280000D02*
X122250000Y-98290000D01*
X125560000Y-98280000D02*
X122260000Y-98280000D01*
D16*
G04 #@! TO.N,/LEDK*
X129180765Y-80933196D02*
X130680765Y-80933196D01*
X128730765Y-81383196D02*
X129180765Y-80933196D01*
G04 #@! TO.N,/RTC_INT*
X146300000Y-69100000D02*
X147200000Y-70000000D01*
X129600000Y-69100000D02*
X146300000Y-69100000D01*
G04 #@! TO.N,/B_MON*
X143600000Y-71700000D02*
X145200000Y-73300000D01*
X121900000Y-71700000D02*
X143600000Y-71700000D01*
X119100000Y-74500000D02*
X121900000Y-71700000D01*
X119100000Y-91300000D02*
X119100000Y-74500000D01*
G04 #@! TO.N,/PIN_LED*
X136640002Y-73200000D02*
X125511530Y-73200000D01*
X125511530Y-73200000D02*
X125355765Y-73355765D01*
X136770000Y-73329998D02*
X136640002Y-73200000D01*
G04 #@! TO.N,/BTN2*
X139200000Y-72600000D02*
X140270000Y-73670000D01*
X122285000Y-72600000D02*
X139200000Y-72600000D01*
X120670000Y-74215000D02*
X122285000Y-72600000D01*
G04 #@! TO.N,/BTN3*
X120070000Y-67340000D02*
X123430000Y-70700000D01*
X123430000Y-70700000D02*
X137599996Y-70700000D01*
G04 #@! TO.N,/FLASH*
X140200000Y-85200000D02*
X122549990Y-85200000D01*
X141100000Y-86100000D02*
X140200000Y-85200000D01*
G04 #@! TO.N,/TX*
X151170000Y-90840000D02*
X151234000Y-90776000D01*
X144370000Y-90840000D02*
X151170000Y-90840000D01*
G04 #@! TO.N,/SDA*
X145650002Y-88959998D02*
X140100000Y-88959998D01*
G04 #@! TO.N,/SCL*
X138924999Y-91075001D02*
X137855001Y-91075001D01*
X139860000Y-90140000D02*
X138924999Y-91075001D01*
X137855001Y-91075001D02*
X137590000Y-90810000D01*
X153870000Y-90140000D02*
X139860000Y-90140000D01*
G04 #@! TO.N,/IO34*
X149170000Y-70040000D02*
X146430000Y-67300000D01*
X146430000Y-67300000D02*
X135000000Y-67300000D01*
G04 #@! TO.N,/IO35*
X148170000Y-70040000D02*
X146230000Y-68100000D01*
X146230000Y-68100000D02*
X134100000Y-68100000D01*
G04 #@! TO.N,/TFT_CS*
X135906804Y-76733196D02*
X135920000Y-76720000D01*
X130680765Y-76733196D02*
X135906804Y-76733196D01*
X144820001Y-83329999D02*
X145130000Y-83020000D01*
X136149999Y-83329999D02*
X144820001Y-83329999D01*
X135900000Y-83080000D02*
X136149999Y-83329999D01*
G04 #@! TO.N,/SCK*
X136853196Y-76033196D02*
X136870000Y-76050000D01*
X130680765Y-76033196D02*
X136853196Y-76033196D01*
X145530001Y-82400001D02*
X146150000Y-83020000D01*
X137099999Y-82400001D02*
X145530001Y-82400001D01*
X136850000Y-82650000D02*
X137099999Y-82400001D01*
G04 #@! TO.N,/MOSI*
X153280000Y-76230000D02*
X153280000Y-83010000D01*
X152383196Y-75333196D02*
X153280000Y-76230000D01*
X130680765Y-75333196D02*
X152383196Y-75333196D01*
G04 #@! TO.N,/RX*
X150145010Y-91540000D02*
X150270000Y-91415010D01*
X145170000Y-91540000D02*
X150145010Y-91540000D01*
G04 #@! TO.N,/TFT_RST*
X144766804Y-74633196D02*
X146200000Y-73200000D01*
X130680765Y-74633196D02*
X144766804Y-74633196D01*
G04 #@! TO.N,/TFT_DC*
X133066804Y-77433196D02*
X133070000Y-77430000D01*
X130680765Y-77433196D02*
X133066804Y-77433196D01*
X133090000Y-69920000D02*
X133020000Y-69990000D01*
X141090000Y-69920000D02*
X133090000Y-69920000D01*
G04 #@! TO.N,Net-(C2-Pad1)*
X136470000Y-48440000D02*
X137470000Y-49440000D01*
X136470000Y-42740000D02*
X136470000Y-48440000D01*
G04 #@! TO.N,Net-(R33-Pad2)*
X130680765Y-80233196D02*
X128730764Y-80233196D01*
G04 #@! TO.N,/LO*
X145970000Y-48540000D02*
X145970000Y-61840000D01*
X145970000Y-61840000D02*
X141270000Y-66540000D01*
G04 #@! TD*
D19*
G04 #@! TO.N,GND*
X145085845Y-38212576D02*
X144962576Y-38335845D01*
X144865723Y-38480795D01*
X144799010Y-38641855D01*
X144765000Y-38812835D01*
X144765000Y-38987165D01*
X144799010Y-39158145D01*
X144865723Y-39319205D01*
X144962576Y-39464155D01*
X145085845Y-39587424D01*
X145230795Y-39684277D01*
X145391855Y-39750990D01*
X145562835Y-39785000D01*
X145737165Y-39785000D01*
X145908145Y-39750990D01*
X146069205Y-39684277D01*
X146214155Y-39587424D01*
X146337424Y-39464155D01*
X146434277Y-39319205D01*
X146500990Y-39158145D01*
X146535000Y-38987165D01*
X146535000Y-38812835D01*
X146500990Y-38641855D01*
X146434277Y-38480795D01*
X146337424Y-38335845D01*
X146214155Y-38212576D01*
X146086082Y-38127000D01*
X154315000Y-38127000D01*
X154315000Y-60281976D01*
X154294931Y-60279999D01*
X153279067Y-60279999D01*
X153141707Y-60293528D01*
X152965459Y-60346992D01*
X152803027Y-60433813D01*
X152660655Y-60550655D01*
X152543813Y-60693027D01*
X152456992Y-60855459D01*
X152403528Y-61031707D01*
X152385475Y-61214999D01*
X152403528Y-61398291D01*
X152456992Y-61574539D01*
X152543813Y-61736971D01*
X152660655Y-61879343D01*
X152803027Y-61996185D01*
X152965459Y-62083006D01*
X153141707Y-62136470D01*
X153279067Y-62149999D01*
X154294931Y-62149999D01*
X154315000Y-62148022D01*
X154315000Y-65361976D01*
X154294931Y-65359999D01*
X153279067Y-65359999D01*
X153141707Y-65373528D01*
X152965459Y-65426992D01*
X152803027Y-65513813D01*
X152660655Y-65630655D01*
X152543813Y-65773027D01*
X152456992Y-65935459D01*
X152403528Y-66111707D01*
X152385475Y-66294999D01*
X152403528Y-66478291D01*
X152456992Y-66654539D01*
X152543813Y-66816971D01*
X152660655Y-66959343D01*
X152803027Y-67076185D01*
X152965459Y-67163006D01*
X153141707Y-67216470D01*
X153279067Y-67229999D01*
X154294931Y-67229999D01*
X154315000Y-67228022D01*
X154315000Y-73873000D01*
X146778579Y-73873000D01*
X146887424Y-73764155D01*
X146984277Y-73619205D01*
X147050990Y-73458145D01*
X147085000Y-73287165D01*
X147085000Y-73112835D01*
X147050990Y-72941855D01*
X146984277Y-72780795D01*
X146887424Y-72635845D01*
X146764155Y-72512576D01*
X146619205Y-72415723D01*
X146458145Y-72349010D01*
X146287165Y-72315000D01*
X146112835Y-72315000D01*
X145941855Y-72349010D01*
X145780795Y-72415723D01*
X145635845Y-72512576D01*
X145627293Y-72521128D01*
X145619205Y-72515723D01*
X145458145Y-72449010D01*
X145415287Y-72440485D01*
X144163804Y-71189003D01*
X144140001Y-71159999D01*
X144024276Y-71065026D01*
X143892247Y-70994454D01*
X143748986Y-70950997D01*
X143637333Y-70940000D01*
X143637322Y-70940000D01*
X143600000Y-70936324D01*
X143562678Y-70940000D01*
X138454595Y-70940000D01*
X138484996Y-70787165D01*
X138484996Y-70680000D01*
X140634462Y-70680000D01*
X140670795Y-70704277D01*
X140831855Y-70770990D01*
X141002835Y-70805000D01*
X141177165Y-70805000D01*
X141348145Y-70770990D01*
X141509205Y-70704277D01*
X141654155Y-70607424D01*
X141777424Y-70484155D01*
X141874277Y-70339205D01*
X141940990Y-70178145D01*
X141975000Y-70007165D01*
X141975000Y-69860000D01*
X145985199Y-69860000D01*
X146340485Y-70215287D01*
X146349010Y-70258145D01*
X146415723Y-70419205D01*
X146512576Y-70564155D01*
X146635845Y-70687424D01*
X146780795Y-70784277D01*
X146941855Y-70850990D01*
X147112835Y-70885000D01*
X147287165Y-70885000D01*
X147458145Y-70850990D01*
X147619205Y-70784277D01*
X147655068Y-70760314D01*
X147750795Y-70824277D01*
X147911855Y-70890990D01*
X148082835Y-70925000D01*
X148257165Y-70925000D01*
X148428145Y-70890990D01*
X148589205Y-70824277D01*
X148670000Y-70770291D01*
X148750795Y-70824277D01*
X148911855Y-70890990D01*
X149082835Y-70925000D01*
X149257165Y-70925000D01*
X149428145Y-70890990D01*
X149589205Y-70824277D01*
X149734155Y-70727424D01*
X149857424Y-70604155D01*
X149954277Y-70459205D01*
X150020990Y-70298145D01*
X150055000Y-70127165D01*
X150055000Y-70062835D01*
X152390000Y-70062835D01*
X152390000Y-70237165D01*
X152424010Y-70408145D01*
X152490723Y-70569205D01*
X152587576Y-70714155D01*
X152710845Y-70837424D01*
X152855795Y-70934277D01*
X153016855Y-71000990D01*
X153187835Y-71035000D01*
X153362165Y-71035000D01*
X153533145Y-71000990D01*
X153694205Y-70934277D01*
X153839155Y-70837424D01*
X153962424Y-70714155D01*
X154059277Y-70569205D01*
X154125990Y-70408145D01*
X154160000Y-70237165D01*
X154160000Y-70062835D01*
X154125990Y-69891855D01*
X154059277Y-69730795D01*
X153962424Y-69585845D01*
X153839155Y-69462576D01*
X153694205Y-69365723D01*
X153533145Y-69299010D01*
X153362165Y-69265000D01*
X153187835Y-69265000D01*
X153016855Y-69299010D01*
X152855795Y-69365723D01*
X152710845Y-69462576D01*
X152587576Y-69585845D01*
X152490723Y-69730795D01*
X152424010Y-69891855D01*
X152390000Y-70062835D01*
X150055000Y-70062835D01*
X150055000Y-69952835D01*
X150020990Y-69781855D01*
X149954277Y-69620795D01*
X149857424Y-69475845D01*
X149734155Y-69352576D01*
X149589205Y-69255723D01*
X149428145Y-69189010D01*
X149385287Y-69180485D01*
X148219936Y-68015134D01*
X148366855Y-68075990D01*
X148537835Y-68110000D01*
X148712165Y-68110000D01*
X148883145Y-68075990D01*
X149044205Y-68009277D01*
X149189155Y-67912424D01*
X149312424Y-67789155D01*
X149409277Y-67644205D01*
X149475990Y-67483145D01*
X149510000Y-67312165D01*
X149510000Y-67137835D01*
X149475990Y-66966855D01*
X149409277Y-66805795D01*
X149312424Y-66660845D01*
X149189155Y-66537576D01*
X149044205Y-66440723D01*
X148883145Y-66374010D01*
X148712165Y-66340000D01*
X148537835Y-66340000D01*
X148366855Y-66374010D01*
X148205795Y-66440723D01*
X148060845Y-66537576D01*
X147937576Y-66660845D01*
X147840723Y-66805795D01*
X147774010Y-66966855D01*
X147740000Y-67137835D01*
X147740000Y-67312165D01*
X147774010Y-67483145D01*
X147834866Y-67630065D01*
X147089367Y-66884566D01*
X147258145Y-66850994D01*
X147419205Y-66784281D01*
X147564155Y-66687428D01*
X147687424Y-66564159D01*
X147784277Y-66419209D01*
X147850990Y-66258149D01*
X147885000Y-66087169D01*
X147885000Y-65912839D01*
X147850990Y-65741859D01*
X147784277Y-65580799D01*
X147687424Y-65435849D01*
X147564155Y-65312580D01*
X147419205Y-65215727D01*
X147258145Y-65149014D01*
X147087165Y-65115004D01*
X146912835Y-65115004D01*
X146741855Y-65149014D01*
X146580795Y-65215727D01*
X146435845Y-65312580D01*
X146312576Y-65435849D01*
X146215723Y-65580799D01*
X146149010Y-65741859D01*
X146115000Y-65912839D01*
X146115000Y-66087169D01*
X146149010Y-66258149D01*
X146215723Y-66419209D01*
X146296433Y-66540000D01*
X144703564Y-66540000D01*
X144784277Y-66419205D01*
X144850990Y-66258145D01*
X144885000Y-66087165D01*
X144885000Y-65912835D01*
X144850990Y-65741855D01*
X144784277Y-65580795D01*
X144687424Y-65435845D01*
X144564155Y-65312576D01*
X144419205Y-65215723D01*
X144258145Y-65149010D01*
X144087165Y-65115000D01*
X143912835Y-65115000D01*
X143741855Y-65149010D01*
X143731504Y-65153298D01*
X146481003Y-62403799D01*
X146510001Y-62380001D01*
X146604974Y-62264276D01*
X146675546Y-62132247D01*
X146719003Y-61988986D01*
X146730000Y-61877333D01*
X146730000Y-61877325D01*
X146733676Y-61840000D01*
X146730000Y-61802675D01*
X146730000Y-58712835D01*
X146815000Y-58712835D01*
X146815000Y-58887165D01*
X146849010Y-59058145D01*
X146915723Y-59219205D01*
X147012576Y-59364155D01*
X147135845Y-59487424D01*
X147280795Y-59584277D01*
X147441855Y-59650990D01*
X147612835Y-59685000D01*
X147787165Y-59685000D01*
X147958145Y-59650990D01*
X148119205Y-59584277D01*
X148264155Y-59487424D01*
X148387424Y-59364155D01*
X148484277Y-59219205D01*
X148550990Y-59058145D01*
X148585000Y-58887165D01*
X148585000Y-58712835D01*
X148550990Y-58541855D01*
X148484277Y-58380795D01*
X148387424Y-58235845D01*
X148264155Y-58112576D01*
X148119205Y-58015723D01*
X147958145Y-57949010D01*
X147787165Y-57915000D01*
X147612835Y-57915000D01*
X147441855Y-57949010D01*
X147280795Y-58015723D01*
X147135845Y-58112576D01*
X147012576Y-58235845D01*
X146915723Y-58380795D01*
X146849010Y-58541855D01*
X146815000Y-58712835D01*
X146730000Y-58712835D01*
X146730000Y-57337835D01*
X150090000Y-57337835D01*
X150090000Y-57512165D01*
X150124010Y-57683145D01*
X150190723Y-57844205D01*
X150287576Y-57989155D01*
X150410845Y-58112424D01*
X150555795Y-58209277D01*
X150716855Y-58275990D01*
X150887835Y-58310000D01*
X151062165Y-58310000D01*
X151233145Y-58275990D01*
X151394205Y-58209277D01*
X151539155Y-58112424D01*
X151662424Y-57989155D01*
X151759277Y-57844205D01*
X151825990Y-57683145D01*
X151860000Y-57512165D01*
X151860000Y-57337835D01*
X151825990Y-57166855D01*
X151759277Y-57005795D01*
X151662424Y-56860845D01*
X151539155Y-56737576D01*
X151394205Y-56640723D01*
X151233145Y-56574010D01*
X151062165Y-56540000D01*
X150887835Y-56540000D01*
X150716855Y-56574010D01*
X150555795Y-56640723D01*
X150410845Y-56737576D01*
X150287576Y-56860845D01*
X150190723Y-57005795D01*
X150124010Y-57166855D01*
X150090000Y-57337835D01*
X146730000Y-57337835D01*
X146730000Y-48995538D01*
X146754277Y-48959205D01*
X146820990Y-48798145D01*
X146855000Y-48627165D01*
X146855000Y-48452835D01*
X146820990Y-48281855D01*
X146754277Y-48120795D01*
X146657424Y-47975845D01*
X146534155Y-47852576D01*
X146389205Y-47755723D01*
X146228145Y-47689010D01*
X146057165Y-47655000D01*
X145882835Y-47655000D01*
X145711855Y-47689010D01*
X145550795Y-47755723D01*
X145405845Y-47852576D01*
X145282576Y-47975845D01*
X145185723Y-48120795D01*
X145119010Y-48281855D01*
X145085000Y-48452835D01*
X145085000Y-48627165D01*
X145119010Y-48798145D01*
X145185723Y-48959205D01*
X145210000Y-48995538D01*
X145210001Y-61525197D01*
X141054714Y-65680485D01*
X141011855Y-65689010D01*
X140850795Y-65755723D01*
X140705845Y-65852576D01*
X140582576Y-65975845D01*
X140485723Y-66120795D01*
X140419010Y-66281855D01*
X140385000Y-66452835D01*
X140385000Y-66540000D01*
X135455538Y-66540000D01*
X135419205Y-66515723D01*
X135258145Y-66449010D01*
X135087165Y-66415000D01*
X134912835Y-66415000D01*
X134741855Y-66449010D01*
X134580795Y-66515723D01*
X134435845Y-66612576D01*
X134312576Y-66735845D01*
X134215723Y-66880795D01*
X134149010Y-67041855D01*
X134115000Y-67212835D01*
X134115000Y-67215000D01*
X134012835Y-67215000D01*
X133841855Y-67249010D01*
X133680795Y-67315723D01*
X133535845Y-67412576D01*
X133412576Y-67535845D01*
X133315723Y-67680795D01*
X133249010Y-67841855D01*
X133215000Y-68012835D01*
X133215000Y-68187165D01*
X133245401Y-68340000D01*
X130055538Y-68340000D01*
X130019205Y-68315723D01*
X129858145Y-68249010D01*
X129687165Y-68215000D01*
X129512835Y-68215000D01*
X129341855Y-68249010D01*
X129180795Y-68315723D01*
X129035845Y-68412576D01*
X128912576Y-68535845D01*
X128815723Y-68680795D01*
X128749010Y-68841855D01*
X128715000Y-69012835D01*
X128715000Y-69187165D01*
X128749010Y-69358145D01*
X128815723Y-69519205D01*
X128912576Y-69664155D01*
X129035845Y-69787424D01*
X129180795Y-69884277D01*
X129315323Y-69940000D01*
X123744802Y-69940000D01*
X121767637Y-67962835D01*
X122740000Y-67962835D01*
X122740000Y-68137165D01*
X122774010Y-68308145D01*
X122840723Y-68469205D01*
X122937576Y-68614155D01*
X123060845Y-68737424D01*
X123205795Y-68834277D01*
X123366855Y-68900990D01*
X123537835Y-68935000D01*
X123712165Y-68935000D01*
X123883145Y-68900990D01*
X124044205Y-68834277D01*
X124189155Y-68737424D01*
X124312424Y-68614155D01*
X124409277Y-68469205D01*
X124475990Y-68308145D01*
X124510000Y-68137165D01*
X124510000Y-67962835D01*
X124475990Y-67791855D01*
X124409277Y-67630795D01*
X124312424Y-67485845D01*
X124189155Y-67362576D01*
X124044205Y-67265723D01*
X123988568Y-67242678D01*
X124069205Y-67209277D01*
X124214155Y-67112424D01*
X124337424Y-66989155D01*
X124434277Y-66844205D01*
X124500990Y-66683145D01*
X124535000Y-66512165D01*
X124535000Y-66337835D01*
X124508127Y-66202734D01*
X127675101Y-66202734D01*
X127675101Y-66377064D01*
X127709111Y-66548044D01*
X127775824Y-66709104D01*
X127872677Y-66854054D01*
X127995946Y-66977323D01*
X128140896Y-67074176D01*
X128301956Y-67140889D01*
X128472936Y-67174899D01*
X128647266Y-67174899D01*
X128818246Y-67140889D01*
X128979306Y-67074176D01*
X129124256Y-66977323D01*
X129247525Y-66854054D01*
X129344378Y-66709104D01*
X129411091Y-66548044D01*
X129445101Y-66377064D01*
X129445101Y-66202734D01*
X129416259Y-66057734D01*
X130095101Y-66057734D01*
X130095101Y-66232064D01*
X130129111Y-66403044D01*
X130195824Y-66564104D01*
X130292677Y-66709054D01*
X130415946Y-66832323D01*
X130560896Y-66929176D01*
X130721956Y-66995889D01*
X130892936Y-67029899D01*
X131067266Y-67029899D01*
X131238246Y-66995889D01*
X131399306Y-66929176D01*
X131544256Y-66832323D01*
X131667525Y-66709054D01*
X131764378Y-66564104D01*
X131831091Y-66403044D01*
X131865101Y-66232064D01*
X131865101Y-66057734D01*
X131831091Y-65886754D01*
X131764378Y-65725694D01*
X131667525Y-65580744D01*
X131544256Y-65457475D01*
X131399306Y-65360622D01*
X131238246Y-65293909D01*
X131067266Y-65259899D01*
X130892936Y-65259899D01*
X130721956Y-65293909D01*
X130560896Y-65360622D01*
X130415946Y-65457475D01*
X130292677Y-65580744D01*
X130195824Y-65725694D01*
X130129111Y-65886754D01*
X130095101Y-66057734D01*
X129416259Y-66057734D01*
X129411091Y-66031754D01*
X129344378Y-65870694D01*
X129247525Y-65725744D01*
X129124256Y-65602475D01*
X128979306Y-65505622D01*
X128818246Y-65438909D01*
X128647266Y-65404899D01*
X128472936Y-65404899D01*
X128301956Y-65438909D01*
X128140896Y-65505622D01*
X127995946Y-65602475D01*
X127872677Y-65725744D01*
X127775824Y-65870694D01*
X127709111Y-66031754D01*
X127675101Y-66202734D01*
X124508127Y-66202734D01*
X124500990Y-66166855D01*
X124434277Y-66005795D01*
X124337424Y-65860845D01*
X124214155Y-65737576D01*
X124069205Y-65640723D01*
X123908145Y-65574010D01*
X123737165Y-65540000D01*
X123562835Y-65540000D01*
X123391855Y-65574010D01*
X123230795Y-65640723D01*
X123085845Y-65737576D01*
X122962576Y-65860845D01*
X122865723Y-66005795D01*
X122799010Y-66166855D01*
X122765000Y-66337835D01*
X122765000Y-66512165D01*
X122799010Y-66683145D01*
X122865723Y-66844205D01*
X122962576Y-66989155D01*
X123085845Y-67112424D01*
X123230795Y-67209277D01*
X123286432Y-67232322D01*
X123205795Y-67265723D01*
X123060845Y-67362576D01*
X122937576Y-67485845D01*
X122840723Y-67630795D01*
X122774010Y-67791855D01*
X122740000Y-67962835D01*
X121767637Y-67962835D01*
X120929515Y-67124714D01*
X120920990Y-67081855D01*
X120854277Y-66920795D01*
X120757424Y-66775845D01*
X120634155Y-66652576D01*
X120489205Y-66555723D01*
X120328145Y-66489010D01*
X120157165Y-66455000D01*
X119982835Y-66455000D01*
X119811855Y-66489010D01*
X119650795Y-66555723D01*
X119505845Y-66652576D01*
X119382576Y-66775845D01*
X119285723Y-66920795D01*
X119219010Y-67081855D01*
X119185000Y-67252835D01*
X119185000Y-67427165D01*
X119219010Y-67598145D01*
X119285723Y-67759205D01*
X119382576Y-67904155D01*
X119505845Y-68027424D01*
X119650795Y-68124277D01*
X119811855Y-68190990D01*
X119854714Y-68199515D01*
X122595198Y-70940000D01*
X121937323Y-70940000D01*
X121900000Y-70936324D01*
X121862677Y-70940000D01*
X121862667Y-70940000D01*
X121751014Y-70950997D01*
X121615032Y-70992246D01*
X121607753Y-70994454D01*
X121475723Y-71065026D01*
X121392083Y-71133668D01*
X121359999Y-71159999D01*
X121336201Y-71188997D01*
X118652199Y-73873000D01*
X115685000Y-73873000D01*
X115685000Y-72670000D01*
X116328476Y-72670000D01*
X116346529Y-72853292D01*
X116399993Y-73029540D01*
X116486814Y-73191972D01*
X116603656Y-73334344D01*
X116746028Y-73451186D01*
X116908460Y-73538007D01*
X117084708Y-73591471D01*
X117222068Y-73605000D01*
X118237932Y-73605000D01*
X118375292Y-73591471D01*
X118551540Y-73538007D01*
X118713972Y-73451186D01*
X118856344Y-73334344D01*
X118973186Y-73191972D01*
X119060007Y-73029540D01*
X119113471Y-72853292D01*
X119131524Y-72670000D01*
X119113471Y-72486708D01*
X119060007Y-72310460D01*
X118973186Y-72148028D01*
X118856344Y-72005656D01*
X118713972Y-71888814D01*
X118551540Y-71801993D01*
X118375292Y-71748529D01*
X118237932Y-71735000D01*
X117222068Y-71735000D01*
X117084708Y-71748529D01*
X116908460Y-71801993D01*
X116746028Y-71888814D01*
X116603656Y-72005656D01*
X116486814Y-72148028D01*
X116399993Y-72310460D01*
X116346529Y-72486708D01*
X116328476Y-72670000D01*
X115685000Y-72670000D01*
X115685000Y-69337835D01*
X118365000Y-69337835D01*
X118365000Y-69512165D01*
X118399010Y-69683145D01*
X118465723Y-69844205D01*
X118562576Y-69989155D01*
X118685845Y-70112424D01*
X118830795Y-70209277D01*
X118991855Y-70275990D01*
X119162835Y-70310000D01*
X119337165Y-70310000D01*
X119508145Y-70275990D01*
X119669205Y-70209277D01*
X119814155Y-70112424D01*
X119937424Y-69989155D01*
X120034277Y-69844205D01*
X120100990Y-69683145D01*
X120135000Y-69512165D01*
X120135000Y-69337835D01*
X120100990Y-69166855D01*
X120034277Y-69005795D01*
X119937424Y-68860845D01*
X119814155Y-68737576D01*
X119669205Y-68640723D01*
X119508145Y-68574010D01*
X119337165Y-68540000D01*
X119162835Y-68540000D01*
X118991855Y-68574010D01*
X118830795Y-68640723D01*
X118685845Y-68737576D01*
X118562576Y-68860845D01*
X118465723Y-69005795D01*
X118399010Y-69166855D01*
X118365000Y-69337835D01*
X115685000Y-69337835D01*
X115685000Y-67590000D01*
X116328476Y-67590000D01*
X116346529Y-67773292D01*
X116399993Y-67949540D01*
X116486814Y-68111972D01*
X116603656Y-68254344D01*
X116746028Y-68371186D01*
X116908460Y-68458007D01*
X117084708Y-68511471D01*
X117222068Y-68525000D01*
X118237932Y-68525000D01*
X118375292Y-68511471D01*
X118551540Y-68458007D01*
X118713972Y-68371186D01*
X118856344Y-68254344D01*
X118973186Y-68111972D01*
X119060007Y-67949540D01*
X119113471Y-67773292D01*
X119131524Y-67590000D01*
X119113471Y-67406708D01*
X119060007Y-67230460D01*
X118973186Y-67068028D01*
X118856344Y-66925656D01*
X118713972Y-66808814D01*
X118551540Y-66721993D01*
X118375292Y-66668529D01*
X118237932Y-66655000D01*
X117222068Y-66655000D01*
X117084708Y-66668529D01*
X116908460Y-66721993D01*
X116746028Y-66808814D01*
X116603656Y-66925656D01*
X116486814Y-67068028D01*
X116399993Y-67230460D01*
X116346529Y-67406708D01*
X116328476Y-67590000D01*
X115685000Y-67590000D01*
X115685000Y-64710000D01*
X116288476Y-64710000D01*
X116306529Y-64893292D01*
X116359993Y-65069540D01*
X116446814Y-65231972D01*
X116563656Y-65374344D01*
X116706028Y-65491186D01*
X116868460Y-65578007D01*
X117044708Y-65631471D01*
X117182068Y-65645000D01*
X118197932Y-65645000D01*
X118335292Y-65631471D01*
X118511540Y-65578007D01*
X118673972Y-65491186D01*
X118816344Y-65374344D01*
X118933186Y-65231972D01*
X119020007Y-65069540D01*
X119073471Y-64893292D01*
X119091524Y-64710000D01*
X119073471Y-64526708D01*
X119020007Y-64350460D01*
X119013259Y-64337835D01*
X125190000Y-64337835D01*
X125190000Y-64512165D01*
X125224010Y-64683145D01*
X125290723Y-64844205D01*
X125387576Y-64989155D01*
X125510845Y-65112424D01*
X125655795Y-65209277D01*
X125816855Y-65275990D01*
X125987835Y-65310000D01*
X126162165Y-65310000D01*
X126333145Y-65275990D01*
X126494205Y-65209277D01*
X126639155Y-65112424D01*
X126762424Y-64989155D01*
X126859277Y-64844205D01*
X126925990Y-64683145D01*
X126960000Y-64512165D01*
X126960000Y-64337835D01*
X126925990Y-64166855D01*
X126859277Y-64005795D01*
X126762424Y-63860845D01*
X126639155Y-63737576D01*
X126564713Y-63687835D01*
X137590000Y-63687835D01*
X137590000Y-63862165D01*
X137624010Y-64033145D01*
X137690723Y-64194205D01*
X137787576Y-64339155D01*
X137910845Y-64462424D01*
X138055795Y-64559277D01*
X138216855Y-64625990D01*
X138387835Y-64660000D01*
X138562165Y-64660000D01*
X138733145Y-64625990D01*
X138894205Y-64559277D01*
X139039155Y-64462424D01*
X139162424Y-64339155D01*
X139259277Y-64194205D01*
X139325990Y-64033145D01*
X139339986Y-63962780D01*
X139349010Y-64008145D01*
X139415723Y-64169205D01*
X139512576Y-64314155D01*
X139635845Y-64437424D01*
X139780795Y-64534277D01*
X139941855Y-64600990D01*
X140112835Y-64635000D01*
X140287165Y-64635000D01*
X140458145Y-64600990D01*
X140619205Y-64534277D01*
X140764155Y-64437424D01*
X140887424Y-64314155D01*
X140984277Y-64169205D01*
X141050990Y-64008145D01*
X141085000Y-63837165D01*
X141085000Y-63662835D01*
X141050990Y-63491855D01*
X140984277Y-63330795D01*
X140887424Y-63185845D01*
X140764155Y-63062576D01*
X140619205Y-62965723D01*
X140458145Y-62899010D01*
X140287165Y-62865000D01*
X140112835Y-62865000D01*
X139941855Y-62899010D01*
X139780795Y-62965723D01*
X139635845Y-63062576D01*
X139512576Y-63185845D01*
X139415723Y-63330795D01*
X139349010Y-63491855D01*
X139335014Y-63562220D01*
X139325990Y-63516855D01*
X139259277Y-63355795D01*
X139162424Y-63210845D01*
X139039155Y-63087576D01*
X138894205Y-62990723D01*
X138733145Y-62924010D01*
X138562165Y-62890000D01*
X138387835Y-62890000D01*
X138216855Y-62924010D01*
X138055795Y-62990723D01*
X137910845Y-63087576D01*
X137787576Y-63210845D01*
X137690723Y-63355795D01*
X137624010Y-63516855D01*
X137590000Y-63687835D01*
X126564713Y-63687835D01*
X126494205Y-63640723D01*
X126333145Y-63574010D01*
X126162165Y-63540000D01*
X125987835Y-63540000D01*
X125816855Y-63574010D01*
X125655795Y-63640723D01*
X125510845Y-63737576D01*
X125387576Y-63860845D01*
X125290723Y-64005795D01*
X125224010Y-64166855D01*
X125190000Y-64337835D01*
X119013259Y-64337835D01*
X118933186Y-64188028D01*
X118816344Y-64045656D01*
X118673972Y-63928814D01*
X118511540Y-63841993D01*
X118335292Y-63788529D01*
X118197932Y-63775000D01*
X117182068Y-63775000D01*
X117044708Y-63788529D01*
X116868460Y-63841993D01*
X116706028Y-63928814D01*
X116563656Y-64045656D01*
X116446814Y-64188028D01*
X116359993Y-64350460D01*
X116306529Y-64526708D01*
X116288476Y-64710000D01*
X115685000Y-64710000D01*
X115685000Y-61512835D01*
X118315000Y-61512835D01*
X118315000Y-61687165D01*
X118349010Y-61858145D01*
X118415723Y-62019205D01*
X118512576Y-62164155D01*
X118635845Y-62287424D01*
X118780795Y-62384277D01*
X118941855Y-62450990D01*
X119112835Y-62485000D01*
X119287165Y-62485000D01*
X119458145Y-62450990D01*
X119619205Y-62384277D01*
X119764155Y-62287424D01*
X119838744Y-62212835D01*
X132565000Y-62212835D01*
X132565000Y-62387165D01*
X132599010Y-62558145D01*
X132665723Y-62719205D01*
X132762576Y-62864155D01*
X132885845Y-62987424D01*
X133030795Y-63084277D01*
X133191855Y-63150990D01*
X133362835Y-63185000D01*
X133537165Y-63185000D01*
X133708145Y-63150990D01*
X133869205Y-63084277D01*
X134014155Y-62987424D01*
X134137424Y-62864155D01*
X134234277Y-62719205D01*
X134300990Y-62558145D01*
X134335000Y-62387165D01*
X134335000Y-62212835D01*
X134330028Y-62187835D01*
X136115000Y-62187835D01*
X136115000Y-62362165D01*
X136149010Y-62533145D01*
X136215723Y-62694205D01*
X136312576Y-62839155D01*
X136435845Y-62962424D01*
X136580795Y-63059277D01*
X136741855Y-63125990D01*
X136912835Y-63160000D01*
X137087165Y-63160000D01*
X137258145Y-63125990D01*
X137419205Y-63059277D01*
X137564155Y-62962424D01*
X137687424Y-62839155D01*
X137784277Y-62694205D01*
X137850990Y-62533145D01*
X137855029Y-62512835D01*
X141814996Y-62512835D01*
X141814996Y-62687165D01*
X141849006Y-62858145D01*
X141915719Y-63019205D01*
X142012572Y-63164155D01*
X142135841Y-63287424D01*
X142280791Y-63384277D01*
X142441851Y-63450990D01*
X142612831Y-63485000D01*
X142787161Y-63485000D01*
X142958141Y-63450990D01*
X143119201Y-63384277D01*
X143264151Y-63287424D01*
X143387420Y-63164155D01*
X143484273Y-63019205D01*
X143550986Y-62858145D01*
X143584996Y-62687165D01*
X143584996Y-62512835D01*
X143550986Y-62341855D01*
X143484273Y-62180795D01*
X143387420Y-62035845D01*
X143264151Y-61912576D01*
X143119201Y-61815723D01*
X142958141Y-61749010D01*
X142787161Y-61715000D01*
X142612831Y-61715000D01*
X142441851Y-61749010D01*
X142280791Y-61815723D01*
X142135841Y-61912576D01*
X142012572Y-62035845D01*
X141915719Y-62180795D01*
X141849006Y-62341855D01*
X141814996Y-62512835D01*
X137855029Y-62512835D01*
X137885000Y-62362165D01*
X137885000Y-62187835D01*
X137850990Y-62016855D01*
X137784277Y-61855795D01*
X137687424Y-61710845D01*
X137564155Y-61587576D01*
X137419205Y-61490723D01*
X137258145Y-61424010D01*
X137087165Y-61390000D01*
X136912835Y-61390000D01*
X136741855Y-61424010D01*
X136580795Y-61490723D01*
X136435845Y-61587576D01*
X136312576Y-61710845D01*
X136215723Y-61855795D01*
X136149010Y-62016855D01*
X136115000Y-62187835D01*
X134330028Y-62187835D01*
X134300990Y-62041855D01*
X134234277Y-61880795D01*
X134137424Y-61735845D01*
X134014155Y-61612576D01*
X133869205Y-61515723D01*
X133708145Y-61449010D01*
X133537165Y-61415000D01*
X133362835Y-61415000D01*
X133191855Y-61449010D01*
X133030795Y-61515723D01*
X132885845Y-61612576D01*
X132762576Y-61735845D01*
X132665723Y-61880795D01*
X132599010Y-62041855D01*
X132565000Y-62212835D01*
X119838744Y-62212835D01*
X119887424Y-62164155D01*
X119984277Y-62019205D01*
X120050990Y-61858145D01*
X120085000Y-61687165D01*
X120085000Y-61512835D01*
X120050990Y-61341855D01*
X119987194Y-61187835D01*
X126490000Y-61187835D01*
X126490000Y-61362165D01*
X126524010Y-61533145D01*
X126590723Y-61694205D01*
X126687576Y-61839155D01*
X126810845Y-61962424D01*
X126955795Y-62059277D01*
X127116855Y-62125990D01*
X127287835Y-62160000D01*
X127462165Y-62160000D01*
X127633145Y-62125990D01*
X127794205Y-62059277D01*
X127939155Y-61962424D01*
X128062424Y-61839155D01*
X128159277Y-61694205D01*
X128225990Y-61533145D01*
X128260000Y-61362165D01*
X128260000Y-61187835D01*
X128225990Y-61016855D01*
X128159277Y-60855795D01*
X128062424Y-60710845D01*
X127939155Y-60587576D01*
X127794205Y-60490723D01*
X127633145Y-60424010D01*
X127462165Y-60390000D01*
X127287835Y-60390000D01*
X127116855Y-60424010D01*
X126955795Y-60490723D01*
X126810845Y-60587576D01*
X126687576Y-60710845D01*
X126590723Y-60855795D01*
X126524010Y-61016855D01*
X126490000Y-61187835D01*
X119987194Y-61187835D01*
X119984277Y-61180795D01*
X119887424Y-61035845D01*
X119764155Y-60912576D01*
X119619205Y-60815723D01*
X119458145Y-60749010D01*
X119287165Y-60715000D01*
X119112835Y-60715000D01*
X118941855Y-60749010D01*
X118780795Y-60815723D01*
X118635845Y-60912576D01*
X118512576Y-61035845D01*
X118415723Y-61180795D01*
X118349010Y-61341855D01*
X118315000Y-61512835D01*
X115685000Y-61512835D01*
X115685000Y-59630000D01*
X116288476Y-59630000D01*
X116306529Y-59813292D01*
X116359993Y-59989540D01*
X116446814Y-60151972D01*
X116563656Y-60294344D01*
X116706028Y-60411186D01*
X116868460Y-60498007D01*
X117044708Y-60551471D01*
X117182068Y-60565000D01*
X118197932Y-60565000D01*
X118335292Y-60551471D01*
X118511540Y-60498007D01*
X118673972Y-60411186D01*
X118816344Y-60294344D01*
X118933186Y-60151972D01*
X119020007Y-59989540D01*
X119073471Y-59813292D01*
X119091524Y-59630000D01*
X119073471Y-59446708D01*
X119020007Y-59270460D01*
X118933186Y-59108028D01*
X118816344Y-58965656D01*
X118745890Y-58907835D01*
X137495000Y-58907835D01*
X137495000Y-59082165D01*
X137529010Y-59253145D01*
X137595723Y-59414205D01*
X137692576Y-59559155D01*
X137815845Y-59682424D01*
X137960795Y-59779277D01*
X138121855Y-59845990D01*
X138292835Y-59880000D01*
X138467165Y-59880000D01*
X138638145Y-59845990D01*
X138799205Y-59779277D01*
X138944155Y-59682424D01*
X139067424Y-59559155D01*
X139164277Y-59414205D01*
X139230990Y-59253145D01*
X139265000Y-59082165D01*
X139265000Y-58907835D01*
X139230990Y-58736855D01*
X139164277Y-58575795D01*
X139067424Y-58430845D01*
X138944155Y-58307576D01*
X138799205Y-58210723D01*
X138638145Y-58144010D01*
X138467165Y-58110000D01*
X138292835Y-58110000D01*
X138121855Y-58144010D01*
X137960795Y-58210723D01*
X137815845Y-58307576D01*
X137692576Y-58430845D01*
X137595723Y-58575795D01*
X137529010Y-58736855D01*
X137495000Y-58907835D01*
X118745890Y-58907835D01*
X118673972Y-58848814D01*
X118511540Y-58761993D01*
X118335292Y-58708529D01*
X118197932Y-58695000D01*
X117182068Y-58695000D01*
X117044708Y-58708529D01*
X116868460Y-58761993D01*
X116706028Y-58848814D01*
X116563656Y-58965656D01*
X116446814Y-59108028D01*
X116359993Y-59270460D01*
X116306529Y-59446708D01*
X116288476Y-59630000D01*
X115685000Y-59630000D01*
X115685000Y-56482835D01*
X137545000Y-56482835D01*
X137545000Y-56657165D01*
X137579010Y-56828145D01*
X137645723Y-56989205D01*
X137742576Y-57134155D01*
X137865845Y-57257424D01*
X138010795Y-57354277D01*
X138171855Y-57420990D01*
X138342835Y-57455000D01*
X138517165Y-57455000D01*
X138688145Y-57420990D01*
X138849205Y-57354277D01*
X138994155Y-57257424D01*
X139117424Y-57134155D01*
X139214277Y-56989205D01*
X139280990Y-56828145D01*
X139315000Y-56657165D01*
X139315000Y-56482835D01*
X139280990Y-56311855D01*
X139214277Y-56150795D01*
X139117424Y-56005845D01*
X138994155Y-55882576D01*
X138849205Y-55785723D01*
X138688145Y-55719010D01*
X138517165Y-55685000D01*
X138342835Y-55685000D01*
X138171855Y-55719010D01*
X138010795Y-55785723D01*
X137865845Y-55882576D01*
X137742576Y-56005845D01*
X137645723Y-56150795D01*
X137579010Y-56311855D01*
X137545000Y-56482835D01*
X115685000Y-56482835D01*
X115685000Y-50743740D01*
X123395000Y-50743740D01*
X123395000Y-51036260D01*
X123452068Y-51323158D01*
X123564010Y-51593411D01*
X123726525Y-51836632D01*
X123933368Y-52043475D01*
X124176589Y-52205990D01*
X124446842Y-52317932D01*
X124733740Y-52375000D01*
X125026260Y-52375000D01*
X125313158Y-52317932D01*
X125583411Y-52205990D01*
X125826632Y-52043475D01*
X126033475Y-51836632D01*
X126195990Y-51593411D01*
X126307932Y-51323158D01*
X126365000Y-51036260D01*
X126365000Y-50743740D01*
X126307932Y-50456842D01*
X126195990Y-50186589D01*
X126033475Y-49943368D01*
X125826632Y-49736525D01*
X125583411Y-49574010D01*
X125313158Y-49462068D01*
X125026260Y-49405000D01*
X124733740Y-49405000D01*
X124446842Y-49462068D01*
X124176589Y-49574010D01*
X123933368Y-49736525D01*
X123726525Y-49943368D01*
X123564010Y-50186589D01*
X123452068Y-50456842D01*
X123395000Y-50743740D01*
X115685000Y-50743740D01*
X115685000Y-43743740D01*
X123395000Y-43743740D01*
X123395000Y-44036260D01*
X123452068Y-44323158D01*
X123564010Y-44593411D01*
X123726525Y-44836632D01*
X123933368Y-45043475D01*
X124176589Y-45205990D01*
X124446842Y-45317932D01*
X124733740Y-45375000D01*
X125026260Y-45375000D01*
X125313158Y-45317932D01*
X125583411Y-45205990D01*
X125826632Y-45043475D01*
X126033475Y-44836632D01*
X126195990Y-44593411D01*
X126307932Y-44323158D01*
X126365000Y-44036260D01*
X126365000Y-43743740D01*
X126307932Y-43456842D01*
X126195990Y-43186589D01*
X126033475Y-42943368D01*
X125826632Y-42736525D01*
X125701382Y-42652835D01*
X135585000Y-42652835D01*
X135585000Y-42827165D01*
X135619010Y-42998145D01*
X135685723Y-43159205D01*
X135710000Y-43195538D01*
X135710001Y-48402668D01*
X135706324Y-48440000D01*
X135710001Y-48477333D01*
X135720998Y-48588986D01*
X135732579Y-48627165D01*
X135764454Y-48732246D01*
X135835026Y-48864276D01*
X135844521Y-48875845D01*
X135930000Y-48980001D01*
X135958998Y-49003799D01*
X136610485Y-49655287D01*
X136619010Y-49698145D01*
X136685723Y-49859205D01*
X136782576Y-50004155D01*
X136905845Y-50127424D01*
X137050795Y-50224277D01*
X137211855Y-50290990D01*
X137382835Y-50325000D01*
X137557165Y-50325000D01*
X137728145Y-50290990D01*
X137889205Y-50224277D01*
X138034155Y-50127424D01*
X138157424Y-50004155D01*
X138254277Y-49859205D01*
X138320990Y-49698145D01*
X138355000Y-49527165D01*
X138355000Y-49352835D01*
X138320990Y-49181855D01*
X138254277Y-49020795D01*
X138157424Y-48875845D01*
X138034155Y-48752576D01*
X137889205Y-48655723D01*
X137728145Y-48589010D01*
X137685287Y-48580485D01*
X137230000Y-48125199D01*
X137230000Y-45062835D01*
X145090000Y-45062835D01*
X145090000Y-45237165D01*
X145124010Y-45408145D01*
X145190723Y-45569205D01*
X145287576Y-45714155D01*
X145410845Y-45837424D01*
X145555795Y-45934277D01*
X145716855Y-46000990D01*
X145887835Y-46035000D01*
X146062165Y-46035000D01*
X146233145Y-46000990D01*
X146394205Y-45934277D01*
X146539155Y-45837424D01*
X146662424Y-45714155D01*
X146759277Y-45569205D01*
X146825990Y-45408145D01*
X146860000Y-45237165D01*
X146860000Y-45062835D01*
X146825990Y-44891855D01*
X146759277Y-44730795D01*
X146662424Y-44585845D01*
X146539155Y-44462576D01*
X146394205Y-44365723D01*
X146233145Y-44299010D01*
X146062165Y-44265000D01*
X145887835Y-44265000D01*
X145716855Y-44299010D01*
X145555795Y-44365723D01*
X145410845Y-44462576D01*
X145287576Y-44585845D01*
X145190723Y-44730795D01*
X145124010Y-44891855D01*
X145090000Y-45062835D01*
X137230000Y-45062835D01*
X137230000Y-43812837D01*
X143115000Y-43812837D01*
X143115000Y-43987167D01*
X143149010Y-44158147D01*
X143215723Y-44319207D01*
X143312576Y-44464157D01*
X143435845Y-44587426D01*
X143580795Y-44684279D01*
X143741855Y-44750992D01*
X143912835Y-44785002D01*
X144087165Y-44785002D01*
X144258145Y-44750992D01*
X144419205Y-44684279D01*
X144564155Y-44587426D01*
X144687424Y-44464157D01*
X144784277Y-44319207D01*
X144850990Y-44158147D01*
X144885000Y-43987167D01*
X144885000Y-43812837D01*
X144875054Y-43762835D01*
X148665000Y-43762835D01*
X148665000Y-43937165D01*
X148699010Y-44108145D01*
X148765723Y-44269205D01*
X148862576Y-44414155D01*
X148985845Y-44537424D01*
X149130795Y-44634277D01*
X149291855Y-44700990D01*
X149462835Y-44735000D01*
X149637165Y-44735000D01*
X149808145Y-44700990D01*
X149969205Y-44634277D01*
X150114155Y-44537424D01*
X150237424Y-44414155D01*
X150334277Y-44269205D01*
X150400990Y-44108145D01*
X150435000Y-43937165D01*
X150435000Y-43762835D01*
X150400990Y-43591855D01*
X150334277Y-43430795D01*
X150237424Y-43285845D01*
X150114155Y-43162576D01*
X149969205Y-43065723D01*
X149808145Y-42999010D01*
X149637165Y-42965000D01*
X149462835Y-42965000D01*
X149291855Y-42999010D01*
X149130795Y-43065723D01*
X148985845Y-43162576D01*
X148862576Y-43285845D01*
X148765723Y-43430795D01*
X148699010Y-43591855D01*
X148665000Y-43762835D01*
X144875054Y-43762835D01*
X144850990Y-43641857D01*
X144784277Y-43480797D01*
X144687424Y-43335847D01*
X144564155Y-43212578D01*
X144419205Y-43115725D01*
X144258145Y-43049012D01*
X144087165Y-43015002D01*
X143912835Y-43015002D01*
X143741855Y-43049012D01*
X143580795Y-43115725D01*
X143435845Y-43212578D01*
X143312576Y-43335847D01*
X143215723Y-43480797D01*
X143149010Y-43641857D01*
X143115000Y-43812837D01*
X137230000Y-43812837D01*
X137230000Y-43195538D01*
X137254277Y-43159205D01*
X137320990Y-42998145D01*
X137355000Y-42827165D01*
X137355000Y-42652835D01*
X137320990Y-42481855D01*
X137254277Y-42320795D01*
X137157424Y-42175845D01*
X137034155Y-42052576D01*
X136889205Y-41955723D01*
X136728145Y-41889010D01*
X136557165Y-41855000D01*
X136382835Y-41855000D01*
X136211855Y-41889010D01*
X136050795Y-41955723D01*
X135905845Y-42052576D01*
X135782576Y-42175845D01*
X135685723Y-42320795D01*
X135619010Y-42481855D01*
X135585000Y-42652835D01*
X125701382Y-42652835D01*
X125583411Y-42574010D01*
X125313158Y-42462068D01*
X125026260Y-42405000D01*
X124733740Y-42405000D01*
X124446842Y-42462068D01*
X124176589Y-42574010D01*
X123933368Y-42736525D01*
X123726525Y-42943368D01*
X123564010Y-43186589D01*
X123452068Y-43456842D01*
X123395000Y-43743740D01*
X115685000Y-43743740D01*
X115685000Y-41087835D01*
X131990000Y-41087835D01*
X131990000Y-41262165D01*
X132024010Y-41433145D01*
X132090723Y-41594205D01*
X132187576Y-41739155D01*
X132310845Y-41862424D01*
X132455795Y-41959277D01*
X132616855Y-42025990D01*
X132787835Y-42060000D01*
X132962165Y-42060000D01*
X133133145Y-42025990D01*
X133294205Y-41959277D01*
X133439155Y-41862424D01*
X133562424Y-41739155D01*
X133659277Y-41594205D01*
X133725990Y-41433145D01*
X133760000Y-41262165D01*
X133760000Y-41087835D01*
X133725990Y-40916855D01*
X133659277Y-40755795D01*
X133562424Y-40610845D01*
X133439155Y-40487576D01*
X133294205Y-40390723D01*
X133133145Y-40324010D01*
X132962165Y-40290000D01*
X132787835Y-40290000D01*
X132616855Y-40324010D01*
X132455795Y-40390723D01*
X132310845Y-40487576D01*
X132187576Y-40610845D01*
X132090723Y-40755795D01*
X132024010Y-40916855D01*
X131990000Y-41087835D01*
X115685000Y-41087835D01*
X115685000Y-39637835D01*
X116615000Y-39637835D01*
X116615000Y-39812165D01*
X116649010Y-39983145D01*
X116715723Y-40144205D01*
X116812576Y-40289155D01*
X116935845Y-40412424D01*
X117080795Y-40509277D01*
X117241855Y-40575990D01*
X117412835Y-40610000D01*
X117587165Y-40610000D01*
X117758145Y-40575990D01*
X117919205Y-40509277D01*
X118064155Y-40412424D01*
X118187424Y-40289155D01*
X118284277Y-40144205D01*
X118350990Y-39983145D01*
X118385000Y-39812165D01*
X118385000Y-39637835D01*
X118350990Y-39466855D01*
X118284277Y-39305795D01*
X118187424Y-39160845D01*
X118064155Y-39037576D01*
X117919205Y-38940723D01*
X117758145Y-38874010D01*
X117587165Y-38840000D01*
X117412835Y-38840000D01*
X117241855Y-38874010D01*
X117080795Y-38940723D01*
X116935845Y-39037576D01*
X116812576Y-39160845D01*
X116715723Y-39305795D01*
X116649010Y-39466855D01*
X116615000Y-39637835D01*
X115685000Y-39637835D01*
X115685000Y-38127000D01*
X145213918Y-38127000D01*
X145085845Y-38212576D01*
G04 #@! TA.AperFunction,Conductor*
D20*
G36*
X145085845Y-38212576D02*
G01*
X144962576Y-38335845D01*
X144865723Y-38480795D01*
X144799010Y-38641855D01*
X144765000Y-38812835D01*
X144765000Y-38987165D01*
X144799010Y-39158145D01*
X144865723Y-39319205D01*
X144962576Y-39464155D01*
X145085845Y-39587424D01*
X145230795Y-39684277D01*
X145391855Y-39750990D01*
X145562835Y-39785000D01*
X145737165Y-39785000D01*
X145908145Y-39750990D01*
X146069205Y-39684277D01*
X146214155Y-39587424D01*
X146337424Y-39464155D01*
X146434277Y-39319205D01*
X146500990Y-39158145D01*
X146535000Y-38987165D01*
X146535000Y-38812835D01*
X146500990Y-38641855D01*
X146434277Y-38480795D01*
X146337424Y-38335845D01*
X146214155Y-38212576D01*
X146086082Y-38127000D01*
X154315000Y-38127000D01*
X154315000Y-60281976D01*
X154294931Y-60279999D01*
X153279067Y-60279999D01*
X153141707Y-60293528D01*
X152965459Y-60346992D01*
X152803027Y-60433813D01*
X152660655Y-60550655D01*
X152543813Y-60693027D01*
X152456992Y-60855459D01*
X152403528Y-61031707D01*
X152385475Y-61214999D01*
X152403528Y-61398291D01*
X152456992Y-61574539D01*
X152543813Y-61736971D01*
X152660655Y-61879343D01*
X152803027Y-61996185D01*
X152965459Y-62083006D01*
X153141707Y-62136470D01*
X153279067Y-62149999D01*
X154294931Y-62149999D01*
X154315000Y-62148022D01*
X154315000Y-65361976D01*
X154294931Y-65359999D01*
X153279067Y-65359999D01*
X153141707Y-65373528D01*
X152965459Y-65426992D01*
X152803027Y-65513813D01*
X152660655Y-65630655D01*
X152543813Y-65773027D01*
X152456992Y-65935459D01*
X152403528Y-66111707D01*
X152385475Y-66294999D01*
X152403528Y-66478291D01*
X152456992Y-66654539D01*
X152543813Y-66816971D01*
X152660655Y-66959343D01*
X152803027Y-67076185D01*
X152965459Y-67163006D01*
X153141707Y-67216470D01*
X153279067Y-67229999D01*
X154294931Y-67229999D01*
X154315000Y-67228022D01*
X154315000Y-73873000D01*
X146778579Y-73873000D01*
X146887424Y-73764155D01*
X146984277Y-73619205D01*
X147050990Y-73458145D01*
X147085000Y-73287165D01*
X147085000Y-73112835D01*
X147050990Y-72941855D01*
X146984277Y-72780795D01*
X146887424Y-72635845D01*
X146764155Y-72512576D01*
X146619205Y-72415723D01*
X146458145Y-72349010D01*
X146287165Y-72315000D01*
X146112835Y-72315000D01*
X145941855Y-72349010D01*
X145780795Y-72415723D01*
X145635845Y-72512576D01*
X145627293Y-72521128D01*
X145619205Y-72515723D01*
X145458145Y-72449010D01*
X145415287Y-72440485D01*
X144163804Y-71189003D01*
X144140001Y-71159999D01*
X144024276Y-71065026D01*
X143892247Y-70994454D01*
X143748986Y-70950997D01*
X143637333Y-70940000D01*
X143637322Y-70940000D01*
X143600000Y-70936324D01*
X143562678Y-70940000D01*
X138454595Y-70940000D01*
X138484996Y-70787165D01*
X138484996Y-70680000D01*
X140634462Y-70680000D01*
X140670795Y-70704277D01*
X140831855Y-70770990D01*
X141002835Y-70805000D01*
X141177165Y-70805000D01*
X141348145Y-70770990D01*
X141509205Y-70704277D01*
X141654155Y-70607424D01*
X141777424Y-70484155D01*
X141874277Y-70339205D01*
X141940990Y-70178145D01*
X141975000Y-70007165D01*
X141975000Y-69860000D01*
X145985199Y-69860000D01*
X146340485Y-70215287D01*
X146349010Y-70258145D01*
X146415723Y-70419205D01*
X146512576Y-70564155D01*
X146635845Y-70687424D01*
X146780795Y-70784277D01*
X146941855Y-70850990D01*
X147112835Y-70885000D01*
X147287165Y-70885000D01*
X147458145Y-70850990D01*
X147619205Y-70784277D01*
X147655068Y-70760314D01*
X147750795Y-70824277D01*
X147911855Y-70890990D01*
X148082835Y-70925000D01*
X148257165Y-70925000D01*
X148428145Y-70890990D01*
X148589205Y-70824277D01*
X148670000Y-70770291D01*
X148750795Y-70824277D01*
X148911855Y-70890990D01*
X149082835Y-70925000D01*
X149257165Y-70925000D01*
X149428145Y-70890990D01*
X149589205Y-70824277D01*
X149734155Y-70727424D01*
X149857424Y-70604155D01*
X149954277Y-70459205D01*
X150020990Y-70298145D01*
X150055000Y-70127165D01*
X150055000Y-70062835D01*
X152390000Y-70062835D01*
X152390000Y-70237165D01*
X152424010Y-70408145D01*
X152490723Y-70569205D01*
X152587576Y-70714155D01*
X152710845Y-70837424D01*
X152855795Y-70934277D01*
X153016855Y-71000990D01*
X153187835Y-71035000D01*
X153362165Y-71035000D01*
X153533145Y-71000990D01*
X153694205Y-70934277D01*
X153839155Y-70837424D01*
X153962424Y-70714155D01*
X154059277Y-70569205D01*
X154125990Y-70408145D01*
X154160000Y-70237165D01*
X154160000Y-70062835D01*
X154125990Y-69891855D01*
X154059277Y-69730795D01*
X153962424Y-69585845D01*
X153839155Y-69462576D01*
X153694205Y-69365723D01*
X153533145Y-69299010D01*
X153362165Y-69265000D01*
X153187835Y-69265000D01*
X153016855Y-69299010D01*
X152855795Y-69365723D01*
X152710845Y-69462576D01*
X152587576Y-69585845D01*
X152490723Y-69730795D01*
X152424010Y-69891855D01*
X152390000Y-70062835D01*
X150055000Y-70062835D01*
X150055000Y-69952835D01*
X150020990Y-69781855D01*
X149954277Y-69620795D01*
X149857424Y-69475845D01*
X149734155Y-69352576D01*
X149589205Y-69255723D01*
X149428145Y-69189010D01*
X149385287Y-69180485D01*
X148219936Y-68015134D01*
X148366855Y-68075990D01*
X148537835Y-68110000D01*
X148712165Y-68110000D01*
X148883145Y-68075990D01*
X149044205Y-68009277D01*
X149189155Y-67912424D01*
X149312424Y-67789155D01*
X149409277Y-67644205D01*
X149475990Y-67483145D01*
X149510000Y-67312165D01*
X149510000Y-67137835D01*
X149475990Y-66966855D01*
X149409277Y-66805795D01*
X149312424Y-66660845D01*
X149189155Y-66537576D01*
X149044205Y-66440723D01*
X148883145Y-66374010D01*
X148712165Y-66340000D01*
X148537835Y-66340000D01*
X148366855Y-66374010D01*
X148205795Y-66440723D01*
X148060845Y-66537576D01*
X147937576Y-66660845D01*
X147840723Y-66805795D01*
X147774010Y-66966855D01*
X147740000Y-67137835D01*
X147740000Y-67312165D01*
X147774010Y-67483145D01*
X147834866Y-67630065D01*
X147089367Y-66884566D01*
X147258145Y-66850994D01*
X147419205Y-66784281D01*
X147564155Y-66687428D01*
X147687424Y-66564159D01*
X147784277Y-66419209D01*
X147850990Y-66258149D01*
X147885000Y-66087169D01*
X147885000Y-65912839D01*
X147850990Y-65741859D01*
X147784277Y-65580799D01*
X147687424Y-65435849D01*
X147564155Y-65312580D01*
X147419205Y-65215727D01*
X147258145Y-65149014D01*
X147087165Y-65115004D01*
X146912835Y-65115004D01*
X146741855Y-65149014D01*
X146580795Y-65215727D01*
X146435845Y-65312580D01*
X146312576Y-65435849D01*
X146215723Y-65580799D01*
X146149010Y-65741859D01*
X146115000Y-65912839D01*
X146115000Y-66087169D01*
X146149010Y-66258149D01*
X146215723Y-66419209D01*
X146296433Y-66540000D01*
X144703564Y-66540000D01*
X144784277Y-66419205D01*
X144850990Y-66258145D01*
X144885000Y-66087165D01*
X144885000Y-65912835D01*
X144850990Y-65741855D01*
X144784277Y-65580795D01*
X144687424Y-65435845D01*
X144564155Y-65312576D01*
X144419205Y-65215723D01*
X144258145Y-65149010D01*
X144087165Y-65115000D01*
X143912835Y-65115000D01*
X143741855Y-65149010D01*
X143731504Y-65153298D01*
X146481003Y-62403799D01*
X146510001Y-62380001D01*
X146604974Y-62264276D01*
X146675546Y-62132247D01*
X146719003Y-61988986D01*
X146730000Y-61877333D01*
X146730000Y-61877325D01*
X146733676Y-61840000D01*
X146730000Y-61802675D01*
X146730000Y-58712835D01*
X146815000Y-58712835D01*
X146815000Y-58887165D01*
X146849010Y-59058145D01*
X146915723Y-59219205D01*
X147012576Y-59364155D01*
X147135845Y-59487424D01*
X147280795Y-59584277D01*
X147441855Y-59650990D01*
X147612835Y-59685000D01*
X147787165Y-59685000D01*
X147958145Y-59650990D01*
X148119205Y-59584277D01*
X148264155Y-59487424D01*
X148387424Y-59364155D01*
X148484277Y-59219205D01*
X148550990Y-59058145D01*
X148585000Y-58887165D01*
X148585000Y-58712835D01*
X148550990Y-58541855D01*
X148484277Y-58380795D01*
X148387424Y-58235845D01*
X148264155Y-58112576D01*
X148119205Y-58015723D01*
X147958145Y-57949010D01*
X147787165Y-57915000D01*
X147612835Y-57915000D01*
X147441855Y-57949010D01*
X147280795Y-58015723D01*
X147135845Y-58112576D01*
X147012576Y-58235845D01*
X146915723Y-58380795D01*
X146849010Y-58541855D01*
X146815000Y-58712835D01*
X146730000Y-58712835D01*
X146730000Y-57337835D01*
X150090000Y-57337835D01*
X150090000Y-57512165D01*
X150124010Y-57683145D01*
X150190723Y-57844205D01*
X150287576Y-57989155D01*
X150410845Y-58112424D01*
X150555795Y-58209277D01*
X150716855Y-58275990D01*
X150887835Y-58310000D01*
X151062165Y-58310000D01*
X151233145Y-58275990D01*
X151394205Y-58209277D01*
X151539155Y-58112424D01*
X151662424Y-57989155D01*
X151759277Y-57844205D01*
X151825990Y-57683145D01*
X151860000Y-57512165D01*
X151860000Y-57337835D01*
X151825990Y-57166855D01*
X151759277Y-57005795D01*
X151662424Y-56860845D01*
X151539155Y-56737576D01*
X151394205Y-56640723D01*
X151233145Y-56574010D01*
X151062165Y-56540000D01*
X150887835Y-56540000D01*
X150716855Y-56574010D01*
X150555795Y-56640723D01*
X150410845Y-56737576D01*
X150287576Y-56860845D01*
X150190723Y-57005795D01*
X150124010Y-57166855D01*
X150090000Y-57337835D01*
X146730000Y-57337835D01*
X146730000Y-48995538D01*
X146754277Y-48959205D01*
X146820990Y-48798145D01*
X146855000Y-48627165D01*
X146855000Y-48452835D01*
X146820990Y-48281855D01*
X146754277Y-48120795D01*
X146657424Y-47975845D01*
X146534155Y-47852576D01*
X146389205Y-47755723D01*
X146228145Y-47689010D01*
X146057165Y-47655000D01*
X145882835Y-47655000D01*
X145711855Y-47689010D01*
X145550795Y-47755723D01*
X145405845Y-47852576D01*
X145282576Y-47975845D01*
X145185723Y-48120795D01*
X145119010Y-48281855D01*
X145085000Y-48452835D01*
X145085000Y-48627165D01*
X145119010Y-48798145D01*
X145185723Y-48959205D01*
X145210000Y-48995538D01*
X145210001Y-61525197D01*
X141054714Y-65680485D01*
X141011855Y-65689010D01*
X140850795Y-65755723D01*
X140705845Y-65852576D01*
X140582576Y-65975845D01*
X140485723Y-66120795D01*
X140419010Y-66281855D01*
X140385000Y-66452835D01*
X140385000Y-66540000D01*
X135455538Y-66540000D01*
X135419205Y-66515723D01*
X135258145Y-66449010D01*
X135087165Y-66415000D01*
X134912835Y-66415000D01*
X134741855Y-66449010D01*
X134580795Y-66515723D01*
X134435845Y-66612576D01*
X134312576Y-66735845D01*
X134215723Y-66880795D01*
X134149010Y-67041855D01*
X134115000Y-67212835D01*
X134115000Y-67215000D01*
X134012835Y-67215000D01*
X133841855Y-67249010D01*
X133680795Y-67315723D01*
X133535845Y-67412576D01*
X133412576Y-67535845D01*
X133315723Y-67680795D01*
X133249010Y-67841855D01*
X133215000Y-68012835D01*
X133215000Y-68187165D01*
X133245401Y-68340000D01*
X130055538Y-68340000D01*
X130019205Y-68315723D01*
X129858145Y-68249010D01*
X129687165Y-68215000D01*
X129512835Y-68215000D01*
X129341855Y-68249010D01*
X129180795Y-68315723D01*
X129035845Y-68412576D01*
X128912576Y-68535845D01*
X128815723Y-68680795D01*
X128749010Y-68841855D01*
X128715000Y-69012835D01*
X128715000Y-69187165D01*
X128749010Y-69358145D01*
X128815723Y-69519205D01*
X128912576Y-69664155D01*
X129035845Y-69787424D01*
X129180795Y-69884277D01*
X129315323Y-69940000D01*
X123744802Y-69940000D01*
X121767637Y-67962835D01*
X122740000Y-67962835D01*
X122740000Y-68137165D01*
X122774010Y-68308145D01*
X122840723Y-68469205D01*
X122937576Y-68614155D01*
X123060845Y-68737424D01*
X123205795Y-68834277D01*
X123366855Y-68900990D01*
X123537835Y-68935000D01*
X123712165Y-68935000D01*
X123883145Y-68900990D01*
X124044205Y-68834277D01*
X124189155Y-68737424D01*
X124312424Y-68614155D01*
X124409277Y-68469205D01*
X124475990Y-68308145D01*
X124510000Y-68137165D01*
X124510000Y-67962835D01*
X124475990Y-67791855D01*
X124409277Y-67630795D01*
X124312424Y-67485845D01*
X124189155Y-67362576D01*
X124044205Y-67265723D01*
X123988568Y-67242678D01*
X124069205Y-67209277D01*
X124214155Y-67112424D01*
X124337424Y-66989155D01*
X124434277Y-66844205D01*
X124500990Y-66683145D01*
X124535000Y-66512165D01*
X124535000Y-66337835D01*
X124508127Y-66202734D01*
X127675101Y-66202734D01*
X127675101Y-66377064D01*
X127709111Y-66548044D01*
X127775824Y-66709104D01*
X127872677Y-66854054D01*
X127995946Y-66977323D01*
X128140896Y-67074176D01*
X128301956Y-67140889D01*
X128472936Y-67174899D01*
X128647266Y-67174899D01*
X128818246Y-67140889D01*
X128979306Y-67074176D01*
X129124256Y-66977323D01*
X129247525Y-66854054D01*
X129344378Y-66709104D01*
X129411091Y-66548044D01*
X129445101Y-66377064D01*
X129445101Y-66202734D01*
X129416259Y-66057734D01*
X130095101Y-66057734D01*
X130095101Y-66232064D01*
X130129111Y-66403044D01*
X130195824Y-66564104D01*
X130292677Y-66709054D01*
X130415946Y-66832323D01*
X130560896Y-66929176D01*
X130721956Y-66995889D01*
X130892936Y-67029899D01*
X131067266Y-67029899D01*
X131238246Y-66995889D01*
X131399306Y-66929176D01*
X131544256Y-66832323D01*
X131667525Y-66709054D01*
X131764378Y-66564104D01*
X131831091Y-66403044D01*
X131865101Y-66232064D01*
X131865101Y-66057734D01*
X131831091Y-65886754D01*
X131764378Y-65725694D01*
X131667525Y-65580744D01*
X131544256Y-65457475D01*
X131399306Y-65360622D01*
X131238246Y-65293909D01*
X131067266Y-65259899D01*
X130892936Y-65259899D01*
X130721956Y-65293909D01*
X130560896Y-65360622D01*
X130415946Y-65457475D01*
X130292677Y-65580744D01*
X130195824Y-65725694D01*
X130129111Y-65886754D01*
X130095101Y-66057734D01*
X129416259Y-66057734D01*
X129411091Y-66031754D01*
X129344378Y-65870694D01*
X129247525Y-65725744D01*
X129124256Y-65602475D01*
X128979306Y-65505622D01*
X128818246Y-65438909D01*
X128647266Y-65404899D01*
X128472936Y-65404899D01*
X128301956Y-65438909D01*
X128140896Y-65505622D01*
X127995946Y-65602475D01*
X127872677Y-65725744D01*
X127775824Y-65870694D01*
X127709111Y-66031754D01*
X127675101Y-66202734D01*
X124508127Y-66202734D01*
X124500990Y-66166855D01*
X124434277Y-66005795D01*
X124337424Y-65860845D01*
X124214155Y-65737576D01*
X124069205Y-65640723D01*
X123908145Y-65574010D01*
X123737165Y-65540000D01*
X123562835Y-65540000D01*
X123391855Y-65574010D01*
X123230795Y-65640723D01*
X123085845Y-65737576D01*
X122962576Y-65860845D01*
X122865723Y-66005795D01*
X122799010Y-66166855D01*
X122765000Y-66337835D01*
X122765000Y-66512165D01*
X122799010Y-66683145D01*
X122865723Y-66844205D01*
X122962576Y-66989155D01*
X123085845Y-67112424D01*
X123230795Y-67209277D01*
X123286432Y-67232322D01*
X123205795Y-67265723D01*
X123060845Y-67362576D01*
X122937576Y-67485845D01*
X122840723Y-67630795D01*
X122774010Y-67791855D01*
X122740000Y-67962835D01*
X121767637Y-67962835D01*
X120929515Y-67124714D01*
X120920990Y-67081855D01*
X120854277Y-66920795D01*
X120757424Y-66775845D01*
X120634155Y-66652576D01*
X120489205Y-66555723D01*
X120328145Y-66489010D01*
X120157165Y-66455000D01*
X119982835Y-66455000D01*
X119811855Y-66489010D01*
X119650795Y-66555723D01*
X119505845Y-66652576D01*
X119382576Y-66775845D01*
X119285723Y-66920795D01*
X119219010Y-67081855D01*
X119185000Y-67252835D01*
X119185000Y-67427165D01*
X119219010Y-67598145D01*
X119285723Y-67759205D01*
X119382576Y-67904155D01*
X119505845Y-68027424D01*
X119650795Y-68124277D01*
X119811855Y-68190990D01*
X119854714Y-68199515D01*
X122595198Y-70940000D01*
X121937323Y-70940000D01*
X121900000Y-70936324D01*
X121862677Y-70940000D01*
X121862667Y-70940000D01*
X121751014Y-70950997D01*
X121615032Y-70992246D01*
X121607753Y-70994454D01*
X121475723Y-71065026D01*
X121392083Y-71133668D01*
X121359999Y-71159999D01*
X121336201Y-71188997D01*
X118652199Y-73873000D01*
X115685000Y-73873000D01*
X115685000Y-72670000D01*
X116328476Y-72670000D01*
X116346529Y-72853292D01*
X116399993Y-73029540D01*
X116486814Y-73191972D01*
X116603656Y-73334344D01*
X116746028Y-73451186D01*
X116908460Y-73538007D01*
X117084708Y-73591471D01*
X117222068Y-73605000D01*
X118237932Y-73605000D01*
X118375292Y-73591471D01*
X118551540Y-73538007D01*
X118713972Y-73451186D01*
X118856344Y-73334344D01*
X118973186Y-73191972D01*
X119060007Y-73029540D01*
X119113471Y-72853292D01*
X119131524Y-72670000D01*
X119113471Y-72486708D01*
X119060007Y-72310460D01*
X118973186Y-72148028D01*
X118856344Y-72005656D01*
X118713972Y-71888814D01*
X118551540Y-71801993D01*
X118375292Y-71748529D01*
X118237932Y-71735000D01*
X117222068Y-71735000D01*
X117084708Y-71748529D01*
X116908460Y-71801993D01*
X116746028Y-71888814D01*
X116603656Y-72005656D01*
X116486814Y-72148028D01*
X116399993Y-72310460D01*
X116346529Y-72486708D01*
X116328476Y-72670000D01*
X115685000Y-72670000D01*
X115685000Y-69337835D01*
X118365000Y-69337835D01*
X118365000Y-69512165D01*
X118399010Y-69683145D01*
X118465723Y-69844205D01*
X118562576Y-69989155D01*
X118685845Y-70112424D01*
X118830795Y-70209277D01*
X118991855Y-70275990D01*
X119162835Y-70310000D01*
X119337165Y-70310000D01*
X119508145Y-70275990D01*
X119669205Y-70209277D01*
X119814155Y-70112424D01*
X119937424Y-69989155D01*
X120034277Y-69844205D01*
X120100990Y-69683145D01*
X120135000Y-69512165D01*
X120135000Y-69337835D01*
X120100990Y-69166855D01*
X120034277Y-69005795D01*
X119937424Y-68860845D01*
X119814155Y-68737576D01*
X119669205Y-68640723D01*
X119508145Y-68574010D01*
X119337165Y-68540000D01*
X119162835Y-68540000D01*
X118991855Y-68574010D01*
X118830795Y-68640723D01*
X118685845Y-68737576D01*
X118562576Y-68860845D01*
X118465723Y-69005795D01*
X118399010Y-69166855D01*
X118365000Y-69337835D01*
X115685000Y-69337835D01*
X115685000Y-67590000D01*
X116328476Y-67590000D01*
X116346529Y-67773292D01*
X116399993Y-67949540D01*
X116486814Y-68111972D01*
X116603656Y-68254344D01*
X116746028Y-68371186D01*
X116908460Y-68458007D01*
X117084708Y-68511471D01*
X117222068Y-68525000D01*
X118237932Y-68525000D01*
X118375292Y-68511471D01*
X118551540Y-68458007D01*
X118713972Y-68371186D01*
X118856344Y-68254344D01*
X118973186Y-68111972D01*
X119060007Y-67949540D01*
X119113471Y-67773292D01*
X119131524Y-67590000D01*
X119113471Y-67406708D01*
X119060007Y-67230460D01*
X118973186Y-67068028D01*
X118856344Y-66925656D01*
X118713972Y-66808814D01*
X118551540Y-66721993D01*
X118375292Y-66668529D01*
X118237932Y-66655000D01*
X117222068Y-66655000D01*
X117084708Y-66668529D01*
X116908460Y-66721993D01*
X116746028Y-66808814D01*
X116603656Y-66925656D01*
X116486814Y-67068028D01*
X116399993Y-67230460D01*
X116346529Y-67406708D01*
X116328476Y-67590000D01*
X115685000Y-67590000D01*
X115685000Y-64710000D01*
X116288476Y-64710000D01*
X116306529Y-64893292D01*
X116359993Y-65069540D01*
X116446814Y-65231972D01*
X116563656Y-65374344D01*
X116706028Y-65491186D01*
X116868460Y-65578007D01*
X117044708Y-65631471D01*
X117182068Y-65645000D01*
X118197932Y-65645000D01*
X118335292Y-65631471D01*
X118511540Y-65578007D01*
X118673972Y-65491186D01*
X118816344Y-65374344D01*
X118933186Y-65231972D01*
X119020007Y-65069540D01*
X119073471Y-64893292D01*
X119091524Y-64710000D01*
X119073471Y-64526708D01*
X119020007Y-64350460D01*
X119013259Y-64337835D01*
X125190000Y-64337835D01*
X125190000Y-64512165D01*
X125224010Y-64683145D01*
X125290723Y-64844205D01*
X125387576Y-64989155D01*
X125510845Y-65112424D01*
X125655795Y-65209277D01*
X125816855Y-65275990D01*
X125987835Y-65310000D01*
X126162165Y-65310000D01*
X126333145Y-65275990D01*
X126494205Y-65209277D01*
X126639155Y-65112424D01*
X126762424Y-64989155D01*
X126859277Y-64844205D01*
X126925990Y-64683145D01*
X126960000Y-64512165D01*
X126960000Y-64337835D01*
X126925990Y-64166855D01*
X126859277Y-64005795D01*
X126762424Y-63860845D01*
X126639155Y-63737576D01*
X126564713Y-63687835D01*
X137590000Y-63687835D01*
X137590000Y-63862165D01*
X137624010Y-64033145D01*
X137690723Y-64194205D01*
X137787576Y-64339155D01*
X137910845Y-64462424D01*
X138055795Y-64559277D01*
X138216855Y-64625990D01*
X138387835Y-64660000D01*
X138562165Y-64660000D01*
X138733145Y-64625990D01*
X138894205Y-64559277D01*
X139039155Y-64462424D01*
X139162424Y-64339155D01*
X139259277Y-64194205D01*
X139325990Y-64033145D01*
X139339986Y-63962780D01*
X139349010Y-64008145D01*
X139415723Y-64169205D01*
X139512576Y-64314155D01*
X139635845Y-64437424D01*
X139780795Y-64534277D01*
X139941855Y-64600990D01*
X140112835Y-64635000D01*
X140287165Y-64635000D01*
X140458145Y-64600990D01*
X140619205Y-64534277D01*
X140764155Y-64437424D01*
X140887424Y-64314155D01*
X140984277Y-64169205D01*
X141050990Y-64008145D01*
X141085000Y-63837165D01*
X141085000Y-63662835D01*
X141050990Y-63491855D01*
X140984277Y-63330795D01*
X140887424Y-63185845D01*
X140764155Y-63062576D01*
X140619205Y-62965723D01*
X140458145Y-62899010D01*
X140287165Y-62865000D01*
X140112835Y-62865000D01*
X139941855Y-62899010D01*
X139780795Y-62965723D01*
X139635845Y-63062576D01*
X139512576Y-63185845D01*
X139415723Y-63330795D01*
X139349010Y-63491855D01*
X139335014Y-63562220D01*
X139325990Y-63516855D01*
X139259277Y-63355795D01*
X139162424Y-63210845D01*
X139039155Y-63087576D01*
X138894205Y-62990723D01*
X138733145Y-62924010D01*
X138562165Y-62890000D01*
X138387835Y-62890000D01*
X138216855Y-62924010D01*
X138055795Y-62990723D01*
X137910845Y-63087576D01*
X137787576Y-63210845D01*
X137690723Y-63355795D01*
X137624010Y-63516855D01*
X137590000Y-63687835D01*
X126564713Y-63687835D01*
X126494205Y-63640723D01*
X126333145Y-63574010D01*
X126162165Y-63540000D01*
X125987835Y-63540000D01*
X125816855Y-63574010D01*
X125655795Y-63640723D01*
X125510845Y-63737576D01*
X125387576Y-63860845D01*
X125290723Y-64005795D01*
X125224010Y-64166855D01*
X125190000Y-64337835D01*
X119013259Y-64337835D01*
X118933186Y-64188028D01*
X118816344Y-64045656D01*
X118673972Y-63928814D01*
X118511540Y-63841993D01*
X118335292Y-63788529D01*
X118197932Y-63775000D01*
X117182068Y-63775000D01*
X117044708Y-63788529D01*
X116868460Y-63841993D01*
X116706028Y-63928814D01*
X116563656Y-64045656D01*
X116446814Y-64188028D01*
X116359993Y-64350460D01*
X116306529Y-64526708D01*
X116288476Y-64710000D01*
X115685000Y-64710000D01*
X115685000Y-61512835D01*
X118315000Y-61512835D01*
X118315000Y-61687165D01*
X118349010Y-61858145D01*
X118415723Y-62019205D01*
X118512576Y-62164155D01*
X118635845Y-62287424D01*
X118780795Y-62384277D01*
X118941855Y-62450990D01*
X119112835Y-62485000D01*
X119287165Y-62485000D01*
X119458145Y-62450990D01*
X119619205Y-62384277D01*
X119764155Y-62287424D01*
X119838744Y-62212835D01*
X132565000Y-62212835D01*
X132565000Y-62387165D01*
X132599010Y-62558145D01*
X132665723Y-62719205D01*
X132762576Y-62864155D01*
X132885845Y-62987424D01*
X133030795Y-63084277D01*
X133191855Y-63150990D01*
X133362835Y-63185000D01*
X133537165Y-63185000D01*
X133708145Y-63150990D01*
X133869205Y-63084277D01*
X134014155Y-62987424D01*
X134137424Y-62864155D01*
X134234277Y-62719205D01*
X134300990Y-62558145D01*
X134335000Y-62387165D01*
X134335000Y-62212835D01*
X134330028Y-62187835D01*
X136115000Y-62187835D01*
X136115000Y-62362165D01*
X136149010Y-62533145D01*
X136215723Y-62694205D01*
X136312576Y-62839155D01*
X136435845Y-62962424D01*
X136580795Y-63059277D01*
X136741855Y-63125990D01*
X136912835Y-63160000D01*
X137087165Y-63160000D01*
X137258145Y-63125990D01*
X137419205Y-63059277D01*
X137564155Y-62962424D01*
X137687424Y-62839155D01*
X137784277Y-62694205D01*
X137850990Y-62533145D01*
X137855029Y-62512835D01*
X141814996Y-62512835D01*
X141814996Y-62687165D01*
X141849006Y-62858145D01*
X141915719Y-63019205D01*
X142012572Y-63164155D01*
X142135841Y-63287424D01*
X142280791Y-63384277D01*
X142441851Y-63450990D01*
X142612831Y-63485000D01*
X142787161Y-63485000D01*
X142958141Y-63450990D01*
X143119201Y-63384277D01*
X143264151Y-63287424D01*
X143387420Y-63164155D01*
X143484273Y-63019205D01*
X143550986Y-62858145D01*
X143584996Y-62687165D01*
X143584996Y-62512835D01*
X143550986Y-62341855D01*
X143484273Y-62180795D01*
X143387420Y-62035845D01*
X143264151Y-61912576D01*
X143119201Y-61815723D01*
X142958141Y-61749010D01*
X142787161Y-61715000D01*
X142612831Y-61715000D01*
X142441851Y-61749010D01*
X142280791Y-61815723D01*
X142135841Y-61912576D01*
X142012572Y-62035845D01*
X141915719Y-62180795D01*
X141849006Y-62341855D01*
X141814996Y-62512835D01*
X137855029Y-62512835D01*
X137885000Y-62362165D01*
X137885000Y-62187835D01*
X137850990Y-62016855D01*
X137784277Y-61855795D01*
X137687424Y-61710845D01*
X137564155Y-61587576D01*
X137419205Y-61490723D01*
X137258145Y-61424010D01*
X137087165Y-61390000D01*
X136912835Y-61390000D01*
X136741855Y-61424010D01*
X136580795Y-61490723D01*
X136435845Y-61587576D01*
X136312576Y-61710845D01*
X136215723Y-61855795D01*
X136149010Y-62016855D01*
X136115000Y-62187835D01*
X134330028Y-62187835D01*
X134300990Y-62041855D01*
X134234277Y-61880795D01*
X134137424Y-61735845D01*
X134014155Y-61612576D01*
X133869205Y-61515723D01*
X133708145Y-61449010D01*
X133537165Y-61415000D01*
X133362835Y-61415000D01*
X133191855Y-61449010D01*
X133030795Y-61515723D01*
X132885845Y-61612576D01*
X132762576Y-61735845D01*
X132665723Y-61880795D01*
X132599010Y-62041855D01*
X132565000Y-62212835D01*
X119838744Y-62212835D01*
X119887424Y-62164155D01*
X119984277Y-62019205D01*
X120050990Y-61858145D01*
X120085000Y-61687165D01*
X120085000Y-61512835D01*
X120050990Y-61341855D01*
X119987194Y-61187835D01*
X126490000Y-61187835D01*
X126490000Y-61362165D01*
X126524010Y-61533145D01*
X126590723Y-61694205D01*
X126687576Y-61839155D01*
X126810845Y-61962424D01*
X126955795Y-62059277D01*
X127116855Y-62125990D01*
X127287835Y-62160000D01*
X127462165Y-62160000D01*
X127633145Y-62125990D01*
X127794205Y-62059277D01*
X127939155Y-61962424D01*
X128062424Y-61839155D01*
X128159277Y-61694205D01*
X128225990Y-61533145D01*
X128260000Y-61362165D01*
X128260000Y-61187835D01*
X128225990Y-61016855D01*
X128159277Y-60855795D01*
X128062424Y-60710845D01*
X127939155Y-60587576D01*
X127794205Y-60490723D01*
X127633145Y-60424010D01*
X127462165Y-60390000D01*
X127287835Y-60390000D01*
X127116855Y-60424010D01*
X126955795Y-60490723D01*
X126810845Y-60587576D01*
X126687576Y-60710845D01*
X126590723Y-60855795D01*
X126524010Y-61016855D01*
X126490000Y-61187835D01*
X119987194Y-61187835D01*
X119984277Y-61180795D01*
X119887424Y-61035845D01*
X119764155Y-60912576D01*
X119619205Y-60815723D01*
X119458145Y-60749010D01*
X119287165Y-60715000D01*
X119112835Y-60715000D01*
X118941855Y-60749010D01*
X118780795Y-60815723D01*
X118635845Y-60912576D01*
X118512576Y-61035845D01*
X118415723Y-61180795D01*
X118349010Y-61341855D01*
X118315000Y-61512835D01*
X115685000Y-61512835D01*
X115685000Y-59630000D01*
X116288476Y-59630000D01*
X116306529Y-59813292D01*
X116359993Y-59989540D01*
X116446814Y-60151972D01*
X116563656Y-60294344D01*
X116706028Y-60411186D01*
X116868460Y-60498007D01*
X117044708Y-60551471D01*
X117182068Y-60565000D01*
X118197932Y-60565000D01*
X118335292Y-60551471D01*
X118511540Y-60498007D01*
X118673972Y-60411186D01*
X118816344Y-60294344D01*
X118933186Y-60151972D01*
X119020007Y-59989540D01*
X119073471Y-59813292D01*
X119091524Y-59630000D01*
X119073471Y-59446708D01*
X119020007Y-59270460D01*
X118933186Y-59108028D01*
X118816344Y-58965656D01*
X118745890Y-58907835D01*
X137495000Y-58907835D01*
X137495000Y-59082165D01*
X137529010Y-59253145D01*
X137595723Y-59414205D01*
X137692576Y-59559155D01*
X137815845Y-59682424D01*
X137960795Y-59779277D01*
X138121855Y-59845990D01*
X138292835Y-59880000D01*
X138467165Y-59880000D01*
X138638145Y-59845990D01*
X138799205Y-59779277D01*
X138944155Y-59682424D01*
X139067424Y-59559155D01*
X139164277Y-59414205D01*
X139230990Y-59253145D01*
X139265000Y-59082165D01*
X139265000Y-58907835D01*
X139230990Y-58736855D01*
X139164277Y-58575795D01*
X139067424Y-58430845D01*
X138944155Y-58307576D01*
X138799205Y-58210723D01*
X138638145Y-58144010D01*
X138467165Y-58110000D01*
X138292835Y-58110000D01*
X138121855Y-58144010D01*
X137960795Y-58210723D01*
X137815845Y-58307576D01*
X137692576Y-58430845D01*
X137595723Y-58575795D01*
X137529010Y-58736855D01*
X137495000Y-58907835D01*
X118745890Y-58907835D01*
X118673972Y-58848814D01*
X118511540Y-58761993D01*
X118335292Y-58708529D01*
X118197932Y-58695000D01*
X117182068Y-58695000D01*
X117044708Y-58708529D01*
X116868460Y-58761993D01*
X116706028Y-58848814D01*
X116563656Y-58965656D01*
X116446814Y-59108028D01*
X116359993Y-59270460D01*
X116306529Y-59446708D01*
X116288476Y-59630000D01*
X115685000Y-59630000D01*
X115685000Y-56482835D01*
X137545000Y-56482835D01*
X137545000Y-56657165D01*
X137579010Y-56828145D01*
X137645723Y-56989205D01*
X137742576Y-57134155D01*
X137865845Y-57257424D01*
X138010795Y-57354277D01*
X138171855Y-57420990D01*
X138342835Y-57455000D01*
X138517165Y-57455000D01*
X138688145Y-57420990D01*
X138849205Y-57354277D01*
X138994155Y-57257424D01*
X139117424Y-57134155D01*
X139214277Y-56989205D01*
X139280990Y-56828145D01*
X139315000Y-56657165D01*
X139315000Y-56482835D01*
X139280990Y-56311855D01*
X139214277Y-56150795D01*
X139117424Y-56005845D01*
X138994155Y-55882576D01*
X138849205Y-55785723D01*
X138688145Y-55719010D01*
X138517165Y-55685000D01*
X138342835Y-55685000D01*
X138171855Y-55719010D01*
X138010795Y-55785723D01*
X137865845Y-55882576D01*
X137742576Y-56005845D01*
X137645723Y-56150795D01*
X137579010Y-56311855D01*
X137545000Y-56482835D01*
X115685000Y-56482835D01*
X115685000Y-50743740D01*
X123395000Y-50743740D01*
X123395000Y-51036260D01*
X123452068Y-51323158D01*
X123564010Y-51593411D01*
X123726525Y-51836632D01*
X123933368Y-52043475D01*
X124176589Y-52205990D01*
X124446842Y-52317932D01*
X124733740Y-52375000D01*
X125026260Y-52375000D01*
X125313158Y-52317932D01*
X125583411Y-52205990D01*
X125826632Y-52043475D01*
X126033475Y-51836632D01*
X126195990Y-51593411D01*
X126307932Y-51323158D01*
X126365000Y-51036260D01*
X126365000Y-50743740D01*
X126307932Y-50456842D01*
X126195990Y-50186589D01*
X126033475Y-49943368D01*
X125826632Y-49736525D01*
X125583411Y-49574010D01*
X125313158Y-49462068D01*
X125026260Y-49405000D01*
X124733740Y-49405000D01*
X124446842Y-49462068D01*
X124176589Y-49574010D01*
X123933368Y-49736525D01*
X123726525Y-49943368D01*
X123564010Y-50186589D01*
X123452068Y-50456842D01*
X123395000Y-50743740D01*
X115685000Y-50743740D01*
X115685000Y-43743740D01*
X123395000Y-43743740D01*
X123395000Y-44036260D01*
X123452068Y-44323158D01*
X123564010Y-44593411D01*
X123726525Y-44836632D01*
X123933368Y-45043475D01*
X124176589Y-45205990D01*
X124446842Y-45317932D01*
X124733740Y-45375000D01*
X125026260Y-45375000D01*
X125313158Y-45317932D01*
X125583411Y-45205990D01*
X125826632Y-45043475D01*
X126033475Y-44836632D01*
X126195990Y-44593411D01*
X126307932Y-44323158D01*
X126365000Y-44036260D01*
X126365000Y-43743740D01*
X126307932Y-43456842D01*
X126195990Y-43186589D01*
X126033475Y-42943368D01*
X125826632Y-42736525D01*
X125701382Y-42652835D01*
X135585000Y-42652835D01*
X135585000Y-42827165D01*
X135619010Y-42998145D01*
X135685723Y-43159205D01*
X135710000Y-43195538D01*
X135710001Y-48402668D01*
X135706324Y-48440000D01*
X135710001Y-48477333D01*
X135720998Y-48588986D01*
X135732579Y-48627165D01*
X135764454Y-48732246D01*
X135835026Y-48864276D01*
X135844521Y-48875845D01*
X135930000Y-48980001D01*
X135958998Y-49003799D01*
X136610485Y-49655287D01*
X136619010Y-49698145D01*
X136685723Y-49859205D01*
X136782576Y-50004155D01*
X136905845Y-50127424D01*
X137050795Y-50224277D01*
X137211855Y-50290990D01*
X137382835Y-50325000D01*
X137557165Y-50325000D01*
X137728145Y-50290990D01*
X137889205Y-50224277D01*
X138034155Y-50127424D01*
X138157424Y-50004155D01*
X138254277Y-49859205D01*
X138320990Y-49698145D01*
X138355000Y-49527165D01*
X138355000Y-49352835D01*
X138320990Y-49181855D01*
X138254277Y-49020795D01*
X138157424Y-48875845D01*
X138034155Y-48752576D01*
X137889205Y-48655723D01*
X137728145Y-48589010D01*
X137685287Y-48580485D01*
X137230000Y-48125199D01*
X137230000Y-45062835D01*
X145090000Y-45062835D01*
X145090000Y-45237165D01*
X145124010Y-45408145D01*
X145190723Y-45569205D01*
X145287576Y-45714155D01*
X145410845Y-45837424D01*
X145555795Y-45934277D01*
X145716855Y-46000990D01*
X145887835Y-46035000D01*
X146062165Y-46035000D01*
X146233145Y-46000990D01*
X146394205Y-45934277D01*
X146539155Y-45837424D01*
X146662424Y-45714155D01*
X146759277Y-45569205D01*
X146825990Y-45408145D01*
X146860000Y-45237165D01*
X146860000Y-45062835D01*
X146825990Y-44891855D01*
X146759277Y-44730795D01*
X146662424Y-44585845D01*
X146539155Y-44462576D01*
X146394205Y-44365723D01*
X146233145Y-44299010D01*
X146062165Y-44265000D01*
X145887835Y-44265000D01*
X145716855Y-44299010D01*
X145555795Y-44365723D01*
X145410845Y-44462576D01*
X145287576Y-44585845D01*
X145190723Y-44730795D01*
X145124010Y-44891855D01*
X145090000Y-45062835D01*
X137230000Y-45062835D01*
X137230000Y-43812837D01*
X143115000Y-43812837D01*
X143115000Y-43987167D01*
X143149010Y-44158147D01*
X143215723Y-44319207D01*
X143312576Y-44464157D01*
X143435845Y-44587426D01*
X143580795Y-44684279D01*
X143741855Y-44750992D01*
X143912835Y-44785002D01*
X144087165Y-44785002D01*
X144258145Y-44750992D01*
X144419205Y-44684279D01*
X144564155Y-44587426D01*
X144687424Y-44464157D01*
X144784277Y-44319207D01*
X144850990Y-44158147D01*
X144885000Y-43987167D01*
X144885000Y-43812837D01*
X144875054Y-43762835D01*
X148665000Y-43762835D01*
X148665000Y-43937165D01*
X148699010Y-44108145D01*
X148765723Y-44269205D01*
X148862576Y-44414155D01*
X148985845Y-44537424D01*
X149130795Y-44634277D01*
X149291855Y-44700990D01*
X149462835Y-44735000D01*
X149637165Y-44735000D01*
X149808145Y-44700990D01*
X149969205Y-44634277D01*
X150114155Y-44537424D01*
X150237424Y-44414155D01*
X150334277Y-44269205D01*
X150400990Y-44108145D01*
X150435000Y-43937165D01*
X150435000Y-43762835D01*
X150400990Y-43591855D01*
X150334277Y-43430795D01*
X150237424Y-43285845D01*
X150114155Y-43162576D01*
X149969205Y-43065723D01*
X149808145Y-42999010D01*
X149637165Y-42965000D01*
X149462835Y-42965000D01*
X149291855Y-42999010D01*
X149130795Y-43065723D01*
X148985845Y-43162576D01*
X148862576Y-43285845D01*
X148765723Y-43430795D01*
X148699010Y-43591855D01*
X148665000Y-43762835D01*
X144875054Y-43762835D01*
X144850990Y-43641857D01*
X144784277Y-43480797D01*
X144687424Y-43335847D01*
X144564155Y-43212578D01*
X144419205Y-43115725D01*
X144258145Y-43049012D01*
X144087165Y-43015002D01*
X143912835Y-43015002D01*
X143741855Y-43049012D01*
X143580795Y-43115725D01*
X143435845Y-43212578D01*
X143312576Y-43335847D01*
X143215723Y-43480797D01*
X143149010Y-43641857D01*
X143115000Y-43812837D01*
X137230000Y-43812837D01*
X137230000Y-43195538D01*
X137254277Y-43159205D01*
X137320990Y-42998145D01*
X137355000Y-42827165D01*
X137355000Y-42652835D01*
X137320990Y-42481855D01*
X137254277Y-42320795D01*
X137157424Y-42175845D01*
X137034155Y-42052576D01*
X136889205Y-41955723D01*
X136728145Y-41889010D01*
X136557165Y-41855000D01*
X136382835Y-41855000D01*
X136211855Y-41889010D01*
X136050795Y-41955723D01*
X135905845Y-42052576D01*
X135782576Y-42175845D01*
X135685723Y-42320795D01*
X135619010Y-42481855D01*
X135585000Y-42652835D01*
X125701382Y-42652835D01*
X125583411Y-42574010D01*
X125313158Y-42462068D01*
X125026260Y-42405000D01*
X124733740Y-42405000D01*
X124446842Y-42462068D01*
X124176589Y-42574010D01*
X123933368Y-42736525D01*
X123726525Y-42943368D01*
X123564010Y-43186589D01*
X123452068Y-43456842D01*
X123395000Y-43743740D01*
X115685000Y-43743740D01*
X115685000Y-41087835D01*
X131990000Y-41087835D01*
X131990000Y-41262165D01*
X132024010Y-41433145D01*
X132090723Y-41594205D01*
X132187576Y-41739155D01*
X132310845Y-41862424D01*
X132455795Y-41959277D01*
X132616855Y-42025990D01*
X132787835Y-42060000D01*
X132962165Y-42060000D01*
X133133145Y-42025990D01*
X133294205Y-41959277D01*
X133439155Y-41862424D01*
X133562424Y-41739155D01*
X133659277Y-41594205D01*
X133725990Y-41433145D01*
X133760000Y-41262165D01*
X133760000Y-41087835D01*
X133725990Y-40916855D01*
X133659277Y-40755795D01*
X133562424Y-40610845D01*
X133439155Y-40487576D01*
X133294205Y-40390723D01*
X133133145Y-40324010D01*
X132962165Y-40290000D01*
X132787835Y-40290000D01*
X132616855Y-40324010D01*
X132455795Y-40390723D01*
X132310845Y-40487576D01*
X132187576Y-40610845D01*
X132090723Y-40755795D01*
X132024010Y-40916855D01*
X131990000Y-41087835D01*
X115685000Y-41087835D01*
X115685000Y-39637835D01*
X116615000Y-39637835D01*
X116615000Y-39812165D01*
X116649010Y-39983145D01*
X116715723Y-40144205D01*
X116812576Y-40289155D01*
X116935845Y-40412424D01*
X117080795Y-40509277D01*
X117241855Y-40575990D01*
X117412835Y-40610000D01*
X117587165Y-40610000D01*
X117758145Y-40575990D01*
X117919205Y-40509277D01*
X118064155Y-40412424D01*
X118187424Y-40289155D01*
X118284277Y-40144205D01*
X118350990Y-39983145D01*
X118385000Y-39812165D01*
X118385000Y-39637835D01*
X118350990Y-39466855D01*
X118284277Y-39305795D01*
X118187424Y-39160845D01*
X118064155Y-39037576D01*
X117919205Y-38940723D01*
X117758145Y-38874010D01*
X117587165Y-38840000D01*
X117412835Y-38840000D01*
X117241855Y-38874010D01*
X117080795Y-38940723D01*
X116935845Y-39037576D01*
X116812576Y-39160845D01*
X116715723Y-39305795D01*
X116649010Y-39466855D01*
X116615000Y-39637835D01*
X115685000Y-39637835D01*
X115685000Y-38127000D01*
X145213918Y-38127000D01*
X145085845Y-38212576D01*
G37*
G04 #@! TD.AperFunction*
G04 #@! TD*
D19*
G04 #@! TO.N,GND*
X118394454Y-74207754D02*
X118384441Y-74240765D01*
X118350998Y-74351014D01*
X118348582Y-74375546D01*
X118336324Y-74500000D01*
X118340001Y-74537333D01*
X118340001Y-82680920D01*
X118306973Y-82653815D01*
X118144541Y-82566994D01*
X117968293Y-82513530D01*
X117830933Y-82500001D01*
X116815069Y-82500001D01*
X116677709Y-82513530D01*
X116501461Y-82566994D01*
X116339029Y-82653815D01*
X116196657Y-82770657D01*
X116079815Y-82913029D01*
X115992994Y-83075461D01*
X115939530Y-83251709D01*
X115921477Y-83435001D01*
X115939530Y-83618293D01*
X115992994Y-83794541D01*
X116079815Y-83956973D01*
X116196657Y-84099345D01*
X116339029Y-84216187D01*
X116501461Y-84303008D01*
X116677709Y-84356472D01*
X116815069Y-84370001D01*
X117830933Y-84370001D01*
X117968293Y-84356472D01*
X118144541Y-84303008D01*
X118306973Y-84216187D01*
X118340000Y-84189082D01*
X118340000Y-87760920D01*
X118306973Y-87733815D01*
X118144541Y-87646994D01*
X117968293Y-87593530D01*
X117830933Y-87580001D01*
X116815069Y-87580001D01*
X116677709Y-87593530D01*
X116501461Y-87646994D01*
X116339029Y-87733815D01*
X116196657Y-87850657D01*
X116079815Y-87993029D01*
X115992994Y-88155461D01*
X115939530Y-88331709D01*
X115921477Y-88515001D01*
X115939530Y-88698293D01*
X115992994Y-88874541D01*
X116079815Y-89036973D01*
X116196657Y-89179345D01*
X116339029Y-89296187D01*
X116501461Y-89383008D01*
X116677709Y-89436472D01*
X116815069Y-89450001D01*
X117830933Y-89450001D01*
X117968293Y-89436472D01*
X118144541Y-89383008D01*
X118306973Y-89296187D01*
X118340000Y-89269082D01*
X118340000Y-90844462D01*
X118315723Y-90880795D01*
X118249010Y-91041855D01*
X118215000Y-91212835D01*
X118215000Y-91387165D01*
X118249010Y-91558145D01*
X118315723Y-91719205D01*
X118412576Y-91864155D01*
X118535845Y-91987424D01*
X118680795Y-92084277D01*
X118841855Y-92150990D01*
X119012835Y-92185000D01*
X119187165Y-92185000D01*
X119358145Y-92150990D01*
X119519205Y-92084277D01*
X119664155Y-91987424D01*
X119787424Y-91864155D01*
X119884277Y-91719205D01*
X119950990Y-91558145D01*
X119985000Y-91387165D01*
X119985000Y-91212835D01*
X119950990Y-91041855D01*
X119884277Y-90880795D01*
X119860000Y-90844462D01*
X119860000Y-90412835D01*
X126615000Y-90412835D01*
X126615000Y-90587165D01*
X126649010Y-90758145D01*
X126715723Y-90919205D01*
X126812576Y-91064155D01*
X126935845Y-91187424D01*
X127080795Y-91284277D01*
X127241855Y-91350990D01*
X127412835Y-91385000D01*
X127587165Y-91385000D01*
X127758145Y-91350990D01*
X127919205Y-91284277D01*
X128064155Y-91187424D01*
X128187424Y-91064155D01*
X128284277Y-90919205D01*
X128350990Y-90758145D01*
X128385000Y-90587165D01*
X128385000Y-90412835D01*
X128350990Y-90241855D01*
X128304798Y-90130335D01*
X135032500Y-90130335D01*
X135032500Y-90304665D01*
X135066510Y-90475645D01*
X135133223Y-90636705D01*
X135230076Y-90781655D01*
X135353345Y-90904924D01*
X135498295Y-91001777D01*
X135659355Y-91068490D01*
X135830335Y-91102500D01*
X136004665Y-91102500D01*
X136175645Y-91068490D01*
X136336705Y-91001777D01*
X136481655Y-90904924D01*
X136604924Y-90781655D01*
X136701777Y-90636705D01*
X136768490Y-90475645D01*
X136802500Y-90304665D01*
X136802500Y-90130335D01*
X136768490Y-89959355D01*
X136701777Y-89798295D01*
X136604924Y-89653345D01*
X136481655Y-89530076D01*
X136336705Y-89433223D01*
X136175645Y-89366510D01*
X136004665Y-89332500D01*
X135830335Y-89332500D01*
X135659355Y-89366510D01*
X135498295Y-89433223D01*
X135353345Y-89530076D01*
X135230076Y-89653345D01*
X135133223Y-89798295D01*
X135066510Y-89959355D01*
X135032500Y-90130335D01*
X128304798Y-90130335D01*
X128284277Y-90080795D01*
X128187424Y-89935845D01*
X128064155Y-89812576D01*
X127919205Y-89715723D01*
X127758145Y-89649010D01*
X127587165Y-89615000D01*
X127412835Y-89615000D01*
X127241855Y-89649010D01*
X127080795Y-89715723D01*
X126935845Y-89812576D01*
X126812576Y-89935845D01*
X126715723Y-90080795D01*
X126649010Y-90241855D01*
X126615000Y-90412835D01*
X119860000Y-90412835D01*
X119860000Y-86375485D01*
X119983145Y-86350990D01*
X120144205Y-86284277D01*
X120289155Y-86187424D01*
X120412424Y-86064155D01*
X120509277Y-85919205D01*
X120575990Y-85758145D01*
X120610000Y-85587165D01*
X120610000Y-85412835D01*
X120575990Y-85241855D01*
X120522549Y-85112835D01*
X121664990Y-85112835D01*
X121664990Y-85287165D01*
X121699000Y-85458145D01*
X121765713Y-85619205D01*
X121862566Y-85764155D01*
X121985835Y-85887424D01*
X122130785Y-85984277D01*
X122291845Y-86050990D01*
X122462825Y-86085000D01*
X122637155Y-86085000D01*
X122808135Y-86050990D01*
X122969195Y-85984277D01*
X123005528Y-85960000D01*
X129915000Y-85960000D01*
X129915000Y-86037165D01*
X129949010Y-86208145D01*
X130015723Y-86369205D01*
X130112576Y-86514155D01*
X130235845Y-86637424D01*
X130380795Y-86734277D01*
X130541855Y-86800990D01*
X130712835Y-86835000D01*
X130887165Y-86835000D01*
X131058145Y-86800990D01*
X131219205Y-86734277D01*
X131364155Y-86637424D01*
X131487424Y-86514155D01*
X131584277Y-86369205D01*
X131650990Y-86208145D01*
X131685000Y-86037165D01*
X131685000Y-85960000D01*
X133890000Y-85960000D01*
X133890000Y-86087165D01*
X133924010Y-86258145D01*
X133990723Y-86419205D01*
X134087576Y-86564155D01*
X134210845Y-86687424D01*
X134355795Y-86784277D01*
X134516855Y-86850990D01*
X134687835Y-86885000D01*
X134862165Y-86885000D01*
X135033145Y-86850990D01*
X135194205Y-86784277D01*
X135339155Y-86687424D01*
X135462424Y-86564155D01*
X135559277Y-86419205D01*
X135625990Y-86258145D01*
X135660000Y-86087165D01*
X135660000Y-85960000D01*
X139885199Y-85960000D01*
X140240485Y-86315287D01*
X140249010Y-86358145D01*
X140315723Y-86519205D01*
X140412576Y-86664155D01*
X140535845Y-86787424D01*
X140680795Y-86884277D01*
X140841855Y-86950990D01*
X141012835Y-86985000D01*
X141187165Y-86985000D01*
X141358145Y-86950990D01*
X141519205Y-86884277D01*
X141664155Y-86787424D01*
X141787424Y-86664155D01*
X141884277Y-86519205D01*
X141950990Y-86358145D01*
X141985000Y-86187165D01*
X141985000Y-86012835D01*
X141950990Y-85841855D01*
X141884277Y-85680795D01*
X141787424Y-85535845D01*
X141664155Y-85412576D01*
X141519205Y-85315723D01*
X141358145Y-85249010D01*
X141315287Y-85240485D01*
X140763803Y-84689002D01*
X140740001Y-84659999D01*
X140624276Y-84565026D01*
X140492247Y-84494454D01*
X140348986Y-84450997D01*
X140237333Y-84440000D01*
X140237322Y-84440000D01*
X140200000Y-84436324D01*
X140162678Y-84440000D01*
X123005528Y-84440000D01*
X122969195Y-84415723D01*
X122808135Y-84349010D01*
X122637155Y-84315000D01*
X122462825Y-84315000D01*
X122291845Y-84349010D01*
X122130785Y-84415723D01*
X121985835Y-84512576D01*
X121862566Y-84635845D01*
X121765713Y-84780795D01*
X121699000Y-84941855D01*
X121664990Y-85112835D01*
X120522549Y-85112835D01*
X120509277Y-85080795D01*
X120412424Y-84935845D01*
X120289155Y-84812576D01*
X120144205Y-84715723D01*
X119983145Y-84649010D01*
X119860000Y-84624515D01*
X119860000Y-82992835D01*
X135015000Y-82992835D01*
X135015000Y-83167165D01*
X135049010Y-83338145D01*
X135115723Y-83499205D01*
X135212576Y-83644155D01*
X135335845Y-83767424D01*
X135480795Y-83864277D01*
X135641855Y-83930990D01*
X135697898Y-83942138D01*
X135725723Y-83964973D01*
X135857752Y-84035545D01*
X136001013Y-84079002D01*
X136112666Y-84089999D01*
X136112676Y-84089999D01*
X136149999Y-84093675D01*
X136187322Y-84089999D01*
X144782679Y-84089999D01*
X144820001Y-84093675D01*
X144857323Y-84089999D01*
X144857334Y-84089999D01*
X144968987Y-84079002D01*
X145112248Y-84035545D01*
X145244277Y-83964973D01*
X145349406Y-83878696D01*
X145388145Y-83870990D01*
X145549205Y-83804277D01*
X145640000Y-83743609D01*
X145730795Y-83804277D01*
X145891855Y-83870990D01*
X146062835Y-83905000D01*
X146237165Y-83905000D01*
X146408145Y-83870990D01*
X146569205Y-83804277D01*
X146714155Y-83707424D01*
X146837424Y-83584155D01*
X146934277Y-83439205D01*
X147000990Y-83278145D01*
X147035000Y-83107165D01*
X147035000Y-82932835D01*
X147000990Y-82761855D01*
X146934277Y-82600795D01*
X146837424Y-82455845D01*
X146714155Y-82332576D01*
X146569205Y-82235723D01*
X146408145Y-82169010D01*
X146365286Y-82160485D01*
X146093804Y-81889003D01*
X146070002Y-81860000D01*
X145954277Y-81765027D01*
X145822248Y-81694455D01*
X145678987Y-81650998D01*
X145567334Y-81640001D01*
X145567323Y-81640001D01*
X145530001Y-81636325D01*
X145492679Y-81640001D01*
X137137322Y-81640001D01*
X137099999Y-81636325D01*
X137062676Y-81640001D01*
X137062666Y-81640001D01*
X136951013Y-81650998D01*
X136807752Y-81694455D01*
X136675723Y-81765027D01*
X136647898Y-81787862D01*
X136591855Y-81799010D01*
X136430795Y-81865723D01*
X136285845Y-81962576D01*
X136162576Y-82085845D01*
X136077618Y-82212992D01*
X135987165Y-82195000D01*
X135812835Y-82195000D01*
X135641855Y-82229010D01*
X135480795Y-82295723D01*
X135335845Y-82392576D01*
X135212576Y-82515845D01*
X135115723Y-82660795D01*
X135049010Y-82821855D01*
X135015000Y-82992835D01*
X119860000Y-82992835D01*
X119860000Y-79912835D01*
X124920765Y-79912835D01*
X124920765Y-80087165D01*
X124954775Y-80258145D01*
X125021488Y-80419205D01*
X125118341Y-80564155D01*
X125241610Y-80687424D01*
X125386560Y-80784277D01*
X125547620Y-80850990D01*
X125718600Y-80885000D01*
X125892930Y-80885000D01*
X126063910Y-80850990D01*
X126224970Y-80784277D01*
X126369920Y-80687424D01*
X126493189Y-80564155D01*
X126590042Y-80419205D01*
X126656755Y-80258145D01*
X126690765Y-80087165D01*
X126690765Y-79985000D01*
X126787165Y-79985000D01*
X126958145Y-79950990D01*
X127119205Y-79884277D01*
X127264155Y-79787424D01*
X127387424Y-79664155D01*
X127484277Y-79519205D01*
X127550990Y-79358145D01*
X127585000Y-79187165D01*
X127585000Y-79012835D01*
X127550990Y-78841855D01*
X127484277Y-78680795D01*
X127387424Y-78535845D01*
X127264155Y-78412576D01*
X127119205Y-78315723D01*
X126958145Y-78249010D01*
X126787165Y-78215000D01*
X126612835Y-78215000D01*
X126441855Y-78249010D01*
X126280795Y-78315723D01*
X126135845Y-78412576D01*
X126012576Y-78535845D01*
X125915723Y-78680795D01*
X125849010Y-78841855D01*
X125815000Y-79012835D01*
X125815000Y-79115000D01*
X125718600Y-79115000D01*
X125547620Y-79149010D01*
X125386560Y-79215723D01*
X125241610Y-79312576D01*
X125118341Y-79435845D01*
X125021488Y-79580795D01*
X124954775Y-79741855D01*
X124920765Y-79912835D01*
X119860000Y-79912835D01*
X119860000Y-74814801D01*
X119947757Y-74727044D01*
X119982576Y-74779155D01*
X120105845Y-74902424D01*
X120250795Y-74999277D01*
X120411855Y-75065990D01*
X120582835Y-75100000D01*
X120757165Y-75100000D01*
X120928145Y-75065990D01*
X121089205Y-74999277D01*
X121234155Y-74902424D01*
X121357424Y-74779155D01*
X121454277Y-74634205D01*
X121520990Y-74473145D01*
X121529515Y-74430286D01*
X121832801Y-74127000D01*
X124917041Y-74127000D01*
X124936560Y-74140042D01*
X125097620Y-74206755D01*
X125268600Y-74240765D01*
X125442930Y-74240765D01*
X125613910Y-74206755D01*
X125774970Y-74140042D01*
X125794489Y-74127000D01*
X128808711Y-74127000D01*
X128795765Y-74139946D01*
X128806246Y-74239009D01*
X128820210Y-74283418D01*
X128804953Y-74333714D01*
X128792693Y-74458196D01*
X128792693Y-74808196D01*
X128804953Y-74932678D01*
X128820277Y-74983196D01*
X128804953Y-75033714D01*
X128792693Y-75158196D01*
X128792693Y-75508196D01*
X128804953Y-75632678D01*
X128820277Y-75683196D01*
X128804953Y-75733714D01*
X128792693Y-75858196D01*
X128792693Y-76208196D01*
X128804953Y-76332678D01*
X128820277Y-76383196D01*
X128804953Y-76433714D01*
X128792693Y-76558196D01*
X128792693Y-76908196D01*
X128804953Y-77032678D01*
X128820277Y-77083196D01*
X128804953Y-77133714D01*
X128792693Y-77258196D01*
X128792693Y-77608196D01*
X128804953Y-77732678D01*
X128820210Y-77782974D01*
X128806246Y-77827383D01*
X128795765Y-77926446D01*
X128954515Y-78085196D01*
X129011036Y-78085196D01*
X129069929Y-78133528D01*
X129010630Y-78181196D01*
X128954515Y-78181196D01*
X128795765Y-78339946D01*
X128806246Y-78439009D01*
X128820140Y-78483196D01*
X128806246Y-78527383D01*
X128795765Y-78626446D01*
X128954515Y-78785196D01*
X129010630Y-78785196D01*
X129069929Y-78832864D01*
X129011036Y-78881196D01*
X128954515Y-78881196D01*
X128795765Y-79039946D01*
X128806246Y-79139009D01*
X128820210Y-79183418D01*
X128804953Y-79233714D01*
X128793678Y-79348196D01*
X128643599Y-79348196D01*
X128472619Y-79382206D01*
X128311559Y-79448919D01*
X128166609Y-79545772D01*
X128043340Y-79669041D01*
X127946487Y-79813991D01*
X127879774Y-79975051D01*
X127845764Y-80146031D01*
X127845764Y-80320361D01*
X127879774Y-80491341D01*
X127946487Y-80652401D01*
X128043340Y-80797351D01*
X128054186Y-80808197D01*
X128043341Y-80819041D01*
X127946488Y-80963991D01*
X127879775Y-81125051D01*
X127845765Y-81296031D01*
X127845765Y-81470361D01*
X127879775Y-81641341D01*
X127946488Y-81802401D01*
X128043341Y-81947351D01*
X128166610Y-82070620D01*
X128311560Y-82167473D01*
X128472620Y-82234186D01*
X128643600Y-82268196D01*
X128817930Y-82268196D01*
X128963492Y-82239242D01*
X128984172Y-82263927D01*
X129081662Y-82342296D01*
X129192568Y-82400140D01*
X129312627Y-82435236D01*
X129437227Y-82446235D01*
X130395015Y-82443196D01*
X130553765Y-82284446D01*
X130553765Y-81746268D01*
X130807765Y-81746268D01*
X130807765Y-82284446D01*
X130966515Y-82443196D01*
X131924303Y-82446235D01*
X132048903Y-82435236D01*
X132168962Y-82400140D01*
X132279868Y-82342296D01*
X132377358Y-82263927D01*
X132457685Y-82168044D01*
X132517764Y-82058333D01*
X132555284Y-81939009D01*
X132565765Y-81839946D01*
X132407015Y-81681196D01*
X132205818Y-81681196D01*
X132285259Y-81638733D01*
X132350494Y-81585196D01*
X132407015Y-81585196D01*
X132565765Y-81426446D01*
X132555284Y-81327383D01*
X132541320Y-81282974D01*
X132556577Y-81232678D01*
X132568837Y-81108196D01*
X132568837Y-80758196D01*
X132556577Y-80633714D01*
X132541253Y-80583196D01*
X132556577Y-80532678D01*
X132561273Y-80485000D01*
X132687165Y-80485000D01*
X132858145Y-80450990D01*
X133019205Y-80384277D01*
X133164155Y-80287424D01*
X133287424Y-80164155D01*
X133384277Y-80019205D01*
X133450990Y-79858145D01*
X133485000Y-79687165D01*
X133485000Y-79512835D01*
X133450990Y-79341855D01*
X133384277Y-79180795D01*
X133287424Y-79035845D01*
X133164155Y-78912576D01*
X133019205Y-78815723D01*
X132858145Y-78749010D01*
X132687165Y-78715000D01*
X132565765Y-78715000D01*
X132565765Y-78706194D01*
X132486017Y-78706194D01*
X132565765Y-78626446D01*
X132555284Y-78527383D01*
X132541390Y-78483196D01*
X132555284Y-78439009D01*
X132565765Y-78339946D01*
X132486017Y-78260198D01*
X132565765Y-78260198D01*
X132565765Y-78193196D01*
X132619245Y-78193196D01*
X132650795Y-78214277D01*
X132811855Y-78280990D01*
X132982835Y-78315000D01*
X133157165Y-78315000D01*
X133328145Y-78280990D01*
X133489205Y-78214277D01*
X133634155Y-78117424D01*
X133757424Y-77994155D01*
X133854277Y-77849205D01*
X133920990Y-77688145D01*
X133955000Y-77517165D01*
X133955000Y-77493196D01*
X135484211Y-77493196D01*
X135500795Y-77504277D01*
X135661855Y-77570990D01*
X135832835Y-77605000D01*
X136007165Y-77605000D01*
X136178145Y-77570990D01*
X136339205Y-77504277D01*
X136484155Y-77407424D01*
X136607424Y-77284155D01*
X136704277Y-77139205D01*
X136770990Y-76978145D01*
X136779696Y-76934376D01*
X136782835Y-76935000D01*
X136957165Y-76935000D01*
X137128145Y-76900990D01*
X137289205Y-76834277D01*
X137434155Y-76737424D01*
X137557424Y-76614155D01*
X137654277Y-76469205D01*
X137720990Y-76308145D01*
X137755000Y-76137165D01*
X137755000Y-76093196D01*
X152068394Y-76093196D01*
X152520000Y-76544803D01*
X152520001Y-82554461D01*
X152495723Y-82590795D01*
X152429010Y-82751855D01*
X152395000Y-82922835D01*
X152395000Y-83097165D01*
X152429010Y-83268145D01*
X152495723Y-83429205D01*
X152592576Y-83574155D01*
X152715845Y-83697424D01*
X152860795Y-83794277D01*
X153021855Y-83860990D01*
X153192835Y-83895000D01*
X153367165Y-83895000D01*
X153538145Y-83860990D01*
X153699205Y-83794277D01*
X153844155Y-83697424D01*
X153967424Y-83574155D01*
X154064277Y-83429205D01*
X154130990Y-83268145D01*
X154165000Y-83097165D01*
X154165000Y-82922835D01*
X154130990Y-82751855D01*
X154064277Y-82590795D01*
X154040000Y-82554462D01*
X154040000Y-76267322D01*
X154043676Y-76229999D01*
X154040000Y-76192676D01*
X154040000Y-76192667D01*
X154029003Y-76081014D01*
X153985546Y-75937753D01*
X153914974Y-75805724D01*
X153875375Y-75757472D01*
X153843799Y-75718996D01*
X153843795Y-75718992D01*
X153820001Y-75689999D01*
X153791009Y-75666206D01*
X152946999Y-74822198D01*
X152923197Y-74793195D01*
X152807472Y-74698222D01*
X152675443Y-74627650D01*
X152532182Y-74584193D01*
X152420529Y-74573196D01*
X152420518Y-74573196D01*
X152383196Y-74569520D01*
X152345874Y-74573196D01*
X145901605Y-74573196D01*
X146347802Y-74127000D01*
X154315001Y-74127000D01*
X154315001Y-89372959D01*
X154289205Y-89355723D01*
X154128145Y-89289010D01*
X153957165Y-89255000D01*
X153782835Y-89255000D01*
X153611855Y-89289010D01*
X153450795Y-89355723D01*
X153414462Y-89380000D01*
X148365161Y-89380000D01*
X148425990Y-89233145D01*
X148460000Y-89062165D01*
X148460000Y-88887835D01*
X148425990Y-88716855D01*
X148359277Y-88555795D01*
X148262424Y-88410845D01*
X148139155Y-88287576D01*
X147994205Y-88190723D01*
X147833145Y-88124010D01*
X147662165Y-88090000D01*
X147487835Y-88090000D01*
X147316855Y-88124010D01*
X147155795Y-88190723D01*
X147010845Y-88287576D01*
X146887576Y-88410845D01*
X146790723Y-88555795D01*
X146724010Y-88716855D01*
X146690000Y-88887835D01*
X146690000Y-89062165D01*
X146724010Y-89233145D01*
X146784839Y-89380000D01*
X146433746Y-89380000D01*
X146434279Y-89379203D01*
X146500992Y-89218143D01*
X146535002Y-89047163D01*
X146535002Y-88872833D01*
X146500992Y-88701853D01*
X146434279Y-88540793D01*
X146337426Y-88395843D01*
X146214157Y-88272574D01*
X146069207Y-88175721D01*
X145908147Y-88109008D01*
X145737167Y-88074998D01*
X145562837Y-88074998D01*
X145391857Y-88109008D01*
X145230797Y-88175721D01*
X145194464Y-88199998D01*
X140555538Y-88199998D01*
X140519205Y-88175721D01*
X140358145Y-88109008D01*
X140187165Y-88074998D01*
X140012835Y-88074998D01*
X139867380Y-88103931D01*
X139875990Y-88083145D01*
X139880029Y-88062835D01*
X152415000Y-88062835D01*
X152415000Y-88237165D01*
X152449010Y-88408145D01*
X152515723Y-88569205D01*
X152612576Y-88714155D01*
X152735845Y-88837424D01*
X152880795Y-88934277D01*
X153041855Y-89000990D01*
X153212835Y-89035000D01*
X153387165Y-89035000D01*
X153558145Y-89000990D01*
X153719205Y-88934277D01*
X153864155Y-88837424D01*
X153987424Y-88714155D01*
X154084277Y-88569205D01*
X154150990Y-88408145D01*
X154185000Y-88237165D01*
X154185000Y-88062835D01*
X154150990Y-87891855D01*
X154084277Y-87730795D01*
X153987424Y-87585845D01*
X153864155Y-87462576D01*
X153719205Y-87365723D01*
X153558145Y-87299010D01*
X153387165Y-87265000D01*
X153212835Y-87265000D01*
X153041855Y-87299010D01*
X152880795Y-87365723D01*
X152735845Y-87462576D01*
X152612576Y-87585845D01*
X152515723Y-87730795D01*
X152449010Y-87891855D01*
X152415000Y-88062835D01*
X139880029Y-88062835D01*
X139910000Y-87912165D01*
X139910000Y-87737835D01*
X139875990Y-87566855D01*
X139809277Y-87405795D01*
X139712424Y-87260845D01*
X139589155Y-87137576D01*
X139444205Y-87040723D01*
X139283145Y-86974010D01*
X139112165Y-86940000D01*
X138937835Y-86940000D01*
X138766855Y-86974010D01*
X138605795Y-87040723D01*
X138460845Y-87137576D01*
X138337576Y-87260845D01*
X138240723Y-87405795D01*
X138174010Y-87566855D01*
X138140000Y-87737835D01*
X138140000Y-87912165D01*
X138174010Y-88083145D01*
X138240723Y-88244205D01*
X138337576Y-88389155D01*
X138460845Y-88512424D01*
X138605795Y-88609277D01*
X138766855Y-88675990D01*
X138937835Y-88710000D01*
X139112165Y-88710000D01*
X139257620Y-88681067D01*
X139249010Y-88701853D01*
X139215000Y-88872833D01*
X139215000Y-89047163D01*
X139249010Y-89218143D01*
X139315723Y-89379203D01*
X139412520Y-89524069D01*
X139352083Y-89573668D01*
X139319999Y-89599999D01*
X139296201Y-89628997D01*
X138610198Y-90315001D01*
X138323633Y-90315001D01*
X138277424Y-90245845D01*
X138154155Y-90122576D01*
X138009205Y-90025723D01*
X137848145Y-89959010D01*
X137677165Y-89925000D01*
X137502835Y-89925000D01*
X137331855Y-89959010D01*
X137170795Y-90025723D01*
X137025845Y-90122576D01*
X136902576Y-90245845D01*
X136805723Y-90390795D01*
X136739010Y-90551855D01*
X136705000Y-90722835D01*
X136705000Y-90897165D01*
X136739010Y-91068145D01*
X136805723Y-91229205D01*
X136902576Y-91374155D01*
X137025845Y-91497424D01*
X137170795Y-91594277D01*
X137331855Y-91660990D01*
X137383571Y-91671277D01*
X137430725Y-91709975D01*
X137562754Y-91780547D01*
X137706015Y-91824004D01*
X137817668Y-91835001D01*
X137817678Y-91835001D01*
X137855000Y-91838677D01*
X137892323Y-91835001D01*
X138887677Y-91835001D01*
X138924999Y-91838677D01*
X138962321Y-91835001D01*
X138962332Y-91835001D01*
X139073985Y-91824004D01*
X139217246Y-91780547D01*
X139349275Y-91709975D01*
X139465000Y-91615002D01*
X139488803Y-91585999D01*
X140174802Y-90900000D01*
X143485000Y-90900000D01*
X143485000Y-90927165D01*
X143519010Y-91098145D01*
X143585723Y-91259205D01*
X143682576Y-91404155D01*
X143805845Y-91527424D01*
X143950795Y-91624277D01*
X144111855Y-91690990D01*
X144282835Y-91725000D01*
X144304461Y-91725000D01*
X144319010Y-91798145D01*
X144385723Y-91959205D01*
X144482576Y-92104155D01*
X144605845Y-92227424D01*
X144750795Y-92324277D01*
X144911855Y-92390990D01*
X145082835Y-92425000D01*
X145257165Y-92425000D01*
X145428145Y-92390990D01*
X145589205Y-92324277D01*
X145625538Y-92300000D01*
X150107688Y-92300000D01*
X150145010Y-92303676D01*
X150182332Y-92300000D01*
X150182343Y-92300000D01*
X150182638Y-92299971D01*
X150182835Y-92300010D01*
X150357165Y-92300010D01*
X150528145Y-92266000D01*
X150689205Y-92199287D01*
X150834155Y-92102434D01*
X150957424Y-91979165D01*
X151054277Y-91834215D01*
X151120990Y-91673155D01*
X151124299Y-91656517D01*
X151146835Y-91661000D01*
X151321165Y-91661000D01*
X151492145Y-91626990D01*
X151653205Y-91560277D01*
X151798155Y-91463424D01*
X151921424Y-91340155D01*
X152018277Y-91195205D01*
X152084990Y-91034145D01*
X152111673Y-90900000D01*
X153414462Y-90900000D01*
X153450795Y-90924277D01*
X153611855Y-90990990D01*
X153782835Y-91025000D01*
X153957165Y-91025000D01*
X154128145Y-90990990D01*
X154289205Y-90924277D01*
X154315001Y-90907041D01*
X154315001Y-103569588D01*
X154252080Y-103492919D01*
X154041187Y-103319843D01*
X153800580Y-103191236D01*
X153539506Y-103112040D01*
X153469701Y-103105165D01*
X153511824Y-103042124D01*
X153597383Y-102835567D01*
X153641000Y-102616288D01*
X153641000Y-102392712D01*
X153597383Y-102173433D01*
X153511824Y-101966876D01*
X153387612Y-101780980D01*
X153229520Y-101622888D01*
X153043624Y-101498676D01*
X152837067Y-101413117D01*
X152617788Y-101369500D01*
X152394212Y-101369500D01*
X152174933Y-101413117D01*
X151968376Y-101498676D01*
X151782480Y-101622888D01*
X151624388Y-101780980D01*
X151500176Y-101966876D01*
X151414617Y-102173433D01*
X151371000Y-102392712D01*
X151371000Y-102616288D01*
X151414617Y-102835567D01*
X151500176Y-103042124D01*
X151624388Y-103228020D01*
X151782480Y-103386112D01*
X151968376Y-103510324D01*
X152174933Y-103595883D01*
X152195983Y-103600070D01*
X152110843Y-103703813D01*
X151982236Y-103944420D01*
X151903040Y-104205494D01*
X151883000Y-104408964D01*
X151883000Y-105045037D01*
X151903040Y-105248507D01*
X151982236Y-105509581D01*
X152110843Y-105750188D01*
X152283920Y-105961081D01*
X152494813Y-106134157D01*
X152735420Y-106262764D01*
X152907619Y-106315000D01*
X147532382Y-106315000D01*
X147704581Y-106262764D01*
X147945188Y-106134157D01*
X148156081Y-105961081D01*
X148329157Y-105750188D01*
X148457764Y-105509580D01*
X148536960Y-105248506D01*
X148557000Y-105045036D01*
X148557000Y-104408963D01*
X148536960Y-104205493D01*
X148457764Y-103944419D01*
X148329157Y-103703812D01*
X148244017Y-103600070D01*
X148265067Y-103595883D01*
X148471624Y-103510324D01*
X148657520Y-103386112D01*
X148815612Y-103228020D01*
X148939824Y-103042124D01*
X149025383Y-102835567D01*
X149069000Y-102616288D01*
X149069000Y-102392712D01*
X149025383Y-102173433D01*
X148939824Y-101966876D01*
X148815612Y-101780980D01*
X148657520Y-101622888D01*
X148471624Y-101498676D01*
X148265067Y-101413117D01*
X148045788Y-101369500D01*
X147822212Y-101369500D01*
X147602933Y-101413117D01*
X147396376Y-101498676D01*
X147210480Y-101622888D01*
X147052388Y-101780980D01*
X146928176Y-101966876D01*
X146842617Y-102173433D01*
X146799000Y-102392712D01*
X146799000Y-102616288D01*
X146842617Y-102835567D01*
X146928176Y-103042124D01*
X146970299Y-103105165D01*
X146900493Y-103112040D01*
X146639419Y-103191236D01*
X146398812Y-103319843D01*
X146187919Y-103492920D01*
X146014843Y-103703813D01*
X145886236Y-103944420D01*
X145807040Y-104205494D01*
X145787000Y-104408964D01*
X145787000Y-105045037D01*
X145807040Y-105248507D01*
X145886236Y-105509581D01*
X146014843Y-105750188D01*
X146187920Y-105961081D01*
X146398813Y-106134157D01*
X146639420Y-106262764D01*
X146811619Y-106315000D01*
X115685000Y-106315000D01*
X115685000Y-104762835D01*
X135640000Y-104762835D01*
X135640000Y-104937165D01*
X135674010Y-105108145D01*
X135740723Y-105269205D01*
X135837576Y-105414155D01*
X135960845Y-105537424D01*
X136105795Y-105634277D01*
X136266855Y-105700990D01*
X136437835Y-105735000D01*
X136612165Y-105735000D01*
X136783145Y-105700990D01*
X136944205Y-105634277D01*
X137089155Y-105537424D01*
X137212424Y-105414155D01*
X137309277Y-105269205D01*
X137375990Y-105108145D01*
X137410000Y-104937165D01*
X137410000Y-104762835D01*
X137375990Y-104591855D01*
X137309277Y-104430795D01*
X137212424Y-104285845D01*
X137089155Y-104162576D01*
X136944205Y-104065723D01*
X136783145Y-103999010D01*
X136612165Y-103965000D01*
X136437835Y-103965000D01*
X136266855Y-103999010D01*
X136105795Y-104065723D01*
X135960845Y-104162576D01*
X135837576Y-104285845D01*
X135740723Y-104430795D01*
X135674010Y-104591855D01*
X135640000Y-104762835D01*
X115685000Y-104762835D01*
X115685000Y-102792835D01*
X139395000Y-102792835D01*
X139395000Y-102967165D01*
X139429010Y-103138145D01*
X139495723Y-103299205D01*
X139592576Y-103444155D01*
X139715845Y-103567424D01*
X139860795Y-103664277D01*
X140021855Y-103730990D01*
X140192835Y-103765000D01*
X140367165Y-103765000D01*
X140538145Y-103730990D01*
X140699205Y-103664277D01*
X140844155Y-103567424D01*
X140967424Y-103444155D01*
X141064277Y-103299205D01*
X141130990Y-103138145D01*
X141165000Y-102967165D01*
X141165000Y-102792835D01*
X141130990Y-102621855D01*
X141064277Y-102460795D01*
X140967424Y-102315845D01*
X140844155Y-102192576D01*
X140699205Y-102095723D01*
X140538145Y-102029010D01*
X140367165Y-101995000D01*
X140192835Y-101995000D01*
X140021855Y-102029010D01*
X139860795Y-102095723D01*
X139715845Y-102192576D01*
X139592576Y-102315845D01*
X139495723Y-102460795D01*
X139429010Y-102621855D01*
X139395000Y-102792835D01*
X115685000Y-102792835D01*
X115685000Y-100627835D01*
X117400000Y-100627835D01*
X117400000Y-100802165D01*
X117434010Y-100973145D01*
X117500723Y-101134205D01*
X117597576Y-101279155D01*
X117720845Y-101402424D01*
X117865795Y-101499277D01*
X118026855Y-101565990D01*
X118197835Y-101600000D01*
X118372165Y-101600000D01*
X118543145Y-101565990D01*
X118704205Y-101499277D01*
X118849155Y-101402424D01*
X118972424Y-101279155D01*
X119069277Y-101134205D01*
X119135990Y-100973145D01*
X119170000Y-100802165D01*
X119170000Y-100627835D01*
X119135990Y-100456855D01*
X119069277Y-100295795D01*
X118972424Y-100150845D01*
X118849155Y-100027576D01*
X118704205Y-99930723D01*
X118543145Y-99864010D01*
X118372165Y-99830000D01*
X118197835Y-99830000D01*
X118026855Y-99864010D01*
X117865795Y-99930723D01*
X117720845Y-100027576D01*
X117597576Y-100150845D01*
X117500723Y-100295795D01*
X117434010Y-100456855D01*
X117400000Y-100627835D01*
X115685000Y-100627835D01*
X115685000Y-95226891D01*
X116168519Y-95226891D01*
X116265843Y-95501252D01*
X116414822Y-95751355D01*
X116609731Y-95967588D01*
X116843080Y-96141641D01*
X117105901Y-96266825D01*
X117253110Y-96311476D01*
X117483000Y-96190155D01*
X117483000Y-94997000D01*
X116289186Y-94997000D01*
X116168519Y-95226891D01*
X115685000Y-95226891D01*
X115685000Y-94513109D01*
X116168519Y-94513109D01*
X116289186Y-94743000D01*
X117483000Y-94743000D01*
X117483000Y-93549845D01*
X117737000Y-93549845D01*
X117737000Y-94743000D01*
X117757000Y-94743000D01*
X117757000Y-94997000D01*
X117737000Y-94997000D01*
X117737000Y-96190155D01*
X117966890Y-96311476D01*
X118114099Y-96266825D01*
X118376920Y-96141641D01*
X118610269Y-95967588D01*
X118686034Y-95883534D01*
X118710498Y-95964180D01*
X118769463Y-96074494D01*
X118848815Y-96171185D01*
X118945506Y-96250537D01*
X119055820Y-96309502D01*
X119175518Y-96345812D01*
X119300000Y-96358072D01*
X121000000Y-96358072D01*
X121124482Y-96345812D01*
X121244180Y-96309502D01*
X121354494Y-96250537D01*
X121451185Y-96171185D01*
X121530537Y-96074494D01*
X121589502Y-95964180D01*
X121625812Y-95844482D01*
X121638072Y-95720000D01*
X121638072Y-95705000D01*
X123284133Y-95705000D01*
X124974133Y-97395000D01*
X122303465Y-97395000D01*
X122259999Y-97390719D01*
X122216533Y-97395000D01*
X122216523Y-97395000D01*
X122086510Y-97407805D01*
X121919687Y-97458411D01*
X121832468Y-97505030D01*
X121830795Y-97505723D01*
X121829290Y-97506729D01*
X121765941Y-97540589D01*
X121710413Y-97586160D01*
X121685845Y-97602576D01*
X121664951Y-97623470D01*
X121631183Y-97651183D01*
X121603470Y-97684951D01*
X121562576Y-97725845D01*
X121538300Y-97762176D01*
X121510590Y-97795941D01*
X121490001Y-97834460D01*
X121465723Y-97870795D01*
X121448998Y-97911173D01*
X121428412Y-97949687D01*
X121415734Y-97991480D01*
X121399010Y-98031855D01*
X121390486Y-98074707D01*
X121377805Y-98116510D01*
X121373523Y-98159985D01*
X121365000Y-98202835D01*
X121365000Y-98246531D01*
X121360719Y-98290000D01*
X121365000Y-98333469D01*
X121365000Y-98377165D01*
X121373523Y-98420015D01*
X121377805Y-98463490D01*
X121390486Y-98505293D01*
X121399010Y-98548145D01*
X121415734Y-98588520D01*
X121428412Y-98630313D01*
X121448998Y-98668827D01*
X121465723Y-98709205D01*
X121490001Y-98745540D01*
X121510590Y-98784059D01*
X121538301Y-98817824D01*
X121562576Y-98854155D01*
X121593472Y-98885051D01*
X121621183Y-98918817D01*
X121654949Y-98946528D01*
X121685845Y-98977424D01*
X121722176Y-99001699D01*
X121755941Y-99029410D01*
X121794460Y-99049999D01*
X121830795Y-99074277D01*
X121871173Y-99091002D01*
X121909687Y-99111588D01*
X121951480Y-99124266D01*
X121991855Y-99140990D01*
X122034707Y-99149514D01*
X122076510Y-99162195D01*
X122119985Y-99166477D01*
X122162835Y-99175000D01*
X122206531Y-99175000D01*
X122250000Y-99179281D01*
X122293469Y-99175000D01*
X122337165Y-99175000D01*
X122380015Y-99166477D01*
X122395008Y-99165000D01*
X125647165Y-99165000D01*
X125690013Y-99156477D01*
X125733490Y-99152195D01*
X125775295Y-99139513D01*
X125818145Y-99130990D01*
X125858513Y-99114269D01*
X125900313Y-99101589D01*
X125938835Y-99080999D01*
X125979205Y-99064277D01*
X126015533Y-99040004D01*
X126054059Y-99019411D01*
X126087829Y-98991696D01*
X126124155Y-98967424D01*
X126155049Y-98936530D01*
X126188817Y-98908817D01*
X126216530Y-98875049D01*
X126247424Y-98844155D01*
X126271696Y-98807829D01*
X126299411Y-98774059D01*
X126318144Y-98739012D01*
X129259733Y-101680601D01*
X129275723Y-101719205D01*
X129372576Y-101864155D01*
X129495845Y-101987424D01*
X129640795Y-102084277D01*
X129801855Y-102150990D01*
X129972835Y-102185000D01*
X130147165Y-102185000D01*
X130318145Y-102150990D01*
X130479205Y-102084277D01*
X130624155Y-101987424D01*
X130747424Y-101864155D01*
X130844277Y-101719205D01*
X130910990Y-101558145D01*
X130945000Y-101387165D01*
X130945000Y-101212835D01*
X130910990Y-101041855D01*
X130844277Y-100880795D01*
X130747424Y-100735845D01*
X130624155Y-100612576D01*
X130479205Y-100515723D01*
X130440601Y-100499733D01*
X129713703Y-99772835D01*
X136885000Y-99772835D01*
X136885000Y-99947165D01*
X136919010Y-100118145D01*
X136985723Y-100279205D01*
X137082576Y-100424155D01*
X137205845Y-100547424D01*
X137350795Y-100644277D01*
X137511855Y-100710990D01*
X137682835Y-100745000D01*
X137857165Y-100745000D01*
X138028145Y-100710990D01*
X138189205Y-100644277D01*
X138334155Y-100547424D01*
X138457424Y-100424155D01*
X138554277Y-100279205D01*
X138620990Y-100118145D01*
X138655000Y-99947165D01*
X138655000Y-99772835D01*
X138620990Y-99601855D01*
X138554277Y-99440795D01*
X138457424Y-99295845D01*
X138334155Y-99172576D01*
X138189205Y-99075723D01*
X138028145Y-99009010D01*
X137857165Y-98975000D01*
X137682835Y-98975000D01*
X137511855Y-99009010D01*
X137350795Y-99075723D01*
X137205845Y-99172576D01*
X137082576Y-99295845D01*
X136985723Y-99440795D01*
X136919010Y-99601855D01*
X136885000Y-99772835D01*
X129713703Y-99772835D01*
X126153703Y-96212835D01*
X148115000Y-96212835D01*
X148115000Y-96387165D01*
X148149010Y-96558145D01*
X148215723Y-96719205D01*
X148312576Y-96864155D01*
X148435845Y-96987424D01*
X148580795Y-97084277D01*
X148741855Y-97150990D01*
X148912835Y-97185000D01*
X149087165Y-97185000D01*
X149258145Y-97150990D01*
X149419205Y-97084277D01*
X149564155Y-96987424D01*
X149687424Y-96864155D01*
X149784277Y-96719205D01*
X149850990Y-96558145D01*
X149885000Y-96387165D01*
X149885000Y-96212835D01*
X149850990Y-96041855D01*
X149784277Y-95880795D01*
X149687424Y-95735845D01*
X149564155Y-95612576D01*
X149419205Y-95515723D01*
X149258145Y-95449010D01*
X149087165Y-95415000D01*
X148912835Y-95415000D01*
X148741855Y-95449010D01*
X148580795Y-95515723D01*
X148435845Y-95612576D01*
X148312576Y-95735845D01*
X148215723Y-95880795D01*
X148149010Y-96041855D01*
X148115000Y-96212835D01*
X126153703Y-96212835D01*
X124353703Y-94412835D01*
X129115000Y-94412835D01*
X129115000Y-94587165D01*
X129149010Y-94758145D01*
X129215723Y-94919205D01*
X129312576Y-95064155D01*
X129435845Y-95187424D01*
X129580795Y-95284277D01*
X129741855Y-95350990D01*
X129912835Y-95385000D01*
X130087165Y-95385000D01*
X130258145Y-95350990D01*
X130419205Y-95284277D01*
X130564155Y-95187424D01*
X130687424Y-95064155D01*
X130784277Y-94919205D01*
X130850990Y-94758145D01*
X130860002Y-94712835D01*
X144915000Y-94712835D01*
X144915000Y-94887165D01*
X144949010Y-95058145D01*
X145015723Y-95219205D01*
X145112576Y-95364155D01*
X145235845Y-95487424D01*
X145380795Y-95584277D01*
X145541855Y-95650990D01*
X145712835Y-95685000D01*
X145887165Y-95685000D01*
X146058145Y-95650990D01*
X146219205Y-95584277D01*
X146364155Y-95487424D01*
X146487424Y-95364155D01*
X146584277Y-95219205D01*
X146650990Y-95058145D01*
X146685000Y-94887165D01*
X146685000Y-94712835D01*
X146650990Y-94541855D01*
X146584277Y-94380795D01*
X146487424Y-94235845D01*
X146364155Y-94112576D01*
X146219205Y-94015723D01*
X146058145Y-93949010D01*
X145887165Y-93915000D01*
X145712835Y-93915000D01*
X145541855Y-93949010D01*
X145380795Y-94015723D01*
X145235845Y-94112576D01*
X145112576Y-94235845D01*
X145015723Y-94380795D01*
X144949010Y-94541855D01*
X144915000Y-94712835D01*
X130860002Y-94712835D01*
X130885000Y-94587165D01*
X130885000Y-94412835D01*
X130850990Y-94241855D01*
X130784277Y-94080795D01*
X130687424Y-93935845D01*
X130564155Y-93812576D01*
X130419205Y-93715723D01*
X130258145Y-93649010D01*
X130087165Y-93615000D01*
X129912835Y-93615000D01*
X129741855Y-93649010D01*
X129580795Y-93715723D01*
X129435845Y-93812576D01*
X129312576Y-93935845D01*
X129215723Y-94080795D01*
X129149010Y-94241855D01*
X129115000Y-94412835D01*
X124353703Y-94412835D01*
X124249446Y-94308579D01*
X124223291Y-94276709D01*
X124096146Y-94172364D01*
X123951087Y-94094828D01*
X123793689Y-94047082D01*
X123671019Y-94035000D01*
X123671018Y-94035000D01*
X123630000Y-94030960D01*
X123588982Y-94035000D01*
X121638072Y-94035000D01*
X121638072Y-94020000D01*
X121625812Y-93895518D01*
X121589502Y-93775820D01*
X121530537Y-93665506D01*
X121451185Y-93568815D01*
X121354494Y-93489463D01*
X121244180Y-93430498D01*
X121124482Y-93394188D01*
X121000000Y-93381928D01*
X119300000Y-93381928D01*
X119175518Y-93394188D01*
X119055820Y-93430498D01*
X118945506Y-93489463D01*
X118848815Y-93568815D01*
X118769463Y-93665506D01*
X118710498Y-93775820D01*
X118686034Y-93856466D01*
X118610269Y-93772412D01*
X118376920Y-93598359D01*
X118114099Y-93473175D01*
X117966890Y-93428524D01*
X117737000Y-93549845D01*
X117483000Y-93549845D01*
X117253110Y-93428524D01*
X117105901Y-93473175D01*
X116843080Y-93598359D01*
X116609731Y-93772412D01*
X116414822Y-93988645D01*
X116265843Y-94238748D01*
X116168519Y-94513109D01*
X115685000Y-94513109D01*
X115685000Y-74127000D01*
X118437618Y-74127000D01*
X118394454Y-74207754D01*
G04 #@! TA.AperFunction,Conductor*
D20*
G36*
X118394454Y-74207754D02*
G01*
X118384441Y-74240765D01*
X118350998Y-74351014D01*
X118348582Y-74375546D01*
X118336324Y-74500000D01*
X118340001Y-74537333D01*
X118340001Y-82680920D01*
X118306973Y-82653815D01*
X118144541Y-82566994D01*
X117968293Y-82513530D01*
X117830933Y-82500001D01*
X116815069Y-82500001D01*
X116677709Y-82513530D01*
X116501461Y-82566994D01*
X116339029Y-82653815D01*
X116196657Y-82770657D01*
X116079815Y-82913029D01*
X115992994Y-83075461D01*
X115939530Y-83251709D01*
X115921477Y-83435001D01*
X115939530Y-83618293D01*
X115992994Y-83794541D01*
X116079815Y-83956973D01*
X116196657Y-84099345D01*
X116339029Y-84216187D01*
X116501461Y-84303008D01*
X116677709Y-84356472D01*
X116815069Y-84370001D01*
X117830933Y-84370001D01*
X117968293Y-84356472D01*
X118144541Y-84303008D01*
X118306973Y-84216187D01*
X118340000Y-84189082D01*
X118340000Y-87760920D01*
X118306973Y-87733815D01*
X118144541Y-87646994D01*
X117968293Y-87593530D01*
X117830933Y-87580001D01*
X116815069Y-87580001D01*
X116677709Y-87593530D01*
X116501461Y-87646994D01*
X116339029Y-87733815D01*
X116196657Y-87850657D01*
X116079815Y-87993029D01*
X115992994Y-88155461D01*
X115939530Y-88331709D01*
X115921477Y-88515001D01*
X115939530Y-88698293D01*
X115992994Y-88874541D01*
X116079815Y-89036973D01*
X116196657Y-89179345D01*
X116339029Y-89296187D01*
X116501461Y-89383008D01*
X116677709Y-89436472D01*
X116815069Y-89450001D01*
X117830933Y-89450001D01*
X117968293Y-89436472D01*
X118144541Y-89383008D01*
X118306973Y-89296187D01*
X118340000Y-89269082D01*
X118340000Y-90844462D01*
X118315723Y-90880795D01*
X118249010Y-91041855D01*
X118215000Y-91212835D01*
X118215000Y-91387165D01*
X118249010Y-91558145D01*
X118315723Y-91719205D01*
X118412576Y-91864155D01*
X118535845Y-91987424D01*
X118680795Y-92084277D01*
X118841855Y-92150990D01*
X119012835Y-92185000D01*
X119187165Y-92185000D01*
X119358145Y-92150990D01*
X119519205Y-92084277D01*
X119664155Y-91987424D01*
X119787424Y-91864155D01*
X119884277Y-91719205D01*
X119950990Y-91558145D01*
X119985000Y-91387165D01*
X119985000Y-91212835D01*
X119950990Y-91041855D01*
X119884277Y-90880795D01*
X119860000Y-90844462D01*
X119860000Y-90412835D01*
X126615000Y-90412835D01*
X126615000Y-90587165D01*
X126649010Y-90758145D01*
X126715723Y-90919205D01*
X126812576Y-91064155D01*
X126935845Y-91187424D01*
X127080795Y-91284277D01*
X127241855Y-91350990D01*
X127412835Y-91385000D01*
X127587165Y-91385000D01*
X127758145Y-91350990D01*
X127919205Y-91284277D01*
X128064155Y-91187424D01*
X128187424Y-91064155D01*
X128284277Y-90919205D01*
X128350990Y-90758145D01*
X128385000Y-90587165D01*
X128385000Y-90412835D01*
X128350990Y-90241855D01*
X128304798Y-90130335D01*
X135032500Y-90130335D01*
X135032500Y-90304665D01*
X135066510Y-90475645D01*
X135133223Y-90636705D01*
X135230076Y-90781655D01*
X135353345Y-90904924D01*
X135498295Y-91001777D01*
X135659355Y-91068490D01*
X135830335Y-91102500D01*
X136004665Y-91102500D01*
X136175645Y-91068490D01*
X136336705Y-91001777D01*
X136481655Y-90904924D01*
X136604924Y-90781655D01*
X136701777Y-90636705D01*
X136768490Y-90475645D01*
X136802500Y-90304665D01*
X136802500Y-90130335D01*
X136768490Y-89959355D01*
X136701777Y-89798295D01*
X136604924Y-89653345D01*
X136481655Y-89530076D01*
X136336705Y-89433223D01*
X136175645Y-89366510D01*
X136004665Y-89332500D01*
X135830335Y-89332500D01*
X135659355Y-89366510D01*
X135498295Y-89433223D01*
X135353345Y-89530076D01*
X135230076Y-89653345D01*
X135133223Y-89798295D01*
X135066510Y-89959355D01*
X135032500Y-90130335D01*
X128304798Y-90130335D01*
X128284277Y-90080795D01*
X128187424Y-89935845D01*
X128064155Y-89812576D01*
X127919205Y-89715723D01*
X127758145Y-89649010D01*
X127587165Y-89615000D01*
X127412835Y-89615000D01*
X127241855Y-89649010D01*
X127080795Y-89715723D01*
X126935845Y-89812576D01*
X126812576Y-89935845D01*
X126715723Y-90080795D01*
X126649010Y-90241855D01*
X126615000Y-90412835D01*
X119860000Y-90412835D01*
X119860000Y-86375485D01*
X119983145Y-86350990D01*
X120144205Y-86284277D01*
X120289155Y-86187424D01*
X120412424Y-86064155D01*
X120509277Y-85919205D01*
X120575990Y-85758145D01*
X120610000Y-85587165D01*
X120610000Y-85412835D01*
X120575990Y-85241855D01*
X120522549Y-85112835D01*
X121664990Y-85112835D01*
X121664990Y-85287165D01*
X121699000Y-85458145D01*
X121765713Y-85619205D01*
X121862566Y-85764155D01*
X121985835Y-85887424D01*
X122130785Y-85984277D01*
X122291845Y-86050990D01*
X122462825Y-86085000D01*
X122637155Y-86085000D01*
X122808135Y-86050990D01*
X122969195Y-85984277D01*
X123005528Y-85960000D01*
X129915000Y-85960000D01*
X129915000Y-86037165D01*
X129949010Y-86208145D01*
X130015723Y-86369205D01*
X130112576Y-86514155D01*
X130235845Y-86637424D01*
X130380795Y-86734277D01*
X130541855Y-86800990D01*
X130712835Y-86835000D01*
X130887165Y-86835000D01*
X131058145Y-86800990D01*
X131219205Y-86734277D01*
X131364155Y-86637424D01*
X131487424Y-86514155D01*
X131584277Y-86369205D01*
X131650990Y-86208145D01*
X131685000Y-86037165D01*
X131685000Y-85960000D01*
X133890000Y-85960000D01*
X133890000Y-86087165D01*
X133924010Y-86258145D01*
X133990723Y-86419205D01*
X134087576Y-86564155D01*
X134210845Y-86687424D01*
X134355795Y-86784277D01*
X134516855Y-86850990D01*
X134687835Y-86885000D01*
X134862165Y-86885000D01*
X135033145Y-86850990D01*
X135194205Y-86784277D01*
X135339155Y-86687424D01*
X135462424Y-86564155D01*
X135559277Y-86419205D01*
X135625990Y-86258145D01*
X135660000Y-86087165D01*
X135660000Y-85960000D01*
X139885199Y-85960000D01*
X140240485Y-86315287D01*
X140249010Y-86358145D01*
X140315723Y-86519205D01*
X140412576Y-86664155D01*
X140535845Y-86787424D01*
X140680795Y-86884277D01*
X140841855Y-86950990D01*
X141012835Y-86985000D01*
X141187165Y-86985000D01*
X141358145Y-86950990D01*
X141519205Y-86884277D01*
X141664155Y-86787424D01*
X141787424Y-86664155D01*
X141884277Y-86519205D01*
X141950990Y-86358145D01*
X141985000Y-86187165D01*
X141985000Y-86012835D01*
X141950990Y-85841855D01*
X141884277Y-85680795D01*
X141787424Y-85535845D01*
X141664155Y-85412576D01*
X141519205Y-85315723D01*
X141358145Y-85249010D01*
X141315287Y-85240485D01*
X140763803Y-84689002D01*
X140740001Y-84659999D01*
X140624276Y-84565026D01*
X140492247Y-84494454D01*
X140348986Y-84450997D01*
X140237333Y-84440000D01*
X140237322Y-84440000D01*
X140200000Y-84436324D01*
X140162678Y-84440000D01*
X123005528Y-84440000D01*
X122969195Y-84415723D01*
X122808135Y-84349010D01*
X122637155Y-84315000D01*
X122462825Y-84315000D01*
X122291845Y-84349010D01*
X122130785Y-84415723D01*
X121985835Y-84512576D01*
X121862566Y-84635845D01*
X121765713Y-84780795D01*
X121699000Y-84941855D01*
X121664990Y-85112835D01*
X120522549Y-85112835D01*
X120509277Y-85080795D01*
X120412424Y-84935845D01*
X120289155Y-84812576D01*
X120144205Y-84715723D01*
X119983145Y-84649010D01*
X119860000Y-84624515D01*
X119860000Y-82992835D01*
X135015000Y-82992835D01*
X135015000Y-83167165D01*
X135049010Y-83338145D01*
X135115723Y-83499205D01*
X135212576Y-83644155D01*
X135335845Y-83767424D01*
X135480795Y-83864277D01*
X135641855Y-83930990D01*
X135697898Y-83942138D01*
X135725723Y-83964973D01*
X135857752Y-84035545D01*
X136001013Y-84079002D01*
X136112666Y-84089999D01*
X136112676Y-84089999D01*
X136149999Y-84093675D01*
X136187322Y-84089999D01*
X144782679Y-84089999D01*
X144820001Y-84093675D01*
X144857323Y-84089999D01*
X144857334Y-84089999D01*
X144968987Y-84079002D01*
X145112248Y-84035545D01*
X145244277Y-83964973D01*
X145349406Y-83878696D01*
X145388145Y-83870990D01*
X145549205Y-83804277D01*
X145640000Y-83743609D01*
X145730795Y-83804277D01*
X145891855Y-83870990D01*
X146062835Y-83905000D01*
X146237165Y-83905000D01*
X146408145Y-83870990D01*
X146569205Y-83804277D01*
X146714155Y-83707424D01*
X146837424Y-83584155D01*
X146934277Y-83439205D01*
X147000990Y-83278145D01*
X147035000Y-83107165D01*
X147035000Y-82932835D01*
X147000990Y-82761855D01*
X146934277Y-82600795D01*
X146837424Y-82455845D01*
X146714155Y-82332576D01*
X146569205Y-82235723D01*
X146408145Y-82169010D01*
X146365286Y-82160485D01*
X146093804Y-81889003D01*
X146070002Y-81860000D01*
X145954277Y-81765027D01*
X145822248Y-81694455D01*
X145678987Y-81650998D01*
X145567334Y-81640001D01*
X145567323Y-81640001D01*
X145530001Y-81636325D01*
X145492679Y-81640001D01*
X137137322Y-81640001D01*
X137099999Y-81636325D01*
X137062676Y-81640001D01*
X137062666Y-81640001D01*
X136951013Y-81650998D01*
X136807752Y-81694455D01*
X136675723Y-81765027D01*
X136647898Y-81787862D01*
X136591855Y-81799010D01*
X136430795Y-81865723D01*
X136285845Y-81962576D01*
X136162576Y-82085845D01*
X136077618Y-82212992D01*
X135987165Y-82195000D01*
X135812835Y-82195000D01*
X135641855Y-82229010D01*
X135480795Y-82295723D01*
X135335845Y-82392576D01*
X135212576Y-82515845D01*
X135115723Y-82660795D01*
X135049010Y-82821855D01*
X135015000Y-82992835D01*
X119860000Y-82992835D01*
X119860000Y-79912835D01*
X124920765Y-79912835D01*
X124920765Y-80087165D01*
X124954775Y-80258145D01*
X125021488Y-80419205D01*
X125118341Y-80564155D01*
X125241610Y-80687424D01*
X125386560Y-80784277D01*
X125547620Y-80850990D01*
X125718600Y-80885000D01*
X125892930Y-80885000D01*
X126063910Y-80850990D01*
X126224970Y-80784277D01*
X126369920Y-80687424D01*
X126493189Y-80564155D01*
X126590042Y-80419205D01*
X126656755Y-80258145D01*
X126690765Y-80087165D01*
X126690765Y-79985000D01*
X126787165Y-79985000D01*
X126958145Y-79950990D01*
X127119205Y-79884277D01*
X127264155Y-79787424D01*
X127387424Y-79664155D01*
X127484277Y-79519205D01*
X127550990Y-79358145D01*
X127585000Y-79187165D01*
X127585000Y-79012835D01*
X127550990Y-78841855D01*
X127484277Y-78680795D01*
X127387424Y-78535845D01*
X127264155Y-78412576D01*
X127119205Y-78315723D01*
X126958145Y-78249010D01*
X126787165Y-78215000D01*
X126612835Y-78215000D01*
X126441855Y-78249010D01*
X126280795Y-78315723D01*
X126135845Y-78412576D01*
X126012576Y-78535845D01*
X125915723Y-78680795D01*
X125849010Y-78841855D01*
X125815000Y-79012835D01*
X125815000Y-79115000D01*
X125718600Y-79115000D01*
X125547620Y-79149010D01*
X125386560Y-79215723D01*
X125241610Y-79312576D01*
X125118341Y-79435845D01*
X125021488Y-79580795D01*
X124954775Y-79741855D01*
X124920765Y-79912835D01*
X119860000Y-79912835D01*
X119860000Y-74814801D01*
X119947757Y-74727044D01*
X119982576Y-74779155D01*
X120105845Y-74902424D01*
X120250795Y-74999277D01*
X120411855Y-75065990D01*
X120582835Y-75100000D01*
X120757165Y-75100000D01*
X120928145Y-75065990D01*
X121089205Y-74999277D01*
X121234155Y-74902424D01*
X121357424Y-74779155D01*
X121454277Y-74634205D01*
X121520990Y-74473145D01*
X121529515Y-74430286D01*
X121832801Y-74127000D01*
X124917041Y-74127000D01*
X124936560Y-74140042D01*
X125097620Y-74206755D01*
X125268600Y-74240765D01*
X125442930Y-74240765D01*
X125613910Y-74206755D01*
X125774970Y-74140042D01*
X125794489Y-74127000D01*
X128808711Y-74127000D01*
X128795765Y-74139946D01*
X128806246Y-74239009D01*
X128820210Y-74283418D01*
X128804953Y-74333714D01*
X128792693Y-74458196D01*
X128792693Y-74808196D01*
X128804953Y-74932678D01*
X128820277Y-74983196D01*
X128804953Y-75033714D01*
X128792693Y-75158196D01*
X128792693Y-75508196D01*
X128804953Y-75632678D01*
X128820277Y-75683196D01*
X128804953Y-75733714D01*
X128792693Y-75858196D01*
X128792693Y-76208196D01*
X128804953Y-76332678D01*
X128820277Y-76383196D01*
X128804953Y-76433714D01*
X128792693Y-76558196D01*
X128792693Y-76908196D01*
X128804953Y-77032678D01*
X128820277Y-77083196D01*
X128804953Y-77133714D01*
X128792693Y-77258196D01*
X128792693Y-77608196D01*
X128804953Y-77732678D01*
X128820210Y-77782974D01*
X128806246Y-77827383D01*
X128795765Y-77926446D01*
X128954515Y-78085196D01*
X129011036Y-78085196D01*
X129069929Y-78133528D01*
X129010630Y-78181196D01*
X128954515Y-78181196D01*
X128795765Y-78339946D01*
X128806246Y-78439009D01*
X128820140Y-78483196D01*
X128806246Y-78527383D01*
X128795765Y-78626446D01*
X128954515Y-78785196D01*
X129010630Y-78785196D01*
X129069929Y-78832864D01*
X129011036Y-78881196D01*
X128954515Y-78881196D01*
X128795765Y-79039946D01*
X128806246Y-79139009D01*
X128820210Y-79183418D01*
X128804953Y-79233714D01*
X128793678Y-79348196D01*
X128643599Y-79348196D01*
X128472619Y-79382206D01*
X128311559Y-79448919D01*
X128166609Y-79545772D01*
X128043340Y-79669041D01*
X127946487Y-79813991D01*
X127879774Y-79975051D01*
X127845764Y-80146031D01*
X127845764Y-80320361D01*
X127879774Y-80491341D01*
X127946487Y-80652401D01*
X128043340Y-80797351D01*
X128054186Y-80808197D01*
X128043341Y-80819041D01*
X127946488Y-80963991D01*
X127879775Y-81125051D01*
X127845765Y-81296031D01*
X127845765Y-81470361D01*
X127879775Y-81641341D01*
X127946488Y-81802401D01*
X128043341Y-81947351D01*
X128166610Y-82070620D01*
X128311560Y-82167473D01*
X128472620Y-82234186D01*
X128643600Y-82268196D01*
X128817930Y-82268196D01*
X128963492Y-82239242D01*
X128984172Y-82263927D01*
X129081662Y-82342296D01*
X129192568Y-82400140D01*
X129312627Y-82435236D01*
X129437227Y-82446235D01*
X130395015Y-82443196D01*
X130553765Y-82284446D01*
X130553765Y-81746268D01*
X130807765Y-81746268D01*
X130807765Y-82284446D01*
X130966515Y-82443196D01*
X131924303Y-82446235D01*
X132048903Y-82435236D01*
X132168962Y-82400140D01*
X132279868Y-82342296D01*
X132377358Y-82263927D01*
X132457685Y-82168044D01*
X132517764Y-82058333D01*
X132555284Y-81939009D01*
X132565765Y-81839946D01*
X132407015Y-81681196D01*
X132205818Y-81681196D01*
X132285259Y-81638733D01*
X132350494Y-81585196D01*
X132407015Y-81585196D01*
X132565765Y-81426446D01*
X132555284Y-81327383D01*
X132541320Y-81282974D01*
X132556577Y-81232678D01*
X132568837Y-81108196D01*
X132568837Y-80758196D01*
X132556577Y-80633714D01*
X132541253Y-80583196D01*
X132556577Y-80532678D01*
X132561273Y-80485000D01*
X132687165Y-80485000D01*
X132858145Y-80450990D01*
X133019205Y-80384277D01*
X133164155Y-80287424D01*
X133287424Y-80164155D01*
X133384277Y-80019205D01*
X133450990Y-79858145D01*
X133485000Y-79687165D01*
X133485000Y-79512835D01*
X133450990Y-79341855D01*
X133384277Y-79180795D01*
X133287424Y-79035845D01*
X133164155Y-78912576D01*
X133019205Y-78815723D01*
X132858145Y-78749010D01*
X132687165Y-78715000D01*
X132565765Y-78715000D01*
X132565765Y-78706194D01*
X132486017Y-78706194D01*
X132565765Y-78626446D01*
X132555284Y-78527383D01*
X132541390Y-78483196D01*
X132555284Y-78439009D01*
X132565765Y-78339946D01*
X132486017Y-78260198D01*
X132565765Y-78260198D01*
X132565765Y-78193196D01*
X132619245Y-78193196D01*
X132650795Y-78214277D01*
X132811855Y-78280990D01*
X132982835Y-78315000D01*
X133157165Y-78315000D01*
X133328145Y-78280990D01*
X133489205Y-78214277D01*
X133634155Y-78117424D01*
X133757424Y-77994155D01*
X133854277Y-77849205D01*
X133920990Y-77688145D01*
X133955000Y-77517165D01*
X133955000Y-77493196D01*
X135484211Y-77493196D01*
X135500795Y-77504277D01*
X135661855Y-77570990D01*
X135832835Y-77605000D01*
X136007165Y-77605000D01*
X136178145Y-77570990D01*
X136339205Y-77504277D01*
X136484155Y-77407424D01*
X136607424Y-77284155D01*
X136704277Y-77139205D01*
X136770990Y-76978145D01*
X136779696Y-76934376D01*
X136782835Y-76935000D01*
X136957165Y-76935000D01*
X137128145Y-76900990D01*
X137289205Y-76834277D01*
X137434155Y-76737424D01*
X137557424Y-76614155D01*
X137654277Y-76469205D01*
X137720990Y-76308145D01*
X137755000Y-76137165D01*
X137755000Y-76093196D01*
X152068394Y-76093196D01*
X152520000Y-76544803D01*
X152520001Y-82554461D01*
X152495723Y-82590795D01*
X152429010Y-82751855D01*
X152395000Y-82922835D01*
X152395000Y-83097165D01*
X152429010Y-83268145D01*
X152495723Y-83429205D01*
X152592576Y-83574155D01*
X152715845Y-83697424D01*
X152860795Y-83794277D01*
X153021855Y-83860990D01*
X153192835Y-83895000D01*
X153367165Y-83895000D01*
X153538145Y-83860990D01*
X153699205Y-83794277D01*
X153844155Y-83697424D01*
X153967424Y-83574155D01*
X154064277Y-83429205D01*
X154130990Y-83268145D01*
X154165000Y-83097165D01*
X154165000Y-82922835D01*
X154130990Y-82751855D01*
X154064277Y-82590795D01*
X154040000Y-82554462D01*
X154040000Y-76267322D01*
X154043676Y-76229999D01*
X154040000Y-76192676D01*
X154040000Y-76192667D01*
X154029003Y-76081014D01*
X153985546Y-75937753D01*
X153914974Y-75805724D01*
X153875375Y-75757472D01*
X153843799Y-75718996D01*
X153843795Y-75718992D01*
X153820001Y-75689999D01*
X153791009Y-75666206D01*
X152946999Y-74822198D01*
X152923197Y-74793195D01*
X152807472Y-74698222D01*
X152675443Y-74627650D01*
X152532182Y-74584193D01*
X152420529Y-74573196D01*
X152420518Y-74573196D01*
X152383196Y-74569520D01*
X152345874Y-74573196D01*
X145901605Y-74573196D01*
X146347802Y-74127000D01*
X154315001Y-74127000D01*
X154315001Y-89372959D01*
X154289205Y-89355723D01*
X154128145Y-89289010D01*
X153957165Y-89255000D01*
X153782835Y-89255000D01*
X153611855Y-89289010D01*
X153450795Y-89355723D01*
X153414462Y-89380000D01*
X148365161Y-89380000D01*
X148425990Y-89233145D01*
X148460000Y-89062165D01*
X148460000Y-88887835D01*
X148425990Y-88716855D01*
X148359277Y-88555795D01*
X148262424Y-88410845D01*
X148139155Y-88287576D01*
X147994205Y-88190723D01*
X147833145Y-88124010D01*
X147662165Y-88090000D01*
X147487835Y-88090000D01*
X147316855Y-88124010D01*
X147155795Y-88190723D01*
X147010845Y-88287576D01*
X146887576Y-88410845D01*
X146790723Y-88555795D01*
X146724010Y-88716855D01*
X146690000Y-88887835D01*
X146690000Y-89062165D01*
X146724010Y-89233145D01*
X146784839Y-89380000D01*
X146433746Y-89380000D01*
X146434279Y-89379203D01*
X146500992Y-89218143D01*
X146535002Y-89047163D01*
X146535002Y-88872833D01*
X146500992Y-88701853D01*
X146434279Y-88540793D01*
X146337426Y-88395843D01*
X146214157Y-88272574D01*
X146069207Y-88175721D01*
X145908147Y-88109008D01*
X145737167Y-88074998D01*
X145562837Y-88074998D01*
X145391857Y-88109008D01*
X145230797Y-88175721D01*
X145194464Y-88199998D01*
X140555538Y-88199998D01*
X140519205Y-88175721D01*
X140358145Y-88109008D01*
X140187165Y-88074998D01*
X140012835Y-88074998D01*
X139867380Y-88103931D01*
X139875990Y-88083145D01*
X139880029Y-88062835D01*
X152415000Y-88062835D01*
X152415000Y-88237165D01*
X152449010Y-88408145D01*
X152515723Y-88569205D01*
X152612576Y-88714155D01*
X152735845Y-88837424D01*
X152880795Y-88934277D01*
X153041855Y-89000990D01*
X153212835Y-89035000D01*
X153387165Y-89035000D01*
X153558145Y-89000990D01*
X153719205Y-88934277D01*
X153864155Y-88837424D01*
X153987424Y-88714155D01*
X154084277Y-88569205D01*
X154150990Y-88408145D01*
X154185000Y-88237165D01*
X154185000Y-88062835D01*
X154150990Y-87891855D01*
X154084277Y-87730795D01*
X153987424Y-87585845D01*
X153864155Y-87462576D01*
X153719205Y-87365723D01*
X153558145Y-87299010D01*
X153387165Y-87265000D01*
X153212835Y-87265000D01*
X153041855Y-87299010D01*
X152880795Y-87365723D01*
X152735845Y-87462576D01*
X152612576Y-87585845D01*
X152515723Y-87730795D01*
X152449010Y-87891855D01*
X152415000Y-88062835D01*
X139880029Y-88062835D01*
X139910000Y-87912165D01*
X139910000Y-87737835D01*
X139875990Y-87566855D01*
X139809277Y-87405795D01*
X139712424Y-87260845D01*
X139589155Y-87137576D01*
X139444205Y-87040723D01*
X139283145Y-86974010D01*
X139112165Y-86940000D01*
X138937835Y-86940000D01*
X138766855Y-86974010D01*
X138605795Y-87040723D01*
X138460845Y-87137576D01*
X138337576Y-87260845D01*
X138240723Y-87405795D01*
X138174010Y-87566855D01*
X138140000Y-87737835D01*
X138140000Y-87912165D01*
X138174010Y-88083145D01*
X138240723Y-88244205D01*
X138337576Y-88389155D01*
X138460845Y-88512424D01*
X138605795Y-88609277D01*
X138766855Y-88675990D01*
X138937835Y-88710000D01*
X139112165Y-88710000D01*
X139257620Y-88681067D01*
X139249010Y-88701853D01*
X139215000Y-88872833D01*
X139215000Y-89047163D01*
X139249010Y-89218143D01*
X139315723Y-89379203D01*
X139412520Y-89524069D01*
X139352083Y-89573668D01*
X139319999Y-89599999D01*
X139296201Y-89628997D01*
X138610198Y-90315001D01*
X138323633Y-90315001D01*
X138277424Y-90245845D01*
X138154155Y-90122576D01*
X138009205Y-90025723D01*
X137848145Y-89959010D01*
X137677165Y-89925000D01*
X137502835Y-89925000D01*
X137331855Y-89959010D01*
X137170795Y-90025723D01*
X137025845Y-90122576D01*
X136902576Y-90245845D01*
X136805723Y-90390795D01*
X136739010Y-90551855D01*
X136705000Y-90722835D01*
X136705000Y-90897165D01*
X136739010Y-91068145D01*
X136805723Y-91229205D01*
X136902576Y-91374155D01*
X137025845Y-91497424D01*
X137170795Y-91594277D01*
X137331855Y-91660990D01*
X137383571Y-91671277D01*
X137430725Y-91709975D01*
X137562754Y-91780547D01*
X137706015Y-91824004D01*
X137817668Y-91835001D01*
X137817678Y-91835001D01*
X137855000Y-91838677D01*
X137892323Y-91835001D01*
X138887677Y-91835001D01*
X138924999Y-91838677D01*
X138962321Y-91835001D01*
X138962332Y-91835001D01*
X139073985Y-91824004D01*
X139217246Y-91780547D01*
X139349275Y-91709975D01*
X139465000Y-91615002D01*
X139488803Y-91585999D01*
X140174802Y-90900000D01*
X143485000Y-90900000D01*
X143485000Y-90927165D01*
X143519010Y-91098145D01*
X143585723Y-91259205D01*
X143682576Y-91404155D01*
X143805845Y-91527424D01*
X143950795Y-91624277D01*
X144111855Y-91690990D01*
X144282835Y-91725000D01*
X144304461Y-91725000D01*
X144319010Y-91798145D01*
X144385723Y-91959205D01*
X144482576Y-92104155D01*
X144605845Y-92227424D01*
X144750795Y-92324277D01*
X144911855Y-92390990D01*
X145082835Y-92425000D01*
X145257165Y-92425000D01*
X145428145Y-92390990D01*
X145589205Y-92324277D01*
X145625538Y-92300000D01*
X150107688Y-92300000D01*
X150145010Y-92303676D01*
X150182332Y-92300000D01*
X150182343Y-92300000D01*
X150182638Y-92299971D01*
X150182835Y-92300010D01*
X150357165Y-92300010D01*
X150528145Y-92266000D01*
X150689205Y-92199287D01*
X150834155Y-92102434D01*
X150957424Y-91979165D01*
X151054277Y-91834215D01*
X151120990Y-91673155D01*
X151124299Y-91656517D01*
X151146835Y-91661000D01*
X151321165Y-91661000D01*
X151492145Y-91626990D01*
X151653205Y-91560277D01*
X151798155Y-91463424D01*
X151921424Y-91340155D01*
X152018277Y-91195205D01*
X152084990Y-91034145D01*
X152111673Y-90900000D01*
X153414462Y-90900000D01*
X153450795Y-90924277D01*
X153611855Y-90990990D01*
X153782835Y-91025000D01*
X153957165Y-91025000D01*
X154128145Y-90990990D01*
X154289205Y-90924277D01*
X154315001Y-90907041D01*
X154315001Y-103569588D01*
X154252080Y-103492919D01*
X154041187Y-103319843D01*
X153800580Y-103191236D01*
X153539506Y-103112040D01*
X153469701Y-103105165D01*
X153511824Y-103042124D01*
X153597383Y-102835567D01*
X153641000Y-102616288D01*
X153641000Y-102392712D01*
X153597383Y-102173433D01*
X153511824Y-101966876D01*
X153387612Y-101780980D01*
X153229520Y-101622888D01*
X153043624Y-101498676D01*
X152837067Y-101413117D01*
X152617788Y-101369500D01*
X152394212Y-101369500D01*
X152174933Y-101413117D01*
X151968376Y-101498676D01*
X151782480Y-101622888D01*
X151624388Y-101780980D01*
X151500176Y-101966876D01*
X151414617Y-102173433D01*
X151371000Y-102392712D01*
X151371000Y-102616288D01*
X151414617Y-102835567D01*
X151500176Y-103042124D01*
X151624388Y-103228020D01*
X151782480Y-103386112D01*
X151968376Y-103510324D01*
X152174933Y-103595883D01*
X152195983Y-103600070D01*
X152110843Y-103703813D01*
X151982236Y-103944420D01*
X151903040Y-104205494D01*
X151883000Y-104408964D01*
X151883000Y-105045037D01*
X151903040Y-105248507D01*
X151982236Y-105509581D01*
X152110843Y-105750188D01*
X152283920Y-105961081D01*
X152494813Y-106134157D01*
X152735420Y-106262764D01*
X152907619Y-106315000D01*
X147532382Y-106315000D01*
X147704581Y-106262764D01*
X147945188Y-106134157D01*
X148156081Y-105961081D01*
X148329157Y-105750188D01*
X148457764Y-105509580D01*
X148536960Y-105248506D01*
X148557000Y-105045036D01*
X148557000Y-104408963D01*
X148536960Y-104205493D01*
X148457764Y-103944419D01*
X148329157Y-103703812D01*
X148244017Y-103600070D01*
X148265067Y-103595883D01*
X148471624Y-103510324D01*
X148657520Y-103386112D01*
X148815612Y-103228020D01*
X148939824Y-103042124D01*
X149025383Y-102835567D01*
X149069000Y-102616288D01*
X149069000Y-102392712D01*
X149025383Y-102173433D01*
X148939824Y-101966876D01*
X148815612Y-101780980D01*
X148657520Y-101622888D01*
X148471624Y-101498676D01*
X148265067Y-101413117D01*
X148045788Y-101369500D01*
X147822212Y-101369500D01*
X147602933Y-101413117D01*
X147396376Y-101498676D01*
X147210480Y-101622888D01*
X147052388Y-101780980D01*
X146928176Y-101966876D01*
X146842617Y-102173433D01*
X146799000Y-102392712D01*
X146799000Y-102616288D01*
X146842617Y-102835567D01*
X146928176Y-103042124D01*
X146970299Y-103105165D01*
X146900493Y-103112040D01*
X146639419Y-103191236D01*
X146398812Y-103319843D01*
X146187919Y-103492920D01*
X146014843Y-103703813D01*
X145886236Y-103944420D01*
X145807040Y-104205494D01*
X145787000Y-104408964D01*
X145787000Y-105045037D01*
X145807040Y-105248507D01*
X145886236Y-105509581D01*
X146014843Y-105750188D01*
X146187920Y-105961081D01*
X146398813Y-106134157D01*
X146639420Y-106262764D01*
X146811619Y-106315000D01*
X115685000Y-106315000D01*
X115685000Y-104762835D01*
X135640000Y-104762835D01*
X135640000Y-104937165D01*
X135674010Y-105108145D01*
X135740723Y-105269205D01*
X135837576Y-105414155D01*
X135960845Y-105537424D01*
X136105795Y-105634277D01*
X136266855Y-105700990D01*
X136437835Y-105735000D01*
X136612165Y-105735000D01*
X136783145Y-105700990D01*
X136944205Y-105634277D01*
X137089155Y-105537424D01*
X137212424Y-105414155D01*
X137309277Y-105269205D01*
X137375990Y-105108145D01*
X137410000Y-104937165D01*
X137410000Y-104762835D01*
X137375990Y-104591855D01*
X137309277Y-104430795D01*
X137212424Y-104285845D01*
X137089155Y-104162576D01*
X136944205Y-104065723D01*
X136783145Y-103999010D01*
X136612165Y-103965000D01*
X136437835Y-103965000D01*
X136266855Y-103999010D01*
X136105795Y-104065723D01*
X135960845Y-104162576D01*
X135837576Y-104285845D01*
X135740723Y-104430795D01*
X135674010Y-104591855D01*
X135640000Y-104762835D01*
X115685000Y-104762835D01*
X115685000Y-102792835D01*
X139395000Y-102792835D01*
X139395000Y-102967165D01*
X139429010Y-103138145D01*
X139495723Y-103299205D01*
X139592576Y-103444155D01*
X139715845Y-103567424D01*
X139860795Y-103664277D01*
X140021855Y-103730990D01*
X140192835Y-103765000D01*
X140367165Y-103765000D01*
X140538145Y-103730990D01*
X140699205Y-103664277D01*
X140844155Y-103567424D01*
X140967424Y-103444155D01*
X141064277Y-103299205D01*
X141130990Y-103138145D01*
X141165000Y-102967165D01*
X141165000Y-102792835D01*
X141130990Y-102621855D01*
X141064277Y-102460795D01*
X140967424Y-102315845D01*
X140844155Y-102192576D01*
X140699205Y-102095723D01*
X140538145Y-102029010D01*
X140367165Y-101995000D01*
X140192835Y-101995000D01*
X140021855Y-102029010D01*
X139860795Y-102095723D01*
X139715845Y-102192576D01*
X139592576Y-102315845D01*
X139495723Y-102460795D01*
X139429010Y-102621855D01*
X139395000Y-102792835D01*
X115685000Y-102792835D01*
X115685000Y-100627835D01*
X117400000Y-100627835D01*
X117400000Y-100802165D01*
X117434010Y-100973145D01*
X117500723Y-101134205D01*
X117597576Y-101279155D01*
X117720845Y-101402424D01*
X117865795Y-101499277D01*
X118026855Y-101565990D01*
X118197835Y-101600000D01*
X118372165Y-101600000D01*
X118543145Y-101565990D01*
X118704205Y-101499277D01*
X118849155Y-101402424D01*
X118972424Y-101279155D01*
X119069277Y-101134205D01*
X119135990Y-100973145D01*
X119170000Y-100802165D01*
X119170000Y-100627835D01*
X119135990Y-100456855D01*
X119069277Y-100295795D01*
X118972424Y-100150845D01*
X118849155Y-100027576D01*
X118704205Y-99930723D01*
X118543145Y-99864010D01*
X118372165Y-99830000D01*
X118197835Y-99830000D01*
X118026855Y-99864010D01*
X117865795Y-99930723D01*
X117720845Y-100027576D01*
X117597576Y-100150845D01*
X117500723Y-100295795D01*
X117434010Y-100456855D01*
X117400000Y-100627835D01*
X115685000Y-100627835D01*
X115685000Y-95226891D01*
X116168519Y-95226891D01*
X116265843Y-95501252D01*
X116414822Y-95751355D01*
X116609731Y-95967588D01*
X116843080Y-96141641D01*
X117105901Y-96266825D01*
X117253110Y-96311476D01*
X117483000Y-96190155D01*
X117483000Y-94997000D01*
X116289186Y-94997000D01*
X116168519Y-95226891D01*
X115685000Y-95226891D01*
X115685000Y-94513109D01*
X116168519Y-94513109D01*
X116289186Y-94743000D01*
X117483000Y-94743000D01*
X117483000Y-93549845D01*
X117737000Y-93549845D01*
X117737000Y-94743000D01*
X117757000Y-94743000D01*
X117757000Y-94997000D01*
X117737000Y-94997000D01*
X117737000Y-96190155D01*
X117966890Y-96311476D01*
X118114099Y-96266825D01*
X118376920Y-96141641D01*
X118610269Y-95967588D01*
X118686034Y-95883534D01*
X118710498Y-95964180D01*
X118769463Y-96074494D01*
X118848815Y-96171185D01*
X118945506Y-96250537D01*
X119055820Y-96309502D01*
X119175518Y-96345812D01*
X119300000Y-96358072D01*
X121000000Y-96358072D01*
X121124482Y-96345812D01*
X121244180Y-96309502D01*
X121354494Y-96250537D01*
X121451185Y-96171185D01*
X121530537Y-96074494D01*
X121589502Y-95964180D01*
X121625812Y-95844482D01*
X121638072Y-95720000D01*
X121638072Y-95705000D01*
X123284133Y-95705000D01*
X124974133Y-97395000D01*
X122303465Y-97395000D01*
X122259999Y-97390719D01*
X122216533Y-97395000D01*
X122216523Y-97395000D01*
X122086510Y-97407805D01*
X121919687Y-97458411D01*
X121832468Y-97505030D01*
X121830795Y-97505723D01*
X121829290Y-97506729D01*
X121765941Y-97540589D01*
X121710413Y-97586160D01*
X121685845Y-97602576D01*
X121664951Y-97623470D01*
X121631183Y-97651183D01*
X121603470Y-97684951D01*
X121562576Y-97725845D01*
X121538300Y-97762176D01*
X121510590Y-97795941D01*
X121490001Y-97834460D01*
X121465723Y-97870795D01*
X121448998Y-97911173D01*
X121428412Y-97949687D01*
X121415734Y-97991480D01*
X121399010Y-98031855D01*
X121390486Y-98074707D01*
X121377805Y-98116510D01*
X121373523Y-98159985D01*
X121365000Y-98202835D01*
X121365000Y-98246531D01*
X121360719Y-98290000D01*
X121365000Y-98333469D01*
X121365000Y-98377165D01*
X121373523Y-98420015D01*
X121377805Y-98463490D01*
X121390486Y-98505293D01*
X121399010Y-98548145D01*
X121415734Y-98588520D01*
X121428412Y-98630313D01*
X121448998Y-98668827D01*
X121465723Y-98709205D01*
X121490001Y-98745540D01*
X121510590Y-98784059D01*
X121538301Y-98817824D01*
X121562576Y-98854155D01*
X121593472Y-98885051D01*
X121621183Y-98918817D01*
X121654949Y-98946528D01*
X121685845Y-98977424D01*
X121722176Y-99001699D01*
X121755941Y-99029410D01*
X121794460Y-99049999D01*
X121830795Y-99074277D01*
X121871173Y-99091002D01*
X121909687Y-99111588D01*
X121951480Y-99124266D01*
X121991855Y-99140990D01*
X122034707Y-99149514D01*
X122076510Y-99162195D01*
X122119985Y-99166477D01*
X122162835Y-99175000D01*
X122206531Y-99175000D01*
X122250000Y-99179281D01*
X122293469Y-99175000D01*
X122337165Y-99175000D01*
X122380015Y-99166477D01*
X122395008Y-99165000D01*
X125647165Y-99165000D01*
X125690013Y-99156477D01*
X125733490Y-99152195D01*
X125775295Y-99139513D01*
X125818145Y-99130990D01*
X125858513Y-99114269D01*
X125900313Y-99101589D01*
X125938835Y-99080999D01*
X125979205Y-99064277D01*
X126015533Y-99040004D01*
X126054059Y-99019411D01*
X126087829Y-98991696D01*
X126124155Y-98967424D01*
X126155049Y-98936530D01*
X126188817Y-98908817D01*
X126216530Y-98875049D01*
X126247424Y-98844155D01*
X126271696Y-98807829D01*
X126299411Y-98774059D01*
X126318144Y-98739012D01*
X129259733Y-101680601D01*
X129275723Y-101719205D01*
X129372576Y-101864155D01*
X129495845Y-101987424D01*
X129640795Y-102084277D01*
X129801855Y-102150990D01*
X129972835Y-102185000D01*
X130147165Y-102185000D01*
X130318145Y-102150990D01*
X130479205Y-102084277D01*
X130624155Y-101987424D01*
X130747424Y-101864155D01*
X130844277Y-101719205D01*
X130910990Y-101558145D01*
X130945000Y-101387165D01*
X130945000Y-101212835D01*
X130910990Y-101041855D01*
X130844277Y-100880795D01*
X130747424Y-100735845D01*
X130624155Y-100612576D01*
X130479205Y-100515723D01*
X130440601Y-100499733D01*
X129713703Y-99772835D01*
X136885000Y-99772835D01*
X136885000Y-99947165D01*
X136919010Y-100118145D01*
X136985723Y-100279205D01*
X137082576Y-100424155D01*
X137205845Y-100547424D01*
X137350795Y-100644277D01*
X137511855Y-100710990D01*
X137682835Y-100745000D01*
X137857165Y-100745000D01*
X138028145Y-100710990D01*
X138189205Y-100644277D01*
X138334155Y-100547424D01*
X138457424Y-100424155D01*
X138554277Y-100279205D01*
X138620990Y-100118145D01*
X138655000Y-99947165D01*
X138655000Y-99772835D01*
X138620990Y-99601855D01*
X138554277Y-99440795D01*
X138457424Y-99295845D01*
X138334155Y-99172576D01*
X138189205Y-99075723D01*
X138028145Y-99009010D01*
X137857165Y-98975000D01*
X137682835Y-98975000D01*
X137511855Y-99009010D01*
X137350795Y-99075723D01*
X137205845Y-99172576D01*
X137082576Y-99295845D01*
X136985723Y-99440795D01*
X136919010Y-99601855D01*
X136885000Y-99772835D01*
X129713703Y-99772835D01*
X126153703Y-96212835D01*
X148115000Y-96212835D01*
X148115000Y-96387165D01*
X148149010Y-96558145D01*
X148215723Y-96719205D01*
X148312576Y-96864155D01*
X148435845Y-96987424D01*
X148580795Y-97084277D01*
X148741855Y-97150990D01*
X148912835Y-97185000D01*
X149087165Y-97185000D01*
X149258145Y-97150990D01*
X149419205Y-97084277D01*
X149564155Y-96987424D01*
X149687424Y-96864155D01*
X149784277Y-96719205D01*
X149850990Y-96558145D01*
X149885000Y-96387165D01*
X149885000Y-96212835D01*
X149850990Y-96041855D01*
X149784277Y-95880795D01*
X149687424Y-95735845D01*
X149564155Y-95612576D01*
X149419205Y-95515723D01*
X149258145Y-95449010D01*
X149087165Y-95415000D01*
X148912835Y-95415000D01*
X148741855Y-95449010D01*
X148580795Y-95515723D01*
X148435845Y-95612576D01*
X148312576Y-95735845D01*
X148215723Y-95880795D01*
X148149010Y-96041855D01*
X148115000Y-96212835D01*
X126153703Y-96212835D01*
X124353703Y-94412835D01*
X129115000Y-94412835D01*
X129115000Y-94587165D01*
X129149010Y-94758145D01*
X129215723Y-94919205D01*
X129312576Y-95064155D01*
X129435845Y-95187424D01*
X129580795Y-95284277D01*
X129741855Y-95350990D01*
X129912835Y-95385000D01*
X130087165Y-95385000D01*
X130258145Y-95350990D01*
X130419205Y-95284277D01*
X130564155Y-95187424D01*
X130687424Y-95064155D01*
X130784277Y-94919205D01*
X130850990Y-94758145D01*
X130860002Y-94712835D01*
X144915000Y-94712835D01*
X144915000Y-94887165D01*
X144949010Y-95058145D01*
X145015723Y-95219205D01*
X145112576Y-95364155D01*
X145235845Y-95487424D01*
X145380795Y-95584277D01*
X145541855Y-95650990D01*
X145712835Y-95685000D01*
X145887165Y-95685000D01*
X146058145Y-95650990D01*
X146219205Y-95584277D01*
X146364155Y-95487424D01*
X146487424Y-95364155D01*
X146584277Y-95219205D01*
X146650990Y-95058145D01*
X146685000Y-94887165D01*
X146685000Y-94712835D01*
X146650990Y-94541855D01*
X146584277Y-94380795D01*
X146487424Y-94235845D01*
X146364155Y-94112576D01*
X146219205Y-94015723D01*
X146058145Y-93949010D01*
X145887165Y-93915000D01*
X145712835Y-93915000D01*
X145541855Y-93949010D01*
X145380795Y-94015723D01*
X145235845Y-94112576D01*
X145112576Y-94235845D01*
X145015723Y-94380795D01*
X144949010Y-94541855D01*
X144915000Y-94712835D01*
X130860002Y-94712835D01*
X130885000Y-94587165D01*
X130885000Y-94412835D01*
X130850990Y-94241855D01*
X130784277Y-94080795D01*
X130687424Y-93935845D01*
X130564155Y-93812576D01*
X130419205Y-93715723D01*
X130258145Y-93649010D01*
X130087165Y-93615000D01*
X129912835Y-93615000D01*
X129741855Y-93649010D01*
X129580795Y-93715723D01*
X129435845Y-93812576D01*
X129312576Y-93935845D01*
X129215723Y-94080795D01*
X129149010Y-94241855D01*
X129115000Y-94412835D01*
X124353703Y-94412835D01*
X124249446Y-94308579D01*
X124223291Y-94276709D01*
X124096146Y-94172364D01*
X123951087Y-94094828D01*
X123793689Y-94047082D01*
X123671019Y-94035000D01*
X123671018Y-94035000D01*
X123630000Y-94030960D01*
X123588982Y-94035000D01*
X121638072Y-94035000D01*
X121638072Y-94020000D01*
X121625812Y-93895518D01*
X121589502Y-93775820D01*
X121530537Y-93665506D01*
X121451185Y-93568815D01*
X121354494Y-93489463D01*
X121244180Y-93430498D01*
X121124482Y-93394188D01*
X121000000Y-93381928D01*
X119300000Y-93381928D01*
X119175518Y-93394188D01*
X119055820Y-93430498D01*
X118945506Y-93489463D01*
X118848815Y-93568815D01*
X118769463Y-93665506D01*
X118710498Y-93775820D01*
X118686034Y-93856466D01*
X118610269Y-93772412D01*
X118376920Y-93598359D01*
X118114099Y-93473175D01*
X117966890Y-93428524D01*
X117737000Y-93549845D01*
X117483000Y-93549845D01*
X117253110Y-93428524D01*
X117105901Y-93473175D01*
X116843080Y-93598359D01*
X116609731Y-93772412D01*
X116414822Y-93988645D01*
X116265843Y-94238748D01*
X116168519Y-94513109D01*
X115685000Y-94513109D01*
X115685000Y-74127000D01*
X118437618Y-74127000D01*
X118394454Y-74207754D01*
G37*
G04 #@! TD.AperFunction*
G04 #@! TD*
M02*
