G04 #@! TF.GenerationSoftware,KiCad,Pcbnew,5.1.10-88a1d61d58~88~ubuntu20.04.1*
G04 #@! TF.CreationDate,2021-05-21T15:29:44+02:00*
G04 #@! TF.ProjectId,osw-light-modifiedv3,6f73772d-6c69-4676-9874-2d6d6f646966,rev?*
G04 #@! TF.SameCoordinates,Original*
G04 #@! TF.FileFunction,Copper,L3,Inr*
G04 #@! TF.FilePolarity,Positive*
%FSLAX46Y46*%
G04 Gerber Fmt 4.6, Leading zero omitted, Abs format (unit mm)*
G04 Created by KiCad (PCBNEW 5.1.10-88a1d61d58~88~ubuntu20.04.1) date 2021-05-21 15:29:44*
%MOMM*%
%LPD*%
G01*
G04 APERTURE LIST*
G04 #@! TA.AperFunction,ComponentPad*
%ADD10O,1.500000X2.000000*%
G04 #@! TD*
G04 #@! TA.AperFunction,ComponentPad*
%ADD11O,1.524000X0.600000*%
G04 #@! TD*
G04 #@! TA.AperFunction,ComponentPad*
%ADD12O,1.700000X1.700000*%
G04 #@! TD*
G04 #@! TA.AperFunction,ComponentPad*
%ADD13R,1.700000X1.700000*%
G04 #@! TD*
G04 #@! TA.AperFunction,ViaPad*
%ADD14C,0.500000*%
G04 #@! TD*
G04 #@! TA.AperFunction,Conductor*
%ADD15C,1.000000*%
G04 #@! TD*
G04 #@! TA.AperFunction,Conductor*
%ADD16C,0.400000*%
G04 #@! TD*
G04 #@! TA.AperFunction,Conductor*
%ADD17C,0.254000*%
G04 #@! TD*
G04 #@! TA.AperFunction,Conductor*
%ADD18C,0.100000*%
G04 #@! TD*
G04 APERTURE END LIST*
D10*
G04 #@! TO.N,*
G04 #@! TO.C,U12*
X153268000Y-104727000D03*
X147172000Y-104727000D03*
G04 #@! TD*
D11*
G04 #@! TO.N,*
G04 #@! TO.C,SW3*
X153786999Y-61214999D03*
X153786999Y-66294999D03*
G04 #@! TD*
G04 #@! TO.N,*
G04 #@! TO.C,SW2*
X117690000Y-64710000D03*
X117690000Y-59630000D03*
G04 #@! TD*
D12*
G04 #@! TO.N,GND*
G04 #@! TO.C,J3*
X117610000Y-94870000D03*
D13*
G04 #@! TO.N,/VBAT*
X120150000Y-94870000D03*
G04 #@! TD*
D11*
G04 #@! TO.N,*
G04 #@! TO.C,SW4*
X117323001Y-88515001D03*
X117323001Y-83435001D03*
G04 #@! TD*
G04 #@! TO.N,*
G04 #@! TO.C,SW1*
X117730000Y-72670000D03*
X117730000Y-67590000D03*
G04 #@! TD*
D14*
G04 #@! TO.N,/VBUS*
X118285000Y-100715000D03*
X136525000Y-104850000D03*
G04 #@! TO.N,GND*
X143500000Y-96575000D03*
X142950000Y-46950000D03*
X143725000Y-46925000D03*
X143700000Y-46225000D03*
X142950000Y-46250000D03*
X123250000Y-56175000D03*
X127875000Y-56200000D03*
X130975000Y-67725000D03*
X126575000Y-67225000D03*
X152300000Y-63175000D03*
X148175000Y-38875000D03*
X143300000Y-38925000D03*
X145175000Y-43875000D03*
X149525000Y-46600000D03*
X148225000Y-51525000D03*
X151025000Y-53250000D03*
X132600000Y-81700000D03*
X132600000Y-78500000D03*
X120800000Y-80300000D03*
X120700000Y-77900000D03*
X127800000Y-76300000D03*
X118400000Y-86550000D03*
X120500000Y-75800000D03*
X122025000Y-66150000D03*
X123950000Y-60075000D03*
X123000000Y-63125000D03*
X133525000Y-59375000D03*
X136875000Y-59325000D03*
X139325000Y-61150000D03*
X147500000Y-60850000D03*
X154275000Y-70125000D03*
X138760000Y-70630000D03*
X154300000Y-84600000D03*
X152200000Y-92900000D03*
X151500000Y-100450000D03*
X141975000Y-103225000D03*
X141975000Y-100150000D03*
X122500000Y-93000000D03*
X117150000Y-103675000D03*
X122725000Y-105200000D03*
X129000000Y-91000000D03*
X136275000Y-91925000D03*
X137940000Y-105120000D03*
X130775000Y-103375000D03*
X122950000Y-101800000D03*
X139980000Y-56595000D03*
X133625000Y-88825002D03*
X138500000Y-90175000D03*
X128400000Y-74100000D03*
X148750000Y-92290000D03*
G04 #@! TO.N,+3V3*
X139025000Y-87825000D03*
X149000000Y-96300000D03*
X132600000Y-79600000D03*
X119725000Y-85500000D03*
X148625000Y-67225000D03*
X153275000Y-70150000D03*
X147575000Y-88975000D03*
X153300000Y-88150000D03*
X130800000Y-85950000D03*
X130000000Y-94500000D03*
X127500000Y-90500000D03*
X134775000Y-86000000D03*
X135917500Y-90217500D03*
X126700000Y-79100000D03*
X125805765Y-80000000D03*
X145800000Y-94800000D03*
X128560101Y-66289899D03*
X130980101Y-66144899D03*
X147000000Y-66000004D03*
X144000000Y-66000000D03*
X119200000Y-61600000D03*
X119250000Y-69425000D03*
G04 #@! TO.N,/VBAT*
X130060000Y-101300000D03*
G04 #@! TO.N,/VCC*
X126075000Y-64425000D03*
X137770000Y-99860000D03*
X140280000Y-102880000D03*
X140200000Y-63750000D03*
X137000000Y-62275000D03*
X133450000Y-62300000D03*
X127375000Y-61275000D03*
X123650000Y-66425000D03*
X123625000Y-68050000D03*
X138475000Y-63775000D03*
G04 #@! TO.N,Net-(D1-Pad2)*
X125560000Y-98280000D03*
X122250000Y-98290000D03*
G04 #@! TO.N,/LEDK*
X128730765Y-81383196D03*
G04 #@! TO.N,/RTC_INT*
X129600000Y-69100000D03*
X147200000Y-70000000D03*
G04 #@! TO.N,/B_MON*
X119100000Y-91300000D03*
X145200000Y-73300000D03*
G04 #@! TO.N,/PIN_LED*
X136770000Y-73329998D03*
X125355765Y-73355765D03*
G04 #@! TO.N,/BTN2*
X120670000Y-74215000D03*
X140270000Y-73670000D03*
G04 #@! TO.N,/BTN3*
X120070000Y-67340000D03*
X137599996Y-70700000D03*
G04 #@! TO.N,/FLASH*
X141100000Y-86100000D03*
X122549990Y-85200000D03*
G04 #@! TO.N,/TX*
X151234000Y-90776000D03*
X144370000Y-90840000D03*
G04 #@! TO.N,/SDA*
X145650002Y-88959998D03*
X140100000Y-88959998D03*
G04 #@! TO.N,/SCL*
X153870000Y-90140000D03*
X137590000Y-90810000D03*
G04 #@! TO.N,/IO34*
X149170000Y-70040000D03*
X135000000Y-67300000D03*
G04 #@! TO.N,/IO35*
X148170000Y-70040000D03*
X134100000Y-68100000D03*
G04 #@! TO.N,/TFT_CS*
X145130000Y-83020000D03*
X135920000Y-76720000D03*
X135900000Y-83080000D03*
G04 #@! TO.N,/SCK*
X146150000Y-83020000D03*
X136870000Y-76050000D03*
X136850000Y-82650000D03*
G04 #@! TO.N,/MOSI*
X153280000Y-83010000D03*
G04 #@! TO.N,/RX*
X145170000Y-91540000D03*
X150270000Y-91415010D03*
G04 #@! TO.N,/TFT_RST*
X146200000Y-73200000D03*
G04 #@! TO.N,/TFT_DC*
X141090000Y-69920000D03*
X133070000Y-77430000D03*
X133020000Y-69990000D03*
G04 #@! TO.N,Net-(C2-Pad1)*
X136470000Y-42740000D03*
X137470000Y-49440000D03*
G04 #@! TO.N,+3.3VA*
X147700000Y-58800000D03*
X117500000Y-39725000D03*
X145650000Y-38900000D03*
X132875000Y-41175000D03*
X149550000Y-43850000D03*
X150975000Y-57425000D03*
X145975000Y-45150000D03*
X138380000Y-58995000D03*
X138430000Y-56570000D03*
X142699996Y-62600000D03*
X144000000Y-43900002D03*
G04 #@! TO.N,Net-(R33-Pad2)*
X128730764Y-80233196D03*
G04 #@! TO.N,/LO*
X145970000Y-48540000D03*
X141270000Y-66540000D03*
G04 #@! TD*
D15*
G04 #@! TO.N,/VBUS*
X128743999Y-102750001D02*
X130843998Y-104850000D01*
X120320001Y-102750001D02*
X128743999Y-102750001D01*
X118285000Y-100715000D02*
X120320001Y-102750001D01*
X130843998Y-104850000D02*
X136525000Y-104850000D01*
D16*
G04 #@! TO.N,+3V3*
X119200000Y-69375000D02*
X119250000Y-69425000D01*
X119200000Y-61600000D02*
X119200000Y-69375000D01*
X119250000Y-85025000D02*
X119725000Y-85500000D01*
X119250000Y-69425000D02*
X119250000Y-85025000D01*
X124725000Y-90500000D02*
X119725000Y-85500000D01*
X127500000Y-90500000D02*
X124725000Y-90500000D01*
G04 #@! TD*
D17*
G04 #@! TO.N,+3V3*
X152543813Y-60693027D02*
X152456992Y-60855459D01*
X152403528Y-61031707D01*
X152385475Y-61214999D01*
X152403528Y-61398291D01*
X152456992Y-61574539D01*
X152543813Y-61736971D01*
X152660655Y-61879343D01*
X152803027Y-61996185D01*
X152965459Y-62083006D01*
X153141707Y-62136470D01*
X153279067Y-62149999D01*
X154294931Y-62149999D01*
X154315000Y-62148022D01*
X154315000Y-65361976D01*
X154294931Y-65359999D01*
X153279067Y-65359999D01*
X153141707Y-65373528D01*
X152965459Y-65426992D01*
X152803027Y-65513813D01*
X152660655Y-65630655D01*
X152543813Y-65773027D01*
X152456992Y-65935459D01*
X152403528Y-66111707D01*
X152385475Y-66294999D01*
X152403528Y-66478291D01*
X152456992Y-66654539D01*
X152543813Y-66816971D01*
X152660655Y-66959343D01*
X152803027Y-67076185D01*
X152965459Y-67163006D01*
X153141707Y-67216470D01*
X153279067Y-67229999D01*
X154294931Y-67229999D01*
X154315000Y-67228022D01*
X154315000Y-69240000D01*
X154187835Y-69240000D01*
X154016855Y-69274010D01*
X153855795Y-69340723D01*
X153710845Y-69437576D01*
X153587576Y-69560845D01*
X153490723Y-69705795D01*
X153424010Y-69866855D01*
X153390000Y-70037835D01*
X153390000Y-70212165D01*
X153424010Y-70383145D01*
X153490723Y-70544205D01*
X153587576Y-70689155D01*
X153710845Y-70812424D01*
X153855795Y-70909277D01*
X154016855Y-70975990D01*
X154187835Y-71010000D01*
X154315000Y-71010000D01*
X154315001Y-83715000D01*
X154212835Y-83715000D01*
X154041855Y-83749010D01*
X153880795Y-83815723D01*
X153735845Y-83912576D01*
X153612576Y-84035845D01*
X153515723Y-84180795D01*
X153449010Y-84341855D01*
X153415000Y-84512835D01*
X153415000Y-84687165D01*
X153449010Y-84858145D01*
X153515723Y-85019205D01*
X153612576Y-85164155D01*
X153735845Y-85287424D01*
X153880795Y-85384277D01*
X154041855Y-85450990D01*
X154212835Y-85485000D01*
X154315001Y-85485000D01*
X154315001Y-89372959D01*
X154289205Y-89355723D01*
X154128145Y-89289010D01*
X153957165Y-89255000D01*
X153782835Y-89255000D01*
X153611855Y-89289010D01*
X153450795Y-89355723D01*
X153305845Y-89452576D01*
X153182576Y-89575845D01*
X153085723Y-89720795D01*
X153019010Y-89881855D01*
X152985000Y-90052835D01*
X152985000Y-90227165D01*
X153019010Y-90398145D01*
X153085723Y-90559205D01*
X153182576Y-90704155D01*
X153305845Y-90827424D01*
X153450795Y-90924277D01*
X153611855Y-90990990D01*
X153782835Y-91025000D01*
X153957165Y-91025000D01*
X154128145Y-90990990D01*
X154289205Y-90924277D01*
X154315001Y-90907041D01*
X154315001Y-98873000D01*
X143627000Y-98873000D01*
X143627000Y-97452076D01*
X143758145Y-97425990D01*
X143919205Y-97359277D01*
X144064155Y-97262424D01*
X144187424Y-97139155D01*
X144284277Y-96994205D01*
X144350990Y-96833145D01*
X144385000Y-96662165D01*
X144385000Y-96487835D01*
X144350990Y-96316855D01*
X144284277Y-96155795D01*
X144187424Y-96010845D01*
X144064155Y-95887576D01*
X143919205Y-95790723D01*
X143758145Y-95724010D01*
X143587165Y-95690000D01*
X143412835Y-95690000D01*
X143241855Y-95724010D01*
X143080795Y-95790723D01*
X142935845Y-95887576D01*
X142812576Y-96010845D01*
X142715723Y-96155795D01*
X142649010Y-96316855D01*
X142615000Y-96487835D01*
X142615000Y-96662165D01*
X142649010Y-96833145D01*
X142665518Y-96873000D01*
X130075392Y-96873000D01*
X127111493Y-91439186D01*
X127097486Y-91418603D01*
X127079733Y-91401149D01*
X127058916Y-91387493D01*
X127035835Y-91378161D01*
X127000000Y-91373000D01*
X125127000Y-91373000D01*
X125127000Y-90912835D01*
X128115000Y-90912835D01*
X128115000Y-91087165D01*
X128149010Y-91258145D01*
X128215723Y-91419205D01*
X128312576Y-91564155D01*
X128435845Y-91687424D01*
X128580795Y-91784277D01*
X128741855Y-91850990D01*
X128912835Y-91885000D01*
X129087165Y-91885000D01*
X129258145Y-91850990D01*
X129289904Y-91837835D01*
X135390000Y-91837835D01*
X135390000Y-92012165D01*
X135424010Y-92183145D01*
X135490723Y-92344205D01*
X135587576Y-92489155D01*
X135710845Y-92612424D01*
X135855795Y-92709277D01*
X136016855Y-92775990D01*
X136187835Y-92810000D01*
X136362165Y-92810000D01*
X136533145Y-92775990D01*
X136694205Y-92709277D01*
X136839155Y-92612424D01*
X136962424Y-92489155D01*
X137059277Y-92344205D01*
X137125990Y-92183145D01*
X137160000Y-92012165D01*
X137160000Y-91837835D01*
X137125990Y-91666855D01*
X137067277Y-91525108D01*
X137170795Y-91594277D01*
X137331855Y-91660990D01*
X137502835Y-91695000D01*
X137677165Y-91695000D01*
X137848145Y-91660990D01*
X138009205Y-91594277D01*
X138154155Y-91497424D01*
X138277424Y-91374155D01*
X138374277Y-91229205D01*
X138440990Y-91068145D01*
X138442610Y-91060000D01*
X138587165Y-91060000D01*
X138758145Y-91025990D01*
X138919205Y-90959277D01*
X139064155Y-90862424D01*
X139173744Y-90752835D01*
X143485000Y-90752835D01*
X143485000Y-90927165D01*
X143519010Y-91098145D01*
X143585723Y-91259205D01*
X143682576Y-91404155D01*
X143805845Y-91527424D01*
X143950795Y-91624277D01*
X144111855Y-91690990D01*
X144282835Y-91725000D01*
X144304461Y-91725000D01*
X144319010Y-91798145D01*
X144385723Y-91959205D01*
X144482576Y-92104155D01*
X144605845Y-92227424D01*
X144750795Y-92324277D01*
X144911855Y-92390990D01*
X145082835Y-92425000D01*
X145257165Y-92425000D01*
X145428145Y-92390990D01*
X145589205Y-92324277D01*
X145734155Y-92227424D01*
X145758744Y-92202835D01*
X147865000Y-92202835D01*
X147865000Y-92377165D01*
X147899010Y-92548145D01*
X147965723Y-92709205D01*
X148062576Y-92854155D01*
X148185845Y-92977424D01*
X148330795Y-93074277D01*
X148491855Y-93140990D01*
X148662835Y-93175000D01*
X148837165Y-93175000D01*
X149008145Y-93140990D01*
X149169205Y-93074277D01*
X149314155Y-92977424D01*
X149437424Y-92854155D01*
X149465033Y-92812835D01*
X151315000Y-92812835D01*
X151315000Y-92987165D01*
X151349010Y-93158145D01*
X151415723Y-93319205D01*
X151512576Y-93464155D01*
X151635845Y-93587424D01*
X151780795Y-93684277D01*
X151941855Y-93750990D01*
X152112835Y-93785000D01*
X152287165Y-93785000D01*
X152458145Y-93750990D01*
X152619205Y-93684277D01*
X152764155Y-93587424D01*
X152887424Y-93464155D01*
X152984277Y-93319205D01*
X153050990Y-93158145D01*
X153085000Y-92987165D01*
X153085000Y-92812835D01*
X153050990Y-92641855D01*
X152984277Y-92480795D01*
X152887424Y-92335845D01*
X152764155Y-92212576D01*
X152619205Y-92115723D01*
X152458145Y-92049010D01*
X152287165Y-92015000D01*
X152112835Y-92015000D01*
X151941855Y-92049010D01*
X151780795Y-92115723D01*
X151635845Y-92212576D01*
X151512576Y-92335845D01*
X151415723Y-92480795D01*
X151349010Y-92641855D01*
X151315000Y-92812835D01*
X149465033Y-92812835D01*
X149534277Y-92709205D01*
X149600990Y-92548145D01*
X149635000Y-92377165D01*
X149635000Y-92202835D01*
X149600990Y-92031855D01*
X149573602Y-91965735D01*
X149582576Y-91979165D01*
X149705845Y-92102434D01*
X149850795Y-92199287D01*
X150011855Y-92266000D01*
X150182835Y-92300010D01*
X150357165Y-92300010D01*
X150528145Y-92266000D01*
X150689205Y-92199287D01*
X150834155Y-92102434D01*
X150957424Y-91979165D01*
X151054277Y-91834215D01*
X151120990Y-91673155D01*
X151124299Y-91656517D01*
X151146835Y-91661000D01*
X151321165Y-91661000D01*
X151492145Y-91626990D01*
X151653205Y-91560277D01*
X151798155Y-91463424D01*
X151921424Y-91340155D01*
X152018277Y-91195205D01*
X152084990Y-91034145D01*
X152119000Y-90863165D01*
X152119000Y-90688835D01*
X152084990Y-90517855D01*
X152018277Y-90356795D01*
X151921424Y-90211845D01*
X151798155Y-90088576D01*
X151653205Y-89991723D01*
X151492145Y-89925010D01*
X151321165Y-89891000D01*
X151146835Y-89891000D01*
X150975855Y-89925010D01*
X150814795Y-89991723D01*
X150669845Y-90088576D01*
X150546576Y-90211845D01*
X150449723Y-90356795D01*
X150383010Y-90517855D01*
X150379701Y-90534493D01*
X150357165Y-90530010D01*
X150182835Y-90530010D01*
X150011855Y-90564020D01*
X149850795Y-90630733D01*
X149705845Y-90727586D01*
X149582576Y-90850855D01*
X149485723Y-90995805D01*
X149419010Y-91156865D01*
X149385000Y-91327845D01*
X149385000Y-91502175D01*
X149419010Y-91673155D01*
X149446398Y-91739275D01*
X149437424Y-91725845D01*
X149314155Y-91602576D01*
X149169205Y-91505723D01*
X149008145Y-91439010D01*
X148837165Y-91405000D01*
X148662835Y-91405000D01*
X148491855Y-91439010D01*
X148330795Y-91505723D01*
X148185845Y-91602576D01*
X148062576Y-91725845D01*
X147965723Y-91870795D01*
X147899010Y-92031855D01*
X147865000Y-92202835D01*
X145758744Y-92202835D01*
X145857424Y-92104155D01*
X145954277Y-91959205D01*
X146020990Y-91798145D01*
X146055000Y-91627165D01*
X146055000Y-91452835D01*
X146020990Y-91281855D01*
X145954277Y-91120795D01*
X145857424Y-90975845D01*
X145734155Y-90852576D01*
X145589205Y-90755723D01*
X145428145Y-90689010D01*
X145257165Y-90655000D01*
X145235539Y-90655000D01*
X145220990Y-90581855D01*
X145154277Y-90420795D01*
X145057424Y-90275845D01*
X144934155Y-90152576D01*
X144789205Y-90055723D01*
X144628145Y-89989010D01*
X144457165Y-89955000D01*
X144282835Y-89955000D01*
X144111855Y-89989010D01*
X143950795Y-90055723D01*
X143805845Y-90152576D01*
X143682576Y-90275845D01*
X143585723Y-90420795D01*
X143519010Y-90581855D01*
X143485000Y-90752835D01*
X139173744Y-90752835D01*
X139187424Y-90739155D01*
X139284277Y-90594205D01*
X139350990Y-90433145D01*
X139385000Y-90262165D01*
X139385000Y-90087835D01*
X139350990Y-89916855D01*
X139284277Y-89755795D01*
X139187424Y-89610845D01*
X139064155Y-89487576D01*
X138919205Y-89390723D01*
X138758145Y-89324010D01*
X138587165Y-89290000D01*
X138412835Y-89290000D01*
X138241855Y-89324010D01*
X138080795Y-89390723D01*
X137935845Y-89487576D01*
X137812576Y-89610845D01*
X137715723Y-89755795D01*
X137649010Y-89916855D01*
X137647390Y-89925000D01*
X137502835Y-89925000D01*
X137331855Y-89959010D01*
X137170795Y-90025723D01*
X137025845Y-90122576D01*
X136902576Y-90245845D01*
X136805723Y-90390795D01*
X136739010Y-90551855D01*
X136705000Y-90722835D01*
X136705000Y-90897165D01*
X136739010Y-91068145D01*
X136797723Y-91209892D01*
X136694205Y-91140723D01*
X136533145Y-91074010D01*
X136362165Y-91040000D01*
X136187835Y-91040000D01*
X136016855Y-91074010D01*
X135855795Y-91140723D01*
X135710845Y-91237576D01*
X135587576Y-91360845D01*
X135490723Y-91505795D01*
X135424010Y-91666855D01*
X135390000Y-91837835D01*
X129289904Y-91837835D01*
X129419205Y-91784277D01*
X129564155Y-91687424D01*
X129687424Y-91564155D01*
X129784277Y-91419205D01*
X129850990Y-91258145D01*
X129885000Y-91087165D01*
X129885000Y-90912835D01*
X129850990Y-90741855D01*
X129784277Y-90580795D01*
X129687424Y-90435845D01*
X129564155Y-90312576D01*
X129419205Y-90215723D01*
X129258145Y-90149010D01*
X129087165Y-90115000D01*
X128912835Y-90115000D01*
X128741855Y-90149010D01*
X128580795Y-90215723D01*
X128435845Y-90312576D01*
X128312576Y-90435845D01*
X128215723Y-90580795D01*
X128149010Y-90741855D01*
X128115000Y-90912835D01*
X125127000Y-90912835D01*
X125127000Y-88737837D01*
X132740000Y-88737837D01*
X132740000Y-88912167D01*
X132774010Y-89083147D01*
X132840723Y-89244207D01*
X132937576Y-89389157D01*
X133060845Y-89512426D01*
X133205795Y-89609279D01*
X133366855Y-89675992D01*
X133537835Y-89710002D01*
X133712165Y-89710002D01*
X133883145Y-89675992D01*
X134044205Y-89609279D01*
X134189155Y-89512426D01*
X134312424Y-89389157D01*
X134409277Y-89244207D01*
X134475990Y-89083147D01*
X134510000Y-88912167D01*
X134510000Y-88872833D01*
X139215000Y-88872833D01*
X139215000Y-89047163D01*
X139249010Y-89218143D01*
X139315723Y-89379203D01*
X139412576Y-89524153D01*
X139535845Y-89647422D01*
X139680795Y-89744275D01*
X139841855Y-89810988D01*
X140012835Y-89844998D01*
X140187165Y-89844998D01*
X140358145Y-89810988D01*
X140519205Y-89744275D01*
X140664155Y-89647422D01*
X140787424Y-89524153D01*
X140884277Y-89379203D01*
X140950990Y-89218143D01*
X140985000Y-89047163D01*
X140985000Y-88872833D01*
X144765002Y-88872833D01*
X144765002Y-89047163D01*
X144799012Y-89218143D01*
X144865725Y-89379203D01*
X144962578Y-89524153D01*
X145085847Y-89647422D01*
X145230797Y-89744275D01*
X145391857Y-89810988D01*
X145562837Y-89844998D01*
X145737167Y-89844998D01*
X145908147Y-89810988D01*
X146069207Y-89744275D01*
X146214157Y-89647422D01*
X146337426Y-89524153D01*
X146434279Y-89379203D01*
X146500992Y-89218143D01*
X146535002Y-89047163D01*
X146535002Y-88872833D01*
X146500992Y-88701853D01*
X146434279Y-88540793D01*
X146337426Y-88395843D01*
X146214157Y-88272574D01*
X146069207Y-88175721D01*
X145908147Y-88109008D01*
X145737167Y-88074998D01*
X145562837Y-88074998D01*
X145391857Y-88109008D01*
X145230797Y-88175721D01*
X145085847Y-88272574D01*
X144962578Y-88395843D01*
X144865725Y-88540793D01*
X144799012Y-88701853D01*
X144765002Y-88872833D01*
X140985000Y-88872833D01*
X140950990Y-88701853D01*
X140884277Y-88540793D01*
X140787424Y-88395843D01*
X140664155Y-88272574D01*
X140519205Y-88175721D01*
X140358145Y-88109008D01*
X140187165Y-88074998D01*
X140012835Y-88074998D01*
X139841855Y-88109008D01*
X139680795Y-88175721D01*
X139535845Y-88272574D01*
X139412576Y-88395843D01*
X139315723Y-88540793D01*
X139249010Y-88701853D01*
X139215000Y-88872833D01*
X134510000Y-88872833D01*
X134510000Y-88737837D01*
X134475990Y-88566857D01*
X134409277Y-88405797D01*
X134312424Y-88260847D01*
X134189155Y-88137578D01*
X134044205Y-88040725D01*
X133883145Y-87974012D01*
X133712165Y-87940002D01*
X133537835Y-87940002D01*
X133366855Y-87974012D01*
X133205795Y-88040725D01*
X133060845Y-88137578D01*
X132937576Y-88260847D01*
X132840723Y-88405797D01*
X132774010Y-88566857D01*
X132740000Y-88737837D01*
X125127000Y-88737837D01*
X125127000Y-86012835D01*
X140215000Y-86012835D01*
X140215000Y-86187165D01*
X140249010Y-86358145D01*
X140315723Y-86519205D01*
X140412576Y-86664155D01*
X140535845Y-86787424D01*
X140680795Y-86884277D01*
X140841855Y-86950990D01*
X141012835Y-86985000D01*
X141187165Y-86985000D01*
X141358145Y-86950990D01*
X141519205Y-86884277D01*
X141664155Y-86787424D01*
X141787424Y-86664155D01*
X141884277Y-86519205D01*
X141950990Y-86358145D01*
X141985000Y-86187165D01*
X141985000Y-86012835D01*
X141950990Y-85841855D01*
X141884277Y-85680795D01*
X141787424Y-85535845D01*
X141664155Y-85412576D01*
X141519205Y-85315723D01*
X141358145Y-85249010D01*
X141187165Y-85215000D01*
X141012835Y-85215000D01*
X140841855Y-85249010D01*
X140680795Y-85315723D01*
X140535845Y-85412576D01*
X140412576Y-85535845D01*
X140315723Y-85680795D01*
X140249010Y-85841855D01*
X140215000Y-86012835D01*
X125127000Y-86012835D01*
X125127000Y-82992835D01*
X135015000Y-82992835D01*
X135015000Y-83167165D01*
X135049010Y-83338145D01*
X135115723Y-83499205D01*
X135212576Y-83644155D01*
X135335845Y-83767424D01*
X135480795Y-83864277D01*
X135641855Y-83930990D01*
X135812835Y-83965000D01*
X135987165Y-83965000D01*
X136158145Y-83930990D01*
X136319205Y-83864277D01*
X136464155Y-83767424D01*
X136587424Y-83644155D01*
X136672382Y-83517008D01*
X136762835Y-83535000D01*
X136937165Y-83535000D01*
X137108145Y-83500990D01*
X137269205Y-83434277D01*
X137414155Y-83337424D01*
X137537424Y-83214155D01*
X137634277Y-83069205D01*
X137690763Y-82932835D01*
X144245000Y-82932835D01*
X144245000Y-83107165D01*
X144279010Y-83278145D01*
X144345723Y-83439205D01*
X144442576Y-83584155D01*
X144565845Y-83707424D01*
X144710795Y-83804277D01*
X144871855Y-83870990D01*
X145042835Y-83905000D01*
X145217165Y-83905000D01*
X145388145Y-83870990D01*
X145549205Y-83804277D01*
X145640000Y-83743609D01*
X145730795Y-83804277D01*
X145891855Y-83870990D01*
X146062835Y-83905000D01*
X146237165Y-83905000D01*
X146408145Y-83870990D01*
X146569205Y-83804277D01*
X146714155Y-83707424D01*
X146837424Y-83584155D01*
X146934277Y-83439205D01*
X147000990Y-83278145D01*
X147035000Y-83107165D01*
X147035000Y-82932835D01*
X147033011Y-82922835D01*
X152395000Y-82922835D01*
X152395000Y-83097165D01*
X152429010Y-83268145D01*
X152495723Y-83429205D01*
X152592576Y-83574155D01*
X152715845Y-83697424D01*
X152860795Y-83794277D01*
X153021855Y-83860990D01*
X153192835Y-83895000D01*
X153367165Y-83895000D01*
X153538145Y-83860990D01*
X153699205Y-83794277D01*
X153844155Y-83697424D01*
X153967424Y-83574155D01*
X154064277Y-83429205D01*
X154130990Y-83268145D01*
X154165000Y-83097165D01*
X154165000Y-82922835D01*
X154130990Y-82751855D01*
X154064277Y-82590795D01*
X153967424Y-82445845D01*
X153844155Y-82322576D01*
X153699205Y-82225723D01*
X153538145Y-82159010D01*
X153367165Y-82125000D01*
X153192835Y-82125000D01*
X153021855Y-82159010D01*
X152860795Y-82225723D01*
X152715845Y-82322576D01*
X152592576Y-82445845D01*
X152495723Y-82590795D01*
X152429010Y-82751855D01*
X152395000Y-82922835D01*
X147033011Y-82922835D01*
X147000990Y-82761855D01*
X146934277Y-82600795D01*
X146837424Y-82455845D01*
X146714155Y-82332576D01*
X146569205Y-82235723D01*
X146408145Y-82169010D01*
X146237165Y-82135000D01*
X146062835Y-82135000D01*
X145891855Y-82169010D01*
X145730795Y-82235723D01*
X145640000Y-82296391D01*
X145549205Y-82235723D01*
X145388145Y-82169010D01*
X145217165Y-82135000D01*
X145042835Y-82135000D01*
X144871855Y-82169010D01*
X144710795Y-82235723D01*
X144565845Y-82332576D01*
X144442576Y-82455845D01*
X144345723Y-82600795D01*
X144279010Y-82761855D01*
X144245000Y-82932835D01*
X137690763Y-82932835D01*
X137700990Y-82908145D01*
X137735000Y-82737165D01*
X137735000Y-82562835D01*
X137700990Y-82391855D01*
X137634277Y-82230795D01*
X137537424Y-82085845D01*
X137414155Y-81962576D01*
X137269205Y-81865723D01*
X137108145Y-81799010D01*
X136937165Y-81765000D01*
X136762835Y-81765000D01*
X136591855Y-81799010D01*
X136430795Y-81865723D01*
X136285845Y-81962576D01*
X136162576Y-82085845D01*
X136077618Y-82212992D01*
X135987165Y-82195000D01*
X135812835Y-82195000D01*
X135641855Y-82229010D01*
X135480795Y-82295723D01*
X135335845Y-82392576D01*
X135212576Y-82515845D01*
X135115723Y-82660795D01*
X135049010Y-82821855D01*
X135015000Y-82992835D01*
X125127000Y-82992835D01*
X125127000Y-80146031D01*
X127845764Y-80146031D01*
X127845764Y-80320361D01*
X127879774Y-80491341D01*
X127946487Y-80652401D01*
X128043340Y-80797351D01*
X128054186Y-80808197D01*
X128043341Y-80819041D01*
X127946488Y-80963991D01*
X127879775Y-81125051D01*
X127845765Y-81296031D01*
X127845765Y-81470361D01*
X127879775Y-81641341D01*
X127946488Y-81802401D01*
X128043341Y-81947351D01*
X128166610Y-82070620D01*
X128311560Y-82167473D01*
X128472620Y-82234186D01*
X128643600Y-82268196D01*
X128817930Y-82268196D01*
X128988910Y-82234186D01*
X129149970Y-82167473D01*
X129294920Y-82070620D01*
X129418189Y-81947351D01*
X129515042Y-81802401D01*
X129581755Y-81641341D01*
X129587425Y-81612835D01*
X131715000Y-81612835D01*
X131715000Y-81787165D01*
X131749010Y-81958145D01*
X131815723Y-82119205D01*
X131912576Y-82264155D01*
X132035845Y-82387424D01*
X132180795Y-82484277D01*
X132341855Y-82550990D01*
X132512835Y-82585000D01*
X132687165Y-82585000D01*
X132858145Y-82550990D01*
X133019205Y-82484277D01*
X133164155Y-82387424D01*
X133287424Y-82264155D01*
X133384277Y-82119205D01*
X133450990Y-81958145D01*
X133485000Y-81787165D01*
X133485000Y-81612835D01*
X133450990Y-81441855D01*
X133384277Y-81280795D01*
X133287424Y-81135845D01*
X133164155Y-81012576D01*
X133019205Y-80915723D01*
X132858145Y-80849010D01*
X132687165Y-80815000D01*
X132512835Y-80815000D01*
X132341855Y-80849010D01*
X132180795Y-80915723D01*
X132035845Y-81012576D01*
X131912576Y-81135845D01*
X131815723Y-81280795D01*
X131749010Y-81441855D01*
X131715000Y-81612835D01*
X129587425Y-81612835D01*
X129615765Y-81470361D01*
X129615765Y-81296031D01*
X129581755Y-81125051D01*
X129515042Y-80963991D01*
X129418189Y-80819041D01*
X129407344Y-80808196D01*
X129418188Y-80797351D01*
X129515041Y-80652401D01*
X129581754Y-80491341D01*
X129615764Y-80320361D01*
X129615764Y-80146031D01*
X129581754Y-79975051D01*
X129515041Y-79813991D01*
X129418188Y-79669041D01*
X129294919Y-79545772D01*
X129149969Y-79448919D01*
X128988909Y-79382206D01*
X128817929Y-79348196D01*
X128643599Y-79348196D01*
X128472619Y-79382206D01*
X128311559Y-79448919D01*
X128166609Y-79545772D01*
X128043340Y-79669041D01*
X127946487Y-79813991D01*
X127879774Y-79975051D01*
X127845764Y-80146031D01*
X125127000Y-80146031D01*
X125127000Y-78412835D01*
X131715000Y-78412835D01*
X131715000Y-78587165D01*
X131749010Y-78758145D01*
X131815723Y-78919205D01*
X131912576Y-79064155D01*
X132035845Y-79187424D01*
X132180795Y-79284277D01*
X132341855Y-79350990D01*
X132512835Y-79385000D01*
X132687165Y-79385000D01*
X132858145Y-79350990D01*
X133019205Y-79284277D01*
X133164155Y-79187424D01*
X133287424Y-79064155D01*
X133384277Y-78919205D01*
X133450990Y-78758145D01*
X133485000Y-78587165D01*
X133485000Y-78412835D01*
X133450990Y-78241855D01*
X133446836Y-78231827D01*
X133489205Y-78214277D01*
X133634155Y-78117424D01*
X133757424Y-77994155D01*
X133854277Y-77849205D01*
X133920990Y-77688145D01*
X133955000Y-77517165D01*
X133955000Y-77342835D01*
X133920990Y-77171855D01*
X133854277Y-77010795D01*
X133757424Y-76865845D01*
X133634155Y-76742576D01*
X133489205Y-76645723D01*
X133458091Y-76632835D01*
X135035000Y-76632835D01*
X135035000Y-76807165D01*
X135069010Y-76978145D01*
X135135723Y-77139205D01*
X135232576Y-77284155D01*
X135355845Y-77407424D01*
X135500795Y-77504277D01*
X135661855Y-77570990D01*
X135832835Y-77605000D01*
X136007165Y-77605000D01*
X136178145Y-77570990D01*
X136339205Y-77504277D01*
X136484155Y-77407424D01*
X136607424Y-77284155D01*
X136704277Y-77139205D01*
X136770990Y-76978145D01*
X136779696Y-76934376D01*
X136782835Y-76935000D01*
X136957165Y-76935000D01*
X137128145Y-76900990D01*
X137289205Y-76834277D01*
X137434155Y-76737424D01*
X137557424Y-76614155D01*
X137654277Y-76469205D01*
X137720990Y-76308145D01*
X137755000Y-76137165D01*
X137755000Y-75962835D01*
X137720990Y-75791855D01*
X137654277Y-75630795D01*
X137557424Y-75485845D01*
X137434155Y-75362576D01*
X137289205Y-75265723D01*
X137128145Y-75199010D01*
X136957165Y-75165000D01*
X136782835Y-75165000D01*
X136611855Y-75199010D01*
X136450795Y-75265723D01*
X136305845Y-75362576D01*
X136182576Y-75485845D01*
X136085723Y-75630795D01*
X136019010Y-75791855D01*
X136010304Y-75835624D01*
X136007165Y-75835000D01*
X135832835Y-75835000D01*
X135661855Y-75869010D01*
X135500795Y-75935723D01*
X135355845Y-76032576D01*
X135232576Y-76155845D01*
X135135723Y-76300795D01*
X135069010Y-76461855D01*
X135035000Y-76632835D01*
X133458091Y-76632835D01*
X133328145Y-76579010D01*
X133157165Y-76545000D01*
X132982835Y-76545000D01*
X132811855Y-76579010D01*
X132650795Y-76645723D01*
X132505845Y-76742576D01*
X132382576Y-76865845D01*
X132285723Y-77010795D01*
X132219010Y-77171855D01*
X132185000Y-77342835D01*
X132185000Y-77517165D01*
X132219010Y-77688145D01*
X132223164Y-77698173D01*
X132180795Y-77715723D01*
X132035845Y-77812576D01*
X131912576Y-77935845D01*
X131815723Y-78080795D01*
X131749010Y-78241855D01*
X131715000Y-78412835D01*
X125127000Y-78412835D01*
X125127000Y-76212835D01*
X126915000Y-76212835D01*
X126915000Y-76387165D01*
X126949010Y-76558145D01*
X127015723Y-76719205D01*
X127112576Y-76864155D01*
X127235845Y-76987424D01*
X127380795Y-77084277D01*
X127541855Y-77150990D01*
X127712835Y-77185000D01*
X127887165Y-77185000D01*
X128058145Y-77150990D01*
X128219205Y-77084277D01*
X128364155Y-76987424D01*
X128487424Y-76864155D01*
X128584277Y-76719205D01*
X128650990Y-76558145D01*
X128685000Y-76387165D01*
X128685000Y-76212835D01*
X128650990Y-76041855D01*
X128584277Y-75880795D01*
X128487424Y-75735845D01*
X128364155Y-75612576D01*
X128219205Y-75515723D01*
X128058145Y-75449010D01*
X127887165Y-75415000D01*
X127712835Y-75415000D01*
X127541855Y-75449010D01*
X127380795Y-75515723D01*
X127235845Y-75612576D01*
X127112576Y-75735845D01*
X127015723Y-75880795D01*
X126949010Y-76041855D01*
X126915000Y-76212835D01*
X125127000Y-76212835D01*
X125127000Y-74212599D01*
X125268600Y-74240765D01*
X125442930Y-74240765D01*
X125613910Y-74206755D01*
X125774970Y-74140042D01*
X125919920Y-74043189D01*
X125950274Y-74012835D01*
X127515000Y-74012835D01*
X127515000Y-74187165D01*
X127549010Y-74358145D01*
X127615723Y-74519205D01*
X127712576Y-74664155D01*
X127835845Y-74787424D01*
X127980795Y-74884277D01*
X128141855Y-74950990D01*
X128312835Y-74985000D01*
X128487165Y-74985000D01*
X128658145Y-74950990D01*
X128819205Y-74884277D01*
X128964155Y-74787424D01*
X129087424Y-74664155D01*
X129184277Y-74519205D01*
X129250990Y-74358145D01*
X129285000Y-74187165D01*
X129285000Y-74012835D01*
X129250990Y-73841855D01*
X129184277Y-73680795D01*
X129087424Y-73535845D01*
X128964155Y-73412576D01*
X128819205Y-73315723D01*
X128658145Y-73249010D01*
X128627092Y-73242833D01*
X135885000Y-73242833D01*
X135885000Y-73417163D01*
X135919010Y-73588143D01*
X135985723Y-73749203D01*
X136082576Y-73894153D01*
X136205845Y-74017422D01*
X136350795Y-74114275D01*
X136511855Y-74180988D01*
X136682835Y-74214998D01*
X136857165Y-74214998D01*
X137028145Y-74180988D01*
X137189205Y-74114275D01*
X137334155Y-74017422D01*
X137457424Y-73894153D01*
X137554277Y-73749203D01*
X137620990Y-73588143D01*
X137622045Y-73582835D01*
X139385000Y-73582835D01*
X139385000Y-73757165D01*
X139419010Y-73928145D01*
X139485723Y-74089205D01*
X139582576Y-74234155D01*
X139705845Y-74357424D01*
X139850795Y-74454277D01*
X140011855Y-74520990D01*
X140182835Y-74555000D01*
X140357165Y-74555000D01*
X140528145Y-74520990D01*
X140689205Y-74454277D01*
X140834155Y-74357424D01*
X140957424Y-74234155D01*
X141054277Y-74089205D01*
X141120990Y-73928145D01*
X141155000Y-73757165D01*
X141155000Y-73582835D01*
X141120990Y-73411855D01*
X141054277Y-73250795D01*
X141028913Y-73212835D01*
X144315000Y-73212835D01*
X144315000Y-73387165D01*
X144349010Y-73558145D01*
X144415723Y-73719205D01*
X144512576Y-73864155D01*
X144635845Y-73987424D01*
X144780795Y-74084277D01*
X144941855Y-74150990D01*
X145112835Y-74185000D01*
X145287165Y-74185000D01*
X145458145Y-74150990D01*
X145619205Y-74084277D01*
X145764155Y-73987424D01*
X145772707Y-73978872D01*
X145780795Y-73984277D01*
X145941855Y-74050990D01*
X146112835Y-74085000D01*
X146287165Y-74085000D01*
X146458145Y-74050990D01*
X146619205Y-73984277D01*
X146764155Y-73887424D01*
X146887424Y-73764155D01*
X146984277Y-73619205D01*
X147050990Y-73458145D01*
X147085000Y-73287165D01*
X147085000Y-73112835D01*
X147050990Y-72941855D01*
X146984277Y-72780795D01*
X146887424Y-72635845D01*
X146764155Y-72512576D01*
X146619205Y-72415723D01*
X146458145Y-72349010D01*
X146287165Y-72315000D01*
X146112835Y-72315000D01*
X145941855Y-72349010D01*
X145780795Y-72415723D01*
X145635845Y-72512576D01*
X145627293Y-72521128D01*
X145619205Y-72515723D01*
X145458145Y-72449010D01*
X145287165Y-72415000D01*
X145112835Y-72415000D01*
X144941855Y-72449010D01*
X144780795Y-72515723D01*
X144635845Y-72612576D01*
X144512576Y-72735845D01*
X144415723Y-72880795D01*
X144349010Y-73041855D01*
X144315000Y-73212835D01*
X141028913Y-73212835D01*
X140957424Y-73105845D01*
X140834155Y-72982576D01*
X140689205Y-72885723D01*
X140528145Y-72819010D01*
X140357165Y-72785000D01*
X140182835Y-72785000D01*
X140011855Y-72819010D01*
X139850795Y-72885723D01*
X139705845Y-72982576D01*
X139582576Y-73105845D01*
X139485723Y-73250795D01*
X139419010Y-73411855D01*
X139385000Y-73582835D01*
X137622045Y-73582835D01*
X137655000Y-73417163D01*
X137655000Y-73242833D01*
X137620990Y-73071853D01*
X137554277Y-72910793D01*
X137457424Y-72765843D01*
X137334155Y-72642574D01*
X137189205Y-72545721D01*
X137028145Y-72479008D01*
X136857165Y-72444998D01*
X136682835Y-72444998D01*
X136511855Y-72479008D01*
X136350795Y-72545721D01*
X136205845Y-72642574D01*
X136082576Y-72765843D01*
X135985723Y-72910793D01*
X135919010Y-73071853D01*
X135885000Y-73242833D01*
X128627092Y-73242833D01*
X128487165Y-73215000D01*
X128312835Y-73215000D01*
X128141855Y-73249010D01*
X127980795Y-73315723D01*
X127835845Y-73412576D01*
X127712576Y-73535845D01*
X127615723Y-73680795D01*
X127549010Y-73841855D01*
X127515000Y-74012835D01*
X125950274Y-74012835D01*
X126043189Y-73919920D01*
X126140042Y-73774970D01*
X126206755Y-73613910D01*
X126240765Y-73442930D01*
X126240765Y-73268600D01*
X126206755Y-73097620D01*
X126140042Y-72936560D01*
X126043189Y-72791610D01*
X125919920Y-72668341D01*
X125774970Y-72571488D01*
X125613910Y-72504775D01*
X125442930Y-72470765D01*
X125268600Y-72470765D01*
X125127000Y-72498931D01*
X125127000Y-71127000D01*
X127000000Y-71127000D01*
X127024776Y-71124560D01*
X127048601Y-71117333D01*
X127070557Y-71105597D01*
X127089803Y-71089803D01*
X127105597Y-71070557D01*
X127117333Y-71048601D01*
X127124560Y-71024776D01*
X127127000Y-71000000D01*
X127127000Y-69012835D01*
X128715000Y-69012835D01*
X128715000Y-69187165D01*
X128749010Y-69358145D01*
X128815723Y-69519205D01*
X128912576Y-69664155D01*
X129035845Y-69787424D01*
X129180795Y-69884277D01*
X129341855Y-69950990D01*
X129512835Y-69985000D01*
X129687165Y-69985000D01*
X129858145Y-69950990D01*
X129974401Y-69902835D01*
X132135000Y-69902835D01*
X132135000Y-70077165D01*
X132169010Y-70248145D01*
X132235723Y-70409205D01*
X132332576Y-70554155D01*
X132455845Y-70677424D01*
X132600795Y-70774277D01*
X132761855Y-70840990D01*
X132932835Y-70875000D01*
X133107165Y-70875000D01*
X133278145Y-70840990D01*
X133439205Y-70774277D01*
X133584155Y-70677424D01*
X133648744Y-70612835D01*
X136714996Y-70612835D01*
X136714996Y-70787165D01*
X136749006Y-70958145D01*
X136815719Y-71119205D01*
X136912572Y-71264155D01*
X137035841Y-71387424D01*
X137180791Y-71484277D01*
X137341851Y-71550990D01*
X137512831Y-71585000D01*
X137687161Y-71585000D01*
X137858141Y-71550990D01*
X138019201Y-71484277D01*
X138164151Y-71387424D01*
X138218808Y-71332767D01*
X138340795Y-71414277D01*
X138501855Y-71480990D01*
X138672835Y-71515000D01*
X138847165Y-71515000D01*
X139018145Y-71480990D01*
X139179205Y-71414277D01*
X139324155Y-71317424D01*
X139447424Y-71194155D01*
X139544277Y-71049205D01*
X139610990Y-70888145D01*
X139645000Y-70717165D01*
X139645000Y-70542835D01*
X139610990Y-70371855D01*
X139544277Y-70210795D01*
X139447424Y-70065845D01*
X139324155Y-69942576D01*
X139179205Y-69845723D01*
X139148091Y-69832835D01*
X140205000Y-69832835D01*
X140205000Y-70007165D01*
X140239010Y-70178145D01*
X140305723Y-70339205D01*
X140402576Y-70484155D01*
X140525845Y-70607424D01*
X140670795Y-70704277D01*
X140831855Y-70770990D01*
X141002835Y-70805000D01*
X141177165Y-70805000D01*
X141348145Y-70770990D01*
X141509205Y-70704277D01*
X141654155Y-70607424D01*
X141777424Y-70484155D01*
X141874277Y-70339205D01*
X141940990Y-70178145D01*
X141975000Y-70007165D01*
X141975000Y-69912835D01*
X146315000Y-69912835D01*
X146315000Y-70087165D01*
X146349010Y-70258145D01*
X146415723Y-70419205D01*
X146512576Y-70564155D01*
X146635845Y-70687424D01*
X146780795Y-70784277D01*
X146941855Y-70850990D01*
X147112835Y-70885000D01*
X147287165Y-70885000D01*
X147458145Y-70850990D01*
X147619205Y-70784277D01*
X147655068Y-70760314D01*
X147750795Y-70824277D01*
X147911855Y-70890990D01*
X148082835Y-70925000D01*
X148257165Y-70925000D01*
X148428145Y-70890990D01*
X148589205Y-70824277D01*
X148670000Y-70770291D01*
X148750795Y-70824277D01*
X148911855Y-70890990D01*
X149082835Y-70925000D01*
X149257165Y-70925000D01*
X149428145Y-70890990D01*
X149589205Y-70824277D01*
X149734155Y-70727424D01*
X149857424Y-70604155D01*
X149954277Y-70459205D01*
X150020990Y-70298145D01*
X150055000Y-70127165D01*
X150055000Y-69952835D01*
X150020990Y-69781855D01*
X149954277Y-69620795D01*
X149857424Y-69475845D01*
X149734155Y-69352576D01*
X149589205Y-69255723D01*
X149428145Y-69189010D01*
X149257165Y-69155000D01*
X149082835Y-69155000D01*
X148911855Y-69189010D01*
X148750795Y-69255723D01*
X148670000Y-69309709D01*
X148589205Y-69255723D01*
X148428145Y-69189010D01*
X148257165Y-69155000D01*
X148082835Y-69155000D01*
X147911855Y-69189010D01*
X147750795Y-69255723D01*
X147714932Y-69279686D01*
X147619205Y-69215723D01*
X147458145Y-69149010D01*
X147287165Y-69115000D01*
X147112835Y-69115000D01*
X146941855Y-69149010D01*
X146780795Y-69215723D01*
X146635845Y-69312576D01*
X146512576Y-69435845D01*
X146415723Y-69580795D01*
X146349010Y-69741855D01*
X146315000Y-69912835D01*
X141975000Y-69912835D01*
X141975000Y-69832835D01*
X141940990Y-69661855D01*
X141874277Y-69500795D01*
X141777424Y-69355845D01*
X141654155Y-69232576D01*
X141509205Y-69135723D01*
X141348145Y-69069010D01*
X141177165Y-69035000D01*
X141002835Y-69035000D01*
X140831855Y-69069010D01*
X140670795Y-69135723D01*
X140525845Y-69232576D01*
X140402576Y-69355845D01*
X140305723Y-69500795D01*
X140239010Y-69661855D01*
X140205000Y-69832835D01*
X139148091Y-69832835D01*
X139018145Y-69779010D01*
X138847165Y-69745000D01*
X138672835Y-69745000D01*
X138501855Y-69779010D01*
X138340795Y-69845723D01*
X138195845Y-69942576D01*
X138141188Y-69997233D01*
X138019201Y-69915723D01*
X137858141Y-69849010D01*
X137687161Y-69815000D01*
X137512831Y-69815000D01*
X137341851Y-69849010D01*
X137180791Y-69915723D01*
X137035841Y-70012576D01*
X136912572Y-70135845D01*
X136815719Y-70280795D01*
X136749006Y-70441855D01*
X136714996Y-70612835D01*
X133648744Y-70612835D01*
X133707424Y-70554155D01*
X133804277Y-70409205D01*
X133870990Y-70248145D01*
X133905000Y-70077165D01*
X133905000Y-69902835D01*
X133870990Y-69731855D01*
X133804277Y-69570795D01*
X133707424Y-69425845D01*
X133584155Y-69302576D01*
X133439205Y-69205723D01*
X133278145Y-69139010D01*
X133107165Y-69105000D01*
X132932835Y-69105000D01*
X132761855Y-69139010D01*
X132600795Y-69205723D01*
X132455845Y-69302576D01*
X132332576Y-69425845D01*
X132235723Y-69570795D01*
X132169010Y-69731855D01*
X132135000Y-69902835D01*
X129974401Y-69902835D01*
X130019205Y-69884277D01*
X130164155Y-69787424D01*
X130287424Y-69664155D01*
X130384277Y-69519205D01*
X130450990Y-69358145D01*
X130485000Y-69187165D01*
X130485000Y-69012835D01*
X130450990Y-68841855D01*
X130384277Y-68680795D01*
X130287424Y-68535845D01*
X130164155Y-68412576D01*
X130019205Y-68315723D01*
X129858145Y-68249010D01*
X129687165Y-68215000D01*
X129512835Y-68215000D01*
X129341855Y-68249010D01*
X129180795Y-68315723D01*
X129035845Y-68412576D01*
X128912576Y-68535845D01*
X128815723Y-68680795D01*
X128749010Y-68841855D01*
X128715000Y-69012835D01*
X127127000Y-69012835D01*
X127127000Y-67920546D01*
X127139155Y-67912424D01*
X127262424Y-67789155D01*
X127359277Y-67644205D01*
X127361915Y-67637835D01*
X130090000Y-67637835D01*
X130090000Y-67812165D01*
X130124010Y-67983145D01*
X130190723Y-68144205D01*
X130287576Y-68289155D01*
X130410845Y-68412424D01*
X130555795Y-68509277D01*
X130716855Y-68575990D01*
X130887835Y-68610000D01*
X131062165Y-68610000D01*
X131233145Y-68575990D01*
X131394205Y-68509277D01*
X131539155Y-68412424D01*
X131662424Y-68289155D01*
X131759277Y-68144205D01*
X131813692Y-68012835D01*
X133215000Y-68012835D01*
X133215000Y-68187165D01*
X133249010Y-68358145D01*
X133315723Y-68519205D01*
X133412576Y-68664155D01*
X133535845Y-68787424D01*
X133680795Y-68884277D01*
X133841855Y-68950990D01*
X134012835Y-68985000D01*
X134187165Y-68985000D01*
X134358145Y-68950990D01*
X134519205Y-68884277D01*
X134664155Y-68787424D01*
X134787424Y-68664155D01*
X134884277Y-68519205D01*
X134950990Y-68358145D01*
X134985000Y-68187165D01*
X134985000Y-68185000D01*
X135087165Y-68185000D01*
X135258145Y-68150990D01*
X135419205Y-68084277D01*
X135564155Y-67987424D01*
X135687424Y-67864155D01*
X135784277Y-67719205D01*
X135850990Y-67558145D01*
X135885000Y-67387165D01*
X135885000Y-67212835D01*
X135850990Y-67041855D01*
X135784277Y-66880795D01*
X135687424Y-66735845D01*
X135564155Y-66612576D01*
X135419205Y-66515723D01*
X135258145Y-66449010D01*
X135087165Y-66415000D01*
X134912835Y-66415000D01*
X134741855Y-66449010D01*
X134580795Y-66515723D01*
X134435845Y-66612576D01*
X134312576Y-66735845D01*
X134215723Y-66880795D01*
X134149010Y-67041855D01*
X134115000Y-67212835D01*
X134115000Y-67215000D01*
X134012835Y-67215000D01*
X133841855Y-67249010D01*
X133680795Y-67315723D01*
X133535845Y-67412576D01*
X133412576Y-67535845D01*
X133315723Y-67680795D01*
X133249010Y-67841855D01*
X133215000Y-68012835D01*
X131813692Y-68012835D01*
X131825990Y-67983145D01*
X131860000Y-67812165D01*
X131860000Y-67637835D01*
X131825990Y-67466855D01*
X131759277Y-67305795D01*
X131662424Y-67160845D01*
X131539155Y-67037576D01*
X131394205Y-66940723D01*
X131233145Y-66874010D01*
X131062165Y-66840000D01*
X130887835Y-66840000D01*
X130716855Y-66874010D01*
X130555795Y-66940723D01*
X130410845Y-67037576D01*
X130287576Y-67160845D01*
X130190723Y-67305795D01*
X130124010Y-67466855D01*
X130090000Y-67637835D01*
X127361915Y-67637835D01*
X127425990Y-67483145D01*
X127460000Y-67312165D01*
X127460000Y-67137835D01*
X127425990Y-66966855D01*
X127359277Y-66805795D01*
X127262424Y-66660845D01*
X127139155Y-66537576D01*
X127127000Y-66529454D01*
X127127000Y-66127000D01*
X140483153Y-66127000D01*
X140419010Y-66281855D01*
X140385000Y-66452835D01*
X140385000Y-66627165D01*
X140419010Y-66798145D01*
X140485723Y-66959205D01*
X140582576Y-67104155D01*
X140705845Y-67227424D01*
X140850795Y-67324277D01*
X141011855Y-67390990D01*
X141182835Y-67425000D01*
X141357165Y-67425000D01*
X141528145Y-67390990D01*
X141689205Y-67324277D01*
X141834155Y-67227424D01*
X141957424Y-67104155D01*
X142054277Y-66959205D01*
X142120990Y-66798145D01*
X142155000Y-66627165D01*
X142155000Y-66452835D01*
X142120990Y-66281855D01*
X142054277Y-66120795D01*
X142051079Y-66116009D01*
X142070557Y-66105597D01*
X142089803Y-66089803D01*
X142552606Y-65627000D01*
X149500000Y-65627000D01*
X149524776Y-65624560D01*
X149548601Y-65617333D01*
X149570557Y-65605597D01*
X149589803Y-65589803D01*
X149605597Y-65570557D01*
X149617333Y-65548601D01*
X149624560Y-65524776D01*
X149627000Y-65500000D01*
X149627000Y-63087835D01*
X151415000Y-63087835D01*
X151415000Y-63262165D01*
X151449010Y-63433145D01*
X151515723Y-63594205D01*
X151612576Y-63739155D01*
X151735845Y-63862424D01*
X151880795Y-63959277D01*
X152041855Y-64025990D01*
X152212835Y-64060000D01*
X152387165Y-64060000D01*
X152558145Y-64025990D01*
X152719205Y-63959277D01*
X152864155Y-63862424D01*
X152987424Y-63739155D01*
X153084277Y-63594205D01*
X153150990Y-63433145D01*
X153185000Y-63262165D01*
X153185000Y-63087835D01*
X153150990Y-62916855D01*
X153084277Y-62755795D01*
X152987424Y-62610845D01*
X152864155Y-62487576D01*
X152719205Y-62390723D01*
X152558145Y-62324010D01*
X152387165Y-62290000D01*
X152212835Y-62290000D01*
X152041855Y-62324010D01*
X151880795Y-62390723D01*
X151735845Y-62487576D01*
X151612576Y-62610845D01*
X151515723Y-62755795D01*
X151449010Y-62916855D01*
X151415000Y-63087835D01*
X149627000Y-63087835D01*
X149627000Y-60627000D01*
X152598000Y-60627000D01*
X152543813Y-60693027D01*
G04 #@! TA.AperFunction,Conductor*
D18*
G36*
X152543813Y-60693027D02*
G01*
X152456992Y-60855459D01*
X152403528Y-61031707D01*
X152385475Y-61214999D01*
X152403528Y-61398291D01*
X152456992Y-61574539D01*
X152543813Y-61736971D01*
X152660655Y-61879343D01*
X152803027Y-61996185D01*
X152965459Y-62083006D01*
X153141707Y-62136470D01*
X153279067Y-62149999D01*
X154294931Y-62149999D01*
X154315000Y-62148022D01*
X154315000Y-65361976D01*
X154294931Y-65359999D01*
X153279067Y-65359999D01*
X153141707Y-65373528D01*
X152965459Y-65426992D01*
X152803027Y-65513813D01*
X152660655Y-65630655D01*
X152543813Y-65773027D01*
X152456992Y-65935459D01*
X152403528Y-66111707D01*
X152385475Y-66294999D01*
X152403528Y-66478291D01*
X152456992Y-66654539D01*
X152543813Y-66816971D01*
X152660655Y-66959343D01*
X152803027Y-67076185D01*
X152965459Y-67163006D01*
X153141707Y-67216470D01*
X153279067Y-67229999D01*
X154294931Y-67229999D01*
X154315000Y-67228022D01*
X154315000Y-69240000D01*
X154187835Y-69240000D01*
X154016855Y-69274010D01*
X153855795Y-69340723D01*
X153710845Y-69437576D01*
X153587576Y-69560845D01*
X153490723Y-69705795D01*
X153424010Y-69866855D01*
X153390000Y-70037835D01*
X153390000Y-70212165D01*
X153424010Y-70383145D01*
X153490723Y-70544205D01*
X153587576Y-70689155D01*
X153710845Y-70812424D01*
X153855795Y-70909277D01*
X154016855Y-70975990D01*
X154187835Y-71010000D01*
X154315000Y-71010000D01*
X154315001Y-83715000D01*
X154212835Y-83715000D01*
X154041855Y-83749010D01*
X153880795Y-83815723D01*
X153735845Y-83912576D01*
X153612576Y-84035845D01*
X153515723Y-84180795D01*
X153449010Y-84341855D01*
X153415000Y-84512835D01*
X153415000Y-84687165D01*
X153449010Y-84858145D01*
X153515723Y-85019205D01*
X153612576Y-85164155D01*
X153735845Y-85287424D01*
X153880795Y-85384277D01*
X154041855Y-85450990D01*
X154212835Y-85485000D01*
X154315001Y-85485000D01*
X154315001Y-89372959D01*
X154289205Y-89355723D01*
X154128145Y-89289010D01*
X153957165Y-89255000D01*
X153782835Y-89255000D01*
X153611855Y-89289010D01*
X153450795Y-89355723D01*
X153305845Y-89452576D01*
X153182576Y-89575845D01*
X153085723Y-89720795D01*
X153019010Y-89881855D01*
X152985000Y-90052835D01*
X152985000Y-90227165D01*
X153019010Y-90398145D01*
X153085723Y-90559205D01*
X153182576Y-90704155D01*
X153305845Y-90827424D01*
X153450795Y-90924277D01*
X153611855Y-90990990D01*
X153782835Y-91025000D01*
X153957165Y-91025000D01*
X154128145Y-90990990D01*
X154289205Y-90924277D01*
X154315001Y-90907041D01*
X154315001Y-98873000D01*
X143627000Y-98873000D01*
X143627000Y-97452076D01*
X143758145Y-97425990D01*
X143919205Y-97359277D01*
X144064155Y-97262424D01*
X144187424Y-97139155D01*
X144284277Y-96994205D01*
X144350990Y-96833145D01*
X144385000Y-96662165D01*
X144385000Y-96487835D01*
X144350990Y-96316855D01*
X144284277Y-96155795D01*
X144187424Y-96010845D01*
X144064155Y-95887576D01*
X143919205Y-95790723D01*
X143758145Y-95724010D01*
X143587165Y-95690000D01*
X143412835Y-95690000D01*
X143241855Y-95724010D01*
X143080795Y-95790723D01*
X142935845Y-95887576D01*
X142812576Y-96010845D01*
X142715723Y-96155795D01*
X142649010Y-96316855D01*
X142615000Y-96487835D01*
X142615000Y-96662165D01*
X142649010Y-96833145D01*
X142665518Y-96873000D01*
X130075392Y-96873000D01*
X127111493Y-91439186D01*
X127097486Y-91418603D01*
X127079733Y-91401149D01*
X127058916Y-91387493D01*
X127035835Y-91378161D01*
X127000000Y-91373000D01*
X125127000Y-91373000D01*
X125127000Y-90912835D01*
X128115000Y-90912835D01*
X128115000Y-91087165D01*
X128149010Y-91258145D01*
X128215723Y-91419205D01*
X128312576Y-91564155D01*
X128435845Y-91687424D01*
X128580795Y-91784277D01*
X128741855Y-91850990D01*
X128912835Y-91885000D01*
X129087165Y-91885000D01*
X129258145Y-91850990D01*
X129289904Y-91837835D01*
X135390000Y-91837835D01*
X135390000Y-92012165D01*
X135424010Y-92183145D01*
X135490723Y-92344205D01*
X135587576Y-92489155D01*
X135710845Y-92612424D01*
X135855795Y-92709277D01*
X136016855Y-92775990D01*
X136187835Y-92810000D01*
X136362165Y-92810000D01*
X136533145Y-92775990D01*
X136694205Y-92709277D01*
X136839155Y-92612424D01*
X136962424Y-92489155D01*
X137059277Y-92344205D01*
X137125990Y-92183145D01*
X137160000Y-92012165D01*
X137160000Y-91837835D01*
X137125990Y-91666855D01*
X137067277Y-91525108D01*
X137170795Y-91594277D01*
X137331855Y-91660990D01*
X137502835Y-91695000D01*
X137677165Y-91695000D01*
X137848145Y-91660990D01*
X138009205Y-91594277D01*
X138154155Y-91497424D01*
X138277424Y-91374155D01*
X138374277Y-91229205D01*
X138440990Y-91068145D01*
X138442610Y-91060000D01*
X138587165Y-91060000D01*
X138758145Y-91025990D01*
X138919205Y-90959277D01*
X139064155Y-90862424D01*
X139173744Y-90752835D01*
X143485000Y-90752835D01*
X143485000Y-90927165D01*
X143519010Y-91098145D01*
X143585723Y-91259205D01*
X143682576Y-91404155D01*
X143805845Y-91527424D01*
X143950795Y-91624277D01*
X144111855Y-91690990D01*
X144282835Y-91725000D01*
X144304461Y-91725000D01*
X144319010Y-91798145D01*
X144385723Y-91959205D01*
X144482576Y-92104155D01*
X144605845Y-92227424D01*
X144750795Y-92324277D01*
X144911855Y-92390990D01*
X145082835Y-92425000D01*
X145257165Y-92425000D01*
X145428145Y-92390990D01*
X145589205Y-92324277D01*
X145734155Y-92227424D01*
X145758744Y-92202835D01*
X147865000Y-92202835D01*
X147865000Y-92377165D01*
X147899010Y-92548145D01*
X147965723Y-92709205D01*
X148062576Y-92854155D01*
X148185845Y-92977424D01*
X148330795Y-93074277D01*
X148491855Y-93140990D01*
X148662835Y-93175000D01*
X148837165Y-93175000D01*
X149008145Y-93140990D01*
X149169205Y-93074277D01*
X149314155Y-92977424D01*
X149437424Y-92854155D01*
X149465033Y-92812835D01*
X151315000Y-92812835D01*
X151315000Y-92987165D01*
X151349010Y-93158145D01*
X151415723Y-93319205D01*
X151512576Y-93464155D01*
X151635845Y-93587424D01*
X151780795Y-93684277D01*
X151941855Y-93750990D01*
X152112835Y-93785000D01*
X152287165Y-93785000D01*
X152458145Y-93750990D01*
X152619205Y-93684277D01*
X152764155Y-93587424D01*
X152887424Y-93464155D01*
X152984277Y-93319205D01*
X153050990Y-93158145D01*
X153085000Y-92987165D01*
X153085000Y-92812835D01*
X153050990Y-92641855D01*
X152984277Y-92480795D01*
X152887424Y-92335845D01*
X152764155Y-92212576D01*
X152619205Y-92115723D01*
X152458145Y-92049010D01*
X152287165Y-92015000D01*
X152112835Y-92015000D01*
X151941855Y-92049010D01*
X151780795Y-92115723D01*
X151635845Y-92212576D01*
X151512576Y-92335845D01*
X151415723Y-92480795D01*
X151349010Y-92641855D01*
X151315000Y-92812835D01*
X149465033Y-92812835D01*
X149534277Y-92709205D01*
X149600990Y-92548145D01*
X149635000Y-92377165D01*
X149635000Y-92202835D01*
X149600990Y-92031855D01*
X149573602Y-91965735D01*
X149582576Y-91979165D01*
X149705845Y-92102434D01*
X149850795Y-92199287D01*
X150011855Y-92266000D01*
X150182835Y-92300010D01*
X150357165Y-92300010D01*
X150528145Y-92266000D01*
X150689205Y-92199287D01*
X150834155Y-92102434D01*
X150957424Y-91979165D01*
X151054277Y-91834215D01*
X151120990Y-91673155D01*
X151124299Y-91656517D01*
X151146835Y-91661000D01*
X151321165Y-91661000D01*
X151492145Y-91626990D01*
X151653205Y-91560277D01*
X151798155Y-91463424D01*
X151921424Y-91340155D01*
X152018277Y-91195205D01*
X152084990Y-91034145D01*
X152119000Y-90863165D01*
X152119000Y-90688835D01*
X152084990Y-90517855D01*
X152018277Y-90356795D01*
X151921424Y-90211845D01*
X151798155Y-90088576D01*
X151653205Y-89991723D01*
X151492145Y-89925010D01*
X151321165Y-89891000D01*
X151146835Y-89891000D01*
X150975855Y-89925010D01*
X150814795Y-89991723D01*
X150669845Y-90088576D01*
X150546576Y-90211845D01*
X150449723Y-90356795D01*
X150383010Y-90517855D01*
X150379701Y-90534493D01*
X150357165Y-90530010D01*
X150182835Y-90530010D01*
X150011855Y-90564020D01*
X149850795Y-90630733D01*
X149705845Y-90727586D01*
X149582576Y-90850855D01*
X149485723Y-90995805D01*
X149419010Y-91156865D01*
X149385000Y-91327845D01*
X149385000Y-91502175D01*
X149419010Y-91673155D01*
X149446398Y-91739275D01*
X149437424Y-91725845D01*
X149314155Y-91602576D01*
X149169205Y-91505723D01*
X149008145Y-91439010D01*
X148837165Y-91405000D01*
X148662835Y-91405000D01*
X148491855Y-91439010D01*
X148330795Y-91505723D01*
X148185845Y-91602576D01*
X148062576Y-91725845D01*
X147965723Y-91870795D01*
X147899010Y-92031855D01*
X147865000Y-92202835D01*
X145758744Y-92202835D01*
X145857424Y-92104155D01*
X145954277Y-91959205D01*
X146020990Y-91798145D01*
X146055000Y-91627165D01*
X146055000Y-91452835D01*
X146020990Y-91281855D01*
X145954277Y-91120795D01*
X145857424Y-90975845D01*
X145734155Y-90852576D01*
X145589205Y-90755723D01*
X145428145Y-90689010D01*
X145257165Y-90655000D01*
X145235539Y-90655000D01*
X145220990Y-90581855D01*
X145154277Y-90420795D01*
X145057424Y-90275845D01*
X144934155Y-90152576D01*
X144789205Y-90055723D01*
X144628145Y-89989010D01*
X144457165Y-89955000D01*
X144282835Y-89955000D01*
X144111855Y-89989010D01*
X143950795Y-90055723D01*
X143805845Y-90152576D01*
X143682576Y-90275845D01*
X143585723Y-90420795D01*
X143519010Y-90581855D01*
X143485000Y-90752835D01*
X139173744Y-90752835D01*
X139187424Y-90739155D01*
X139284277Y-90594205D01*
X139350990Y-90433145D01*
X139385000Y-90262165D01*
X139385000Y-90087835D01*
X139350990Y-89916855D01*
X139284277Y-89755795D01*
X139187424Y-89610845D01*
X139064155Y-89487576D01*
X138919205Y-89390723D01*
X138758145Y-89324010D01*
X138587165Y-89290000D01*
X138412835Y-89290000D01*
X138241855Y-89324010D01*
X138080795Y-89390723D01*
X137935845Y-89487576D01*
X137812576Y-89610845D01*
X137715723Y-89755795D01*
X137649010Y-89916855D01*
X137647390Y-89925000D01*
X137502835Y-89925000D01*
X137331855Y-89959010D01*
X137170795Y-90025723D01*
X137025845Y-90122576D01*
X136902576Y-90245845D01*
X136805723Y-90390795D01*
X136739010Y-90551855D01*
X136705000Y-90722835D01*
X136705000Y-90897165D01*
X136739010Y-91068145D01*
X136797723Y-91209892D01*
X136694205Y-91140723D01*
X136533145Y-91074010D01*
X136362165Y-91040000D01*
X136187835Y-91040000D01*
X136016855Y-91074010D01*
X135855795Y-91140723D01*
X135710845Y-91237576D01*
X135587576Y-91360845D01*
X135490723Y-91505795D01*
X135424010Y-91666855D01*
X135390000Y-91837835D01*
X129289904Y-91837835D01*
X129419205Y-91784277D01*
X129564155Y-91687424D01*
X129687424Y-91564155D01*
X129784277Y-91419205D01*
X129850990Y-91258145D01*
X129885000Y-91087165D01*
X129885000Y-90912835D01*
X129850990Y-90741855D01*
X129784277Y-90580795D01*
X129687424Y-90435845D01*
X129564155Y-90312576D01*
X129419205Y-90215723D01*
X129258145Y-90149010D01*
X129087165Y-90115000D01*
X128912835Y-90115000D01*
X128741855Y-90149010D01*
X128580795Y-90215723D01*
X128435845Y-90312576D01*
X128312576Y-90435845D01*
X128215723Y-90580795D01*
X128149010Y-90741855D01*
X128115000Y-90912835D01*
X125127000Y-90912835D01*
X125127000Y-88737837D01*
X132740000Y-88737837D01*
X132740000Y-88912167D01*
X132774010Y-89083147D01*
X132840723Y-89244207D01*
X132937576Y-89389157D01*
X133060845Y-89512426D01*
X133205795Y-89609279D01*
X133366855Y-89675992D01*
X133537835Y-89710002D01*
X133712165Y-89710002D01*
X133883145Y-89675992D01*
X134044205Y-89609279D01*
X134189155Y-89512426D01*
X134312424Y-89389157D01*
X134409277Y-89244207D01*
X134475990Y-89083147D01*
X134510000Y-88912167D01*
X134510000Y-88872833D01*
X139215000Y-88872833D01*
X139215000Y-89047163D01*
X139249010Y-89218143D01*
X139315723Y-89379203D01*
X139412576Y-89524153D01*
X139535845Y-89647422D01*
X139680795Y-89744275D01*
X139841855Y-89810988D01*
X140012835Y-89844998D01*
X140187165Y-89844998D01*
X140358145Y-89810988D01*
X140519205Y-89744275D01*
X140664155Y-89647422D01*
X140787424Y-89524153D01*
X140884277Y-89379203D01*
X140950990Y-89218143D01*
X140985000Y-89047163D01*
X140985000Y-88872833D01*
X144765002Y-88872833D01*
X144765002Y-89047163D01*
X144799012Y-89218143D01*
X144865725Y-89379203D01*
X144962578Y-89524153D01*
X145085847Y-89647422D01*
X145230797Y-89744275D01*
X145391857Y-89810988D01*
X145562837Y-89844998D01*
X145737167Y-89844998D01*
X145908147Y-89810988D01*
X146069207Y-89744275D01*
X146214157Y-89647422D01*
X146337426Y-89524153D01*
X146434279Y-89379203D01*
X146500992Y-89218143D01*
X146535002Y-89047163D01*
X146535002Y-88872833D01*
X146500992Y-88701853D01*
X146434279Y-88540793D01*
X146337426Y-88395843D01*
X146214157Y-88272574D01*
X146069207Y-88175721D01*
X145908147Y-88109008D01*
X145737167Y-88074998D01*
X145562837Y-88074998D01*
X145391857Y-88109008D01*
X145230797Y-88175721D01*
X145085847Y-88272574D01*
X144962578Y-88395843D01*
X144865725Y-88540793D01*
X144799012Y-88701853D01*
X144765002Y-88872833D01*
X140985000Y-88872833D01*
X140950990Y-88701853D01*
X140884277Y-88540793D01*
X140787424Y-88395843D01*
X140664155Y-88272574D01*
X140519205Y-88175721D01*
X140358145Y-88109008D01*
X140187165Y-88074998D01*
X140012835Y-88074998D01*
X139841855Y-88109008D01*
X139680795Y-88175721D01*
X139535845Y-88272574D01*
X139412576Y-88395843D01*
X139315723Y-88540793D01*
X139249010Y-88701853D01*
X139215000Y-88872833D01*
X134510000Y-88872833D01*
X134510000Y-88737837D01*
X134475990Y-88566857D01*
X134409277Y-88405797D01*
X134312424Y-88260847D01*
X134189155Y-88137578D01*
X134044205Y-88040725D01*
X133883145Y-87974012D01*
X133712165Y-87940002D01*
X133537835Y-87940002D01*
X133366855Y-87974012D01*
X133205795Y-88040725D01*
X133060845Y-88137578D01*
X132937576Y-88260847D01*
X132840723Y-88405797D01*
X132774010Y-88566857D01*
X132740000Y-88737837D01*
X125127000Y-88737837D01*
X125127000Y-86012835D01*
X140215000Y-86012835D01*
X140215000Y-86187165D01*
X140249010Y-86358145D01*
X140315723Y-86519205D01*
X140412576Y-86664155D01*
X140535845Y-86787424D01*
X140680795Y-86884277D01*
X140841855Y-86950990D01*
X141012835Y-86985000D01*
X141187165Y-86985000D01*
X141358145Y-86950990D01*
X141519205Y-86884277D01*
X141664155Y-86787424D01*
X141787424Y-86664155D01*
X141884277Y-86519205D01*
X141950990Y-86358145D01*
X141985000Y-86187165D01*
X141985000Y-86012835D01*
X141950990Y-85841855D01*
X141884277Y-85680795D01*
X141787424Y-85535845D01*
X141664155Y-85412576D01*
X141519205Y-85315723D01*
X141358145Y-85249010D01*
X141187165Y-85215000D01*
X141012835Y-85215000D01*
X140841855Y-85249010D01*
X140680795Y-85315723D01*
X140535845Y-85412576D01*
X140412576Y-85535845D01*
X140315723Y-85680795D01*
X140249010Y-85841855D01*
X140215000Y-86012835D01*
X125127000Y-86012835D01*
X125127000Y-82992835D01*
X135015000Y-82992835D01*
X135015000Y-83167165D01*
X135049010Y-83338145D01*
X135115723Y-83499205D01*
X135212576Y-83644155D01*
X135335845Y-83767424D01*
X135480795Y-83864277D01*
X135641855Y-83930990D01*
X135812835Y-83965000D01*
X135987165Y-83965000D01*
X136158145Y-83930990D01*
X136319205Y-83864277D01*
X136464155Y-83767424D01*
X136587424Y-83644155D01*
X136672382Y-83517008D01*
X136762835Y-83535000D01*
X136937165Y-83535000D01*
X137108145Y-83500990D01*
X137269205Y-83434277D01*
X137414155Y-83337424D01*
X137537424Y-83214155D01*
X137634277Y-83069205D01*
X137690763Y-82932835D01*
X144245000Y-82932835D01*
X144245000Y-83107165D01*
X144279010Y-83278145D01*
X144345723Y-83439205D01*
X144442576Y-83584155D01*
X144565845Y-83707424D01*
X144710795Y-83804277D01*
X144871855Y-83870990D01*
X145042835Y-83905000D01*
X145217165Y-83905000D01*
X145388145Y-83870990D01*
X145549205Y-83804277D01*
X145640000Y-83743609D01*
X145730795Y-83804277D01*
X145891855Y-83870990D01*
X146062835Y-83905000D01*
X146237165Y-83905000D01*
X146408145Y-83870990D01*
X146569205Y-83804277D01*
X146714155Y-83707424D01*
X146837424Y-83584155D01*
X146934277Y-83439205D01*
X147000990Y-83278145D01*
X147035000Y-83107165D01*
X147035000Y-82932835D01*
X147033011Y-82922835D01*
X152395000Y-82922835D01*
X152395000Y-83097165D01*
X152429010Y-83268145D01*
X152495723Y-83429205D01*
X152592576Y-83574155D01*
X152715845Y-83697424D01*
X152860795Y-83794277D01*
X153021855Y-83860990D01*
X153192835Y-83895000D01*
X153367165Y-83895000D01*
X153538145Y-83860990D01*
X153699205Y-83794277D01*
X153844155Y-83697424D01*
X153967424Y-83574155D01*
X154064277Y-83429205D01*
X154130990Y-83268145D01*
X154165000Y-83097165D01*
X154165000Y-82922835D01*
X154130990Y-82751855D01*
X154064277Y-82590795D01*
X153967424Y-82445845D01*
X153844155Y-82322576D01*
X153699205Y-82225723D01*
X153538145Y-82159010D01*
X153367165Y-82125000D01*
X153192835Y-82125000D01*
X153021855Y-82159010D01*
X152860795Y-82225723D01*
X152715845Y-82322576D01*
X152592576Y-82445845D01*
X152495723Y-82590795D01*
X152429010Y-82751855D01*
X152395000Y-82922835D01*
X147033011Y-82922835D01*
X147000990Y-82761855D01*
X146934277Y-82600795D01*
X146837424Y-82455845D01*
X146714155Y-82332576D01*
X146569205Y-82235723D01*
X146408145Y-82169010D01*
X146237165Y-82135000D01*
X146062835Y-82135000D01*
X145891855Y-82169010D01*
X145730795Y-82235723D01*
X145640000Y-82296391D01*
X145549205Y-82235723D01*
X145388145Y-82169010D01*
X145217165Y-82135000D01*
X145042835Y-82135000D01*
X144871855Y-82169010D01*
X144710795Y-82235723D01*
X144565845Y-82332576D01*
X144442576Y-82455845D01*
X144345723Y-82600795D01*
X144279010Y-82761855D01*
X144245000Y-82932835D01*
X137690763Y-82932835D01*
X137700990Y-82908145D01*
X137735000Y-82737165D01*
X137735000Y-82562835D01*
X137700990Y-82391855D01*
X137634277Y-82230795D01*
X137537424Y-82085845D01*
X137414155Y-81962576D01*
X137269205Y-81865723D01*
X137108145Y-81799010D01*
X136937165Y-81765000D01*
X136762835Y-81765000D01*
X136591855Y-81799010D01*
X136430795Y-81865723D01*
X136285845Y-81962576D01*
X136162576Y-82085845D01*
X136077618Y-82212992D01*
X135987165Y-82195000D01*
X135812835Y-82195000D01*
X135641855Y-82229010D01*
X135480795Y-82295723D01*
X135335845Y-82392576D01*
X135212576Y-82515845D01*
X135115723Y-82660795D01*
X135049010Y-82821855D01*
X135015000Y-82992835D01*
X125127000Y-82992835D01*
X125127000Y-80146031D01*
X127845764Y-80146031D01*
X127845764Y-80320361D01*
X127879774Y-80491341D01*
X127946487Y-80652401D01*
X128043340Y-80797351D01*
X128054186Y-80808197D01*
X128043341Y-80819041D01*
X127946488Y-80963991D01*
X127879775Y-81125051D01*
X127845765Y-81296031D01*
X127845765Y-81470361D01*
X127879775Y-81641341D01*
X127946488Y-81802401D01*
X128043341Y-81947351D01*
X128166610Y-82070620D01*
X128311560Y-82167473D01*
X128472620Y-82234186D01*
X128643600Y-82268196D01*
X128817930Y-82268196D01*
X128988910Y-82234186D01*
X129149970Y-82167473D01*
X129294920Y-82070620D01*
X129418189Y-81947351D01*
X129515042Y-81802401D01*
X129581755Y-81641341D01*
X129587425Y-81612835D01*
X131715000Y-81612835D01*
X131715000Y-81787165D01*
X131749010Y-81958145D01*
X131815723Y-82119205D01*
X131912576Y-82264155D01*
X132035845Y-82387424D01*
X132180795Y-82484277D01*
X132341855Y-82550990D01*
X132512835Y-82585000D01*
X132687165Y-82585000D01*
X132858145Y-82550990D01*
X133019205Y-82484277D01*
X133164155Y-82387424D01*
X133287424Y-82264155D01*
X133384277Y-82119205D01*
X133450990Y-81958145D01*
X133485000Y-81787165D01*
X133485000Y-81612835D01*
X133450990Y-81441855D01*
X133384277Y-81280795D01*
X133287424Y-81135845D01*
X133164155Y-81012576D01*
X133019205Y-80915723D01*
X132858145Y-80849010D01*
X132687165Y-80815000D01*
X132512835Y-80815000D01*
X132341855Y-80849010D01*
X132180795Y-80915723D01*
X132035845Y-81012576D01*
X131912576Y-81135845D01*
X131815723Y-81280795D01*
X131749010Y-81441855D01*
X131715000Y-81612835D01*
X129587425Y-81612835D01*
X129615765Y-81470361D01*
X129615765Y-81296031D01*
X129581755Y-81125051D01*
X129515042Y-80963991D01*
X129418189Y-80819041D01*
X129407344Y-80808196D01*
X129418188Y-80797351D01*
X129515041Y-80652401D01*
X129581754Y-80491341D01*
X129615764Y-80320361D01*
X129615764Y-80146031D01*
X129581754Y-79975051D01*
X129515041Y-79813991D01*
X129418188Y-79669041D01*
X129294919Y-79545772D01*
X129149969Y-79448919D01*
X128988909Y-79382206D01*
X128817929Y-79348196D01*
X128643599Y-79348196D01*
X128472619Y-79382206D01*
X128311559Y-79448919D01*
X128166609Y-79545772D01*
X128043340Y-79669041D01*
X127946487Y-79813991D01*
X127879774Y-79975051D01*
X127845764Y-80146031D01*
X125127000Y-80146031D01*
X125127000Y-78412835D01*
X131715000Y-78412835D01*
X131715000Y-78587165D01*
X131749010Y-78758145D01*
X131815723Y-78919205D01*
X131912576Y-79064155D01*
X132035845Y-79187424D01*
X132180795Y-79284277D01*
X132341855Y-79350990D01*
X132512835Y-79385000D01*
X132687165Y-79385000D01*
X132858145Y-79350990D01*
X133019205Y-79284277D01*
X133164155Y-79187424D01*
X133287424Y-79064155D01*
X133384277Y-78919205D01*
X133450990Y-78758145D01*
X133485000Y-78587165D01*
X133485000Y-78412835D01*
X133450990Y-78241855D01*
X133446836Y-78231827D01*
X133489205Y-78214277D01*
X133634155Y-78117424D01*
X133757424Y-77994155D01*
X133854277Y-77849205D01*
X133920990Y-77688145D01*
X133955000Y-77517165D01*
X133955000Y-77342835D01*
X133920990Y-77171855D01*
X133854277Y-77010795D01*
X133757424Y-76865845D01*
X133634155Y-76742576D01*
X133489205Y-76645723D01*
X133458091Y-76632835D01*
X135035000Y-76632835D01*
X135035000Y-76807165D01*
X135069010Y-76978145D01*
X135135723Y-77139205D01*
X135232576Y-77284155D01*
X135355845Y-77407424D01*
X135500795Y-77504277D01*
X135661855Y-77570990D01*
X135832835Y-77605000D01*
X136007165Y-77605000D01*
X136178145Y-77570990D01*
X136339205Y-77504277D01*
X136484155Y-77407424D01*
X136607424Y-77284155D01*
X136704277Y-77139205D01*
X136770990Y-76978145D01*
X136779696Y-76934376D01*
X136782835Y-76935000D01*
X136957165Y-76935000D01*
X137128145Y-76900990D01*
X137289205Y-76834277D01*
X137434155Y-76737424D01*
X137557424Y-76614155D01*
X137654277Y-76469205D01*
X137720990Y-76308145D01*
X137755000Y-76137165D01*
X137755000Y-75962835D01*
X137720990Y-75791855D01*
X137654277Y-75630795D01*
X137557424Y-75485845D01*
X137434155Y-75362576D01*
X137289205Y-75265723D01*
X137128145Y-75199010D01*
X136957165Y-75165000D01*
X136782835Y-75165000D01*
X136611855Y-75199010D01*
X136450795Y-75265723D01*
X136305845Y-75362576D01*
X136182576Y-75485845D01*
X136085723Y-75630795D01*
X136019010Y-75791855D01*
X136010304Y-75835624D01*
X136007165Y-75835000D01*
X135832835Y-75835000D01*
X135661855Y-75869010D01*
X135500795Y-75935723D01*
X135355845Y-76032576D01*
X135232576Y-76155845D01*
X135135723Y-76300795D01*
X135069010Y-76461855D01*
X135035000Y-76632835D01*
X133458091Y-76632835D01*
X133328145Y-76579010D01*
X133157165Y-76545000D01*
X132982835Y-76545000D01*
X132811855Y-76579010D01*
X132650795Y-76645723D01*
X132505845Y-76742576D01*
X132382576Y-76865845D01*
X132285723Y-77010795D01*
X132219010Y-77171855D01*
X132185000Y-77342835D01*
X132185000Y-77517165D01*
X132219010Y-77688145D01*
X132223164Y-77698173D01*
X132180795Y-77715723D01*
X132035845Y-77812576D01*
X131912576Y-77935845D01*
X131815723Y-78080795D01*
X131749010Y-78241855D01*
X131715000Y-78412835D01*
X125127000Y-78412835D01*
X125127000Y-76212835D01*
X126915000Y-76212835D01*
X126915000Y-76387165D01*
X126949010Y-76558145D01*
X127015723Y-76719205D01*
X127112576Y-76864155D01*
X127235845Y-76987424D01*
X127380795Y-77084277D01*
X127541855Y-77150990D01*
X127712835Y-77185000D01*
X127887165Y-77185000D01*
X128058145Y-77150990D01*
X128219205Y-77084277D01*
X128364155Y-76987424D01*
X128487424Y-76864155D01*
X128584277Y-76719205D01*
X128650990Y-76558145D01*
X128685000Y-76387165D01*
X128685000Y-76212835D01*
X128650990Y-76041855D01*
X128584277Y-75880795D01*
X128487424Y-75735845D01*
X128364155Y-75612576D01*
X128219205Y-75515723D01*
X128058145Y-75449010D01*
X127887165Y-75415000D01*
X127712835Y-75415000D01*
X127541855Y-75449010D01*
X127380795Y-75515723D01*
X127235845Y-75612576D01*
X127112576Y-75735845D01*
X127015723Y-75880795D01*
X126949010Y-76041855D01*
X126915000Y-76212835D01*
X125127000Y-76212835D01*
X125127000Y-74212599D01*
X125268600Y-74240765D01*
X125442930Y-74240765D01*
X125613910Y-74206755D01*
X125774970Y-74140042D01*
X125919920Y-74043189D01*
X125950274Y-74012835D01*
X127515000Y-74012835D01*
X127515000Y-74187165D01*
X127549010Y-74358145D01*
X127615723Y-74519205D01*
X127712576Y-74664155D01*
X127835845Y-74787424D01*
X127980795Y-74884277D01*
X128141855Y-74950990D01*
X128312835Y-74985000D01*
X128487165Y-74985000D01*
X128658145Y-74950990D01*
X128819205Y-74884277D01*
X128964155Y-74787424D01*
X129087424Y-74664155D01*
X129184277Y-74519205D01*
X129250990Y-74358145D01*
X129285000Y-74187165D01*
X129285000Y-74012835D01*
X129250990Y-73841855D01*
X129184277Y-73680795D01*
X129087424Y-73535845D01*
X128964155Y-73412576D01*
X128819205Y-73315723D01*
X128658145Y-73249010D01*
X128627092Y-73242833D01*
X135885000Y-73242833D01*
X135885000Y-73417163D01*
X135919010Y-73588143D01*
X135985723Y-73749203D01*
X136082576Y-73894153D01*
X136205845Y-74017422D01*
X136350795Y-74114275D01*
X136511855Y-74180988D01*
X136682835Y-74214998D01*
X136857165Y-74214998D01*
X137028145Y-74180988D01*
X137189205Y-74114275D01*
X137334155Y-74017422D01*
X137457424Y-73894153D01*
X137554277Y-73749203D01*
X137620990Y-73588143D01*
X137622045Y-73582835D01*
X139385000Y-73582835D01*
X139385000Y-73757165D01*
X139419010Y-73928145D01*
X139485723Y-74089205D01*
X139582576Y-74234155D01*
X139705845Y-74357424D01*
X139850795Y-74454277D01*
X140011855Y-74520990D01*
X140182835Y-74555000D01*
X140357165Y-74555000D01*
X140528145Y-74520990D01*
X140689205Y-74454277D01*
X140834155Y-74357424D01*
X140957424Y-74234155D01*
X141054277Y-74089205D01*
X141120990Y-73928145D01*
X141155000Y-73757165D01*
X141155000Y-73582835D01*
X141120990Y-73411855D01*
X141054277Y-73250795D01*
X141028913Y-73212835D01*
X144315000Y-73212835D01*
X144315000Y-73387165D01*
X144349010Y-73558145D01*
X144415723Y-73719205D01*
X144512576Y-73864155D01*
X144635845Y-73987424D01*
X144780795Y-74084277D01*
X144941855Y-74150990D01*
X145112835Y-74185000D01*
X145287165Y-74185000D01*
X145458145Y-74150990D01*
X145619205Y-74084277D01*
X145764155Y-73987424D01*
X145772707Y-73978872D01*
X145780795Y-73984277D01*
X145941855Y-74050990D01*
X146112835Y-74085000D01*
X146287165Y-74085000D01*
X146458145Y-74050990D01*
X146619205Y-73984277D01*
X146764155Y-73887424D01*
X146887424Y-73764155D01*
X146984277Y-73619205D01*
X147050990Y-73458145D01*
X147085000Y-73287165D01*
X147085000Y-73112835D01*
X147050990Y-72941855D01*
X146984277Y-72780795D01*
X146887424Y-72635845D01*
X146764155Y-72512576D01*
X146619205Y-72415723D01*
X146458145Y-72349010D01*
X146287165Y-72315000D01*
X146112835Y-72315000D01*
X145941855Y-72349010D01*
X145780795Y-72415723D01*
X145635845Y-72512576D01*
X145627293Y-72521128D01*
X145619205Y-72515723D01*
X145458145Y-72449010D01*
X145287165Y-72415000D01*
X145112835Y-72415000D01*
X144941855Y-72449010D01*
X144780795Y-72515723D01*
X144635845Y-72612576D01*
X144512576Y-72735845D01*
X144415723Y-72880795D01*
X144349010Y-73041855D01*
X144315000Y-73212835D01*
X141028913Y-73212835D01*
X140957424Y-73105845D01*
X140834155Y-72982576D01*
X140689205Y-72885723D01*
X140528145Y-72819010D01*
X140357165Y-72785000D01*
X140182835Y-72785000D01*
X140011855Y-72819010D01*
X139850795Y-72885723D01*
X139705845Y-72982576D01*
X139582576Y-73105845D01*
X139485723Y-73250795D01*
X139419010Y-73411855D01*
X139385000Y-73582835D01*
X137622045Y-73582835D01*
X137655000Y-73417163D01*
X137655000Y-73242833D01*
X137620990Y-73071853D01*
X137554277Y-72910793D01*
X137457424Y-72765843D01*
X137334155Y-72642574D01*
X137189205Y-72545721D01*
X137028145Y-72479008D01*
X136857165Y-72444998D01*
X136682835Y-72444998D01*
X136511855Y-72479008D01*
X136350795Y-72545721D01*
X136205845Y-72642574D01*
X136082576Y-72765843D01*
X135985723Y-72910793D01*
X135919010Y-73071853D01*
X135885000Y-73242833D01*
X128627092Y-73242833D01*
X128487165Y-73215000D01*
X128312835Y-73215000D01*
X128141855Y-73249010D01*
X127980795Y-73315723D01*
X127835845Y-73412576D01*
X127712576Y-73535845D01*
X127615723Y-73680795D01*
X127549010Y-73841855D01*
X127515000Y-74012835D01*
X125950274Y-74012835D01*
X126043189Y-73919920D01*
X126140042Y-73774970D01*
X126206755Y-73613910D01*
X126240765Y-73442930D01*
X126240765Y-73268600D01*
X126206755Y-73097620D01*
X126140042Y-72936560D01*
X126043189Y-72791610D01*
X125919920Y-72668341D01*
X125774970Y-72571488D01*
X125613910Y-72504775D01*
X125442930Y-72470765D01*
X125268600Y-72470765D01*
X125127000Y-72498931D01*
X125127000Y-71127000D01*
X127000000Y-71127000D01*
X127024776Y-71124560D01*
X127048601Y-71117333D01*
X127070557Y-71105597D01*
X127089803Y-71089803D01*
X127105597Y-71070557D01*
X127117333Y-71048601D01*
X127124560Y-71024776D01*
X127127000Y-71000000D01*
X127127000Y-69012835D01*
X128715000Y-69012835D01*
X128715000Y-69187165D01*
X128749010Y-69358145D01*
X128815723Y-69519205D01*
X128912576Y-69664155D01*
X129035845Y-69787424D01*
X129180795Y-69884277D01*
X129341855Y-69950990D01*
X129512835Y-69985000D01*
X129687165Y-69985000D01*
X129858145Y-69950990D01*
X129974401Y-69902835D01*
X132135000Y-69902835D01*
X132135000Y-70077165D01*
X132169010Y-70248145D01*
X132235723Y-70409205D01*
X132332576Y-70554155D01*
X132455845Y-70677424D01*
X132600795Y-70774277D01*
X132761855Y-70840990D01*
X132932835Y-70875000D01*
X133107165Y-70875000D01*
X133278145Y-70840990D01*
X133439205Y-70774277D01*
X133584155Y-70677424D01*
X133648744Y-70612835D01*
X136714996Y-70612835D01*
X136714996Y-70787165D01*
X136749006Y-70958145D01*
X136815719Y-71119205D01*
X136912572Y-71264155D01*
X137035841Y-71387424D01*
X137180791Y-71484277D01*
X137341851Y-71550990D01*
X137512831Y-71585000D01*
X137687161Y-71585000D01*
X137858141Y-71550990D01*
X138019201Y-71484277D01*
X138164151Y-71387424D01*
X138218808Y-71332767D01*
X138340795Y-71414277D01*
X138501855Y-71480990D01*
X138672835Y-71515000D01*
X138847165Y-71515000D01*
X139018145Y-71480990D01*
X139179205Y-71414277D01*
X139324155Y-71317424D01*
X139447424Y-71194155D01*
X139544277Y-71049205D01*
X139610990Y-70888145D01*
X139645000Y-70717165D01*
X139645000Y-70542835D01*
X139610990Y-70371855D01*
X139544277Y-70210795D01*
X139447424Y-70065845D01*
X139324155Y-69942576D01*
X139179205Y-69845723D01*
X139148091Y-69832835D01*
X140205000Y-69832835D01*
X140205000Y-70007165D01*
X140239010Y-70178145D01*
X140305723Y-70339205D01*
X140402576Y-70484155D01*
X140525845Y-70607424D01*
X140670795Y-70704277D01*
X140831855Y-70770990D01*
X141002835Y-70805000D01*
X141177165Y-70805000D01*
X141348145Y-70770990D01*
X141509205Y-70704277D01*
X141654155Y-70607424D01*
X141777424Y-70484155D01*
X141874277Y-70339205D01*
X141940990Y-70178145D01*
X141975000Y-70007165D01*
X141975000Y-69912835D01*
X146315000Y-69912835D01*
X146315000Y-70087165D01*
X146349010Y-70258145D01*
X146415723Y-70419205D01*
X146512576Y-70564155D01*
X146635845Y-70687424D01*
X146780795Y-70784277D01*
X146941855Y-70850990D01*
X147112835Y-70885000D01*
X147287165Y-70885000D01*
X147458145Y-70850990D01*
X147619205Y-70784277D01*
X147655068Y-70760314D01*
X147750795Y-70824277D01*
X147911855Y-70890990D01*
X148082835Y-70925000D01*
X148257165Y-70925000D01*
X148428145Y-70890990D01*
X148589205Y-70824277D01*
X148670000Y-70770291D01*
X148750795Y-70824277D01*
X148911855Y-70890990D01*
X149082835Y-70925000D01*
X149257165Y-70925000D01*
X149428145Y-70890990D01*
X149589205Y-70824277D01*
X149734155Y-70727424D01*
X149857424Y-70604155D01*
X149954277Y-70459205D01*
X150020990Y-70298145D01*
X150055000Y-70127165D01*
X150055000Y-69952835D01*
X150020990Y-69781855D01*
X149954277Y-69620795D01*
X149857424Y-69475845D01*
X149734155Y-69352576D01*
X149589205Y-69255723D01*
X149428145Y-69189010D01*
X149257165Y-69155000D01*
X149082835Y-69155000D01*
X148911855Y-69189010D01*
X148750795Y-69255723D01*
X148670000Y-69309709D01*
X148589205Y-69255723D01*
X148428145Y-69189010D01*
X148257165Y-69155000D01*
X148082835Y-69155000D01*
X147911855Y-69189010D01*
X147750795Y-69255723D01*
X147714932Y-69279686D01*
X147619205Y-69215723D01*
X147458145Y-69149010D01*
X147287165Y-69115000D01*
X147112835Y-69115000D01*
X146941855Y-69149010D01*
X146780795Y-69215723D01*
X146635845Y-69312576D01*
X146512576Y-69435845D01*
X146415723Y-69580795D01*
X146349010Y-69741855D01*
X146315000Y-69912835D01*
X141975000Y-69912835D01*
X141975000Y-69832835D01*
X141940990Y-69661855D01*
X141874277Y-69500795D01*
X141777424Y-69355845D01*
X141654155Y-69232576D01*
X141509205Y-69135723D01*
X141348145Y-69069010D01*
X141177165Y-69035000D01*
X141002835Y-69035000D01*
X140831855Y-69069010D01*
X140670795Y-69135723D01*
X140525845Y-69232576D01*
X140402576Y-69355845D01*
X140305723Y-69500795D01*
X140239010Y-69661855D01*
X140205000Y-69832835D01*
X139148091Y-69832835D01*
X139018145Y-69779010D01*
X138847165Y-69745000D01*
X138672835Y-69745000D01*
X138501855Y-69779010D01*
X138340795Y-69845723D01*
X138195845Y-69942576D01*
X138141188Y-69997233D01*
X138019201Y-69915723D01*
X137858141Y-69849010D01*
X137687161Y-69815000D01*
X137512831Y-69815000D01*
X137341851Y-69849010D01*
X137180791Y-69915723D01*
X137035841Y-70012576D01*
X136912572Y-70135845D01*
X136815719Y-70280795D01*
X136749006Y-70441855D01*
X136714996Y-70612835D01*
X133648744Y-70612835D01*
X133707424Y-70554155D01*
X133804277Y-70409205D01*
X133870990Y-70248145D01*
X133905000Y-70077165D01*
X133905000Y-69902835D01*
X133870990Y-69731855D01*
X133804277Y-69570795D01*
X133707424Y-69425845D01*
X133584155Y-69302576D01*
X133439205Y-69205723D01*
X133278145Y-69139010D01*
X133107165Y-69105000D01*
X132932835Y-69105000D01*
X132761855Y-69139010D01*
X132600795Y-69205723D01*
X132455845Y-69302576D01*
X132332576Y-69425845D01*
X132235723Y-69570795D01*
X132169010Y-69731855D01*
X132135000Y-69902835D01*
X129974401Y-69902835D01*
X130019205Y-69884277D01*
X130164155Y-69787424D01*
X130287424Y-69664155D01*
X130384277Y-69519205D01*
X130450990Y-69358145D01*
X130485000Y-69187165D01*
X130485000Y-69012835D01*
X130450990Y-68841855D01*
X130384277Y-68680795D01*
X130287424Y-68535845D01*
X130164155Y-68412576D01*
X130019205Y-68315723D01*
X129858145Y-68249010D01*
X129687165Y-68215000D01*
X129512835Y-68215000D01*
X129341855Y-68249010D01*
X129180795Y-68315723D01*
X129035845Y-68412576D01*
X128912576Y-68535845D01*
X128815723Y-68680795D01*
X128749010Y-68841855D01*
X128715000Y-69012835D01*
X127127000Y-69012835D01*
X127127000Y-67920546D01*
X127139155Y-67912424D01*
X127262424Y-67789155D01*
X127359277Y-67644205D01*
X127361915Y-67637835D01*
X130090000Y-67637835D01*
X130090000Y-67812165D01*
X130124010Y-67983145D01*
X130190723Y-68144205D01*
X130287576Y-68289155D01*
X130410845Y-68412424D01*
X130555795Y-68509277D01*
X130716855Y-68575990D01*
X130887835Y-68610000D01*
X131062165Y-68610000D01*
X131233145Y-68575990D01*
X131394205Y-68509277D01*
X131539155Y-68412424D01*
X131662424Y-68289155D01*
X131759277Y-68144205D01*
X131813692Y-68012835D01*
X133215000Y-68012835D01*
X133215000Y-68187165D01*
X133249010Y-68358145D01*
X133315723Y-68519205D01*
X133412576Y-68664155D01*
X133535845Y-68787424D01*
X133680795Y-68884277D01*
X133841855Y-68950990D01*
X134012835Y-68985000D01*
X134187165Y-68985000D01*
X134358145Y-68950990D01*
X134519205Y-68884277D01*
X134664155Y-68787424D01*
X134787424Y-68664155D01*
X134884277Y-68519205D01*
X134950990Y-68358145D01*
X134985000Y-68187165D01*
X134985000Y-68185000D01*
X135087165Y-68185000D01*
X135258145Y-68150990D01*
X135419205Y-68084277D01*
X135564155Y-67987424D01*
X135687424Y-67864155D01*
X135784277Y-67719205D01*
X135850990Y-67558145D01*
X135885000Y-67387165D01*
X135885000Y-67212835D01*
X135850990Y-67041855D01*
X135784277Y-66880795D01*
X135687424Y-66735845D01*
X135564155Y-66612576D01*
X135419205Y-66515723D01*
X135258145Y-66449010D01*
X135087165Y-66415000D01*
X134912835Y-66415000D01*
X134741855Y-66449010D01*
X134580795Y-66515723D01*
X134435845Y-66612576D01*
X134312576Y-66735845D01*
X134215723Y-66880795D01*
X134149010Y-67041855D01*
X134115000Y-67212835D01*
X134115000Y-67215000D01*
X134012835Y-67215000D01*
X133841855Y-67249010D01*
X133680795Y-67315723D01*
X133535845Y-67412576D01*
X133412576Y-67535845D01*
X133315723Y-67680795D01*
X133249010Y-67841855D01*
X133215000Y-68012835D01*
X131813692Y-68012835D01*
X131825990Y-67983145D01*
X131860000Y-67812165D01*
X131860000Y-67637835D01*
X131825990Y-67466855D01*
X131759277Y-67305795D01*
X131662424Y-67160845D01*
X131539155Y-67037576D01*
X131394205Y-66940723D01*
X131233145Y-66874010D01*
X131062165Y-66840000D01*
X130887835Y-66840000D01*
X130716855Y-66874010D01*
X130555795Y-66940723D01*
X130410845Y-67037576D01*
X130287576Y-67160845D01*
X130190723Y-67305795D01*
X130124010Y-67466855D01*
X130090000Y-67637835D01*
X127361915Y-67637835D01*
X127425990Y-67483145D01*
X127460000Y-67312165D01*
X127460000Y-67137835D01*
X127425990Y-66966855D01*
X127359277Y-66805795D01*
X127262424Y-66660845D01*
X127139155Y-66537576D01*
X127127000Y-66529454D01*
X127127000Y-66127000D01*
X140483153Y-66127000D01*
X140419010Y-66281855D01*
X140385000Y-66452835D01*
X140385000Y-66627165D01*
X140419010Y-66798145D01*
X140485723Y-66959205D01*
X140582576Y-67104155D01*
X140705845Y-67227424D01*
X140850795Y-67324277D01*
X141011855Y-67390990D01*
X141182835Y-67425000D01*
X141357165Y-67425000D01*
X141528145Y-67390990D01*
X141689205Y-67324277D01*
X141834155Y-67227424D01*
X141957424Y-67104155D01*
X142054277Y-66959205D01*
X142120990Y-66798145D01*
X142155000Y-66627165D01*
X142155000Y-66452835D01*
X142120990Y-66281855D01*
X142054277Y-66120795D01*
X142051079Y-66116009D01*
X142070557Y-66105597D01*
X142089803Y-66089803D01*
X142552606Y-65627000D01*
X149500000Y-65627000D01*
X149524776Y-65624560D01*
X149548601Y-65617333D01*
X149570557Y-65605597D01*
X149589803Y-65589803D01*
X149605597Y-65570557D01*
X149617333Y-65548601D01*
X149624560Y-65524776D01*
X149627000Y-65500000D01*
X149627000Y-63087835D01*
X151415000Y-63087835D01*
X151415000Y-63262165D01*
X151449010Y-63433145D01*
X151515723Y-63594205D01*
X151612576Y-63739155D01*
X151735845Y-63862424D01*
X151880795Y-63959277D01*
X152041855Y-64025990D01*
X152212835Y-64060000D01*
X152387165Y-64060000D01*
X152558145Y-64025990D01*
X152719205Y-63959277D01*
X152864155Y-63862424D01*
X152987424Y-63739155D01*
X153084277Y-63594205D01*
X153150990Y-63433145D01*
X153185000Y-63262165D01*
X153185000Y-63087835D01*
X153150990Y-62916855D01*
X153084277Y-62755795D01*
X152987424Y-62610845D01*
X152864155Y-62487576D01*
X152719205Y-62390723D01*
X152558145Y-62324010D01*
X152387165Y-62290000D01*
X152212835Y-62290000D01*
X152041855Y-62324010D01*
X151880795Y-62390723D01*
X151735845Y-62487576D01*
X151612576Y-62610845D01*
X151515723Y-62755795D01*
X151449010Y-62916855D01*
X151415000Y-63087835D01*
X149627000Y-63087835D01*
X149627000Y-60627000D01*
X152598000Y-60627000D01*
X152543813Y-60693027D01*
G37*
G04 #@! TD.AperFunction*
G04 #@! TD*
D17*
G04 #@! TO.N,+3.3VA*
X142880795Y-38140723D02*
X142735845Y-38237576D01*
X142612576Y-38360845D01*
X142515723Y-38505795D01*
X142449010Y-38666855D01*
X142415000Y-38837835D01*
X142415000Y-39012165D01*
X142449010Y-39183145D01*
X142515723Y-39344205D01*
X142612576Y-39489155D01*
X142735845Y-39612424D01*
X142880795Y-39709277D01*
X143041855Y-39775990D01*
X143212835Y-39810000D01*
X143387165Y-39810000D01*
X143558145Y-39775990D01*
X143719205Y-39709277D01*
X143864155Y-39612424D01*
X143987424Y-39489155D01*
X144084277Y-39344205D01*
X144150990Y-39183145D01*
X144185000Y-39012165D01*
X144185000Y-38837835D01*
X144150990Y-38666855D01*
X144084277Y-38505795D01*
X143987424Y-38360845D01*
X143864155Y-38237576D01*
X143719205Y-38140723D01*
X143686075Y-38127000D01*
X147701503Y-38127000D01*
X147610845Y-38187576D01*
X147487576Y-38310845D01*
X147390723Y-38455795D01*
X147324010Y-38616855D01*
X147290000Y-38787835D01*
X147290000Y-38962165D01*
X147324010Y-39133145D01*
X147390723Y-39294205D01*
X147487576Y-39439155D01*
X147610845Y-39562424D01*
X147755795Y-39659277D01*
X147916855Y-39725990D01*
X148087835Y-39760000D01*
X148262165Y-39760000D01*
X148433145Y-39725990D01*
X148594205Y-39659277D01*
X148739155Y-39562424D01*
X148862424Y-39439155D01*
X148959277Y-39294205D01*
X149025990Y-39133145D01*
X149060000Y-38962165D01*
X149060000Y-38787835D01*
X149025990Y-38616855D01*
X148959277Y-38455795D01*
X148862424Y-38310845D01*
X148739155Y-38187576D01*
X148648497Y-38127000D01*
X154315000Y-38127000D01*
X154315000Y-59373000D01*
X148500000Y-59373000D01*
X148475224Y-59375440D01*
X148451399Y-59382667D01*
X148429443Y-59394403D01*
X148410197Y-59410197D01*
X148394403Y-59429443D01*
X148382667Y-59451399D01*
X148375440Y-59475224D01*
X148373000Y-59500000D01*
X148373000Y-60702507D01*
X148350990Y-60591855D01*
X148284277Y-60430795D01*
X148187424Y-60285845D01*
X148064155Y-60162576D01*
X147919205Y-60065723D01*
X147758145Y-59999010D01*
X147587165Y-59965000D01*
X147412835Y-59965000D01*
X147241855Y-59999010D01*
X147080795Y-60065723D01*
X146935845Y-60162576D01*
X146812576Y-60285845D01*
X146715723Y-60430795D01*
X146649010Y-60591855D01*
X146615000Y-60762835D01*
X146615000Y-60937165D01*
X146649010Y-61108145D01*
X146715723Y-61269205D01*
X146812576Y-61414155D01*
X146935845Y-61537424D01*
X147080795Y-61634277D01*
X147241855Y-61700990D01*
X147412835Y-61735000D01*
X147587165Y-61735000D01*
X147758145Y-61700990D01*
X147919205Y-61634277D01*
X148064155Y-61537424D01*
X148187424Y-61414155D01*
X148284277Y-61269205D01*
X148350990Y-61108145D01*
X148373000Y-60997493D01*
X148373000Y-64373000D01*
X142627000Y-64373000D01*
X142627000Y-60500000D01*
X142624560Y-60475224D01*
X142617333Y-60451399D01*
X142605597Y-60429443D01*
X142589803Y-60410197D01*
X142570557Y-60394403D01*
X142548601Y-60382667D01*
X142524776Y-60375440D01*
X142500000Y-60373000D01*
X139755096Y-60373000D01*
X139744205Y-60365723D01*
X139583145Y-60299010D01*
X139412165Y-60265000D01*
X139237835Y-60265000D01*
X139066855Y-60299010D01*
X138905795Y-60365723D01*
X138894904Y-60373000D01*
X138127000Y-60373000D01*
X138127000Y-56507835D01*
X139095000Y-56507835D01*
X139095000Y-56682165D01*
X139129010Y-56853145D01*
X139195723Y-57014205D01*
X139292576Y-57159155D01*
X139415845Y-57282424D01*
X139560795Y-57379277D01*
X139721855Y-57445990D01*
X139892835Y-57480000D01*
X140067165Y-57480000D01*
X140238145Y-57445990D01*
X140399205Y-57379277D01*
X140544155Y-57282424D01*
X140667424Y-57159155D01*
X140764277Y-57014205D01*
X140830990Y-56853145D01*
X140865000Y-56682165D01*
X140865000Y-56507835D01*
X140830990Y-56336855D01*
X140764277Y-56175795D01*
X140667424Y-56030845D01*
X140544155Y-55907576D01*
X140399205Y-55810723D01*
X140238145Y-55744010D01*
X140067165Y-55710000D01*
X139892835Y-55710000D01*
X139721855Y-55744010D01*
X139560795Y-55810723D01*
X139415845Y-55907576D01*
X139292576Y-56030845D01*
X139195723Y-56175795D01*
X139129010Y-56336855D01*
X139095000Y-56507835D01*
X138127000Y-56507835D01*
X138127000Y-56500000D01*
X138124560Y-56475224D01*
X138117333Y-56451399D01*
X138105597Y-56429443D01*
X138089803Y-56410197D01*
X138070557Y-56394403D01*
X138048601Y-56382667D01*
X138024776Y-56375440D01*
X138000000Y-56373000D01*
X133500000Y-56373000D01*
X133475224Y-56375440D01*
X133443204Y-56386408D01*
X130470020Y-57873000D01*
X115685000Y-57873000D01*
X115685000Y-56087835D01*
X122365000Y-56087835D01*
X122365000Y-56262165D01*
X122399010Y-56433145D01*
X122465723Y-56594205D01*
X122562576Y-56739155D01*
X122685845Y-56862424D01*
X122830795Y-56959277D01*
X122991855Y-57025990D01*
X123162835Y-57060000D01*
X123337165Y-57060000D01*
X123508145Y-57025990D01*
X123669205Y-56959277D01*
X123814155Y-56862424D01*
X123937424Y-56739155D01*
X124034277Y-56594205D01*
X124100990Y-56433145D01*
X124135000Y-56262165D01*
X124135000Y-56112835D01*
X126990000Y-56112835D01*
X126990000Y-56287165D01*
X127024010Y-56458145D01*
X127090723Y-56619205D01*
X127187576Y-56764155D01*
X127310845Y-56887424D01*
X127455795Y-56984277D01*
X127616855Y-57050990D01*
X127787835Y-57085000D01*
X127962165Y-57085000D01*
X128133145Y-57050990D01*
X128294205Y-56984277D01*
X128439155Y-56887424D01*
X128562424Y-56764155D01*
X128659277Y-56619205D01*
X128725990Y-56458145D01*
X128760000Y-56287165D01*
X128760000Y-56112835D01*
X128725990Y-55941855D01*
X128659277Y-55780795D01*
X128562424Y-55635845D01*
X128439155Y-55512576D01*
X128294205Y-55415723D01*
X128133145Y-55349010D01*
X127962165Y-55315000D01*
X127787835Y-55315000D01*
X127616855Y-55349010D01*
X127455795Y-55415723D01*
X127310845Y-55512576D01*
X127187576Y-55635845D01*
X127090723Y-55780795D01*
X127024010Y-55941855D01*
X126990000Y-56112835D01*
X124135000Y-56112835D01*
X124135000Y-56087835D01*
X124100990Y-55916855D01*
X124034277Y-55755795D01*
X123937424Y-55610845D01*
X123814155Y-55487576D01*
X123669205Y-55390723D01*
X123508145Y-55324010D01*
X123337165Y-55290000D01*
X123162835Y-55290000D01*
X122991855Y-55324010D01*
X122830795Y-55390723D01*
X122685845Y-55487576D01*
X122562576Y-55610845D01*
X122465723Y-55755795D01*
X122399010Y-55916855D01*
X122365000Y-56087835D01*
X115685000Y-56087835D01*
X115685000Y-53162835D01*
X150140000Y-53162835D01*
X150140000Y-53337165D01*
X150174010Y-53508145D01*
X150240723Y-53669205D01*
X150337576Y-53814155D01*
X150460845Y-53937424D01*
X150605795Y-54034277D01*
X150766855Y-54100990D01*
X150937835Y-54135000D01*
X151112165Y-54135000D01*
X151283145Y-54100990D01*
X151444205Y-54034277D01*
X151589155Y-53937424D01*
X151712424Y-53814155D01*
X151809277Y-53669205D01*
X151875990Y-53508145D01*
X151910000Y-53337165D01*
X151910000Y-53162835D01*
X151875990Y-52991855D01*
X151809277Y-52830795D01*
X151712424Y-52685845D01*
X151589155Y-52562576D01*
X151444205Y-52465723D01*
X151283145Y-52399010D01*
X151112165Y-52365000D01*
X150937835Y-52365000D01*
X150766855Y-52399010D01*
X150605795Y-52465723D01*
X150460845Y-52562576D01*
X150337576Y-52685845D01*
X150240723Y-52830795D01*
X150174010Y-52991855D01*
X150140000Y-53162835D01*
X115685000Y-53162835D01*
X115685000Y-50743740D01*
X123395000Y-50743740D01*
X123395000Y-51036260D01*
X123452068Y-51323158D01*
X123564010Y-51593411D01*
X123726525Y-51836632D01*
X123933368Y-52043475D01*
X124176589Y-52205990D01*
X124446842Y-52317932D01*
X124733740Y-52375000D01*
X125026260Y-52375000D01*
X125313158Y-52317932D01*
X125583411Y-52205990D01*
X125826632Y-52043475D01*
X126033475Y-51836632D01*
X126195990Y-51593411D01*
X126260431Y-51437835D01*
X147340000Y-51437835D01*
X147340000Y-51612165D01*
X147374010Y-51783145D01*
X147440723Y-51944205D01*
X147537576Y-52089155D01*
X147660845Y-52212424D01*
X147805795Y-52309277D01*
X147966855Y-52375990D01*
X148137835Y-52410000D01*
X148312165Y-52410000D01*
X148483145Y-52375990D01*
X148644205Y-52309277D01*
X148789155Y-52212424D01*
X148912424Y-52089155D01*
X149009277Y-51944205D01*
X149075990Y-51783145D01*
X149110000Y-51612165D01*
X149110000Y-51437835D01*
X149075990Y-51266855D01*
X149009277Y-51105795D01*
X148912424Y-50960845D01*
X148789155Y-50837576D01*
X148644205Y-50740723D01*
X148483145Y-50674010D01*
X148312165Y-50640000D01*
X148137835Y-50640000D01*
X147966855Y-50674010D01*
X147805795Y-50740723D01*
X147660845Y-50837576D01*
X147537576Y-50960845D01*
X147440723Y-51105795D01*
X147374010Y-51266855D01*
X147340000Y-51437835D01*
X126260431Y-51437835D01*
X126307932Y-51323158D01*
X126365000Y-51036260D01*
X126365000Y-50743740D01*
X126307932Y-50456842D01*
X126195990Y-50186589D01*
X126033475Y-49943368D01*
X125826632Y-49736525D01*
X125583411Y-49574010D01*
X125313158Y-49462068D01*
X125026260Y-49405000D01*
X124733740Y-49405000D01*
X124446842Y-49462068D01*
X124176589Y-49574010D01*
X123933368Y-49736525D01*
X123726525Y-49943368D01*
X123564010Y-50186589D01*
X123452068Y-50456842D01*
X123395000Y-50743740D01*
X115685000Y-50743740D01*
X115685000Y-49352835D01*
X136585000Y-49352835D01*
X136585000Y-49527165D01*
X136619010Y-49698145D01*
X136685723Y-49859205D01*
X136782576Y-50004155D01*
X136905845Y-50127424D01*
X137050795Y-50224277D01*
X137211855Y-50290990D01*
X137382835Y-50325000D01*
X137557165Y-50325000D01*
X137728145Y-50290990D01*
X137889205Y-50224277D01*
X138034155Y-50127424D01*
X138157424Y-50004155D01*
X138254277Y-49859205D01*
X138320990Y-49698145D01*
X138355000Y-49527165D01*
X138355000Y-49352835D01*
X138320990Y-49181855D01*
X138254277Y-49020795D01*
X138157424Y-48875845D01*
X138034155Y-48752576D01*
X137889205Y-48655723D01*
X137728145Y-48589010D01*
X137557165Y-48555000D01*
X137382835Y-48555000D01*
X137211855Y-48589010D01*
X137050795Y-48655723D01*
X136905845Y-48752576D01*
X136782576Y-48875845D01*
X136685723Y-49020795D01*
X136619010Y-49181855D01*
X136585000Y-49352835D01*
X115685000Y-49352835D01*
X115685000Y-48452835D01*
X145085000Y-48452835D01*
X145085000Y-48627165D01*
X145119010Y-48798145D01*
X145185723Y-48959205D01*
X145282576Y-49104155D01*
X145405845Y-49227424D01*
X145550795Y-49324277D01*
X145711855Y-49390990D01*
X145882835Y-49425000D01*
X146057165Y-49425000D01*
X146228145Y-49390990D01*
X146389205Y-49324277D01*
X146534155Y-49227424D01*
X146657424Y-49104155D01*
X146754277Y-48959205D01*
X146820990Y-48798145D01*
X146855000Y-48627165D01*
X146855000Y-48452835D01*
X146820990Y-48281855D01*
X146754277Y-48120795D01*
X146657424Y-47975845D01*
X146534155Y-47852576D01*
X146389205Y-47755723D01*
X146228145Y-47689010D01*
X146057165Y-47655000D01*
X145882835Y-47655000D01*
X145711855Y-47689010D01*
X145550795Y-47755723D01*
X145405845Y-47852576D01*
X145282576Y-47975845D01*
X145185723Y-48120795D01*
X145119010Y-48281855D01*
X145085000Y-48452835D01*
X115685000Y-48452835D01*
X115685000Y-46162835D01*
X142065000Y-46162835D01*
X142065000Y-46337165D01*
X142099010Y-46508145D01*
X142137057Y-46600000D01*
X142099010Y-46691855D01*
X142065000Y-46862835D01*
X142065000Y-47037165D01*
X142099010Y-47208145D01*
X142165723Y-47369205D01*
X142262576Y-47514155D01*
X142385845Y-47637424D01*
X142530795Y-47734277D01*
X142691855Y-47800990D01*
X142862835Y-47835000D01*
X143037165Y-47835000D01*
X143208145Y-47800990D01*
X143367678Y-47734910D01*
X143466855Y-47775990D01*
X143637835Y-47810000D01*
X143812165Y-47810000D01*
X143983145Y-47775990D01*
X144144205Y-47709277D01*
X144289155Y-47612424D01*
X144412424Y-47489155D01*
X144509277Y-47344205D01*
X144575990Y-47183145D01*
X144610000Y-47012165D01*
X144610000Y-46837835D01*
X144575990Y-46666855D01*
X144525443Y-46544822D01*
X144538692Y-46512835D01*
X148640000Y-46512835D01*
X148640000Y-46687165D01*
X148674010Y-46858145D01*
X148740723Y-47019205D01*
X148837576Y-47164155D01*
X148960845Y-47287424D01*
X149105795Y-47384277D01*
X149266855Y-47450990D01*
X149437835Y-47485000D01*
X149612165Y-47485000D01*
X149783145Y-47450990D01*
X149944205Y-47384277D01*
X150089155Y-47287424D01*
X150212424Y-47164155D01*
X150309277Y-47019205D01*
X150375990Y-46858145D01*
X150410000Y-46687165D01*
X150410000Y-46512835D01*
X150375990Y-46341855D01*
X150309277Y-46180795D01*
X150212424Y-46035845D01*
X150089155Y-45912576D01*
X149944205Y-45815723D01*
X149783145Y-45749010D01*
X149612165Y-45715000D01*
X149437835Y-45715000D01*
X149266855Y-45749010D01*
X149105795Y-45815723D01*
X148960845Y-45912576D01*
X148837576Y-46035845D01*
X148740723Y-46180795D01*
X148674010Y-46341855D01*
X148640000Y-46512835D01*
X144538692Y-46512835D01*
X144550990Y-46483145D01*
X144585000Y-46312165D01*
X144585000Y-46137835D01*
X144550990Y-45966855D01*
X144484277Y-45805795D01*
X144387424Y-45660845D01*
X144264155Y-45537576D01*
X144119205Y-45440723D01*
X143958145Y-45374010D01*
X143787165Y-45340000D01*
X143612835Y-45340000D01*
X143441855Y-45374010D01*
X143294822Y-45434913D01*
X143208145Y-45399010D01*
X143037165Y-45365000D01*
X142862835Y-45365000D01*
X142691855Y-45399010D01*
X142530795Y-45465723D01*
X142385845Y-45562576D01*
X142262576Y-45685845D01*
X142165723Y-45830795D01*
X142099010Y-45991855D01*
X142065000Y-46162835D01*
X115685000Y-46162835D01*
X115685000Y-43743740D01*
X123395000Y-43743740D01*
X123395000Y-44036260D01*
X123452068Y-44323158D01*
X123564010Y-44593411D01*
X123726525Y-44836632D01*
X123933368Y-45043475D01*
X124176589Y-45205990D01*
X124446842Y-45317932D01*
X124733740Y-45375000D01*
X125026260Y-45375000D01*
X125313158Y-45317932D01*
X125583411Y-45205990D01*
X125826632Y-45043475D01*
X126033475Y-44836632D01*
X126195990Y-44593411D01*
X126307932Y-44323158D01*
X126365000Y-44036260D01*
X126365000Y-43787835D01*
X144290000Y-43787835D01*
X144290000Y-43962165D01*
X144324010Y-44133145D01*
X144390723Y-44294205D01*
X144487576Y-44439155D01*
X144610845Y-44562424D01*
X144755795Y-44659277D01*
X144916855Y-44725990D01*
X145087835Y-44760000D01*
X145262165Y-44760000D01*
X145433145Y-44725990D01*
X145594205Y-44659277D01*
X145739155Y-44562424D01*
X145862424Y-44439155D01*
X145959277Y-44294205D01*
X146025990Y-44133145D01*
X146060000Y-43962165D01*
X146060000Y-43787835D01*
X146025990Y-43616855D01*
X145959277Y-43455795D01*
X145862424Y-43310845D01*
X145739155Y-43187576D01*
X145594205Y-43090723D01*
X145433145Y-43024010D01*
X145262165Y-42990000D01*
X145087835Y-42990000D01*
X144916855Y-43024010D01*
X144755795Y-43090723D01*
X144610845Y-43187576D01*
X144487576Y-43310845D01*
X144390723Y-43455795D01*
X144324010Y-43616855D01*
X144290000Y-43787835D01*
X126365000Y-43787835D01*
X126365000Y-43743740D01*
X126307932Y-43456842D01*
X126195990Y-43186589D01*
X126033475Y-42943368D01*
X125826632Y-42736525D01*
X125701382Y-42652835D01*
X135585000Y-42652835D01*
X135585000Y-42827165D01*
X135619010Y-42998145D01*
X135685723Y-43159205D01*
X135782576Y-43304155D01*
X135905845Y-43427424D01*
X136050795Y-43524277D01*
X136211855Y-43590990D01*
X136382835Y-43625000D01*
X136557165Y-43625000D01*
X136728145Y-43590990D01*
X136889205Y-43524277D01*
X137034155Y-43427424D01*
X137157424Y-43304155D01*
X137254277Y-43159205D01*
X137320990Y-42998145D01*
X137355000Y-42827165D01*
X137355000Y-42652835D01*
X137320990Y-42481855D01*
X137254277Y-42320795D01*
X137157424Y-42175845D01*
X137034155Y-42052576D01*
X136889205Y-41955723D01*
X136728145Y-41889010D01*
X136557165Y-41855000D01*
X136382835Y-41855000D01*
X136211855Y-41889010D01*
X136050795Y-41955723D01*
X135905845Y-42052576D01*
X135782576Y-42175845D01*
X135685723Y-42320795D01*
X135619010Y-42481855D01*
X135585000Y-42652835D01*
X125701382Y-42652835D01*
X125583411Y-42574010D01*
X125313158Y-42462068D01*
X125026260Y-42405000D01*
X124733740Y-42405000D01*
X124446842Y-42462068D01*
X124176589Y-42574010D01*
X123933368Y-42736525D01*
X123726525Y-42943368D01*
X123564010Y-43186589D01*
X123452068Y-43456842D01*
X123395000Y-43743740D01*
X115685000Y-43743740D01*
X115685000Y-38127000D01*
X142913925Y-38127000D01*
X142880795Y-38140723D01*
G04 #@! TA.AperFunction,Conductor*
D18*
G36*
X142880795Y-38140723D02*
G01*
X142735845Y-38237576D01*
X142612576Y-38360845D01*
X142515723Y-38505795D01*
X142449010Y-38666855D01*
X142415000Y-38837835D01*
X142415000Y-39012165D01*
X142449010Y-39183145D01*
X142515723Y-39344205D01*
X142612576Y-39489155D01*
X142735845Y-39612424D01*
X142880795Y-39709277D01*
X143041855Y-39775990D01*
X143212835Y-39810000D01*
X143387165Y-39810000D01*
X143558145Y-39775990D01*
X143719205Y-39709277D01*
X143864155Y-39612424D01*
X143987424Y-39489155D01*
X144084277Y-39344205D01*
X144150990Y-39183145D01*
X144185000Y-39012165D01*
X144185000Y-38837835D01*
X144150990Y-38666855D01*
X144084277Y-38505795D01*
X143987424Y-38360845D01*
X143864155Y-38237576D01*
X143719205Y-38140723D01*
X143686075Y-38127000D01*
X147701503Y-38127000D01*
X147610845Y-38187576D01*
X147487576Y-38310845D01*
X147390723Y-38455795D01*
X147324010Y-38616855D01*
X147290000Y-38787835D01*
X147290000Y-38962165D01*
X147324010Y-39133145D01*
X147390723Y-39294205D01*
X147487576Y-39439155D01*
X147610845Y-39562424D01*
X147755795Y-39659277D01*
X147916855Y-39725990D01*
X148087835Y-39760000D01*
X148262165Y-39760000D01*
X148433145Y-39725990D01*
X148594205Y-39659277D01*
X148739155Y-39562424D01*
X148862424Y-39439155D01*
X148959277Y-39294205D01*
X149025990Y-39133145D01*
X149060000Y-38962165D01*
X149060000Y-38787835D01*
X149025990Y-38616855D01*
X148959277Y-38455795D01*
X148862424Y-38310845D01*
X148739155Y-38187576D01*
X148648497Y-38127000D01*
X154315000Y-38127000D01*
X154315000Y-59373000D01*
X148500000Y-59373000D01*
X148475224Y-59375440D01*
X148451399Y-59382667D01*
X148429443Y-59394403D01*
X148410197Y-59410197D01*
X148394403Y-59429443D01*
X148382667Y-59451399D01*
X148375440Y-59475224D01*
X148373000Y-59500000D01*
X148373000Y-60702507D01*
X148350990Y-60591855D01*
X148284277Y-60430795D01*
X148187424Y-60285845D01*
X148064155Y-60162576D01*
X147919205Y-60065723D01*
X147758145Y-59999010D01*
X147587165Y-59965000D01*
X147412835Y-59965000D01*
X147241855Y-59999010D01*
X147080795Y-60065723D01*
X146935845Y-60162576D01*
X146812576Y-60285845D01*
X146715723Y-60430795D01*
X146649010Y-60591855D01*
X146615000Y-60762835D01*
X146615000Y-60937165D01*
X146649010Y-61108145D01*
X146715723Y-61269205D01*
X146812576Y-61414155D01*
X146935845Y-61537424D01*
X147080795Y-61634277D01*
X147241855Y-61700990D01*
X147412835Y-61735000D01*
X147587165Y-61735000D01*
X147758145Y-61700990D01*
X147919205Y-61634277D01*
X148064155Y-61537424D01*
X148187424Y-61414155D01*
X148284277Y-61269205D01*
X148350990Y-61108145D01*
X148373000Y-60997493D01*
X148373000Y-64373000D01*
X142627000Y-64373000D01*
X142627000Y-60500000D01*
X142624560Y-60475224D01*
X142617333Y-60451399D01*
X142605597Y-60429443D01*
X142589803Y-60410197D01*
X142570557Y-60394403D01*
X142548601Y-60382667D01*
X142524776Y-60375440D01*
X142500000Y-60373000D01*
X139755096Y-60373000D01*
X139744205Y-60365723D01*
X139583145Y-60299010D01*
X139412165Y-60265000D01*
X139237835Y-60265000D01*
X139066855Y-60299010D01*
X138905795Y-60365723D01*
X138894904Y-60373000D01*
X138127000Y-60373000D01*
X138127000Y-56507835D01*
X139095000Y-56507835D01*
X139095000Y-56682165D01*
X139129010Y-56853145D01*
X139195723Y-57014205D01*
X139292576Y-57159155D01*
X139415845Y-57282424D01*
X139560795Y-57379277D01*
X139721855Y-57445990D01*
X139892835Y-57480000D01*
X140067165Y-57480000D01*
X140238145Y-57445990D01*
X140399205Y-57379277D01*
X140544155Y-57282424D01*
X140667424Y-57159155D01*
X140764277Y-57014205D01*
X140830990Y-56853145D01*
X140865000Y-56682165D01*
X140865000Y-56507835D01*
X140830990Y-56336855D01*
X140764277Y-56175795D01*
X140667424Y-56030845D01*
X140544155Y-55907576D01*
X140399205Y-55810723D01*
X140238145Y-55744010D01*
X140067165Y-55710000D01*
X139892835Y-55710000D01*
X139721855Y-55744010D01*
X139560795Y-55810723D01*
X139415845Y-55907576D01*
X139292576Y-56030845D01*
X139195723Y-56175795D01*
X139129010Y-56336855D01*
X139095000Y-56507835D01*
X138127000Y-56507835D01*
X138127000Y-56500000D01*
X138124560Y-56475224D01*
X138117333Y-56451399D01*
X138105597Y-56429443D01*
X138089803Y-56410197D01*
X138070557Y-56394403D01*
X138048601Y-56382667D01*
X138024776Y-56375440D01*
X138000000Y-56373000D01*
X133500000Y-56373000D01*
X133475224Y-56375440D01*
X133443204Y-56386408D01*
X130470020Y-57873000D01*
X115685000Y-57873000D01*
X115685000Y-56087835D01*
X122365000Y-56087835D01*
X122365000Y-56262165D01*
X122399010Y-56433145D01*
X122465723Y-56594205D01*
X122562576Y-56739155D01*
X122685845Y-56862424D01*
X122830795Y-56959277D01*
X122991855Y-57025990D01*
X123162835Y-57060000D01*
X123337165Y-57060000D01*
X123508145Y-57025990D01*
X123669205Y-56959277D01*
X123814155Y-56862424D01*
X123937424Y-56739155D01*
X124034277Y-56594205D01*
X124100990Y-56433145D01*
X124135000Y-56262165D01*
X124135000Y-56112835D01*
X126990000Y-56112835D01*
X126990000Y-56287165D01*
X127024010Y-56458145D01*
X127090723Y-56619205D01*
X127187576Y-56764155D01*
X127310845Y-56887424D01*
X127455795Y-56984277D01*
X127616855Y-57050990D01*
X127787835Y-57085000D01*
X127962165Y-57085000D01*
X128133145Y-57050990D01*
X128294205Y-56984277D01*
X128439155Y-56887424D01*
X128562424Y-56764155D01*
X128659277Y-56619205D01*
X128725990Y-56458145D01*
X128760000Y-56287165D01*
X128760000Y-56112835D01*
X128725990Y-55941855D01*
X128659277Y-55780795D01*
X128562424Y-55635845D01*
X128439155Y-55512576D01*
X128294205Y-55415723D01*
X128133145Y-55349010D01*
X127962165Y-55315000D01*
X127787835Y-55315000D01*
X127616855Y-55349010D01*
X127455795Y-55415723D01*
X127310845Y-55512576D01*
X127187576Y-55635845D01*
X127090723Y-55780795D01*
X127024010Y-55941855D01*
X126990000Y-56112835D01*
X124135000Y-56112835D01*
X124135000Y-56087835D01*
X124100990Y-55916855D01*
X124034277Y-55755795D01*
X123937424Y-55610845D01*
X123814155Y-55487576D01*
X123669205Y-55390723D01*
X123508145Y-55324010D01*
X123337165Y-55290000D01*
X123162835Y-55290000D01*
X122991855Y-55324010D01*
X122830795Y-55390723D01*
X122685845Y-55487576D01*
X122562576Y-55610845D01*
X122465723Y-55755795D01*
X122399010Y-55916855D01*
X122365000Y-56087835D01*
X115685000Y-56087835D01*
X115685000Y-53162835D01*
X150140000Y-53162835D01*
X150140000Y-53337165D01*
X150174010Y-53508145D01*
X150240723Y-53669205D01*
X150337576Y-53814155D01*
X150460845Y-53937424D01*
X150605795Y-54034277D01*
X150766855Y-54100990D01*
X150937835Y-54135000D01*
X151112165Y-54135000D01*
X151283145Y-54100990D01*
X151444205Y-54034277D01*
X151589155Y-53937424D01*
X151712424Y-53814155D01*
X151809277Y-53669205D01*
X151875990Y-53508145D01*
X151910000Y-53337165D01*
X151910000Y-53162835D01*
X151875990Y-52991855D01*
X151809277Y-52830795D01*
X151712424Y-52685845D01*
X151589155Y-52562576D01*
X151444205Y-52465723D01*
X151283145Y-52399010D01*
X151112165Y-52365000D01*
X150937835Y-52365000D01*
X150766855Y-52399010D01*
X150605795Y-52465723D01*
X150460845Y-52562576D01*
X150337576Y-52685845D01*
X150240723Y-52830795D01*
X150174010Y-52991855D01*
X150140000Y-53162835D01*
X115685000Y-53162835D01*
X115685000Y-50743740D01*
X123395000Y-50743740D01*
X123395000Y-51036260D01*
X123452068Y-51323158D01*
X123564010Y-51593411D01*
X123726525Y-51836632D01*
X123933368Y-52043475D01*
X124176589Y-52205990D01*
X124446842Y-52317932D01*
X124733740Y-52375000D01*
X125026260Y-52375000D01*
X125313158Y-52317932D01*
X125583411Y-52205990D01*
X125826632Y-52043475D01*
X126033475Y-51836632D01*
X126195990Y-51593411D01*
X126260431Y-51437835D01*
X147340000Y-51437835D01*
X147340000Y-51612165D01*
X147374010Y-51783145D01*
X147440723Y-51944205D01*
X147537576Y-52089155D01*
X147660845Y-52212424D01*
X147805795Y-52309277D01*
X147966855Y-52375990D01*
X148137835Y-52410000D01*
X148312165Y-52410000D01*
X148483145Y-52375990D01*
X148644205Y-52309277D01*
X148789155Y-52212424D01*
X148912424Y-52089155D01*
X149009277Y-51944205D01*
X149075990Y-51783145D01*
X149110000Y-51612165D01*
X149110000Y-51437835D01*
X149075990Y-51266855D01*
X149009277Y-51105795D01*
X148912424Y-50960845D01*
X148789155Y-50837576D01*
X148644205Y-50740723D01*
X148483145Y-50674010D01*
X148312165Y-50640000D01*
X148137835Y-50640000D01*
X147966855Y-50674010D01*
X147805795Y-50740723D01*
X147660845Y-50837576D01*
X147537576Y-50960845D01*
X147440723Y-51105795D01*
X147374010Y-51266855D01*
X147340000Y-51437835D01*
X126260431Y-51437835D01*
X126307932Y-51323158D01*
X126365000Y-51036260D01*
X126365000Y-50743740D01*
X126307932Y-50456842D01*
X126195990Y-50186589D01*
X126033475Y-49943368D01*
X125826632Y-49736525D01*
X125583411Y-49574010D01*
X125313158Y-49462068D01*
X125026260Y-49405000D01*
X124733740Y-49405000D01*
X124446842Y-49462068D01*
X124176589Y-49574010D01*
X123933368Y-49736525D01*
X123726525Y-49943368D01*
X123564010Y-50186589D01*
X123452068Y-50456842D01*
X123395000Y-50743740D01*
X115685000Y-50743740D01*
X115685000Y-49352835D01*
X136585000Y-49352835D01*
X136585000Y-49527165D01*
X136619010Y-49698145D01*
X136685723Y-49859205D01*
X136782576Y-50004155D01*
X136905845Y-50127424D01*
X137050795Y-50224277D01*
X137211855Y-50290990D01*
X137382835Y-50325000D01*
X137557165Y-50325000D01*
X137728145Y-50290990D01*
X137889205Y-50224277D01*
X138034155Y-50127424D01*
X138157424Y-50004155D01*
X138254277Y-49859205D01*
X138320990Y-49698145D01*
X138355000Y-49527165D01*
X138355000Y-49352835D01*
X138320990Y-49181855D01*
X138254277Y-49020795D01*
X138157424Y-48875845D01*
X138034155Y-48752576D01*
X137889205Y-48655723D01*
X137728145Y-48589010D01*
X137557165Y-48555000D01*
X137382835Y-48555000D01*
X137211855Y-48589010D01*
X137050795Y-48655723D01*
X136905845Y-48752576D01*
X136782576Y-48875845D01*
X136685723Y-49020795D01*
X136619010Y-49181855D01*
X136585000Y-49352835D01*
X115685000Y-49352835D01*
X115685000Y-48452835D01*
X145085000Y-48452835D01*
X145085000Y-48627165D01*
X145119010Y-48798145D01*
X145185723Y-48959205D01*
X145282576Y-49104155D01*
X145405845Y-49227424D01*
X145550795Y-49324277D01*
X145711855Y-49390990D01*
X145882835Y-49425000D01*
X146057165Y-49425000D01*
X146228145Y-49390990D01*
X146389205Y-49324277D01*
X146534155Y-49227424D01*
X146657424Y-49104155D01*
X146754277Y-48959205D01*
X146820990Y-48798145D01*
X146855000Y-48627165D01*
X146855000Y-48452835D01*
X146820990Y-48281855D01*
X146754277Y-48120795D01*
X146657424Y-47975845D01*
X146534155Y-47852576D01*
X146389205Y-47755723D01*
X146228145Y-47689010D01*
X146057165Y-47655000D01*
X145882835Y-47655000D01*
X145711855Y-47689010D01*
X145550795Y-47755723D01*
X145405845Y-47852576D01*
X145282576Y-47975845D01*
X145185723Y-48120795D01*
X145119010Y-48281855D01*
X145085000Y-48452835D01*
X115685000Y-48452835D01*
X115685000Y-46162835D01*
X142065000Y-46162835D01*
X142065000Y-46337165D01*
X142099010Y-46508145D01*
X142137057Y-46600000D01*
X142099010Y-46691855D01*
X142065000Y-46862835D01*
X142065000Y-47037165D01*
X142099010Y-47208145D01*
X142165723Y-47369205D01*
X142262576Y-47514155D01*
X142385845Y-47637424D01*
X142530795Y-47734277D01*
X142691855Y-47800990D01*
X142862835Y-47835000D01*
X143037165Y-47835000D01*
X143208145Y-47800990D01*
X143367678Y-47734910D01*
X143466855Y-47775990D01*
X143637835Y-47810000D01*
X143812165Y-47810000D01*
X143983145Y-47775990D01*
X144144205Y-47709277D01*
X144289155Y-47612424D01*
X144412424Y-47489155D01*
X144509277Y-47344205D01*
X144575990Y-47183145D01*
X144610000Y-47012165D01*
X144610000Y-46837835D01*
X144575990Y-46666855D01*
X144525443Y-46544822D01*
X144538692Y-46512835D01*
X148640000Y-46512835D01*
X148640000Y-46687165D01*
X148674010Y-46858145D01*
X148740723Y-47019205D01*
X148837576Y-47164155D01*
X148960845Y-47287424D01*
X149105795Y-47384277D01*
X149266855Y-47450990D01*
X149437835Y-47485000D01*
X149612165Y-47485000D01*
X149783145Y-47450990D01*
X149944205Y-47384277D01*
X150089155Y-47287424D01*
X150212424Y-47164155D01*
X150309277Y-47019205D01*
X150375990Y-46858145D01*
X150410000Y-46687165D01*
X150410000Y-46512835D01*
X150375990Y-46341855D01*
X150309277Y-46180795D01*
X150212424Y-46035845D01*
X150089155Y-45912576D01*
X149944205Y-45815723D01*
X149783145Y-45749010D01*
X149612165Y-45715000D01*
X149437835Y-45715000D01*
X149266855Y-45749010D01*
X149105795Y-45815723D01*
X148960845Y-45912576D01*
X148837576Y-46035845D01*
X148740723Y-46180795D01*
X148674010Y-46341855D01*
X148640000Y-46512835D01*
X144538692Y-46512835D01*
X144550990Y-46483145D01*
X144585000Y-46312165D01*
X144585000Y-46137835D01*
X144550990Y-45966855D01*
X144484277Y-45805795D01*
X144387424Y-45660845D01*
X144264155Y-45537576D01*
X144119205Y-45440723D01*
X143958145Y-45374010D01*
X143787165Y-45340000D01*
X143612835Y-45340000D01*
X143441855Y-45374010D01*
X143294822Y-45434913D01*
X143208145Y-45399010D01*
X143037165Y-45365000D01*
X142862835Y-45365000D01*
X142691855Y-45399010D01*
X142530795Y-45465723D01*
X142385845Y-45562576D01*
X142262576Y-45685845D01*
X142165723Y-45830795D01*
X142099010Y-45991855D01*
X142065000Y-46162835D01*
X115685000Y-46162835D01*
X115685000Y-43743740D01*
X123395000Y-43743740D01*
X123395000Y-44036260D01*
X123452068Y-44323158D01*
X123564010Y-44593411D01*
X123726525Y-44836632D01*
X123933368Y-45043475D01*
X124176589Y-45205990D01*
X124446842Y-45317932D01*
X124733740Y-45375000D01*
X125026260Y-45375000D01*
X125313158Y-45317932D01*
X125583411Y-45205990D01*
X125826632Y-45043475D01*
X126033475Y-44836632D01*
X126195990Y-44593411D01*
X126307932Y-44323158D01*
X126365000Y-44036260D01*
X126365000Y-43787835D01*
X144290000Y-43787835D01*
X144290000Y-43962165D01*
X144324010Y-44133145D01*
X144390723Y-44294205D01*
X144487576Y-44439155D01*
X144610845Y-44562424D01*
X144755795Y-44659277D01*
X144916855Y-44725990D01*
X145087835Y-44760000D01*
X145262165Y-44760000D01*
X145433145Y-44725990D01*
X145594205Y-44659277D01*
X145739155Y-44562424D01*
X145862424Y-44439155D01*
X145959277Y-44294205D01*
X146025990Y-44133145D01*
X146060000Y-43962165D01*
X146060000Y-43787835D01*
X146025990Y-43616855D01*
X145959277Y-43455795D01*
X145862424Y-43310845D01*
X145739155Y-43187576D01*
X145594205Y-43090723D01*
X145433145Y-43024010D01*
X145262165Y-42990000D01*
X145087835Y-42990000D01*
X144916855Y-43024010D01*
X144755795Y-43090723D01*
X144610845Y-43187576D01*
X144487576Y-43310845D01*
X144390723Y-43455795D01*
X144324010Y-43616855D01*
X144290000Y-43787835D01*
X126365000Y-43787835D01*
X126365000Y-43743740D01*
X126307932Y-43456842D01*
X126195990Y-43186589D01*
X126033475Y-42943368D01*
X125826632Y-42736525D01*
X125701382Y-42652835D01*
X135585000Y-42652835D01*
X135585000Y-42827165D01*
X135619010Y-42998145D01*
X135685723Y-43159205D01*
X135782576Y-43304155D01*
X135905845Y-43427424D01*
X136050795Y-43524277D01*
X136211855Y-43590990D01*
X136382835Y-43625000D01*
X136557165Y-43625000D01*
X136728145Y-43590990D01*
X136889205Y-43524277D01*
X137034155Y-43427424D01*
X137157424Y-43304155D01*
X137254277Y-43159205D01*
X137320990Y-42998145D01*
X137355000Y-42827165D01*
X137355000Y-42652835D01*
X137320990Y-42481855D01*
X137254277Y-42320795D01*
X137157424Y-42175845D01*
X137034155Y-42052576D01*
X136889205Y-41955723D01*
X136728145Y-41889010D01*
X136557165Y-41855000D01*
X136382835Y-41855000D01*
X136211855Y-41889010D01*
X136050795Y-41955723D01*
X135905845Y-42052576D01*
X135782576Y-42175845D01*
X135685723Y-42320795D01*
X135619010Y-42481855D01*
X135585000Y-42652835D01*
X125701382Y-42652835D01*
X125583411Y-42574010D01*
X125313158Y-42462068D01*
X125026260Y-42405000D01*
X124733740Y-42405000D01*
X124446842Y-42462068D01*
X124176589Y-42574010D01*
X123933368Y-42736525D01*
X123726525Y-42943368D01*
X123564010Y-43186589D01*
X123452068Y-43456842D01*
X123395000Y-43743740D01*
X115685000Y-43743740D01*
X115685000Y-38127000D01*
X142913925Y-38127000D01*
X142880795Y-38140723D01*
G37*
G04 #@! TD.AperFunction*
G04 #@! TD*
D17*
G04 #@! TO.N,/VCC*
X136873000Y-58440000D02*
X136787835Y-58440000D01*
X136616855Y-58474010D01*
X136455795Y-58540723D01*
X136310845Y-58637576D01*
X136187576Y-58760845D01*
X136090723Y-58905795D01*
X136024010Y-59066855D01*
X135990000Y-59237835D01*
X135990000Y-59412165D01*
X136024010Y-59583145D01*
X136090723Y-59744205D01*
X136187576Y-59889155D01*
X136310845Y-60012424D01*
X136455795Y-60109277D01*
X136616855Y-60175990D01*
X136787835Y-60210000D01*
X136873000Y-60210000D01*
X136873000Y-61500000D01*
X136875440Y-61524776D01*
X136882667Y-61548601D01*
X136894403Y-61570557D01*
X136910197Y-61589803D01*
X136929443Y-61605597D01*
X136951399Y-61617333D01*
X136975224Y-61624560D01*
X137000000Y-61627000D01*
X138579341Y-61627000D01*
X138637576Y-61714155D01*
X138760845Y-61837424D01*
X138905795Y-61934277D01*
X139066855Y-62000990D01*
X139237835Y-62035000D01*
X139412165Y-62035000D01*
X139583145Y-62000990D01*
X139744205Y-61934277D01*
X139889155Y-61837424D01*
X140012424Y-61714155D01*
X140070659Y-61627000D01*
X141373000Y-61627000D01*
X141373000Y-64873000D01*
X126000000Y-64873000D01*
X125975224Y-64875440D01*
X125951399Y-64882667D01*
X125929443Y-64894403D01*
X125910197Y-64910197D01*
X125894403Y-64929443D01*
X125882667Y-64951399D01*
X125875440Y-64975224D01*
X125873000Y-65000000D01*
X125873000Y-66682659D01*
X125790723Y-66805795D01*
X125724010Y-66966855D01*
X125690000Y-67137835D01*
X125690000Y-67312165D01*
X125724010Y-67483145D01*
X125790723Y-67644205D01*
X125873000Y-67767341D01*
X125873000Y-69873000D01*
X124000000Y-69873000D01*
X123975224Y-69875440D01*
X123951399Y-69882667D01*
X123929443Y-69894403D01*
X123910197Y-69910197D01*
X123894403Y-69929443D01*
X123882667Y-69951399D01*
X123875440Y-69975224D01*
X123873000Y-70000000D01*
X123873000Y-88467132D01*
X120525268Y-85119401D01*
X120522549Y-85112835D01*
X121664990Y-85112835D01*
X121664990Y-85287165D01*
X121699000Y-85458145D01*
X121765713Y-85619205D01*
X121862566Y-85764155D01*
X121985835Y-85887424D01*
X122130785Y-85984277D01*
X122291845Y-86050990D01*
X122462825Y-86085000D01*
X122637155Y-86085000D01*
X122808135Y-86050990D01*
X122969195Y-85984277D01*
X123114145Y-85887424D01*
X123237414Y-85764155D01*
X123334267Y-85619205D01*
X123400980Y-85458145D01*
X123434990Y-85287165D01*
X123434990Y-85112835D01*
X123400980Y-84941855D01*
X123334267Y-84780795D01*
X123237414Y-84635845D01*
X123114145Y-84512576D01*
X122969195Y-84415723D01*
X122808135Y-84349010D01*
X122637155Y-84315000D01*
X122462825Y-84315000D01*
X122291845Y-84349010D01*
X122130785Y-84415723D01*
X121985835Y-84512576D01*
X121862566Y-84635845D01*
X121765713Y-84780795D01*
X121699000Y-84941855D01*
X121664990Y-85112835D01*
X120522549Y-85112835D01*
X120509277Y-85080795D01*
X120412424Y-84935845D01*
X120289155Y-84812576D01*
X120144205Y-84715723D01*
X120105599Y-84699732D01*
X120085000Y-84679133D01*
X120085000Y-80822885D01*
X120112576Y-80864155D01*
X120235845Y-80987424D01*
X120380795Y-81084277D01*
X120541855Y-81150990D01*
X120712835Y-81185000D01*
X120887165Y-81185000D01*
X121058145Y-81150990D01*
X121219205Y-81084277D01*
X121364155Y-80987424D01*
X121487424Y-80864155D01*
X121584277Y-80719205D01*
X121650990Y-80558145D01*
X121685000Y-80387165D01*
X121685000Y-80212835D01*
X121650990Y-80041855D01*
X121584277Y-79880795D01*
X121487424Y-79735845D01*
X121364155Y-79612576D01*
X121219205Y-79515723D01*
X121058145Y-79449010D01*
X120887165Y-79415000D01*
X120712835Y-79415000D01*
X120541855Y-79449010D01*
X120380795Y-79515723D01*
X120235845Y-79612576D01*
X120112576Y-79735845D01*
X120085000Y-79777115D01*
X120085000Y-78536579D01*
X120135845Y-78587424D01*
X120280795Y-78684277D01*
X120441855Y-78750990D01*
X120612835Y-78785000D01*
X120787165Y-78785000D01*
X120958145Y-78750990D01*
X121119205Y-78684277D01*
X121264155Y-78587424D01*
X121387424Y-78464155D01*
X121484277Y-78319205D01*
X121550990Y-78158145D01*
X121585000Y-77987165D01*
X121585000Y-77812835D01*
X121550990Y-77641855D01*
X121484277Y-77480795D01*
X121387424Y-77335845D01*
X121264155Y-77212576D01*
X121119205Y-77115723D01*
X120958145Y-77049010D01*
X120787165Y-77015000D01*
X120612835Y-77015000D01*
X120441855Y-77049010D01*
X120280795Y-77115723D01*
X120135845Y-77212576D01*
X120085000Y-77263421D01*
X120085000Y-76586019D01*
X120241855Y-76650990D01*
X120412835Y-76685000D01*
X120587165Y-76685000D01*
X120758145Y-76650990D01*
X120919205Y-76584277D01*
X121064155Y-76487424D01*
X121187424Y-76364155D01*
X121284277Y-76219205D01*
X121350990Y-76058145D01*
X121385000Y-75887165D01*
X121385000Y-75712835D01*
X121350990Y-75541855D01*
X121284277Y-75380795D01*
X121187424Y-75235845D01*
X121064155Y-75112576D01*
X120969067Y-75049040D01*
X121089205Y-74999277D01*
X121234155Y-74902424D01*
X121357424Y-74779155D01*
X121454277Y-74634205D01*
X121520990Y-74473145D01*
X121555000Y-74302165D01*
X121555000Y-74127835D01*
X121520990Y-73956855D01*
X121454277Y-73795795D01*
X121357424Y-73650845D01*
X121234155Y-73527576D01*
X121089205Y-73430723D01*
X120928145Y-73364010D01*
X120757165Y-73330000D01*
X120582835Y-73330000D01*
X120411855Y-73364010D01*
X120250795Y-73430723D01*
X120105845Y-73527576D01*
X120085000Y-73548421D01*
X120085000Y-69721748D01*
X120100990Y-69683145D01*
X120135000Y-69512165D01*
X120135000Y-69337835D01*
X120100990Y-69166855D01*
X120035000Y-69007540D01*
X120035000Y-68225000D01*
X120157165Y-68225000D01*
X120328145Y-68190990D01*
X120489205Y-68124277D01*
X120634155Y-68027424D01*
X120757424Y-67904155D01*
X120854277Y-67759205D01*
X120920990Y-67598145D01*
X120955000Y-67427165D01*
X120955000Y-67252835D01*
X120920990Y-67081855D01*
X120854277Y-66920795D01*
X120757424Y-66775845D01*
X120634155Y-66652576D01*
X120489205Y-66555723D01*
X120328145Y-66489010D01*
X120157165Y-66455000D01*
X120035000Y-66455000D01*
X120035000Y-66062835D01*
X121140000Y-66062835D01*
X121140000Y-66237165D01*
X121174010Y-66408145D01*
X121240723Y-66569205D01*
X121337576Y-66714155D01*
X121460845Y-66837424D01*
X121605795Y-66934277D01*
X121766855Y-67000990D01*
X121937835Y-67035000D01*
X122112165Y-67035000D01*
X122283145Y-67000990D01*
X122444205Y-66934277D01*
X122589155Y-66837424D01*
X122712424Y-66714155D01*
X122809277Y-66569205D01*
X122875990Y-66408145D01*
X122910000Y-66237165D01*
X122910000Y-66062835D01*
X122875990Y-65891855D01*
X122809277Y-65730795D01*
X122712424Y-65585845D01*
X122589155Y-65462576D01*
X122444205Y-65365723D01*
X122283145Y-65299010D01*
X122112165Y-65265000D01*
X121937835Y-65265000D01*
X121766855Y-65299010D01*
X121605795Y-65365723D01*
X121460845Y-65462576D01*
X121337576Y-65585845D01*
X121240723Y-65730795D01*
X121174010Y-65891855D01*
X121140000Y-66062835D01*
X120035000Y-66062835D01*
X120035000Y-63037835D01*
X122115000Y-63037835D01*
X122115000Y-63212165D01*
X122149010Y-63383145D01*
X122215723Y-63544205D01*
X122312576Y-63689155D01*
X122435845Y-63812424D01*
X122580795Y-63909277D01*
X122741855Y-63975990D01*
X122912835Y-64010000D01*
X123087165Y-64010000D01*
X123258145Y-63975990D01*
X123419205Y-63909277D01*
X123564155Y-63812424D01*
X123687424Y-63689155D01*
X123784277Y-63544205D01*
X123850990Y-63383145D01*
X123885000Y-63212165D01*
X123885000Y-63037835D01*
X123850990Y-62866855D01*
X123784277Y-62705795D01*
X123687424Y-62560845D01*
X123564155Y-62437576D01*
X123419205Y-62340723D01*
X123258145Y-62274010D01*
X123087165Y-62240000D01*
X122912835Y-62240000D01*
X122741855Y-62274010D01*
X122580795Y-62340723D01*
X122435845Y-62437576D01*
X122312576Y-62560845D01*
X122215723Y-62705795D01*
X122149010Y-62866855D01*
X122115000Y-63037835D01*
X120035000Y-63037835D01*
X120035000Y-61896748D01*
X120050990Y-61858145D01*
X120085000Y-61687165D01*
X120085000Y-61512835D01*
X120050990Y-61341855D01*
X119984277Y-61180795D01*
X119887424Y-61035845D01*
X119764155Y-60912576D01*
X119619205Y-60815723D01*
X119458145Y-60749010D01*
X119287165Y-60715000D01*
X119112835Y-60715000D01*
X118941855Y-60749010D01*
X118780795Y-60815723D01*
X118635845Y-60912576D01*
X118512576Y-61035845D01*
X118415723Y-61180795D01*
X118349010Y-61341855D01*
X118315000Y-61512835D01*
X118315000Y-61687165D01*
X118349010Y-61858145D01*
X118365000Y-61896749D01*
X118365000Y-63797541D01*
X118335292Y-63788529D01*
X118197932Y-63775000D01*
X117182068Y-63775000D01*
X117044708Y-63788529D01*
X116868460Y-63841993D01*
X116706028Y-63928814D01*
X116563656Y-64045656D01*
X116446814Y-64188028D01*
X116359993Y-64350460D01*
X116306529Y-64526708D01*
X116288476Y-64710000D01*
X116306529Y-64893292D01*
X116359993Y-65069540D01*
X116446814Y-65231972D01*
X116563656Y-65374344D01*
X116706028Y-65491186D01*
X116868460Y-65578007D01*
X117044708Y-65631471D01*
X117182068Y-65645000D01*
X118197932Y-65645000D01*
X118335292Y-65631471D01*
X118365001Y-65622459D01*
X118365001Y-66667515D01*
X118237932Y-66655000D01*
X117222068Y-66655000D01*
X117084708Y-66668529D01*
X116908460Y-66721993D01*
X116746028Y-66808814D01*
X116603656Y-66925656D01*
X116486814Y-67068028D01*
X116399993Y-67230460D01*
X116346529Y-67406708D01*
X116328476Y-67590000D01*
X116346529Y-67773292D01*
X116399993Y-67949540D01*
X116486814Y-68111972D01*
X116603656Y-68254344D01*
X116746028Y-68371186D01*
X116908460Y-68458007D01*
X117084708Y-68511471D01*
X117222068Y-68525000D01*
X118237932Y-68525000D01*
X118365001Y-68512485D01*
X118365001Y-69333971D01*
X118360960Y-69375000D01*
X118365000Y-69416018D01*
X118365000Y-69512165D01*
X118399010Y-69683145D01*
X118415000Y-69721748D01*
X118415000Y-71760574D01*
X118375292Y-71748529D01*
X118237932Y-71735000D01*
X117222068Y-71735000D01*
X117084708Y-71748529D01*
X116908460Y-71801993D01*
X116746028Y-71888814D01*
X116603656Y-72005656D01*
X116486814Y-72148028D01*
X116399993Y-72310460D01*
X116346529Y-72486708D01*
X116328476Y-72670000D01*
X116346529Y-72853292D01*
X116399993Y-73029540D01*
X116486814Y-73191972D01*
X116603656Y-73334344D01*
X116746028Y-73451186D01*
X116908460Y-73538007D01*
X117084708Y-73591471D01*
X117222068Y-73605000D01*
X118237932Y-73605000D01*
X118375292Y-73591471D01*
X118415000Y-73579426D01*
X118415001Y-82742471D01*
X118306973Y-82653815D01*
X118144541Y-82566994D01*
X117968293Y-82513530D01*
X117830933Y-82500001D01*
X116815069Y-82500001D01*
X116677709Y-82513530D01*
X116501461Y-82566994D01*
X116339029Y-82653815D01*
X116196657Y-82770657D01*
X116079815Y-82913029D01*
X115992994Y-83075461D01*
X115939530Y-83251709D01*
X115921477Y-83435001D01*
X115939530Y-83618293D01*
X115992994Y-83794541D01*
X116079815Y-83956973D01*
X116196657Y-84099345D01*
X116339029Y-84216187D01*
X116501461Y-84303008D01*
X116677709Y-84356472D01*
X116815069Y-84370001D01*
X117830933Y-84370001D01*
X117968293Y-84356472D01*
X118144541Y-84303008D01*
X118306973Y-84216187D01*
X118415001Y-84127531D01*
X118415001Y-84983971D01*
X118410960Y-85025000D01*
X118427082Y-85188688D01*
X118474828Y-85346086D01*
X118552364Y-85491145D01*
X118552365Y-85491146D01*
X118656710Y-85618291D01*
X118688574Y-85644441D01*
X118803245Y-85759112D01*
X118658145Y-85699010D01*
X118487165Y-85665000D01*
X118312835Y-85665000D01*
X118141855Y-85699010D01*
X117980795Y-85765723D01*
X117835845Y-85862576D01*
X117712576Y-85985845D01*
X117615723Y-86130795D01*
X117549010Y-86291855D01*
X117515000Y-86462835D01*
X117515000Y-86637165D01*
X117549010Y-86808145D01*
X117615723Y-86969205D01*
X117712576Y-87114155D01*
X117835845Y-87237424D01*
X117980795Y-87334277D01*
X118141855Y-87400990D01*
X118312835Y-87435000D01*
X118487165Y-87435000D01*
X118658145Y-87400990D01*
X118819205Y-87334277D01*
X118964155Y-87237424D01*
X119087424Y-87114155D01*
X119184277Y-86969205D01*
X119250990Y-86808145D01*
X119285000Y-86637165D01*
X119285000Y-86462835D01*
X119250990Y-86291855D01*
X119225677Y-86230744D01*
X119305795Y-86284277D01*
X119344401Y-86300268D01*
X123873000Y-90828869D01*
X123873000Y-92500000D01*
X123875440Y-92524776D01*
X123882667Y-92548601D01*
X123894403Y-92570557D01*
X123910197Y-92589803D01*
X123929443Y-92605597D01*
X123951399Y-92617333D01*
X123975224Y-92624560D01*
X124000000Y-92627000D01*
X126424608Y-92627000D01*
X129388507Y-98060814D01*
X129402514Y-98081397D01*
X129420267Y-98098851D01*
X129441084Y-98112507D01*
X129464165Y-98121839D01*
X129500000Y-98127000D01*
X142373000Y-98127000D01*
X142373000Y-99356940D01*
X142233145Y-99299010D01*
X142062165Y-99265000D01*
X141887835Y-99265000D01*
X141716855Y-99299010D01*
X141555795Y-99365723D01*
X141410845Y-99462576D01*
X141287576Y-99585845D01*
X141190723Y-99730795D01*
X141124010Y-99891855D01*
X141090000Y-100062835D01*
X141090000Y-100237165D01*
X141124010Y-100408145D01*
X141190723Y-100569205D01*
X141287576Y-100714155D01*
X141410845Y-100837424D01*
X141555795Y-100934277D01*
X141716855Y-101000990D01*
X141887835Y-101035000D01*
X142062165Y-101035000D01*
X142233145Y-101000990D01*
X142394205Y-100934277D01*
X142539155Y-100837424D01*
X142662424Y-100714155D01*
X142759277Y-100569205D01*
X142825990Y-100408145D01*
X142860000Y-100237165D01*
X142860000Y-100127000D01*
X150675874Y-100127000D01*
X150649010Y-100191855D01*
X150615000Y-100362835D01*
X150615000Y-100537165D01*
X150649010Y-100708145D01*
X150715723Y-100869205D01*
X150812576Y-101014155D01*
X150935845Y-101137424D01*
X151080795Y-101234277D01*
X151241855Y-101300990D01*
X151412835Y-101335000D01*
X151587165Y-101335000D01*
X151758145Y-101300990D01*
X151919205Y-101234277D01*
X152064155Y-101137424D01*
X152187424Y-101014155D01*
X152284277Y-100869205D01*
X152350990Y-100708145D01*
X152385000Y-100537165D01*
X152385000Y-100362835D01*
X152350990Y-100191855D01*
X152324126Y-100127000D01*
X154315001Y-100127000D01*
X154315001Y-103569588D01*
X154252080Y-103492919D01*
X154041187Y-103319843D01*
X153800580Y-103191236D01*
X153539506Y-103112040D01*
X153469701Y-103105165D01*
X153511824Y-103042124D01*
X153597383Y-102835567D01*
X153641000Y-102616288D01*
X153641000Y-102392712D01*
X153597383Y-102173433D01*
X153511824Y-101966876D01*
X153387612Y-101780980D01*
X153229520Y-101622888D01*
X153043624Y-101498676D01*
X152837067Y-101413117D01*
X152617788Y-101369500D01*
X152394212Y-101369500D01*
X152174933Y-101413117D01*
X151968376Y-101498676D01*
X151782480Y-101622888D01*
X151624388Y-101780980D01*
X151500176Y-101966876D01*
X151414617Y-102173433D01*
X151371000Y-102392712D01*
X151371000Y-102616288D01*
X151414617Y-102835567D01*
X151500176Y-103042124D01*
X151624388Y-103228020D01*
X151782480Y-103386112D01*
X151968376Y-103510324D01*
X152174933Y-103595883D01*
X152195983Y-103600070D01*
X152110843Y-103703813D01*
X151982236Y-103944420D01*
X151903040Y-104205494D01*
X151883000Y-104408964D01*
X151883000Y-105045037D01*
X151903040Y-105248507D01*
X151982236Y-105509581D01*
X152110843Y-105750188D01*
X152283920Y-105961081D01*
X152494813Y-106134157D01*
X152735420Y-106262764D01*
X152907619Y-106315000D01*
X147532382Y-106315000D01*
X147704581Y-106262764D01*
X147945188Y-106134157D01*
X148156081Y-105961081D01*
X148329157Y-105750188D01*
X148457764Y-105509580D01*
X148536960Y-105248506D01*
X148557000Y-105045036D01*
X148557000Y-104408963D01*
X148536960Y-104205493D01*
X148457764Y-103944419D01*
X148329157Y-103703812D01*
X148244017Y-103600070D01*
X148265067Y-103595883D01*
X148471624Y-103510324D01*
X148657520Y-103386112D01*
X148815612Y-103228020D01*
X148939824Y-103042124D01*
X149025383Y-102835567D01*
X149069000Y-102616288D01*
X149069000Y-102392712D01*
X149025383Y-102173433D01*
X148939824Y-101966876D01*
X148815612Y-101780980D01*
X148657520Y-101622888D01*
X148471624Y-101498676D01*
X148265067Y-101413117D01*
X148045788Y-101369500D01*
X147822212Y-101369500D01*
X147602933Y-101413117D01*
X147396376Y-101498676D01*
X147210480Y-101622888D01*
X147052388Y-101780980D01*
X146928176Y-101966876D01*
X146842617Y-102173433D01*
X146799000Y-102392712D01*
X146799000Y-102616288D01*
X146842617Y-102835567D01*
X146928176Y-103042124D01*
X146970299Y-103105165D01*
X146900493Y-103112040D01*
X146639419Y-103191236D01*
X146398812Y-103319843D01*
X146187919Y-103492920D01*
X146014843Y-103703813D01*
X145886236Y-103944420D01*
X145807040Y-104205494D01*
X145787000Y-104408964D01*
X145787000Y-105045037D01*
X145807040Y-105248507D01*
X145886236Y-105509581D01*
X146014843Y-105750188D01*
X146187920Y-105961081D01*
X146398813Y-106134157D01*
X146639420Y-106262764D01*
X146811619Y-106315000D01*
X115685000Y-106315000D01*
X115685000Y-105112835D01*
X121840000Y-105112835D01*
X121840000Y-105287165D01*
X121874010Y-105458145D01*
X121940723Y-105619205D01*
X122037576Y-105764155D01*
X122160845Y-105887424D01*
X122305795Y-105984277D01*
X122466855Y-106050990D01*
X122637835Y-106085000D01*
X122812165Y-106085000D01*
X122983145Y-106050990D01*
X123144205Y-105984277D01*
X123289155Y-105887424D01*
X123412424Y-105764155D01*
X123509277Y-105619205D01*
X123575990Y-105458145D01*
X123610000Y-105287165D01*
X123610000Y-105112835D01*
X123575990Y-104941855D01*
X123509277Y-104780795D01*
X123412424Y-104635845D01*
X123289155Y-104512576D01*
X123144205Y-104415723D01*
X122983145Y-104349010D01*
X122812165Y-104315000D01*
X122637835Y-104315000D01*
X122466855Y-104349010D01*
X122305795Y-104415723D01*
X122160845Y-104512576D01*
X122037576Y-104635845D01*
X121940723Y-104780795D01*
X121874010Y-104941855D01*
X121840000Y-105112835D01*
X115685000Y-105112835D01*
X115685000Y-103587835D01*
X116265000Y-103587835D01*
X116265000Y-103762165D01*
X116299010Y-103933145D01*
X116365723Y-104094205D01*
X116462576Y-104239155D01*
X116585845Y-104362424D01*
X116730795Y-104459277D01*
X116891855Y-104525990D01*
X117062835Y-104560000D01*
X117237165Y-104560000D01*
X117408145Y-104525990D01*
X117569205Y-104459277D01*
X117714155Y-104362424D01*
X117837424Y-104239155D01*
X117934277Y-104094205D01*
X118000990Y-103933145D01*
X118035000Y-103762165D01*
X118035000Y-103587835D01*
X118000990Y-103416855D01*
X117934277Y-103255795D01*
X117837424Y-103110845D01*
X117714155Y-102987576D01*
X117569205Y-102890723D01*
X117408145Y-102824010D01*
X117237165Y-102790000D01*
X117062835Y-102790000D01*
X116891855Y-102824010D01*
X116730795Y-102890723D01*
X116585845Y-102987576D01*
X116462576Y-103110845D01*
X116365723Y-103255795D01*
X116299010Y-103416855D01*
X116265000Y-103587835D01*
X115685000Y-103587835D01*
X115685000Y-100715000D01*
X117144509Y-100715000D01*
X117166423Y-100937498D01*
X117231324Y-101151446D01*
X117336717Y-101348622D01*
X117443012Y-101478143D01*
X119478010Y-103513142D01*
X119513552Y-103556450D01*
X119686378Y-103698285D01*
X119883554Y-103803677D01*
X120097502Y-103868578D01*
X120320000Y-103890492D01*
X120375752Y-103885001D01*
X128273868Y-103885001D01*
X130002007Y-105613141D01*
X130037549Y-105656449D01*
X130210375Y-105798284D01*
X130407551Y-105903676D01*
X130621499Y-105968577D01*
X130843997Y-105990491D01*
X130899749Y-105985000D01*
X136580752Y-105985000D01*
X136747499Y-105968577D01*
X136961447Y-105903676D01*
X137158623Y-105798284D01*
X137272911Y-105704490D01*
X137375845Y-105807424D01*
X137520795Y-105904277D01*
X137681855Y-105970990D01*
X137852835Y-106005000D01*
X138027165Y-106005000D01*
X138198145Y-105970990D01*
X138359205Y-105904277D01*
X138504155Y-105807424D01*
X138627424Y-105684155D01*
X138724277Y-105539205D01*
X138790990Y-105378145D01*
X138825000Y-105207165D01*
X138825000Y-105032835D01*
X138790990Y-104861855D01*
X138724277Y-104700795D01*
X138627424Y-104555845D01*
X138504155Y-104432576D01*
X138359205Y-104335723D01*
X138198145Y-104269010D01*
X138027165Y-104235000D01*
X137852835Y-104235000D01*
X137681855Y-104269010D01*
X137534124Y-104330202D01*
X137473284Y-104216377D01*
X137331449Y-104043551D01*
X137158623Y-103901716D01*
X136961447Y-103796324D01*
X136747499Y-103731423D01*
X136580752Y-103715000D01*
X131592085Y-103715000D01*
X131625990Y-103633145D01*
X131660000Y-103462165D01*
X131660000Y-103287835D01*
X131630164Y-103137835D01*
X141090000Y-103137835D01*
X141090000Y-103312165D01*
X141124010Y-103483145D01*
X141190723Y-103644205D01*
X141287576Y-103789155D01*
X141410845Y-103912424D01*
X141555795Y-104009277D01*
X141716855Y-104075990D01*
X141887835Y-104110000D01*
X142062165Y-104110000D01*
X142233145Y-104075990D01*
X142394205Y-104009277D01*
X142539155Y-103912424D01*
X142662424Y-103789155D01*
X142759277Y-103644205D01*
X142825990Y-103483145D01*
X142860000Y-103312165D01*
X142860000Y-103137835D01*
X142825990Y-102966855D01*
X142759277Y-102805795D01*
X142662424Y-102660845D01*
X142539155Y-102537576D01*
X142394205Y-102440723D01*
X142233145Y-102374010D01*
X142062165Y-102340000D01*
X141887835Y-102340000D01*
X141716855Y-102374010D01*
X141555795Y-102440723D01*
X141410845Y-102537576D01*
X141287576Y-102660845D01*
X141190723Y-102805795D01*
X141124010Y-102966855D01*
X141090000Y-103137835D01*
X131630164Y-103137835D01*
X131625990Y-103116855D01*
X131559277Y-102955795D01*
X131462424Y-102810845D01*
X131339155Y-102687576D01*
X131194205Y-102590723D01*
X131033145Y-102524010D01*
X130862165Y-102490000D01*
X130687835Y-102490000D01*
X130516855Y-102524010D01*
X130355795Y-102590723D01*
X130256320Y-102657191D01*
X129713537Y-102114407D01*
X129801855Y-102150990D01*
X129972835Y-102185000D01*
X130147165Y-102185000D01*
X130318145Y-102150990D01*
X130479205Y-102084277D01*
X130624155Y-101987424D01*
X130747424Y-101864155D01*
X130844277Y-101719205D01*
X130910990Y-101558145D01*
X130945000Y-101387165D01*
X130945000Y-101212835D01*
X130910990Y-101041855D01*
X130844277Y-100880795D01*
X130747424Y-100735845D01*
X130624155Y-100612576D01*
X130479205Y-100515723D01*
X130318145Y-100449010D01*
X130147165Y-100415000D01*
X129972835Y-100415000D01*
X129801855Y-100449010D01*
X129640795Y-100515723D01*
X129495845Y-100612576D01*
X129372576Y-100735845D01*
X129275723Y-100880795D01*
X129209010Y-101041855D01*
X129175000Y-101212835D01*
X129175000Y-101387165D01*
X129209010Y-101558145D01*
X129275723Y-101719205D01*
X129304874Y-101762833D01*
X129180446Y-101696325D01*
X128966498Y-101631424D01*
X128799751Y-101615001D01*
X128799750Y-101615001D01*
X128743999Y-101609510D01*
X128688248Y-101615001D01*
X123815540Y-101615001D01*
X123800990Y-101541855D01*
X123734277Y-101380795D01*
X123637424Y-101235845D01*
X123514155Y-101112576D01*
X123369205Y-101015723D01*
X123208145Y-100949010D01*
X123037165Y-100915000D01*
X122862835Y-100915000D01*
X122691855Y-100949010D01*
X122530795Y-101015723D01*
X122385845Y-101112576D01*
X122262576Y-101235845D01*
X122165723Y-101380795D01*
X122099010Y-101541855D01*
X122084460Y-101615001D01*
X120790133Y-101615001D01*
X119048143Y-99873012D01*
X118918622Y-99766717D01*
X118721446Y-99661324D01*
X118507498Y-99596423D01*
X118285000Y-99574509D01*
X118062502Y-99596423D01*
X117848554Y-99661324D01*
X117651378Y-99766717D01*
X117478552Y-99908552D01*
X117336717Y-100081378D01*
X117231324Y-100278554D01*
X117166423Y-100492502D01*
X117144509Y-100715000D01*
X115685000Y-100715000D01*
X115685000Y-98202835D01*
X121365000Y-98202835D01*
X121365000Y-98377165D01*
X121399010Y-98548145D01*
X121465723Y-98709205D01*
X121562576Y-98854155D01*
X121685845Y-98977424D01*
X121830795Y-99074277D01*
X121991855Y-99140990D01*
X122162835Y-99175000D01*
X122337165Y-99175000D01*
X122508145Y-99140990D01*
X122669205Y-99074277D01*
X122814155Y-98977424D01*
X122937424Y-98854155D01*
X123034277Y-98709205D01*
X123100990Y-98548145D01*
X123135000Y-98377165D01*
X123135000Y-98202835D01*
X123133011Y-98192835D01*
X124675000Y-98192835D01*
X124675000Y-98367165D01*
X124709010Y-98538145D01*
X124775723Y-98699205D01*
X124872576Y-98844155D01*
X124995845Y-98967424D01*
X125140795Y-99064277D01*
X125301855Y-99130990D01*
X125472835Y-99165000D01*
X125647165Y-99165000D01*
X125818145Y-99130990D01*
X125979205Y-99064277D01*
X126124155Y-98967424D01*
X126247424Y-98844155D01*
X126344277Y-98699205D01*
X126410990Y-98538145D01*
X126445000Y-98367165D01*
X126445000Y-98192835D01*
X126410990Y-98021855D01*
X126344277Y-97860795D01*
X126247424Y-97715845D01*
X126124155Y-97592576D01*
X125979205Y-97495723D01*
X125818145Y-97429010D01*
X125647165Y-97395000D01*
X125472835Y-97395000D01*
X125301855Y-97429010D01*
X125140795Y-97495723D01*
X124995845Y-97592576D01*
X124872576Y-97715845D01*
X124775723Y-97860795D01*
X124709010Y-98021855D01*
X124675000Y-98192835D01*
X123133011Y-98192835D01*
X123100990Y-98031855D01*
X123034277Y-97870795D01*
X122937424Y-97725845D01*
X122814155Y-97602576D01*
X122669205Y-97505723D01*
X122508145Y-97439010D01*
X122337165Y-97405000D01*
X122162835Y-97405000D01*
X121991855Y-97439010D01*
X121830795Y-97505723D01*
X121685845Y-97602576D01*
X121562576Y-97725845D01*
X121465723Y-97870795D01*
X121399010Y-98031855D01*
X121365000Y-98202835D01*
X115685000Y-98202835D01*
X115685000Y-94723740D01*
X116125000Y-94723740D01*
X116125000Y-95016260D01*
X116182068Y-95303158D01*
X116294010Y-95573411D01*
X116456525Y-95816632D01*
X116663368Y-96023475D01*
X116906589Y-96185990D01*
X117176842Y-96297932D01*
X117463740Y-96355000D01*
X117756260Y-96355000D01*
X118043158Y-96297932D01*
X118313411Y-96185990D01*
X118556632Y-96023475D01*
X118688487Y-95891620D01*
X118710498Y-95964180D01*
X118769463Y-96074494D01*
X118848815Y-96171185D01*
X118945506Y-96250537D01*
X119055820Y-96309502D01*
X119175518Y-96345812D01*
X119300000Y-96358072D01*
X121000000Y-96358072D01*
X121124482Y-96345812D01*
X121244180Y-96309502D01*
X121354494Y-96250537D01*
X121451185Y-96171185D01*
X121530537Y-96074494D01*
X121589502Y-95964180D01*
X121625812Y-95844482D01*
X121638072Y-95720000D01*
X121638072Y-94020000D01*
X121625812Y-93895518D01*
X121589502Y-93775820D01*
X121530537Y-93665506D01*
X121451185Y-93568815D01*
X121354494Y-93489463D01*
X121244180Y-93430498D01*
X121124482Y-93394188D01*
X121000000Y-93381928D01*
X119300000Y-93381928D01*
X119175518Y-93394188D01*
X119055820Y-93430498D01*
X118945506Y-93489463D01*
X118848815Y-93568815D01*
X118769463Y-93665506D01*
X118710498Y-93775820D01*
X118688487Y-93848380D01*
X118556632Y-93716525D01*
X118313411Y-93554010D01*
X118043158Y-93442068D01*
X117756260Y-93385000D01*
X117463740Y-93385000D01*
X117176842Y-93442068D01*
X116906589Y-93554010D01*
X116663368Y-93716525D01*
X116456525Y-93923368D01*
X116294010Y-94166589D01*
X116182068Y-94436842D01*
X116125000Y-94723740D01*
X115685000Y-94723740D01*
X115685000Y-92912835D01*
X121615000Y-92912835D01*
X121615000Y-93087165D01*
X121649010Y-93258145D01*
X121715723Y-93419205D01*
X121812576Y-93564155D01*
X121935845Y-93687424D01*
X122080795Y-93784277D01*
X122241855Y-93850990D01*
X122412835Y-93885000D01*
X122587165Y-93885000D01*
X122758145Y-93850990D01*
X122919205Y-93784277D01*
X123064155Y-93687424D01*
X123187424Y-93564155D01*
X123284277Y-93419205D01*
X123350990Y-93258145D01*
X123385000Y-93087165D01*
X123385000Y-92912835D01*
X123350990Y-92741855D01*
X123284277Y-92580795D01*
X123187424Y-92435845D01*
X123064155Y-92312576D01*
X122919205Y-92215723D01*
X122758145Y-92149010D01*
X122587165Y-92115000D01*
X122412835Y-92115000D01*
X122241855Y-92149010D01*
X122080795Y-92215723D01*
X121935845Y-92312576D01*
X121812576Y-92435845D01*
X121715723Y-92580795D01*
X121649010Y-92741855D01*
X121615000Y-92912835D01*
X115685000Y-92912835D01*
X115685000Y-91212835D01*
X118215000Y-91212835D01*
X118215000Y-91387165D01*
X118249010Y-91558145D01*
X118315723Y-91719205D01*
X118412576Y-91864155D01*
X118535845Y-91987424D01*
X118680795Y-92084277D01*
X118841855Y-92150990D01*
X119012835Y-92185000D01*
X119187165Y-92185000D01*
X119358145Y-92150990D01*
X119519205Y-92084277D01*
X119664155Y-91987424D01*
X119787424Y-91864155D01*
X119884277Y-91719205D01*
X119950990Y-91558145D01*
X119985000Y-91387165D01*
X119985000Y-91212835D01*
X119950990Y-91041855D01*
X119884277Y-90880795D01*
X119787424Y-90735845D01*
X119664155Y-90612576D01*
X119519205Y-90515723D01*
X119358145Y-90449010D01*
X119187165Y-90415000D01*
X119012835Y-90415000D01*
X118841855Y-90449010D01*
X118680795Y-90515723D01*
X118535845Y-90612576D01*
X118412576Y-90735845D01*
X118315723Y-90880795D01*
X118249010Y-91041855D01*
X118215000Y-91212835D01*
X115685000Y-91212835D01*
X115685000Y-88515001D01*
X115921477Y-88515001D01*
X115939530Y-88698293D01*
X115992994Y-88874541D01*
X116079815Y-89036973D01*
X116196657Y-89179345D01*
X116339029Y-89296187D01*
X116501461Y-89383008D01*
X116677709Y-89436472D01*
X116815069Y-89450001D01*
X117830933Y-89450001D01*
X117968293Y-89436472D01*
X118144541Y-89383008D01*
X118306973Y-89296187D01*
X118449345Y-89179345D01*
X118566187Y-89036973D01*
X118653008Y-88874541D01*
X118706472Y-88698293D01*
X118724525Y-88515001D01*
X118706472Y-88331709D01*
X118653008Y-88155461D01*
X118566187Y-87993029D01*
X118449345Y-87850657D01*
X118306973Y-87733815D01*
X118144541Y-87646994D01*
X117968293Y-87593530D01*
X117830933Y-87580001D01*
X116815069Y-87580001D01*
X116677709Y-87593530D01*
X116501461Y-87646994D01*
X116339029Y-87733815D01*
X116196657Y-87850657D01*
X116079815Y-87993029D01*
X115992994Y-88155461D01*
X115939530Y-88331709D01*
X115921477Y-88515001D01*
X115685000Y-88515001D01*
X115685000Y-59127000D01*
X116436673Y-59127000D01*
X116359993Y-59270460D01*
X116306529Y-59446708D01*
X116288476Y-59630000D01*
X116306529Y-59813292D01*
X116359993Y-59989540D01*
X116446814Y-60151972D01*
X116563656Y-60294344D01*
X116706028Y-60411186D01*
X116868460Y-60498007D01*
X117044708Y-60551471D01*
X117182068Y-60565000D01*
X118197932Y-60565000D01*
X118335292Y-60551471D01*
X118511540Y-60498007D01*
X118673972Y-60411186D01*
X118816344Y-60294344D01*
X118933186Y-60151972D01*
X119020007Y-59989540D01*
X119020524Y-59987835D01*
X123065000Y-59987835D01*
X123065000Y-60162165D01*
X123099010Y-60333145D01*
X123165723Y-60494205D01*
X123262576Y-60639155D01*
X123385845Y-60762424D01*
X123530795Y-60859277D01*
X123691855Y-60925990D01*
X123862835Y-60960000D01*
X124037165Y-60960000D01*
X124208145Y-60925990D01*
X124369205Y-60859277D01*
X124514155Y-60762424D01*
X124637424Y-60639155D01*
X124734277Y-60494205D01*
X124800990Y-60333145D01*
X124835000Y-60162165D01*
X124835000Y-59987835D01*
X124800990Y-59816855D01*
X124734277Y-59655795D01*
X124637424Y-59510845D01*
X124514155Y-59387576D01*
X124369205Y-59290723D01*
X124362233Y-59287835D01*
X132640000Y-59287835D01*
X132640000Y-59462165D01*
X132674010Y-59633145D01*
X132740723Y-59794205D01*
X132837576Y-59939155D01*
X132960845Y-60062424D01*
X133105795Y-60159277D01*
X133266855Y-60225990D01*
X133437835Y-60260000D01*
X133612165Y-60260000D01*
X133783145Y-60225990D01*
X133944205Y-60159277D01*
X134089155Y-60062424D01*
X134212424Y-59939155D01*
X134309277Y-59794205D01*
X134375990Y-59633145D01*
X134410000Y-59462165D01*
X134410000Y-59287835D01*
X134375990Y-59116855D01*
X134309277Y-58955795D01*
X134212424Y-58810845D01*
X134089155Y-58687576D01*
X133944205Y-58590723D01*
X133783145Y-58524010D01*
X133612165Y-58490000D01*
X133437835Y-58490000D01*
X133266855Y-58524010D01*
X133105795Y-58590723D01*
X132960845Y-58687576D01*
X132837576Y-58810845D01*
X132740723Y-58955795D01*
X132674010Y-59116855D01*
X132640000Y-59287835D01*
X124362233Y-59287835D01*
X124208145Y-59224010D01*
X124037165Y-59190000D01*
X123862835Y-59190000D01*
X123691855Y-59224010D01*
X123530795Y-59290723D01*
X123385845Y-59387576D01*
X123262576Y-59510845D01*
X123165723Y-59655795D01*
X123099010Y-59816855D01*
X123065000Y-59987835D01*
X119020524Y-59987835D01*
X119073471Y-59813292D01*
X119091524Y-59630000D01*
X119073471Y-59446708D01*
X119020007Y-59270460D01*
X118943327Y-59127000D01*
X130500000Y-59127000D01*
X130524776Y-59124560D01*
X130556796Y-59113592D01*
X133529980Y-57627000D01*
X136873000Y-57627000D01*
X136873000Y-58440000D01*
G04 #@! TA.AperFunction,Conductor*
D18*
G36*
X136873000Y-58440000D02*
G01*
X136787835Y-58440000D01*
X136616855Y-58474010D01*
X136455795Y-58540723D01*
X136310845Y-58637576D01*
X136187576Y-58760845D01*
X136090723Y-58905795D01*
X136024010Y-59066855D01*
X135990000Y-59237835D01*
X135990000Y-59412165D01*
X136024010Y-59583145D01*
X136090723Y-59744205D01*
X136187576Y-59889155D01*
X136310845Y-60012424D01*
X136455795Y-60109277D01*
X136616855Y-60175990D01*
X136787835Y-60210000D01*
X136873000Y-60210000D01*
X136873000Y-61500000D01*
X136875440Y-61524776D01*
X136882667Y-61548601D01*
X136894403Y-61570557D01*
X136910197Y-61589803D01*
X136929443Y-61605597D01*
X136951399Y-61617333D01*
X136975224Y-61624560D01*
X137000000Y-61627000D01*
X138579341Y-61627000D01*
X138637576Y-61714155D01*
X138760845Y-61837424D01*
X138905795Y-61934277D01*
X139066855Y-62000990D01*
X139237835Y-62035000D01*
X139412165Y-62035000D01*
X139583145Y-62000990D01*
X139744205Y-61934277D01*
X139889155Y-61837424D01*
X140012424Y-61714155D01*
X140070659Y-61627000D01*
X141373000Y-61627000D01*
X141373000Y-64873000D01*
X126000000Y-64873000D01*
X125975224Y-64875440D01*
X125951399Y-64882667D01*
X125929443Y-64894403D01*
X125910197Y-64910197D01*
X125894403Y-64929443D01*
X125882667Y-64951399D01*
X125875440Y-64975224D01*
X125873000Y-65000000D01*
X125873000Y-66682659D01*
X125790723Y-66805795D01*
X125724010Y-66966855D01*
X125690000Y-67137835D01*
X125690000Y-67312165D01*
X125724010Y-67483145D01*
X125790723Y-67644205D01*
X125873000Y-67767341D01*
X125873000Y-69873000D01*
X124000000Y-69873000D01*
X123975224Y-69875440D01*
X123951399Y-69882667D01*
X123929443Y-69894403D01*
X123910197Y-69910197D01*
X123894403Y-69929443D01*
X123882667Y-69951399D01*
X123875440Y-69975224D01*
X123873000Y-70000000D01*
X123873000Y-88467132D01*
X120525268Y-85119401D01*
X120522549Y-85112835D01*
X121664990Y-85112835D01*
X121664990Y-85287165D01*
X121699000Y-85458145D01*
X121765713Y-85619205D01*
X121862566Y-85764155D01*
X121985835Y-85887424D01*
X122130785Y-85984277D01*
X122291845Y-86050990D01*
X122462825Y-86085000D01*
X122637155Y-86085000D01*
X122808135Y-86050990D01*
X122969195Y-85984277D01*
X123114145Y-85887424D01*
X123237414Y-85764155D01*
X123334267Y-85619205D01*
X123400980Y-85458145D01*
X123434990Y-85287165D01*
X123434990Y-85112835D01*
X123400980Y-84941855D01*
X123334267Y-84780795D01*
X123237414Y-84635845D01*
X123114145Y-84512576D01*
X122969195Y-84415723D01*
X122808135Y-84349010D01*
X122637155Y-84315000D01*
X122462825Y-84315000D01*
X122291845Y-84349010D01*
X122130785Y-84415723D01*
X121985835Y-84512576D01*
X121862566Y-84635845D01*
X121765713Y-84780795D01*
X121699000Y-84941855D01*
X121664990Y-85112835D01*
X120522549Y-85112835D01*
X120509277Y-85080795D01*
X120412424Y-84935845D01*
X120289155Y-84812576D01*
X120144205Y-84715723D01*
X120105599Y-84699732D01*
X120085000Y-84679133D01*
X120085000Y-80822885D01*
X120112576Y-80864155D01*
X120235845Y-80987424D01*
X120380795Y-81084277D01*
X120541855Y-81150990D01*
X120712835Y-81185000D01*
X120887165Y-81185000D01*
X121058145Y-81150990D01*
X121219205Y-81084277D01*
X121364155Y-80987424D01*
X121487424Y-80864155D01*
X121584277Y-80719205D01*
X121650990Y-80558145D01*
X121685000Y-80387165D01*
X121685000Y-80212835D01*
X121650990Y-80041855D01*
X121584277Y-79880795D01*
X121487424Y-79735845D01*
X121364155Y-79612576D01*
X121219205Y-79515723D01*
X121058145Y-79449010D01*
X120887165Y-79415000D01*
X120712835Y-79415000D01*
X120541855Y-79449010D01*
X120380795Y-79515723D01*
X120235845Y-79612576D01*
X120112576Y-79735845D01*
X120085000Y-79777115D01*
X120085000Y-78536579D01*
X120135845Y-78587424D01*
X120280795Y-78684277D01*
X120441855Y-78750990D01*
X120612835Y-78785000D01*
X120787165Y-78785000D01*
X120958145Y-78750990D01*
X121119205Y-78684277D01*
X121264155Y-78587424D01*
X121387424Y-78464155D01*
X121484277Y-78319205D01*
X121550990Y-78158145D01*
X121585000Y-77987165D01*
X121585000Y-77812835D01*
X121550990Y-77641855D01*
X121484277Y-77480795D01*
X121387424Y-77335845D01*
X121264155Y-77212576D01*
X121119205Y-77115723D01*
X120958145Y-77049010D01*
X120787165Y-77015000D01*
X120612835Y-77015000D01*
X120441855Y-77049010D01*
X120280795Y-77115723D01*
X120135845Y-77212576D01*
X120085000Y-77263421D01*
X120085000Y-76586019D01*
X120241855Y-76650990D01*
X120412835Y-76685000D01*
X120587165Y-76685000D01*
X120758145Y-76650990D01*
X120919205Y-76584277D01*
X121064155Y-76487424D01*
X121187424Y-76364155D01*
X121284277Y-76219205D01*
X121350990Y-76058145D01*
X121385000Y-75887165D01*
X121385000Y-75712835D01*
X121350990Y-75541855D01*
X121284277Y-75380795D01*
X121187424Y-75235845D01*
X121064155Y-75112576D01*
X120969067Y-75049040D01*
X121089205Y-74999277D01*
X121234155Y-74902424D01*
X121357424Y-74779155D01*
X121454277Y-74634205D01*
X121520990Y-74473145D01*
X121555000Y-74302165D01*
X121555000Y-74127835D01*
X121520990Y-73956855D01*
X121454277Y-73795795D01*
X121357424Y-73650845D01*
X121234155Y-73527576D01*
X121089205Y-73430723D01*
X120928145Y-73364010D01*
X120757165Y-73330000D01*
X120582835Y-73330000D01*
X120411855Y-73364010D01*
X120250795Y-73430723D01*
X120105845Y-73527576D01*
X120085000Y-73548421D01*
X120085000Y-69721748D01*
X120100990Y-69683145D01*
X120135000Y-69512165D01*
X120135000Y-69337835D01*
X120100990Y-69166855D01*
X120035000Y-69007540D01*
X120035000Y-68225000D01*
X120157165Y-68225000D01*
X120328145Y-68190990D01*
X120489205Y-68124277D01*
X120634155Y-68027424D01*
X120757424Y-67904155D01*
X120854277Y-67759205D01*
X120920990Y-67598145D01*
X120955000Y-67427165D01*
X120955000Y-67252835D01*
X120920990Y-67081855D01*
X120854277Y-66920795D01*
X120757424Y-66775845D01*
X120634155Y-66652576D01*
X120489205Y-66555723D01*
X120328145Y-66489010D01*
X120157165Y-66455000D01*
X120035000Y-66455000D01*
X120035000Y-66062835D01*
X121140000Y-66062835D01*
X121140000Y-66237165D01*
X121174010Y-66408145D01*
X121240723Y-66569205D01*
X121337576Y-66714155D01*
X121460845Y-66837424D01*
X121605795Y-66934277D01*
X121766855Y-67000990D01*
X121937835Y-67035000D01*
X122112165Y-67035000D01*
X122283145Y-67000990D01*
X122444205Y-66934277D01*
X122589155Y-66837424D01*
X122712424Y-66714155D01*
X122809277Y-66569205D01*
X122875990Y-66408145D01*
X122910000Y-66237165D01*
X122910000Y-66062835D01*
X122875990Y-65891855D01*
X122809277Y-65730795D01*
X122712424Y-65585845D01*
X122589155Y-65462576D01*
X122444205Y-65365723D01*
X122283145Y-65299010D01*
X122112165Y-65265000D01*
X121937835Y-65265000D01*
X121766855Y-65299010D01*
X121605795Y-65365723D01*
X121460845Y-65462576D01*
X121337576Y-65585845D01*
X121240723Y-65730795D01*
X121174010Y-65891855D01*
X121140000Y-66062835D01*
X120035000Y-66062835D01*
X120035000Y-63037835D01*
X122115000Y-63037835D01*
X122115000Y-63212165D01*
X122149010Y-63383145D01*
X122215723Y-63544205D01*
X122312576Y-63689155D01*
X122435845Y-63812424D01*
X122580795Y-63909277D01*
X122741855Y-63975990D01*
X122912835Y-64010000D01*
X123087165Y-64010000D01*
X123258145Y-63975990D01*
X123419205Y-63909277D01*
X123564155Y-63812424D01*
X123687424Y-63689155D01*
X123784277Y-63544205D01*
X123850990Y-63383145D01*
X123885000Y-63212165D01*
X123885000Y-63037835D01*
X123850990Y-62866855D01*
X123784277Y-62705795D01*
X123687424Y-62560845D01*
X123564155Y-62437576D01*
X123419205Y-62340723D01*
X123258145Y-62274010D01*
X123087165Y-62240000D01*
X122912835Y-62240000D01*
X122741855Y-62274010D01*
X122580795Y-62340723D01*
X122435845Y-62437576D01*
X122312576Y-62560845D01*
X122215723Y-62705795D01*
X122149010Y-62866855D01*
X122115000Y-63037835D01*
X120035000Y-63037835D01*
X120035000Y-61896748D01*
X120050990Y-61858145D01*
X120085000Y-61687165D01*
X120085000Y-61512835D01*
X120050990Y-61341855D01*
X119984277Y-61180795D01*
X119887424Y-61035845D01*
X119764155Y-60912576D01*
X119619205Y-60815723D01*
X119458145Y-60749010D01*
X119287165Y-60715000D01*
X119112835Y-60715000D01*
X118941855Y-60749010D01*
X118780795Y-60815723D01*
X118635845Y-60912576D01*
X118512576Y-61035845D01*
X118415723Y-61180795D01*
X118349010Y-61341855D01*
X118315000Y-61512835D01*
X118315000Y-61687165D01*
X118349010Y-61858145D01*
X118365000Y-61896749D01*
X118365000Y-63797541D01*
X118335292Y-63788529D01*
X118197932Y-63775000D01*
X117182068Y-63775000D01*
X117044708Y-63788529D01*
X116868460Y-63841993D01*
X116706028Y-63928814D01*
X116563656Y-64045656D01*
X116446814Y-64188028D01*
X116359993Y-64350460D01*
X116306529Y-64526708D01*
X116288476Y-64710000D01*
X116306529Y-64893292D01*
X116359993Y-65069540D01*
X116446814Y-65231972D01*
X116563656Y-65374344D01*
X116706028Y-65491186D01*
X116868460Y-65578007D01*
X117044708Y-65631471D01*
X117182068Y-65645000D01*
X118197932Y-65645000D01*
X118335292Y-65631471D01*
X118365001Y-65622459D01*
X118365001Y-66667515D01*
X118237932Y-66655000D01*
X117222068Y-66655000D01*
X117084708Y-66668529D01*
X116908460Y-66721993D01*
X116746028Y-66808814D01*
X116603656Y-66925656D01*
X116486814Y-67068028D01*
X116399993Y-67230460D01*
X116346529Y-67406708D01*
X116328476Y-67590000D01*
X116346529Y-67773292D01*
X116399993Y-67949540D01*
X116486814Y-68111972D01*
X116603656Y-68254344D01*
X116746028Y-68371186D01*
X116908460Y-68458007D01*
X117084708Y-68511471D01*
X117222068Y-68525000D01*
X118237932Y-68525000D01*
X118365001Y-68512485D01*
X118365001Y-69333971D01*
X118360960Y-69375000D01*
X118365000Y-69416018D01*
X118365000Y-69512165D01*
X118399010Y-69683145D01*
X118415000Y-69721748D01*
X118415000Y-71760574D01*
X118375292Y-71748529D01*
X118237932Y-71735000D01*
X117222068Y-71735000D01*
X117084708Y-71748529D01*
X116908460Y-71801993D01*
X116746028Y-71888814D01*
X116603656Y-72005656D01*
X116486814Y-72148028D01*
X116399993Y-72310460D01*
X116346529Y-72486708D01*
X116328476Y-72670000D01*
X116346529Y-72853292D01*
X116399993Y-73029540D01*
X116486814Y-73191972D01*
X116603656Y-73334344D01*
X116746028Y-73451186D01*
X116908460Y-73538007D01*
X117084708Y-73591471D01*
X117222068Y-73605000D01*
X118237932Y-73605000D01*
X118375292Y-73591471D01*
X118415000Y-73579426D01*
X118415001Y-82742471D01*
X118306973Y-82653815D01*
X118144541Y-82566994D01*
X117968293Y-82513530D01*
X117830933Y-82500001D01*
X116815069Y-82500001D01*
X116677709Y-82513530D01*
X116501461Y-82566994D01*
X116339029Y-82653815D01*
X116196657Y-82770657D01*
X116079815Y-82913029D01*
X115992994Y-83075461D01*
X115939530Y-83251709D01*
X115921477Y-83435001D01*
X115939530Y-83618293D01*
X115992994Y-83794541D01*
X116079815Y-83956973D01*
X116196657Y-84099345D01*
X116339029Y-84216187D01*
X116501461Y-84303008D01*
X116677709Y-84356472D01*
X116815069Y-84370001D01*
X117830933Y-84370001D01*
X117968293Y-84356472D01*
X118144541Y-84303008D01*
X118306973Y-84216187D01*
X118415001Y-84127531D01*
X118415001Y-84983971D01*
X118410960Y-85025000D01*
X118427082Y-85188688D01*
X118474828Y-85346086D01*
X118552364Y-85491145D01*
X118552365Y-85491146D01*
X118656710Y-85618291D01*
X118688574Y-85644441D01*
X118803245Y-85759112D01*
X118658145Y-85699010D01*
X118487165Y-85665000D01*
X118312835Y-85665000D01*
X118141855Y-85699010D01*
X117980795Y-85765723D01*
X117835845Y-85862576D01*
X117712576Y-85985845D01*
X117615723Y-86130795D01*
X117549010Y-86291855D01*
X117515000Y-86462835D01*
X117515000Y-86637165D01*
X117549010Y-86808145D01*
X117615723Y-86969205D01*
X117712576Y-87114155D01*
X117835845Y-87237424D01*
X117980795Y-87334277D01*
X118141855Y-87400990D01*
X118312835Y-87435000D01*
X118487165Y-87435000D01*
X118658145Y-87400990D01*
X118819205Y-87334277D01*
X118964155Y-87237424D01*
X119087424Y-87114155D01*
X119184277Y-86969205D01*
X119250990Y-86808145D01*
X119285000Y-86637165D01*
X119285000Y-86462835D01*
X119250990Y-86291855D01*
X119225677Y-86230744D01*
X119305795Y-86284277D01*
X119344401Y-86300268D01*
X123873000Y-90828869D01*
X123873000Y-92500000D01*
X123875440Y-92524776D01*
X123882667Y-92548601D01*
X123894403Y-92570557D01*
X123910197Y-92589803D01*
X123929443Y-92605597D01*
X123951399Y-92617333D01*
X123975224Y-92624560D01*
X124000000Y-92627000D01*
X126424608Y-92627000D01*
X129388507Y-98060814D01*
X129402514Y-98081397D01*
X129420267Y-98098851D01*
X129441084Y-98112507D01*
X129464165Y-98121839D01*
X129500000Y-98127000D01*
X142373000Y-98127000D01*
X142373000Y-99356940D01*
X142233145Y-99299010D01*
X142062165Y-99265000D01*
X141887835Y-99265000D01*
X141716855Y-99299010D01*
X141555795Y-99365723D01*
X141410845Y-99462576D01*
X141287576Y-99585845D01*
X141190723Y-99730795D01*
X141124010Y-99891855D01*
X141090000Y-100062835D01*
X141090000Y-100237165D01*
X141124010Y-100408145D01*
X141190723Y-100569205D01*
X141287576Y-100714155D01*
X141410845Y-100837424D01*
X141555795Y-100934277D01*
X141716855Y-101000990D01*
X141887835Y-101035000D01*
X142062165Y-101035000D01*
X142233145Y-101000990D01*
X142394205Y-100934277D01*
X142539155Y-100837424D01*
X142662424Y-100714155D01*
X142759277Y-100569205D01*
X142825990Y-100408145D01*
X142860000Y-100237165D01*
X142860000Y-100127000D01*
X150675874Y-100127000D01*
X150649010Y-100191855D01*
X150615000Y-100362835D01*
X150615000Y-100537165D01*
X150649010Y-100708145D01*
X150715723Y-100869205D01*
X150812576Y-101014155D01*
X150935845Y-101137424D01*
X151080795Y-101234277D01*
X151241855Y-101300990D01*
X151412835Y-101335000D01*
X151587165Y-101335000D01*
X151758145Y-101300990D01*
X151919205Y-101234277D01*
X152064155Y-101137424D01*
X152187424Y-101014155D01*
X152284277Y-100869205D01*
X152350990Y-100708145D01*
X152385000Y-100537165D01*
X152385000Y-100362835D01*
X152350990Y-100191855D01*
X152324126Y-100127000D01*
X154315001Y-100127000D01*
X154315001Y-103569588D01*
X154252080Y-103492919D01*
X154041187Y-103319843D01*
X153800580Y-103191236D01*
X153539506Y-103112040D01*
X153469701Y-103105165D01*
X153511824Y-103042124D01*
X153597383Y-102835567D01*
X153641000Y-102616288D01*
X153641000Y-102392712D01*
X153597383Y-102173433D01*
X153511824Y-101966876D01*
X153387612Y-101780980D01*
X153229520Y-101622888D01*
X153043624Y-101498676D01*
X152837067Y-101413117D01*
X152617788Y-101369500D01*
X152394212Y-101369500D01*
X152174933Y-101413117D01*
X151968376Y-101498676D01*
X151782480Y-101622888D01*
X151624388Y-101780980D01*
X151500176Y-101966876D01*
X151414617Y-102173433D01*
X151371000Y-102392712D01*
X151371000Y-102616288D01*
X151414617Y-102835567D01*
X151500176Y-103042124D01*
X151624388Y-103228020D01*
X151782480Y-103386112D01*
X151968376Y-103510324D01*
X152174933Y-103595883D01*
X152195983Y-103600070D01*
X152110843Y-103703813D01*
X151982236Y-103944420D01*
X151903040Y-104205494D01*
X151883000Y-104408964D01*
X151883000Y-105045037D01*
X151903040Y-105248507D01*
X151982236Y-105509581D01*
X152110843Y-105750188D01*
X152283920Y-105961081D01*
X152494813Y-106134157D01*
X152735420Y-106262764D01*
X152907619Y-106315000D01*
X147532382Y-106315000D01*
X147704581Y-106262764D01*
X147945188Y-106134157D01*
X148156081Y-105961081D01*
X148329157Y-105750188D01*
X148457764Y-105509580D01*
X148536960Y-105248506D01*
X148557000Y-105045036D01*
X148557000Y-104408963D01*
X148536960Y-104205493D01*
X148457764Y-103944419D01*
X148329157Y-103703812D01*
X148244017Y-103600070D01*
X148265067Y-103595883D01*
X148471624Y-103510324D01*
X148657520Y-103386112D01*
X148815612Y-103228020D01*
X148939824Y-103042124D01*
X149025383Y-102835567D01*
X149069000Y-102616288D01*
X149069000Y-102392712D01*
X149025383Y-102173433D01*
X148939824Y-101966876D01*
X148815612Y-101780980D01*
X148657520Y-101622888D01*
X148471624Y-101498676D01*
X148265067Y-101413117D01*
X148045788Y-101369500D01*
X147822212Y-101369500D01*
X147602933Y-101413117D01*
X147396376Y-101498676D01*
X147210480Y-101622888D01*
X147052388Y-101780980D01*
X146928176Y-101966876D01*
X146842617Y-102173433D01*
X146799000Y-102392712D01*
X146799000Y-102616288D01*
X146842617Y-102835567D01*
X146928176Y-103042124D01*
X146970299Y-103105165D01*
X146900493Y-103112040D01*
X146639419Y-103191236D01*
X146398812Y-103319843D01*
X146187919Y-103492920D01*
X146014843Y-103703813D01*
X145886236Y-103944420D01*
X145807040Y-104205494D01*
X145787000Y-104408964D01*
X145787000Y-105045037D01*
X145807040Y-105248507D01*
X145886236Y-105509581D01*
X146014843Y-105750188D01*
X146187920Y-105961081D01*
X146398813Y-106134157D01*
X146639420Y-106262764D01*
X146811619Y-106315000D01*
X115685000Y-106315000D01*
X115685000Y-105112835D01*
X121840000Y-105112835D01*
X121840000Y-105287165D01*
X121874010Y-105458145D01*
X121940723Y-105619205D01*
X122037576Y-105764155D01*
X122160845Y-105887424D01*
X122305795Y-105984277D01*
X122466855Y-106050990D01*
X122637835Y-106085000D01*
X122812165Y-106085000D01*
X122983145Y-106050990D01*
X123144205Y-105984277D01*
X123289155Y-105887424D01*
X123412424Y-105764155D01*
X123509277Y-105619205D01*
X123575990Y-105458145D01*
X123610000Y-105287165D01*
X123610000Y-105112835D01*
X123575990Y-104941855D01*
X123509277Y-104780795D01*
X123412424Y-104635845D01*
X123289155Y-104512576D01*
X123144205Y-104415723D01*
X122983145Y-104349010D01*
X122812165Y-104315000D01*
X122637835Y-104315000D01*
X122466855Y-104349010D01*
X122305795Y-104415723D01*
X122160845Y-104512576D01*
X122037576Y-104635845D01*
X121940723Y-104780795D01*
X121874010Y-104941855D01*
X121840000Y-105112835D01*
X115685000Y-105112835D01*
X115685000Y-103587835D01*
X116265000Y-103587835D01*
X116265000Y-103762165D01*
X116299010Y-103933145D01*
X116365723Y-104094205D01*
X116462576Y-104239155D01*
X116585845Y-104362424D01*
X116730795Y-104459277D01*
X116891855Y-104525990D01*
X117062835Y-104560000D01*
X117237165Y-104560000D01*
X117408145Y-104525990D01*
X117569205Y-104459277D01*
X117714155Y-104362424D01*
X117837424Y-104239155D01*
X117934277Y-104094205D01*
X118000990Y-103933145D01*
X118035000Y-103762165D01*
X118035000Y-103587835D01*
X118000990Y-103416855D01*
X117934277Y-103255795D01*
X117837424Y-103110845D01*
X117714155Y-102987576D01*
X117569205Y-102890723D01*
X117408145Y-102824010D01*
X117237165Y-102790000D01*
X117062835Y-102790000D01*
X116891855Y-102824010D01*
X116730795Y-102890723D01*
X116585845Y-102987576D01*
X116462576Y-103110845D01*
X116365723Y-103255795D01*
X116299010Y-103416855D01*
X116265000Y-103587835D01*
X115685000Y-103587835D01*
X115685000Y-100715000D01*
X117144509Y-100715000D01*
X117166423Y-100937498D01*
X117231324Y-101151446D01*
X117336717Y-101348622D01*
X117443012Y-101478143D01*
X119478010Y-103513142D01*
X119513552Y-103556450D01*
X119686378Y-103698285D01*
X119883554Y-103803677D01*
X120097502Y-103868578D01*
X120320000Y-103890492D01*
X120375752Y-103885001D01*
X128273868Y-103885001D01*
X130002007Y-105613141D01*
X130037549Y-105656449D01*
X130210375Y-105798284D01*
X130407551Y-105903676D01*
X130621499Y-105968577D01*
X130843997Y-105990491D01*
X130899749Y-105985000D01*
X136580752Y-105985000D01*
X136747499Y-105968577D01*
X136961447Y-105903676D01*
X137158623Y-105798284D01*
X137272911Y-105704490D01*
X137375845Y-105807424D01*
X137520795Y-105904277D01*
X137681855Y-105970990D01*
X137852835Y-106005000D01*
X138027165Y-106005000D01*
X138198145Y-105970990D01*
X138359205Y-105904277D01*
X138504155Y-105807424D01*
X138627424Y-105684155D01*
X138724277Y-105539205D01*
X138790990Y-105378145D01*
X138825000Y-105207165D01*
X138825000Y-105032835D01*
X138790990Y-104861855D01*
X138724277Y-104700795D01*
X138627424Y-104555845D01*
X138504155Y-104432576D01*
X138359205Y-104335723D01*
X138198145Y-104269010D01*
X138027165Y-104235000D01*
X137852835Y-104235000D01*
X137681855Y-104269010D01*
X137534124Y-104330202D01*
X137473284Y-104216377D01*
X137331449Y-104043551D01*
X137158623Y-103901716D01*
X136961447Y-103796324D01*
X136747499Y-103731423D01*
X136580752Y-103715000D01*
X131592085Y-103715000D01*
X131625990Y-103633145D01*
X131660000Y-103462165D01*
X131660000Y-103287835D01*
X131630164Y-103137835D01*
X141090000Y-103137835D01*
X141090000Y-103312165D01*
X141124010Y-103483145D01*
X141190723Y-103644205D01*
X141287576Y-103789155D01*
X141410845Y-103912424D01*
X141555795Y-104009277D01*
X141716855Y-104075990D01*
X141887835Y-104110000D01*
X142062165Y-104110000D01*
X142233145Y-104075990D01*
X142394205Y-104009277D01*
X142539155Y-103912424D01*
X142662424Y-103789155D01*
X142759277Y-103644205D01*
X142825990Y-103483145D01*
X142860000Y-103312165D01*
X142860000Y-103137835D01*
X142825990Y-102966855D01*
X142759277Y-102805795D01*
X142662424Y-102660845D01*
X142539155Y-102537576D01*
X142394205Y-102440723D01*
X142233145Y-102374010D01*
X142062165Y-102340000D01*
X141887835Y-102340000D01*
X141716855Y-102374010D01*
X141555795Y-102440723D01*
X141410845Y-102537576D01*
X141287576Y-102660845D01*
X141190723Y-102805795D01*
X141124010Y-102966855D01*
X141090000Y-103137835D01*
X131630164Y-103137835D01*
X131625990Y-103116855D01*
X131559277Y-102955795D01*
X131462424Y-102810845D01*
X131339155Y-102687576D01*
X131194205Y-102590723D01*
X131033145Y-102524010D01*
X130862165Y-102490000D01*
X130687835Y-102490000D01*
X130516855Y-102524010D01*
X130355795Y-102590723D01*
X130256320Y-102657191D01*
X129713537Y-102114407D01*
X129801855Y-102150990D01*
X129972835Y-102185000D01*
X130147165Y-102185000D01*
X130318145Y-102150990D01*
X130479205Y-102084277D01*
X130624155Y-101987424D01*
X130747424Y-101864155D01*
X130844277Y-101719205D01*
X130910990Y-101558145D01*
X130945000Y-101387165D01*
X130945000Y-101212835D01*
X130910990Y-101041855D01*
X130844277Y-100880795D01*
X130747424Y-100735845D01*
X130624155Y-100612576D01*
X130479205Y-100515723D01*
X130318145Y-100449010D01*
X130147165Y-100415000D01*
X129972835Y-100415000D01*
X129801855Y-100449010D01*
X129640795Y-100515723D01*
X129495845Y-100612576D01*
X129372576Y-100735845D01*
X129275723Y-100880795D01*
X129209010Y-101041855D01*
X129175000Y-101212835D01*
X129175000Y-101387165D01*
X129209010Y-101558145D01*
X129275723Y-101719205D01*
X129304874Y-101762833D01*
X129180446Y-101696325D01*
X128966498Y-101631424D01*
X128799751Y-101615001D01*
X128799750Y-101615001D01*
X128743999Y-101609510D01*
X128688248Y-101615001D01*
X123815540Y-101615001D01*
X123800990Y-101541855D01*
X123734277Y-101380795D01*
X123637424Y-101235845D01*
X123514155Y-101112576D01*
X123369205Y-101015723D01*
X123208145Y-100949010D01*
X123037165Y-100915000D01*
X122862835Y-100915000D01*
X122691855Y-100949010D01*
X122530795Y-101015723D01*
X122385845Y-101112576D01*
X122262576Y-101235845D01*
X122165723Y-101380795D01*
X122099010Y-101541855D01*
X122084460Y-101615001D01*
X120790133Y-101615001D01*
X119048143Y-99873012D01*
X118918622Y-99766717D01*
X118721446Y-99661324D01*
X118507498Y-99596423D01*
X118285000Y-99574509D01*
X118062502Y-99596423D01*
X117848554Y-99661324D01*
X117651378Y-99766717D01*
X117478552Y-99908552D01*
X117336717Y-100081378D01*
X117231324Y-100278554D01*
X117166423Y-100492502D01*
X117144509Y-100715000D01*
X115685000Y-100715000D01*
X115685000Y-98202835D01*
X121365000Y-98202835D01*
X121365000Y-98377165D01*
X121399010Y-98548145D01*
X121465723Y-98709205D01*
X121562576Y-98854155D01*
X121685845Y-98977424D01*
X121830795Y-99074277D01*
X121991855Y-99140990D01*
X122162835Y-99175000D01*
X122337165Y-99175000D01*
X122508145Y-99140990D01*
X122669205Y-99074277D01*
X122814155Y-98977424D01*
X122937424Y-98854155D01*
X123034277Y-98709205D01*
X123100990Y-98548145D01*
X123135000Y-98377165D01*
X123135000Y-98202835D01*
X123133011Y-98192835D01*
X124675000Y-98192835D01*
X124675000Y-98367165D01*
X124709010Y-98538145D01*
X124775723Y-98699205D01*
X124872576Y-98844155D01*
X124995845Y-98967424D01*
X125140795Y-99064277D01*
X125301855Y-99130990D01*
X125472835Y-99165000D01*
X125647165Y-99165000D01*
X125818145Y-99130990D01*
X125979205Y-99064277D01*
X126124155Y-98967424D01*
X126247424Y-98844155D01*
X126344277Y-98699205D01*
X126410990Y-98538145D01*
X126445000Y-98367165D01*
X126445000Y-98192835D01*
X126410990Y-98021855D01*
X126344277Y-97860795D01*
X126247424Y-97715845D01*
X126124155Y-97592576D01*
X125979205Y-97495723D01*
X125818145Y-97429010D01*
X125647165Y-97395000D01*
X125472835Y-97395000D01*
X125301855Y-97429010D01*
X125140795Y-97495723D01*
X124995845Y-97592576D01*
X124872576Y-97715845D01*
X124775723Y-97860795D01*
X124709010Y-98021855D01*
X124675000Y-98192835D01*
X123133011Y-98192835D01*
X123100990Y-98031855D01*
X123034277Y-97870795D01*
X122937424Y-97725845D01*
X122814155Y-97602576D01*
X122669205Y-97505723D01*
X122508145Y-97439010D01*
X122337165Y-97405000D01*
X122162835Y-97405000D01*
X121991855Y-97439010D01*
X121830795Y-97505723D01*
X121685845Y-97602576D01*
X121562576Y-97725845D01*
X121465723Y-97870795D01*
X121399010Y-98031855D01*
X121365000Y-98202835D01*
X115685000Y-98202835D01*
X115685000Y-94723740D01*
X116125000Y-94723740D01*
X116125000Y-95016260D01*
X116182068Y-95303158D01*
X116294010Y-95573411D01*
X116456525Y-95816632D01*
X116663368Y-96023475D01*
X116906589Y-96185990D01*
X117176842Y-96297932D01*
X117463740Y-96355000D01*
X117756260Y-96355000D01*
X118043158Y-96297932D01*
X118313411Y-96185990D01*
X118556632Y-96023475D01*
X118688487Y-95891620D01*
X118710498Y-95964180D01*
X118769463Y-96074494D01*
X118848815Y-96171185D01*
X118945506Y-96250537D01*
X119055820Y-96309502D01*
X119175518Y-96345812D01*
X119300000Y-96358072D01*
X121000000Y-96358072D01*
X121124482Y-96345812D01*
X121244180Y-96309502D01*
X121354494Y-96250537D01*
X121451185Y-96171185D01*
X121530537Y-96074494D01*
X121589502Y-95964180D01*
X121625812Y-95844482D01*
X121638072Y-95720000D01*
X121638072Y-94020000D01*
X121625812Y-93895518D01*
X121589502Y-93775820D01*
X121530537Y-93665506D01*
X121451185Y-93568815D01*
X121354494Y-93489463D01*
X121244180Y-93430498D01*
X121124482Y-93394188D01*
X121000000Y-93381928D01*
X119300000Y-93381928D01*
X119175518Y-93394188D01*
X119055820Y-93430498D01*
X118945506Y-93489463D01*
X118848815Y-93568815D01*
X118769463Y-93665506D01*
X118710498Y-93775820D01*
X118688487Y-93848380D01*
X118556632Y-93716525D01*
X118313411Y-93554010D01*
X118043158Y-93442068D01*
X117756260Y-93385000D01*
X117463740Y-93385000D01*
X117176842Y-93442068D01*
X116906589Y-93554010D01*
X116663368Y-93716525D01*
X116456525Y-93923368D01*
X116294010Y-94166589D01*
X116182068Y-94436842D01*
X116125000Y-94723740D01*
X115685000Y-94723740D01*
X115685000Y-92912835D01*
X121615000Y-92912835D01*
X121615000Y-93087165D01*
X121649010Y-93258145D01*
X121715723Y-93419205D01*
X121812576Y-93564155D01*
X121935845Y-93687424D01*
X122080795Y-93784277D01*
X122241855Y-93850990D01*
X122412835Y-93885000D01*
X122587165Y-93885000D01*
X122758145Y-93850990D01*
X122919205Y-93784277D01*
X123064155Y-93687424D01*
X123187424Y-93564155D01*
X123284277Y-93419205D01*
X123350990Y-93258145D01*
X123385000Y-93087165D01*
X123385000Y-92912835D01*
X123350990Y-92741855D01*
X123284277Y-92580795D01*
X123187424Y-92435845D01*
X123064155Y-92312576D01*
X122919205Y-92215723D01*
X122758145Y-92149010D01*
X122587165Y-92115000D01*
X122412835Y-92115000D01*
X122241855Y-92149010D01*
X122080795Y-92215723D01*
X121935845Y-92312576D01*
X121812576Y-92435845D01*
X121715723Y-92580795D01*
X121649010Y-92741855D01*
X121615000Y-92912835D01*
X115685000Y-92912835D01*
X115685000Y-91212835D01*
X118215000Y-91212835D01*
X118215000Y-91387165D01*
X118249010Y-91558145D01*
X118315723Y-91719205D01*
X118412576Y-91864155D01*
X118535845Y-91987424D01*
X118680795Y-92084277D01*
X118841855Y-92150990D01*
X119012835Y-92185000D01*
X119187165Y-92185000D01*
X119358145Y-92150990D01*
X119519205Y-92084277D01*
X119664155Y-91987424D01*
X119787424Y-91864155D01*
X119884277Y-91719205D01*
X119950990Y-91558145D01*
X119985000Y-91387165D01*
X119985000Y-91212835D01*
X119950990Y-91041855D01*
X119884277Y-90880795D01*
X119787424Y-90735845D01*
X119664155Y-90612576D01*
X119519205Y-90515723D01*
X119358145Y-90449010D01*
X119187165Y-90415000D01*
X119012835Y-90415000D01*
X118841855Y-90449010D01*
X118680795Y-90515723D01*
X118535845Y-90612576D01*
X118412576Y-90735845D01*
X118315723Y-90880795D01*
X118249010Y-91041855D01*
X118215000Y-91212835D01*
X115685000Y-91212835D01*
X115685000Y-88515001D01*
X115921477Y-88515001D01*
X115939530Y-88698293D01*
X115992994Y-88874541D01*
X116079815Y-89036973D01*
X116196657Y-89179345D01*
X116339029Y-89296187D01*
X116501461Y-89383008D01*
X116677709Y-89436472D01*
X116815069Y-89450001D01*
X117830933Y-89450001D01*
X117968293Y-89436472D01*
X118144541Y-89383008D01*
X118306973Y-89296187D01*
X118449345Y-89179345D01*
X118566187Y-89036973D01*
X118653008Y-88874541D01*
X118706472Y-88698293D01*
X118724525Y-88515001D01*
X118706472Y-88331709D01*
X118653008Y-88155461D01*
X118566187Y-87993029D01*
X118449345Y-87850657D01*
X118306973Y-87733815D01*
X118144541Y-87646994D01*
X117968293Y-87593530D01*
X117830933Y-87580001D01*
X116815069Y-87580001D01*
X116677709Y-87593530D01*
X116501461Y-87646994D01*
X116339029Y-87733815D01*
X116196657Y-87850657D01*
X116079815Y-87993029D01*
X115992994Y-88155461D01*
X115939530Y-88331709D01*
X115921477Y-88515001D01*
X115685000Y-88515001D01*
X115685000Y-59127000D01*
X116436673Y-59127000D01*
X116359993Y-59270460D01*
X116306529Y-59446708D01*
X116288476Y-59630000D01*
X116306529Y-59813292D01*
X116359993Y-59989540D01*
X116446814Y-60151972D01*
X116563656Y-60294344D01*
X116706028Y-60411186D01*
X116868460Y-60498007D01*
X117044708Y-60551471D01*
X117182068Y-60565000D01*
X118197932Y-60565000D01*
X118335292Y-60551471D01*
X118511540Y-60498007D01*
X118673972Y-60411186D01*
X118816344Y-60294344D01*
X118933186Y-60151972D01*
X119020007Y-59989540D01*
X119020524Y-59987835D01*
X123065000Y-59987835D01*
X123065000Y-60162165D01*
X123099010Y-60333145D01*
X123165723Y-60494205D01*
X123262576Y-60639155D01*
X123385845Y-60762424D01*
X123530795Y-60859277D01*
X123691855Y-60925990D01*
X123862835Y-60960000D01*
X124037165Y-60960000D01*
X124208145Y-60925990D01*
X124369205Y-60859277D01*
X124514155Y-60762424D01*
X124637424Y-60639155D01*
X124734277Y-60494205D01*
X124800990Y-60333145D01*
X124835000Y-60162165D01*
X124835000Y-59987835D01*
X124800990Y-59816855D01*
X124734277Y-59655795D01*
X124637424Y-59510845D01*
X124514155Y-59387576D01*
X124369205Y-59290723D01*
X124362233Y-59287835D01*
X132640000Y-59287835D01*
X132640000Y-59462165D01*
X132674010Y-59633145D01*
X132740723Y-59794205D01*
X132837576Y-59939155D01*
X132960845Y-60062424D01*
X133105795Y-60159277D01*
X133266855Y-60225990D01*
X133437835Y-60260000D01*
X133612165Y-60260000D01*
X133783145Y-60225990D01*
X133944205Y-60159277D01*
X134089155Y-60062424D01*
X134212424Y-59939155D01*
X134309277Y-59794205D01*
X134375990Y-59633145D01*
X134410000Y-59462165D01*
X134410000Y-59287835D01*
X134375990Y-59116855D01*
X134309277Y-58955795D01*
X134212424Y-58810845D01*
X134089155Y-58687576D01*
X133944205Y-58590723D01*
X133783145Y-58524010D01*
X133612165Y-58490000D01*
X133437835Y-58490000D01*
X133266855Y-58524010D01*
X133105795Y-58590723D01*
X132960845Y-58687576D01*
X132837576Y-58810845D01*
X132740723Y-58955795D01*
X132674010Y-59116855D01*
X132640000Y-59287835D01*
X124362233Y-59287835D01*
X124208145Y-59224010D01*
X124037165Y-59190000D01*
X123862835Y-59190000D01*
X123691855Y-59224010D01*
X123530795Y-59290723D01*
X123385845Y-59387576D01*
X123262576Y-59510845D01*
X123165723Y-59655795D01*
X123099010Y-59816855D01*
X123065000Y-59987835D01*
X119020524Y-59987835D01*
X119073471Y-59813292D01*
X119091524Y-59630000D01*
X119073471Y-59446708D01*
X119020007Y-59270460D01*
X118943327Y-59127000D01*
X130500000Y-59127000D01*
X130524776Y-59124560D01*
X130556796Y-59113592D01*
X133529980Y-57627000D01*
X136873000Y-57627000D01*
X136873000Y-58440000D01*
G37*
G04 #@! TD.AperFunction*
G04 #@! TD*
M02*
