M48
; DRILL file {KiCad 5.1.10-88a1d61d58~88~ubuntu20.04.1} date Fri May 21 15:29:46 2021
; FORMAT={-:-/ absolute / inch / decimal}
; #@! TF.CreationDate,2021-05-21T15:29:46+02:00
; #@! TF.GenerationSoftware,Kicad,Pcbnew,5.1.10-88a1d61d58~88~ubuntu20.04.1
FMAT,2
INCH
T1C0.0118
T2C0.0157
T3C0.0295
T4C0.0394
T5C0.0394
T6C0.0669
%
G90
G05
T1
X4.6122Y-4.0817
X4.626Y-1.564
X4.6569Y-3.9652
X4.6614Y-3.4075
X4.689Y-3.5945
X4.6929Y-2.4252
X4.6949Y-2.7333
X4.7136Y-3.3661
X4.7272Y-2.6512
X4.7441Y-2.9843
X4.7508Y-2.9219
X4.752Y-3.0669
X4.7559Y-3.1614
X4.8041Y-2.6043
X4.813Y-3.8697
X4.8228Y-3.6614
X4.8248Y-3.3543
X4.8317Y-4.1417
X4.8406Y-4.0079
X4.8425Y-2.4852
X4.8524Y-2.2116
X4.8671Y-2.6791
X4.8681Y-2.6152
X4.8799Y-2.3652
X4.9353Y-2.888
X4.9433Y-3.8693
X4.953Y-3.1496
X4.9636Y-2.5364
X4.9833Y-2.6467
X4.9882Y-3.1142
X5.0148Y-2.4124
X5.0197Y-3.563
X5.0315Y-3.0039
X5.0344Y-2.2126
X5.0551Y-2.9173
X5.0614Y-2.6098
X5.0681Y-3.1588
X5.0681Y-3.2041
X5.0787Y-3.5827
X5.1024Y-2.7205
X5.1181Y-3.7205
X5.1205Y-3.9882
X5.1486Y-4.0699
X5.1496Y-3.3839
X5.1565Y-2.6663
X5.1567Y-2.6041
X5.2205Y-3.0906
X5.2205Y-3.1339
X5.2205Y-3.2165
X5.2313Y-1.6211
X5.237Y-2.7555
X5.239Y-3.0484
X5.2539Y-2.4528
X5.2569Y-2.3376
X5.2608Y-3.497
X5.2795Y-2.6811
X5.3061Y-3.3858
X5.315Y-2.6496
X5.3504Y-3.2709
X5.3511Y-3.5519
X5.3512Y-3.0205
X5.3652Y-3.6191
X5.3728Y-1.6827
X5.375Y-4.128
X5.3846Y-2.887
X5.3878Y-3.2539
X5.3886Y-2.9941
X5.3888Y-2.3356
X5.3937Y-2.4518
X5.4122Y-1.9465
X5.4169Y-3.5752
X5.4173Y-2.7835
X5.424Y-3.9315
X5.4307Y-4.1386
X5.448Y-2.3226
X5.45Y-2.2272
X5.4518Y-2.5108
X5.4528Y-3.5502
X5.463Y-2.7807
X5.4734Y-3.4577
X5.4852Y-2.4075
X5.511Y-2.2281
X5.5157Y-3.5024
X5.5197Y-2.5098
X5.5224Y-2.9004
X5.5228Y-4.0504
X5.5547Y-2.7528
X5.5551Y-3.3898
X5.5618Y-2.6197
X5.5896Y-3.9429
X5.5896Y-4.064
X5.6181Y-2.4646
X5.628Y-1.8209
X5.628Y-1.8484
X5.6417Y-1.5325
X5.6496Y-3.8022
X5.6575Y-1.8199
X5.6585Y-1.8474
X5.6693Y-1.7283
X5.6693Y-2.5984
X5.6839Y-3.5764
X5.7138Y-3.2685
X5.7154Y-3.6039
X5.7156Y-1.7274
X5.7165Y-2.8858
X5.7343Y-1.5315
X5.7343Y-3.5024
X5.7402Y-3.7323
X5.7469Y-1.911
X5.747Y-1.7776
X5.7539Y-3.2685
X5.7559Y-2.8819
X5.7874Y-2.5984
X5.7953Y-2.7559
X5.8071Y-2.3957
X5.81Y-3.503
X5.815Y-2.315
X5.8335Y-2.7575
X5.8337Y-1.5305
X5.8356Y-2.0285
X5.8514Y-2.6467
X5.8563Y-3.6335
X5.8661Y-3.7913
X5.8728Y-2.7575
X5.8868Y-1.8346
X5.8878Y-1.7264
X5.9161Y-3.599
X5.9439Y-2.2608
X5.9459Y-2.0965
X5.9541Y-3.5739
X5.9646Y-3.9547
X5.9921Y-3.6575
X5.9961Y-2.4872
X6.0344Y-2.7618
X6.0346Y-3.2681
X6.0354Y-3.4705
X6.0579Y-3.5488
X6.0738Y-2.7608
X6.0748Y-3.3307
T4
X4.6303Y-3.735
X4.7303Y-3.735
T6
X4.9165Y-1.728
X4.9165Y-2.0035
T2
G00X4.6308Y-3.2848
M15
G01X4.6072Y-3.2848
M16
G05
G00X4.6308Y-3.4848
M15
G01X4.6072Y-3.4848
M16
G05
G00X4.6453Y-2.3476
M15
G01X4.6217Y-2.3476
M16
G05
G00X4.6453Y-2.5476
M15
G01X4.6217Y-2.5476
M16
G05
G00X4.6469Y-2.661
M15
G01X4.6232Y-2.661
M16
G05
G00X4.6469Y-2.861
M15
G01X4.6232Y-2.861
M16
G05
G00X6.0428Y-2.41
M15
G01X6.0664Y-2.41
M16
G05
G00X6.0428Y-2.61
M15
G01X6.0664Y-2.61
M16
G05
T3
G00X5.7942Y-4.1143
M15
G01X5.7942Y-4.132
M16
G05
G00X6.0342Y-4.1143
M15
G01X6.0342Y-4.132
M16
G05
T5
G00X5.8242Y-4.0356
M15
G01X5.8242Y-4.0356
M16
G05
G00X6.0042Y-4.0356
M15
G01X6.0042Y-4.0356
M16
G05
T0
M30
