G04 #@! TF.GenerationSoftware,KiCad,Pcbnew,5.1.10-88a1d61d58~88~ubuntu20.04.1*
G04 #@! TF.CreationDate,2021-05-21T15:29:45+02:00*
G04 #@! TF.ProjectId,osw-light-modifiedv3,6f73772d-6c69-4676-9874-2d6d6f646966,rev?*
G04 #@! TF.SameCoordinates,Original*
G04 #@! TF.FileFunction,Legend,Bot*
G04 #@! TF.FilePolarity,Positive*
%FSLAX46Y46*%
G04 Gerber Fmt 4.6, Leading zero omitted, Abs format (unit mm)*
G04 Created by KiCad (PCBNEW 5.1.10-88a1d61d58~88~ubuntu20.04.1) date 2021-05-21 15:29:45*
%MOMM*%
%LPD*%
G01*
G04 APERTURE LIST*
%ADD10C,0.150000*%
G04 APERTURE END LIST*
D10*
X151357142Y-38627380D02*
X151166666Y-38627380D01*
X151071428Y-38675000D01*
X150976190Y-38770238D01*
X150928571Y-38960714D01*
X150928571Y-39294047D01*
X150976190Y-39484523D01*
X151071428Y-39579761D01*
X151166666Y-39627380D01*
X151357142Y-39627380D01*
X151452380Y-39579761D01*
X151547619Y-39484523D01*
X151595238Y-39294047D01*
X151595238Y-38960714D01*
X151547619Y-38770238D01*
X151452380Y-38675000D01*
X151357142Y-38627380D01*
X150500000Y-38960714D02*
X150500000Y-39960714D01*
X150500000Y-39008333D02*
X150404761Y-38960714D01*
X150214285Y-38960714D01*
X150119047Y-39008333D01*
X150071428Y-39055952D01*
X150023809Y-39151190D01*
X150023809Y-39436904D01*
X150071428Y-39532142D01*
X150119047Y-39579761D01*
X150214285Y-39627380D01*
X150404761Y-39627380D01*
X150500000Y-39579761D01*
X149214285Y-39579761D02*
X149309523Y-39627380D01*
X149500000Y-39627380D01*
X149595238Y-39579761D01*
X149642857Y-39484523D01*
X149642857Y-39103571D01*
X149595238Y-39008333D01*
X149500000Y-38960714D01*
X149309523Y-38960714D01*
X149214285Y-39008333D01*
X149166666Y-39103571D01*
X149166666Y-39198809D01*
X149642857Y-39294047D01*
X148738095Y-38960714D02*
X148738095Y-39627380D01*
X148738095Y-39055952D02*
X148690476Y-39008333D01*
X148595238Y-38960714D01*
X148452380Y-38960714D01*
X148357142Y-39008333D01*
X148309523Y-39103571D01*
X148309523Y-39627380D01*
X147833333Y-39246428D02*
X147071428Y-39246428D01*
X146642857Y-39579761D02*
X146547619Y-39627380D01*
X146357142Y-39627380D01*
X146261904Y-39579761D01*
X146214285Y-39484523D01*
X146214285Y-39436904D01*
X146261904Y-39341666D01*
X146357142Y-39294047D01*
X146500000Y-39294047D01*
X146595238Y-39246428D01*
X146642857Y-39151190D01*
X146642857Y-39103571D01*
X146595238Y-39008333D01*
X146500000Y-38960714D01*
X146357142Y-38960714D01*
X146261904Y-39008333D01*
X145785714Y-39627380D02*
X145785714Y-38960714D01*
X145785714Y-39055952D02*
X145738095Y-39008333D01*
X145642857Y-38960714D01*
X145500000Y-38960714D01*
X145404761Y-39008333D01*
X145357142Y-39103571D01*
X145357142Y-39627380D01*
X145357142Y-39103571D02*
X145309523Y-39008333D01*
X145214285Y-38960714D01*
X145071428Y-38960714D01*
X144976190Y-39008333D01*
X144928571Y-39103571D01*
X144928571Y-39627380D01*
X144023809Y-39627380D02*
X144023809Y-39103571D01*
X144071428Y-39008333D01*
X144166666Y-38960714D01*
X144357142Y-38960714D01*
X144452380Y-39008333D01*
X144023809Y-39579761D02*
X144119047Y-39627380D01*
X144357142Y-39627380D01*
X144452380Y-39579761D01*
X144500000Y-39484523D01*
X144500000Y-39389285D01*
X144452380Y-39294047D01*
X144357142Y-39246428D01*
X144119047Y-39246428D01*
X144023809Y-39198809D01*
X143547619Y-39627380D02*
X143547619Y-38960714D01*
X143547619Y-39151190D02*
X143500000Y-39055952D01*
X143452380Y-39008333D01*
X143357142Y-38960714D01*
X143261904Y-38960714D01*
X143071428Y-38960714D02*
X142690476Y-38960714D01*
X142928571Y-38627380D02*
X142928571Y-39484523D01*
X142880952Y-39579761D01*
X142785714Y-39627380D01*
X142690476Y-39627380D01*
X142452380Y-38960714D02*
X142261904Y-39627380D01*
X142071428Y-39151190D01*
X141880952Y-39627380D01*
X141690476Y-38960714D01*
X140880952Y-39627380D02*
X140880952Y-39103571D01*
X140928571Y-39008333D01*
X141023809Y-38960714D01*
X141214285Y-38960714D01*
X141309523Y-39008333D01*
X140880952Y-39579761D02*
X140976190Y-39627380D01*
X141214285Y-39627380D01*
X141309523Y-39579761D01*
X141357142Y-39484523D01*
X141357142Y-39389285D01*
X141309523Y-39294047D01*
X141214285Y-39246428D01*
X140976190Y-39246428D01*
X140880952Y-39198809D01*
X140547619Y-38960714D02*
X140166666Y-38960714D01*
X140404761Y-38627380D02*
X140404761Y-39484523D01*
X140357142Y-39579761D01*
X140261904Y-39627380D01*
X140166666Y-39627380D01*
X139404761Y-39579761D02*
X139500000Y-39627380D01*
X139690476Y-39627380D01*
X139785714Y-39579761D01*
X139833333Y-39532142D01*
X139880952Y-39436904D01*
X139880952Y-39151190D01*
X139833333Y-39055952D01*
X139785714Y-39008333D01*
X139690476Y-38960714D01*
X139500000Y-38960714D01*
X139404761Y-39008333D01*
X138976190Y-39627380D02*
X138976190Y-38627380D01*
X138547619Y-39627380D02*
X138547619Y-39103571D01*
X138595238Y-39008333D01*
X138690476Y-38960714D01*
X138833333Y-38960714D01*
X138928571Y-39008333D01*
X138976190Y-39055952D01*
X137309523Y-39246428D02*
X136547619Y-39246428D01*
X136928571Y-39627380D02*
X136928571Y-38865476D01*
X135309523Y-39103571D02*
X134976190Y-39103571D01*
X134833333Y-39627380D02*
X135309523Y-39627380D01*
X135309523Y-38627380D01*
X134833333Y-38627380D01*
X133833333Y-39532142D02*
X133880952Y-39579761D01*
X134023809Y-39627380D01*
X134119047Y-39627380D01*
X134261904Y-39579761D01*
X134357142Y-39484523D01*
X134404761Y-39389285D01*
X134452380Y-39198809D01*
X134452380Y-39055952D01*
X134404761Y-38865476D01*
X134357142Y-38770238D01*
X134261904Y-38675000D01*
X134119047Y-38627380D01*
X134023809Y-38627380D01*
X133880952Y-38675000D01*
X133833333Y-38722619D01*
X132880952Y-38675000D02*
X132976190Y-38627380D01*
X133119047Y-38627380D01*
X133261904Y-38675000D01*
X133357142Y-38770238D01*
X133404761Y-38865476D01*
X133452380Y-39055952D01*
X133452380Y-39198809D01*
X133404761Y-39389285D01*
X133357142Y-39484523D01*
X133261904Y-39579761D01*
X133119047Y-39627380D01*
X133023809Y-39627380D01*
X132880952Y-39579761D01*
X132833333Y-39532142D01*
X132833333Y-39198809D01*
X133023809Y-39198809D01*
X131690476Y-39341666D02*
X131214285Y-39341666D01*
X131785714Y-39627380D02*
X131452380Y-38627380D01*
X131119047Y-39627380D01*
X130452380Y-39103571D02*
X130785714Y-39103571D01*
X130785714Y-39627380D02*
X130785714Y-38627380D01*
X130309523Y-38627380D01*
X129928571Y-39103571D02*
X129595238Y-39103571D01*
X129452380Y-39627380D02*
X129928571Y-39627380D01*
X129928571Y-38627380D01*
X129452380Y-38627380D01*
X128404761Y-38960714D02*
X128023809Y-38960714D01*
X128261904Y-38627380D02*
X128261904Y-39484523D01*
X128214285Y-39579761D01*
X128119047Y-39627380D01*
X128023809Y-39627380D01*
X127309523Y-39579761D02*
X127404761Y-39627380D01*
X127595238Y-39627380D01*
X127690476Y-39579761D01*
X127738095Y-39484523D01*
X127738095Y-39103571D01*
X127690476Y-39008333D01*
X127595238Y-38960714D01*
X127404761Y-38960714D01*
X127309523Y-39008333D01*
X127261904Y-39103571D01*
X127261904Y-39198809D01*
X127738095Y-39294047D01*
X126880952Y-39579761D02*
X126785714Y-39627380D01*
X126595238Y-39627380D01*
X126500000Y-39579761D01*
X126452380Y-39484523D01*
X126452380Y-39436904D01*
X126500000Y-39341666D01*
X126595238Y-39294047D01*
X126738095Y-39294047D01*
X126833333Y-39246428D01*
X126880952Y-39151190D01*
X126880952Y-39103571D01*
X126833333Y-39008333D01*
X126738095Y-38960714D01*
X126595238Y-38960714D01*
X126500000Y-39008333D01*
X126166666Y-38960714D02*
X125785714Y-38960714D01*
X126023809Y-38627380D02*
X126023809Y-39484523D01*
X125976190Y-39579761D01*
X125880952Y-39627380D01*
X125785714Y-39627380D01*
X124690476Y-39627380D02*
X124690476Y-38627380D01*
X124690476Y-39008333D02*
X124595238Y-38960714D01*
X124404761Y-38960714D01*
X124309523Y-39008333D01*
X124261904Y-39055952D01*
X124214285Y-39151190D01*
X124214285Y-39436904D01*
X124261904Y-39532142D01*
X124309523Y-39579761D01*
X124404761Y-39627380D01*
X124595238Y-39627380D01*
X124690476Y-39579761D01*
X123642857Y-39627380D02*
X123738095Y-39579761D01*
X123785714Y-39532142D01*
X123833333Y-39436904D01*
X123833333Y-39151190D01*
X123785714Y-39055952D01*
X123738095Y-39008333D01*
X123642857Y-38960714D01*
X123500000Y-38960714D01*
X123404761Y-39008333D01*
X123357142Y-39055952D01*
X123309523Y-39151190D01*
X123309523Y-39436904D01*
X123357142Y-39532142D01*
X123404761Y-39579761D01*
X123500000Y-39627380D01*
X123642857Y-39627380D01*
X122452380Y-39627380D02*
X122452380Y-39103571D01*
X122500000Y-39008333D01*
X122595238Y-38960714D01*
X122785714Y-38960714D01*
X122880952Y-39008333D01*
X122452380Y-39579761D02*
X122547619Y-39627380D01*
X122785714Y-39627380D01*
X122880952Y-39579761D01*
X122928571Y-39484523D01*
X122928571Y-39389285D01*
X122880952Y-39294047D01*
X122785714Y-39246428D01*
X122547619Y-39246428D01*
X122452380Y-39198809D01*
X121976190Y-39627380D02*
X121976190Y-38960714D01*
X121976190Y-39151190D02*
X121928571Y-39055952D01*
X121880952Y-39008333D01*
X121785714Y-38960714D01*
X121690476Y-38960714D01*
X120928571Y-39627380D02*
X120928571Y-38627380D01*
X120928571Y-39579761D02*
X121023809Y-39627380D01*
X121214285Y-39627380D01*
X121309523Y-39579761D01*
X121357142Y-39532142D01*
X121404761Y-39436904D01*
X121404761Y-39151190D01*
X121357142Y-39055952D01*
X121309523Y-39008333D01*
X121214285Y-38960714D01*
X121023809Y-38960714D01*
X120928571Y-39008333D01*
X119785714Y-38960714D02*
X119547619Y-39627380D01*
X119309523Y-38960714D01*
X118404761Y-39627380D02*
X118976190Y-39627380D01*
X118690476Y-39627380D02*
X118690476Y-38627380D01*
X118785714Y-38770238D01*
X118880952Y-38865476D01*
X118976190Y-38913095D01*
X144761904Y-41277380D02*
X144761904Y-40610714D01*
X144761904Y-40801190D02*
X144714285Y-40705952D01*
X144666666Y-40658333D01*
X144571428Y-40610714D01*
X144476190Y-40610714D01*
X144000000Y-41277380D02*
X144095238Y-41229761D01*
X144142857Y-41182142D01*
X144190476Y-41086904D01*
X144190476Y-40801190D01*
X144142857Y-40705952D01*
X144095238Y-40658333D01*
X144000000Y-40610714D01*
X143857142Y-40610714D01*
X143761904Y-40658333D01*
X143714285Y-40705952D01*
X143666666Y-40801190D01*
X143666666Y-41086904D01*
X143714285Y-41182142D01*
X143761904Y-41229761D01*
X143857142Y-41277380D01*
X144000000Y-41277380D01*
X143238095Y-41277380D02*
X143238095Y-40277380D01*
X142809523Y-41277380D02*
X142809523Y-40753571D01*
X142857142Y-40658333D01*
X142952380Y-40610714D01*
X143095238Y-40610714D01*
X143190476Y-40658333D01*
X143238095Y-40705952D01*
X142333333Y-41277380D02*
X142333333Y-40610714D01*
X142333333Y-40277380D02*
X142380952Y-40325000D01*
X142333333Y-40372619D01*
X142285714Y-40325000D01*
X142333333Y-40277380D01*
X142333333Y-40372619D01*
X142000000Y-40610714D02*
X141619047Y-40610714D01*
X141857142Y-40277380D02*
X141857142Y-41134523D01*
X141809523Y-41229761D01*
X141714285Y-41277380D01*
X141619047Y-41277380D01*
X141285714Y-41277380D02*
X141285714Y-40610714D01*
X141285714Y-40801190D02*
X141238095Y-40705952D01*
X141190476Y-40658333D01*
X141095238Y-40610714D01*
X141000000Y-40610714D01*
X140238095Y-41277380D02*
X140238095Y-40753571D01*
X140285714Y-40658333D01*
X140380952Y-40610714D01*
X140571428Y-40610714D01*
X140666666Y-40658333D01*
X140238095Y-41229761D02*
X140333333Y-41277380D01*
X140571428Y-41277380D01*
X140666666Y-41229761D01*
X140714285Y-41134523D01*
X140714285Y-41039285D01*
X140666666Y-40944047D01*
X140571428Y-40896428D01*
X140333333Y-40896428D01*
X140238095Y-40848809D01*
X139904761Y-40610714D02*
X139523809Y-40610714D01*
X139761904Y-40277380D02*
X139761904Y-41134523D01*
X139714285Y-41229761D01*
X139619047Y-41277380D01*
X139523809Y-41277380D01*
X139190476Y-41277380D02*
X139190476Y-40277380D01*
X138761904Y-41277380D02*
X138761904Y-40753571D01*
X138809523Y-40658333D01*
X138904761Y-40610714D01*
X139047619Y-40610714D01*
X139142857Y-40658333D01*
X139190476Y-40705952D01*
X138285714Y-40610714D02*
X138285714Y-41277380D01*
X138285714Y-40705952D02*
X138238095Y-40658333D01*
X138142857Y-40610714D01*
X138000000Y-40610714D01*
X137904761Y-40658333D01*
X137857142Y-40753571D01*
X137857142Y-41277380D01*
X136952380Y-41277380D02*
X136952380Y-40753571D01*
X137000000Y-40658333D01*
X137095238Y-40610714D01*
X137285714Y-40610714D01*
X137380952Y-40658333D01*
X136952380Y-41229761D02*
X137047619Y-41277380D01*
X137285714Y-41277380D01*
X137380952Y-41229761D01*
X137428571Y-41134523D01*
X137428571Y-41039285D01*
X137380952Y-40944047D01*
X137285714Y-40896428D01*
X137047619Y-40896428D01*
X136952380Y-40848809D01*
X136476190Y-41277380D02*
X136476190Y-40610714D01*
X136476190Y-40705952D02*
X136428571Y-40658333D01*
X136333333Y-40610714D01*
X136190476Y-40610714D01*
X136095238Y-40658333D01*
X136047619Y-40753571D01*
X136047619Y-41277380D01*
X136047619Y-40753571D02*
X136000000Y-40658333D01*
X135904761Y-40610714D01*
X135761904Y-40610714D01*
X135666666Y-40658333D01*
X135619047Y-40753571D01*
X135619047Y-41277380D01*
X135142857Y-41182142D02*
X135095238Y-41229761D01*
X135142857Y-41277380D01*
X135190476Y-41229761D01*
X135142857Y-41182142D01*
X135142857Y-41277380D01*
X134666666Y-40610714D02*
X134666666Y-41277380D01*
X134666666Y-40705952D02*
X134619047Y-40658333D01*
X134523809Y-40610714D01*
X134380952Y-40610714D01*
X134285714Y-40658333D01*
X134238095Y-40753571D01*
X134238095Y-41277380D01*
X133142857Y-40801190D02*
X133190476Y-40753571D01*
X133285714Y-40705952D01*
X133380952Y-40705952D01*
X133476190Y-40753571D01*
X133523809Y-40801190D01*
X133571428Y-40896428D01*
X133571428Y-40991666D01*
X133523809Y-41086904D01*
X133476190Y-41134523D01*
X133380952Y-41182142D01*
X133285714Y-41182142D01*
X133190476Y-41134523D01*
X133142857Y-41086904D01*
X133142857Y-40705952D02*
X133142857Y-41086904D01*
X133095238Y-41134523D01*
X133047619Y-41134523D01*
X132952380Y-41086904D01*
X132904761Y-40991666D01*
X132904761Y-40753571D01*
X133000000Y-40610714D01*
X133142857Y-40515476D01*
X133333333Y-40467857D01*
X133523809Y-40515476D01*
X133666666Y-40610714D01*
X133761904Y-40753571D01*
X133809523Y-40944047D01*
X133761904Y-41134523D01*
X133666666Y-41277380D01*
X133523809Y-41372619D01*
X133333333Y-41420238D01*
X133142857Y-41372619D01*
X133000000Y-41277380D01*
X132047619Y-40610714D02*
X132047619Y-41420238D01*
X132095238Y-41515476D01*
X132142857Y-41563095D01*
X132238095Y-41610714D01*
X132380952Y-41610714D01*
X132476190Y-41563095D01*
X132047619Y-41229761D02*
X132142857Y-41277380D01*
X132333333Y-41277380D01*
X132428571Y-41229761D01*
X132476190Y-41182142D01*
X132523809Y-41086904D01*
X132523809Y-40801190D01*
X132476190Y-40705952D01*
X132428571Y-40658333D01*
X132333333Y-40610714D01*
X132142857Y-40610714D01*
X132047619Y-40658333D01*
X131571428Y-41277380D02*
X131571428Y-40610714D01*
X131571428Y-40705952D02*
X131523809Y-40658333D01*
X131428571Y-40610714D01*
X131285714Y-40610714D01*
X131190476Y-40658333D01*
X131142857Y-40753571D01*
X131142857Y-41277380D01*
X131142857Y-40753571D02*
X131095238Y-40658333D01*
X131000000Y-40610714D01*
X130857142Y-40610714D01*
X130761904Y-40658333D01*
X130714285Y-40753571D01*
X130714285Y-41277380D01*
X129809523Y-41277380D02*
X129809523Y-40753571D01*
X129857142Y-40658333D01*
X129952380Y-40610714D01*
X130142857Y-40610714D01*
X130238095Y-40658333D01*
X129809523Y-41229761D02*
X129904761Y-41277380D01*
X130142857Y-41277380D01*
X130238095Y-41229761D01*
X130285714Y-41134523D01*
X130285714Y-41039285D01*
X130238095Y-40944047D01*
X130142857Y-40896428D01*
X129904761Y-40896428D01*
X129809523Y-40848809D01*
X129333333Y-41277380D02*
X129333333Y-40610714D01*
X129333333Y-40277380D02*
X129380952Y-40325000D01*
X129333333Y-40372619D01*
X129285714Y-40325000D01*
X129333333Y-40277380D01*
X129333333Y-40372619D01*
X128714285Y-41277380D02*
X128809523Y-41229761D01*
X128857142Y-41134523D01*
X128857142Y-40277380D01*
X128333333Y-41182142D02*
X128285714Y-41229761D01*
X128333333Y-41277380D01*
X128380952Y-41229761D01*
X128333333Y-41182142D01*
X128333333Y-41277380D01*
X127428571Y-41229761D02*
X127523809Y-41277380D01*
X127714285Y-41277380D01*
X127809523Y-41229761D01*
X127857142Y-41182142D01*
X127904761Y-41086904D01*
X127904761Y-40801190D01*
X127857142Y-40705952D01*
X127809523Y-40658333D01*
X127714285Y-40610714D01*
X127523809Y-40610714D01*
X127428571Y-40658333D01*
X126857142Y-41277380D02*
X126952380Y-41229761D01*
X127000000Y-41182142D01*
X127047619Y-41086904D01*
X127047619Y-40801190D01*
X127000000Y-40705952D01*
X126952380Y-40658333D01*
X126857142Y-40610714D01*
X126714285Y-40610714D01*
X126619047Y-40658333D01*
X126571428Y-40705952D01*
X126523809Y-40801190D01*
X126523809Y-41086904D01*
X126571428Y-41182142D01*
X126619047Y-41229761D01*
X126714285Y-41277380D01*
X126857142Y-41277380D01*
X126095238Y-41277380D02*
X126095238Y-40610714D01*
X126095238Y-40705952D02*
X126047619Y-40658333D01*
X125952380Y-40610714D01*
X125809523Y-40610714D01*
X125714285Y-40658333D01*
X125666666Y-40753571D01*
X125666666Y-41277380D01*
X125666666Y-40753571D02*
X125619047Y-40658333D01*
X125523809Y-40610714D01*
X125380952Y-40610714D01*
X125285714Y-40658333D01*
X125238095Y-40753571D01*
X125238095Y-41277380D01*
G04 #@! TO.C,U10*
X131630765Y-82083196D02*
X131630765Y-83083196D01*
X121230765Y-83883196D02*
X121230765Y-72483196D01*
X121630765Y-84283196D02*
X127880765Y-84283196D01*
X131630765Y-72483196D02*
X131630765Y-73483196D01*
X127880765Y-83083196D02*
G75*
G03*
X127880765Y-83083196I-500000J0D01*
G01*
X127880765Y-73083196D02*
G75*
G03*
X127880765Y-73083196I-500000J0D01*
G01*
X121630765Y-72083196D02*
X131230765Y-72083196D01*
X128680765Y-83483196D02*
X131280765Y-83483196D01*
X121230765Y-83883196D02*
G75*
G03*
X121630765Y-84283196I400000J0D01*
G01*
X121630765Y-72083196D02*
G75*
G03*
X121230765Y-72483196I0J-400000D01*
G01*
X127880765Y-84283196D02*
G75*
G03*
X128280765Y-83883196I0J400000D01*
G01*
X128680765Y-83483196D02*
G75*
G03*
X128280765Y-83883196I0J-400000D01*
G01*
X131630765Y-72483196D02*
G75*
G03*
X131230765Y-72083196I-400000J0D01*
G01*
X131230765Y-83483196D02*
G75*
G03*
X131630765Y-83083196I0J400000D01*
G01*
X124433145Y-76545100D02*
X125242669Y-76545100D01*
X125337907Y-76592719D01*
X125385526Y-76640338D01*
X125433145Y-76735576D01*
X125433145Y-76926053D01*
X125385526Y-77021291D01*
X125337907Y-77068910D01*
X125242669Y-77116529D01*
X124433145Y-77116529D01*
X125433145Y-78116529D02*
X125433145Y-77545100D01*
X125433145Y-77830815D02*
X124433145Y-77830815D01*
X124576003Y-77735576D01*
X124671241Y-77640338D01*
X124718860Y-77545100D01*
X124433145Y-78735576D02*
X124433145Y-78830815D01*
X124480765Y-78926053D01*
X124528384Y-78973672D01*
X124623622Y-79021291D01*
X124814098Y-79068910D01*
X125052193Y-79068910D01*
X125242669Y-79021291D01*
X125337907Y-78973672D01*
X125385526Y-78926053D01*
X125433145Y-78830815D01*
X125433145Y-78735576D01*
X125385526Y-78640338D01*
X125337907Y-78592719D01*
X125242669Y-78545100D01*
X125052193Y-78497481D01*
X124814098Y-78497481D01*
X124623622Y-78545100D01*
X124528384Y-78592719D01*
X124480765Y-78640338D01*
X124433145Y-78735576D01*
X128933145Y-74242719D02*
X128933145Y-73671291D01*
X128933145Y-73957005D02*
X127933145Y-73957005D01*
X128076003Y-73861767D01*
X128171241Y-73766529D01*
X128218860Y-73671291D01*
X128028384Y-74623672D02*
X127980765Y-74671291D01*
X127933145Y-74766529D01*
X127933145Y-75004624D01*
X127980765Y-75099862D01*
X128028384Y-75147481D01*
X128123622Y-75195100D01*
X128218860Y-75195100D01*
X128361717Y-75147481D01*
X128933145Y-74576053D01*
X128933145Y-75195100D01*
X128883145Y-81918910D02*
X128883145Y-81347481D01*
X128883145Y-81633196D02*
X127883145Y-81633196D01*
X128026003Y-81537957D01*
X128121241Y-81442719D01*
X128168860Y-81347481D01*
G04 #@! TD*
M02*
