G04 #@! TF.GenerationSoftware,KiCad,Pcbnew,5.1.10-88a1d61d58~88~ubuntu20.04.1*
G04 #@! TF.CreationDate,2021-05-21T15:29:45+02:00*
G04 #@! TF.ProjectId,osw-light-modifiedv3,6f73772d-6c69-4676-9874-2d6d6f646966,rev?*
G04 #@! TF.SameCoordinates,Original*
G04 #@! TF.FileFunction,Paste,Top*
G04 #@! TF.FilePolarity,Positive*
%FSLAX46Y46*%
G04 Gerber Fmt 4.6, Leading zero omitted, Abs format (unit mm)*
G04 Created by KiCad (PCBNEW 5.1.10-88a1d61d58~88~ubuntu20.04.1) date 2021-05-21 15:29:45*
%MOMM*%
%LPD*%
G01*
G04 APERTURE LIST*
%ADD10C,0.100000*%
%ADD11C,0.127000*%
%ADD12R,0.400000X1.350000*%
%ADD13O,1.500000X2.000000*%
%ADD14R,2.000000X2.000000*%
%ADD15R,2.800000X2.800000*%
%ADD16R,2.800000X2.600000*%
%ADD17R,2.800000X2.200000*%
%ADD18R,1.524000X0.500000*%
%ADD19R,0.600000X1.750000*%
%ADD20R,0.800000X0.900000*%
%ADD21R,1.060000X0.650000*%
%ADD22R,0.375000X0.350000*%
%ADD23R,0.350000X0.375000*%
%ADD24R,1.524000X0.600000*%
%ADD25R,0.600000X1.524000*%
%ADD26R,0.250000X1.100000*%
%ADD27R,0.650000X1.060000*%
%ADD28R,0.500000X0.250000*%
%ADD29R,0.250000X0.500000*%
G04 APERTURE END LIST*
D10*
G04 #@! TO.C,U6*
G36*
X145370000Y-77940000D02*
G01*
X145370000Y-76140000D01*
X147170000Y-76140000D01*
X147170000Y-77940000D01*
X145370000Y-77940000D01*
G37*
X145370000Y-77940000D02*
X145370000Y-76140000D01*
X147170000Y-76140000D01*
X147170000Y-77940000D01*
X145370000Y-77940000D01*
G36*
X145370000Y-80240000D02*
G01*
X145370000Y-78440000D01*
X147170000Y-78440000D01*
X147170000Y-80240000D01*
X145370000Y-80240000D01*
G37*
X145370000Y-80240000D02*
X145370000Y-78440000D01*
X147170000Y-78440000D01*
X147170000Y-80240000D01*
X145370000Y-80240000D01*
G36*
X143070000Y-80240000D02*
G01*
X143070000Y-78440000D01*
X144870000Y-78440000D01*
X144870000Y-80240000D01*
X143070000Y-80240000D01*
G37*
X143070000Y-80240000D02*
X143070000Y-78440000D01*
X144870000Y-78440000D01*
X144870000Y-80240000D01*
X143070000Y-80240000D01*
G36*
X143070000Y-77940000D02*
G01*
X143070000Y-76140000D01*
X144870000Y-76140000D01*
X144870000Y-77940000D01*
X143070000Y-77940000D01*
G37*
X143070000Y-77940000D02*
X143070000Y-76140000D01*
X144870000Y-76140000D01*
X144870000Y-77940000D01*
X143070000Y-77940000D01*
D11*
G04 #@! TO.C,U3*
G36*
X143270000Y-46132000D02*
G01*
X143296587Y-46132696D01*
X143323100Y-46134783D01*
X143349469Y-46138254D01*
X143375619Y-46143101D01*
X143401480Y-46149310D01*
X143426981Y-46156863D01*
X143452051Y-46165741D01*
X143476622Y-46175919D01*
X143500627Y-46187369D01*
X143524000Y-46200059D01*
X143546677Y-46213955D01*
X143568595Y-46229019D01*
X143589695Y-46245210D01*
X143609918Y-46262482D01*
X143629210Y-46280790D01*
X143647518Y-46300082D01*
X143664790Y-46320305D01*
X143680981Y-46341405D01*
X143696045Y-46363323D01*
X143709941Y-46386000D01*
X143722631Y-46409373D01*
X143734081Y-46433378D01*
X143744259Y-46457949D01*
X143753137Y-46483019D01*
X143760690Y-46508520D01*
X143766899Y-46534381D01*
X143771746Y-46560531D01*
X143775217Y-46586900D01*
X143777304Y-46613413D01*
X143778000Y-46640000D01*
X143777304Y-46666587D01*
X143775217Y-46693100D01*
X143771746Y-46719469D01*
X143766899Y-46745619D01*
X143760690Y-46771480D01*
X143753137Y-46796981D01*
X143744259Y-46822051D01*
X143734081Y-46846622D01*
X143722631Y-46870627D01*
X143709941Y-46894000D01*
X143696045Y-46916677D01*
X143680981Y-46938595D01*
X143664790Y-46959695D01*
X143647518Y-46979918D01*
X143629210Y-46999210D01*
X143609918Y-47017518D01*
X143589695Y-47034790D01*
X143568595Y-47050981D01*
X143546677Y-47066045D01*
X143524000Y-47079941D01*
X143500627Y-47092631D01*
X143476622Y-47104081D01*
X143452051Y-47114259D01*
X143426981Y-47123137D01*
X143401480Y-47130690D01*
X143375619Y-47136899D01*
X143349469Y-47141746D01*
X143323100Y-47145217D01*
X143296587Y-47147304D01*
X143270000Y-47148000D01*
X143243413Y-47147304D01*
X143216900Y-47145217D01*
X143190531Y-47141746D01*
X143164381Y-47136899D01*
X143138520Y-47130690D01*
X143113019Y-47123137D01*
X143087949Y-47114259D01*
X143063378Y-47104081D01*
X143039373Y-47092631D01*
X143016000Y-47079941D01*
X142993323Y-47066045D01*
X142971405Y-47050981D01*
X142950305Y-47034790D01*
X142930082Y-47017518D01*
X142910790Y-46999210D01*
X142892482Y-46979918D01*
X142875210Y-46959695D01*
X142859019Y-46938595D01*
X142843955Y-46916677D01*
X142830059Y-46894000D01*
X142817369Y-46870627D01*
X142805919Y-46846622D01*
X142795741Y-46822051D01*
X142786863Y-46796981D01*
X142779310Y-46771480D01*
X142773101Y-46745619D01*
X142768254Y-46719469D01*
X142764783Y-46693100D01*
X142762696Y-46666587D01*
X142762000Y-46640000D01*
X142762696Y-46613413D01*
X142764783Y-46586900D01*
X142768254Y-46560531D01*
X142773101Y-46534381D01*
X142779310Y-46508520D01*
X142786863Y-46483019D01*
X142795741Y-46457949D01*
X142805919Y-46433378D01*
X142817369Y-46409373D01*
X142830059Y-46386000D01*
X142843955Y-46363323D01*
X142859019Y-46341405D01*
X142875210Y-46320305D01*
X142892482Y-46300082D01*
X142910790Y-46280790D01*
X142930082Y-46262482D01*
X142950305Y-46245210D01*
X142971405Y-46229019D01*
X142993323Y-46213955D01*
X143016000Y-46200059D01*
X143039373Y-46187369D01*
X143063378Y-46175919D01*
X143087949Y-46165741D01*
X143113019Y-46156863D01*
X143138520Y-46149310D01*
X143164381Y-46143101D01*
X143190531Y-46138254D01*
X143216900Y-46134783D01*
X143243413Y-46132696D01*
X143270000Y-46132000D01*
G37*
X143270000Y-46132000D02*
X143296587Y-46132696D01*
X143323100Y-46134783D01*
X143349469Y-46138254D01*
X143375619Y-46143101D01*
X143401480Y-46149310D01*
X143426981Y-46156863D01*
X143452051Y-46165741D01*
X143476622Y-46175919D01*
X143500627Y-46187369D01*
X143524000Y-46200059D01*
X143546677Y-46213955D01*
X143568595Y-46229019D01*
X143589695Y-46245210D01*
X143609918Y-46262482D01*
X143629210Y-46280790D01*
X143647518Y-46300082D01*
X143664790Y-46320305D01*
X143680981Y-46341405D01*
X143696045Y-46363323D01*
X143709941Y-46386000D01*
X143722631Y-46409373D01*
X143734081Y-46433378D01*
X143744259Y-46457949D01*
X143753137Y-46483019D01*
X143760690Y-46508520D01*
X143766899Y-46534381D01*
X143771746Y-46560531D01*
X143775217Y-46586900D01*
X143777304Y-46613413D01*
X143778000Y-46640000D01*
X143777304Y-46666587D01*
X143775217Y-46693100D01*
X143771746Y-46719469D01*
X143766899Y-46745619D01*
X143760690Y-46771480D01*
X143753137Y-46796981D01*
X143744259Y-46822051D01*
X143734081Y-46846622D01*
X143722631Y-46870627D01*
X143709941Y-46894000D01*
X143696045Y-46916677D01*
X143680981Y-46938595D01*
X143664790Y-46959695D01*
X143647518Y-46979918D01*
X143629210Y-46999210D01*
X143609918Y-47017518D01*
X143589695Y-47034790D01*
X143568595Y-47050981D01*
X143546677Y-47066045D01*
X143524000Y-47079941D01*
X143500627Y-47092631D01*
X143476622Y-47104081D01*
X143452051Y-47114259D01*
X143426981Y-47123137D01*
X143401480Y-47130690D01*
X143375619Y-47136899D01*
X143349469Y-47141746D01*
X143323100Y-47145217D01*
X143296587Y-47147304D01*
X143270000Y-47148000D01*
X143243413Y-47147304D01*
X143216900Y-47145217D01*
X143190531Y-47141746D01*
X143164381Y-47136899D01*
X143138520Y-47130690D01*
X143113019Y-47123137D01*
X143087949Y-47114259D01*
X143063378Y-47104081D01*
X143039373Y-47092631D01*
X143016000Y-47079941D01*
X142993323Y-47066045D01*
X142971405Y-47050981D01*
X142950305Y-47034790D01*
X142930082Y-47017518D01*
X142910790Y-46999210D01*
X142892482Y-46979918D01*
X142875210Y-46959695D01*
X142859019Y-46938595D01*
X142843955Y-46916677D01*
X142830059Y-46894000D01*
X142817369Y-46870627D01*
X142805919Y-46846622D01*
X142795741Y-46822051D01*
X142786863Y-46796981D01*
X142779310Y-46771480D01*
X142773101Y-46745619D01*
X142768254Y-46719469D01*
X142764783Y-46693100D01*
X142762696Y-46666587D01*
X142762000Y-46640000D01*
X142762696Y-46613413D01*
X142764783Y-46586900D01*
X142768254Y-46560531D01*
X142773101Y-46534381D01*
X142779310Y-46508520D01*
X142786863Y-46483019D01*
X142795741Y-46457949D01*
X142805919Y-46433378D01*
X142817369Y-46409373D01*
X142830059Y-46386000D01*
X142843955Y-46363323D01*
X142859019Y-46341405D01*
X142875210Y-46320305D01*
X142892482Y-46300082D01*
X142910790Y-46280790D01*
X142930082Y-46262482D01*
X142950305Y-46245210D01*
X142971405Y-46229019D01*
X142993323Y-46213955D01*
X143016000Y-46200059D01*
X143039373Y-46187369D01*
X143063378Y-46175919D01*
X143087949Y-46165741D01*
X143113019Y-46156863D01*
X143138520Y-46149310D01*
X143164381Y-46143101D01*
X143190531Y-46138254D01*
X143216900Y-46134783D01*
X143243413Y-46132696D01*
X143270000Y-46132000D01*
G04 #@! TD*
G04 #@! TO.C,U5*
G36*
G01*
X131470000Y-102165000D02*
X131470000Y-101965000D01*
G75*
G02*
X131570000Y-101865000I100000J0D01*
G01*
X132845000Y-101865000D01*
G75*
G02*
X132945000Y-101965000I0J-100000D01*
G01*
X132945000Y-102165000D01*
G75*
G02*
X132845000Y-102265000I-100000J0D01*
G01*
X131570000Y-102265000D01*
G75*
G02*
X131470000Y-102165000I0J100000D01*
G01*
G37*
G36*
G01*
X131470000Y-102815000D02*
X131470000Y-102615000D01*
G75*
G02*
X131570000Y-102515000I100000J0D01*
G01*
X132845000Y-102515000D01*
G75*
G02*
X132945000Y-102615000I0J-100000D01*
G01*
X132945000Y-102815000D01*
G75*
G02*
X132845000Y-102915000I-100000J0D01*
G01*
X131570000Y-102915000D01*
G75*
G02*
X131470000Y-102815000I0J100000D01*
G01*
G37*
G36*
G01*
X131470000Y-103465000D02*
X131470000Y-103265000D01*
G75*
G02*
X131570000Y-103165000I100000J0D01*
G01*
X132845000Y-103165000D01*
G75*
G02*
X132945000Y-103265000I0J-100000D01*
G01*
X132945000Y-103465000D01*
G75*
G02*
X132845000Y-103565000I-100000J0D01*
G01*
X131570000Y-103565000D01*
G75*
G02*
X131470000Y-103465000I0J100000D01*
G01*
G37*
G36*
G01*
X131470000Y-104115000D02*
X131470000Y-103915000D01*
G75*
G02*
X131570000Y-103815000I100000J0D01*
G01*
X132845000Y-103815000D01*
G75*
G02*
X132945000Y-103915000I0J-100000D01*
G01*
X132945000Y-104115000D01*
G75*
G02*
X132845000Y-104215000I-100000J0D01*
G01*
X131570000Y-104215000D01*
G75*
G02*
X131470000Y-104115000I0J100000D01*
G01*
G37*
G36*
G01*
X137195000Y-104115000D02*
X137195000Y-103915000D01*
G75*
G02*
X137295000Y-103815000I100000J0D01*
G01*
X138570000Y-103815000D01*
G75*
G02*
X138670000Y-103915000I0J-100000D01*
G01*
X138670000Y-104115000D01*
G75*
G02*
X138570000Y-104215000I-100000J0D01*
G01*
X137295000Y-104215000D01*
G75*
G02*
X137195000Y-104115000I0J100000D01*
G01*
G37*
G36*
G01*
X137195000Y-103465000D02*
X137195000Y-103265000D01*
G75*
G02*
X137295000Y-103165000I100000J0D01*
G01*
X138570000Y-103165000D01*
G75*
G02*
X138670000Y-103265000I0J-100000D01*
G01*
X138670000Y-103465000D01*
G75*
G02*
X138570000Y-103565000I-100000J0D01*
G01*
X137295000Y-103565000D01*
G75*
G02*
X137195000Y-103465000I0J100000D01*
G01*
G37*
G36*
G01*
X137195000Y-102815000D02*
X137195000Y-102615000D01*
G75*
G02*
X137295000Y-102515000I100000J0D01*
G01*
X138570000Y-102515000D01*
G75*
G02*
X138670000Y-102615000I0J-100000D01*
G01*
X138670000Y-102815000D01*
G75*
G02*
X138570000Y-102915000I-100000J0D01*
G01*
X137295000Y-102915000D01*
G75*
G02*
X137195000Y-102815000I0J100000D01*
G01*
G37*
G36*
G01*
X137195000Y-102165000D02*
X137195000Y-101965000D01*
G75*
G02*
X137295000Y-101865000I100000J0D01*
G01*
X138570000Y-101865000D01*
G75*
G02*
X138670000Y-101965000I0J-100000D01*
G01*
X138670000Y-102165000D01*
G75*
G02*
X138570000Y-102265000I-100000J0D01*
G01*
X137295000Y-102265000D01*
G75*
G02*
X137195000Y-102165000I0J100000D01*
G01*
G37*
G04 #@! TD*
G04 #@! TO.C,R34*
G36*
G01*
X139165000Y-96155000D02*
X139715000Y-96155000D01*
G75*
G02*
X139915000Y-96355000I0J-200000D01*
G01*
X139915000Y-96755000D01*
G75*
G02*
X139715000Y-96955000I-200000J0D01*
G01*
X139165000Y-96955000D01*
G75*
G02*
X138965000Y-96755000I0J200000D01*
G01*
X138965000Y-96355000D01*
G75*
G02*
X139165000Y-96155000I200000J0D01*
G01*
G37*
G36*
G01*
X139165000Y-94505000D02*
X139715000Y-94505000D01*
G75*
G02*
X139915000Y-94705000I0J-200000D01*
G01*
X139915000Y-95105000D01*
G75*
G02*
X139715000Y-95305000I-200000J0D01*
G01*
X139165000Y-95305000D01*
G75*
G02*
X138965000Y-95105000I0J200000D01*
G01*
X138965000Y-94705000D01*
G75*
G02*
X139165000Y-94505000I200000J0D01*
G01*
G37*
G04 #@! TD*
G04 #@! TO.C,D2*
G36*
G01*
X142596250Y-95217500D02*
X141683750Y-95217500D01*
G75*
G02*
X141440000Y-94973750I0J243750D01*
G01*
X141440000Y-94486250D01*
G75*
G02*
X141683750Y-94242500I243750J0D01*
G01*
X142596250Y-94242500D01*
G75*
G02*
X142840000Y-94486250I0J-243750D01*
G01*
X142840000Y-94973750D01*
G75*
G02*
X142596250Y-95217500I-243750J0D01*
G01*
G37*
G36*
G01*
X142596250Y-97092500D02*
X141683750Y-97092500D01*
G75*
G02*
X141440000Y-96848750I0J243750D01*
G01*
X141440000Y-96361250D01*
G75*
G02*
X141683750Y-96117500I243750J0D01*
G01*
X142596250Y-96117500D01*
G75*
G02*
X142840000Y-96361250I0J-243750D01*
G01*
X142840000Y-96848750D01*
G75*
G02*
X142596250Y-97092500I-243750J0D01*
G01*
G37*
G04 #@! TD*
G04 #@! TO.C,R32*
G36*
G01*
X144545000Y-98765000D02*
X144545000Y-99315000D01*
G75*
G02*
X144345000Y-99515000I-200000J0D01*
G01*
X143945000Y-99515000D01*
G75*
G02*
X143745000Y-99315000I0J200000D01*
G01*
X143745000Y-98765000D01*
G75*
G02*
X143945000Y-98565000I200000J0D01*
G01*
X144345000Y-98565000D01*
G75*
G02*
X144545000Y-98765000I0J-200000D01*
G01*
G37*
G36*
G01*
X146195000Y-98765000D02*
X146195000Y-99315000D01*
G75*
G02*
X145995000Y-99515000I-200000J0D01*
G01*
X145595000Y-99515000D01*
G75*
G02*
X145395000Y-99315000I0J200000D01*
G01*
X145395000Y-98765000D01*
G75*
G02*
X145595000Y-98565000I200000J0D01*
G01*
X145995000Y-98565000D01*
G75*
G02*
X146195000Y-98765000I0J-200000D01*
G01*
G37*
G04 #@! TD*
D10*
G04 #@! TO.C,U11*
G36*
X152081955Y-94270330D02*
G01*
X152294087Y-94482462D01*
X151304137Y-95472412D01*
X151092005Y-95260280D01*
X152081955Y-94270330D01*
G37*
G36*
X151728401Y-93916776D02*
G01*
X151940533Y-94128908D01*
X150950583Y-95118858D01*
X150738451Y-94906726D01*
X151728401Y-93916776D01*
G37*
G36*
X151374848Y-93563223D02*
G01*
X151586980Y-93775355D01*
X150597030Y-94765305D01*
X150384898Y-94553173D01*
X151374848Y-93563223D01*
G37*
G36*
X151021295Y-93209670D02*
G01*
X151233427Y-93421802D01*
X150243477Y-94411752D01*
X150031345Y-94199620D01*
X151021295Y-93209670D01*
G37*
G36*
X150667741Y-92856116D02*
G01*
X150879873Y-93068248D01*
X149889923Y-94058198D01*
X149677791Y-93846066D01*
X150667741Y-92856116D01*
G37*
G36*
X147556471Y-95967386D02*
G01*
X147768603Y-96179518D01*
X146778653Y-97169468D01*
X146566521Y-96957336D01*
X147556471Y-95967386D01*
G37*
G36*
X147910025Y-96320940D02*
G01*
X148122157Y-96533072D01*
X147132207Y-97523022D01*
X146920075Y-97310890D01*
X147910025Y-96320940D01*
G37*
G36*
X148263578Y-96674493D02*
G01*
X148475710Y-96886625D01*
X147485760Y-97876575D01*
X147273628Y-97664443D01*
X148263578Y-96674493D01*
G37*
G36*
X148617131Y-97028046D02*
G01*
X148829263Y-97240178D01*
X147839313Y-98230128D01*
X147627181Y-98017996D01*
X148617131Y-97028046D01*
G37*
G36*
X148970685Y-97381600D02*
G01*
X149182817Y-97593732D01*
X148192867Y-98583682D01*
X147980735Y-98371550D01*
X148970685Y-97381600D01*
G37*
G04 #@! TD*
D12*
G04 #@! TO.C,U12*
X151520000Y-101925000D03*
X150870000Y-101925000D03*
X150220000Y-101925000D03*
X149570000Y-101925000D03*
X148920000Y-101925000D03*
D13*
X153268000Y-104727000D03*
D14*
X150220000Y-104600000D03*
D13*
X147172000Y-104727000D03*
G04 #@! TD*
G04 #@! TO.C,R33*
G36*
G01*
X127055765Y-81358197D02*
X127055765Y-80808197D01*
G75*
G02*
X127255765Y-80608197I200000J0D01*
G01*
X127655765Y-80608197D01*
G75*
G02*
X127855765Y-80808197I0J-200000D01*
G01*
X127855765Y-81358197D01*
G75*
G02*
X127655765Y-81558197I-200000J0D01*
G01*
X127255765Y-81558197D01*
G75*
G02*
X127055765Y-81358197I0J200000D01*
G01*
G37*
G36*
G01*
X125405765Y-81358197D02*
X125405765Y-80808197D01*
G75*
G02*
X125605765Y-80608197I200000J0D01*
G01*
X126005765Y-80608197D01*
G75*
G02*
X126205765Y-80808197I0J-200000D01*
G01*
X126205765Y-81358197D01*
G75*
G02*
X126005765Y-81558197I-200000J0D01*
G01*
X125605765Y-81558197D01*
G75*
G02*
X125405765Y-81358197I0J200000D01*
G01*
G37*
G04 #@! TD*
G04 #@! TO.C,R25*
G36*
G01*
X120465000Y-66385000D02*
X120465000Y-65835000D01*
G75*
G02*
X120665000Y-65635000I200000J0D01*
G01*
X121065000Y-65635000D01*
G75*
G02*
X121265000Y-65835000I0J-200000D01*
G01*
X121265000Y-66385000D01*
G75*
G02*
X121065000Y-66585000I-200000J0D01*
G01*
X120665000Y-66585000D01*
G75*
G02*
X120465000Y-66385000I0J200000D01*
G01*
G37*
G36*
G01*
X118815000Y-66385000D02*
X118815000Y-65835000D01*
G75*
G02*
X119015000Y-65635000I200000J0D01*
G01*
X119415000Y-65635000D01*
G75*
G02*
X119615000Y-65835000I0J-200000D01*
G01*
X119615000Y-66385000D01*
G75*
G02*
X119415000Y-66585000I-200000J0D01*
G01*
X119015000Y-66585000D01*
G75*
G02*
X118815000Y-66385000I0J200000D01*
G01*
G37*
G04 #@! TD*
G04 #@! TO.C,R5*
G36*
G01*
X132595000Y-43665000D02*
X133145000Y-43665000D01*
G75*
G02*
X133345000Y-43865000I0J-200000D01*
G01*
X133345000Y-44265000D01*
G75*
G02*
X133145000Y-44465000I-200000J0D01*
G01*
X132595000Y-44465000D01*
G75*
G02*
X132395000Y-44265000I0J200000D01*
G01*
X132395000Y-43865000D01*
G75*
G02*
X132595000Y-43665000I200000J0D01*
G01*
G37*
G36*
G01*
X132595000Y-42015000D02*
X133145000Y-42015000D01*
G75*
G02*
X133345000Y-42215000I0J-200000D01*
G01*
X133345000Y-42615000D01*
G75*
G02*
X133145000Y-42815000I-200000J0D01*
G01*
X132595000Y-42815000D01*
G75*
G02*
X132395000Y-42615000I0J200000D01*
G01*
X132395000Y-42215000D01*
G75*
G02*
X132595000Y-42015000I200000J0D01*
G01*
G37*
G04 #@! TD*
D15*
G04 #@! TO.C,J2*
X121180000Y-52190000D03*
D16*
X125630000Y-56190000D03*
D17*
X121180000Y-42790000D03*
X128580000Y-44790000D03*
G04 #@! TD*
G04 #@! TO.C,R17*
G36*
G01*
X140195000Y-40015000D02*
X140195000Y-39465000D01*
G75*
G02*
X140395000Y-39265000I200000J0D01*
G01*
X140795000Y-39265000D01*
G75*
G02*
X140995000Y-39465000I0J-200000D01*
G01*
X140995000Y-40015000D01*
G75*
G02*
X140795000Y-40215000I-200000J0D01*
G01*
X140395000Y-40215000D01*
G75*
G02*
X140195000Y-40015000I0J200000D01*
G01*
G37*
G36*
G01*
X138545000Y-40015000D02*
X138545000Y-39465000D01*
G75*
G02*
X138745000Y-39265000I200000J0D01*
G01*
X139145000Y-39265000D01*
G75*
G02*
X139345000Y-39465000I0J-200000D01*
G01*
X139345000Y-40015000D01*
G75*
G02*
X139145000Y-40215000I-200000J0D01*
G01*
X138745000Y-40215000D01*
G75*
G02*
X138545000Y-40015000I0J200000D01*
G01*
G37*
G04 #@! TD*
G04 #@! TO.C,R18*
G36*
G01*
X143545000Y-40415000D02*
X142995000Y-40415000D01*
G75*
G02*
X142795000Y-40215000I0J200000D01*
G01*
X142795000Y-39815000D01*
G75*
G02*
X142995000Y-39615000I200000J0D01*
G01*
X143545000Y-39615000D01*
G75*
G02*
X143745000Y-39815000I0J-200000D01*
G01*
X143745000Y-40215000D01*
G75*
G02*
X143545000Y-40415000I-200000J0D01*
G01*
G37*
G36*
G01*
X143545000Y-42065000D02*
X142995000Y-42065000D01*
G75*
G02*
X142795000Y-41865000I0J200000D01*
G01*
X142795000Y-41465000D01*
G75*
G02*
X142995000Y-41265000I200000J0D01*
G01*
X143545000Y-41265000D01*
G75*
G02*
X143745000Y-41465000I0J-200000D01*
G01*
X143745000Y-41865000D01*
G75*
G02*
X143545000Y-42065000I-200000J0D01*
G01*
G37*
G04 #@! TD*
G04 #@! TO.C,R4*
G36*
G01*
X117405000Y-51815000D02*
X117955000Y-51815000D01*
G75*
G02*
X118155000Y-52015000I0J-200000D01*
G01*
X118155000Y-52415000D01*
G75*
G02*
X117955000Y-52615000I-200000J0D01*
G01*
X117405000Y-52615000D01*
G75*
G02*
X117205000Y-52415000I0J200000D01*
G01*
X117205000Y-52015000D01*
G75*
G02*
X117405000Y-51815000I200000J0D01*
G01*
G37*
G36*
G01*
X117405000Y-50165000D02*
X117955000Y-50165000D01*
G75*
G02*
X118155000Y-50365000I0J-200000D01*
G01*
X118155000Y-50765000D01*
G75*
G02*
X117955000Y-50965000I-200000J0D01*
G01*
X117405000Y-50965000D01*
G75*
G02*
X117205000Y-50765000I0J200000D01*
G01*
X117205000Y-50365000D01*
G75*
G02*
X117405000Y-50165000I200000J0D01*
G01*
G37*
G04 #@! TD*
G04 #@! TO.C,R22*
G36*
G01*
X124955765Y-74858197D02*
X124955765Y-74308197D01*
G75*
G02*
X125155765Y-74108197I200000J0D01*
G01*
X125555765Y-74108197D01*
G75*
G02*
X125755765Y-74308197I0J-200000D01*
G01*
X125755765Y-74858197D01*
G75*
G02*
X125555765Y-75058197I-200000J0D01*
G01*
X125155765Y-75058197D01*
G75*
G02*
X124955765Y-74858197I0J200000D01*
G01*
G37*
G36*
G01*
X123305765Y-74858197D02*
X123305765Y-74308197D01*
G75*
G02*
X123505765Y-74108197I200000J0D01*
G01*
X123905765Y-74108197D01*
G75*
G02*
X124105765Y-74308197I0J-200000D01*
G01*
X124105765Y-74858197D01*
G75*
G02*
X123905765Y-75058197I-200000J0D01*
G01*
X123505765Y-75058197D01*
G75*
G02*
X123305765Y-74858197I0J200000D01*
G01*
G37*
G04 #@! TD*
D18*
G04 #@! TO.C,SW3*
X152266999Y-62079999D03*
X152266999Y-65429999D03*
G04 #@! TD*
G04 #@! TO.C,U1*
G36*
G01*
X131945000Y-91740000D02*
X132245000Y-91740000D01*
G75*
G02*
X132395000Y-91890000I0J-150000D01*
G01*
X132395000Y-93540000D01*
G75*
G02*
X132245000Y-93690000I-150000J0D01*
G01*
X131945000Y-93690000D01*
G75*
G02*
X131795000Y-93540000I0J150000D01*
G01*
X131795000Y-91890000D01*
G75*
G02*
X131945000Y-91740000I150000J0D01*
G01*
G37*
G36*
G01*
X130675000Y-91740000D02*
X130975000Y-91740000D01*
G75*
G02*
X131125000Y-91890000I0J-150000D01*
G01*
X131125000Y-93540000D01*
G75*
G02*
X130975000Y-93690000I-150000J0D01*
G01*
X130675000Y-93690000D01*
G75*
G02*
X130525000Y-93540000I0J150000D01*
G01*
X130525000Y-91890000D01*
G75*
G02*
X130675000Y-91740000I150000J0D01*
G01*
G37*
G36*
G01*
X129405000Y-91740000D02*
X129705000Y-91740000D01*
G75*
G02*
X129855000Y-91890000I0J-150000D01*
G01*
X129855000Y-93540000D01*
G75*
G02*
X129705000Y-93690000I-150000J0D01*
G01*
X129405000Y-93690000D01*
G75*
G02*
X129255000Y-93540000I0J150000D01*
G01*
X129255000Y-91890000D01*
G75*
G02*
X129405000Y-91740000I150000J0D01*
G01*
G37*
G36*
G01*
X128135000Y-91740000D02*
X128435000Y-91740000D01*
G75*
G02*
X128585000Y-91890000I0J-150000D01*
G01*
X128585000Y-93540000D01*
G75*
G02*
X128435000Y-93690000I-150000J0D01*
G01*
X128135000Y-93690000D01*
G75*
G02*
X127985000Y-93540000I0J150000D01*
G01*
X127985000Y-91890000D01*
G75*
G02*
X128135000Y-91740000I150000J0D01*
G01*
G37*
G36*
G01*
X128135000Y-86790000D02*
X128435000Y-86790000D01*
G75*
G02*
X128585000Y-86940000I0J-150000D01*
G01*
X128585000Y-88590000D01*
G75*
G02*
X128435000Y-88740000I-150000J0D01*
G01*
X128135000Y-88740000D01*
G75*
G02*
X127985000Y-88590000I0J150000D01*
G01*
X127985000Y-86940000D01*
G75*
G02*
X128135000Y-86790000I150000J0D01*
G01*
G37*
G36*
G01*
X129405000Y-86790000D02*
X129705000Y-86790000D01*
G75*
G02*
X129855000Y-86940000I0J-150000D01*
G01*
X129855000Y-88590000D01*
G75*
G02*
X129705000Y-88740000I-150000J0D01*
G01*
X129405000Y-88740000D01*
G75*
G02*
X129255000Y-88590000I0J150000D01*
G01*
X129255000Y-86940000D01*
G75*
G02*
X129405000Y-86790000I150000J0D01*
G01*
G37*
G36*
G01*
X130675000Y-86790000D02*
X130975000Y-86790000D01*
G75*
G02*
X131125000Y-86940000I0J-150000D01*
G01*
X131125000Y-88590000D01*
G75*
G02*
X130975000Y-88740000I-150000J0D01*
G01*
X130675000Y-88740000D01*
G75*
G02*
X130525000Y-88590000I0J150000D01*
G01*
X130525000Y-86940000D01*
G75*
G02*
X130675000Y-86790000I150000J0D01*
G01*
G37*
G36*
G01*
X131945000Y-86790000D02*
X132245000Y-86790000D01*
G75*
G02*
X132395000Y-86940000I0J-150000D01*
G01*
X132395000Y-88590000D01*
G75*
G02*
X132245000Y-88740000I-150000J0D01*
G01*
X131945000Y-88740000D01*
G75*
G02*
X131795000Y-88590000I0J150000D01*
G01*
X131795000Y-86940000D01*
G75*
G02*
X131945000Y-86790000I150000J0D01*
G01*
G37*
G04 #@! TD*
G04 #@! TO.C,R13*
G36*
G01*
X125935000Y-90505000D02*
X126485000Y-90505000D01*
G75*
G02*
X126685000Y-90705000I0J-200000D01*
G01*
X126685000Y-91105000D01*
G75*
G02*
X126485000Y-91305000I-200000J0D01*
G01*
X125935000Y-91305000D01*
G75*
G02*
X125735000Y-91105000I0J200000D01*
G01*
X125735000Y-90705000D01*
G75*
G02*
X125935000Y-90505000I200000J0D01*
G01*
G37*
G36*
G01*
X125935000Y-88855000D02*
X126485000Y-88855000D01*
G75*
G02*
X126685000Y-89055000I0J-200000D01*
G01*
X126685000Y-89455000D01*
G75*
G02*
X126485000Y-89655000I-200000J0D01*
G01*
X125935000Y-89655000D01*
G75*
G02*
X125735000Y-89455000I0J200000D01*
G01*
X125735000Y-89055000D01*
G75*
G02*
X125935000Y-88855000I200000J0D01*
G01*
G37*
G04 #@! TD*
G04 #@! TO.C,R30*
G36*
G01*
X142595000Y-68065000D02*
X143145000Y-68065000D01*
G75*
G02*
X143345000Y-68265000I0J-200000D01*
G01*
X143345000Y-68665000D01*
G75*
G02*
X143145000Y-68865000I-200000J0D01*
G01*
X142595000Y-68865000D01*
G75*
G02*
X142395000Y-68665000I0J200000D01*
G01*
X142395000Y-68265000D01*
G75*
G02*
X142595000Y-68065000I200000J0D01*
G01*
G37*
G36*
G01*
X142595000Y-66415000D02*
X143145000Y-66415000D01*
G75*
G02*
X143345000Y-66615000I0J-200000D01*
G01*
X143345000Y-67015000D01*
G75*
G02*
X143145000Y-67215000I-200000J0D01*
G01*
X142595000Y-67215000D01*
G75*
G02*
X142395000Y-67015000I0J200000D01*
G01*
X142395000Y-66615000D01*
G75*
G02*
X142595000Y-66415000I200000J0D01*
G01*
G37*
G04 #@! TD*
D19*
G04 #@! TO.C,J1*
X146460000Y-60815000D03*
X144460000Y-60815000D03*
X145460000Y-62565000D03*
X143460000Y-62565000D03*
G04 #@! TD*
G04 #@! TO.C,R19*
G36*
G01*
X147925000Y-46905000D02*
X147925000Y-46355000D01*
G75*
G02*
X148125000Y-46155000I200000J0D01*
G01*
X148525000Y-46155000D01*
G75*
G02*
X148725000Y-46355000I0J-200000D01*
G01*
X148725000Y-46905000D01*
G75*
G02*
X148525000Y-47105000I-200000J0D01*
G01*
X148125000Y-47105000D01*
G75*
G02*
X147925000Y-46905000I0J200000D01*
G01*
G37*
G36*
G01*
X146275000Y-46905000D02*
X146275000Y-46355000D01*
G75*
G02*
X146475000Y-46155000I200000J0D01*
G01*
X146875000Y-46155000D01*
G75*
G02*
X147075000Y-46355000I0J-200000D01*
G01*
X147075000Y-46905000D01*
G75*
G02*
X146875000Y-47105000I-200000J0D01*
G01*
X146475000Y-47105000D01*
G75*
G02*
X146275000Y-46905000I0J200000D01*
G01*
G37*
G04 #@! TD*
G04 #@! TO.C,R20*
G36*
G01*
X125075000Y-96305000D02*
X125075000Y-95755000D01*
G75*
G02*
X125275000Y-95555000I200000J0D01*
G01*
X125675000Y-95555000D01*
G75*
G02*
X125875000Y-95755000I0J-200000D01*
G01*
X125875000Y-96305000D01*
G75*
G02*
X125675000Y-96505000I-200000J0D01*
G01*
X125275000Y-96505000D01*
G75*
G02*
X125075000Y-96305000I0J200000D01*
G01*
G37*
G36*
G01*
X123425000Y-96305000D02*
X123425000Y-95755000D01*
G75*
G02*
X123625000Y-95555000I200000J0D01*
G01*
X124025000Y-95555000D01*
G75*
G02*
X124225000Y-95755000I0J-200000D01*
G01*
X124225000Y-96305000D01*
G75*
G02*
X124025000Y-96505000I-200000J0D01*
G01*
X123625000Y-96505000D01*
G75*
G02*
X123425000Y-96305000I0J200000D01*
G01*
G37*
G04 #@! TD*
G04 #@! TO.C,R26*
G36*
G01*
X149145000Y-87715000D02*
X148595000Y-87715000D01*
G75*
G02*
X148395000Y-87515000I0J200000D01*
G01*
X148395000Y-87115000D01*
G75*
G02*
X148595000Y-86915000I200000J0D01*
G01*
X149145000Y-86915000D01*
G75*
G02*
X149345000Y-87115000I0J-200000D01*
G01*
X149345000Y-87515000D01*
G75*
G02*
X149145000Y-87715000I-200000J0D01*
G01*
G37*
G36*
G01*
X149145000Y-89365000D02*
X148595000Y-89365000D01*
G75*
G02*
X148395000Y-89165000I0J200000D01*
G01*
X148395000Y-88765000D01*
G75*
G02*
X148595000Y-88565000I200000J0D01*
G01*
X149145000Y-88565000D01*
G75*
G02*
X149345000Y-88765000I0J-200000D01*
G01*
X149345000Y-89165000D01*
G75*
G02*
X149145000Y-89365000I-200000J0D01*
G01*
G37*
G04 #@! TD*
G04 #@! TO.C,R10*
G36*
G01*
X138065000Y-45715000D02*
X138065000Y-45165000D01*
G75*
G02*
X138265000Y-44965000I200000J0D01*
G01*
X138665000Y-44965000D01*
G75*
G02*
X138865000Y-45165000I0J-200000D01*
G01*
X138865000Y-45715000D01*
G75*
G02*
X138665000Y-45915000I-200000J0D01*
G01*
X138265000Y-45915000D01*
G75*
G02*
X138065000Y-45715000I0J200000D01*
G01*
G37*
G36*
G01*
X136415000Y-45715000D02*
X136415000Y-45165000D01*
G75*
G02*
X136615000Y-44965000I200000J0D01*
G01*
X137015000Y-44965000D01*
G75*
G02*
X137215000Y-45165000I0J-200000D01*
G01*
X137215000Y-45715000D01*
G75*
G02*
X137015000Y-45915000I-200000J0D01*
G01*
X136615000Y-45915000D01*
G75*
G02*
X136415000Y-45715000I0J200000D01*
G01*
G37*
G04 #@! TD*
G04 #@! TO.C,R9*
G36*
G01*
X139095000Y-51975000D02*
X139645000Y-51975000D01*
G75*
G02*
X139845000Y-52175000I0J-200000D01*
G01*
X139845000Y-52575000D01*
G75*
G02*
X139645000Y-52775000I-200000J0D01*
G01*
X139095000Y-52775000D01*
G75*
G02*
X138895000Y-52575000I0J200000D01*
G01*
X138895000Y-52175000D01*
G75*
G02*
X139095000Y-51975000I200000J0D01*
G01*
G37*
G36*
G01*
X139095000Y-50325000D02*
X139645000Y-50325000D01*
G75*
G02*
X139845000Y-50525000I0J-200000D01*
G01*
X139845000Y-50925000D01*
G75*
G02*
X139645000Y-51125000I-200000J0D01*
G01*
X139095000Y-51125000D01*
G75*
G02*
X138895000Y-50925000I0J200000D01*
G01*
X138895000Y-50525000D01*
G75*
G02*
X139095000Y-50325000I200000J0D01*
G01*
G37*
G04 #@! TD*
D20*
G04 #@! TO.C,Q1*
X122930765Y-82283196D03*
X121980765Y-80283196D03*
X123880765Y-80283196D03*
G04 #@! TD*
D21*
G04 #@! TO.C,U2*
X121700000Y-102740000D03*
X121700000Y-101790000D03*
X121700000Y-100840000D03*
X119500000Y-100840000D03*
X119500000Y-102740000D03*
G04 #@! TD*
G04 #@! TO.C,R1*
G36*
G01*
X119725000Y-98005000D02*
X119725000Y-98555000D01*
G75*
G02*
X119525000Y-98755000I-200000J0D01*
G01*
X119125000Y-98755000D01*
G75*
G02*
X118925000Y-98555000I0J200000D01*
G01*
X118925000Y-98005000D01*
G75*
G02*
X119125000Y-97805000I200000J0D01*
G01*
X119525000Y-97805000D01*
G75*
G02*
X119725000Y-98005000I0J-200000D01*
G01*
G37*
G36*
G01*
X121375000Y-98005000D02*
X121375000Y-98555000D01*
G75*
G02*
X121175000Y-98755000I-200000J0D01*
G01*
X120775000Y-98755000D01*
G75*
G02*
X120575000Y-98555000I0J200000D01*
G01*
X120575000Y-98005000D01*
G75*
G02*
X120775000Y-97805000I200000J0D01*
G01*
X121175000Y-97805000D01*
G75*
G02*
X121375000Y-98005000I0J-200000D01*
G01*
G37*
G04 #@! TD*
G04 #@! TO.C,D1*
G36*
G01*
X127526250Y-98810000D02*
X126613750Y-98810000D01*
G75*
G02*
X126370000Y-98566250I0J243750D01*
G01*
X126370000Y-98078750D01*
G75*
G02*
X126613750Y-97835000I243750J0D01*
G01*
X127526250Y-97835000D01*
G75*
G02*
X127770000Y-98078750I0J-243750D01*
G01*
X127770000Y-98566250D01*
G75*
G02*
X127526250Y-98810000I-243750J0D01*
G01*
G37*
G36*
G01*
X127526250Y-100685000D02*
X126613750Y-100685000D01*
G75*
G02*
X126370000Y-100441250I0J243750D01*
G01*
X126370000Y-99953750D01*
G75*
G02*
X126613750Y-99710000I243750J0D01*
G01*
X127526250Y-99710000D01*
G75*
G02*
X127770000Y-99953750I0J-243750D01*
G01*
X127770000Y-100441250D01*
G75*
G02*
X127526250Y-100685000I-243750J0D01*
G01*
G37*
G04 #@! TD*
G04 #@! TO.C,R27*
G36*
G01*
X145225000Y-68065000D02*
X145775000Y-68065000D01*
G75*
G02*
X145975000Y-68265000I0J-200000D01*
G01*
X145975000Y-68665000D01*
G75*
G02*
X145775000Y-68865000I-200000J0D01*
G01*
X145225000Y-68865000D01*
G75*
G02*
X145025000Y-68665000I0J200000D01*
G01*
X145025000Y-68265000D01*
G75*
G02*
X145225000Y-68065000I200000J0D01*
G01*
G37*
G36*
G01*
X145225000Y-66415000D02*
X145775000Y-66415000D01*
G75*
G02*
X145975000Y-66615000I0J-200000D01*
G01*
X145975000Y-67015000D01*
G75*
G02*
X145775000Y-67215000I-200000J0D01*
G01*
X145225000Y-67215000D01*
G75*
G02*
X145025000Y-67015000I0J200000D01*
G01*
X145025000Y-66615000D01*
G75*
G02*
X145225000Y-66415000I200000J0D01*
G01*
G37*
G04 #@! TD*
D22*
G04 #@! TO.C,U4*
X138102500Y-88640000D03*
X138102500Y-88140000D03*
X136577500Y-88640000D03*
X136577500Y-88140000D03*
X138102500Y-87640000D03*
X136577500Y-87640000D03*
X138102500Y-89140000D03*
X136577500Y-89140000D03*
D23*
X137590000Y-87627500D03*
X137090000Y-87627500D03*
X137090000Y-89152500D03*
X137590000Y-89152500D03*
G04 #@! TD*
G04 #@! TO.C,R14*
G36*
G01*
X129945000Y-103315000D02*
X129395000Y-103315000D01*
G75*
G02*
X129195000Y-103115000I0J200000D01*
G01*
X129195000Y-102715000D01*
G75*
G02*
X129395000Y-102515000I200000J0D01*
G01*
X129945000Y-102515000D01*
G75*
G02*
X130145000Y-102715000I0J-200000D01*
G01*
X130145000Y-103115000D01*
G75*
G02*
X129945000Y-103315000I-200000J0D01*
G01*
G37*
G36*
G01*
X129945000Y-104965000D02*
X129395000Y-104965000D01*
G75*
G02*
X129195000Y-104765000I0J200000D01*
G01*
X129195000Y-104365000D01*
G75*
G02*
X129395000Y-104165000I200000J0D01*
G01*
X129945000Y-104165000D01*
G75*
G02*
X130145000Y-104365000I0J-200000D01*
G01*
X130145000Y-104765000D01*
G75*
G02*
X129945000Y-104965000I-200000J0D01*
G01*
G37*
G04 #@! TD*
D18*
G04 #@! TO.C,SW2*
X119210000Y-63845000D03*
X119210000Y-60495000D03*
G04 #@! TD*
G04 #@! TO.C,C20*
G36*
G01*
X132001573Y-67264899D02*
X132501573Y-67264899D01*
G75*
G02*
X132726573Y-67489899I0J-225000D01*
G01*
X132726573Y-67939899D01*
G75*
G02*
X132501573Y-68164899I-225000J0D01*
G01*
X132001573Y-68164899D01*
G75*
G02*
X131776573Y-67939899I0J225000D01*
G01*
X131776573Y-67489899D01*
G75*
G02*
X132001573Y-67264899I225000J0D01*
G01*
G37*
G36*
G01*
X132001573Y-65714899D02*
X132501573Y-65714899D01*
G75*
G02*
X132726573Y-65939899I0J-225000D01*
G01*
X132726573Y-66389899D01*
G75*
G02*
X132501573Y-66614899I-225000J0D01*
G01*
X132001573Y-66614899D01*
G75*
G02*
X131776573Y-66389899I0J225000D01*
G01*
X131776573Y-65939899D01*
G75*
G02*
X132001573Y-65714899I225000J0D01*
G01*
G37*
G04 #@! TD*
G04 #@! TO.C,R24*
G36*
G01*
X118975000Y-75465000D02*
X119525000Y-75465000D01*
G75*
G02*
X119725000Y-75665000I0J-200000D01*
G01*
X119725000Y-76065000D01*
G75*
G02*
X119525000Y-76265000I-200000J0D01*
G01*
X118975000Y-76265000D01*
G75*
G02*
X118775000Y-76065000I0J200000D01*
G01*
X118775000Y-75665000D01*
G75*
G02*
X118975000Y-75465000I200000J0D01*
G01*
G37*
G36*
G01*
X118975000Y-73815000D02*
X119525000Y-73815000D01*
G75*
G02*
X119725000Y-74015000I0J-200000D01*
G01*
X119725000Y-74415000D01*
G75*
G02*
X119525000Y-74615000I-200000J0D01*
G01*
X118975000Y-74615000D01*
G75*
G02*
X118775000Y-74415000I0J200000D01*
G01*
X118775000Y-74015000D01*
G75*
G02*
X118975000Y-73815000I200000J0D01*
G01*
G37*
G04 #@! TD*
G04 #@! TO.C,R11*
G36*
G01*
X133995000Y-46915000D02*
X133995000Y-46365000D01*
G75*
G02*
X134195000Y-46165000I200000J0D01*
G01*
X134595000Y-46165000D01*
G75*
G02*
X134795000Y-46365000I0J-200000D01*
G01*
X134795000Y-46915000D01*
G75*
G02*
X134595000Y-47115000I-200000J0D01*
G01*
X134195000Y-47115000D01*
G75*
G02*
X133995000Y-46915000I0J200000D01*
G01*
G37*
G36*
G01*
X132345000Y-46915000D02*
X132345000Y-46365000D01*
G75*
G02*
X132545000Y-46165000I200000J0D01*
G01*
X132945000Y-46165000D01*
G75*
G02*
X133145000Y-46365000I0J-200000D01*
G01*
X133145000Y-46915000D01*
G75*
G02*
X132945000Y-47115000I-200000J0D01*
G01*
X132545000Y-47115000D01*
G75*
G02*
X132345000Y-46915000I0J200000D01*
G01*
G37*
G04 #@! TD*
G04 #@! TO.C,R15*
G36*
G01*
X134875000Y-99605000D02*
X134875000Y-100155000D01*
G75*
G02*
X134675000Y-100355000I-200000J0D01*
G01*
X134275000Y-100355000D01*
G75*
G02*
X134075000Y-100155000I0J200000D01*
G01*
X134075000Y-99605000D01*
G75*
G02*
X134275000Y-99405000I200000J0D01*
G01*
X134675000Y-99405000D01*
G75*
G02*
X134875000Y-99605000I0J-200000D01*
G01*
G37*
G36*
G01*
X136525000Y-99605000D02*
X136525000Y-100155000D01*
G75*
G02*
X136325000Y-100355000I-200000J0D01*
G01*
X135925000Y-100355000D01*
G75*
G02*
X135725000Y-100155000I0J200000D01*
G01*
X135725000Y-99605000D01*
G75*
G02*
X135925000Y-99405000I200000J0D01*
G01*
X136325000Y-99405000D01*
G75*
G02*
X136525000Y-99605000I0J-200000D01*
G01*
G37*
G04 #@! TD*
G04 #@! TO.C,R21*
G36*
G01*
X124245000Y-93555000D02*
X124245000Y-94105000D01*
G75*
G02*
X124045000Y-94305000I-200000J0D01*
G01*
X123645000Y-94305000D01*
G75*
G02*
X123445000Y-94105000I0J200000D01*
G01*
X123445000Y-93555000D01*
G75*
G02*
X123645000Y-93355000I200000J0D01*
G01*
X124045000Y-93355000D01*
G75*
G02*
X124245000Y-93555000I0J-200000D01*
G01*
G37*
G36*
G01*
X125895000Y-93555000D02*
X125895000Y-94105000D01*
G75*
G02*
X125695000Y-94305000I-200000J0D01*
G01*
X125295000Y-94305000D01*
G75*
G02*
X125095000Y-94105000I0J200000D01*
G01*
X125095000Y-93555000D01*
G75*
G02*
X125295000Y-93355000I200000J0D01*
G01*
X125695000Y-93355000D01*
G75*
G02*
X125895000Y-93555000I0J-200000D01*
G01*
G37*
G04 #@! TD*
G04 #@! TO.C,R8*
G36*
G01*
X145595000Y-51015000D02*
X145595000Y-50465000D01*
G75*
G02*
X145795000Y-50265000I200000J0D01*
G01*
X146195000Y-50265000D01*
G75*
G02*
X146395000Y-50465000I0J-200000D01*
G01*
X146395000Y-51015000D01*
G75*
G02*
X146195000Y-51215000I-200000J0D01*
G01*
X145795000Y-51215000D01*
G75*
G02*
X145595000Y-51015000I0J200000D01*
G01*
G37*
G36*
G01*
X143945000Y-51015000D02*
X143945000Y-50465000D01*
G75*
G02*
X144145000Y-50265000I200000J0D01*
G01*
X144545000Y-50265000D01*
G75*
G02*
X144745000Y-50465000I0J-200000D01*
G01*
X144745000Y-51015000D01*
G75*
G02*
X144545000Y-51215000I-200000J0D01*
G01*
X144145000Y-51215000D01*
G75*
G02*
X143945000Y-51015000I0J200000D01*
G01*
G37*
G04 #@! TD*
G04 #@! TO.C,R23*
G36*
G01*
X123255764Y-78158195D02*
X123255764Y-77608195D01*
G75*
G02*
X123455764Y-77408195I200000J0D01*
G01*
X123855764Y-77408195D01*
G75*
G02*
X124055764Y-77608195I0J-200000D01*
G01*
X124055764Y-78158195D01*
G75*
G02*
X123855764Y-78358195I-200000J0D01*
G01*
X123455764Y-78358195D01*
G75*
G02*
X123255764Y-78158195I0J200000D01*
G01*
G37*
G36*
G01*
X121605764Y-78158195D02*
X121605764Y-77608195D01*
G75*
G02*
X121805764Y-77408195I200000J0D01*
G01*
X122205764Y-77408195D01*
G75*
G02*
X122405764Y-77608195I0J-200000D01*
G01*
X122405764Y-78158195D01*
G75*
G02*
X122205764Y-78358195I-200000J0D01*
G01*
X121805764Y-78358195D01*
G75*
G02*
X121605764Y-78158195I0J200000D01*
G01*
G37*
G04 #@! TD*
G04 #@! TO.C,R6*
G36*
G01*
X133895000Y-51965000D02*
X134445000Y-51965000D01*
G75*
G02*
X134645000Y-52165000I0J-200000D01*
G01*
X134645000Y-52565000D01*
G75*
G02*
X134445000Y-52765000I-200000J0D01*
G01*
X133895000Y-52765000D01*
G75*
G02*
X133695000Y-52565000I0J200000D01*
G01*
X133695000Y-52165000D01*
G75*
G02*
X133895000Y-51965000I200000J0D01*
G01*
G37*
G36*
G01*
X133895000Y-50315000D02*
X134445000Y-50315000D01*
G75*
G02*
X134645000Y-50515000I0J-200000D01*
G01*
X134645000Y-50915000D01*
G75*
G02*
X134445000Y-51115000I-200000J0D01*
G01*
X133895000Y-51115000D01*
G75*
G02*
X133695000Y-50915000I0J200000D01*
G01*
X133695000Y-50515000D01*
G75*
G02*
X133895000Y-50315000I200000J0D01*
G01*
G37*
G04 #@! TD*
G04 #@! TO.C,R29*
G36*
G01*
X152645000Y-87715000D02*
X152095000Y-87715000D01*
G75*
G02*
X151895000Y-87515000I0J200000D01*
G01*
X151895000Y-87115000D01*
G75*
G02*
X152095000Y-86915000I200000J0D01*
G01*
X152645000Y-86915000D01*
G75*
G02*
X152845000Y-87115000I0J-200000D01*
G01*
X152845000Y-87515000D01*
G75*
G02*
X152645000Y-87715000I-200000J0D01*
G01*
G37*
G36*
G01*
X152645000Y-89365000D02*
X152095000Y-89365000D01*
G75*
G02*
X151895000Y-89165000I0J200000D01*
G01*
X151895000Y-88765000D01*
G75*
G02*
X152095000Y-88565000I200000J0D01*
G01*
X152645000Y-88565000D01*
G75*
G02*
X152845000Y-88765000I0J-200000D01*
G01*
X152845000Y-89165000D01*
G75*
G02*
X152645000Y-89365000I-200000J0D01*
G01*
G37*
G04 #@! TD*
G04 #@! TO.C,R31*
G36*
G01*
X121585000Y-85535000D02*
X121035000Y-85535000D01*
G75*
G02*
X120835000Y-85335000I0J200000D01*
G01*
X120835000Y-84935000D01*
G75*
G02*
X121035000Y-84735000I200000J0D01*
G01*
X121585000Y-84735000D01*
G75*
G02*
X121785000Y-84935000I0J-200000D01*
G01*
X121785000Y-85335000D01*
G75*
G02*
X121585000Y-85535000I-200000J0D01*
G01*
G37*
G36*
G01*
X121585000Y-87185000D02*
X121035000Y-87185000D01*
G75*
G02*
X120835000Y-86985000I0J200000D01*
G01*
X120835000Y-86585000D01*
G75*
G02*
X121035000Y-86385000I200000J0D01*
G01*
X121585000Y-86385000D01*
G75*
G02*
X121785000Y-86585000I0J-200000D01*
G01*
X121785000Y-86985000D01*
G75*
G02*
X121585000Y-87185000I-200000J0D01*
G01*
G37*
G04 #@! TD*
G04 #@! TO.C,C26*
G36*
G01*
X147644860Y-93333413D02*
X147291306Y-92979859D01*
G75*
G02*
X147291306Y-92661661I159099J159099D01*
G01*
X147609504Y-92343463D01*
G75*
G02*
X147927702Y-92343463I159099J-159099D01*
G01*
X148281256Y-92697017D01*
G75*
G02*
X148281256Y-93015215I-159099J-159099D01*
G01*
X147963058Y-93333413D01*
G75*
G02*
X147644860Y-93333413I-159099J159099D01*
G01*
G37*
G36*
G01*
X146548844Y-94429429D02*
X146195290Y-94075875D01*
G75*
G02*
X146195290Y-93757677I159099J159099D01*
G01*
X146513488Y-93439479D01*
G75*
G02*
X146831686Y-93439479I159099J-159099D01*
G01*
X147185240Y-93793033D01*
G75*
G02*
X147185240Y-94111231I-159099J-159099D01*
G01*
X146867042Y-94429429D01*
G75*
G02*
X146548844Y-94429429I-159099J159099D01*
G01*
G37*
G04 #@! TD*
G04 #@! TO.C,C24*
G36*
G01*
X128080764Y-77958197D02*
X127580764Y-77958197D01*
G75*
G02*
X127355764Y-77733197I0J225000D01*
G01*
X127355764Y-77283197D01*
G75*
G02*
X127580764Y-77058197I225000J0D01*
G01*
X128080764Y-77058197D01*
G75*
G02*
X128305764Y-77283197I0J-225000D01*
G01*
X128305764Y-77733197D01*
G75*
G02*
X128080764Y-77958197I-225000J0D01*
G01*
G37*
G36*
G01*
X128080764Y-79508197D02*
X127580764Y-79508197D01*
G75*
G02*
X127355764Y-79283197I0J225000D01*
G01*
X127355764Y-78833197D01*
G75*
G02*
X127580764Y-78608197I225000J0D01*
G01*
X128080764Y-78608197D01*
G75*
G02*
X128305764Y-78833197I0J-225000D01*
G01*
X128305764Y-79283197D01*
G75*
G02*
X128080764Y-79508197I-225000J0D01*
G01*
G37*
G04 #@! TD*
G04 #@! TO.C,R2*
G36*
G01*
X117195000Y-42365000D02*
X117745000Y-42365000D01*
G75*
G02*
X117945000Y-42565000I0J-200000D01*
G01*
X117945000Y-42965000D01*
G75*
G02*
X117745000Y-43165000I-200000J0D01*
G01*
X117195000Y-43165000D01*
G75*
G02*
X116995000Y-42965000I0J200000D01*
G01*
X116995000Y-42565000D01*
G75*
G02*
X117195000Y-42365000I200000J0D01*
G01*
G37*
G36*
G01*
X117195000Y-40715000D02*
X117745000Y-40715000D01*
G75*
G02*
X117945000Y-40915000I0J-200000D01*
G01*
X117945000Y-41315000D01*
G75*
G02*
X117745000Y-41515000I-200000J0D01*
G01*
X117195000Y-41515000D01*
G75*
G02*
X116995000Y-41315000I0J200000D01*
G01*
X116995000Y-40915000D01*
G75*
G02*
X117195000Y-40715000I200000J0D01*
G01*
G37*
G04 #@! TD*
G04 #@! TO.C,R28*
G36*
G01*
X150285000Y-65985000D02*
X149735000Y-65985000D01*
G75*
G02*
X149535000Y-65785000I0J200000D01*
G01*
X149535000Y-65385000D01*
G75*
G02*
X149735000Y-65185000I200000J0D01*
G01*
X150285000Y-65185000D01*
G75*
G02*
X150485000Y-65385000I0J-200000D01*
G01*
X150485000Y-65785000D01*
G75*
G02*
X150285000Y-65985000I-200000J0D01*
G01*
G37*
G36*
G01*
X150285000Y-67635000D02*
X149735000Y-67635000D01*
G75*
G02*
X149535000Y-67435000I0J200000D01*
G01*
X149535000Y-67035000D01*
G75*
G02*
X149735000Y-66835000I200000J0D01*
G01*
X150285000Y-66835000D01*
G75*
G02*
X150485000Y-67035000I0J-200000D01*
G01*
X150485000Y-67435000D01*
G75*
G02*
X150285000Y-67635000I-200000J0D01*
G01*
G37*
G04 #@! TD*
G04 #@! TO.C,R16*
G36*
G01*
X145945000Y-40415000D02*
X145395000Y-40415000D01*
G75*
G02*
X145195000Y-40215000I0J200000D01*
G01*
X145195000Y-39815000D01*
G75*
G02*
X145395000Y-39615000I200000J0D01*
G01*
X145945000Y-39615000D01*
G75*
G02*
X146145000Y-39815000I0J-200000D01*
G01*
X146145000Y-40215000D01*
G75*
G02*
X145945000Y-40415000I-200000J0D01*
G01*
G37*
G36*
G01*
X145945000Y-42065000D02*
X145395000Y-42065000D01*
G75*
G02*
X145195000Y-41865000I0J200000D01*
G01*
X145195000Y-41465000D01*
G75*
G02*
X145395000Y-41265000I200000J0D01*
G01*
X145945000Y-41265000D01*
G75*
G02*
X146145000Y-41465000I0J-200000D01*
G01*
X146145000Y-41865000D01*
G75*
G02*
X145945000Y-42065000I-200000J0D01*
G01*
G37*
G04 #@! TD*
G04 #@! TO.C,R3*
G36*
G01*
X136595000Y-51975000D02*
X137145000Y-51975000D01*
G75*
G02*
X137345000Y-52175000I0J-200000D01*
G01*
X137345000Y-52575000D01*
G75*
G02*
X137145000Y-52775000I-200000J0D01*
G01*
X136595000Y-52775000D01*
G75*
G02*
X136395000Y-52575000I0J200000D01*
G01*
X136395000Y-52175000D01*
G75*
G02*
X136595000Y-51975000I200000J0D01*
G01*
G37*
G36*
G01*
X136595000Y-50325000D02*
X137145000Y-50325000D01*
G75*
G02*
X137345000Y-50525000I0J-200000D01*
G01*
X137345000Y-50925000D01*
G75*
G02*
X137145000Y-51125000I-200000J0D01*
G01*
X136595000Y-51125000D01*
G75*
G02*
X136395000Y-50925000I0J200000D01*
G01*
X136395000Y-50525000D01*
G75*
G02*
X136595000Y-50325000I200000J0D01*
G01*
G37*
G04 #@! TD*
G04 #@! TO.C,R12*
G36*
G01*
X121065000Y-105475000D02*
X121065000Y-104925000D01*
G75*
G02*
X121265000Y-104725000I200000J0D01*
G01*
X121665000Y-104725000D01*
G75*
G02*
X121865000Y-104925000I0J-200000D01*
G01*
X121865000Y-105475000D01*
G75*
G02*
X121665000Y-105675000I-200000J0D01*
G01*
X121265000Y-105675000D01*
G75*
G02*
X121065000Y-105475000I0J200000D01*
G01*
G37*
G36*
G01*
X119415000Y-105475000D02*
X119415000Y-104925000D01*
G75*
G02*
X119615000Y-104725000I200000J0D01*
G01*
X120015000Y-104725000D01*
G75*
G02*
X120215000Y-104925000I0J-200000D01*
G01*
X120215000Y-105475000D01*
G75*
G02*
X120015000Y-105675000I-200000J0D01*
G01*
X119615000Y-105675000D01*
G75*
G02*
X119415000Y-105475000I0J200000D01*
G01*
G37*
G04 #@! TD*
G04 #@! TO.C,SW4*
X118843001Y-87650001D03*
X118843001Y-84300001D03*
G04 #@! TD*
G04 #@! TO.C,R7*
G36*
G01*
X144635000Y-53415000D02*
X144085000Y-53415000D01*
G75*
G02*
X143885000Y-53215000I0J200000D01*
G01*
X143885000Y-52815000D01*
G75*
G02*
X144085000Y-52615000I200000J0D01*
G01*
X144635000Y-52615000D01*
G75*
G02*
X144835000Y-52815000I0J-200000D01*
G01*
X144835000Y-53215000D01*
G75*
G02*
X144635000Y-53415000I-200000J0D01*
G01*
G37*
G36*
G01*
X144635000Y-55065000D02*
X144085000Y-55065000D01*
G75*
G02*
X143885000Y-54865000I0J200000D01*
G01*
X143885000Y-54465000D01*
G75*
G02*
X144085000Y-54265000I200000J0D01*
G01*
X144635000Y-54265000D01*
G75*
G02*
X144835000Y-54465000I0J-200000D01*
G01*
X144835000Y-54865000D01*
G75*
G02*
X144635000Y-55065000I-200000J0D01*
G01*
G37*
G04 #@! TD*
D24*
G04 #@! TO.C,U6*
X138670000Y-81696000D03*
X138670000Y-80680000D03*
X138670000Y-79664000D03*
X138670000Y-78648000D03*
X138670000Y-77632000D03*
X138670000Y-76616000D03*
X138670000Y-75600000D03*
X138670000Y-74584000D03*
D25*
X148186000Y-84640000D03*
X154282000Y-84640000D03*
X145138000Y-84640000D03*
X146154000Y-84640000D03*
X153266000Y-84640000D03*
X152250000Y-84640000D03*
X151234000Y-84640000D03*
X150218000Y-84640000D03*
X140058000Y-84640000D03*
X141074000Y-84640000D03*
X147170000Y-84640000D03*
X143106000Y-84640000D03*
X149202000Y-84640000D03*
X144122000Y-84640000D03*
X142090000Y-84640000D03*
X154282000Y-71640000D03*
X153266000Y-71640000D03*
X152250000Y-71640000D03*
X151234000Y-71640000D03*
X150218000Y-71640000D03*
X149202000Y-71640000D03*
X148186000Y-71640000D03*
X147170000Y-71640000D03*
X146170000Y-71640000D03*
X145138000Y-71640000D03*
X144122000Y-71640000D03*
X143106000Y-71640000D03*
X142090000Y-71640000D03*
X141074000Y-71640000D03*
X140058000Y-71640000D03*
G04 #@! TD*
D21*
G04 #@! TO.C,U8*
X127351573Y-66289899D03*
X127351573Y-68189899D03*
X125151573Y-68189899D03*
X125151573Y-67239899D03*
X125151573Y-66289899D03*
G04 #@! TD*
D26*
G04 #@! TO.C,U7*
X148710000Y-57390000D03*
X148210000Y-57390000D03*
X147710000Y-57390000D03*
X147210000Y-57390000D03*
X146710000Y-57390000D03*
X146710000Y-53090000D03*
X147210000Y-53090000D03*
X147710000Y-53090000D03*
X148210000Y-53090000D03*
X148710000Y-53090000D03*
G04 #@! TD*
D27*
G04 #@! TO.C,U9*
X138380000Y-60220000D03*
X140280000Y-60220000D03*
X140280000Y-62420000D03*
X139330000Y-62420000D03*
X138380000Y-62420000D03*
G04 #@! TD*
D18*
G04 #@! TO.C,SW1*
X119250000Y-71805000D03*
X119250000Y-68455000D03*
G04 #@! TD*
G04 #@! TO.C,C23*
G36*
G01*
X139545000Y-55610000D02*
X139545000Y-55110000D01*
G75*
G02*
X139770000Y-54885000I225000J0D01*
G01*
X140220000Y-54885000D01*
G75*
G02*
X140445000Y-55110000I0J-225000D01*
G01*
X140445000Y-55610000D01*
G75*
G02*
X140220000Y-55835000I-225000J0D01*
G01*
X139770000Y-55835000D01*
G75*
G02*
X139545000Y-55610000I0J225000D01*
G01*
G37*
G36*
G01*
X137995000Y-55610000D02*
X137995000Y-55110000D01*
G75*
G02*
X138220000Y-54885000I225000J0D01*
G01*
X138670000Y-54885000D01*
G75*
G02*
X138895000Y-55110000I0J-225000D01*
G01*
X138895000Y-55610000D01*
G75*
G02*
X138670000Y-55835000I-225000J0D01*
G01*
X138220000Y-55835000D01*
G75*
G02*
X137995000Y-55610000I0J225000D01*
G01*
G37*
G04 #@! TD*
G04 #@! TO.C,C22*
G36*
G01*
X129501573Y-67244899D02*
X130001573Y-67244899D01*
G75*
G02*
X130226573Y-67469899I0J-225000D01*
G01*
X130226573Y-67919899D01*
G75*
G02*
X130001573Y-68144899I-225000J0D01*
G01*
X129501573Y-68144899D01*
G75*
G02*
X129276573Y-67919899I0J225000D01*
G01*
X129276573Y-67469899D01*
G75*
G02*
X129501573Y-67244899I225000J0D01*
G01*
G37*
G36*
G01*
X129501573Y-65694899D02*
X130001573Y-65694899D01*
G75*
G02*
X130226573Y-65919899I0J-225000D01*
G01*
X130226573Y-66369899D01*
G75*
G02*
X130001573Y-66594899I-225000J0D01*
G01*
X129501573Y-66594899D01*
G75*
G02*
X129276573Y-66369899I0J225000D01*
G01*
X129276573Y-65919899D01*
G75*
G02*
X129501573Y-65694899I225000J0D01*
G01*
G37*
G04 #@! TD*
G04 #@! TO.C,C21*
G36*
G01*
X139530000Y-58100000D02*
X139530000Y-57600000D01*
G75*
G02*
X139755000Y-57375000I225000J0D01*
G01*
X140205000Y-57375000D01*
G75*
G02*
X140430000Y-57600000I0J-225000D01*
G01*
X140430000Y-58100000D01*
G75*
G02*
X140205000Y-58325000I-225000J0D01*
G01*
X139755000Y-58325000D01*
G75*
G02*
X139530000Y-58100000I0J225000D01*
G01*
G37*
G36*
G01*
X137980000Y-58100000D02*
X137980000Y-57600000D01*
G75*
G02*
X138205000Y-57375000I225000J0D01*
G01*
X138655000Y-57375000D01*
G75*
G02*
X138880000Y-57600000I0J-225000D01*
G01*
X138880000Y-58100000D01*
G75*
G02*
X138655000Y-58325000I-225000J0D01*
G01*
X138205000Y-58325000D01*
G75*
G02*
X137980000Y-58100000I0J225000D01*
G01*
G37*
G04 #@! TD*
G04 #@! TO.C,C19*
G36*
G01*
X150760000Y-55665000D02*
X151260000Y-55665000D01*
G75*
G02*
X151485000Y-55890000I0J-225000D01*
G01*
X151485000Y-56340000D01*
G75*
G02*
X151260000Y-56565000I-225000J0D01*
G01*
X150760000Y-56565000D01*
G75*
G02*
X150535000Y-56340000I0J225000D01*
G01*
X150535000Y-55890000D01*
G75*
G02*
X150760000Y-55665000I225000J0D01*
G01*
G37*
G36*
G01*
X150760000Y-54115000D02*
X151260000Y-54115000D01*
G75*
G02*
X151485000Y-54340000I0J-225000D01*
G01*
X151485000Y-54790000D01*
G75*
G02*
X151260000Y-55015000I-225000J0D01*
G01*
X150760000Y-55015000D01*
G75*
G02*
X150535000Y-54790000I0J225000D01*
G01*
X150535000Y-54340000D01*
G75*
G02*
X150760000Y-54115000I225000J0D01*
G01*
G37*
G04 #@! TD*
G04 #@! TO.C,C18*
G36*
G01*
X132520000Y-60415000D02*
X132020000Y-60415000D01*
G75*
G02*
X131795000Y-60190000I0J225000D01*
G01*
X131795000Y-59740000D01*
G75*
G02*
X132020000Y-59515000I225000J0D01*
G01*
X132520000Y-59515000D01*
G75*
G02*
X132745000Y-59740000I0J-225000D01*
G01*
X132745000Y-60190000D01*
G75*
G02*
X132520000Y-60415000I-225000J0D01*
G01*
G37*
G36*
G01*
X132520000Y-61965000D02*
X132020000Y-61965000D01*
G75*
G02*
X131795000Y-61740000I0J225000D01*
G01*
X131795000Y-61290000D01*
G75*
G02*
X132020000Y-61065000I225000J0D01*
G01*
X132520000Y-61065000D01*
G75*
G02*
X132745000Y-61290000I0J-225000D01*
G01*
X132745000Y-61740000D01*
G75*
G02*
X132520000Y-61965000I-225000J0D01*
G01*
G37*
G04 #@! TD*
G04 #@! TO.C,C17*
G36*
G01*
X125576573Y-59859899D02*
X125576573Y-60359899D01*
G75*
G02*
X125351573Y-60584899I-225000J0D01*
G01*
X124901573Y-60584899D01*
G75*
G02*
X124676573Y-60359899I0J225000D01*
G01*
X124676573Y-59859899D01*
G75*
G02*
X124901573Y-59634899I225000J0D01*
G01*
X125351573Y-59634899D01*
G75*
G02*
X125576573Y-59859899I0J-225000D01*
G01*
G37*
G36*
G01*
X127126573Y-59859899D02*
X127126573Y-60359899D01*
G75*
G02*
X126901573Y-60584899I-225000J0D01*
G01*
X126451573Y-60584899D01*
G75*
G02*
X126226573Y-60359899I0J225000D01*
G01*
X126226573Y-59859899D01*
G75*
G02*
X126451573Y-59634899I225000J0D01*
G01*
X126901573Y-59634899D01*
G75*
G02*
X127126573Y-59859899I0J-225000D01*
G01*
G37*
G04 #@! TD*
G04 #@! TO.C,C16*
G36*
G01*
X135900001Y-59940000D02*
X134599999Y-59940000D01*
G75*
G02*
X134350000Y-59690001I0J249999D01*
G01*
X134350000Y-59039999D01*
G75*
G02*
X134599999Y-58790000I249999J0D01*
G01*
X135900001Y-58790000D01*
G75*
G02*
X136150000Y-59039999I0J-249999D01*
G01*
X136150000Y-59690001D01*
G75*
G02*
X135900001Y-59940000I-249999J0D01*
G01*
G37*
G36*
G01*
X135900001Y-62890000D02*
X134599999Y-62890000D01*
G75*
G02*
X134350000Y-62640001I0J249999D01*
G01*
X134350000Y-61989999D01*
G75*
G02*
X134599999Y-61740000I249999J0D01*
G01*
X135900001Y-61740000D01*
G75*
G02*
X136150000Y-61989999I0J-249999D01*
G01*
X136150000Y-62640001D01*
G75*
G02*
X135900001Y-62890000I-249999J0D01*
G01*
G37*
G04 #@! TD*
G04 #@! TO.C,C15*
G36*
G01*
X125001573Y-62459898D02*
X125001573Y-63759900D01*
G75*
G02*
X124751574Y-64009899I-249999J0D01*
G01*
X124101572Y-64009899D01*
G75*
G02*
X123851573Y-63759900I0J249999D01*
G01*
X123851573Y-62459898D01*
G75*
G02*
X124101572Y-62209899I249999J0D01*
G01*
X124751574Y-62209899D01*
G75*
G02*
X125001573Y-62459898I0J-249999D01*
G01*
G37*
G36*
G01*
X127951573Y-62459898D02*
X127951573Y-63759900D01*
G75*
G02*
X127701574Y-64009899I-249999J0D01*
G01*
X127051572Y-64009899D01*
G75*
G02*
X126801573Y-63759900I0J249999D01*
G01*
X126801573Y-62459898D01*
G75*
G02*
X127051572Y-62209899I249999J0D01*
G01*
X127701574Y-62209899D01*
G75*
G02*
X127951573Y-62459898I0J-249999D01*
G01*
G37*
G04 #@! TD*
G04 #@! TO.C,C14*
G36*
G01*
X141515000Y-101800000D02*
X141515000Y-101300000D01*
G75*
G02*
X141740000Y-101075000I225000J0D01*
G01*
X142190000Y-101075000D01*
G75*
G02*
X142415000Y-101300000I0J-225000D01*
G01*
X142415000Y-101800000D01*
G75*
G02*
X142190000Y-102025000I-225000J0D01*
G01*
X141740000Y-102025000D01*
G75*
G02*
X141515000Y-101800000I0J225000D01*
G01*
G37*
G36*
G01*
X139965000Y-101800000D02*
X139965000Y-101300000D01*
G75*
G02*
X140190000Y-101075000I225000J0D01*
G01*
X140640000Y-101075000D01*
G75*
G02*
X140865000Y-101300000I0J-225000D01*
G01*
X140865000Y-101800000D01*
G75*
G02*
X140640000Y-102025000I-225000J0D01*
G01*
X140190000Y-102025000D01*
G75*
G02*
X139965000Y-101800000I0J225000D01*
G01*
G37*
G04 #@! TD*
G04 #@! TO.C,C13*
G36*
G01*
X148420000Y-40515000D02*
X147920000Y-40515000D01*
G75*
G02*
X147695000Y-40290000I0J225000D01*
G01*
X147695000Y-39840000D01*
G75*
G02*
X147920000Y-39615000I225000J0D01*
G01*
X148420000Y-39615000D01*
G75*
G02*
X148645000Y-39840000I0J-225000D01*
G01*
X148645000Y-40290000D01*
G75*
G02*
X148420000Y-40515000I-225000J0D01*
G01*
G37*
G36*
G01*
X148420000Y-42065000D02*
X147920000Y-42065000D01*
G75*
G02*
X147695000Y-41840000I0J225000D01*
G01*
X147695000Y-41390000D01*
G75*
G02*
X147920000Y-41165000I225000J0D01*
G01*
X148420000Y-41165000D01*
G75*
G02*
X148645000Y-41390000I0J-225000D01*
G01*
X148645000Y-41840000D01*
G75*
G02*
X148420000Y-42065000I-225000J0D01*
G01*
G37*
G04 #@! TD*
G04 #@! TO.C,C12*
G36*
G01*
X141515000Y-104800000D02*
X141515000Y-104300000D01*
G75*
G02*
X141740000Y-104075000I225000J0D01*
G01*
X142190000Y-104075000D01*
G75*
G02*
X142415000Y-104300000I0J-225000D01*
G01*
X142415000Y-104800000D01*
G75*
G02*
X142190000Y-105025000I-225000J0D01*
G01*
X141740000Y-105025000D01*
G75*
G02*
X141515000Y-104800000I0J225000D01*
G01*
G37*
G36*
G01*
X139965000Y-104800000D02*
X139965000Y-104300000D01*
G75*
G02*
X140190000Y-104075000I225000J0D01*
G01*
X140640000Y-104075000D01*
G75*
G02*
X140865000Y-104300000I0J-225000D01*
G01*
X140865000Y-104800000D01*
G75*
G02*
X140640000Y-105025000I-225000J0D01*
G01*
X140190000Y-105025000D01*
G75*
G02*
X139965000Y-104800000I0J225000D01*
G01*
G37*
G04 #@! TD*
G04 #@! TO.C,C11*
G36*
G01*
X134520000Y-88365000D02*
X135020000Y-88365000D01*
G75*
G02*
X135245000Y-88590000I0J-225000D01*
G01*
X135245000Y-89040000D01*
G75*
G02*
X135020000Y-89265000I-225000J0D01*
G01*
X134520000Y-89265000D01*
G75*
G02*
X134295000Y-89040000I0J225000D01*
G01*
X134295000Y-88590000D01*
G75*
G02*
X134520000Y-88365000I225000J0D01*
G01*
G37*
G36*
G01*
X134520000Y-86815000D02*
X135020000Y-86815000D01*
G75*
G02*
X135245000Y-87040000I0J-225000D01*
G01*
X135245000Y-87490000D01*
G75*
G02*
X135020000Y-87715000I-225000J0D01*
G01*
X134520000Y-87715000D01*
G75*
G02*
X134295000Y-87490000I0J225000D01*
G01*
X134295000Y-87040000D01*
G75*
G02*
X134520000Y-86815000I225000J0D01*
G01*
G37*
G04 #@! TD*
G04 #@! TO.C,C10*
G36*
G01*
X147105000Y-43630000D02*
X147105000Y-44130000D01*
G75*
G02*
X146880000Y-44355000I-225000J0D01*
G01*
X146430000Y-44355000D01*
G75*
G02*
X146205000Y-44130000I0J225000D01*
G01*
X146205000Y-43630000D01*
G75*
G02*
X146430000Y-43405000I225000J0D01*
G01*
X146880000Y-43405000D01*
G75*
G02*
X147105000Y-43630000I0J-225000D01*
G01*
G37*
G36*
G01*
X148655000Y-43630000D02*
X148655000Y-44130000D01*
G75*
G02*
X148430000Y-44355000I-225000J0D01*
G01*
X147980000Y-44355000D01*
G75*
G02*
X147755000Y-44130000I0J225000D01*
G01*
X147755000Y-43630000D01*
G75*
G02*
X147980000Y-43405000I225000J0D01*
G01*
X148430000Y-43405000D01*
G75*
G02*
X148655000Y-43630000I0J-225000D01*
G01*
G37*
G04 #@! TD*
G04 #@! TO.C,C9*
G36*
G01*
X153595000Y-69490000D02*
X153595000Y-68990000D01*
G75*
G02*
X153820000Y-68765000I225000J0D01*
G01*
X154270000Y-68765000D01*
G75*
G02*
X154495000Y-68990000I0J-225000D01*
G01*
X154495000Y-69490000D01*
G75*
G02*
X154270000Y-69715000I-225000J0D01*
G01*
X153820000Y-69715000D01*
G75*
G02*
X153595000Y-69490000I0J225000D01*
G01*
G37*
G36*
G01*
X152045000Y-69490000D02*
X152045000Y-68990000D01*
G75*
G02*
X152270000Y-68765000I225000J0D01*
G01*
X152720000Y-68765000D01*
G75*
G02*
X152945000Y-68990000I0J-225000D01*
G01*
X152945000Y-69490000D01*
G75*
G02*
X152720000Y-69715000I-225000J0D01*
G01*
X152270000Y-69715000D01*
G75*
G02*
X152045000Y-69490000I0J225000D01*
G01*
G37*
G04 #@! TD*
G04 #@! TO.C,C8*
G36*
G01*
X140320000Y-43065000D02*
X140820000Y-43065000D01*
G75*
G02*
X141045000Y-43290000I0J-225000D01*
G01*
X141045000Y-43740000D01*
G75*
G02*
X140820000Y-43965000I-225000J0D01*
G01*
X140320000Y-43965000D01*
G75*
G02*
X140095000Y-43740000I0J225000D01*
G01*
X140095000Y-43290000D01*
G75*
G02*
X140320000Y-43065000I225000J0D01*
G01*
G37*
G36*
G01*
X140320000Y-41515000D02*
X140820000Y-41515000D01*
G75*
G02*
X141045000Y-41740000I0J-225000D01*
G01*
X141045000Y-42190000D01*
G75*
G02*
X140820000Y-42415000I-225000J0D01*
G01*
X140320000Y-42415000D01*
G75*
G02*
X140095000Y-42190000I0J225000D01*
G01*
X140095000Y-41740000D01*
G75*
G02*
X140320000Y-41515000I225000J0D01*
G01*
G37*
G04 #@! TD*
G04 #@! TO.C,C7*
G36*
G01*
X123890000Y-101185000D02*
X124390000Y-101185000D01*
G75*
G02*
X124615000Y-101410000I0J-225000D01*
G01*
X124615000Y-101860000D01*
G75*
G02*
X124390000Y-102085000I-225000J0D01*
G01*
X123890000Y-102085000D01*
G75*
G02*
X123665000Y-101860000I0J225000D01*
G01*
X123665000Y-101410000D01*
G75*
G02*
X123890000Y-101185000I225000J0D01*
G01*
G37*
G36*
G01*
X123890000Y-99635000D02*
X124390000Y-99635000D01*
G75*
G02*
X124615000Y-99860000I0J-225000D01*
G01*
X124615000Y-100310000D01*
G75*
G02*
X124390000Y-100535000I-225000J0D01*
G01*
X123890000Y-100535000D01*
G75*
G02*
X123665000Y-100310000I0J225000D01*
G01*
X123665000Y-99860000D01*
G75*
G02*
X123890000Y-99635000I225000J0D01*
G01*
G37*
G04 #@! TD*
G04 #@! TO.C,C6*
G36*
G01*
X134520000Y-92465000D02*
X135020000Y-92465000D01*
G75*
G02*
X135245000Y-92690000I0J-225000D01*
G01*
X135245000Y-93140000D01*
G75*
G02*
X135020000Y-93365000I-225000J0D01*
G01*
X134520000Y-93365000D01*
G75*
G02*
X134295000Y-93140000I0J225000D01*
G01*
X134295000Y-92690000D01*
G75*
G02*
X134520000Y-92465000I225000J0D01*
G01*
G37*
G36*
G01*
X134520000Y-90915000D02*
X135020000Y-90915000D01*
G75*
G02*
X135245000Y-91140000I0J-225000D01*
G01*
X135245000Y-91590000D01*
G75*
G02*
X135020000Y-91815000I-225000J0D01*
G01*
X134520000Y-91815000D01*
G75*
G02*
X134295000Y-91590000I0J225000D01*
G01*
X134295000Y-91140000D01*
G75*
G02*
X134520000Y-90915000I225000J0D01*
G01*
G37*
G04 #@! TD*
G04 #@! TO.C,C5*
G36*
G01*
X141620000Y-51875000D02*
X142120000Y-51875000D01*
G75*
G02*
X142345000Y-52100000I0J-225000D01*
G01*
X142345000Y-52550000D01*
G75*
G02*
X142120000Y-52775000I-225000J0D01*
G01*
X141620000Y-52775000D01*
G75*
G02*
X141395000Y-52550000I0J225000D01*
G01*
X141395000Y-52100000D01*
G75*
G02*
X141620000Y-51875000I225000J0D01*
G01*
G37*
G36*
G01*
X141620000Y-50325000D02*
X142120000Y-50325000D01*
G75*
G02*
X142345000Y-50550000I0J-225000D01*
G01*
X142345000Y-51000000D01*
G75*
G02*
X142120000Y-51225000I-225000J0D01*
G01*
X141620000Y-51225000D01*
G75*
G02*
X141395000Y-51000000I0J225000D01*
G01*
X141395000Y-50550000D01*
G75*
G02*
X141620000Y-50325000I225000J0D01*
G01*
G37*
G04 #@! TD*
G04 #@! TO.C,C4*
G36*
G01*
X138345000Y-47690000D02*
X138345000Y-48190000D01*
G75*
G02*
X138120000Y-48415000I-225000J0D01*
G01*
X137670000Y-48415000D01*
G75*
G02*
X137445000Y-48190000I0J225000D01*
G01*
X137445000Y-47690000D01*
G75*
G02*
X137670000Y-47465000I225000J0D01*
G01*
X138120000Y-47465000D01*
G75*
G02*
X138345000Y-47690000I0J-225000D01*
G01*
G37*
G36*
G01*
X139895000Y-47690000D02*
X139895000Y-48190000D01*
G75*
G02*
X139670000Y-48415000I-225000J0D01*
G01*
X139220000Y-48415000D01*
G75*
G02*
X138995000Y-48190000I0J225000D01*
G01*
X138995000Y-47690000D01*
G75*
G02*
X139220000Y-47465000I225000J0D01*
G01*
X139670000Y-47465000D01*
G75*
G02*
X139895000Y-47690000I0J-225000D01*
G01*
G37*
G04 #@! TD*
G04 #@! TO.C,C3*
G36*
G01*
X117390000Y-101165000D02*
X116890000Y-101165000D01*
G75*
G02*
X116665000Y-100940000I0J225000D01*
G01*
X116665000Y-100490000D01*
G75*
G02*
X116890000Y-100265000I225000J0D01*
G01*
X117390000Y-100265000D01*
G75*
G02*
X117615000Y-100490000I0J-225000D01*
G01*
X117615000Y-100940000D01*
G75*
G02*
X117390000Y-101165000I-225000J0D01*
G01*
G37*
G36*
G01*
X117390000Y-102715000D02*
X116890000Y-102715000D01*
G75*
G02*
X116665000Y-102490000I0J225000D01*
G01*
X116665000Y-102040000D01*
G75*
G02*
X116890000Y-101815000I225000J0D01*
G01*
X117390000Y-101815000D01*
G75*
G02*
X117615000Y-102040000I0J-225000D01*
G01*
X117615000Y-102490000D01*
G75*
G02*
X117390000Y-102715000I-225000J0D01*
G01*
G37*
G04 #@! TD*
G04 #@! TO.C,C2*
G36*
G01*
X136720000Y-40215000D02*
X136220000Y-40215000D01*
G75*
G02*
X135995000Y-39990000I0J225000D01*
G01*
X135995000Y-39540000D01*
G75*
G02*
X136220000Y-39315000I225000J0D01*
G01*
X136720000Y-39315000D01*
G75*
G02*
X136945000Y-39540000I0J-225000D01*
G01*
X136945000Y-39990000D01*
G75*
G02*
X136720000Y-40215000I-225000J0D01*
G01*
G37*
G36*
G01*
X136720000Y-41765000D02*
X136220000Y-41765000D01*
G75*
G02*
X135995000Y-41540000I0J225000D01*
G01*
X135995000Y-41090000D01*
G75*
G02*
X136220000Y-40865000I225000J0D01*
G01*
X136720000Y-40865000D01*
G75*
G02*
X136945000Y-41090000I0J-225000D01*
G01*
X136945000Y-41540000D01*
G75*
G02*
X136720000Y-41765000I-225000J0D01*
G01*
G37*
G04 #@! TD*
G04 #@! TO.C,C1*
G36*
G01*
X143955000Y-57270000D02*
X143955000Y-56770000D01*
G75*
G02*
X144180000Y-56545000I225000J0D01*
G01*
X144630000Y-56545000D01*
G75*
G02*
X144855000Y-56770000I0J-225000D01*
G01*
X144855000Y-57270000D01*
G75*
G02*
X144630000Y-57495000I-225000J0D01*
G01*
X144180000Y-57495000D01*
G75*
G02*
X143955000Y-57270000I0J225000D01*
G01*
G37*
G36*
G01*
X142405000Y-57270000D02*
X142405000Y-56770000D01*
G75*
G02*
X142630000Y-56545000I225000J0D01*
G01*
X143080000Y-56545000D01*
G75*
G02*
X143305000Y-56770000I0J-225000D01*
G01*
X143305000Y-57270000D01*
G75*
G02*
X143080000Y-57495000I-225000J0D01*
G01*
X142630000Y-57495000D01*
G75*
G02*
X142405000Y-57270000I0J225000D01*
G01*
G37*
G04 #@! TD*
D28*
G04 #@! TO.C,U3*
X141420000Y-45640000D03*
X141420000Y-46140000D03*
X141420000Y-46640000D03*
X141420000Y-47140000D03*
X141420000Y-47640000D03*
D29*
X142270000Y-48490000D03*
X142770000Y-48490000D03*
X143270000Y-48490000D03*
X143770000Y-48490000D03*
X144270000Y-48490000D03*
D28*
X145120000Y-47640000D03*
X145120000Y-47140000D03*
X145120000Y-46640000D03*
X145120000Y-46140000D03*
X145120000Y-45640000D03*
D29*
X144270000Y-44790000D03*
X143770000Y-44790000D03*
X143270000Y-44790000D03*
X142770000Y-44790000D03*
X142270000Y-44790000D03*
G04 #@! TD*
M02*
